g BazaarRug
v -1 5.960464E-08 -1
v 1 1.192093E-07 -2
v -1 1.192093E-07 -2
v 1 5.960464E-08 -1
v -1 -5.960464E-08 1
v 1 -5.960464E-08 1
v -1 -1.192093E-07 2
v 1 -1.192093E-07 2
v -1 0.08067015 -1
v -1 0.08067021 -2
v 1 0.08067021 -2
v 1 0.08067015 -1
v -1 0.08067003 1
v 1 0.08067003 1
v -1 0.08066997 2
v 1 0.08066997 2
v -1 -5.960464E-08 1
v -1 0.08066997 2
v -1 -1.192093E-07 2
v -1 0.08067003 1
v -1 5.960464E-08 -1
v -1 0.08067015 -1
v -1 1.192093E-07 -2
v -1 0.08067021 -2
v 1 5.960464E-08 -1
v 1 0.08067021 -2
v 1 1.192093E-07 -2
v 1 0.08067015 -1
v 1 -5.960464E-08 1
v 1 0.08067003 1
v 1 -1.192093E-07 2
v 1 0.08066997 2
v 1 1.192093E-07 -2
v 1 0.08067021 -2
v -1 0.08067021 -2
v -1 1.192093E-07 -2
v -1 -1.192093E-07 2
v -1 0.08066997 2
v 1 0.08066997 2
v 1 -1.192093E-07 2
vt 0.8727893 0.1266582
vt 0.127211 0.01446721
vt 0.8727893 0.0144673
vt 0.1272109 0.1266581
vt 0.8727893 0.8722365
vt 0.1272108 0.8722365
vt 0.8727893 0.9844273
vt 0.1272108 0.9844273
vt 0.8727893 0.1266582
vt 0.8727893 0.0144673
vt 0.127211 0.01446721
vt 0.1272109 0.1266581
vt 0.8727893 0.8722365
vt 0.1272108 0.8722365
vt 0.8727893 0.9844273
vt 0.1272108 0.9844273
vt 0.8727893 0.8722365
vt 0.8727893 0.9844273
vt 0.8727893 0.9844273
vt 0.8727893 0.8722365
vt 0.8727893 0.1266582
vt 0.8727893 0.1266582
vt 0.8727893 0.0144673
vt 0.8727893 0.0144673
vt 0.1272109 0.1266581
vt 0.127211 0.01446721
vt 0.127211 0.01446721
vt 0.1272109 0.1266581
vt 0.1272108 0.8722365
vt 0.1272108 0.8722365
vt 0.1272108 0.9844273
vt 0.1272108 0.9844273
vt 0.127211 0.01446721
vt 0.127211 0.01446721
vt 0.8727893 0.0144673
vt 0.8727893 0.0144673
vt 0.8727893 0.9844273
vt 0.8727893 0.9844273
vt 0.1272108 0.9844273
vt 0.1272108 0.9844273
vn 0 -1 0
vn 0 -1 0
vn 0 -1 0
vn 0 -1 0
vn 0 -1 0
vn 0 -1 0
vn 0 -1 0
vn 0 -1 0
vn 0 1 0
vn 0 1 0
vn 0 1 0
vn 0 1 0
vn 0 1 0
vn 0 1 0
vn 0 1 0
vn 0 1 0
vn -1 0 0
vn -1 0 0
vn -1 0 0
vn -1 0 0
vn -1 0 0
vn -1 0 0
vn -1 0 0
vn -1 0 0
vn 1 0 0
vn 1 0 0
vn 1 0 0
vn 1 0 0
vn 1 0 0
vn 1 0 0
vn 1 0 0
vn 1 0 0
vn 0 0 -1
vn 0 0 -1
vn 0 0 -1
vn 0 0 -1
vn 0 0 1
vn 0 0 1
vn 0 0 1
vn 0 0 1
g BazaarRug_0
f 3/3/3 2/2/2 1/1/1
f 2/2/2 4/4/4 1/1/1
f 1/1/1 4/4/4 5/5/5
f 4/4/4 6/6/6 5/5/5
f 7/7/7 5/5/5 6/6/6
f 8/8/8 7/7/7 6/6/6
f 11/11/11 10/10/10 9/9/9
f 12/12/12 11/11/11 9/9/9
f 12/12/12 9/9/9 13/13/13
f 14/14/14 12/12/12 13/13/13
f 13/13/13 15/15/15 14/14/14
f 15/15/15 16/16/16 14/14/14
f 19/19/19 18/18/18 17/17/17
f 18/18/18 20/20/20 17/17/17
f 17/17/17 20/20/20 21/21/21
f 20/20/20 22/22/22 21/21/21
f 21/21/21 22/22/22 23/23/23
f 22/22/22 24/24/24 23/23/23
f 27/27/27 26/26/26 25/25/25
f 26/26/26 28/28/28 25/25/25
f 25/25/25 28/28/28 29/29/29
f 28/28/28 30/30/30 29/29/29
f 29/29/29 30/30/30 31/31/31
f 30/30/30 32/32/32 31/31/31
f 35/35/35 34/34/34 33/33/33
f 36/36/36 35/35/35 33/33/33
f 39/39/39 38/38/38 37/37/37
f 40/40/40 39/39/39 37/37/37
