g BazaarWoodColumn1
v -0.6551157 0.8471805 -9.624352
v 0.6551157 0.8471805 9.624352
v -0.6551157 0.8471805 9.624352
v 0.6551157 0.8471805 -9.624352
v 0.8471805 0.6551157 9.624352
v 0.8471805 0.6551157 -9.624352
v 0.8471805 -0.6551157 9.624352
v 0.8471805 -0.6551157 -9.624352
v 0.6551157 -0.8471805 9.624352
v 0.6551157 -0.8471805 -9.624352
v -0.6551157 -0.8471805 9.624352
v -0.6551157 -0.8471805 -9.624352
v -0.8471805 -0.6551157 9.624352
v -0.8471805 -0.6551157 -9.624352
v -0.8471805 0.6551157 9.624352
v -0.8471805 0.6551157 -9.624352
v -0.6551157 0.8471805 9.624352
v -0.6551157 0.8471805 -9.624352
v -0.6551157 -0.6551157 -9.816417
v -0.8471805 -0.6551157 -9.624352
v -0.6551157 -0.8471805 -9.624352
v 0.6551157 -0.8471805 -9.624352
v -0.6551157 0.6551157 -9.816417
v -0.8471805 0.6551157 -9.624352
v -0.6551157 0.8471805 -9.624352
v 0.6551157 -0.6551157 -9.816417
v 0.8471805 -0.6551157 -9.624352
v 0.8471805 0.6551157 -9.624352
v 0.6551157 0.6551157 -9.816417
v 0.6551157 0.8471805 -9.624352
v -0.6551157 -0.8471805 9.624352
v -0.8471805 -0.6551157 9.624352
v -0.6551157 -0.6551157 9.816417
v -0.8471805 0.6551157 9.624352
v 0.6551157 -0.6551157 9.816417
v 0.6551157 -0.8471805 9.624352
v 0.8471805 -0.6551157 9.624352
v 0.6551157 0.6551157 9.816417
v 0.8471805 0.6551157 9.624352
v 0.6551157 0.8471805 9.624352
v -0.6551157 0.6551157 9.816417
v -0.6551157 0.8471805 9.624352
vt 1.002449 -4.312176
vt 0.7929248 5.312176
vt 1.002449 5.312176
vt 0.7929248 -4.312176
vt 0.7524493 5.312176
vt 0.7524492 -4.312176
vt 0.5429249 5.312176
vt 0.5429246 -4.312176
vt 0.5024494 5.312176
vt 0.502449 -4.312176
vt 0.2929248 5.312176
vt 0.2929248 -4.312176
vt 0.2524492 5.312176
vt 0.2524493 -4.312176
vt 0.04292461 5.312176
vt 0.042925 -4.312176
vt 0.002449065 5.312176
vt 0.002449393 -4.312176
vt 0.3165732 0.6774886
vt 0.239625 0.6945109
vt 0.303045 0.7579311
vt 0.6843663 0.7579625
vt 0.309216 0.326478
vt 0.2285771 0.3136644
vt 0.2926844 0.2494728
vt 0.6678346 0.6809574
vt 0.7484735 0.6937708
vt 0.7374259 0.3129242
vt 0.6604778 0.3299468
vt 0.6740059 0.2495038
vt 0.2877302 0.2448221
vt 0.2236228 0.3090135
vt 0.3042619 0.321827
vt 0.2346706 0.6898601
vt 0.6555232 0.3252957
vt 0.6690515 0.2448532
vt 0.7324715 0.3082734
vt 0.6628805 0.6763063
vt 0.7435194 0.6891198
vt 0.6794122 0.7533109
vt 0.3116187 0.6728376
vt 0.2980907 0.7532806
vn -0.3415693 0.8755917 -0.3415693
vn 0.3415693 0.8755917 0.3415693
vn -0.3415693 0.8755917 0.3415693
vn 0.3415693 0.8755917 -0.3415693
vn 0.8755917 0.3415693 0.3415693
vn 0.8755917 0.3415693 -0.3415693
vn 0.8755917 -0.3415693 0.3415693
vn 0.8755917 -0.3415693 -0.3415693
vn 0.3415693 -0.8755917 0.3415693
vn 0.3415693 -0.8755917 -0.3415693
vn -0.3415693 -0.8755917 0.3415693
vn -0.3415693 -0.8755917 -0.3415693
vn -0.8755917 -0.3415693 0.3415693
vn -0.8755917 -0.3415693 -0.3415693
vn -0.8755917 0.3415693 0.3415693
vn -0.8755917 0.3415693 -0.3415693
vn -0.3415693 0.8755917 0.3415693
vn -0.3415693 0.8755917 -0.3415693
vn -0.3415693 -0.3415693 -0.8755917
vn -0.8755917 -0.3415693 -0.3415693
vn -0.3415693 -0.8755917 -0.3415693
vn 0.3415693 -0.8755917 -0.3415693
vn -0.3415693 0.3415693 -0.8755917
vn -0.8755917 0.3415693 -0.3415693
vn -0.3415693 0.8755917 -0.3415693
vn 0.3415693 -0.3415693 -0.8755917
vn 0.8755917 -0.3415693 -0.3415693
vn 0.8755917 0.3415693 -0.3415693
vn 0.3415693 0.3415693 -0.8755917
vn 0.3415693 0.8755917 -0.3415693
vn -0.3415693 -0.8755917 0.3415693
vn -0.8755917 -0.3415693 0.3415693
vn -0.3415693 -0.3415693 0.8755917
vn -0.8755917 0.3415693 0.3415693
vn 0.3415693 -0.3415693 0.8755917
vn 0.3415693 -0.8755917 0.3415693
vn 0.8755917 -0.3415693 0.3415693
vn 0.3415693 0.3415693 0.8755917
vn 0.8755917 0.3415693 0.3415693
vn 0.3415693 0.8755917 0.3415693
vn -0.3415693 0.3415693 0.8755917
vn -0.3415693 0.8755917 0.3415693
g BazaarWoodColumn1_0
f 3/3/3 2/2/2 1/1/1
f 2/2/2 4/4/4 1/1/1
f 4/4/4 2/2/2 5/5/5
f 6/6/6 4/4/4 5/5/5
f 5/5/5 7/7/7 6/6/6
f 7/7/7 8/8/8 6/6/6
f 8/8/8 7/7/7 9/9/9
f 10/10/10 8/8/8 9/9/9
f 9/9/9 11/11/11 10/10/10
f 11/11/11 12/12/12 10/10/10
f 11/11/11 13/13/13 12/12/12
f 13/13/13 14/14/14 12/12/12
f 13/13/13 15/15/15 14/14/14
f 15/15/15 16/16/16 14/14/14
f 16/16/16 15/15/15 17/17/17
f 18/18/18 16/16/16 17/17/17
f 21/21/21 20/20/20 19/19/19
f 22/22/22 21/21/21 19/19/19
f 19/19/19 20/20/20 23/23/23
f 20/20/20 24/24/24 23/23/23
f 24/24/24 25/25/25 23/23/23
f 26/26/26 22/22/22 19/19/19
f 26/26/26 19/19/19 23/23/23
f 27/27/27 22/22/22 26/26/26
f 28/28/28 27/27/27 26/26/26
f 23/23/23 25/25/25 29/29/29
f 29/29/29 26/26/26 23/23/23
f 29/29/29 28/28/28 26/26/26
f 25/25/25 30/30/30 29/29/29
f 30/30/30 28/28/28 29/29/29
f 33/33/33 32/32/32 31/31/31
f 34/34/34 32/32/32 33/33/33
f 33/33/33 31/31/31 35/35/35
f 31/31/31 36/36/36 35/35/35
f 36/36/36 37/37/37 35/35/35
f 35/35/35 37/37/37 38/38/38
f 33/33/33 35/35/35 38/38/38
f 37/37/37 39/39/39 38/38/38
f 39/39/39 40/40/40 38/38/38
f 41/41/41 34/34/34 33/33/33
f 41/41/41 33/33/33 38/38/38
f 38/38/38 40/40/40 41/41/41
f 42/42/42 34/34/34 41/41/41
f 40/40/40 42/42/42 41/41/41
