g BeetleGlandMesh
v 1.422995 0.01988102 0.945032
v 1.522016 -0.02613563 0.6984519
v 1.54459 -0.005507515 0.7059653
v 1.561146 -0.04433382 0.6512205
v 1.463683 0.06550908 0.969417
v 1.304917 0.07411845 1.106693
v 1.567007 -0.01593301 0.7207645
v 1.352684 0.1394016 1.144331
v 1.150581 0.1409651 1.147099
v 1.497957 0.04954912 1.018385
v 1.187909 0.217361 1.190331
v 0.9701009 0.2081316 1.084251
v 1.566235 -0.04670075 0.72753
v 1.384344 0.1243637 1.22042
v 0.9932386 0.3021021 1.131658
v 0.8236989 0.2470417 0.9223459
v 1.490594 -0.01160236 1.041643
v 1.543204 -0.06711614 0.7207645
v 1.194429 0.2123502 1.278189
v 0.828211 0.3765504 0.9732263
v 0.7733798 0.2379813 0.7135059
v 1.520787 -0.05669067 0.7059653
v 1.522016 -0.02613563 0.6984519
v 1.367438 0.04436643 1.256998
v 1.448621 -0.05662508 1.018385
v 1.414335 -0.04065983 0.969417
v 1.422995 0.01988102 0.945032
v 0.964896 0.3079503 1.228883
v 0.7434875 0.4618989 0.7724712
v 0.8262112 0.1491048 0.3653063
v 1.317782 -0.01998997 1.22042
v 1.286022 -0.004907843 1.144331
v 1.304917 0.07411845 1.106693
v 1.163588 0.1308427 1.321066
v 0.7452725 0.3924752 1.082112
v 0.7223299 0.602787 0.433467
v 0.8792094 0.2910048 -0.001916245
v 1.117702 0.0604839 1.190331
v 1.150581 0.1409651 1.147099
v 1.124591 0.05531704 1.278189
v 0.9151283 0.2191789 1.277014
v 0.5384706 0.4878498 0.9220701
v 0.9179453 0.1203654 1.131658
v 0.9701009 0.2081316 1.084251
v 0.8906219 0.1258696 1.228883
v 0.6660875 0.2774734 1.136377
v 0.7393748 0.1330114 0.9732263
v 0.8236989 0.2470417 0.9223459
v 0.6600576 0.1484765 1.082112
v 0.400803 0.288025 0.9979753
v 0.6147705 0.03641482 0.7724712
v 0.7733798 0.2379813 0.7135059
v 0.4248655 0.06319397 0.9220701
v 0.2296005 0.6401563 0.7250417
v 0.500366 -0.2910784 0.433467
v 0.8262112 0.1491048 0.3653063
v 0.06094389 -0.2462445 0.7250417
v -0.001685727 0.2219983 0.8828433
v 0.72461 -0.2346679 -0.001916245
v 0.8792094 0.2910048 -0.001916245
v 0.673206 -0.139852 -0.4363
v 0.725812 0.3189266 -0.3810249
v 0.3523995 0.001759387 -0.7027933
v 0.1557146 -0.4429709 -0.7027933
v -0.09105384 -0.2026435 -0.851103
v 0.4307736 -0.5508149 -0.3810249
v 0.2998234 -0.6537472 -0.002738012
v -0.05784466 -0.7318465 -0.4446487
v -0.3709831 -0.4711832 -0.7174576
v 0.0912815 -0.6128703 0.3789332
v -0.210207 -0.7951761 -0.0106233
v -0.3285536 -0.5706747 0.4315516
v -0.4914245 -0.6728278 -0.4034091
v -0.639559 -0.5775141 -0.0314508
v -0.3816379 -0.1211724 0.7079214
v -0.5090241 -0.2359446 -0.8371999
v -0.325786 -0.1194139 -0.8975895
v -0.7164509 -0.3121743 -0.4680917
v -0.6754331 -0.3548916 0.3631858
v -0.310182 0.3909792 0.7079214
v -0.8125415 -0.1357878 -0.0467582
v -0.6896218 0.08627083 0.4202178
v -0.5320305 -0.1295599 -0.8902943
v -0.4099833 -0.0639222 -0.9208777
v -0.6740876 -0.1258863 -0.7199793
v -0.5364465 -0.0763846 -0.9743483
v -0.4489621 -0.03456292 -0.9874665
v -0.6354892 -0.05230187 -0.8328319
v -0.5143629 -0.05199886 -1.125277
v -0.4585996 -0.02775755 -1.127972
v -0.6116831 -0.01736535 -0.9527168
v -0.4995555 -0.03038936 -1.222268
v -0.470227 -0.01831752 -1.222292
v -0.4920354 0.0002058821 -1.242447
v -0.5620104 -0.01276988 -1.12399
v -0.5242049 -0.009529727 -1.224692
v -0.5170136 0.02130917 -1.227012
v -0.5489897 0.04675786 -1.125916
v -0.5929423 0.07849932 -0.9464447
v -0.6102036 0.08592674 -0.8109177
v -0.4877918 0.03349509 -1.224692
v -0.4930543 0.07106419 -1.12399
v -0.463116 0.01261443 -1.222268
v -0.470227 -0.01831752 -1.222292
v -0.4451737 0.03165272 -1.125277
v -0.4585996 -0.02775755 -1.127972
v -0.5042872 0.1202587 -0.9527168
v -0.4280627 0.06049082 -0.9743483
v -0.4489621 -0.03456292 -0.9874665
v -0.6436572 0.09674151 -0.677346
v -0.4855106 0.1522515 -0.8328319
v -0.3789593 0.07278106 -0.8902943
v -0.4099833 -0.0639222 -0.9208777
v -0.7189644 0.1068995 -0.4161058
v -0.4534249 0.2162825 -0.7199793
v -0.2783749 0.1008956 -0.8371999
v -0.325786 -0.1194139 -0.8975895
v -0.6815734 0.3146241 -0.0467582
v -0.4048377 0.3829205 -0.4680917
v -0.02242087 0.2145694 -0.7174577
v -0.09105384 -0.2026435 -0.851103
v 0.3523995 0.001759387 -0.7027933
v -0.5280337 0.5019509 0.3631858
v -0.3189051 0.6474288 -0.03145079
v -0.1033062 0.7518597 0.4315516
v 0.3749568 0.488764 -0.4446487
v 0.725812 0.3189266 -0.3810249
v -0.03514217 0.5692568 -0.4034091
v 0.1765549 0.796272 -0.0106233
v 0.3417168 0.7127906 0.323289
v 0.6540933 0.6850016 -0.002738012
vt 0.8291442 0.9486639
vt 0.9074201 0.9952196
vt 0.9086891 0.9838975
vt 0.9341129 0.9895502
vt 0.8388796 0.9278743
vt 0.7695455 0.9020497
vt 0.9115576 0.9755281
vt 0.7875302 0.876922
vt 0.7160025 0.8617131
vt 0.8450684 0.9093798
vt 0.7389711 0.8356271
vt 0.6520562 0.8151285
vt 0.9176407 0.9687085
vt 0.8011078 0.8579381
vt 0.6777843 0.7831321
vt 0.5719655 0.7841995
vt 0.8584474 0.893825
vt 0.9256794 0.964367
vt 0.7608632 0.8155809
vt 0.5953231 0.7334103
vt 0.4882737 0.7870637
vt 0.9344848 0.9635113
vt 0.9457967 0.9648895
vt 0.816955 0.8421518
vt 0.8765767 0.8842774
vt 0.8960155 0.8825392
vt 0.9185089 0.8779675
vt 0.7045824 0.7591507
vt 0.5063726 0.6960844
vt 0.3438786 0.8196735
vt 0.8359651 0.8289391
vt 0.8579848 0.8201044
vt 0.8873204 0.8094425
vt 0.7827759 0.7969753
vt 0.6296631 0.6910235
vt 0.3877714 0.6626648
vt 0.2054836 0.7346179
vt 0.8293714 0.7618549
vt 0.8621498 0.748168
vt 0.8040182 0.7789372
vt 0.7329389 0.7335789
vt 0.5562719 0.6230431
vt 0.7917045 0.6872011
vt 0.8353278 0.6743892
vt 0.7605787 0.7079859
vt 0.671706 0.6498709
vt 0.7642501 0.5904295
vt 0.8263951 0.5879973
vt 0.7135299 0.6126499
vt 0.6113564 0.5613589
vt 0.7447635 0.4863327
vt 0.8435711 0.5067495
vt 0.668707 0.5118369
vt 0.4782478 0.5407849
vt 0.719389 0.3395711
vt 0.8891719 0.3730027
vt 0.6126617 0.3840806
vt 0.552539 0.4619031
vt 0.7783916 0.2375451
vt 0.9551348 0.2284158
vt 0.7753676 0.1217457
vt 0.9135793 0.07937528
vt 0.7231256 -0.001276387
vt 0.6195571 0.09336771
vt 0.5383009 0.01175432
vt 0.6759965 0.168162
vt 0.655486 0.2379201
vt 0.586323 0.1762731
vt 0.5055559 0.1308502
vt 0.6234909 0.2993871
vt 0.5774614 0.2430366
vt 0.5650011 0.3064474
vt 0.5249008 0.2014235
vt 0.5175658 0.2562496
vt 0.5380725 0.3705359
vt 0.4323405 0.1068219
vt 0.4408273 0.02882369
vt 0.4551938 0.2081663
vt 0.5150806 0.3107438
vt 0.4896995 0.4284344
vt 0.4604105 0.2827925
vt 0.4789335 0.3505023
vt 0.3944388 0.09258358
vt 0.4028439 0.03953655
vt 0.3999411 0.1629316
vt 0.3613147 0.07409506
vt 0.3716097 0.03717895
vt 0.3692263 0.1355977
vt 0.3179968 0.0399925
vt 0.3227519 0.01931988
vt 0.340609 0.103297
vt 0.2925135 0.0288886
vt 0.2902247 0.01889219
vt 0.2796707 0.02841436
vt 0.307673 0.05600362
vt 0.289375 0.03629233
vt 0.2830584 0.03970934
vt 0.2921167 0.06477602
vt 0.311875 0.1201029
vt 0.3302394 0.161654
vt 0.2760398 0.04023205
vt 0.2739398 0.06733049
vt 0.2692864 0.03615136
vt 0.2653122 0.02659632
vt 0.2555411 0.06052719
vt 0.2392857 0.04661493
vt 0.2783234 0.1270443
vt 0.2411839 0.1160377
vt 0.2112413 0.0899957
vt 0.3497151 0.1998706
vt 0.2811741 0.1732324
vt 0.2242571 0.1556909
vt 0.1872488 0.1089621
vt 0.3881337 0.2543045
vt 0.2826724 0.2184913
vt 0.2004766 0.1961731
vt 0.1508177 0.1210677
vt 0.4077772 0.3293542
vt 0.3067916 0.3042737
vt 0.1599803 0.2990662
vt 0.06287792 0.1683425
vt 0.01314709 0.3704073
vt 0.4376783 0.3941306
vt 0.3627231 0.399363
vt 0.4201418 0.4690633
vt 0.1797574 0.4765009
vt 0.09829062 0.5967003
vt 0.2629651 0.3967435
vt 0.3230014 0.4912587
vt 0.3805972 0.5520497
vt 0.279917 0.5976849
vn -0.7790411 0.3622666 -0.5117206
vn -0.7590753 0.3529859 -0.5469968
vn 0.02157719 0.9101483 -0.4137204
vn 0.2927369 -0.1361447 -0.9464511
vn 0.03058005 0.9476152 -0.317947
vn -0.4927316 0.2326169 -0.8385135
vn 0.8833711 0.465353 -0.05569709
vn 0.2142772 0.9002634 -0.3789603
vn 0.04773172 -0.002685673 -0.9988565
vn 0.8526744 0.4882758 0.1858311
vn 0.3696756 0.8215691 -0.4340094
vn 0.5138875 -0.177532 -0.8392866
vn 0.9013174 -0.4190258 0.1097463
vn 0.6796049 0.5706813 0.4609338
vn 0.5382742 0.7567334 -0.3709657
vn 0.8513021 -0.2532177 -0.4595273
vn 0.8266424 -0.3828631 0.4124056
vn 0.2133557 -0.9753752 -0.0558796
vn 0.3451735 0.735302 0.5832548
vn 0.6930574 0.7006566 -0.1695639
vn 0.9752959 -0.220744 -0.008362208
vn -0.6821037 -0.6029065 -0.4138096
vn -0.7590753 0.3529859 -0.5469968
vn 0.5373763 -0.2443646 0.8071632
vn 0.1788402 -0.9667746 0.182655
vn -0.703777 -0.6340097 -0.3205146
vn -0.7790411 0.3622666 -0.5117206
vn 0.09750746 0.8289202 0.5508027
vn 0.7338059 0.6690134 0.1181097
vn 0.9590114 -0.2089969 0.1913567
vn 0.02603313 -0.8937025 0.4479042
vn -0.5267327 -0.7500425 -0.3999861
vn -0.4927316 0.2326169 -0.8385135
vn 0.05526982 -0.02398789 0.9981832
vn -0.008575994 0.8513429 0.5245395
vn 0.6820158 0.709941 0.1756083
vn 0.985999 0.1212204 -0.1145063
vn -0.2758965 -0.8359604 -0.4743956
vn 0.04773172 -0.002685673 -0.9988565
vn -0.25807 -0.7832741 0.565581
vn -0.3065932 0.1206414 0.9441643
vn -0.01037647 0.8066487 0.5909401
vn 0.04586982 -0.9229204 -0.3822485
vn 0.5138875 -0.177532 -0.8392866
vn -0.3898477 -0.7351073 0.5546494
vn -0.4522279 0.1637335 0.8767447
vn 0.3834398 -0.9201456 -0.07941025
vn 0.8513021 -0.2532177 -0.4595273
vn -0.2897833 -0.7317066 0.616953
vn -0.3623825 0.1282103 0.923169
vn 0.5594558 -0.7648532 0.3193882
vn 0.9752959 -0.220744 -0.008362208
vn -0.03439505 -0.6341569 0.772439
vn -0.05343923 0.8155357 0.5762342
vn 0.5977169 -0.6701388 0.4400552
vn 0.9590114 -0.2089969 0.1913567
vn 0.0504789 -0.5690016 0.8207857
vn -0.2879781 0.06586019 0.9553695
vn 0.8568555 -0.5131184 0.05008191
vn 0.985999 0.1212204 -0.1145063
vn 0.8051239 -0.271101 -0.5275223
vn 0.7223697 0.325309 -0.6102099
vn 0.4365128 0.1008957 -0.8940227
vn 0.3401971 -0.5059467 -0.7926437
vn 0.1947421 -0.1507947 -0.9691937
vn 0.608313 -0.718244 -0.3377584
vn 0.4859927 -0.8644347 0.1287008
vn 0.1133488 -0.9080418 -0.403252
vn -0.2634138 -0.6269926 -0.7331394
vn 0.2504438 -0.8146595 0.5230753
vn -0.09891189 -0.9857008 0.1364197
vn -0.2820305 -0.7476966 0.6011726
vn -0.5015554 -0.7986615 -0.3325391
vn -0.7328933 -0.6726175 0.1022401
vn -0.4524191 -0.2425985 0.8581742
vn -0.3897966 -0.536016 -0.7488294
vn 0.1708448 -0.1620859 -0.9718746
vn -0.8891497 -0.333454 -0.3134028
vn -0.77503 -0.4135935 0.4777749
vn -0.5102549 0.4058173 0.7582561
vn -0.9986938 -0.04333655 0.02707008
vn -0.8706222 0.1477741 0.4692332
vn -0.3582115 -0.6353318 -0.6841331
vn 0.414242 -0.3262236 -0.8496951
vn -0.8948704 -0.2152792 -0.3909755
vn -0.2162923 -0.9054549 -0.3651973
vn 0.7342615 -0.5828251 -0.348102
vn -0.9179512 -0.1655657 -0.3604907
vn -0.1315066 -0.9712079 -0.1986485
vn 0.7669635 -0.6301125 -0.1213469
vn -0.9297116 -0.2451316 -0.2748575
vn -0.0951589 -0.8497158 -0.5185825
vn 0.6703828 -0.5629555 -0.4833922
vn 0.06650071 -0.05572753 -0.9962289
vn -0.8992521 -0.313403 -0.3051628
vn -0.7411552 -0.2983848 -0.601378
vn -0.583957 0.4897133 -0.6474372
vn -0.7311538 0.5952508 -0.3333026
vn -0.7718146 0.5986759 -0.2142183
vn -0.7951227 0.5679056 -0.212751
vn 0.1648663 0.7831914 -0.599525
vn 0.1265007 0.9452913 -0.3007024
vn 0.8214964 0.2418984 -0.5163613
vn 0.6703828 -0.5629555 -0.4833922
vn 0.9275868 0.3204468 -0.192085
vn 0.7669635 -0.6301125 -0.1213469
vn 0.01492368 0.9624704 -0.2709761
vn 0.8360291 0.418335 -0.3550369
vn 0.7342615 -0.5828251 -0.348102
vn -0.8363796 0.4817766 -0.2614583
vn -0.1302254 0.9151794 -0.381429
vn 0.4966132 0.5091873 -0.702925
vn 0.414242 -0.3262236 -0.8496951
vn -0.891596 0.3858883 -0.2369532
vn -0.273055 0.838636 -0.4713074
vn 0.2240394 0.5256273 -0.8206841
vn 0.1708448 -0.1620859 -0.9718746
vn -0.8425373 0.532312 -0.08230967
vn -0.4254354 0.7713076 -0.4733808
vn 0.1198496 0.5275579 -0.8410225
vn 0.1947421 -0.1507947 -0.9691937
vn 0.4365128 0.1008957 -0.8940227
vn -0.7183974 0.6348351 0.2844108
vn -0.4678055 0.8590983 -0.2076253
vn -0.2616133 0.9180883 0.297779
vn 0.2588053 0.6643484 -0.7011854
vn 0.7223697 0.325309 -0.6102099
vn -0.119545 0.7976887 -0.5911021
vn 0.02520878 0.9795106 -0.1998086
vn 0.1870796 0.9653065 0.1821661
vn 0.5424546 0.814689 -0.2049998
g BeetleGlandMesh_0
f 3/3/3 2/2/2 1/1/1
f 3/3/3 4/4/4 2/2/2
f 5/5/5 3/3/3 1/1/1
f 5/5/5 1/1/1 6/6/6
f 3/3/3 7/7/7 4/4/4
f 7/7/7 3/3/3 5/5/5
f 8/8/8 5/5/5 6/6/6
f 8/8/8 6/6/6 9/9/9
f 10/10/10 7/7/7 5/5/5
f 10/10/10 5/5/5 8/8/8
f 11/11/11 8/8/8 9/9/9
f 11/11/11 9/9/9 12/12/12
f 7/7/7 13/13/13 4/4/4
f 13/13/13 7/7/7 10/10/10
f 14/14/14 10/10/10 8/8/8
f 14/14/14 8/8/8 11/11/11
f 15/15/15 11/11/11 12/12/12
f 15/15/15 12/12/12 16/16/16
f 17/17/17 13/13/13 10/10/10
f 17/17/17 10/10/10 14/14/14
f 4/4/4 13/13/13 18/18/18
f 18/18/18 13/13/13 17/17/17
f 19/19/19 14/14/14 11/11/11
f 19/19/19 11/11/11 15/15/15
f 20/20/20 15/15/15 16/16/16
f 20/20/20 16/16/16 21/21/21
f 22/22/22 4/4/4 18/18/18
f 23/23/23 4/4/4 22/22/22
f 24/24/24 17/17/17 14/14/14
f 24/24/24 14/14/14 19/19/19
f 25/25/25 18/18/18 17/17/17
f 22/22/22 18/18/18 25/25/25
f 25/25/25 17/17/17 24/24/24
f 23/23/23 22/22/22 26/26/26
f 26/26/26 22/22/22 25/25/25
f 27/27/27 23/23/23 26/26/26
f 28/28/28 19/19/19 15/15/15
f 28/28/28 15/15/15 20/20/20
f 29/29/29 20/20/20 21/21/21
f 29/29/29 21/21/21 30/30/30
f 31/31/31 25/25/25 24/24/24
f 26/26/26 25/25/25 31/31/31
f 27/27/27 26/26/26 32/32/32
f 32/32/32 26/26/26 31/31/31
f 33/33/33 27/27/27 32/32/32
f 34/34/34 24/24/24 19/19/19
f 31/31/31 24/24/24 34/34/34
f 34/34/34 19/19/19 28/28/28
f 35/35/35 28/28/28 20/20/20
f 35/35/35 20/20/20 29/29/29
f 36/36/36 29/29/29 30/30/30
f 36/36/36 30/30/30 37/37/37
f 33/33/33 32/32/32 38/38/38
f 39/39/39 33/33/33 38/38/38
f 32/32/32 31/31/31 40/40/40
f 40/40/40 31/31/31 34/34/34
f 38/38/38 32/32/32 40/40/40
f 41/41/41 34/34/34 28/28/28
f 40/40/40 34/34/34 41/41/41
f 41/41/41 28/28/28 35/35/35
f 42/42/42 35/35/35 29/29/29
f 42/42/42 29/29/29 36/36/36
f 39/39/39 38/38/38 43/43/43
f 44/44/44 39/39/39 43/43/43
f 38/38/38 40/40/40 45/45/45
f 45/45/45 40/40/40 41/41/41
f 43/43/43 38/38/38 45/45/45
f 46/46/46 41/41/41 35/35/35
f 45/45/45 41/41/41 46/46/46
f 46/46/46 35/35/35 42/42/42
f 44/44/44 43/43/43 47/47/47
f 48/48/48 44/44/44 47/47/47
f 43/43/43 45/45/45 49/49/49
f 49/49/49 45/45/45 46/46/46
f 47/47/47 43/43/43 49/49/49
f 50/50/50 46/46/46 42/42/42
f 49/49/49 46/46/46 50/50/50
f 48/48/48 47/47/47 51/51/51
f 52/52/52 48/48/48 51/51/51
f 47/47/47 49/49/49 53/53/53
f 53/53/53 49/49/49 50/50/50
f 51/51/51 47/47/47 53/53/53
f 50/50/50 42/42/42 54/54/54
f 54/54/54 42/42/42 36/36/36
f 52/52/52 51/51/51 55/55/55
f 56/56/56 52/52/52 55/55/55
f 51/51/51 53/53/53 57/57/57
f 55/55/55 51/51/51 57/57/57
f 53/53/53 50/50/50 58/58/58
f 58/58/58 50/50/50 54/54/54
f 57/57/57 53/53/53 58/58/58
f 56/56/56 55/55/55 59/59/59
f 60/60/60 56/56/56 59/59/59
f 61/61/61 60/60/60 59/59/59
f 62/62/62 60/60/60 61/61/61
f 63/63/63 62/62/62 61/61/61
f 64/64/64 63/63/63 61/61/61
f 65/65/65 63/63/63 64/64/64
f 61/61/61 59/59/59 66/66/66
f 64/64/64 61/61/61 66/66/66
f 59/59/59 55/55/55 67/67/67
f 59/59/59 67/67/67 66/66/66
f 66/66/66 68/68/68 64/64/64
f 66/66/66 67/67/67 68/68/68
f 64/64/64 69/69/69 65/65/65
f 64/64/64 68/68/68 69/69/69
f 55/55/55 70/70/70 67/67/67
f 55/55/55 57/57/57 70/70/70
f 68/68/68 67/67/67 71/71/71
f 67/67/67 70/70/70 71/71/71
f 70/70/70 57/57/57 72/72/72
f 70/70/70 72/72/72 71/71/71
f 68/68/68 71/71/71 73/73/73
f 68/68/68 73/73/73 69/69/69
f 71/71/71 74/74/74 73/73/73
f 71/71/71 72/72/72 74/74/74
f 72/72/72 57/57/57 75/75/75
f 57/57/57 58/58/58 75/75/75
f 69/69/69 76/76/76 65/65/65
f 76/76/76 77/77/77 65/65/65
f 73/73/73 78/78/78 69/69/69
f 73/73/73 74/74/74 78/78/78
f 72/72/72 79/79/79 74/74/74
f 72/72/72 75/75/75 79/79/79
f 75/75/75 58/58/58 80/80/80
f 80/80/80 58/58/58 54/54/54
f 74/74/74 79/79/79 81/81/81
f 78/78/78 74/74/74 81/81/81
f 79/79/79 75/75/75 82/82/82
f 82/82/82 75/75/75 80/80/80
f 79/79/79 82/82/82 81/81/81
f 76/76/76 83/83/83 77/77/77
f 83/83/83 84/84/84 77/77/77
f 85/85/85 76/76/76 69/69/69
f 78/78/78 85/85/85 69/69/69
f 83/83/83 86/86/86 84/84/84
f 86/86/86 87/87/87 84/84/84
f 88/88/88 83/83/83 76/76/76
f 85/85/85 88/88/88 76/76/76
f 86/86/86 89/89/89 87/87/87
f 89/89/89 90/90/90 87/87/87
f 91/91/91 86/86/86 83/83/83
f 88/88/88 91/91/91 83/83/83
f 89/89/89 92/92/92 90/90/90
f 92/92/92 93/93/93 90/90/90
f 92/92/92 94/94/94 93/93/93
f 95/95/95 89/89/89 86/86/86
f 91/91/91 95/95/95 86/86/86
f 96/96/96 92/92/92 89/89/89
f 92/92/92 96/96/96 94/94/94
f 95/95/95 96/96/96 89/89/89
f 97/97/97 96/96/96 95/95/95
f 96/96/96 97/97/97 94/94/94
f 98/98/98 95/95/95 91/91/91
f 98/98/98 97/97/97 95/95/95
f 99/99/99 91/91/91 88/88/88
f 99/99/99 98/98/98 91/91/91
f 100/100/100 88/88/88 85/85/85
f 100/100/100 99/99/99 88/88/88
f 97/97/97 101/101/101 94/94/94
f 101/101/101 97/97/97 98/98/98
f 102/102/102 98/98/98 99/99/99
f 102/102/102 101/101/101 98/98/98
f 94/94/94 101/101/101 103/103/103
f 103/103/103 101/101/101 102/102/102
f 94/94/94 103/103/103 104/104/104
f 104/104/104 103/103/103 105/105/105
f 105/105/105 103/103/103 102/102/102
f 106/106/106 104/104/104 105/105/105
f 107/107/107 102/102/102 99/99/99
f 105/105/105 102/102/102 107/107/107
f 107/107/107 99/99/99 100/100/100
f 106/106/106 105/105/105 108/108/108
f 108/108/108 105/105/105 107/107/107
f 109/109/109 106/106/106 108/108/108
f 110/110/110 100/100/100 85/85/85
f 110/110/110 85/85/85 78/78/78
f 111/111/111 107/107/107 100/100/100
f 108/108/108 107/107/107 111/111/111
f 111/111/111 100/100/100 110/110/110
f 109/109/109 108/108/108 112/112/112
f 112/112/112 108/108/108 111/111/111
f 113/113/113 109/109/109 112/112/112
f 114/114/114 110/110/110 78/78/78
f 78/78/78 81/81/81 114/114/114
f 115/115/115 111/111/111 110/110/110
f 112/112/112 111/111/111 115/115/115
f 115/115/115 110/110/110 114/114/114
f 113/113/113 112/112/112 116/116/116
f 116/116/116 112/112/112 115/115/115
f 117/117/117 113/113/113 116/116/116
f 81/81/81 118/118/118 114/114/114
f 81/81/81 82/82/82 118/118/118
f 119/119/119 115/115/115 114/114/114
f 116/116/116 115/115/115 119/119/119
f 114/114/114 118/118/118 119/119/119
f 117/117/117 116/116/116 120/120/120
f 120/120/120 116/116/116 119/119/119
f 121/121/121 117/117/117 120/120/120
f 120/120/120 122/122/122 121/121/121
f 82/82/82 123/123/123 118/118/118
f 82/82/82 80/80/80 123/123/123
f 119/119/119 118/118/118 124/124/124
f 118/118/118 123/123/123 124/124/124
f 123/123/123 80/80/80 125/125/125
f 123/123/123 125/125/125 124/124/124
f 125/125/125 80/80/80 54/54/54
f 120/120/120 126/126/126 122/122/122
f 126/126/126 127/127/127 122/122/122
f 119/119/119 128/128/128 120/120/120
f 119/119/119 124/124/124 128/128/128
f 128/128/128 126/126/126 120/120/120
f 124/124/124 129/129/129 128/128/128
f 124/124/124 125/125/125 129/129/129
f 128/128/128 129/129/129 126/126/126
f 125/125/125 54/54/54 130/130/130
f 125/125/125 130/130/130 129/129/129
f 130/130/130 54/54/54 36/36/36
f 126/126/126 131/131/131 127/127/127
f 126/126/126 129/129/129 131/131/131
f 129/129/129 130/130/130 131/131/131
f 130/130/130 36/36/36 131/131/131
f 131/131/131 37/37/37 127/127/127
f 131/131/131 36/36/36 37/37/37
