g GooSkirtMesh
v 0.7071067 -0.7071068 -0.2635837
v 0.3826835 -0.9238795 0
v 0.7071067 -0.7071068 0
v 0.3826835 -0.9238795 -0.2635837
v 0.7071067 -0.7071068 -0.5271671
v 1.211935E-07 -1 0
v 0.3826835 -0.9238795 -0.5271671
v 0.7071067 -0.7071068 -0.7907505
v 1.211935E-07 -1 -0.2635837
v -0.3826832 -0.9238796 0
v 0.3826835 -0.9238795 -0.7907505
v 0.7071067 -0.7071068 -1.054334
v 0.3826835 -0.9238795 -1.054334
v -0.3826832 -0.9238796 -0.2635837
v -0.7071066 -0.707107 0
v 1.211935E-07 -1 -0.5271671
v 1.211935E-07 -1 -0.7907505
v 1.211935E-07 -1 -1.054334
v -0.7071066 -0.707107 -0.2635837
v -0.9238795 -0.3826836 0
v -0.3826832 -0.9238796 -0.5271671
v -0.3826832 -0.9238796 -0.7907505
v -0.3826832 -0.9238796 -1.054334
v -0.9238795 -0.3826836 -0.2635837
v -1 1.192488E-08 0
v -0.7071066 -0.707107 -0.5271671
v -0.7071066 -0.707107 -0.7907505
v -0.7071066 -0.707107 -1.054334
v -1 1.192488E-08 -0.2635837
v -0.9238795 0.3826836 0
v -0.9238795 -0.3826836 -0.5271671
v -0.9238795 -0.3826836 -0.7907505
v -0.9238795 -0.3826836 -1.054334
v -0.9238795 0.3826836 -0.2635837
v -0.7071066 0.707107 0
v -1 1.192488E-08 -0.5271671
v -1 1.192488E-08 -0.7907505
v -1 1.192488E-08 -1.054334
v -0.7071066 0.707107 -0.2635837
v -0.382683 0.9238797 0
v -0.9238795 0.3826836 -0.5271671
v -0.9238795 0.3826836 -0.7907505
v -0.9238795 0.3826836 -1.054334
v -0.382683 0.9238797 -0.2635837
v -2.980232E-08 1 0
v -0.7071066 0.707107 -0.5271671
v -0.7071066 0.707107 -0.7907505
v -0.7071066 0.707107 -1.054334
v -2.980232E-08 1 -0.2635837
v 0.3826834 0.9238795 0
v -0.382683 0.9238797 -0.5271671
v -0.382683 0.9238797 -0.7907505
v -0.382683 0.9238797 -1.054334
v 0.3826834 0.9238795 -0.2635837
v 0.7071067 0.7071068 0
v -2.980232E-08 1 -0.5271671
v -2.980232E-08 1 -0.7907505
v -2.980232E-08 1 -1.054334
v 0.7071067 0.7071068 -0.2635837
v 0.9238795 0.3826834 0
v 0.3826834 0.9238795 -0.5271671
v 0.3826834 0.9238795 -0.7907505
v 0.3826834 0.9238795 -1.054334
v 0.9238795 0.3826834 -0.2635837
v 1 -4.371139E-08 0
v 0.7071067 0.7071068 -0.5271671
v 0.7071067 0.7071068 -0.7907505
v 0.7071067 0.7071068 -1.054334
v 1 -4.371139E-08 -0.2635837
v 0.9238795 -0.3826835 0
v 0.9238795 0.3826834 -0.5271671
v 0.9238795 0.3826834 -0.7907505
v 0.9238795 0.3826834 -1.054334
v 0.9238795 -0.3826835 -0.2635837
v 0.7071067 -0.7071068 0
v 0.7071067 -0.7071068 -0.2635837
v 1 -4.371139E-08 -0.5271671
v 1 -4.371139E-08 -0.7907505
v 1 -4.371139E-08 -1.054334
v 0.9238795 -0.3826835 -0.5271671
v 0.7071067 -0.7071068 -0.5271671
v 0.9238795 -0.3826835 -0.7907505
v 0.9238795 -0.3826835 -1.054334
v 0.7071067 -0.7071068 -0.7907505
v 0.7071067 -0.7071068 -1.054334
vt 0.9999875 0.6211057
vt 0.9374937 0.9995438
vt 0.9999875 0.9995438
vt 0.9374938 0.6211057
vt 0.9999875 0.3325791
vt 0.875 0.9995437
vt 0.9374938 0.332579
vt 0.9999875 0.1401645
vt 0.875 0.6211057
vt 0.8125062 0.9995437
vt 0.9374938 0.1401644
vt 0.9999875 0.0004564524
vt 0.9374938 0.0004565716
vt 0.8125062 0.6211056
vt 0.7500125 0.9995437
vt 0.875 0.332579
vt 0.8750001 0.1401644
vt 0.8750001 0.0004564524
vt 0.7500125 0.6211056
vt 0.6875187 0.9995437
vt 0.8125062 0.332579
vt 0.8125063 0.1401644
vt 0.8125063 0.0004564524
vt 0.6875187 0.6211056
vt 0.625025 0.9995437
vt 0.7500126 0.332579
vt 0.7500126 0.1401644
vt 0.7500126 0.0004564524
vt 0.625025 0.6211056
vt 0.5625312 0.9995437
vt 0.6875188 0.332579
vt 0.6875188 0.1401644
vt 0.6875188 0.0004564524
vt 0.5625312 0.6211056
vt 0.5000374 0.9995436
vt 0.625025 0.3325788
vt 0.625025 0.1401643
vt 0.625025 0.0004563928
vt 0.5000374 0.6211056
vt 0.4375437 0.9995435
vt 0.5625312 0.3325788
vt 0.5625312 0.1401643
vt 0.5625312 0.0004562736
vt 0.4375437 0.6211054
vt 0.37505 0.9995435
vt 0.5000375 0.3325788
vt 0.5000375 0.1401642
vt 0.5000375 0.0004563034
vt 0.37505 0.6211054
vt 0.3125562 0.9995437
vt 0.4375437 0.3325788
vt 0.4375437 0.1401642
vt 0.4375437 0.0004563034
vt 0.3125563 0.6211054
vt 0.2500625 0.9995435
vt 0.3750501 0.3325788
vt 0.3750501 0.1401642
vt 0.3750501 0.0004563034
vt 0.2500625 0.6211054
vt 0.1875688 0.9995434
vt 0.3125563 0.3325787
vt 0.3125563 0.1401642
vt 0.3125563 0.0004563034
vt 0.1875688 0.6211054
vt 0.125075 0.9995434
vt 0.2500625 0.3325787
vt 0.2500626 0.1401642
vt 0.2500626 0.0004562736
vt 0.125075 0.6211054
vt 0.06258127 0.9995434
vt 0.1875688 0.3325787
vt 0.1875688 0.1401642
vt 0.1875688 0.000456214
vt 0.0625813 0.6211053
vt 8.755922E-05 0.9995434
vt 8.761883E-05 0.6211053
vt 0.125075 0.3325787
vt 0.1250751 0.1401641
vt 0.125075 0.000456214
vt 0.0625813 0.3325787
vt 8.761883E-05 0.3325787
vt 0.0625813 0.1401641
vt 0.06258136 0.0004560947
vt 8.761883E-05 0.1401641
vt 8.767843E-05 0.0004560947
vn 0.7071068 -0.7071068 0
vn 0.3826815 -0.9238803 0
vn 0.7071068 -0.7071068 0
vn 0.3826815 -0.9238803 0
vn 0.7071068 -0.7071068 0
vn 0 -1 0
vn 0.3826815 -0.9238803 0
vn 0.7071068 -0.7071068 0
vn 0 -1 0
vn -0.3826815 -0.9238803 0
vn 0.3826815 -0.9238803 0
vn 0.7071068 -0.7071068 0
vn 0.3826815 -0.9238803 0
vn -0.3826815 -0.9238803 0
vn -0.7071068 -0.7071068 0
vn 0 -1 0
vn 0 -1 0
vn 0 -1 0
vn -0.7071068 -0.7071068 0
vn -0.9238803 -0.3826815 0
vn -0.3826815 -0.9238803 0
vn -0.3826815 -0.9238803 0
vn -0.3826815 -0.9238803 0
vn -0.9238803 -0.3826815 0
vn -1 0 0
vn -0.7071068 -0.7071068 0
vn -0.7071068 -0.7071068 0
vn -0.7071068 -0.7071068 0
vn -1 0 0
vn -0.9238803 0.3826815 0
vn -0.9238803 -0.3826815 0
vn -0.9238803 -0.3826815 0
vn -0.9238803 -0.3826815 0
vn -0.9238803 0.3826815 0
vn -0.7071068 0.7071068 0
vn -1 0 0
vn -1 0 0
vn -1 0 0
vn -0.7071068 0.7071068 0
vn -0.3826815 0.9238803 0
vn -0.9238803 0.3826815 0
vn -0.9238803 0.3826815 0
vn -0.9238803 0.3826815 0
vn -0.3826815 0.9238803 0
vn 0 1 0
vn -0.7071068 0.7071068 0
vn -0.7071068 0.7071068 0
vn -0.7071068 0.7071068 0
vn 0 1 0
vn 0.3826815 0.9238803 0
vn -0.3826815 0.9238803 0
vn -0.3826815 0.9238803 0
vn -0.3826815 0.9238803 0
vn 0.3826815 0.9238803 0
vn 0.7071068 0.7071068 0
vn 0 1 0
vn 0 1 0
vn 0 1 0
vn 0.7071068 0.7071068 0
vn 0.9238803 0.3826815 0
vn 0.3826815 0.9238803 0
vn 0.3826815 0.9238803 0
vn 0.3826815 0.9238803 0
vn 0.9238803 0.3826815 0
vn 1 0 0
vn 0.7071068 0.7071068 0
vn 0.7071068 0.7071068 0
vn 0.7071068 0.7071068 0
vn 1 0 0
vn 0.9238803 -0.3826815 0
vn 0.9238803 0.3826815 0
vn 0.9238803 0.3826815 0
vn 0.9238803 0.3826815 0
vn 0.9238803 -0.3826815 0
vn 0.7071068 -0.7071068 0
vn 0.7071068 -0.7071068 0
vn 1 0 0
vn 1 0 0
vn 1 0 0
vn 0.9238803 -0.3826815 0
vn 0.7071068 -0.7071068 0
vn 0.9238803 -0.3826815 0
vn 0.9238803 -0.3826815 0
vn 0.7071068 -0.7071068 0
vn 0.7071068 -0.7071068 0
g GooSkirtMesh_0
f 3/3/3 2/2/2 1/1/1
f 2/2/2 4/4/4 1/1/1
f 1/1/1 4/4/4 5/5/5
f 2/2/2 6/6/6 4/4/4
f 4/4/4 7/7/7 5/5/5
f 5/5/5 7/7/7 8/8/8
f 6/6/6 9/9/9 4/4/4
f 4/4/4 9/9/9 7/7/7
f 6/6/6 10/10/10 9/9/9
f 7/7/7 11/11/11 8/8/8
f 8/8/8 11/11/11 12/12/12
f 11/11/11 13/13/13 12/12/12
f 10/10/10 14/14/14 9/9/9
f 10/10/10 15/15/15 14/14/14
f 9/9/9 16/16/16 7/7/7
f 7/7/7 16/16/16 11/11/11
f 9/9/9 14/14/14 16/16/16
f 11/11/11 17/17/17 13/13/13
f 16/16/16 17/17/17 11/11/11
f 17/17/17 18/18/18 13/13/13
f 15/15/15 19/19/19 14/14/14
f 15/15/15 20/20/20 19/19/19
f 14/14/14 21/21/21 16/16/16
f 16/16/16 21/21/21 17/17/17
f 14/14/14 19/19/19 21/21/21
f 17/17/17 22/22/22 18/18/18
f 21/21/21 22/22/22 17/17/17
f 22/22/22 23/23/23 18/18/18
f 20/20/20 24/24/24 19/19/19
f 20/20/20 25/25/25 24/24/24
f 19/19/19 26/26/26 21/21/21
f 21/21/21 26/26/26 22/22/22
f 19/19/19 24/24/24 26/26/26
f 22/22/22 27/27/27 23/23/23
f 26/26/26 27/27/27 22/22/22
f 27/27/27 28/28/28 23/23/23
f 25/25/25 29/29/29 24/24/24
f 25/25/25 30/30/30 29/29/29
f 24/24/24 31/31/31 26/26/26
f 26/26/26 31/31/31 27/27/27
f 24/24/24 29/29/29 31/31/31
f 27/27/27 32/32/32 28/28/28
f 31/31/31 32/32/32 27/27/27
f 32/32/32 33/33/33 28/28/28
f 30/30/30 34/34/34 29/29/29
f 30/30/30 35/35/35 34/34/34
f 29/29/29 36/36/36 31/31/31
f 31/31/31 36/36/36 32/32/32
f 29/29/29 34/34/34 36/36/36
f 32/32/32 37/37/37 33/33/33
f 36/36/36 37/37/37 32/32/32
f 37/37/37 38/38/38 33/33/33
f 35/35/35 39/39/39 34/34/34
f 35/35/35 40/40/40 39/39/39
f 34/34/34 41/41/41 36/36/36
f 36/36/36 41/41/41 37/37/37
f 34/34/34 39/39/39 41/41/41
f 37/37/37 42/42/42 38/38/38
f 41/41/41 42/42/42 37/37/37
f 42/42/42 43/43/43 38/38/38
f 40/40/40 44/44/44 39/39/39
f 40/40/40 45/45/45 44/44/44
f 39/39/39 46/46/46 41/41/41
f 41/41/41 46/46/46 42/42/42
f 39/39/39 44/44/44 46/46/46
f 42/42/42 47/47/47 43/43/43
f 46/46/46 47/47/47 42/42/42
f 47/47/47 48/48/48 43/43/43
f 45/45/45 49/49/49 44/44/44
f 45/45/45 50/50/50 49/49/49
f 44/44/44 51/51/51 46/46/46
f 46/46/46 51/51/51 47/47/47
f 44/44/44 49/49/49 51/51/51
f 47/47/47 52/52/52 48/48/48
f 51/51/51 52/52/52 47/47/47
f 52/52/52 53/53/53 48/48/48
f 50/50/50 54/54/54 49/49/49
f 50/50/50 55/55/55 54/54/54
f 49/49/49 56/56/56 51/51/51
f 51/51/51 56/56/56 52/52/52
f 49/49/49 54/54/54 56/56/56
f 52/52/52 57/57/57 53/53/53
f 56/56/56 57/57/57 52/52/52
f 57/57/57 58/58/58 53/53/53
f 55/55/55 59/59/59 54/54/54
f 55/55/55 60/60/60 59/59/59
f 54/54/54 61/61/61 56/56/56
f 56/56/56 61/61/61 57/57/57
f 54/54/54 59/59/59 61/61/61
f 57/57/57 62/62/62 58/58/58
f 61/61/61 62/62/62 57/57/57
f 62/62/62 63/63/63 58/58/58
f 60/60/60 64/64/64 59/59/59
f 60/60/60 65/65/65 64/64/64
f 59/59/59 66/66/66 61/61/61
f 61/61/61 66/66/66 62/62/62
f 59/59/59 64/64/64 66/66/66
f 62/62/62 67/67/67 63/63/63
f 66/66/66 67/67/67 62/62/62
f 67/67/67 68/68/68 63/63/63
f 65/65/65 69/69/69 64/64/64
f 65/65/65 70/70/70 69/69/69
f 64/64/64 71/71/71 66/66/66
f 66/66/66 71/71/71 67/67/67
f 64/64/64 69/69/69 71/71/71
f 67/67/67 72/72/72 68/68/68
f 71/71/71 72/72/72 67/67/67
f 72/72/72 73/73/73 68/68/68
f 70/70/70 74/74/74 69/69/69
f 70/70/70 75/75/75 74/74/74
f 75/75/75 76/76/76 74/74/74
f 69/69/69 77/77/77 71/71/71
f 71/71/71 77/77/77 72/72/72
f 69/69/69 74/74/74 77/77/77
f 72/72/72 78/78/78 73/73/73
f 77/77/77 78/78/78 72/72/72
f 78/78/78 79/79/79 73/73/73
f 74/74/74 76/76/76 80/80/80
f 74/74/74 80/80/80 77/77/77
f 77/77/77 80/80/80 78/78/78
f 76/76/76 81/81/81 80/80/80
f 78/78/78 82/82/82 79/79/79
f 80/80/80 82/82/82 78/78/78
f 80/80/80 81/81/81 82/82/82
f 82/82/82 83/83/83 79/79/79
f 81/81/81 84/84/84 82/82/82
f 82/82/82 84/84/84 83/83/83
f 84/84/84 85/85/85 83/83/83
