g Shelf
v -56.74316 132.6084 92.625
v -54.91652 133.5225 99.16602
v -67.5083 136.6592 102.5205
v -54.64844 122.9102 92.24316
v -57.45607 117.0762 100.1396
v -67.72852 135.3467 107.6367
v -52.17871 129.0488 88.5
v -52.97607 132.9375 91.37207
v -56.72264 117.2178 105.8174
v -65.14746 134.039 109.6729
v -48.67384 128.583 83.71777
v -51.00928 133.1894 86.26074
v -44.52831 121.6181 77.23779
v -48.93261 133.5391 82.18652
v -42.62744 124.9414 72.54102
v -47.49512 115.3076 87.48047
v -49.46094 110.6426 98.45996
v -55.46875 118.252 107.5586
v -55.15039 131.0234 111.0928
v -36.83521 121.04 71.05908
v -37.74888 114.0385 71.45428
v -40.60009 127.9971 70.68262
v -43.40184 106.4326 83.43945
v -49.33447 110.3066 104.0547
v -52.22021 120.2334 108.5811
v -54.14111 132.0029 111.6377
v -50.66406 131.5488 111.2295
v -46.98095 126.9238 109.5186
v -46.07907 112.6396 106.8496
v -45.79784 128.3652 109.6738
v -44.41943 125.1123 108.9297
v -40.97459 118 107.8125
v -43.23338 126.6113 109.0313
v -40.37035 124.6436 108.5166
v -48.11327 110.7734 105.8877
v -45.03808 101.7597 96.46582
v -44.38037 101.1826 101.8047
v -43.11862 101.3691 103.7832
v -38.56933 120.9639 107.9658
v -32.49756 109.1104 106.2627
v -39.05248 126.2158 108.5615
v -37.30395 122.5684 107.9844
v -35.96043 124.2158 107.9551
v -33.97412 120.4131 107.3643
v -41.21116 102.0078 105.0029
v -35.13525 106.1992 106.1006
v -40.58519 90.2695 94.03027
v -40.08252 89.09277 99.81152
v -38.62011 88.9248 101.6191
v -36.11694 89.44043 101.873
v -38.4514 94.7715 83.99023
v -36.9392 80.31592 92.42383
v -35.95726 78.82227 97.5293
v -28.87475 93.19923 103.2988
v -34.37401 78.22412 99.22852
v -31.99755 78.19922 99.77148
v -33.38232 71.46338 96.1377
v -34.16039 73.07324 91.09961
v -31.86082 71.29786 97.8877
v -23.95263 81.37109 99.96875
v -29.42015 71.37451 98.6123
v -25.85962 96.39256 103.9482
v -30.48876 65.86523 96.24902
v -31.7251 76.32227 83.66406
v -34.49561 84.31738 84.52344
v -32.00731 87.41211 78.14697
v -36.19384 98.22656 77.03809
v -40.78759 111.6279 74.7915
v -32.57543 103.2285 68.91357
v -27.28833 108.7979 64.27051
v -29.37255 68.11768 81.99561
v -28.83886 78.34961 78.04834
v -28.76903 90.67871 70.74316
v -24.8496 93.98727 62.85205
v -32.30614 65.75684 89.46777
v -25.33032 80.84714 71.56494
v -22.61474 71.3032 71.93896
v -21.34276 83.46194 64.7915
v -19.95531 97.94919 55.40967
v -26.36401 69.41748 77.5166
v -23.87719 59.53223 77.0957
v -31.78515 65.11035 94.49707
v -26.93017 58.46826 80.96631
v -30.42724 56.82714 87.69043
v -30.25121 56.3335 92.56055
v -24.57642 51.14404 80.7251
v -21.93847 52.12011 77.24268
v -28.53807 49.66405 86.7793
v -29.16991 57.18213 94.1875
v -28.63134 49.00294 91.65039
v -28.54613 67.68066 97.51855
v -20.8286 75.15918 98.63184
v -21.531 43.75781 80.95264
v -18.79369 44.60206 77.58545
v -26.00341 41.74463 86.53223
v -27.40649 49.61182 93.18652
v -27.63256 58.79394 94.77246
v -19.43383 69.37254 96.97559
v -26.80761 40.85108 91.52051
v -15.82982 77.52344 98.91016
v -14.29431 70.93847 97.14453
v -18.80676 60.74511 94.4668
v -25.72265 51.00098 93.59277
v -25.44262 41.16992 93.28125
v -19.11926 84.59181 100.1924
v -23.80029 34.49535 86.63965
v -24.96435 32.93335 91.92578
v -18.57641 36.76781 81.64502
v -15.75268 37.52515 78.54785
v -15.88305 29.9453 82.84668
v -22.1394 27.37915 86.28125
v -12.85254 30.8435 80.20313
v -9.04944 30.10083 75.4541
v -24.74292 24.6089 91.36035
v -12.32751 38.20532 74.12402
v -5.031704 31.55175 69.70313
v -23.66358 33.25831 94.02148
v -14.77869 45.5962 72.97705
v -7.370665 38.8391 68.77148
v -17.30908 53.38426 72.36572
v 0.1526623 40.8059 65.95068
v 0.1428223 35.35864 64.4248
v -10.02252 46.57226 67.63623
v -19.75219 60.97851 72.1543
v -12.48864 54.94678 66.94092
v -2.517986 48.39111 65.51465
v -14.99902 62.90477 66.45459
v 2.190521 49.78807 65.53857
v 5.489502 42.4126 68.6167
v 2.079788 55.19531 58.32324
v 0.2839966 59.86426 55.2378
v -6.844175 57.05419 61.2373
v -2.323456 68.65576 53.03077
v -9.418521 65.39258 60.07471
v -13.11206 76.38037 58.73047
v -6.205139 80.07077 52.2124
v -9.823429 90.62791 51.92432
v -13.53027 88.41013 53.60107
v -18.41894 73.63037 65.81152
v -16.3905 86.58788 57.2876
v -16.99499 100.0058 52.85156
v -21.27684 102.2549 54.47998
v -18.0349 104.6777 52.96826
v -21.5769 113.9248 63.06396
v -24.35596 111.5703 63.99561
v -28.05301 115.0559 65.5731
v -32.60351 120.1826 69.22572
v -34.40673 124.3467 72.41553
v -28.26611 114.2139 106.084
v -32.55859 122.1445 107.2363
v -29.75659 112.4521 106.2432
v -21.15429 101.6426 104.1211
v -22.7207 99.84863 104.2324
v -10.71496 89.33398 98.99414
v -13.73523 87.75879 99.78809
v -10.09643 80.08252 99.35645
v -8.621334 73.29393 98.04688
v -7.087034 81.44772 99.3965
v -5.689453 74.68703 98.47949
v -4.633354 65.38623 96.20117
v -7.585258 64.22217 95.23242
v -2.363522 57.46631 95.48828
v -13.33887 62.17334 94.43555
v -17.90747 52.93165 93.20898
v -11.72461 54.68701 93.55664
v -5.519714 56.46191 94.66016
v -22.56566 42.2373 93.5
v -2.375031 48.3291 95.16992
v 1.220743 49.26807 96.39551
v 4.813599 41.47412 96.62402
v -14.53747 44.04541 93.17188
v -8.854188 46.28957 93.60059
v -20.88427 34.56714 94.12207
v -12.39184 36.58276 93.31641
v -6.460388 38.82861 94.07617
v 0.5756378 40.66701 95.50488
v -23.61376 26.1731 95.62793
v -23.88892 22.48779 92.27832
v -22.8396 21.64429 93.82715
v -20.65454 27.42896 96.20021
v 2.249008 33.44899 94.44727
v 6.457706 33.85962 95.9375
v -10.06244 30.25952 94.83984
v -4.501282 31.95386 94.19727
v -19.72229 23.66212 95.94043
v -21.5105 19.18652 94.15625
v -18.81884 19.87292 95.59473
v -15.27563 18.27808 95.44727
v -8.94775 26.7412 95.03027
v 2.304382 30.20337 92.23438
v 6.017334 30.78004 92.20996
v -3.643246 28.52319 93.83887
v -7.884214 23.06568 95.12207
v 1.755173 27.17969 89.14551
v 2.757505 28.53929 82.68799
v -2.82028 25.07471 93.49316
v 2.513733 23.87181 89.09668
v -1.726669 21.4966 93.43457
v -6.760372 19.25612 94.96484
v -13.95312 16.91089 95.13281
v -5.613401 15.32887 94.58594
v -0.4285202 17.71009 93.40137
v 0.991581 13.83325 93.03027
v -4.411345 11.41176 92.50879
v -6.913694 10.49672 92.75488
v -8.118406 14.39185 93.66406
v -12.72949 12.99294 94.07715
vn -0.6233928 0.1883148 -0.7588932
vn 0.1900422 0.9636592 -0.187736
vn -0.8710568 -0.2473268 -0.4243696
vn -0.7737955 -0.2879806 -0.5641877
vn -0.799378 -0.5208597 -0.2994998
vn -0.8789176 -0.4760289 0.0300034
vn -0.7594886 -0.05023392 -0.6485782
vn -0.3097935 0.5229564 -0.7940683
vn -0.749105 -0.6064093 0.2666636
vn -0.4928777 -0.3933588 0.7761061
vn -0.8515626 -0.03556421 -0.5230451
vn -0.8075258 -0.08739364 -0.5833218
vn -0.8319983 -0.2042382 -0.5158155
vn -0.8921022 -0.1531251 -0.4250957
vn -0.7094274 -0.3231886 -0.6263081
vn -0.8326051 -0.3670956 -0.4147404
vn -0.8028014 -0.5469849 -0.2373126
vn -0.3165491 -0.3777829 0.8701016
vn -0.2104465 -0.2586545 0.9427672
vn -0.5315109 -0.01313706 -0.8469496
vn -0.6439075 -0.0938407 -0.7593267
vn -0.4028766 -0.2654211 -0.8759236
vn -0.875447 -0.3334068 -0.3499033
vn -0.759048 -0.6268274 0.1758796
vn -0.01815658 -0.2349747 0.9718319
vn 0.01781731 -0.2486045 0.9684412
vn 0.104134 -0.2402134 0.9651185
vn 0.102241 -0.2098923 0.9723642
vn -0.03780583 -0.211397 0.9766689
vn 0.09691202 -0.1776124 0.979317
vn 0.06672819 -0.1609636 0.9847021
vn 0.01011469 -0.1475375 0.9890047
vn 0.08536 -0.1176353 0.9893814
vn 0.09441426 -0.1112931 0.9892925
vn -0.352429 -0.4403394 0.8257693
vn -0.9069828 -0.3839767 -0.1730435
vn -0.879137 -0.4319947 0.2012433
vn -0.587176 -0.3788108 0.7153507
vn 0.09340178 -0.09781709 0.9908118
vn 0.09171954 -0.1142738 0.9892062
vn 0.09758277 -0.1032967 0.9898521
vn 0.1279364 -0.1123001 0.985404
vn 0.118484 -0.09178864 0.9887044
vn 0.1280365 -0.0763547 0.9888259
vn -0.1110418 -0.2425296 0.9637681
vn 0.001892239 -0.1842839 0.9828712
vn -0.9291169 -0.3077782 -0.2049742
vn -0.9100947 -0.3707307 0.1851656
vn -0.4109654 -0.3447474 0.843953
vn -0.06412189 -0.2316658 0.9706798
vn -0.864875 -0.3436588 -0.3659097
vn -0.9187981 -0.326421 -0.2219449
vn -0.8932326 -0.3917327 0.220638
vn -0.01686505 -0.2304476 0.9729385
vn -0.4817081 -0.3383839 0.8083647
vn -0.02328699 -0.2159059 0.9761364
vn -0.9185176 -0.3289587 0.2193435
vn -0.9400451 -0.2539858 -0.2276105
vn -0.4899643 -0.3401403 0.8026454
vn 0.07345832 -0.2127733 0.9743364
vn 0.0005086118 -0.2245301 0.974467
vn 0.08326759 -0.2022384 0.97579
vn -0.5124329 -0.3017262 0.8039737
vn -0.8724801 -0.2178894 -0.4373816
vn -0.8455802 -0.3016644 -0.440446
vn -0.8152223 -0.3111964 -0.4884357
vn -0.7912517 -0.3434001 -0.5059617
vn -0.7817022 -0.2685965 -0.5628478
vn -0.733993 -0.1976274 -0.6497673
vn -0.6471052 0.09654792 -0.7562628
vn -0.8626534 -0.1710599 -0.4759913
vn -0.8108776 -0.2477085 -0.5302057
vn -0.7987103 -0.3147697 -0.5128175
vn -0.7586768 -0.2379445 -0.6064585
vn -0.9515089 -0.1834069 -0.2469669
vn -0.7843923 -0.2896067 -0.5485042
vn -0.7629281 -0.232869 -0.6030861
vn -0.7389997 -0.3119144 -0.5971507
vn -0.7393972 -0.2281562 -0.6334323
vn -0.7895899 -0.1783898 -0.5871328
vn -0.7401888 -0.1922928 -0.6443168
vn -0.9323336 -0.2603598 0.2509317
vn -0.8254889 -0.1770694 -0.5359238
vn -0.9333643 -0.1755632 -0.3130634
vn -0.9576854 -0.2258218 0.1784463
vn -0.7670937 -0.2680503 -0.5828518
vn -0.6997756 -0.2527211 -0.6681662
vn -0.8868575 -0.241586 -0.3938528
vn -0.497256 -0.2475164 0.831548
vn -0.9591188 -0.2484649 0.1354852
vn 0.04839938 -0.2812347 0.9584178
vn 0.07033066 -0.2135877 0.974389
vn -0.697769 -0.3155765 -0.6430629
vn -0.6850342 -0.3360664 -0.6463648
vn -0.8256019 -0.2617638 -0.4998611
vn -0.4770133 -0.1580447 0.8645694
vn 0.05402205 -0.2197235 0.9740652
vn 0.08250999 -0.2684766 0.959746
vn -0.9711164 -0.2346598 0.04321785
vn 0.01937789 -0.2025652 0.979077
vn 0.007485656 -0.2795143 0.9601123
vn 0.07488883 -0.2164773 0.9734111
vn 0.02247656 -0.0767187 0.9967993
vn -0.417047 -0.06131067 0.9068146
vn 0.1183799 -0.1813104 0.9762749
vn -0.7690524 -0.2293662 -0.596615
vn -0.9876136 -0.1514952 -0.04084755
vn -0.6158907 -0.3351769 -0.7129761
vn -0.6799075 -0.3937974 -0.6185867
vn -0.532847 -0.2620689 -0.8046079
vn -0.7396786 -0.06798143 -0.6695178
vn -0.6763544 -0.4231194 -0.6029218
vn -0.713147 -0.3977469 -0.5772511
vn -0.9941403 -0.02140057 -0.1059571
vn -0.6902846 -0.351531 -0.6324026
vn -0.6134494 -0.2535071 -0.7479399
vn -0.5578704 0.05050783 0.8283898
vn -0.679357 -0.3055596 -0.6671636
vn -0.4840158 -0.2747133 -0.8308197
vn -0.6842414 -0.2497389 -0.68516
vn -0.1651563 -0.1363357 -0.9767989
vn -0.7633217 0.1755325 -0.6217139
vn -0.4702807 -0.2378595 -0.8498581
vn -0.7092241 -0.228523 -0.666917
vn -0.5955002 -0.3117961 -0.7403802
vn -0.2302041 -0.3669343 -0.9013131
vn -0.6900073 -0.2662836 -0.6730401
vn 0.2565201 -0.4741575 -0.8422424
vn 0.4772733 -0.1480247 -0.8661979
vn -0.2021702 -0.643586 -0.7381898
vn -0.4659732 -0.4359156 -0.7699653
vn -0.516377 -0.4458205 -0.7311627
vn -0.5830972 -0.292813 -0.7577982
vn -0.6276842 -0.2969452 -0.7196084
vn -0.6423113 -0.285286 -0.7113706
vn -0.5952758 -0.2401937 -0.7667815
vn -0.4732452 -0.2884013 -0.8323843
vn -0.4685347 -0.3534243 -0.8096706
vn -0.7281232 -0.2803637 -0.6254861
vn -0.7032433 -0.3160025 -0.6368607
vn -0.5104383 -0.2111132 -0.8335971
vn -0.8060542 -0.0952319 -0.5841297
vn -0.3831873 -0.06227325 -0.921569
vn -0.570217 0.4779954 -0.6681115
vn -0.3657149 0.2994279 -0.8812466
vn -0.5046095 0.1226139 -0.8545965
vn -0.4728244 0.1491368 -0.8684442
vn -0.2492704 0.5185825 -0.8178854
vn 0.1682734 -0.05414725 0.984252
vn 0.1589916 -0.05715936 0.985624
vn 0.133995 -0.07539903 0.9881095
vn 0.2076128 -0.1196736 0.9708632
vn 0.1557455 -0.1626001 0.9743226
vn 0.3054518 -0.1217209 0.9443957
vn 0.1995741 -0.127056 0.9716105
vn 0.03475645 -0.1490387 0.9882203
vn -0.03261113 -0.2483497 0.9681213
vn 0.02707586 -0.1681966 0.9853815
vn -0.05296352 -0.192807 0.9798063
vn -0.1958493 -0.2413702 0.9504648
vn -0.1138933 -0.2253923 0.967588
vn -0.2455029 -0.08015412 0.9660764
vn -0.002831138 -0.2172726 0.9761069
vn 0.02682459 -0.06617878 0.9974471
vn -0.08978796 -0.07461505 0.993162
vn -0.1879943 -0.07472532 0.9793234
vn 0.004800102 0.03470158 0.9993862
vn -0.2454949 -0.03704629 0.9686897
vn -0.3043741 -0.07395949 0.949677
vn -0.2560811 -0.1265137 0.9583406
vn -0.002341327 0.01551186 0.999877
vn -0.153509 -0.0161061 0.9880161
vn 0.002092602 0.1675583 0.9858599
vn -0.0182723 0.132824 0.9909712
vn -0.1563101 0.01185773 0.9876368
vn -0.1831231 -0.0820571 0.9796594
vn -0.7174668 -0.03615056 0.6956539
vn -0.8894852 -0.269203 0.3692501
vn -0.5500845 -0.2486271 0.79724
vn -0.0336576 0.1276157 0.9912525
vn -0.07688042 -0.2655649 0.9610227
vn -0.2526673 -0.3135913 0.9153249
vn 0.04898109 0.1586907 0.9861127
vn 0.01598487 -0.03948206 0.9990923
vn -0.03563705 -0.06533117 0.997227
vn -0.4590863 -0.164595 0.8730111
vn -0.1858721 -0.1331338 0.9735127
vn 0.07582276 -0.02894428 0.9967011
vn 0.1092848 0.03795367 0.9932856
vn 0.3205511 -0.6026673 0.7307798
vn 0.3721451 -0.8339559 0.4074621
vn 0.2175515 -0.08588132 0.9722633
vn 0.125575 0.02471295 0.9917762
vn 0.7303597 -0.600132 0.3262151
vn 0.6664158 -0.7436842 -0.05313897
vn 0.4610573 -0.02021606 0.88714
vn 0.6488861 0.1537718 0.7451853
vn 0.3945659 0.09410723 0.9140359
vn 0.1601455 -0.07073115 0.984556
vn 0.1084653 -0.2178536 0.9699355
vn 0.08116568 -0.1892202 0.9785744
vn 0.2115341 0.02544609 0.9770393
vn 0.1797818 -0.2064557 0.9617976
vn 0.1519941 -0.4262323 0.8917532
vn 0.0776489 -0.3714789 0.9251887
vn -0.0004054299 -0.2669636 0.9637065
vn 0.1510753 -0.2129159 0.9653202
g Shelf_0
f 3/3/3 2/2/2 1/1/1
f 3/3/3 1/1/1 4/4/4
f 4/4/4 5/5/5 3/3/3
f 6/6/6 3/3/3 5/5/5
f 4/4/4 1/1/1 7/7/7
f 1/1/1 8/8/8 7/7/7
f 9/9/9 6/6/6 5/5/5
f 10/10/10 6/6/6 9/9/9
f 4/4/4 7/7/7 11/11/11
f 7/7/7 12/12/12 11/11/11
f 4/4/4 11/11/11 13/13/13
f 13/13/13 11/11/11 14/14/14
f 15/15/15 13/13/13 14/14/14
f 5/5/5 4/4/4 16/16/16
f 13/13/13 16/16/16 4/4/4
f 17/17/17 5/5/5 16/16/16
f 9/9/9 5/5/5 17/17/17
f 18/18/18 10/10/10 9/9/9
f 19/19/19 10/10/10 18/18/18
f 13/13/13 15/15/15 20/20/20
f 13/13/13 20/20/20 21/21/21
f 15/15/15 22/22/22 20/20/20
f 16/16/16 13/13/13 23/23/23
f 17/17/17 16/16/16 23/23/23
f 24/24/24 9/9/9 17/17/17
f 9/9/9 24/24/24 18/18/18
f 25/25/25 19/19/19 18/18/18
f 26/26/26 19/19/19 25/25/25
f 27/27/27 26/26/26 25/25/25
f 25/25/25 28/28/28 27/27/27
f 28/28/28 25/25/25 29/29/29
f 30/30/30 28/28/28 29/29/29
f 31/31/31 30/30/30 29/29/29
f 29/29/29 32/32/32 31/31/31
f 33/33/33 31/31/31 32/32/32
f 34/34/34 33/33/33 32/32/32
f 25/25/25 18/18/18 35/35/35
f 24/24/24 35/35/35 18/18/18
f 29/29/29 25/25/25 35/35/35
f 24/24/24 17/17/17 36/36/36
f 36/36/36 17/17/17 23/23/23
f 35/35/35 24/24/24 37/37/37
f 37/37/37 24/24/24 36/36/36
f 29/29/29 35/35/35 38/38/38
f 38/38/38 35/35/35 37/37/37
f 32/32/32 39/39/39 34/34/34
f 39/39/39 32/32/32 40/40/40
f 41/41/41 34/34/34 39/39/39
f 42/42/42 41/41/41 39/39/39
f 43/43/43 42/42/42 39/39/39
f 44/44/44 43/43/43 39/39/39
f 44/44/44 39/39/39 40/40/40
f 32/32/32 29/29/29 45/45/45
f 45/45/45 29/29/29 38/38/38
f 32/32/32 46/46/46 40/40/40
f 46/46/46 32/32/32 45/45/45
f 37/37/37 36/36/36 47/47/47
f 38/38/38 37/37/37 48/48/48
f 48/48/48 37/37/37 47/47/47
f 45/45/45 38/38/38 49/49/49
f 49/49/49 38/38/38 48/48/48
f 46/46/46 45/45/45 50/50/50
f 50/50/50 45/45/45 49/49/49
f 47/47/47 36/36/36 51/51/51
f 36/36/36 23/23/23 51/51/51
f 48/48/48 47/47/47 52/52/52
f 52/52/52 47/47/47 51/51/51
f 49/49/49 48/48/48 53/53/53
f 53/53/53 48/48/48 52/52/52
f 46/46/46 54/54/54 40/40/40
f 54/54/54 46/46/46 50/50/50
f 50/50/50 49/49/49 55/55/55
f 55/55/55 49/49/49 53/53/53
f 50/50/50 56/56/56 54/54/54
f 56/56/56 50/50/50 55/55/55
f 53/53/53 57/57/57 55/55/55
f 53/53/53 52/52/52 58/58/58
f 57/57/57 53/53/53 58/58/58
f 56/56/56 55/55/55 59/59/59
f 57/57/57 59/59/59 55/55/55
f 56/56/56 60/60/60 54/54/54
f 61/61/61 56/56/56 59/59/59
f 56/56/56 61/61/61 60/60/60
f 54/54/54 62/62/62 40/40/40
f 54/54/54 60/60/60 62/62/62
f 63/63/63 59/59/59 57/57/57
f 61/61/61 59/59/59 63/63/63
f 64/64/64 58/58/58 52/52/52
f 65/65/65 64/64/64 52/52/52
f 65/65/65 52/52/52 51/51/51
f 66/66/66 65/65/65 51/51/51
f 65/65/65 66/66/66 64/64/64
f 67/67/67 66/66/66 51/51/51
f 67/67/67 51/51/51 23/23/23
f 68/68/68 67/67/67 23/23/23
f 13/13/13 68/68/68 23/23/23
f 21/21/21 68/68/68 13/13/13
f 68/68/68 21/21/21 67/67/67
f 67/67/67 69/69/69 66/66/66
f 21/21/21 69/69/69 67/67/67
f 21/21/21 70/70/70 69/69/69
f 58/58/58 64/64/64 71/71/71
f 66/66/66 72/72/72 64/64/64
f 64/64/64 72/72/72 71/71/71
f 69/69/69 73/73/73 66/66/66
f 66/66/66 73/73/73 72/72/72
f 74/74/74 73/73/73 69/69/69
f 70/70/70 74/74/74 69/69/69
f 75/75/75 58/58/58 71/71/71
f 58/58/58 75/75/75 57/57/57
f 73/73/73 76/76/76 72/72/72
f 73/73/73 74/74/74 76/76/76
f 76/76/76 77/77/77 72/72/72
f 74/74/74 78/78/78 76/76/76
f 76/76/76 78/78/78 77/77/77
f 79/79/79 74/74/74 70/70/70
f 74/74/74 79/79/79 78/78/78
f 72/72/72 80/80/80 71/71/71
f 77/77/77 80/80/80 72/72/72
f 80/80/80 81/81/81 71/71/71
f 80/80/80 77/77/77 81/81/81
f 75/75/75 82/82/82 57/57/57
f 82/82/82 63/63/63 57/57/57
f 75/75/75 71/71/71 83/83/83
f 81/81/81 83/83/83 71/71/71
f 82/82/82 75/75/75 84/84/84
f 84/84/84 75/75/75 83/83/83
f 63/63/63 82/82/82 85/85/85
f 85/85/85 82/82/82 84/84/84
f 84/84/84 83/83/83 86/86/86
f 83/83/83 81/81/81 87/87/87
f 86/86/86 83/83/83 87/87/87
f 85/85/85 84/84/84 88/88/88
f 88/88/88 84/84/84 86/86/86
f 89/89/89 63/63/63 85/85/85
f 90/90/90 85/85/85 88/88/88
f 89/89/89 85/85/85 90/90/90
f 91/91/91 63/63/63 89/89/89
f 91/91/91 61/61/61 63/63/63
f 92/92/92 61/61/61 91/91/91
f 61/61/61 92/92/92 60/60/60
f 88/88/88 86/86/86 93/93/93
f 86/86/86 87/87/87 94/94/94
f 93/93/93 86/86/86 94/94/94
f 90/90/90 88/88/88 95/95/95
f 95/95/95 88/88/88 93/93/93
f 96/96/96 89/89/89 90/90/90
f 97/97/97 91/91/91 89/89/89
f 97/97/97 89/89/89 96/96/96
f 98/98/98 92/92/92 91/91/91
f 98/98/98 91/91/91 97/97/97
f 99/99/99 90/90/90 95/95/95
f 96/96/96 90/90/90 99/99/99
f 60/60/60 92/92/92 100/100/100
f 92/92/92 98/98/98 101/101/101
f 100/100/100 92/92/92 101/101/101
f 102/102/102 98/98/98 97/97/97
f 98/98/98 102/102/102 101/101/101
f 103/103/103 97/97/97 96/96/96
f 102/102/102 97/97/97 103/103/103
f 104/104/104 96/96/96 99/99/99
f 103/103/103 96/96/96 104/104/104
f 105/105/105 60/60/60 100/100/100
f 60/60/60 105/105/105 62/62/62
f 99/99/99 95/95/95 106/106/106
f 104/104/104 99/99/99 107/107/107
f 107/107/107 99/99/99 106/106/106
f 106/106/106 95/95/95 108/108/108
f 95/95/95 93/93/93 108/108/108
f 108/108/108 93/93/93 109/109/109
f 93/93/93 94/94/94 109/109/109
f 106/106/106 108/108/108 110/110/110
f 111/111/111 106/106/106 110/110/110
f 107/107/107 106/106/106 111/111/111
f 110/110/110 108/108/108 112/112/112
f 108/108/108 109/109/109 112/112/112
f 112/112/112 109/109/109 113/113/113
f 114/114/114 107/107/107 111/111/111
f 109/109/109 115/115/115 113/113/113
f 109/109/109 94/94/94 115/115/115
f 113/113/113 115/115/115 116/116/116
f 117/117/117 104/104/104 107/107/107
f 117/117/117 107/107/107 114/114/114
f 94/94/94 118/118/118 115/115/115
f 94/94/94 87/87/87 118/118/118
f 115/115/115 119/119/119 116/116/116
f 115/115/115 118/118/118 119/119/119
f 87/87/87 120/120/120 118/118/118
f 87/87/87 81/81/81 120/120/120
f 116/116/116 119/119/119 121/121/121
f 122/122/122 116/116/116 121/121/121
f 118/118/118 123/123/123 119/119/119
f 118/118/118 120/120/120 123/123/123
f 119/119/119 123/123/123 121/121/121
f 81/81/81 124/124/124 120/120/120
f 77/77/77 124/124/124 81/81/81
f 120/120/120 125/125/125 123/123/123
f 120/120/120 124/124/124 125/125/125
f 123/123/123 126/126/126 121/121/121
f 123/123/123 125/125/125 126/126/126
f 127/127/127 124/124/124 77/77/77
f 124/124/124 127/127/127 125/125/125
f 121/121/121 126/126/126 128/128/128
f 129/129/129 121/121/121 128/128/128
f 130/130/130 128/128/128 126/126/126
f 126/126/126 131/131/131 130/130/130
f 125/125/125 132/132/132 126/126/126
f 126/126/126 132/132/132 131/131/131
f 125/125/125 127/127/127 132/132/132
f 131/131/131 132/132/132 133/133/133
f 132/132/132 134/134/134 133/133/133
f 127/127/127 134/134/134 132/132/132
f 133/133/133 134/134/134 135/135/135
f 135/135/135 134/134/134 127/127/127
f 136/136/136 133/133/133 135/135/135
f 137/137/137 136/136/136 135/135/135
f 135/135/135 138/138/138 137/137/137
f 139/139/139 135/135/135 127/127/127
f 139/139/139 127/127/127 77/77/77
f 78/78/78 139/139/139 77/77/77
f 140/140/140 135/135/135 139/139/139
f 78/78/78 140/140/140 139/139/139
f 135/135/135 140/140/140 138/138/138
f 79/79/79 140/140/140 78/78/78
f 138/138/138 140/140/140 79/79/79
f 141/141/141 138/138/138 79/79/79
f 79/79/79 142/142/142 141/141/141
f 142/142/142 143/143/143 141/141/141
f 70/70/70 142/142/142 79/79/79
f 70/70/70 144/144/144 142/142/142
f 70/70/70 145/145/145 144/144/144
f 70/70/70 146/146/146 145/145/145
f 21/21/21 146/146/146 70/70/70
f 146/146/146 21/21/21 147/147/147
f 21/21/21 20/20/20 147/147/147
f 20/20/20 148/148/148 147/147/147
f 150/150/150 44/44/44 149/149/149
f 44/44/44 151/151/151 149/149/149
f 149/149/149 151/151/151 152/152/152
f 40/40/40 151/151/151 44/44/44
f 151/151/151 153/153/153 152/152/152
f 151/151/151 40/40/40 153/153/153
f 152/152/152 153/153/153 154/154/154
f 40/40/40 62/62/62 153/153/153
f 153/153/153 155/155/155 154/154/154
f 153/153/153 62/62/62 155/155/155
f 62/62/62 105/105/105 155/155/155
f 155/155/155 105/105/105 156/156/156
f 105/105/105 100/100/100 156/156/156
f 156/156/156 100/100/100 157/157/157
f 158/158/158 156/156/156 157/157/157
f 159/159/159 158/158/158 157/157/157
f 159/159/159 157/157/157 160/160/160
f 100/100/100 101/101/101 157/157/157
f 157/157/157 161/161/161 160/160/160
f 157/157/157 101/101/101 161/161/161
f 160/160/160 161/161/161 162/162/162
f 101/101/101 163/163/163 161/161/161
f 102/102/102 163/163/163 101/101/101
f 163/163/163 102/102/102 164/164/164
f 164/164/164 102/102/102 103/103/103
f 161/161/161 163/163/163 165/165/165
f 165/165/165 163/163/163 164/164/164
f 161/161/161 166/166/166 162/162/162
f 166/166/166 161/161/161 165/165/165
f 164/164/164 103/103/103 167/167/167
f 167/167/167 103/103/103 104/104/104
f 167/167/167 104/104/104 117/117/117
f 162/162/162 166/166/166 168/168/168
f 169/169/169 162/162/162 168/168/168
f 169/169/169 168/168/168 170/170/170
f 165/165/165 164/164/164 171/171/171
f 171/171/171 164/164/164 167/167/167
f 166/166/166 165/165/165 172/172/172
f 168/168/168 166/166/166 172/172/172
f 172/172/172 165/165/165 171/171/171
f 173/173/173 167/167/167 117/117/117
f 171/171/171 167/167/167 173/173/173
f 172/172/172 171/171/171 174/174/174
f 174/174/174 171/171/171 173/173/173
f 168/168/168 172/172/172 175/175/175
f 175/175/175 172/172/172 174/174/174
f 168/168/168 176/176/176 170/170/170
f 176/176/176 168/168/168 175/175/175
f 173/173/173 117/117/117 177/177/177
f 177/177/177 117/117/117 114/114/114
f 177/177/177 114/114/114 178/178/178
f 179/179/179 177/177/177 178/178/178
f 180/180/180 173/173/173 177/177/177
f 174/174/174 173/173/173 180/180/180
f 180/180/180 177/177/177 179/179/179
f 170/170/170 176/176/176 181/181/181
f 182/182/182 170/170/170 181/181/181
f 175/175/175 174/174/174 183/183/183
f 183/183/183 174/174/174 180/180/180
f 176/176/176 175/175/175 184/184/184
f 184/184/184 175/175/175 183/183/183
f 181/181/181 176/176/176 184/184/184
f 185/185/185 180/180/180 179/179/179
f 179/179/179 186/186/186 185/185/185
f 186/186/186 187/187/187 185/185/185
f 185/185/185 187/187/187 188/188/188
f 183/183/183 180/180/180 189/189/189
f 180/180/180 185/185/185 189/189/189
f 183/183/183 189/189/189 184/184/184
f 189/189/189 185/185/185 188/188/188
f 182/182/182 181/181/181 190/190/190
f 191/191/191 182/182/182 190/190/190
f 184/184/184 192/192/192 181/181/181
f 189/189/189 192/192/192 184/184/184
f 192/192/192 190/190/190 181/181/181
f 188/188/188 193/193/193 189/189/189
f 192/192/192 189/189/189 193/193/193
f 190/190/190 194/194/194 191/191/191
f 194/194/194 195/195/195 191/191/191
f 190/190/190 192/192/192 196/196/196
f 194/194/194 190/190/190 196/196/196
f 196/196/196 192/192/192 193/193/193
f 197/197/197 194/194/194 196/196/196
f 198/198/198 197/197/197 196/196/196
f 198/198/198 196/196/196 193/193/193
f 199/199/199 193/193/193 188/188/188
f 199/199/199 198/198/198 193/193/193
f 200/200/200 199/199/199 188/188/188
f 198/198/198 199/199/199 201/201/201
f 202/202/202 198/198/198 201/201/201
f 203/203/203 202/202/202 201/201/201
f 204/204/204 203/203/203 201/201/201
f 205/205/205 204/204/204 201/201/201
f 206/206/206 205/205/205 201/201/201
f 206/206/206 201/201/201 199/199/199
f 199/199/199 200/200/200 206/206/206
f 200/200/200 207/207/207 206/206/206
