g Sphere_cell.003
v -0.1997311 -0.1446051 0.1674495
v 0.3986794 0.4532833 0.6863887
v -0.09495404 -0.2858936 0.2478112
v 0.01379804 0.06902418 -0.1462253
v 0.1021547 0.009100504 -0.1514519
v 0.1928273 -0.04598281 -0.1483172
v 0.2464156 -0.07499073 -0.141763
v -0.01434618 0.09022196 -0.141763
v -0.07458925 0.1383621 -0.1285449
v 0.2906387 -0.09755985 -0.1345391
v 0.4007424 -0.1447913 -0.1046769
v -0.1654666 0.2214371 -0.09474635
v 0.4230003 -0.1526629 -0.09641774
v 0.3986794 0.4532833 0.6863887
v -0.2637911 0.3237846 -0.04165478
v -0.2972345 0.3632709 -0.01740016
v -0.365418 0.4559686 0.0545571
v -0.365418 0.4559686 0.0545571
v 0.3986794 0.4532833 0.6863887
v -0.1997311 -0.1446051 0.1674495
v -0.2439879 -0.06276698 0.1341364
v -0.2749628 0.004476849 0.1112216
v -0.3239522 0.1557903 0.07678668
v -0.3536656 0.3059075 0.05824583
v 0.3986794 0.4532833 0.6863887
v 0.4230003 -0.1526629 -0.09641774
v 0.4007424 -0.1641585 -0.08878265
v 0.2656048 -0.2234139 -0.02922982
v 0.2432618 -0.2316268 -0.01740016
v 0.2219028 -0.2372163 -0.003259476
v 0.4007424 -0.1447913 -0.1046769
v 0.4007424 -0.1641585 -0.08878265
v 0.4230003 -0.1526629 -0.09641774
v 0.2906387 -0.09755985 -0.1345391
v 0.2656048 -0.2234139 -0.02922982
v 0.2464156 -0.07499073 -0.141763
v 0.2432618 -0.2316268 -0.01740016
v 0.1881348 -0.05731146 -0.141763
v 0.1928273 -0.04598281 -0.1483172
v 0.1021547 0.009100504 -0.1514519
v 0.0920841 -0.005971238 -0.141763
v 0.01379804 0.06902418 -0.1462253
v 0.007894926 0.06312107 -0.141763
v -0.01434618 0.09022196 -0.141763
v -0.09925766 -0.04403149 -0.01740016
v -0.07458925 0.1383621 -0.1285449
v -0.1871954 0.06312104 -0.01740016
v -0.1654666 0.2214371 -0.09474635
v 0.007894866 -0.1319693 -0.01740016
v 0.1301443 -0.197313 -0.01740016
v 0.1005421 -0.2687789 0.07685642
v 0.2219028 -0.2372163 -0.003259476
v -0.1871953 -0.131969 0.1341364
v -0.06119735 -0.2353729 0.1341364
v 0.02579794 -0.2818729 0.1341364
v -0.09495404 -0.2858936 0.2478112
v -0.1997311 -0.1446051 0.1674495
v -0.2439879 -0.06276698 0.1341364
v -0.2749628 0.004476849 0.1112216
v -0.3239522 0.1557903 0.07678668
v -0.2525391 0.1853705 -0.01740016
v -0.3536656 0.3059075 0.05824583
v -0.2637911 0.3237846 -0.04165478
v -0.2927775 0.3180189 -0.01740016
v -0.365418 0.4559686 0.0545571
v -0.2972345 0.3632709 -0.01740016
v 0.3986794 0.4532833 0.6863887
v 0.2219028 -0.2372163 -0.003259476
v 0.1005421 -0.2687789 0.07685642
v 0.02579794 -0.2818729 0.1341364
v -0.09495404 -0.2858936 0.2478112
vt 1 0.5709276
vt 1 0
vt 0.2944281 0
vt 0.8616298 0.3823184
vt 0.8524594 0.3002287
vt 0.834885 0.2157417
vt 0.819982 0.1656731
vt 0.8618636 0.4083855
vt 0.8588421 0.4640764
vt 0.8059399 0.1243022
vt 0.75957 0.02095609
vt 0.8409711 0.547686
vt 0.7480613 0
vt 0 0
vt 0.8057634 0.6376694
vt 0.7878357 0.6680965
vt 0.7292901 0.7292901
vt 0.9953343 0.7248052
vt 1 0
vt 0.4290724 0
vt 0.5060306 0.1192591
vt 0.5693155 0.212156
vt 0.7119159 0.4016175
vt 0.8535668 0.5717267
vt 1 1
vt 1 0.2519387
vt 0.9267681 0.2592232
vt 0.4835086 0.3160622
vt 0.4104275 0.3273552
vt 0.3408571 0.3408571
vt 0.5 0.2061382
vt 0.4999999 0.214126
vt 0.5057919 0.2102889
vt 0.46875 0.1911305
vt 0.46875 0.244055
vt 0.4549751 0.1875001
vt 0.4641488 0.2500001
vt 0.4375 0.1875001
vt 0.4375 0.1830672
vt 0.4062501 0.1809471
vt 0.4062501 0.1875001
vt 0.3750001 0.1844821
vt 0.3750001 0.1875001
vt 0.3649406 0.1875
vt 0.3750001 0.2500001
vt 0.3437501 0.1941429
vt 0.3437501 0.2500001
vt 0.3125001 0.2111288
vt 0.40625 0.2500001
vt 0.4375 0.2500001
vt 0.4375 0.2888754
vt 0.4598455 0.2558323
vt 0.375 0.3125001
vt 0.40625 0.3125001
vt 0.425162 0.3125001
vt 0.40625 0.3535944
vt 0.375 0.3245311
vt 0.3578366 0.3125001
vt 0.3437501 0.303049
vt 0.3125001 0.2888467
vt 0.3125001 0.2500001
vt 0.2812501 0.2811995
vt 0.2812501 0.2378106
vt 0.2812501 0.25
vt 0.2500001 0.2781294
vt 0.270999 0.25
vt 1 1
vt 1 0.3408571
vt 0.7373149 0.3107771
vt 0.5717648 0.2983087
vt 0.2944281 0.2944281
vn -0.6358288 -0.03291903 0.7711279
vn -0.6358288 -0.03291903 0.7711279
vn -0.6358288 -0.03291903 0.7711279
vn 0.4495581 0.7146197 -0.5359256
vn 0.4495581 0.7146197 -0.5359256
vn 0.4495581 0.7146197 -0.5359256
vn 0.4495581 0.7146197 -0.5359256
vn 0.4495581 0.7146197 -0.5359256
vn 0.4495581 0.7146197 -0.5359256
vn 0.4495581 0.7146197 -0.5359256
vn 0.4495581 0.7146197 -0.5359256
vn 0.4495581 0.7146197 -0.5359256
vn 0.4495581 0.7146197 -0.5359256
vn 0.4495581 0.7146197 -0.5359256
vn 0.4495581 0.7146197 -0.5359256
vn 0.4495581 0.7146197 -0.5359256
vn 0.4495581 0.7146197 -0.5359256
vn -0.6370125 -0.03095598 0.7702315
vn -0.6370125 -0.03095598 0.7702315
vn -0.6370125 -0.03095598 0.7702315
vn -0.6370125 -0.03095598 0.7702315
vn -0.6370125 -0.03095598 0.7702315
vn -0.6370125 -0.03095598 0.7702315
vn -0.6370125 -0.03095598 0.7702315
vn 0.5254825 -0.6648119 0.5309362
vn 0.5254825 -0.6648119 0.5309362
vn 0.5254825 -0.6648119 0.5309362
vn 0.5254825 -0.6648119 0.5309362
vn 0.5254825 -0.6648119 0.5309362
vn 0.5254825 -0.6648119 0.5309362
vn -0.01861686 -0.6342857 -0.7728745
vn -0.02194295 -0.6342397 -0.7728251
vn 0.06235158 -0.63316 -0.7715054
vn -0.13584 -0.6197491 -0.7729545
vn -0.1511292 -0.6165106 -0.772706
vn -0.1814686 -0.5982726 -0.7804736
vn -0.1952308 -0.6436178 -0.7400277
vn -0.214214 -0.5171472 -0.8286563
vn -0.1843373 -0.4338639 -0.8819194
vn -0.2613693 -0.3922981 -0.8819231
vn -0.3109904 -0.4654174 -0.8286566
vn -0.3294243 -0.3372067 -0.8819134
vn -0.3958047 -0.3958047 -0.8286599
vn -0.4817488 -0.3953484 -0.7820598
vn -0.5021433 -0.5021433 -0.7040627
vn -0.5196904 -0.3639786 -0.7729433
vn -0.5904647 -0.3945282 -0.7040589
vn -0.57827 -0.2613324 -0.7728578
vn -0.3945282 -0.5904647 -0.7040589
vn -0.2717489 -0.6560855 -0.7040627
vn -0.3327241 -0.6981956 -0.6338909
vn -0.2248044 -0.7411587 -0.6325715
vn -0.5893204 -0.5892594 -0.5526977
vn -0.4629725 -0.6929023 -0.5527593
vn -0.3810332 -0.7128998 -0.5887168
vn -0.5070831 -0.7216359 -0.4712837
vn -0.6062054 -0.6407228 -0.4711574
vn -0.6104465 -0.5009738 -0.6134984
vn -0.6336197 -0.442902 -0.6343216
vn -0.7101246 -0.3054989 -0.634345
vn -0.6560855 -0.2717489 -0.7040627
vn -0.7572755 -0.1552517 -0.6343743
vn -0.6169116 -0.1492991 -0.7727418
vn -0.6965101 -0.1385268 -0.7040483
vn -0.7707816 -0.07590013 -0.6325622
vn -0.7410955 -0.07297119 -0.6674224
vn 0.5237642 -0.6653089 0.5320105
vn 0.5237642 -0.6653089 0.5320105
vn 0.5237642 -0.6653089 0.5320105
vn 0.5237642 -0.6653089 0.5320105
vn 0.5237642 -0.6653089 0.5320105
g Sphere_cell.003_0
f 3/3/3 2/2/2 1/1/1
f 6/6/6 5/5/5 4/4/4
f 4/4/4 7/7/7 6/6/6
f 4/4/4 8/8/8 7/7/7
f 8/8/8 9/9/9 7/7/7
f 9/9/9 10/10/10 7/7/7
f 9/9/9 11/11/11 10/10/10
f 9/9/9 12/12/12 11/11/11
f 12/12/12 13/13/13 11/11/11
f 12/12/12 14/14/14 13/13/13
f 12/12/12 15/15/15 14/14/14
f 15/15/15 16/16/16 14/14/14
f 16/16/16 17/17/17 14/14/14
f 20/20/20 19/19/19 18/18/18
f 18/18/18 21/21/21 20/20/20
f 18/18/18 22/22/22 21/21/21
f 18/18/18 23/23/23 22/22/22
f 18/18/18 24/24/24 23/23/23
f 27/27/27 26/26/26 25/25/25
f 25/25/25 28/28/28 27/27/27
f 25/25/25 29/29/29 28/28/28
f 25/25/25 30/30/30 29/29/29
f 33/33/33 32/32/32 31/31/31
f 31/31/31 32/32/32 34/34/34
f 32/32/32 35/35/35 34/34/34
f 36/36/36 34/34/34 35/35/35
f 35/35/35 37/37/37 36/36/36
f 37/37/37 38/38/38 36/36/36
f 36/36/36 38/38/38 39/39/39
f 39/39/39 38/38/38 40/40/40
f 38/38/38 41/41/41 40/40/40
f 40/40/40 41/41/41 42/42/42
f 41/41/41 43/43/43 42/42/42
f 42/42/42 43/43/43 44/44/44
f 44/44/44 43/43/43 45/45/45
f 45/45/45 43/43/43 41/41/41
f 45/45/45 46/46/46 44/44/44
f 45/45/45 47/47/47 46/46/46
f 46/46/46 47/47/47 48/48/48
f 49/49/49 41/41/41 38/38/38
f 49/49/49 45/45/45 41/41/41
f 37/37/37 50/50/50 38/38/38
f 50/50/50 49/49/49 38/38/38
f 51/51/51 50/50/50 37/37/37
f 49/49/49 50/50/50 51/51/51
f 52/52/52 51/51/51 37/37/37
f 53/53/53 45/45/45 49/49/49
f 47/47/47 45/45/45 53/53/53
f 51/51/51 54/54/54 49/49/49
f 54/54/54 53/53/53 49/49/49
f 51/51/51 55/55/55 54/54/54
f 56/56/56 54/54/54 55/55/55
f 56/56/56 57/57/57 54/54/54
f 57/57/57 53/53/53 54/54/54
f 57/57/57 58/58/58 53/53/53
f 53/53/53 58/58/58 47/47/47
f 58/58/58 59/59/59 47/47/47
f 59/59/59 60/60/60 47/47/47
f 60/60/60 61/61/61 47/47/47
f 47/47/47 61/61/61 48/48/48
f 60/60/60 62/62/62 61/61/61
f 48/48/48 61/61/61 63/63/63
f 62/62/62 64/64/64 61/61/61
f 61/61/61 64/64/64 63/63/63
f 62/62/62 65/65/65 64/64/64
f 63/63/63 64/64/64 66/66/66
f 65/65/65 66/66/66 64/64/64
f 69/69/69 68/68/68 67/67/67
f 67/67/67 70/70/70 69/69/69
f 67/67/67 71/71/71 70/70/70
