g spmBbBigFern1_LOD2
v -0.02697907 -0.005695819 0.2301819
v 0.1672401 0.910751 0.4203192
v 0.01943862 0.01343435 0.02193585
v 0.2235074 0.9667431 0.2213573
v 0.2254636 -0.001766934 -0.03471733
v 0.4221809 0.9178775 0.1578913
v 0.5907789 1.66221 0.7593757
v 0.6490244 1.721576 0.5619671
v 0.8250555 1.631146 0.4799768
v 1.113162 2.230567 1.180328
v 1.202252 2.318688 1.006591
v 1.352627 2.20506 0.9047925
v 1.338112 2.31879 1.359026
v 1.434746 2.410985 1.191548
v 1.571951 2.291094 1.078908
v 0.1907868 -0.008242121 -0.1483693
v 0.1814465 1.411401 -0.188873
v 0.004555541 0.0136401 -0.02728113
v -0.0031242 1.379853 -0.06737543
v -0.1897587 0.01321002 -0.1371222
v -0.1971166 1.36722 -0.1770595
v 0.03082138 2.066977 -0.1625465
v -0.1473912 2.00599 -0.04278021
v -0.3226433 1.924168 -0.1542032
v -0.4792968 2.928827 -0.3304404
v -0.6312588 2.827901 -0.2018139
v -0.7742578 2.688846 -0.3020041
v -0.6960675 3.168731 -0.386623
v -0.8450315 3.064393 -0.2572143
v -0.9815844 2.917875 -0.3557492
v -0.2287576 -0.007715427 -0.08469753
v -0.5450187 1.515165 0.0054419
v -0.0212409 0.01401926 0.01024189
v -0.3405716 1.556358 0.1005919
v -0.009849918 0.0153604 0.2391906
v -0.3207401 1.522132 0.3263893
v -0.7331724 2.053784 0.1874764
v -0.5290618 2.09743 0.2822552
v -0.4833223 1.998472 0.483909
v -0.9963171 2.459394 0.5739512
v -0.7866226 2.496664 0.6587353
v -0.7083604 2.348305 0.8149837
v -1.214856 2.724919 1.092803
v -0.9984569 2.7534 1.162871
v -0.8966935 2.575362 1.26532
v 0.2906896 -0.241479 0.9706472
v 0.4875444 0.3750576 1.156946
v 0.06391778 0.0637974 0.07129364
v 0.3287588 0.8472925 0.3171624
v 0.9821556 -0.2158603 0.2504237
v 1.181119 0.386594 0.4383886
v 0.7652516 0.8148012 1.44842
v 0.6839142 1.431033 0.6953607
v 1.440709 0.8142531 0.7127162
v 1.152724 1.178588 1.774387
v 1.168003 1.886819 1.102351
v 1.788263 1.13899 1.004955
v 1.50015 1.402953 2.08703
v 1.701695 2.207191 1.571242
v 2.193272 1.388326 1.368093
v 1.652863 1.443135 2.230524
v 1.984141 2.27092 1.832423
v 2.321997 1.42143 1.489381
v 1.864183 1.402698 2.413825
v 2.275698 2.226435 2.088911
v 2.522063 1.383209 1.662614
v 1.059777 -0.2320967 -0.03880744
v 1.527792 1.983845 -0.3273616
v 0.08607583 0.06448685 -0.03697072
v 0.5199254 2.124669 -0.3065764
v 0.5265548 -0.1498339 -0.9292166
v 0.9461821 1.79414 -1.169777
v 1.565069 2.280373 -0.4540594
v 0.5696374 2.492192 -0.4715963
v 0.9640526 1.949693 -1.237227
v 1.75824 2.784259 -0.8830444
v 0.792267 3.093097 -0.9700654
v 1.115601 2.335916 -1.568555
v 1.965708 3.165752 -1.424263
v 1.036075 3.541414 -1.599533
v 1.288481 2.652053 -2.025428
v 0.465461 -0.2192548 -0.9792602
v 0.5295733 1.049135 -1.516209
v -0.001758391 0.06602973 -0.08850204
v 0.0688403 1.533398 -0.712253
v -0.6002637 -0.1568077 -0.9163102
v -0.5363127 1.102923 -1.448196
v 0.5062947 1.565034 -1.867779
v 0.04623115 2.16339 -1.144285
v -0.551599 1.524511 -1.716617
v 0.461904 1.704492 -2.031101
v -0.02377379 2.406153 -1.427015
v -0.5777652 1.602771 -1.802251
v 0.2675501 1.884697 -2.531452
v -0.2711924 2.668458 -2.097163
v -0.7052612 1.717565 -2.119946
v -0.03876782 1.912786 -3.073989
v -0.6425797 2.705844 -2.758391
v -0.9297315 1.731428 -2.511029
v -0.3645359 -0.2135048 -0.9209005
v -0.7510217 0.8503551 -1.144453
v -0.06088807 0.06532445 -0.06765402
v -0.4716256 1.180627 -0.3013427
v -0.9686614 -0.1891735 -0.1633375
v -1.276729 0.6829804 -0.3475354
v -1.060769 1.227115 -1.257624
v -0.9388291 1.75046 -0.4770998
v -1.604212 1.075786 -0.4694423
v -1.388007 1.487419 -1.435829
v -1.49441 2.165306 -0.7822811
v -1.916977 1.329282 -0.639183
v -1.556688 1.514204 -1.533843
v -1.815983 2.233056 -0.9734898
v -2.053781 1.352148 -0.7176946
v -1.948535 1.435953 -1.776922
v -2.451126 2.124094 -1.362384
v -2.42421 1.272083 -0.9484651
v -1.088347 -0.2082628 -0.03984437
v -1.654561 1.432857 0.3023382
v -0.08209971 0.06402996 0.04794962
v -0.7247863 1.892015 0.4404607
v -0.5961123 -0.2311256 0.9099578
v -1.11784 1.316554 1.220677
v -2.150489 2.056794 0.6281534
v -1.380104 2.723222 0.8664059
v -1.664912 2.013947 1.580687
v -2.597787 2.448665 0.9377782
v -1.887941 3.162943 1.221167
v -1.975912 2.292265 1.794371
v -2.819349 2.555939 1.141545
v -2.154854 3.297015 1.463473
v -2.160028 2.379274 1.965575
v -0.6447495 -0.1903827 0.8364913
v -0.5916598 1.118263 1.274285
v -0.01105327 0.06519794 0.09075878
v 0.03842644 1.301919 0.5046933
v 0.3782275 -0.183432 0.9905658
v 0.4134252 0.8838557 1.345888
v -0.3493008 2.251365 1.809556
v 0.3100514 2.716506 1.199713
v 0.6690604 2.111587 1.926484
v -0.29807 2.62408 2.222797
v 0.3834128 3.241173 1.801149
v 0.7020852 2.362061 2.186662
v -0.243434 2.723029 2.525172
v 0.4514457 3.370306 2.177056
v 0.7483928 2.44064 2.442675
vt 0 0
vt 0.390625 0
vt 0.118 0.390625
vt 0 0.004
vt 0.5 0.3151
vt 0.390625 1
vt 0.004 0.390625
vt 0.3151 0.118
vt 0 0.608783
vt 0.390625 0.5
vt 0.395 0.390625
vt 0.608783 0.395
vt 0 0.902236
vt 0.390625 0.5
vt 0.811 0.390625
vt 0.902236 0.811
vt 0 1
vt 0.390625 0.5
vt 0.951 0.390625
vt 1 0.951
vt 1 0
vt 11.37891 1
vt 0.191 11.37891
vt 0 0.003
vt 0.5 0.414565
vt 11.37891 0
vt 0.003 11.37891
vt 0.414565 0.191
vt 1 0.6095951
vt 11.37891 0.5
vt 0.395 11.37891
vt 0.6095951 0.395
vt 1 0.9024161
vt 11.37891 0.5
vt 0.811 11.37891
vt 0.9024161 0.811
vt 1 1
vt 11.37891 0.5
vt 0.951 11.37891
vt 1 0.951
vt 0 0
vt 8.367188 0
vt 0.236 8.367188
vt 0 0.003
vt 0.5 0.465062
vt 8.367188 1
vt 0.003 8.367188
vt 0.465062 0.236
vt 0 0.642597
vt 8.367188 0.5
vt 0.436 8.367188
vt 0.642597 0.436
vt 0 0.82135
vt 8.367188 0.5
vt 0.6900001 8.367188
vt 0.82135 0.6900001
vt 0 1
vt 8.367188 0.5
vt 0.951 8.367188
vt 1 0.951
vt 0 0
vt 1.324219 0
vt 0.064 1.324219
vt 0 0.004
vt 0.5 0.216754
vt 1.324219 1
vt 0.004 1.324219
vt 0.216754 0.064
vt 0 0.412753
vt 1.324219 0.5
vt 0.191 1.324219
vt 0.412753 0.191
vt 0 0.608624
vt 1.324219 0.5
vt 0.395 1.324219
vt 0.608624 0.395
vt 0 0.8045561
vt 1.324219 0.5
vt 0.666 1.324219
vt 0.8045561 0.666
vt 0 0.902163
vt 1.324219 0.5
vt 0.811 1.324219
vt 0.902163 0.811
vt 0 1
vt 1.324219 0.5
vt 0.951 1.324219
vt 1 0.951
vt 1 0
vt 4.253906 1
vt 0.284 4.253906
vt 0 0.003
vt 0.5 0.5120329
vt 4.253906 0
vt 0.003 4.253906
vt 0.5120329 0.284
vt 1 0.609507
vt 4.253906 0.5
vt 0.395 4.253906
vt 0.609507 0.395
vt 1 0.804661
vt 4.253906 0.5
vt 0.665 4.253906
vt 0.804661 0.665
vt 1 1
vt 4.253906 0.5
vt 0.951 4.253906
vt 1 0.951
vt 0 0
vt 14.26563 0
vt 0.159 14.26563
vt 0 0.003
vt 0.5 0.374855
vt 14.26563 1
vt 0.003 14.26563
vt 0.374855 0.159
vt 0 0.553789
vt 14.26563 0.5
vt 0.328 14.26563
vt 0.553789 0.328
vt 0 0.6424291
vt 14.26563 0.5
vt 0.436 14.26563
vt 0.6424291 0.436
vt 0 0.8212379
vt 14.26563 0.5
vt 0.6900001 14.26563
vt 0.8212379 0.6900001
vt 0 1
vt 14.26563 0.5
vt 0.951 14.26563
vt 1 0.951
vt 1 0
vt 14.21094 1
vt 0.119 14.21094
vt 0 0.004
vt 0.5 0.313556
vt 14.21094 0
vt 0.004 14.21094
vt 0.313556 0.119
vt 1 0.509829
vt 14.21094 0.5
vt 0.284 14.21094
vt 0.509829 0.284
vt 1 0.7059439
vt 14.21094 0.5
vt 0.524 14.21094
vn -0.976245 0.18274 0.116409
vn -0.818513 0.51883 0.246683
vn -0.6956521 0.286704 -0.658688
vn -0.541494 0.669979 -0.5078511
vn 0.06516001 0.191183 -0.979389
vn 0.183668 0.495175 -0.849157
vn -0.460312 0.775355 0.432363
vn -0.141511 0.9638361 -0.225819
vn 0.464348 0.68328 -0.563479
vn -0.09224701 0.713643 0.6944101
vn 0.228657 0.9673661 0.109174
vn 0.739967 0.624105 -0.250883
vn 0.308287 0.465715 0.829499
vn 0.598674 0.673776 0.433145
vn 0.912781 0.395076 0.103661
vn 0.779034 0.023002 0.626559
vn 0.720041 0.325937 0.612622
vn 0.03119 0.029495 0.999078
vn -0.003572 0.286763 0.9579951
vn -0.736946 0.015927 0.675764
vn -0.733427 0.220825 0.6429
vn 0.424022 0.783543 0.454165
vn -0.210872 0.568385 0.795281
vn -0.8282769 0.245092 0.503872
vn 0.045309 0.960735 0.273743
vn -0.503243 0.681495 0.531329
vn -0.927475 0.287145 0.239453
vn -0.223029 0.974804 -0.003785
vn -0.620559 0.738687 0.263151
vn -0.933787 0.350255 0.07323901
vn 0.104502 0.080376 -0.991271
vn 0.0008880001 0.396585 -0.917997
vn 0.805219 0.199428 -0.558435
vn 0.693213 0.523127 -0.495776
vn 0.9483691 0.180586 0.260741
vn 0.8454611 0.438013 0.305518
vn -0.284485 0.812483 -0.5088611
vn 0.361393 0.922968 -0.132384
vn 0.597645 0.613135 0.516609
vn -0.513255 0.856308 0.057496
vn 0.06210401 0.9325661 0.355617
vn 0.362361 0.524889 0.770186
vn -0.562554 0.6980921 0.442946
vn -0.04352 0.713763 0.699034
vn 0.186801 0.256897 0.9482141
vn -0.816219 0.088075 0.57099
vn -0.721472 0.259907 0.6418161
vn -0.662441 0.418827 -0.621093
vn -0.520365 0.69863 -0.491056
vn 0.521361 0.09249 -0.848309
vn 0.612343 0.283991 -0.7378251
vn -0.503275 0.38774 0.772251
vn -0.239319 0.9455891 -0.220426
vn 0.729822 0.390495 -0.561136
vn -0.25183 0.410842 0.8762369
vn 0.088796 0.9958051 0.022096
vn 0.862868 0.358677 -0.356103
vn -0.038805 0.256252 0.965831
vn 0.33498 0.8915591 0.304812
vn 0.96296 0.241041 -0.120858
vn 0.208082 0.022557 0.9778511
vn 0.626503 0.552816 0.549443
vn 0.9946661 -0.001059 0.103139
vn 0.371886 -0.193937 0.907793
vn 0.732953 0.24247 0.635601
vn 0.948676 -0.203074 0.242435
vn 0.339045 0.050719 0.9394021
vn 0.376885 0.340977 0.861215
vn -0.822755 0.24065 0.51494
vn -0.757369 0.509749 0.408102
vn -0.6988141 0.06267 -0.712553
vn -0.586358 0.281546 -0.75955
vn 0.475006 0.782454 0.40266
vn -0.528375 0.847678 0.047565
vn -0.522315 0.210339 -0.826405
vn 0.587054 0.808916 -0.031987
vn -0.265198 0.901807 -0.341195
vn -0.281413 0.205611 -0.9373001
vn 0.66793 0.6405271 -0.378939
vn -0.038841 0.780862 -0.623495
vn -0.000969 0.122272 -0.9924961
vn 0.9881541 0.014719 0.152757
vn 0.972414 0.232713 0.016021
vn 0.07694901 0.386906 0.918903
vn 0.08104301 0.64294 0.7616169
vn -0.9532591 0.157314 0.257972
vn -0.9327291 0.334904 0.133625
vn 0.863103 0.434935 -0.256679
vn 0.021802 0.916956 0.398392
vn -0.9131361 0.403838 -0.055666
vn 0.5390511 0.498474 -0.678931
vn -0.13994 0.9686661 -0.205189
vn -0.915959 0.336821 -0.218106
vn 0.242283 0.27063 -0.931697
vn -0.368636 0.730612 -0.57473
vn -0.9077601 0.084975 -0.410793
vn 0.005878001 -0.004356 -0.999973
vn -0.545063 0.413107 -0.729555
vn -0.823809 -0.219872 -0.52249
vn 0.745953 0.133903 -0.652399
vn 0.606094 0.381835 -0.6977481
vn 0.727049 0.3866351 0.567374
vn 0.544088 0.673494 0.500374
vn -0.427729 0.039636 0.903038
vn -0.526816 0.188617 0.828788
vn 0.272742 0.552193 -0.787842
vn 0.126439 0.954403 0.270422
vn -0.692157 0.256291 0.67471
vn -0.023808 0.4348311 -0.900198
vn -0.297538 0.954676 -0.008058
vn -0.8966221 0.17587 0.406373
vn -0.376647 0.170201 -0.910587
vn -0.757108 0.550454 -0.351834
vn -0.991707 -0.023608 0.126334
vn -0.437696 -0.217759 -0.872355
vn -0.86177 0.238836 -0.44756
vn -0.920011 -0.390015 -0.038311
vn -0.2664571 0.107775 -0.9578021
vn -0.401073 0.362212 -0.841394
vn 0.824994 0.379895 -0.418408
vn 0.636458 0.718301 -0.281007
vn 0.632913 0.05836301 0.77202
vn 0.464711 0.2692311 0.8435391
vn -0.6683511 0.488928 -0.560586
vn 0.17487 0.9835671 -0.044901
vn 0.193928 0.37811 0.905221
vn -0.850335 0.47905 -0.217812
vn -0.172328 0.9393211 0.2966131
vn -0.08773001 0.269806 0.95891
vn -0.9305841 0.325101 0.168295
vn -0.469337 0.708242 0.527367
vn -0.297454 0.164112 0.9405261
vn -0.9343531 0.146568 -0.3248121
vn -0.863339 0.467703 -0.189471
vn 0.139578 0.309263 -0.940678
vn 0.195758 0.6031761 -0.773213
vn 0.996327 -0.004387 -0.08551701
vn 0.987257 0.158804 0.010252
vn -0.756131 0.6321151 0.1694
vn 0.170234 0.894574 -0.413229
vn 0.9359651 0.286845 0.204179
vn -0.6031821 0.553372 0.574414
vn 0.253975 0.935658 0.24503
vn 0.781563 0.190244 0.5941101
vn -0.348418 0.357258 0.866586
vn 0.250123 0.676005 0.6931491
vn 0.6186 0.08473801 0.781123
g spmBbBigFern1_LOD2_0
f 2/2/2 3/3/3 1/1/1
f 3/3/3 2/2/2 4/4/4
f 4/4/4 5/5/5 3/3/3
f 5/5/5 4/4/4 6/6/6
f 7/7/7 4/4/4 2/2/2
f 4/4/4 7/7/7 8/8/8
f 8/8/8 6/6/6 4/4/4
f 6/6/6 8/8/8 9/9/9
f 10/10/10 8/8/8 7/7/7
f 8/8/8 10/10/10 11/11/11
f 11/11/11 9/9/9 8/8/8
f 9/9/9 11/11/11 12/12/12
f 13/13/13 11/11/11 10/10/10
f 11/11/11 13/13/13 14/14/14
f 14/14/14 12/12/12 11/11/11
f 12/12/12 14/14/14 15/15/15
f 17/17/17 18/18/18 16/16/16
f 18/18/18 17/17/17 19/19/19
f 19/19/19 20/20/20 18/18/18
f 20/20/20 19/19/19 21/21/21
f 22/22/22 19/19/19 17/17/17
f 19/19/19 22/22/22 23/23/23
f 23/23/23 21/21/21 19/19/19
f 21/21/21 23/23/23 24/24/24
f 25/25/25 23/23/23 22/22/22
f 23/23/23 25/25/25 26/26/26
f 26/26/26 24/24/24 23/23/23
f 24/24/24 26/26/26 27/27/27
f 28/28/28 26/26/26 25/25/25
f 26/26/26 28/28/28 29/29/29
f 29/29/29 27/27/27 26/26/26
f 27/27/27 29/29/29 30/30/30
f 32/32/32 33/33/33 31/31/31
f 33/33/33 32/32/32 34/34/34
f 34/34/34 35/35/35 33/33/33
f 35/35/35 34/34/34 36/36/36
f 37/37/37 34/34/34 32/32/32
f 34/34/34 37/37/37 38/38/38
f 38/38/38 36/36/36 34/34/34
f 36/36/36 38/38/38 39/39/39
f 40/40/40 38/38/38 37/37/37
f 38/38/38 40/40/40 41/41/41
f 41/41/41 39/39/39 38/38/38
f 39/39/39 41/41/41 42/42/42
f 43/43/43 41/41/41 40/40/40
f 41/41/41 43/43/43 44/44/44
f 44/44/44 42/42/42 41/41/41
f 42/42/42 44/44/44 45/45/45
f 47/47/47 48/48/48 46/46/46
f 48/48/48 47/47/47 49/49/49
f 49/49/49 50/50/50 48/48/48
f 50/50/50 49/49/49 51/51/51
f 52/52/52 49/49/49 47/47/47
f 49/49/49 52/52/52 53/53/53
f 53/53/53 51/51/51 49/49/49
f 51/51/51 53/53/53 54/54/54
f 55/55/55 53/53/53 52/52/52
f 53/53/53 55/55/55 56/56/56
f 56/56/56 54/54/54 53/53/53
f 54/54/54 56/56/56 57/57/57
f 58/58/58 56/56/56 55/55/55
f 56/56/56 58/58/58 59/59/59
f 59/59/59 57/57/57 56/56/56
f 57/57/57 59/59/59 60/60/60
f 61/61/61 59/59/59 58/58/58
f 59/59/59 61/61/61 62/62/62
f 62/62/62 60/60/60 59/59/59
f 60/60/60 62/62/62 63/63/63
f 64/64/64 62/62/62 61/61/61
f 62/62/62 64/64/64 65/65/65
f 65/65/65 63/63/63 62/62/62
f 63/63/63 65/65/65 66/66/66
f 68/68/68 69/69/69 67/67/67
f 69/69/69 68/68/68 70/70/70
f 70/70/70 71/71/71 69/69/69
f 71/71/71 70/70/70 72/72/72
f 73/73/73 70/70/70 68/68/68
f 70/70/70 73/73/73 74/74/74
f 74/74/74 72/72/72 70/70/70
f 72/72/72 74/74/74 75/75/75
f 76/76/76 74/74/74 73/73/73
f 74/74/74 76/76/76 77/77/77
f 77/77/77 75/75/75 74/74/74
f 75/75/75 77/77/77 78/78/78
f 79/79/79 77/77/77 76/76/76
f 77/77/77 79/79/79 80/80/80
f 80/80/80 78/78/78 77/77/77
f 78/78/78 80/80/80 81/81/81
f 83/83/83 84/84/84 82/82/82
f 84/84/84 83/83/83 85/85/85
f 85/85/85 86/86/86 84/84/84
f 86/86/86 85/85/85 87/87/87
f 88/88/88 85/85/85 83/83/83
f 85/85/85 88/88/88 89/89/89
f 89/89/89 87/87/87 85/85/85
f 87/87/87 89/89/89 90/90/90
f 91/91/91 89/89/89 88/88/88
f 89/89/89 91/91/91 92/92/92
f 92/92/92 90/90/90 89/89/89
f 90/90/90 92/92/92 93/93/93
f 94/94/94 92/92/92 91/91/91
f 92/92/92 94/94/94 95/95/95
f 95/95/95 93/93/93 92/92/92
f 93/93/93 95/95/95 96/96/96
f 97/97/97 95/95/95 94/94/94
f 95/95/95 97/97/97 98/98/98
f 98/98/98 96/96/96 95/95/95
f 96/96/96 98/98/98 99/99/99
f 101/101/101 102/102/102 100/100/100
f 102/102/102 101/101/101 103/103/103
f 103/103/103 104/104/104 102/102/102
f 104/104/104 103/103/103 105/105/105
f 106/106/106 103/103/103 101/101/101
f 103/103/103 106/106/106 107/107/107
f 107/107/107 105/105/105 103/103/103
f 105/105/105 107/107/107 108/108/108
f 109/109/109 107/107/107 106/106/106
f 107/107/107 109/109/109 110/110/110
f 110/110/110 108/108/108 107/107/107
f 108/108/108 110/110/110 111/111/111
f 112/112/112 110/110/110 109/109/109
f 110/110/110 112/112/112 113/113/113
f 113/113/113 111/111/111 110/110/110
f 111/111/111 113/113/113 114/114/114
f 115/115/115 113/113/113 112/112/112
f 113/113/113 115/115/115 116/116/116
f 116/116/116 114/114/114 113/113/113
f 114/114/114 116/116/116 117/117/117
f 119/119/119 120/120/120 118/118/118
f 120/120/120 119/119/119 121/121/121
f 121/121/121 122/122/122 120/120/120
f 122/122/122 121/121/121 123/123/123
f 124/124/124 121/121/121 119/119/119
f 121/121/121 124/124/124 125/125/125
f 125/125/125 123/123/123 121/121/121
f 123/123/123 125/125/125 126/126/126
f 127/127/127 125/125/125 124/124/124
f 125/125/125 127/127/127 128/128/128
f 128/128/128 126/126/126 125/125/125
f 126/126/126 128/128/128 129/129/129
f 130/130/130 128/128/128 127/127/127
f 128/128/128 130/130/130 131/131/131
f 131/131/131 129/129/129 128/128/128
f 129/129/129 131/131/131 132/132/132
f 134/134/134 135/135/135 133/133/133
f 135/135/135 134/134/134 136/136/136
f 136/136/136 137/137/137 135/135/135
f 137/137/137 136/136/136 138/138/138
f 139/139/139 136/136/136 134/134/134
f 136/136/136 139/139/139 140/140/140
f 140/140/140 138/138/138 136/136/136
f 138/138/138 140/140/140 141/141/141
f 142/142/142 140/140/140 139/139/139
f 140/140/140 142/142/142 143/143/143
f 143/143/143 141/141/141 140/140/140
f 141/141/141 143/143/143 144/144/144
f 145/145/145 143/143/143 142/142/142
f 143/143/143 145/145/145 146/146/146
f 146/146/146 144/144/144 143/143/143
f 144/144/144 146/146/146 147/147/147
