g TarballMesh
v 0.4999998 0.8660255 2.384186E-07
v 0.4999998 0.7668276 -0.4024617
v 0.7071066 0.6261122 -0.3286085
v 0.7071066 0.7071068 1.788139E-07
v 0.4999998 0.7668276 0.4024622
v 0.7071066 0.7071068 1.788139E-07
v 0.7071066 0.626112 0.3286089
v 0.2588188 0.8552848 0.4488882
v 0.2588188 0.5487084 0.7949412
v 0.4999997 0.4919588 0.7127249
v 0.2588189 0.9659258 3.278255E-07
v 0.4999998 0.7668276 -0.4024617
v 0.2588189 0.855285 -0.4488877
v -1.453254E-07 0.9999999 2.71615E-07
v -1.788139E-07 0.885456 0.4647233
v 0.2588188 0.8552848 0.4488882
v -1.788139E-07 0.5680647 0.8229837
v 0.2588188 0.5487084 0.7949412
v -1.192093E-07 0.1205368 0.9927086
v 0.2588189 0.1164296 0.9588828
v -5.960464E-08 -0.3546045 0.9350159
v -8.940697E-08 0.8854561 -0.4647228
v 0.2588189 -0.3425216 0.9031559
v 0.258819 0.5487087 -0.7949408
v 0 0.568065 -0.8229834
v 0.4999999 0.4919589 -0.7127244
v 0.7071067 0.4016827 -0.5819369
v 0.7071066 0.6261122 -0.3286085
v 0.4999999 0.1043883 -0.8597106
v 0.258819 0.11643 -0.9588827
v 5.960464E-08 0.1205372 -0.9927084
v 0.2588191 -0.3425213 -0.9031559
v 1.192093E-07 -0.3546043 -0.9350159
v 0.5 -0.3070962 -0.8097475
v 0.2588191 -0.7230051 -0.6405271
v 0.5 -0.6482286 -0.5742807
v 0.7071068 -0.2507429 -0.6611559
v 0.7071068 0.08523276 -0.7019506
v 0.4999999 0.4919589 -0.7127244
v 0.7071067 0.4016827 -0.5819369
v 0.7071068 -0.5292762 -0.4688981
v 0.5 -0.8408595 -0.2072534
v 0.7071068 -0.6865586 -0.1692215
v 0.8660254 -0.3742545 -0.3315609
v 0.8660254 -0.48547 -0.1196576
v 0.8660254 -0.1773017 -0.4675075
v 0.7071068 0.08523276 -0.7019506
v 0.8660253 0.06026882 -0.4963539
v 0.7071067 0.4016827 -0.5819369
v 0.8660253 0.2840327 -0.4114915
v 0.7071066 0.6261122 -0.3286085
v 0.8660253 0.4427282 -0.2323613
v 0.7071066 0.7071068 1.788139E-07
v 0.8660253 0.5000001 1.788139E-07
v 0.7071066 0.626112 0.3286089
v 0.9659258 -0.193728 -0.1716284
v 0.9659258 -0.09177782 -0.2419995
v 0.9659257 0.0311977 -0.2569314
v 0.9659258 0.1470263 -0.2130034
v 0.9999999 3.025606E-07 4.768372E-07
v 0.9659258 -0.2512974 -0.06193924
v 0.9659258 0.2291731 -0.1202788
v 0.9659257 0.2588192 1.788139E-07
v 0.8660253 0.4427281 0.2323616
v 0.9659258 -0.2512974 0.06193948
v 0.8660254 -0.48547 0.1196578
v 0.9659258 0.2291731 0.1202792
v 0.9659258 -0.1937281 0.1716287
v 0.7071068 -0.6865585 0.1692217
v 0.8660253 -0.3742546 0.3315611
v 0.9659258 -0.09177788 0.2419998
v 0.7071066 0.4016826 0.5819372
v 0.8660253 0.2840326 0.4114918
v 0.9659258 0.1470263 0.2130038
v 0.9659258 0.03119764 0.2569318
v 0.8660253 -0.1773018 0.4675079
v 0.8660253 0.06026876 0.4963542
v 0.7071067 -0.5292761 0.4688984
v 0.7071067 0.0852327 0.7019508
v 0.7071066 -0.2507429 0.6611559
v 0.4999997 0.4919588 0.7127249
v 0.4999999 -0.8408595 0.2072534
v 0.4999999 -0.6482287 0.574281
v 0.4999998 -0.3070964 0.8097477
v 0.4999998 0.1043882 0.859711
v 0.2588189 0.1164296 0.9588828
v 0.2588188 0.5487084 0.7949412
v 0.2588191 -0.9378569 -0.2311612
v 0.2588191 -0.937857 0.231161
v 0.258819 -0.7230052 0.6405269
v 1.192093E-07 -0.74851 -0.6631224
v 5.960464E-08 -0.7485101 0.6631223
v 1.341105E-07 -0.9709409 -0.2393156
v 1.043081E-07 -0.9709411 0.2393155
v -0.2588189 -0.3425214 -0.903156
v -0.2588189 -0.7230052 -0.6405271
v -0.2588189 -0.9378571 -0.2311612
v -0.2588189 -0.9378572 0.231161
v -0.258819 -0.7230054 0.640527
v -0.258819 0.1164299 -0.9588827
v 5.960464E-08 0.1205372 -0.9927084
v -0.258819 -0.3425217 0.903156
v -1.192093E-07 0.1205368 0.9927086
v -0.258819 0.5487087 -0.7949409
v 0 0.568065 -0.8229834
v -0.2588191 0.1164297 0.958883
v -1.788139E-07 0.5680647 0.8229837
v -0.2588191 0.8552849 -0.4488878
v -8.940697E-08 0.8854561 -0.4647228
v -0.5 0.7668276 -0.4024618
v -0.4999999 0.4919588 -0.7127247
v -0.4999998 0.1043882 -0.8597109
v -0.4999998 -0.3070963 -0.8097477
v -0.2588191 0.9659258 1.788139E-07
v -1.453254E-07 0.9999999 2.71615E-07
v -0.2588192 0.5487084 0.7949412
v -1.788139E-07 0.885456 0.4647233
v -0.2588192 0.8552849 0.4488882
v -0.5 0.1043879 0.8597109
v -0.5000001 0.4919586 0.7127249
v -0.5000001 0.7668275 0.4024623
v -0.5 -0.3070966 0.8097476
v -0.5000001 0.8660254 1.490116E-07
v -0.2588191 0.8552849 -0.4488878
v -0.5 0.7668276 -0.4024618
v -0.4999999 -0.6482289 0.5742809
v -0.4999999 -0.8408598 0.2072533
v -0.4999998 -0.8408598 -0.2072535
v -0.4999998 -0.6482288 -0.574281
v -0.4999998 -0.3070963 -0.8097477
v -0.7071068 0.7071067 1.192093E-07
v -0.7071068 0.6261121 -0.3286087
v -0.4999999 0.4919588 -0.7127247
v -0.7071068 0.6261119 0.3286089
v -0.7071066 0.4016827 -0.5819373
v -0.4999998 0.1043882 -0.8597109
v -0.7071066 0.08523266 -0.701951
v -0.7071066 -0.2507431 -0.6611562
v -0.7071068 0.4016825 0.5819373
v -0.7071065 -0.5292765 -0.4688984
v -0.7071067 0.08523248 0.7019508
v -0.7071065 -0.686559 -0.1692218
v -0.7071066 -0.2507432 0.6611559
v -0.7071066 -0.686559 0.1692216
v -0.7071066 -0.5292766 0.4688983
v -0.8660253 -0.1773021 -0.467508
v -0.8660253 -0.374255 -0.3315613
v -0.8660253 -0.4854705 -0.1196578
v -0.8660253 -0.4854705 0.1196578
v -0.8660253 -0.374255 0.3315613
v -0.8660253 -0.1773022 0.467508
v -0.8660253 0.06026865 -0.4963543
v -0.8660254 0.06026852 0.4963543
v -0.8660253 0.2840326 -0.4114918
v -0.8660254 0.2840325 0.4114918
v -0.8660254 0.4427282 -0.2323614
v -0.8660254 0.442728 0.2323616
v -0.8660254 0.5000001 1.192093E-07
v -0.9659258 -0.09177829 0.2419999
v -0.9659258 0.03119738 0.256932
v -0.9659259 0.1470262 0.2130039
v -0.9659259 0.2291731 0.1202793
v -1 2.550555E-07 0
v -0.9659258 -0.1937286 0.1716287
v -0.9659259 0.2588193 5.960464E-08
v -0.9659258 0.2291731 -0.1202791
v -0.9659258 -0.251298 0.06193942
v -0.9659258 0.1470262 -0.2130038
v -0.9659258 -0.2512979 -0.06193948
v -0.9659258 0.03119748 -0.2569318
v -0.9659258 -0.1937285 -0.1716288
v -0.9659257 -0.09177818 -0.242
vt 0.4999998 0.9166666
vt 0.6318451 0.9080392
vt 0.6065794 0.8653429
vt 0.4999998 0.8749999
vt 0.3681543 0.9080392
vt 0.4999998 0.8749999
vt 0.39342 0.8653429
vt 0.3518199 0.953232
vt 0.2075013 0.9298536
vt 0.2474605 0.8737098
vt 0.4999996 0.9583333
vt 0.6318451 0.9080392
vt 0.6481795 0.953232
vt 0.4999996 0.9999999
vt 0.3461536 0.9999999
vt 0.3518199 0.953232
vt 0.1923075 0.9999999
vt 0.2075013 0.9298536
vt 0.03846133 0.9999999
vt 0.09159535 0.8172793
vt 0.1153842 0.4999999
vt 0.6538458 0.9999999
vt 0.1412435 0.602988
vt 0.7924981 0.9298536
vt 0.8076919 0.9999999
vt 0.7525388 0.8737097
vt 0.6977048 0.8322204
vt 0.6065794 0.8653429
vt 0.8293561 0.7827571
vt 0.9084041 0.8172794
vt 0.9615381 0.9999998
vt 0.8587559 0.602988
vt 0.8846152 0.4999998
vt 0.8003958 0.6623389
vt 0.7212839 0.5547115
vt 0.6947181 0.604567
vt 0.7299337 0.6957645
vt 0.7476872 0.7690918
vt 0.7525388 0.8737097
vt 0.6977048 0.8322204
vt 0.6553487 0.6477354
vt 0.5664522 0.5853803
vt 0.5541251 0.6273463
vt 0.6075751 0.6850784
vt 0.5381795 0.6686838
vt 0.6548478 0.71786
vt 0.7476872 0.7690918
vt 0.665328 0.761058
vt 0.6977048 0.8322204
vt 0.6349918 0.800439
vt 0.6065794 0.8653429
vt 0.574645 0.8252137
vt 0.4999998 0.8749999
vt 0.4999998 0.8333333
vt 0.39342 0.8653429
vt 0.5549026 0.7184974
vt 0.5778031 0.7349229
vt 0.5827113 0.7551385
vt 0.5683243 0.7740407
vt 0.4999996 0.7499999
vt 0.5197282 0.7094917
vt 0.5383787 0.787075
vt 0.4999998 0.7916665
vt 0.4253545 0.8252137
vt 0.4802712 0.7094917
vt 0.46182 0.6686838
vt 0.4616208 0.787075
vt 0.4450969 0.7184974
vt 0.4458743 0.6273463
vt 0.3924243 0.6850785
vt 0.4221964 0.7349229
vt 0.3022947 0.8322204
vt 0.3650076 0.800439
vt 0.4316751 0.7740407
vt 0.4172882 0.7551385
vt 0.3451517 0.7178601
vt 0.3346715 0.761058
vt 0.3446507 0.6477354
vt 0.2523123 0.7690918
vt 0.2700658 0.6957645
vt 0.2474605 0.8737098
vt 0.4335472 0.5853803
vt 0.3052813 0.6045671
vt 0.1996035 0.6623389
vt 0.1706433 0.7827572
vt 0.09159535 0.8172793
vt 0.2075013 0.9298536
vt 0.5742522 0.5428549
vt 0.4257472 0.542855
vt 0.2787155 0.5547115
vt 0.730769 0.4999998
vt 0.2692305 0.4999999
vt 0.5769229 0.4999999
vt 0.4230766 0.4999999
vt 0.8587559 0.3970117
vt 0.7212839 0.4452882
vt 0.5742522 0.4571448
vt 0.4257472 0.4571448
vt 0.2787155 0.4452883
vt 0.9084041 0.1827203
vt 0.9615381 -1.490116E-07
vt 0.1412435 0.3970118
vt 0.03846127 -1.192093E-07
vt 0.7924981 0.07014611
vt 0.8076918 -1.490116E-07
vt 0.09159529 0.1827204
vt 0.1923074 -1.192093E-07
vt 0.6481794 0.04676771
vt 0.6538457 -1.192093E-07
vt 0.6318451 0.09196052
vt 0.7525389 0.12629
vt 0.8293561 0.2172426
vt 0.8003958 0.3376608
vt 0.4999997 0.04166654
vt 0.4999996 -1.192093E-07
vt 0.2075014 0.0701462
vt 0.3461536 -1.192093E-07
vt 0.3518199 0.04676771
vt 0.1706433 0.2172427
vt 0.2474605 0.12629
vt 0.3681542 0.09196049
vt 0.1996036 0.3376609
vt 0.4999997 0.08333319
vt 0.6481794 0.04676771
vt 0.6318451 0.09196052
vt 0.3052813 0.3954328
vt 0.4335472 0.4146194
vt 0.5664521 0.4146194
vt 0.694718 0.3954327
vt 0.8003958 0.3376608
vt 0.4999997 0.1249999
vt 0.6065794 0.1346568
vt 0.7525389 0.12629
vt 0.3934199 0.1346569
vt 0.6977048 0.1677793
vt 0.8293561 0.2172426
vt 0.7476872 0.2309079
vt 0.7299337 0.3042352
vt 0.3022946 0.1677794
vt 0.6553487 0.3522644
vt 0.2523122 0.2309079
vt 0.5541251 0.3726535
vt 0.2700657 0.3042353
vt 0.4458743 0.3726535
vt 0.3446506 0.3522644
vt 0.6548478 0.2821396
vt 0.6075751 0.3149213
vt 0.5381794 0.331316
vt 0.4618199 0.331316
vt 0.3924243 0.3149213
vt 0.3451515 0.2821397
vt 0.665328 0.2389417
vt 0.3346713 0.2389418
vt 0.6349918 0.1995608
vt 0.3650075 0.1995608
vt 0.5746449 0.1747861
vt 0.4253544 0.1747861
vt 0.4999996 0.1666665
vt 0.4221963 0.2650768
vt 0.417288 0.2448613
vt 0.431675 0.225959
vt 0.4616207 0.2129247
vt 0.4999997 0.2499998
vt 0.4450967 0.2815024
vt 0.4999997 0.2083332
vt 0.5383786 0.2129247
vt 0.480271 0.2905081
vt 0.5683244 0.225959
vt 0.5197282 0.2905081
vt 0.5827113 0.2448612
vt 0.5549026 0.2815024
vt 0.5778031 0.2650768
vn 0.4915503 0.8708492 0
vn 0.4915482 0.7711075 -0.4046895
vn 0.6972532 0.6347184 -0.3331226
vn 0.6972423 0.7168356 0
vn 0.4915482 0.7711075 0.4046895
vn 0.6972423 0.7168356 0
vn 0.6972532 0.6347184 0.3331226
vn 0.2539787 0.8564227 0.449483
vn 0.25398 0.5494354 0.7959993
vn 0.4915517 0.4946953 0.7166962
vn 0.2539795 0.9672096 0
vn 0.4915482 0.7711075 -0.4046895
vn 0.2539787 0.8564227 -0.449483
vn 0 1 0
vn 0 0.8854585 0.4647185
vn 0.2539787 0.8564227 0.449483
vn 0 0.5680588 0.8229879
vn 0.25398 0.5494354 0.7959993
vn 0 0.1205182 0.9927112
vn 0.253979 0.1165825 0.9601579
vn 0 -0.3546027 0.9350171
vn 0 0.8854585 -0.4647185
vn 0.2539766 -0.3429691 0.9043605
vn 0.25398 0.5494354 -0.7959993
vn 0 0.5680588 -0.8229879
vn 0.4915517 0.4946953 -0.7166962
vn 0.6972514 0.4071929 -0.5899444
vn 0.6972532 0.6347184 -0.3331226
vn 0.4915503 0.1049573 -0.8645011
vn 0.253979 0.1165825 -0.9601579
vn 0 0.1205182 -0.9927112
vn 0.2539766 -0.3429691 -0.9043605
vn 0 -0.3546027 -0.9350171
vn 0.4915487 -0.3087973 -0.814263
vn 0.2539768 -0.7239652 -0.6413815
vn 0.4915464 -0.6518346 -0.5774892
vn 0.6972514 -0.254198 -0.6702415
vn 0.6972538 0.08640137 -0.7115981
vn 0.4915517 0.4946953 -0.7166962
vn 0.6972514 0.4071929 -0.5899444
vn 0.6972468 -0.536562 -0.4753401
vn 0.4915505 -0.8455486 -0.2083886
vn 0.6972495 -0.6959982 -0.1715503
vn 0.8573533 -0.3852779 -0.3413299
vn 0.8573602 -0.4997606 -0.1231776
vn 0.8573509 -0.182506 -0.4812909
vn 0.6972538 0.08640137 -0.7115981
vn 0.8573495 0.06201531 -0.5109854
vn 0.6972514 0.4071929 -0.5899444
vn 0.8573523 0.2924068 -0.4236099
vn 0.6972532 0.6347184 -0.3331226
vn 0.8573489 0.4557756 -0.2392105
vn 0.6972423 0.7168356 0
vn 0.8573474 0.5147381 0
vn 0.6972532 0.6347184 0.3331226
vn 0.9607725 -0.2075911 -0.1839082
vn 0.9607723 -0.0983326 -0.2593209
vn 0.9607735 0.03341848 -0.2753133
vn 0.9607717 0.1575396 -0.2282523
vn 1 0 0
vn 0.9607762 -0.2692713 -0.06634884
vn 0.9607761 0.2455578 -0.1288827
vn 0.9607753 0.2773281 0
vn 0.8573489 0.4557756 0.2392105
vn 0.9607762 -0.2692713 0.06634884
vn 0.8573602 -0.4997606 0.1231776
vn 0.9607761 0.2455578 0.1288827
vn 0.9607725 -0.2075911 0.1839082
vn 0.6972495 -0.6959982 0.1715503
vn 0.8573533 -0.3852779 0.3413299
vn 0.9607723 -0.0983326 0.2593209
vn 0.6972514 0.4071929 0.5899444
vn 0.8573523 0.2924068 0.4236099
vn 0.9607717 0.1575396 0.2282523
vn 0.9607735 0.03341848 0.2753133
vn 0.8573509 -0.182506 0.4812909
vn 0.8573495 0.06201531 0.5109854
vn 0.6972468 -0.536562 0.4753401
vn 0.6972538 0.08640137 0.7115981
vn 0.6972514 -0.254198 0.6702415
vn 0.4915517 0.4946953 0.7166962
vn 0.4915505 -0.8455486 0.2083886
vn 0.4915464 -0.6518346 0.5774892
vn 0.4915487 -0.3087973 0.814263
vn 0.4915503 0.1049573 0.8645011
vn 0.253979 0.1165825 0.9601579
vn 0.25398 0.5494354 0.7959993
vn 0.2539808 -0.9391066 -0.2314577
vn 0.2539808 -0.9391066 0.2314577
vn 0.2539768 -0.7239652 0.6413815
vn 0 -0.7485128 -0.6631203
vn 0 -0.7485128 0.6631203
vn 0 -0.9709449 -0.2393028
vn 0 -0.9709449 0.2393028
vn -0.2539766 -0.3429691 -0.9043605
vn -0.2539768 -0.7239652 -0.6413815
vn -0.2539808 -0.9391066 -0.2314577
vn -0.2539808 -0.9391066 0.2314577
vn -0.2539768 -0.7239652 0.6413815
vn -0.253979 0.1165825 -0.9601579
vn 0 0.1205182 -0.9927112
vn -0.2539766 -0.3429691 0.9043605
vn 0 0.1205182 0.9927112
vn -0.25398 0.5494354 -0.7959993
vn 0 0.5680588 -0.8229879
vn -0.253979 0.1165825 0.9601579
vn 0 0.5680588 0.8229879
vn -0.2539787 0.8564227 -0.449483
vn 0 0.8854585 -0.4647185
vn -0.4915482 0.7711075 -0.4046895
vn -0.4915517 0.4946953 -0.7166962
vn -0.4915503 0.1049573 -0.8645011
vn -0.4915487 -0.3087973 -0.814263
vn -0.2539795 0.9672096 0
vn 0 1 0
vn -0.25398 0.5494354 0.7959993
vn 0 0.8854585 0.4647185
vn -0.2539787 0.8564227 0.449483
vn -0.4915503 0.1049573 0.8645011
vn -0.4915517 0.4946953 0.7166962
vn -0.4915482 0.7711075 0.4046895
vn -0.4915487 -0.3087973 0.814263
vn -0.4915503 0.8708492 0
vn -0.2539787 0.8564227 -0.449483
vn -0.4915482 0.7711075 -0.4046895
vn -0.4915464 -0.6518346 0.5774892
vn -0.4915505 -0.8455486 0.2083886
vn -0.4915505 -0.8455486 -0.2083886
vn -0.4915464 -0.6518346 -0.5774892
vn -0.4915487 -0.3087973 -0.814263
vn -0.6972423 0.7168356 0
vn -0.6972532 0.6347184 -0.3331226
vn -0.4915517 0.4946953 -0.7166962
vn -0.6972532 0.6347184 0.3331226
vn -0.6972514 0.4071929 -0.5899444
vn -0.4915503 0.1049573 -0.8645011
vn -0.6972538 0.08640137 -0.7115981
vn -0.6972514 -0.254198 -0.6702415
vn -0.6972514 0.4071929 0.5899444
vn -0.6972468 -0.536562 -0.4753401
vn -0.6972538 0.08640137 0.7115981
vn -0.6972495 -0.6959982 -0.1715503
vn -0.6972514 -0.254198 0.6702415
vn -0.6972495 -0.6959982 0.1715503
vn -0.6972468 -0.536562 0.4753401
vn -0.8573509 -0.182506 -0.4812909
vn -0.8573533 -0.3852779 -0.3413299
vn -0.8573602 -0.4997606 -0.1231776
vn -0.8573602 -0.4997606 0.1231776
vn -0.8573533 -0.3852779 0.3413299
vn -0.8573509 -0.182506 0.4812909
vn -0.8573495 0.06201531 -0.5109854
vn -0.8573495 0.06201531 0.5109854
vn -0.8573523 0.2924068 -0.4236099
vn -0.8573523 0.2924068 0.4236099
vn -0.8573489 0.4557756 -0.2392105
vn -0.8573489 0.4557756 0.2392105
vn -0.8573474 0.5147381 0
vn -0.9607723 -0.0983326 0.2593209
vn -0.9607735 0.03341848 0.2753133
vn -0.9607717 0.1575396 0.2282523
vn -0.9607761 0.2455578 0.1288827
vn -1 0 0
vn -0.9607725 -0.2075911 0.1839082
vn -0.9607753 0.2773281 0
vn -0.9607761 0.2455578 -0.1288827
vn -0.9607762 -0.2692713 0.06634884
vn -0.9607717 0.1575396 -0.2282523
vn -0.9607762 -0.2692713 -0.06634884
vn -0.9607735 0.03341848 -0.2753133
vn -0.9607725 -0.2075911 -0.1839082
vn -0.9607723 -0.0983326 -0.2593209
g TarballMesh_0
f 3/3/3 2/2/2 1/1/1
f 4/4/4 3/3/3 1/1/1
f 6/6/6 1/1/1 5/5/5
f 7/7/7 6/6/6 5/5/5
f 5/5/5 1/1/1 8/8/8
f 5/5/5 8/8/8 9/9/9
f 10/10/10 5/5/5 9/9/9
f 1/1/1 11/11/11 8/8/8
f 1/1/1 12/12/12 11/11/11
f 12/12/12 13/13/13 11/11/11
f 11/11/11 13/13/13 14/14/14
f 11/11/11 14/14/14 15/15/15
f 16/16/16 11/11/11 15/15/15
f 16/16/16 15/15/15 17/17/17
f 18/18/18 16/16/16 17/17/17
f 18/18/18 17/17/17 19/19/19
f 20/20/20 18/18/18 19/19/19
f 20/20/20 19/19/19 21/21/21
f 13/13/13 22/22/22 14/14/14
f 23/23/23 20/20/20 21/21/21
f 13/13/13 24/24/24 22/22/22
f 24/24/24 25/25/25 22/22/22
f 12/12/12 26/26/26 13/13/13
f 26/26/26 24/24/24 13/13/13
f 27/27/27 26/26/26 12/12/12
f 28/28/28 27/27/27 12/12/12
f 26/26/26 29/29/29 24/24/24
f 24/24/24 30/30/30 25/25/25
f 29/29/29 30/30/30 24/24/24
f 30/30/30 31/31/31 25/25/25
f 30/30/30 32/32/32 31/31/31
f 32/32/32 33/33/33 31/31/31
f 29/29/29 34/34/34 30/30/30
f 34/34/34 32/32/32 30/30/30
f 32/32/32 35/35/35 33/33/33
f 34/34/34 36/36/36 32/32/32
f 36/36/36 35/35/35 32/32/32
f 37/37/37 34/34/34 29/29/29
f 38/38/38 37/37/37 29/29/29
f 38/38/38 29/29/29 39/39/39
f 40/40/40 38/38/38 39/39/39
f 41/41/41 36/36/36 34/34/34
f 37/37/37 41/41/41 34/34/34
f 36/36/36 42/42/42 35/35/35
f 41/41/41 43/43/43 36/36/36
f 43/43/43 42/42/42 36/36/36
f 44/44/44 41/41/41 37/37/37
f 45/45/45 43/43/43 41/41/41
f 44/44/44 45/45/45 41/41/41
f 46/46/46 44/44/44 37/37/37
f 46/46/46 37/37/37 47/47/47
f 48/48/48 46/46/46 47/47/47
f 48/48/48 47/47/47 49/49/49
f 50/50/50 48/48/48 49/49/49
f 50/50/50 49/49/49 51/51/51
f 52/52/52 50/50/50 51/51/51
f 52/52/52 51/51/51 53/53/53
f 54/54/54 52/52/52 53/53/53
f 54/54/54 53/53/53 55/55/55
f 56/56/56 44/44/44 46/46/46
f 57/57/57 46/46/46 48/48/48
f 57/57/57 56/56/56 46/46/46
f 58/58/58 48/48/48 50/50/50
f 58/58/58 57/57/57 48/48/48
f 59/59/59 50/50/50 52/52/52
f 59/59/59 58/58/58 50/50/50
f 60/60/60 57/57/57 58/58/58
f 60/60/60 56/56/56 57/57/57
f 60/60/60 58/58/58 59/59/59
f 56/56/56 61/61/61 44/44/44
f 60/60/60 61/61/61 56/56/56
f 60/60/60 59/59/59 62/62/62
f 62/62/62 59/59/59 52/52/52
f 62/62/62 52/52/52 54/54/54
f 60/60/60 62/62/62 63/63/63
f 63/63/63 62/62/62 54/54/54
f 61/61/61 45/45/45 44/44/44
f 63/63/63 54/54/54 64/64/64
f 64/64/64 54/54/54 55/55/55
f 61/61/61 65/65/65 45/45/45
f 60/60/60 65/65/65 61/61/61
f 65/65/65 66/66/66 45/45/45
f 45/45/45 66/66/66 43/43/43
f 60/60/60 63/63/63 67/67/67
f 67/67/67 63/63/63 64/64/64
f 65/65/65 68/68/68 66/66/66
f 60/60/60 68/68/68 65/65/65
f 66/66/66 69/69/69 43/43/43
f 43/43/43 69/69/69 42/42/42
f 68/68/68 70/70/70 66/66/66
f 66/66/66 70/70/70 69/69/69
f 60/60/60 71/71/71 68/68/68
f 68/68/68 71/71/71 70/70/70
f 64/64/64 55/55/55 72/72/72
f 67/67/67 64/64/64 73/73/73
f 73/73/73 64/64/64 72/72/72
f 60/60/60 67/67/67 74/74/74
f 74/74/74 67/67/67 73/73/73
f 60/60/60 75/75/75 71/71/71
f 60/60/60 74/74/74 75/75/75
f 71/71/71 76/76/76 70/70/70
f 71/71/71 75/75/75 76/76/76
f 75/75/75 74/74/74 77/77/77
f 74/74/74 73/73/73 77/77/77
f 75/75/75 77/77/77 76/76/76
f 70/70/70 78/78/78 69/69/69
f 70/70/70 76/76/76 78/78/78
f 77/77/77 73/73/73 79/79/79
f 73/73/73 72/72/72 79/79/79
f 76/76/76 77/77/77 80/80/80
f 76/76/76 80/80/80 78/78/78
f 77/77/77 79/79/79 80/80/80
f 72/72/72 55/55/55 81/81/81
f 55/55/55 5/5/5 81/81/81
f 69/69/69 78/78/78 82/82/82
f 69/69/69 82/82/82 42/42/42
f 78/78/78 80/80/80 83/83/83
f 78/78/78 83/83/83 82/82/82
f 80/80/80 79/79/79 84/84/84
f 80/80/80 84/84/84 83/83/83
f 79/79/79 72/72/72 85/85/85
f 72/72/72 81/81/81 85/85/85
f 79/79/79 85/85/85 84/84/84
f 85/85/85 81/81/81 86/86/86
f 81/81/81 87/87/87 86/86/86
f 85/85/85 86/86/86 23/23/23
f 84/84/84 85/85/85 23/23/23
f 42/42/42 82/82/82 88/88/88
f 42/42/42 88/88/88 35/35/35
f 82/82/82 83/83/83 89/89/89
f 82/82/82 89/89/89 88/88/88
f 83/83/83 84/84/84 90/90/90
f 84/84/84 23/23/23 90/90/90
f 83/83/83 90/90/90 89/89/89
f 35/35/35 88/88/88 91/91/91
f 35/35/35 91/91/91 33/33/33
f 90/90/90 23/23/23 92/92/92
f 23/23/23 21/21/21 92/92/92
f 88/88/88 89/89/89 93/93/93
f 88/88/88 93/93/93 91/91/91
f 89/89/89 90/90/90 94/94/94
f 90/90/90 92/92/92 94/94/94
f 89/89/89 94/94/94 93/93/93
f 33/33/33 91/91/91 95/95/95
f 91/91/91 93/93/93 96/96/96
f 91/91/91 96/96/96 95/95/95
f 93/93/93 94/94/94 97/97/97
f 93/93/93 97/97/97 96/96/96
f 94/94/94 92/92/92 98/98/98
f 94/94/94 98/98/98 97/97/97
f 92/92/92 21/21/21 99/99/99
f 92/92/92 99/99/99 98/98/98
f 33/33/33 95/95/95 100/100/100
f 101/101/101 33/33/33 100/100/100
f 21/21/21 102/102/102 99/99/99
f 21/21/21 103/103/103 102/102/102
f 101/101/101 100/100/100 104/104/104
f 105/105/105 101/101/101 104/104/104
f 103/103/103 106/106/106 102/102/102
f 103/103/103 107/107/107 106/106/106
f 105/105/105 104/104/104 108/108/108
f 109/109/109 105/105/105 108/108/108
f 108/108/108 104/104/104 110/110/110
f 104/104/104 111/111/111 110/110/110
f 104/104/104 100/100/100 111/111/111
f 100/100/100 112/112/112 111/111/111
f 100/100/100 95/95/95 112/112/112
f 95/95/95 113/113/113 112/112/112
f 109/109/109 108/108/108 114/114/114
f 115/115/115 109/109/109 114/114/114
f 107/107/107 116/116/116 106/106/106
f 107/107/107 117/117/117 116/116/116
f 117/117/117 115/115/115 118/118/118
f 115/115/115 114/114/114 118/118/118
f 117/117/117 118/118/118 116/116/116
f 106/106/106 116/116/116 119/119/119
f 116/116/116 118/118/118 120/120/120
f 116/116/116 120/120/120 119/119/119
f 118/118/118 114/114/114 121/121/121
f 118/118/118 121/121/121 120/120/120
f 106/106/106 119/119/119 122/122/122
f 102/102/102 106/106/106 122/122/122
f 114/114/114 123/123/123 121/121/121
f 114/114/114 124/124/124 123/123/123
f 124/124/124 125/125/125 123/123/123
f 102/102/102 122/122/122 126/126/126
f 99/99/99 102/102/102 126/126/126
f 99/99/99 126/126/126 127/127/127
f 98/98/98 99/99/99 127/127/127
f 98/98/98 127/127/127 128/128/128
f 97/97/97 98/98/98 128/128/128
f 97/97/97 128/128/128 129/129/129
f 96/96/96 97/97/97 129/129/129
f 96/96/96 129/129/129 130/130/130
f 95/95/95 96/96/96 130/130/130
f 123/123/123 125/125/125 131/131/131
f 125/125/125 132/132/132 131/131/131
f 125/125/125 133/133/133 132/132/132
f 123/123/123 131/131/131 134/134/134
f 121/121/121 123/123/123 134/134/134
f 133/133/133 135/135/135 132/132/132
f 133/133/133 136/136/136 135/135/135
f 136/136/136 130/130/130 137/137/137
f 136/136/136 137/137/137 135/135/135
f 130/130/130 129/129/129 138/138/138
f 130/130/130 138/138/138 137/137/137
f 121/121/121 134/134/134 139/139/139
f 120/120/120 121/121/121 139/139/139
f 129/129/129 140/140/140 138/138/138
f 129/129/129 128/128/128 140/140/140
f 120/120/120 139/139/139 141/141/141
f 119/119/119 120/120/120 141/141/141
f 128/128/128 142/142/142 140/140/140
f 128/128/128 127/127/127 142/142/142
f 119/119/119 141/141/141 143/143/143
f 122/122/122 119/119/119 143/143/143
f 127/127/127 144/144/144 142/142/142
f 127/127/127 126/126/126 144/144/144
f 126/126/126 122/122/122 145/145/145
f 122/122/122 143/143/143 145/145/145
f 126/126/126 145/145/145 144/144/144
f 138/138/138 140/140/140 146/146/146
f 140/140/140 142/142/142 147/147/147
f 140/140/140 147/147/147 146/146/146
f 142/142/142 144/144/144 148/148/148
f 142/142/142 148/148/148 147/147/147
f 144/144/144 145/145/145 149/149/149
f 144/144/144 149/149/149 148/148/148
f 145/145/145 143/143/143 150/150/150
f 145/145/145 150/150/150 149/149/149
f 143/143/143 141/141/141 151/151/151
f 143/143/143 151/151/151 150/150/150
f 138/138/138 146/146/146 152/152/152
f 137/137/137 138/138/138 152/152/152
f 141/141/141 153/153/153 151/151/151
f 141/141/141 139/139/139 153/153/153
f 137/137/137 152/152/152 154/154/154
f 135/135/135 137/137/137 154/154/154
f 139/139/139 155/155/155 153/153/153
f 139/139/139 134/134/134 155/155/155
f 135/135/135 154/154/154 156/156/156
f 132/132/132 135/135/135 156/156/156
f 134/134/134 157/157/157 155/155/155
f 134/134/134 131/131/131 157/157/157
f 131/131/131 132/132/132 158/158/158
f 132/132/132 156/156/156 158/158/158
f 131/131/131 158/158/158 157/157/157
f 151/151/151 153/153/153 159/159/159
f 153/153/153 155/155/155 160/160/160
f 153/153/153 160/160/160 159/159/159
f 155/155/155 157/157/157 161/161/161
f 155/155/155 161/161/161 160/160/160
f 157/157/157 158/158/158 162/162/162
f 157/157/157 162/162/162 161/161/161
f 160/160/160 161/161/161 163/163/163
f 159/159/159 160/160/160 163/163/163
f 161/161/161 162/162/162 163/163/163
f 151/151/151 159/159/159 164/164/164
f 164/164/164 159/159/159 163/163/163
f 162/162/162 165/165/165 163/163/163
f 158/158/158 165/165/165 162/162/162
f 158/158/158 156/156/156 165/165/165
f 165/165/165 166/166/166 163/163/163
f 156/156/156 166/166/166 165/165/165
f 150/150/150 151/151/151 164/164/164
f 156/156/156 154/154/154 166/166/166
f 150/150/150 164/164/164 167/167/167
f 167/167/167 164/164/164 163/163/163
f 149/149/149 150/150/150 167/167/167
f 154/154/154 168/168/168 166/166/166
f 166/166/166 168/168/168 163/163/163
f 154/154/154 152/152/152 168/168/168
f 149/149/149 167/167/167 169/169/169
f 169/169/169 167/167/167 163/163/163
f 148/148/148 149/149/149 169/169/169
f 152/152/152 170/170/170 168/168/168
f 168/168/168 170/170/170 163/163/163
f 152/152/152 146/146/146 170/170/170
f 148/148/148 169/169/169 171/171/171
f 171/171/171 169/169/169 163/163/163
f 147/147/147 148/148/148 171/171/171
f 146/146/146 172/172/172 170/170/170
f 170/170/170 172/172/172 163/163/163
f 172/172/172 171/171/171 163/163/163
f 147/147/147 171/171/171 172/172/172
f 146/146/146 147/147/147 172/172/172
