g terrainMesh.055
v -41.32141 20 48.13588
v -43.26423 17.76173 47.73087
v -43.97797 20 47.58617
v -36.26615 14.37475 46.50089
v -38.17559 9.999999 46.63623
v -45.84255 9.999999 45.17255
v -45.84255 9.999999 45.17255
v -46.895 9.999999 45.18727
v -43.26423 17.76173 47.73087
v -36.26615 14.37475 46.50089
v -41.32141 20 48.13588
v -37.16999 20 47.8781
v -25.64373 16.88544 42.89489
v -30.94689 20 45.4959
v -26.97367 20 44.0179
v -25 20 43.07828
v -25 19.27563 42.96436
v -25 17.45026 42.28964
v -25 16.92277 41.79617
v -25 15.94085 42.03317
v -25 11.06996 40.29653
v -27.42886 9.999999 41.89571
v -25 9.999999 39.9924
v -30.04691 9.999999 44.03065
v -32.46777 9.999999 44.88761
v -38.17559 9.999999 46.63623
vt 0.9491403 0.8627782
vt 0.9517514 0.8721697
vt 0.956899 0.8642139
vt 0.5887707 0.3735692
vt 0.5795084 0.3873942
vt 0.5973747 0.4008655
vt 0.3196056 0.2852685
vt 0.3228899 0.2854006
vt 0.3178896 0.2531203
vt 0.2932892 0.2661287
vt 0.3128326 0.2437727
vt 0.2993596 0.243298
vt 0.2510432 0.255502
vt 0.2739863 0.2430514
vt 0.2578978 0.242884
vt 0.249373 0.2428487
vt 0.2491148 0.2457888
vt 0.2474587 0.2532882
vt 0.2462058 0.2555249
vt 0.2468711 0.2594193
vt 0.2426173 0.279416
vt 0.2543119 0.2836599
vt 0.2418835 0.2837905
vt 0.2679247 0.2834997
vt 0.2776143 0.2836118
vt 0.2997549 0.2839397
vn -0.01126169 -0.1685592 0.9856272
vn -0.02871856 -0.2049364 0.9783539
vn -0.2026145 -0.001281791 0.9792578
vn 0.1878735 -0.1388604 0.9723278
vn -0.008514702 0.03463867 0.9993636
vn -0.01428292 -0.261701 0.9650433
vn -0.01428292 -0.261701 0.9650433
vn 0.01324519 -0.316969 0.9483435
vn -0.02871856 -0.2049364 0.9783539
vn 0.1878735 -0.1388604 0.9723278
vn -0.01126169 -0.1685592 0.9856272
vn 0.1895534 -0.2046298 0.9603105
vn 0.5955018 -0.17909 0.7831374
vn 0.3508473 -0.1714257 0.9206081
vn 0.3716324 -0.1703582 0.9126158
vn 0.4255876 -0.1405706 0.8939324
vn 0.4741194 -0.1528718 0.8670876
vn 0.7820424 -0.3151364 0.537679
vn 0.8592679 -0.1092587 0.4997213
vn 0.700606 -0.1574197 0.695967
vn 0.6061403 -0.2450686 0.7566606
vn 0.608399 -0.2608165 0.74955
vn 0.6019225 -0.2183316 0.768128
vn 0.430987 -0.1282707 0.8931947
vn 0.3224039 -0.06824074 0.9441393
vn -0.008514702 0.03463867 0.9993636
g terrainMesh.055_0
f 3/3/3 2/2/2 1/1/1
f 6/6/6 5/5/5 4/4/4
f 9/9/9 8/8/8 7/7/7
f 10/10/10 9/9/9 7/7/7
f 9/9/9 10/10/10 11/11/11
f 10/10/10 12/12/12 11/11/11
f 10/10/10 13/13/13 12/12/12
f 13/13/13 14/14/14 12/12/12
f 13/13/13 15/15/15 14/14/14
f 16/16/16 15/15/15 13/13/13
f 17/17/17 16/16/16 13/13/13
f 13/13/13 18/18/18 17/17/17
f 19/19/19 18/18/18 13/13/13
f 20/20/20 19/19/19 13/13/13
f 21/21/21 20/20/20 13/13/13
f 13/13/13 22/22/22 21/21/21
f 22/22/22 23/23/23 21/21/21
f 13/13/13 24/24/24 22/22/22
f 13/13/13 10/10/10 24/24/24
f 10/10/10 25/25/25 24/24/24
f 26/26/26 25/25/25 10/10/10
