g terrainMesh.039
v -0.003608703 0.3140258 5.167707
v 0.05967521 0.3595733 5.065784
v 0.193285 0.282669 5.223756
v 0.5802688 0.1243896 5.355314
v 0.4504642 0.2142639 5.291952
v 0.7694815 0.1667175 5.261976
v 0.3005562 0.187088 5.329607
v 0.3703956 0.3022766 5.186166
v 0.193285 0.282669 5.223756
v 0.1602459 0.1508942 5.341867
v -0.003608703 0.3140258 5.167707
v -0.08611488 0.1832275 5.269132
v 0.0241699 0 5.417883
v -0.02951509 0 5.406885
v -0.3627733 0 5.399609
v -0.5458254 0 5.370988
v -0.6076736 0.07690429 5.288398
v -0.2005157 0.2938232 5.117109
v -0.537466 0.1977234 5.088426
v -0.898672 0.07962035 5.249881
v -1.0065 0 5.390244
v -0.8950424 0 5.403002
v -0.7173529 0 5.399829
v -0.5458254 0 5.370988
v -1.121194 0 5.378054
v -1.156523 0.03219604 5.312906
v -1.1971 0 5.365249
v -1.264295 0 5.342577
v -1.136 0.07388305 4.933822
v -1.314626 0 5.198514
v -1.486945 0 5.070184
v -0.8342627 0.112503 5.087249
v -0.5738334 0.1487121 3.430313
v -0.3737316 0.236145 4.600727
v -1.363805 0 4.521389
v -1.300054 0 4.151855
v -1.489594 0 4.877468
v -1.123732 0 3.425286
v -1.493776 0.008926391 5.017045
v -1.519533 0 5.030337
v -0.1563587 0.3353576 4.776332
v -0.2005157 0.2938232 5.117109
v -1.099655 0.002441406 3.363353
v -1.118917 0 3.373257
v -1.108471 0 3.355551
v -1.103432 0 3.349633
v -1.094538 0 3.345019
v -0.8055797 0 2.986949
v -0.3598976 0.1514587 3.113977
v -0.7336685 0 2.875639
v -0.5794426 0 2.791814
v -0.3369792 0 2.740696
v -0.263677 0 2.71364
v -0.04643821 0.3691101 4.972852
v 0.1194706 0.3882293 4.707464
v -0.003608703 0.3140258 5.167707
v 0.05967521 0.3595733 5.065784
v -0.3207473 0.2489624 3.567096
v 0.09168815 0.3606567 4.109464
v -0.002126693 0.2946777 3.545629
v 0.08824348 0.149292 2.94335
v 0.2069551 0 2.653301
v 0.3753676 0 2.758274
v 0.4807205 0.1959839 3.10321
v 0.4650494 0 2.777237
v 0.7128335 0 2.915035
v 0.2438545 0.2560882 3.269517
v 0.3295936 0.315094 3.851762
v 0.6605377 0.3001251 4.280218
v 0.7645358 0.1519623 3.406726
v 0.7766849 0 3.010334
v 0.9923083 0 3.189572
v 1.013728 0 3.244565
v 0.9625853 0.1305237 3.802064
v 1.307287 0.1629486 4.427194
v 1.17835 0.003311157 3.560016
v 1.155402 2.328306E-10 3.501844
v 1.180568 0 3.553101
v 1.22041 9.313225E-10 3.604702
v 1.352495 0 3.789494
v 1.386499 0 3.837394
v 0.3685836 0.370224 4.58287
v 0.5084857 0.3370361 4.775609
v 1.234272 0.1927795 4.806217
v 1.694696 0.006057738 4.073694
v 1.601738 0 3.985691
v 1.694596 0 4.055297
v 1.707878 0 4.060194
v 1.757243 0 4.077724
v 1.892156 0.06423949 4.428594
v 2.093715 0 4.243649
v 2.310901 -3.72529E-09 4.330586
v 2.375498 0.04301452 4.534307
v 2.481399 0 4.323507
v 2.741446 2.328306E-10 4.451081
v 2.529688 0 4.883282
v 1.542682 0.1529846 4.809244
v 2.27091 0.06645202 4.806707
v 2.529186 0 4.894577
v 2.519405 0 4.900647
v 2.237127 0.02890014 4.967922
v 2.24585 7.45058E-09 5.008677
v 1.99339 0 5.090737
v 1.954811 0.01425171 5.081781
v 2.08609 0.07437133 4.893026
v 1.849766 0.1122131 4.908107
v 1.583658 0.08773803 5.111558
v 1.082039 0.189743 5.086877
v 0.8064841 0.2500152 5.016716
v 0.551712 0.2903595 5.088247
v 0.3045006 0.3491363 4.982194
v 0.193285 0.282669 5.223756
v 0.3703956 0.3022766 5.186166
v 1.26198 0.08050536 5.241613
v 0.7694815 0.1667175 5.261976
v 1.469181 0.0213623 5.248819
v 1.653917 0 5.201079
v 1.565225 0 5.23787
v 1.849872 -1.862645E-09 5.13535
v 1.954811 0.01425171 5.081781
v 1.958602 0 5.094572
v 1.99339 0 5.090737
v 0.551712 0.2903595 5.088247
v 0.4504642 0.2142639 5.291952
v 0.7694815 0.1667175 5.261976
v 0.8064841 0.2500152 5.016716
v 1.469181 0.0213623 5.248819
v 1.565225 0 5.23787
v 1.451474 0 5.262828
v 1.26198 0.08050536 5.241613
v 1.301744 0 5.281283
v 1.005739 0 5.348876
v 0.9867152 0.006118773 5.349515
v 0.9913657 0 5.351021
v 0.7694815 0.1667175 5.261976
v 0.979254 0 5.352082
v 0.6999931 0.04154968 5.3808
v 0.5802688 0.1243896 5.355314
v 0.4111614 0.02333069 5.405803
v 0.4504642 0.2142639 5.291952
v 0.712082 0 5.38945
v 0.3005562 0.187088 5.329607
v 0.4522223 0 5.408189
v 0.3970479 0 5.413423
v 0.1602459 0.1508942 5.341867
v 0.2639571 0 5.417669
v 0.0241699 0 5.417883
vt 0.9937022 0.4364921
vt 0.9933192 0.4367822
vt 0.9939798 0.4372628
vt 0.9945949 0.43876
vt 0.9943176 0.4382679
vt 0.9942828 0.4395532
vt 0.9944202 0.4376511
vt 0.9938841 0.437988
vt 0.9939798 0.4372628
vt 0.9944221 0.4370794
vt 0.9937022 0.4364921
vt 0.9940631 0.4361149
vt 0.9946618 0.4364922
vt 0.9946018 0.4362797
vt 0.9944748 0.4349428
vt 0.9943061 0.4342158
vt 0.9939693 0.4340009
vt 0.9934378 0.4357136
vt 0.9932073 0.434357
vt 0.9937296 0.4328434
vt 0.9942482 0.4323589
vt 0.9943321 0.432803
vt 0.9943715 0.4335179
vt 0.9943061 0.4342158
vt 0.9941655 0.4319017
vt 0.9938989 0.431783
vt 0.9940917 0.4316005
vt 0.993981 0.4313373
vt 0.9923896 0.4319836
vt 0.9933877 0.4311781
vt 0.9928216 0.430524
vt 0.9931009 0.4331547
vt 0.9865292 0.4347005
vt 0.9913033 0.4351651
vt 0.9906538 0.4311827
vt 0.9891884 0.4315493
vt 0.9920469 0.4305709
vt 0.9863223 0.4324749
vt 0.9926078 0.4305134
vt 0.9926521 0.4304049
vt 0.9920892 0.4359977
vt 0.9934378 0.4357136
vt 0.986081 0.4325904
vt 0.9861147 0.4325098
vt 0.9860467 0.432557
vt 0.9860244 0.4325791
vt 0.9860085 0.4326162
vt 0.9846553 0.4338843
vt 0.985322 0.4356549
vt 0.9842293 0.4342065
vt 0.983938 0.4348513
vt 0.9838039 0.4358408
vt 0.9837168 0.4361434
vt 0.9929164 0.4363846
vt 0.9919026 0.4371328
vt 0.9937022 0.4364921
vt 0.9933192 0.4367822
vt 0.9871698 0.4356883
vt 0.9894881 0.4371966
vt 0.9871849 0.4369804
vt 0.984768 0.4375064
vt 0.9836127 0.4380526
vt 0.9840837 0.438698
vt 0.9855332 0.4390412
vt 0.9841861 0.4390527
vt 0.9848124 0.4400072
vt 0.9861417 0.4380468
vt 0.9885153 0.4382243
vt 0.9903306 0.4394243
vt 0.986828 0.4400858
vt 0.9852139 0.4402353
vt 0.985997 0.4410482
vt 0.9862241 0.4411178
vt 0.9884703 0.440761
vt 0.9910876 0.4419632
vt 0.9875399 0.4416855
vt 0.987299 0.4416102
vt 0.9875122 0.4416961
vt 0.9877311 0.4418407
vt 0.9885121 0.4423163
vt 0.9887145 0.4424386
vt 0.9914723 0.438169
vt 0.9922818 0.4386697
vt 0.9925933 0.44156
vt 0.989755 0.4436072
vt 0.9893732 0.4432592
vt 0.9896801 0.4436115
vt 0.9897036 0.4436634
vt 0.9897885 0.4438566
vt 0.9912481 0.4443014
vt 0.9905537 0.445159
vt 0.9909666 0.4460058
vt 0.991811 0.4462095
vt 0.9909883 0.446693
vt 0.991577 0.4476998
vt 0.9932506 0.4467198
vt 0.9926893 0.4427938
vt 0.9928783 0.4457106
vt 0.9932957 0.4467144
vt 0.9933172 0.4466733
vt 0.9935095 0.4455223
vt 0.9936708 0.4455418
vt 0.9939263 0.4445028
vt 0.9938813 0.4443521
vt 0.993172 0.4449431
vt 0.9931696 0.4439934
vt 0.9939044 0.4428605
vt 0.9936753 0.4408641
vt 0.9933228 0.4397849
vt 0.9935421 0.4387445
vt 0.9930536 0.4377897
vt 0.9939798 0.4372628
vt 0.9938841 0.437988
vt 0.994331 0.4415281
vt 0.9942828 0.4395532
vt 0.9944108 0.4423517
vt 0.9942697 0.4431057
vt 0.9943914 0.4427384
vt 0.9940632 0.4439128
vt 0.9938813 0.4443521
vt 0.9939314 0.4443619
vt 0.9939263 0.4445028
vt 0.9935421 0.4387445
vt 0.9943176 0.4382679
vt 0.9942828 0.4395532
vt 0.9933228 0.4397849
vt 0.9115309 0.4012515
vt 0.9116611 0.4009457
vt 0.911408 0.4012754
vt 0.9113343 0.4018732
vt 0.9110942 0.4016774
vt 0.9104319 0.4025414
vt 0.9104143 0.402603
vt 0.9104012 0.4025809
vt 0.9106385 0.4033071
vt 0.9103764 0.4026124
vt 0.9099348 0.4034466
vt 0.9100091 0.4038721
vt 0.9092841 0.4041558
vt 0.9101381 0.404254
vt 0.9098105 0.4033396
vt 0.9097092 0.4046356
vt 0.9092838 0.4040075
vt 0.9091703 0.4041522
vt 0.9093034 0.4049164
vt 0.9089077 0.4044824
vt 0.9084447 0.4050607
vn -0.1338867 0.8303903 0.540857
vn -0.001709069 0.965197 0.2615182
vn -0.01232964 0.8291071 0.5589538
vn 0.1029398 0.5603858 0.8218096
vn 0.1187188 0.7308074 0.6721804
vn 0.1837235 0.7967253 0.5757382
vn 0.009247446 0.5999548 0.7999805
vn 0.1056573 0.9068154 0.4080715
vn -0.01232964 0.8291071 0.5589538
vn -0.08142542 0.5635384 0.8220671
vn -0.1338867 0.8303903 0.540857
vn -0.1351374 0.6591763 0.7397462
vn -0.1178326 0.5294988 0.8400872
vn -0.106328 0.5763196 0.8102778
vn -0.09122162 0.6653777 0.7409124
vn -0.03540254 0.7180307 0.6951106
vn -0.06427345 0.8126959 0.5791324
vn -0.2443701 0.8914456 0.381586
vn -0.2686619 0.9422243 0.200085
vn -0.1235406 0.9445299 0.3043041
vn -0.05050824 0.8848555 0.4631194
vn -0.0438562 0.8770019 0.4784812
vn 0.03442572 0.8063799 0.590395
vn -0.03540254 0.7180307 0.6951106
vn -0.05905422 0.8818458 0.4678254
vn -0.1541212 0.9471282 0.2814161
vn -0.1214987 0.8847342 0.4499817
vn -0.2321896 0.953662 0.191355
vn -0.1777103 0.9836171 0.03027453
vn -0.210309 0.9691429 0.1285781
vn -0.1543651 0.9709314 0.1829309
vn -0.2243744 0.9729706 0.0546287
vn -0.2750672 0.9544493 -0.1156057
vn -0.3159027 0.9476777 -0.04596169
vn -0.2278562 0.9724939 -0.0483424
vn -0.2434492 0.9688528 -0.04535107
vn -0.2034075 0.9766918 -0.06854513
vn -0.2492189 0.9666617 -0.05877977
vn -0.2417102 0.9691297 0.04861671
vn -0.2866323 0.9542303 0.085361
vn -0.2990588 0.9537287 -0.03106867
vn -0.2443701 0.8914456 0.381586
vn -0.200967 0.9734311 -0.109746
vn -0.1417896 0.9893839 -0.03186146
vn -0.1655066 0.97897 -0.1192697
vn -0.1063581 0.9835911 -0.1457274
vn -0.2030135 0.961598 -0.184702
vn -0.2601134 0.9482558 -0.1820763
vn -0.1789618 0.9485221 -0.2613014
vn -0.2323081 0.9437289 -0.2353905
vn -0.1344348 0.9288976 -0.3450749
vn -0.1158508 0.9178947 -0.3795365
vn -0.1195737 0.9061418 -0.4057205
vn -0.1912344 0.9750025 0.1131353
vn -0.03262471 0.9994636 0.002868777
vn -0.1338867 0.8303903 0.540857
vn -0.001709069 0.965197 0.2615182
vn -0.2382656 0.9679254 -0.07968636
vn -0.09027611 0.9935866 -0.06808858
vn -0.08520883 0.9883858 -0.1258295
vn -0.01907442 0.9209129 -0.3893013
vn 0.1035828 0.9009629 -0.4213507
vn 0.1507962 0.8705958 -0.4683198
vn 0.2326178 0.9150893 -0.3293943
vn 0.1750553 0.8400577 -0.5134771
vn 0.3798171 0.8340411 -0.4001431
vn 0.02932914 0.9784823 -0.2042358
vn 0.1239392 0.9864475 -0.1075198
vn 0.2116217 0.9735088 -0.08658363
vn 0.3584201 0.9142399 -0.1889458
vn 0.4082942 0.8564778 -0.3158191
vn 0.3506997 0.8992574 -0.2614301
vn 0.4132318 0.8943387 -0.1714576
vn 0.3209133 0.9315491 -0.1709707
vn 0.199869 0.9710235 -0.1310181
vn 0.3635485 0.901272 -0.2356717
vn 0.3415429 0.9210457 -0.1871451
vn 0.4597393 0.8493763 -0.259229
vn 0.3065027 0.9261308 -0.2198592
vn 0.3036644 0.9279616 -0.2160442
vn 0.26008 0.9391201 -0.2245258
vn 0.1268059 0.9918629 -0.0113225
vn 0.1762162 0.9824648 0.06091575
vn 0.1604703 0.9866576 0.02749787
vn 0.1508882 0.9520544 -0.2661296
vn 0.1690748 0.9548452 -0.2443039
vn 0.1880904 0.9325778 -0.3080922
vn 0.1127383 0.943016 -0.313067
vn 0.1084049 0.967526 -0.2283462
vn 0.1129517 0.9756999 -0.1877543
vn 0.09906398 0.9685136 -0.2284026
vn 0.05606281 0.9731491 -0.2232441
vn 0.1067243 0.9903961 -0.08789414
vn 0.0436723 0.9829473 -0.1786261
vn 0.1090753 0.9934582 -0.03381518
vn 0.2176041 0.9757392 0.02411041
vn 0.1333366 0.990243 0.04049843
vn 0.1229012 0.9900762 0.06814957
vn 0.2115292 0.9708797 0.1124636
vn 0.1619986 0.9484608 0.2723578
vn 0.1692564 0.8969734 0.4084004
vn 0.192792 0.8194193 0.5397992
vn 0.16206 0.8009611 0.576366
vn 0.1809789 0.8166636 0.548003
vn 0.1366965 0.9685648 0.2078374
vn 0.1504582 0.9689446 0.1962366
vn 0.184824 0.8928992 0.4105743
vn 0.1675194 0.9466112 0.2754349
vn 0.1839984 0.9597887 0.2120148
vn 0.2026782 0.9432884 0.2629232
vn 0.1113957 0.9822357 0.1510099
vn -0.01232964 0.8291071 0.5589538
vn 0.1056573 0.9068154 0.4080715
vn 0.1699298 0.7286106 0.6635136
vn 0.1837235 0.7967253 0.5757382
vn 0.1946847 0.6294977 0.7522171
vn 0.2175994 0.7769794 0.5907228
vn 0.2378683 0.758438 0.606787
vn 0.2044158 0.7694126 0.6051598
vn 0.1809789 0.8166636 0.548003
vn 0.1673355 0.6828008 0.7111834
vn 0.16206 0.8009611 0.576366
vn 0.2026782 0.9432884 0.2629232
vn 0.1187188 0.7308074 0.6721804
vn 0.1837235 0.7967253 0.5757382
vn 0.1839984 0.9597887 0.2120148
vn 0.1946847 0.6294977 0.7522171
vn 0.2378683 0.758438 0.606787
vn 0.1315375 0.4650811 0.8754413
vn 0.1699298 0.7286106 0.6635136
vn 0.1407255 0.4926766 0.8587584
vn 0.1864424 0.490903 0.8510308
vn 0.1353839 0.4602014 0.8774315
vn 0.1219549 0.3235649 0.9383138
vn 0.1837235 0.7967253 0.5757382
vn 0.123265 0.252237 0.9597824
vn 0.140543 0.4122902 0.900147
vn 0.1029398 0.5603858 0.8218096
vn 0.04446586 0.3650962 0.9299073
vn 0.1187188 0.7308074 0.6721804
vn 0.1075789 0.232523 0.9666229
vn 0.009247446 0.5999548 0.7999805
vn 0.07370407 0.2289862 0.9706353
vn 0.05035606 0.2823601 0.9579859
vn -0.08142542 0.5635384 0.8220671
vn 0.002349975 0.4414901 0.8972631
vn -0.1178326 0.5294988 0.8400872
g terrainMesh.039_0
f 3/3/3 2/2/2 1/1/1
f 6/6/6 5/5/5 4/4/4
f 5/5/5 8/8/8 7/7/7
f 8/8/8 9/9/9 7/7/7
f 7/7/7 9/9/9 10/10/10
f 11/11/11 10/10/10 9/9/9
f 12/12/12 10/10/10 11/11/11
f 10/10/10 12/12/12 13/13/13
f 12/12/12 14/14/14 13/13/13
f 12/12/12 15/15/15 14/14/14
f 16/16/16 15/15/15 12/12/12
f 17/17/17 16/16/16 12/12/12
f 18/18/18 12/12/12 11/11/11
f 18/18/18 17/17/17 12/12/12
f 18/18/18 19/19/19 17/17/17
f 19/19/19 20/20/20 17/17/17
f 20/20/20 21/21/21 17/17/17
f 21/21/21 22/22/22 17/17/17
f 23/23/23 17/17/17 22/22/22
f 24/24/24 17/17/17 23/23/23
f 25/25/25 21/21/21 20/20/20
f 26/26/26 25/25/25 20/20/20
f 25/25/25 26/26/26 27/27/27
f 26/26/26 28/28/28 27/27/27
f 26/26/26 20/20/20 29/29/29
f 29/29/29 30/30/30 26/26/26
f 30/30/30 28/28/28 26/26/26
f 31/31/31 30/30/30 29/29/29
f 32/32/32 20/20/20 19/19/19
f 20/20/20 32/32/32 29/29/29
f 32/32/32 33/33/33 29/29/29
f 32/32/32 34/34/34 33/33/33
f 32/32/32 19/19/19 34/34/34
f 29/29/29 33/33/33 35/35/35
f 33/33/33 36/36/36 35/35/35
f 29/29/29 35/35/35 37/37/37
f 38/38/38 36/36/36 33/33/33
f 39/39/39 31/31/31 29/29/29
f 39/39/39 29/29/29 37/37/37
f 31/31/31 39/39/39 40/40/40
f 39/39/39 37/37/37 40/40/40
f 41/41/41 34/34/34 19/19/19
f 19/19/19 42/42/42 41/41/41
f 43/43/43 38/38/38 33/33/33
f 44/44/44 38/38/38 43/43/43
f 45/45/45 44/44/44 43/43/43
f 46/46/46 45/45/45 43/43/43
f 46/46/46 43/43/43 47/47/47
f 48/48/48 47/47/47 43/43/43
f 33/33/33 48/48/48 43/43/43
f 48/48/48 33/33/33 49/49/49
f 50/50/50 48/48/48 49/49/49
f 50/50/50 49/49/49 51/51/51
f 52/52/52 51/51/51 49/49/49
f 53/53/53 52/52/52 49/49/49
f 54/54/54 41/41/41 42/42/42
f 41/41/41 54/54/54 55/55/55
f 54/54/54 42/42/42 56/56/56
f 57/57/57 54/54/54 56/56/56
f 54/54/54 57/57/57 55/55/55
f 58/58/58 49/49/49 33/33/33
f 58/58/58 33/33/33 34/34/34
f 41/41/41 59/59/59 34/34/34
f 59/59/59 41/41/41 55/55/55
f 58/58/58 34/34/34 60/60/60
f 60/60/60 34/34/34 59/59/59
f 58/58/58 60/60/60 49/49/49
f 61/61/61 53/53/53 49/49/49
f 61/61/61 62/62/62 53/53/53
f 62/62/62 61/61/61 63/63/63
f 63/63/63 61/61/61 64/64/64
f 65/65/65 63/63/63 64/64/64
f 65/65/65 64/64/64 66/66/66
f 61/61/61 49/49/49 67/67/67
f 60/60/60 67/67/67 49/49/49
f 64/64/64 61/61/61 67/67/67
f 59/59/59 68/68/68 60/60/60
f 68/68/68 67/67/67 60/60/60
f 55/55/55 68/68/68 59/59/59
f 67/67/67 68/68/68 64/64/64
f 64/64/64 68/68/68 69/69/69
f 66/66/66 64/64/64 70/70/70
f 70/70/70 64/64/64 69/69/69
f 71/71/71 66/66/66 70/70/70
f 70/70/70 72/72/72 71/71/71
f 73/73/73 72/72/72 70/70/70
f 74/74/74 73/73/73 70/70/70
f 74/74/74 70/70/70 69/69/69
f 75/75/75 74/74/74 69/69/69
f 73/73/73 74/74/74 76/76/76
f 77/77/77 73/73/73 76/76/76
f 76/76/76 78/78/78 77/77/77
f 79/79/79 78/78/78 76/76/76
f 80/80/80 79/79/79 76/76/76
f 74/74/74 80/80/80 76/76/76
f 80/80/80 74/74/74 75/75/75
f 81/81/81 80/80/80 75/75/75
f 68/68/68 82/82/82 69/69/69
f 82/82/82 68/68/68 55/55/55
f 83/83/83 69/69/69 82/82/82
f 82/82/82 55/55/55 83/83/83
f 75/75/75 69/69/69 84/84/84
f 84/84/84 69/69/69 83/83/83
f 81/81/81 75/75/75 85/85/85
f 86/86/86 81/81/81 85/85/85
f 85/85/85 87/87/87 86/86/86
f 87/87/87 85/85/85 88/88/88
f 88/88/88 85/85/85 89/89/89
f 85/85/85 90/90/90 89/89/89
f 90/90/90 85/85/85 75/75/75
f 90/90/90 91/91/91 89/89/89
f 92/92/92 91/91/91 90/90/90
f 93/93/93 92/92/92 90/90/90
f 92/92/92 93/93/93 94/94/94
f 94/94/94 93/93/93 95/95/95
f 93/93/93 96/96/96 95/95/95
f 90/90/90 75/75/75 97/97/97
f 97/97/97 75/75/75 84/84/84
f 93/93/93 90/90/90 97/97/97
f 96/96/96 93/93/93 98/98/98
f 99/99/99 96/96/96 98/98/98
f 100/100/100 99/99/99 98/98/98
f 101/101/101 100/100/100 98/98/98
f 102/102/102 100/100/100 101/101/101
f 103/103/103 102/102/102 101/101/101
f 104/104/104 103/103/103 101/101/101
f 105/105/105 101/101/101 98/98/98
f 98/98/98 93/93/93 105/105/105
f 104/104/104 101/101/101 105/105/105
f 105/105/105 93/93/93 106/106/106
f 104/104/104 105/105/105 106/106/106
f 97/97/97 106/106/106 93/93/93
f 107/107/107 104/104/104 106/106/106
f 106/106/106 97/97/97 107/107/107
f 97/97/97 84/84/84 108/108/108
f 97/97/97 108/108/108 107/107/107
f 108/108/108 84/84/84 109/109/109
f 83/83/83 109/109/109 84/84/84
f 109/109/109 83/83/83 110/110/110
f 111/111/111 110/110/110 83/83/83
f 55/55/55 111/111/111 83/83/83
f 111/111/111 55/55/55 57/57/57
f 112/112/112 111/111/111 57/57/57
f 113/113/113 111/111/111 112/112/112
f 113/113/113 110/110/110 111/111/111
f 114/114/114 107/107/107 108/108/108
f 115/115/115 114/114/114 108/108/108
f 116/116/116 107/107/107 114/114/114
f 107/107/107 116/116/116 117/117/117
f 116/116/116 118/118/118 117/117/117
f 107/107/107 117/117/117 119/119/119
f 120/120/120 107/107/107 119/119/119
f 119/119/119 121/121/121 120/120/120
f 122/122/122 120/120/120 121/121/121
f 113/113/113 124/124/124 123/123/123
f 125/125/125 110/110/110 124/124/124
f 126/126/126 125/125/125 108/108/108
f 110/110/110 125/125/125 126/126/126
f 129/129/129 128/128/128 127/127/127
f 127/127/127 130/130/130 129/129/129
f 130/130/130 131/131/131 129/129/129
f 132/132/132 131/131/131 130/130/130
f 133/133/133 132/132/132 130/130/130
f 132/132/132 133/133/133 134/134/134
f 133/133/133 130/130/130 135/135/135
f 133/133/133 136/136/136 134/134/134
f 137/137/137 133/133/133 135/135/135
f 133/133/133 137/137/137 136/136/136
f 138/138/138 137/137/137 135/135/135
f 139/139/139 137/137/137 138/138/138
f 138/138/138 140/140/140 139/139/139
f 137/137/137 141/141/141 136/136/136
f 137/137/137 139/139/139 141/141/141
f 139/139/139 140/140/140 142/142/142
f 139/139/139 143/143/143 141/141/141
f 144/144/144 143/143/143 139/139/139
f 139/139/139 142/142/142 145/145/145
f 144/144/144 139/139/139 146/146/146
f 146/146/146 139/139/139 145/145/145
f 147/147/147 146/146/146 145/145/145
