g terrainMesh.016
v -5 88.79727 -22.5319
v -5 89.93169 -24.36425
v -7.204059 90.09676 -20.70245
v -5.214375 127.7152 13.77116
v -5 127.7762 13.77741
v -5 127.5045 13.9875
v -5 125.0889 14.87462
v -8.515258 122.1321 15.84559
v -6.896896 124.4663 13.87378
v -5 124.4689 15.84626
v -5 122.5011 18.03334
v -6.162284 120.487 19.41296
v -5 120.4637 19.26677
v -5 117.5566 19.85991
v -6.162284 120.487 19.41296
v -5 121.1725 18.9393
v -5 122.5011 18.03334
v -5 92.6328 -30.83548
v -5 97.51584 -33.64294
v -13.05731 98.24529 -29.44947
v -5 109.449 -37.5442
v -5 111.2008 -38.27077
v -15 111.5893 -34.15287
v -15 109.8938 -33.44963
v -5 113.5826 -38.64866
v -9.158579 121.8265 -38.21848
v -15 112.0754 -34.23001
v -6.461419 102.8061 1.162449
v -8.530788 104.2546 1.128897
v -8.890163 106.3874 7.791818
v -5 102.1485 1.685523
v -5 102.6447 3.180861
v -5 104.2583 9.96607
v -5 115.7746 19.80923
v -5 113.8639 19.30569
v -5.776166 114.121 19.40809
v -5 111.1346 18.1939
v -5 88.79727 -22.5319
v -7.204059 90.09676 -20.70245
v -5 88.71014 -20.44515
v -5 89.28259 -17.99232
v -5 91.05601 -11.60902
v -13.08039 96.20534 -11.06804
v -5 91.54516 -9.696724
v -9.957026 95.898 -7.39751
v -5 91.6779 -9.417691
v -15 97.57432 -13.34465
v -15 97.28886 -15.81604
v -15 98.42233 -20.93602
v -13.05731 98.24529 -29.44947
v -5 92.6328 -30.83548
v -5 89.93169 -24.36425
v -5 110.2824 17.68731
v -5 107.7769 15.5617
v -6.112958 108.4143 15.77176
v -5 110.6142 17.92156
v -8.086349 112.0736 17.29831
v -10.05944 111.0662 14.18426
v -7.963193 107.7832 13.40849
v -9.059056 116.7969 17.49448
v -5.776166 114.121 19.40809
v -5 111.1346 18.1939
v -5 116.6086 19.79052
v -5 115.7746 19.80923
v -5 117.5566 19.85991
v -6.162284 120.487 19.41296
v -8.890163 106.3874 7.791818
v -5 104.6182 10.93035
v -5 104.2583 9.96607
v -9.655556 119.8826 16.31986
v -8.515258 122.1321 15.84559
v -11.62254 119.0542 12.97583
v -12.07497 114.589 12.11881
v -11.9613 113.5344 3.57699
v -11.94392 111.4178 7.742311
v -10.52445 107.3963 3.417722
v -8.530788 104.2546 1.128897
v -11.41861 104.8598 -2.574539
v -15 108.9943 -3.465129
v -15 106.7403 -5.225767
v -13.08902 102.2544 -5.351093
v -15 105.4562 -5.793633
v -15 100.0904 -10.96002
v -15 97.57432 -13.34465
v -13.08039 96.20534 -11.06804
v -9.957026 95.898 -7.39751
v -9.65668 101.021 -3.70216
v -6.461419 102.8061 1.162449
v -6.33167 99.8376 -1.923686
v -5 102.1485 1.685523
v -5 100.9228 0.3661558
v -5 99.13079 -0.9190323
v -5 97.17694 -3.072118
v -5 94.06801 -5.463058
v -5 91.6779 -9.417691
v -5 107.7769 15.5617
v -7.963193 107.7832 13.40849
v -6.112958 108.4143 15.77176
v -5 106.9268 14.19795
v -5 104.6182 10.93035
v -6.896896 124.4663 13.87378
v -5.214375 127.7152 13.77116
v -5 127.5045 13.9875
v -5 125.0889 14.87462
vt 0.3163112 0.5914783
vt 0.3106219 0.5942379
vt 0.3247698 0.6008224
vt 0.8699325 0.8563674
vt 0.8691392 0.8567296
vt 0.8694764 0.8574588
vt 0.9708147 0.7848759
vt 0.9581413 0.7928027
vt 0.9683238 0.7932679
vt 0.9680441 0.7822539
vt 0.9618211 0.7764693
vt 0.9546207 0.7763076
vt 0.7446192 0.4404195
vt 0.7503697 0.4505823
vt 0.748322 0.4390071
vt 0.7427903 0.4381528
vt 0.7386802 0.4342414
vt 0.2926282 0.5991635
vt 0.2788554 0.615007
vt 0.3109802 0.632368
vt 0.2514405 0.6560355
vt 0.2470915 0.6619382
vt 0.2855006 0.6807282
vt 0.28971 0.675015
vt 0.242465 0.6704404
vt 0.2427387 0.7071041
vt 0.2845563 0.6824635
vt 0.8653837 0.3728164
vt 0.8570861 0.3729785
vt 0.8565463 0.3999196
vt 0.8713178 0.3747226
vt 0.8715221 0.3807591
vt 0.8724303 0.4081349
vt 0.7529277 0.4572906
vt 0.7546219 0.4650024
vt 0.7567429 0.4631522
vt 0.7561257 0.4764715
vt 0.8045202 0.3215483
vt 0.7988207 0.3115163
vt 0.7962488 0.320038
vt 0.7865066 0.3182788
vt 0.7611447 0.3137073
vt 0.7646865 0.2813945
vt 0.7535481 0.3123368
vt 0.7478853 0.2911205
vt 0.7524378 0.3121383
vt 0.7750599 0.2754599
vt 0.7848674 0.2772394
vt 0.8051349 0.2809668
vt 0.8374925 0.2948199
vt 0.8373315 0.327641
vt 0.8117523 0.3228996
vt 0.560445 0.1205464
vt 0.5704933 0.1286649
vt 0.5712073 0.1250185
vt 0.559271 0.1194412
vt 0.5656185 0.1097218
vt 0.5810044 0.1091083
vt 0.5834132 0.1236141
vt 0.5612132 0.09077464
vt 0.5516592 0.1061682
vt 0.557745 0.1176465
vt 0.5458972 0.0979536
vt 0.5468335 0.1011218
vt 0.5445322 0.09440988
vt 0.5447761 0.0816027
vt 0.6055202 0.124151
vt 0.5896328 0.1376465
vt 0.5932614 0.1383897
vt 0.5625792 0.077608
vt 0.5592319 0.07019194
vt 0.5785017 0.07617723
vt 0.5875728 0.09197044
vt 0.6169389 0.09061757
vt 0.6056262 0.1013243
vt 0.622009 0.115514
vt 0.6294665 0.1283875
vt 0.6466631 0.1201676
vt 0.6516612 0.09954263
vt 0.6601981 0.1069433
vt 0.6622518 0.1261913
vt 0.6636186 0.111439
vt 0.6871744 0.1284304
vt 0.6980944 0.1364224
vt 0.6884347 0.1454263
vt 0.6705307 0.1527874
vt 0.651557 0.1361399
vt 0.6270478 0.1364365
vt 0.6405821 0.1458498
vt 0.6232463 0.1410585
vt 0.6290888 0.1448504
vt 0.635496 0.1508078
vt 0.6449748 0.1568204
vt 0.6566254 0.1670522
vt 0.6726007 0.1735593
vt 0.2381788 0.9558895
vt 0.2239804 0.9599305
vt 0.2361001 0.9599373
vt 0.2338228 0.9525027
vt 0.2233756 0.9443899
vt 0.9878473 0.8922837
vt 0.9770456 0.8982807
vt 0.9781715 0.8992572
vt 0.9878473 0.9000785
vn -0.6454018 -0.7145292 -0.2700085
vn -0.6058961 -0.7229064 -0.332109
vn -0.6162158 -0.7859949 -0.04989912
vn -0.3775902 0.4478771 0.8104516
vn -0.1934284 0.6000614 0.7762162
vn -0.459431 0.3642427 0.8100929
vn -0.524225 0.5438792 0.6552736
vn -0.5947041 0.5864028 0.5499625
vn -0.5162351 0.6153619 0.595677
vn -0.4724376 0.7105792 0.521421
vn -0.3849378 0.6623871 0.6427022
vn -0.3170649 0.3416634 0.8847237
vn 0.1247323 0.3107168 0.9422829
vn -0.4286737 -0.03228939 0.9028822
vn -0.3170649 0.3416634 0.8847237
vn 0.04028562 0.5208749 0.8526819
vn -0.3849378 0.6623871 0.6427022
vn -0.5458965 -0.6545447 -0.5230376
vn -0.4565643 -0.3560347 -0.8153456
vn -0.574896 -0.5594836 -0.5970532
vn -0.3862805 -0.3412953 -0.856916
vn -0.3771264 -0.2472975 -0.8925354
vn -0.3765214 -0.256579 -0.8901678
vn -0.367579 -0.3562868 -0.8590375
vn -0.3815555 -0.1448153 -0.9129315
vn -0.3815555 -0.1448153 -0.9129315
vn -0.3815555 -0.1448153 -0.9129315
vn -0.5107158 -0.7370191 0.4426876
vn -0.6202199 -0.6900488 0.3730414
vn -0.7077972 -0.6694348 0.2255661
vn -0.4943553 -0.7525199 0.4351169
vn -0.4928913 -0.830804 0.2585008
vn -0.568239 -0.7844379 0.2485188
vn -0.4266039 -0.01910531 0.9042367
vn 0.01519857 -0.3299738 0.9438678
vn -0.2970768 -0.2298119 0.9267857
vn -0.3439215 -0.4289787 0.8352816
vn -0.6454018 -0.7145292 -0.2700085
vn -0.6162158 -0.7859949 -0.04989912
vn -0.5375594 -0.8392081 0.08221785
vn -0.5583187 -0.8017705 0.2131768
vn -0.5196521 -0.8273477 0.2132078
vn -0.6806458 -0.6530256 0.3320826
vn -0.5145828 -0.8068034 0.2902978
vn -0.5516009 -0.6305842 0.5459855
vn -0.4953525 -0.7722812 0.3977531
vn -0.7288529 -0.6463298 0.2259011
vn -0.6792439 -0.7339045 -0.003479233
vn -0.7195711 -0.6780046 -0.1500912
vn -0.574896 -0.5594836 -0.5970532
vn -0.5458965 -0.6545447 -0.5230376
vn -0.6058961 -0.7229064 -0.332109
vn -0.3784988 -0.5430581 0.7495508
vn -0.3152041 -0.7443981 0.5886577
vn -0.4052998 -0.6532711 0.6395068
vn -0.3889093 -0.489013 0.7807789
vn -0.6085889 -0.364372 0.7048778
vn -0.794856 -0.4103684 0.446992
vn -0.6025715 -0.6656548 0.4402398
vn -0.7181211 -0.03598236 0.6949874
vn -0.2970768 -0.2298119 0.9267857
vn -0.3439215 -0.4289787 0.8352816
vn -0.4929706 -0.0212411 0.8697866
vn -0.4266039 -0.01910531 0.9042367
vn -0.4286737 -0.03228939 0.9028822
vn -0.3170649 0.3416634 0.8847237
vn -0.7077972 -0.6694348 0.2255661
vn -0.5340049 -0.7712353 0.3464607
vn -0.568239 -0.7844379 0.2485188
vn -0.7850728 0.2826677 0.551144
vn -0.5947041 0.5864028 0.5499625
vn -0.9288283 0.104529 0.3554597
vn -0.962923 -0.09796783 0.2513592
vn -0.9749421 -0.1970638 0.1032166
vn -0.9549192 -0.285783 0.08035739
vn -0.8726023 -0.4504315 0.1888828
vn -0.6202199 -0.6900488 0.3730414
vn -0.6956586 -0.4476277 0.5618617
vn -0.6716745 -0.4560538 0.5838392
vn -0.671079 -0.3834083 0.6345479
vn -0.6720305 -0.4251005 0.6063534
vn -0.7114773 -0.3396242 0.6151873
vn -0.8030475 -0.4105116 0.4319665
vn -0.7288529 -0.6463298 0.2259011
vn -0.6806458 -0.6530256 0.3320826
vn -0.5516009 -0.6305842 0.5459855
vn -0.5562096 -0.5078979 0.657777
vn -0.5107158 -0.7370191 0.4426876
vn -0.5686437 -0.5506066 0.6111273
vn -0.4943553 -0.7525199 0.4351169
vn -0.5387065 -0.5958092 0.5956566
vn -0.6757939 -0.4877326 0.5526477
vn -0.5106842 -0.5432487 0.6663951
vn -0.4720679 -0.6547241 0.590329
vn -0.4953525 -0.7722812 0.3977531
vn -0.3152041 -0.7443981 0.5886577
vn -0.6025715 -0.6656548 0.4402398
vn -0.4052998 -0.6532711 0.6395068
vn -0.3617712 -0.7771642 0.5149152
vn -0.5340049 -0.7712353 0.3464607
vn -0.5162351 0.6153619 0.595677
vn -0.3775902 0.4478771 0.8104516
vn -0.459431 0.3642427 0.8100929
vn -0.524225 0.5438792 0.6552736
g terrainMesh.016_0
f 3/3/3 2/2/2 1/1/1
f 6/6/6 5/5/5 4/4/4
f 9/9/9 8/8/8 7/7/7
f 8/8/8 10/10/10 7/7/7
f 11/11/11 10/10/10 8/8/8
f 12/12/12 11/11/11 8/8/8
f 15/15/15 14/14/14 13/13/13
f 15/15/15 13/13/13 16/16/16
f 15/15/15 16/16/16 17/17/17
f 20/20/20 19/19/19 18/18/18
f 19/19/19 20/20/20 21/21/21
f 22/22/22 21/21/21 20/20/20
f 20/20/20 23/23/23 22/22/22
f 20/20/20 24/24/24 23/23/23
f 25/25/25 22/22/22 23/23/23
f 23/23/23 26/26/26 25/25/25
f 23/23/23 27/27/27 26/26/26
f 30/30/30 29/29/29 28/28/28
f 28/28/28 31/31/31 30/30/30
f 31/31/31 32/32/32 30/30/30
f 33/33/33 30/30/30 32/32/32
f 36/36/36 35/35/35 34/34/34
f 35/35/35 36/36/36 37/37/37
f 40/40/40 39/39/39 38/38/38
f 39/39/39 40/40/40 41/41/41
f 42/42/42 39/39/39 41/41/41
f 39/39/39 42/42/42 43/43/43
f 42/42/42 44/44/44 43/43/43
f 43/43/43 44/44/44 45/45/45
f 44/44/44 46/46/46 45/45/45
f 43/43/43 47/47/47 39/39/39
f 47/47/47 48/48/48 39/39/39
f 48/48/48 49/49/49 39/39/39
f 49/49/49 50/50/50 39/39/39
f 50/50/50 51/51/51 39/39/39
f 51/51/51 52/52/52 39/39/39
f 55/55/55 54/54/54 53/53/53
f 53/53/53 56/56/56 55/55/55
f 56/56/56 57/57/57 55/55/55
f 57/57/57 58/58/58 55/55/55
f 58/58/58 59/59/59 55/55/55
f 57/57/57 60/60/60 58/58/58
f 61/61/61 60/60/60 57/57/57
f 57/57/57 56/56/56 61/61/61
f 56/56/56 62/62/62 61/61/61
f 60/60/60 61/61/61 63/63/63
f 61/61/61 64/64/64 63/63/63
f 60/60/60 63/63/63 65/65/65
f 66/66/66 60/60/60 65/65/65
f 59/59/59 58/58/58 67/67/67
f 68/68/68 59/59/59 67/67/67
f 69/69/69 68/68/68 67/67/67
f 70/70/70 60/60/60 66/66/66
f 66/66/66 71/71/71 70/70/70
f 70/70/70 71/71/71 72/72/72
f 60/60/60 70/70/70 72/72/72
f 73/73/73 60/60/60 72/72/72
f 60/60/60 73/73/73 58/58/58
f 74/74/74 73/73/73 72/72/72
f 58/58/58 73/73/73 75/75/75
f 58/58/58 75/75/75 67/67/67
f 73/73/73 74/74/74 75/75/75
f 75/75/75 76/76/76 67/67/67
f 76/76/76 75/75/75 74/74/74
f 77/77/77 67/67/67 76/76/76
f 76/76/76 74/74/74 78/78/78
f 78/78/78 77/77/77 76/76/76
f 74/74/74 79/79/79 78/78/78
f 79/79/79 80/80/80 78/78/78
f 78/78/78 80/80/80 81/81/81
f 80/80/80 82/82/82 81/81/81
f 81/81/81 82/82/82 83/83/83
f 81/81/81 83/83/83 84/84/84
f 85/85/85 81/81/81 84/84/84
f 86/86/86 81/81/81 85/85/85
f 78/78/78 87/87/87 77/77/77
f 78/78/78 81/81/81 87/87/87
f 81/81/81 86/86/86 87/87/87
f 77/77/77 87/87/87 88/88/88
f 89/89/89 88/88/88 87/87/87
f 89/89/89 87/87/87 86/86/86
f 88/88/88 89/89/89 90/90/90
f 89/89/89 91/91/91 90/90/90
f 89/89/89 92/92/92 91/91/91
f 89/89/89 93/93/93 92/92/92
f 93/93/93 89/89/89 86/86/86
f 94/94/94 93/93/93 86/86/86
f 86/86/86 95/95/95 94/94/94
f 98/98/98 97/97/97 96/96/96
f 97/97/97 99/99/99 96/96/96
f 100/100/100 99/99/99 97/97/97
f 103/103/103 102/102/102 101/101/101
f 104/104/104 103/103/103 101/101/101
