g terrainMesh.067
v -15 10.88322 20.32635
v -15 12.26016 20.09567
v -14.48585 11.97839 19.91393
v -15 13.43795 20.00749
v -14.48585 11.97839 19.91393
v -15 13.43795 20.00749
v -15 14.02197 20.03799
v -12.58817 12.10222 19.8564
v -12.54722 13.97406 19.77569
v -15 14.22077 20.02989
v -13.06018 16.41623 19.72057
v -15 14.52783 20.01598
v -15 16.84016 20.0278
v -15 17.36501 20.06129
v -13.4673 18.39956 19.90593
v -15 18.87496 20.79506
v -14.92944 19.10397 20.87605
v -15 19.03854 20.94368
v -14.75752 20 21.3095
v -15 20 21.72451
v -13.92541 20 20.59392
v -13.44419 20 20.33916
v -12.25447 19.84935 19.46463
v -12.55886 20 19.71986
v -12.15318 20 19.43103
v -12.06516 20 19.36103
v -11.77391 20 19.14731
v -10.18461 17.80716 17.82118
v -9.412112 20 17.51167
v -11.87947 18.09598 19.01597
v -8.794543 19.27691 17.03934
v -8.945335 20 17.20431
v -7.822064 20 16.50408
v -6.699064 20 15.87319
v -7.561338 18.38998 16.33294
v -9.592444 13.79083 17.92386
v -6.255452 18.52585 15.35123
v -6.10116 20 15.416
v -5.186897 18.58223 14.16162
v -5.575555 20 14.82637
v -5 20 14.27627
v -5 19.87837 14.25111
v -5 18.90794 14.08166
v -5 18.66945 14.04537
v -5 18.53926 14.02677
v -5.045486 17.00216 13.99963
v -5 17.03726 13.96857
v -5 16.93565 13.97861
v -5.01423 15.02739 14.36103
v -5 15.02495 14.35087
v -5 15.01158 14.34982
v -5 14.97374 14.34559
v -5 12.04491 14.21609
v -6.60864 16.7193 15.61954
v -8.300247 14.84778 16.9976
v -5.991128 14.27684 15.23238
v -5.927258 12.1515 15.07191
v -6.530168 10.90257 14.85293
v -5 11.59184 13.94957
v -5 10.61112 13.45276
v -7.23055 12.80331 15.89508
v -5.364995 9.999999 13.44195
v -5 9.999999 13.17018
v -5.5483 9.999999 13.59199
v -6.769817 9.999999 14.69346
v -7.907094 9.999999 15.7218
v -7.967798 9.999999 15.77022
v -8.615286 12.15137 16.80381
v -7.994321 9.999999 15.79072
v -10.32718 10.9418 18.18533
v -8.094428 9.999999 15.88549
v -10.42594 9.999999 18.01228
v -10.57428 9.999999 18.10208
v -9.920395 12.08484 18.07488
v -11.53128 11.71135 19.10449
v -11.77125 9.999999 19.07979
v -12.03895 9.999999 19.25949
v -13.49026 10.59614 19.91519
v -12.72297 9.999999 19.51631
v -13.62853 9.999999 19.91452
v -14.05211 9.999999 19.91361
v -15 9.999999 20.43213
v -15 10.88322 20.32635
vt 0.1599827 0.2835326
vt 0.1593134 0.2780479
vt 0.1572707 0.2791573
vt 0.1590241 0.273331
vt 0.1572707 0.2791573
vt 0.1590241 0.273331
vt 0.1590731 0.2709749
vt 0.1512621 0.2784282
vt 0.15083 0.2709127
vt 0.1590418 0.2701771
vt 0.1521434 0.2611685
vt 0.1589899 0.2689452
vt 0.1589015 0.2596417
vt 0.1589614 0.2575228
vt 0.1537778 0.2532003
vt 0.1607869 0.2512784
vt 0.1607676 0.2503293
vt 0.161164 0.2505858
vt 0.1613155 0.246602
vt 0.1631399 0.2465365
vt 0.1568929 0.2466616
vt 0.1547478 0.2466589
vt 0.1488177 0.2473154
vt 0.1504108 0.2466892
vt 0.1484103 0.2467043
vt 0.1479573 0.2467092
vt 0.1465046 0.2467215
vt 0.1382757 0.255646
vt 0.1349773 0.2467984
vt 0.1465875 0.2544242
vt 0.1318846 0.2497374
vt 0.1327404 0.2468099
vt 0.1274595 0.2468284
vt 0.1223593 0.2468307
vt 0.1262943 0.2533106
vt 0.1369225 0.2717006
vt 0.1197131 0.2528247
vt 0.1193293 0.2468602
vt 0.1133286 0.2527374
vt 0.1161787 0.2469299
vt 0.1129766 0.246984
vt 0.1129176 0.2474791
vt 0.112528 0.2514219
vt 0.1124462 0.2523896
vt 0.1124046 0.2529176
vt 0.1125537 0.2591124
vt 0.112331 0.2589726
vt 0.1123623 0.259379
vt 0.1134964 0.2669673
vt 0.1134263 0.2669776
vt 0.1134243 0.2670317
vt 0.1134152 0.2671848
vt 0.1132301 0.2789956
vt 0.1215914 0.260074
vt 0.1304798 0.2674986
vt 0.1188083 0.269909
vt 0.1183045 0.2784868
vt 0.1196604 0.2836391
vt 0.1125621 0.28088
vt 0.111324 0.2849405
vt 0.124426 0.2758411
vt 0.1124531 0.2874482
vt 0.1106224 0.2874645
vt 0.1134077 0.2874368
vt 0.1200324 0.2873375
vt 0.1262075 0.2872443
vt 0.1265204 0.2872409
vt 0.1310877 0.2784301
vt 0.1266554 0.2872396
vt 0.1400136 0.2831939
vt 0.1272099 0.2872303
vt 0.1399178 0.2870351
vt 0.1406083 0.2870333
vt 0.1384135 0.2785696
vt 0.146072 0.2800395
vt 0.1468362 0.2869597
vt 0.148128 0.2869523
vt 0.1542744 0.2845886
vt 0.1509039 0.2869805
vt 0.1547299 0.2870044
vt 0.156034 0.2870592
vt 0.1603026 0.2870605
vt 0.1599827 0.2835326
vn 0.4665834 0.111366 0.8774381
vn 0.3795413 0.09931067 0.9198292
vn 0.2165955 0.04651142 0.9751529
vn 0.07236141 -0.03836284 0.9966404
vn 0.2165955 0.04651142 0.9751529
vn 0.07236141 -0.03836284 0.9966404
vn 0.0861562 0.0140084 0.9961831
vn 0.3372308 -0.02780247 0.9410114
vn 0.3485565 0.0584132 0.9354658
vn 0.1072445 0.04284897 0.9933089
vn 0.3385201 0.02581933 0.9406049
vn 0.1197549 0.03219711 0.9922813
vn 0.1481688 -0.03805696 0.9882296
vn 0.2203162 -0.1825033 0.9582032
vn 0.4115816 -0.1698697 0.895402
vn 0.4337682 -0.4162502 0.7991126
vn 0.6406235 -0.3868279 0.6632991
vn 0.7995799 -0.3917481 0.4551981
vn 0.7147866 -0.410878 0.5659147
vn 0.7989898 -0.3791081 0.4667895
vn 0.4915418 -0.2924958 0.8202639
vn 0.503201 -0.2325565 0.8322898
vn 0.5537133 -0.1680703 0.8155698
vn 0.5597006 -0.2218171 0.7984562
vn 0.5933491 -0.2266641 0.7723731
vn 0.5861794 -0.1960239 0.7861097
vn 0.5687196 -0.09265538 0.8172961
vn 0.5314878 0.004486288 0.847054
vn 0.5557544 -0.07895313 0.8275889
vn 0.5375864 -0.066195 0.8406063
vn 0.5181811 -0.04525959 0.8540725
vn 0.5397703 -0.0786491 0.8381303
vn 0.4969085 -0.02618521 0.8674078
vn 0.5686345 -0.07049944 0.8195637
vn 0.5448235 -0.004699912 0.8385375
vn 0.5848417 -0.002838297 0.8111425
vn 0.6770761 -0.05908584 0.7335373
vn 0.6784161 -0.102942 0.7274302
vn 0.6638876 -0.07284971 0.7442756
vn 0.7224202 -0.1211307 0.6807615
vn 0.6833436 -0.1478935 0.7149609
vn 0.6780789 -0.1474695 0.720043
vn 0.5810025 -0.1363923 0.8023922
vn 0.5644243 -0.1211617 0.8165445
vn 0.5734826 -0.06772166 0.8164138
vn 0.635644 0.05713105 0.7698654
vn 0.561529 0.004333774 0.8274457
vn 0.5752528 0.1387089 0.806129
vn 0.6375489 0.04910561 0.7688432
vn 0.5846923 0.03824091 0.8103534
vn 0.5560036 -0.085485 0.8267722
vn 0.6645209 -0.03842343 0.7462813
vn 0.6399605 -0.2544705 0.7250485
vn 0.6505986 0.02526952 0.7590013
vn 0.5754613 -0.00894199 0.8177801
vn 0.6261506 -0.02429282 0.7793236
vn 0.558444 -0.224989 0.7984486
vn 0.5890265 -0.3054697 0.7481551
vn 0.5918661 -0.3879038 0.7065587
vn 0.5834606 -0.361344 0.7273268
vn 0.5582508 -0.153052 0.8154331
vn 0.5788606 -0.3586635 0.732312
vn 0.5599392 -0.3477379 0.7520282
vn 0.5987027 -0.353081 0.7189498
vn 0.6403179 -0.2953012 0.709077
vn 0.6171599 -0.2121392 0.757701
vn 0.6052592 -0.1935535 0.7721388
vn 0.6446683 -0.1426798 0.7510296
vn 0.6289089 -0.1751802 0.7574863
vn 0.59501 -0.1748162 0.7844757
vn 0.6787163 -0.1476824 0.7193984
vn 0.5872278 -0.2054275 0.7829195
vn 0.543671 -0.1765848 0.8205118
vn 0.6274012 -0.09933802 0.772334
vn 0.5597217 -0.06695907 0.825971
vn 0.5904936 -0.09436667 0.8015063
vn 0.4766108 -0.1226547 0.8705159
vn 0.1745665 -0.06039636 0.9827912
vn 0.3570782 -0.1565345 0.9208649
vn 0.1754248 -0.04178089 0.9836059
vn 0.2137878 0.04669455 0.9757636
vn 0.4772901 0.1044673 0.872514
vn 0.4665834 0.111366 0.8774381
g terrainMesh.067_0
f 3/3/3 2/2/2 1/1/1
f 4/4/4 2/2/2 3/3/3
f 7/7/7 6/6/6 5/5/5
f 8/8/8 7/7/7 5/5/5
f 8/8/8 9/9/9 7/7/7
f 9/9/9 10/10/10 7/7/7
f 9/9/9 11/11/11 10/10/10
f 11/11/11 12/12/12 10/10/10
f 13/13/13 12/12/12 11/11/11
f 14/14/14 13/13/13 11/11/11
f 15/15/15 14/14/14 11/11/11
f 16/16/16 14/14/14 15/15/15
f 17/17/17 16/16/16 15/15/15
f 16/16/16 17/17/17 18/18/18
f 17/17/17 19/19/19 18/18/18
f 19/19/19 20/20/20 18/18/18
f 21/21/21 19/19/19 17/17/17
f 21/21/21 17/17/17 15/15/15
f 22/22/22 21/21/21 15/15/15
f 15/15/15 23/23/23 22/22/22
f 23/23/23 24/24/24 22/22/22
f 24/24/24 23/23/23 25/25/25
f 23/23/23 26/26/26 25/25/25
f 27/27/27 26/26/26 23/23/23
f 23/23/23 28/28/28 27/27/27
f 28/28/28 29/29/29 27/27/27
f 23/23/23 15/15/15 30/30/30
f 28/28/28 23/23/23 30/30/30
f 15/15/15 11/11/11 30/30/30
f 30/30/30 11/11/11 28/28/28
f 28/28/28 31/31/31 29/29/29
f 31/31/31 32/32/32 29/29/29
f 33/33/33 32/32/32 31/31/31
f 34/34/34 33/33/33 31/31/31
f 35/35/35 34/34/34 31/31/31
f 31/31/31 28/28/28 35/35/35
f 36/36/36 28/28/28 11/11/11
f 11/11/11 9/9/9 36/36/36
f 34/34/34 35/35/35 37/37/37
f 38/38/38 34/34/34 37/37/37
f 37/37/37 39/39/39 38/38/38
f 39/39/39 40/40/40 38/38/38
f 41/41/41 40/40/40 39/39/39
f 42/42/42 41/41/41 39/39/39
f 42/42/42 39/39/39 43/43/43
f 43/43/43 39/39/39 44/44/44
f 45/45/45 44/44/44 39/39/39
f 39/39/39 46/46/46 45/45/45
f 46/46/46 39/39/39 37/37/37
f 46/46/46 47/47/47 45/45/45
f 46/46/46 48/48/48 47/47/47
f 46/46/46 49/49/49 48/48/48
f 49/49/49 50/50/50 48/48/48
f 49/49/49 51/51/51 50/50/50
f 52/52/52 51/51/51 49/49/49
f 53/53/53 52/52/52 49/49/49
f 54/54/54 46/46/46 37/37/37
f 46/46/46 54/54/54 49/49/49
f 37/37/37 35/35/35 54/54/54
f 35/35/35 55/55/55 54/54/54
f 35/35/35 28/28/28 55/55/55
f 55/55/55 28/28/28 36/36/36
f 49/49/49 54/54/54 56/56/56
f 56/56/56 54/54/54 55/55/55
f 57/57/57 53/53/53 49/49/49
f 56/56/56 57/57/57 49/49/49
f 57/57/57 58/58/58 53/53/53
f 58/58/58 59/59/59 53/53/53
f 60/60/60 59/59/59 58/58/58
f 56/56/56 61/61/61 57/57/57
f 56/56/56 55/55/55 61/61/61
f 57/57/57 61/61/61 58/58/58
f 58/58/58 62/62/62 60/60/60
f 63/63/63 60/60/60 62/62/62
f 58/58/58 64/64/64 62/62/62
f 65/65/65 64/64/64 58/58/58
f 66/66/66 65/65/65 58/58/58
f 58/58/58 61/61/61 66/66/66
f 61/61/61 67/67/67 66/66/66
f 55/55/55 68/68/68 61/61/61
f 67/67/67 61/61/61 68/68/68
f 69/69/69 67/67/67 68/68/68
f 36/36/36 68/68/68 55/55/55
f 69/69/69 68/68/68 70/70/70
f 71/71/71 69/69/69 70/70/70
f 70/70/70 72/72/72 71/71/71
f 73/73/73 72/72/72 70/70/70
f 36/36/36 74/74/74 68/68/68
f 70/70/70 68/68/68 74/74/74
f 75/75/75 73/73/73 70/70/70
f 70/70/70 74/74/74 75/75/75
f 36/36/36 75/75/75 74/74/74
f 75/75/75 36/36/36 9/9/9
f 75/75/75 76/76/76 73/73/73
f 8/8/8 75/75/75 9/9/9
f 75/75/75 8/8/8 76/76/76
f 8/8/8 77/77/77 76/76/76
f 8/8/8 78/78/78 77/77/77
f 78/78/78 79/79/79 77/77/77
f 80/80/80 79/79/79 78/78/78
f 8/8/8 5/5/5 78/78/78
f 80/80/80 78/78/78 5/5/5
f 81/81/81 80/80/80 5/5/5
f 82/82/82 81/81/81 5/5/5
f 83/83/83 82/82/82 5/5/5
