g terrainMesh.057
v -24.38438 -9.999999 31.70792
v -23.55051 -9.045302 29.56708
v -23.66403 -9.999999 29.02092
v -22.53487 -9.999999 27.93618
v -16.33153 -9.999999 20.78221
v -17.3949 -9.999999 22.04952
v -15.93292 -9.184295 20.94817
v -15.85095 -9.999999 20.46607
v -15 -9.452297 20.5186
v -15 -9.999999 20.21138
v -15 -8.55623 20.78976
v -15 -6.936256 22.90804
v -15.93015 -6.818816 24.03837
v -15 -6.440662 23.55798
v -15 -5.453424 24.85274
v -18.37826 -9.007567 26.46231
v -16.23322 -5.909835 25.88922
v -15.92428 -4.453674 27.13408
v -19.81643 -6.676864 31.18367
v -15 -5.033787 25.50866
v -15 -4.570358 26.01088
v -15 -2.270421 24.47684
v -15 0 24.17698
v -17.11018 1.192093E-07 29.5853
v -17.99001 0 30.61995
v -19.37561 0 32.47236
v -24.94759 -4.958709 38.52678
v -24.11036 0 37.92035
v -25 -4.90733 38.59904
v -25 0 39.06434
v -25 -5.01248 38.53397
v -25 -6.287516 37.46242
v -25 -9.999999 34.32071
v -24.02522 -9.999999 33.20194
v -19.81643 -6.676864 31.18367
v -24.38438 -9.999999 31.70792
v -24.02522 -9.999999 33.20194
v -23.55051 -9.045302 29.56708
v -22.53487 -9.999999 27.93618
v -21.1264 -9.999999 27.38904
v -19.96384 -9.999999 26.37295
v -18.37826 -9.007567 26.46231
v -18.96353 -9.999999 25.31479
v -17.9382 -9.999999 23.18109
v -17.3949 -9.999999 22.04952
v -15.93292 -9.184295 20.94817
vt 0.2195254 0.3660873
vt 0.2113511 0.3626387
vt 0.2103337 0.3666207
vt 0.2040373 0.366728
vt 0.1663474 0.3675959
vt 0.1729145 0.3674376
vt 0.1655064 0.3642249
vt 0.1640451 0.3676077
vt 0.1615286 0.3652828
vt 0.1607599 0.3675574
vt 0.1621858 0.3616154
vt 0.167597 0.3546058
vt 0.1733918 0.3539898
vt 0.1692574 0.3524609
vt 0.172565 0.3481883
vt 0.1873428 0.3625441
vt 0.1790807 0.3499414
vt 0.1812819 0.3437544
vt 0.2039054 0.3522545
vt 0.1742448 0.3463475
vt 0.1755237 0.3443665
vt 0.1714261 0.3354729
vt 0.1705313 0.3264105
vt 0.1910685 0.3254221
vt 0.196466 0.3252943
vt 0.2055447 0.3250412
vt 0.2386904 0.3442934
vt 0.2342798 0.3243815
vt 0.2390369 0.3440767
vt 0.2399911 0.3242296
vt 0.2388735 0.3445147
vt 0.2361597 0.349893
vt 0.2282015 0.3655578
vt 0.222293 0.3656929
vt 0.3252534 0.5518671
vt 0.3417277 0.5431953
vt 0.3381749 0.5381221
vt 0.3417277 0.5524448
vt 0.3403612 0.5600737
vt 0.3358874 0.5642062
vt 0.333028 0.5697343
vt 0.3269147 0.5717287
vt 0.3308393 0.5751806
vt 0.3301448 0.584698
vt 0.3297782 0.5897446
vt 0.3258929 0.5960247
vn 0.6482269 -0.756692 -0.08496533
vn 0.6615465 -0.6750363 0.3266225
vn 0.764722 -0.3860691 0.5158982
vn 0.3070857 -0.7254754 0.6159415
vn 0.6110555 -0.4333727 0.6624193
vn 0.6428517 -0.6824347 0.3478858
vn 0.5465665 -0.5292622 0.6489581
vn 0.3566488 -0.448512 0.8195356
vn 0.2858404 -0.4004085 0.8706138
vn 0.2525766 -0.4733523 0.8438855
vn 0.4833298 -0.5451308 0.6849996
vn 0.5375667 -0.6699899 0.5119916
vn 0.6756898 -0.5916405 0.4397782
vn 0.536929 -0.6708483 0.5115367
vn 0.5933987 -0.6701562 0.4458349
vn 0.6350729 -0.642489 0.4288245
vn 0.7202621 -0.5526791 0.4192475
vn 0.8199009 -0.2114072 0.5320429
vn 0.6978511 -0.4824469 0.5293854
vn 0.5995867 -0.6292517 0.4945079
vn 0.7533105 -0.1639197 0.6369094
vn 0.9130112 0.09601329 0.3964744
vn 0.9305325 0.04794578 0.3630572
vn 0.8247554 -0.08783475 0.5586265
vn 0.7690154 -0.1580574 0.6193812
vn 0.7845583 -0.1456989 0.6026941
vn 0.695987 -0.3050074 0.6500558
vn 0.7691419 -0.05194347 0.6369637
vn 0.7468986 -0.149453 0.6479245
vn 0.7880595 -0.05810802 0.6128504
vn 0.5900966 -0.4891377 0.6422851
vn 0.6583675 -0.4862068 0.5745914
vn 0.6589724 -0.4858976 0.5741593
vn 0.6777172 -0.6528438 0.3383703
vn 0.6978511 -0.4824469 0.5293854
vn 0.6482269 -0.756692 -0.08496533
vn 0.6777172 -0.6528438 0.3383703
vn 0.6615465 -0.6750363 0.3266225
vn 0.3070857 -0.7254754 0.6159415
vn 0.346819 -0.7616957 0.547299
vn 0.4454008 -0.754929 0.4813527
vn 0.6350729 -0.642489 0.4288245
vn 0.5659168 -0.7441487 0.3549378
vn 0.6274783 -0.7179683 0.3013178
vn 0.6428517 -0.6824347 0.3478858
vn 0.5465665 -0.5292622 0.6489581
g terrainMesh.057_0
f 3/3/3 2/2/2 1/1/1
f 2/2/2 3/3/3 4/4/4
f 7/7/7 6/6/6 5/5/5
f 5/5/5 8/8/8 7/7/7
f 7/7/7 8/8/8 9/9/9
f 8/8/8 10/10/10 9/9/9
f 9/9/9 11/11/11 7/7/7
f 11/11/11 12/12/12 7/7/7
f 12/12/12 13/13/13 7/7/7
f 13/13/13 12/12/12 14/14/14
f 13/13/13 14/14/14 15/15/15
f 13/13/13 16/16/16 7/7/7
f 13/13/13 15/15/15 17/17/17
f 16/16/16 13/13/13 17/17/17
f 18/18/18 16/16/16 17/17/17
f 16/16/16 18/18/18 19/19/19
f 15/15/15 20/20/20 17/17/17
f 17/17/17 20/20/20 18/18/18
f 20/20/20 21/21/21 18/18/18
f 18/18/18 21/21/21 22/22/22
f 18/18/18 22/22/22 23/23/23
f 24/24/24 18/18/18 23/23/23
f 18/18/18 24/24/24 19/19/19
f 24/24/24 25/25/25 19/19/19
f 25/25/25 26/26/26 19/19/19
f 26/26/26 27/27/27 19/19/19
f 27/27/27 26/26/26 28/28/28
f 29/29/29 27/27/27 28/28/28
f 30/30/30 29/29/29 28/28/28
f 29/29/29 31/31/31 27/27/27
f 27/27/27 31/31/31 32/32/32
f 19/19/19 27/27/27 32/32/32
f 19/19/19 32/32/32 33/33/33
f 33/33/33 34/34/34 19/19/19
f 37/37/37 36/36/36 35/35/35
f 36/36/36 38/38/38 35/35/35
f 38/38/38 39/39/39 35/35/35
f 39/39/39 40/40/40 35/35/35
f 35/35/35 40/40/40 41/41/41
f 42/42/42 35/35/35 41/41/41
f 43/43/43 42/42/42 41/41/41
f 43/43/43 44/44/44 42/42/42
f 44/44/44 45/45/45 42/42/42
f 45/45/45 46/46/46 42/42/42
