g terrainMesh.034
v -15 76.97363 49.67768
v -15 77.6372 50.38611
v -15.39834 77.49538 50.50111
v -15 53.18044 25.14116
v -15 56.37495 28.67586
v -19.49216 52.62417 27.17084
v -15 50.40505 17.99749
v -15 74.08114 45.36521
v -15 76.97363 49.67768
v -15.39834 77.49538 50.50111
v -24.36223 76.68587 50.319
v -15 73.08295 44.42376
v -19.6868 72.71838 45.33
v -15 70.92815 42.02814
v -23.61993 73.50314 44.99601
v -25 76.84012 50.25658
v -25 74.3538 45.78959
v -17.91958 68.45736 40.09822
v -15 67.18352 38.32076
v -15 62.92878 34.27296
v -25 74.3538 45.78959
v -25 72.3813 44.40497
v -23.61993 73.50314 44.99601
v -25 69.34831 42.10532
v -17.91958 68.45736 40.09822
v -25 64.80624 39.57655
v -23.63904 61.11803 36.71413
v -25 61.50169 37.3464
v -15 58.97601 31.0542
v -15 62.92878 34.27296
v -15 56.37495 28.67586
v -19.49216 52.62417 27.17084
v -15.39834 77.49538 50.50111
v -21.84059 69.78066 50.5587
v -24.36223 76.68587 50.319
v -15 70.33214 50.3623
v -15 76.69339 50.47491
v -15 77.6372 50.38611
v -16.79793 61.54586 47.82341
v -15 64.90359 48.73493
v -15 61.67258 47.64449
v -15 59.81392 47.54593
v -22.31472 63.27297 50.45039
v -15 55.15554 47.16639
v -19.3216 52.58691 47.28492
v -15 48.39078 43.44858
v -17.80571 39.98303 42.77308
v -15 45.6992 42.68304
v -15 41.92325 41.67277
v -15 39.59697 41.94194
v -25 58.6802 49.18586
v -25 59.90927 49.76114
v -25 57.11883 49.00072
v -25 51.29195 48.93218
v -25 49.18927 48.72425
v -25 41.1338 47.31231
v -25 32.24399 44.8034
v -23.11902 33.20794 43.99566
v -25 30 44.51206
v -23.33022 30 43.68392
v -18.29506 30.41468 39.90885
v -15 34.13103 40.23494
v -18.6467 30 40.11565
v -15 32.4959 36.01607
v -18.35967 30 39.77125
v -18.31625 30 39.50731
v -17.987 30 38.4373
v -15 32.10502 35.30548
v -16.17888 30 34.22504
v -15 30.89728 32.09971
v -15.7681 30 32.65458
v -15 30.76941 31.80641
v -15.40177 30 31.40831
v -15 30 30.48573
v -25 59.90927 49.76114
v -25 62.93997 49.88842
v -22.31472 63.27297 50.45039
v -25 67.64861 49.89505
v -21.84059 69.78066 50.5587
v -25 75.65795 50.1649
v -24.36223 76.68587 50.319
v -24.36223 76.68587 50.319
v -25 76.37125 50.22893
v -25 76.84012 50.25658
v -25 75.65795 50.1649
vt 0.7983212 0.3935579
vt 0.7972387 0.3907236
vt 0.7955724 0.3909698
vt 0.8415298 0.154894
vt 0.8372428 0.1690134
vt 0.8569171 0.1675071
vt 0.8495787 0.126803
vt 0.816563 0.2359965
vt 0.8115005 0.2531015
vt 0.8120864 0.2567889
vt 0.8472347 0.2655502
vt 0.8177294 0.232218
vt 0.8350337 0.2406971
vt 0.8206332 0.2226499
vt 0.8505351 0.2436918
vt 0.8497525 0.266007
vt 0.8549111 0.2483508
vt 0.8344362 0.2179689
vt 0.8251956 0.207793
vt 0.8302045 0.1915519
vt 0.4471153 0.3962153
vt 0.4440486 0.388428
vt 0.4407333 0.3927368
vt 0.4389499 0.3764735
vt 0.4107679 0.3723824
vt 0.43337 0.3584665
vt 0.4224674 0.3437964
vt 0.4284334 0.3454102
vt 0.380892 0.3349223
vt 0.388035 0.3504767
vt 0.375607 0.3247167
vt 0.3873414 0.3102442
vt 0.2360519 0.008619689
vt 0.2564685 0.04046691
vt 0.2632687 0.01307291
vt 0.2348321 0.03741325
vt 0.2347966 0.01180031
vt 0.2345176 0.008024744
vt 0.2342443 0.07357735
vt 0.2308903 0.05962757
vt 0.2282282 0.07287771
vt 0.2280683 0.08037674
vt 0.2579851 0.06672899
vt 0.2273237 0.09920248
vt 0.2410926 0.1100633
vt 0.2180283 0.1272786
vt 0.2253628 0.1616157
vt 0.2161812 0.1382832
vt 0.2137551 0.1537066
vt 0.2145731 0.1630008
vt 0.2632238 0.08584297
vt 0.2646527 0.08076527
vt 0.2628239 0.09216638
vt 0.2629462 0.1156197
vt 0.2625151 0.1241257
vt 0.2592675 0.156856
vt 0.2532174 0.193198
vt 0.245271 0.1892666
vt 0.2525772 0.2022918
vt 0.2452789 0.2022697
vt 0.2199353 0.2008327
vt 0.2104267 0.1853841
vt 0.2215776 0.2024978
vt 0.1995675 0.1929442
vt 0.219799 0.2025411
vt 0.2189804 0.202597
vt 0.2151894 0.202804
vt 0.1977445 0.194682
vt 0.1986863 0.2035526
vt 0.1894911 0.2002869
vt 0.1933457 0.2038657
vt 0.1887369 0.2008696
vt 0.1889831 0.2041089
vt 0.1853508 0.2042722
vt 0.9610205 0.7106914
vt 0.9583931 0.7224902
vt 0.9660277 0.724449
vt 0.9537094 0.7405882
vt 0.9609609 0.7495816
vt 0.9465567 0.7716882
vt 0.9474869 0.7758239
vt 0.2632687 0.01307291
vt 0.2650184 0.01444159
vt 0.265066 0.0125492
vt 0.264889 0.01732557
vn -0.112067 0.813981 -0.569979
vn -0.2835516 0.9420285 0.1793904
vn -0.07956436 0.8438339 0.5306732
vn -0.3141968 0.8253045 -0.4692046
vn -0.3210933 0.6579039 -0.6812207
vn -0.3183468 0.7379872 -0.5950043
vn -0.2687856 0.8978238 -0.3488078
vn -0.1493326 0.730518 -0.6663657
vn -0.112067 0.813981 -0.569979
vn -0.07956436 0.8438339 0.5306732
vn 0.03097706 0.8300936 0.556763
vn -0.1871745 0.7042622 -0.6848214
vn -0.01355028 0.7646447 -0.6443096
vn -0.1697205 0.7233492 -0.6692987
vn 0.05563717 0.744067 -0.6657844
vn 0.170848 0.8832335 0.4367031
vn 0.15229 0.7949293 -0.5872778
vn -0.1650775 0.6552132 -0.7371873
vn -0.1347114 0.6872599 -0.7138115
vn -0.3105643 0.6068761 -0.7316085
vn 0.15229 0.7949293 -0.5872778
vn -0.1395636 0.5905131 -0.7948687
vn 0.05563717 0.744067 -0.6657844
vn -0.163368 0.5486697 -0.8199222
vn -0.1650775 0.6552132 -0.7371873
vn -0.2080824 0.5217624 -0.8273243
vn -0.2773588 0.5833752 -0.7633777
vn -0.2217221 0.5454699 -0.8082709
vn -0.3116306 0.6278086 -0.7132621
vn -0.3105643 0.6068761 -0.7316085
vn -0.3210933 0.6579039 -0.6812207
vn -0.3183468 0.7379872 -0.5950043
vn -0.07956436 0.8438339 0.5306732
vn -0.02972514 -0.06408911 0.9975013
vn 0.03097706 0.8300936 0.556763
vn 0.0402246 -0.1472562 0.9882801
vn 0.06299192 -0.001312332 0.9980131
vn -0.2835516 0.9420285 0.1793904
vn 0.163766 -0.1885476 0.9683132
vn 0.06058153 -0.2915849 0.9546246
vn 0.1105095 -0.1911103 0.9753279
vn 0.08233953 -0.07373326 0.993873
vn 0.1305898 -0.1482296 0.980293
vn 0.1560462 -0.2180619 0.9633787
vn 0.3022051 -0.202345 0.9315195
vn 0.463441 -0.2886549 0.8377951
vn 0.4264084 -0.2165002 0.8782389
vn 0.5036539 -0.2341107 0.8315797
vn 0.4333123 -0.1200932 0.8932067
vn 0.2681742 -0.1111518 0.9569367
vn 0.239881 -0.2393012 0.9408464
vn 0.186472 -0.3378775 0.9225329
vn 0.2251057 -0.08539124 0.9705852
vn 0.2902957 -0.05795538 0.9551803
vn 0.3207824 -0.1392265 0.9368642
vn 0.4608422 -0.2264231 0.8581126
vn 0.4588623 -0.1635851 0.8733186
vn 0.5104263 -0.201668 0.8359396
vn 0.4413365 -0.1155147 0.8898755
vn 0.5237371 -0.1164606 0.8438817
vn 0.7050524 -0.3665345 0.6070861
vn 0.4397546 -0.4577305 0.7727216
vn 0.6413697 -0.1708183 0.7479747
vn 0.736218 -0.6073959 0.2984181
vn 0.893397 -0.2606059 0.3659592
vn 0.9251909 -0.2873387 0.2479078
vn 0.7645955 -0.5605752 0.3180397
vn 0.762593 -0.5770949 0.2922556
vn 0.7807218 -0.5693735 0.2574633
vn 0.8045225 -0.5498074 0.2246229
vn 0.8039457 -0.5531971 0.2182757
vn 0.7950922 -0.5487698 0.2582248
vn 0.7779917 -0.55682 0.2909991
vn 0.7562902 -0.5653026 0.32933
vn 0.186472 -0.3378775 0.9225329
vn -0.2020654 -0.02282811 0.979106
vn 0.1305898 -0.1482296 0.980293
vn -0.1982219 -0.01129209 0.9800922
vn -0.02972514 -0.06408911 0.9975013
vn -0.1686155 -0.04297024 0.9847448
vn 0.03097706 0.8300936 0.556763
vn 0.03097706 0.8300936 0.556763
vn -0.1014465 -0.07825176 0.9917586
vn 0.170848 0.8832335 0.4367031
vn -0.1686155 -0.04297024 0.9847448
g terrainMesh.034_0
f 3/3/3 2/2/2 1/1/1
f 6/6/6 5/5/5 4/4/4
f 6/6/6 4/4/4 7/7/7
f 10/10/10 9/9/9 8/8/8
f 11/11/11 10/10/10 8/8/8
f 8/8/8 12/12/12 11/11/11
f 12/12/12 13/13/13 11/11/11
f 12/12/12 14/14/14 13/13/13
f 11/11/11 13/13/13 15/15/15
f 16/16/16 11/11/11 15/15/15
f 17/17/17 16/16/16 15/15/15
f 18/18/18 15/15/15 13/13/13
f 14/14/14 18/18/18 13/13/13
f 18/18/18 14/14/14 19/19/19
f 18/18/18 19/19/19 20/20/20
f 23/23/23 22/22/22 21/21/21
f 24/24/24 22/22/22 23/23/23
f 25/25/25 24/24/24 23/23/23
f 24/24/24 25/25/25 26/26/26
f 26/26/26 25/25/25 27/27/27
f 28/28/28 26/26/26 27/27/27
f 27/27/27 25/25/25 29/29/29
f 25/25/25 30/30/30 29/29/29
f 27/27/27 29/29/29 31/31/31
f 32/32/32 27/27/27 31/31/31
f 35/35/35 34/34/34 33/33/33
f 34/34/34 36/36/36 33/33/33
f 36/36/36 37/37/37 33/33/33
f 37/37/37 38/38/38 33/33/33
f 34/34/34 39/39/39 36/36/36
f 39/39/39 40/40/40 36/36/36
f 39/39/39 41/41/41 40/40/40
f 42/42/42 41/41/41 39/39/39
f 34/34/34 43/43/43 39/39/39
f 44/44/44 42/42/42 39/39/39
f 45/45/45 44/44/44 39/39/39
f 44/44/44 45/45/45 46/46/46
f 45/45/45 47/47/47 46/46/46
f 47/47/47 48/48/48 46/46/46
f 49/49/49 48/48/48 47/47/47
f 49/49/49 47/47/47 50/50/50
f 51/51/51 39/39/39 43/43/43
f 52/52/52 51/51/51 43/43/43
f 39/39/39 51/51/51 53/53/53
f 45/45/45 39/39/39 53/53/53
f 53/53/53 54/54/54 45/45/45
f 55/55/55 45/45/45 54/54/54
f 45/45/45 55/55/55 56/56/56
f 56/56/56 57/57/57 45/45/45
f 57/57/57 58/58/58 45/45/45
f 47/47/47 45/45/45 58/58/58
f 58/58/58 57/57/57 59/59/59
f 60/60/60 58/58/58 59/59/59
f 47/47/47 61/61/61 50/50/50
f 61/61/61 47/47/47 58/58/58
f 58/58/58 60/60/60 61/61/61
f 61/61/61 62/62/62 50/50/50
f 60/60/60 63/63/63 61/61/61
f 62/62/62 61/61/61 64/64/64
f 63/63/63 65/65/65 61/61/61
f 61/61/61 65/65/65 66/66/66
f 67/67/67 61/61/61 66/66/66
f 68/68/68 64/64/64 61/61/61
f 68/68/68 61/61/61 67/67/67
f 67/67/67 69/69/69 68/68/68
f 68/68/68 69/69/69 70/70/70
f 69/69/69 71/71/71 70/70/70
f 72/72/72 70/70/70 71/71/71
f 73/73/73 72/72/72 71/71/71
f 74/74/74 72/72/72 73/73/73
f 77/77/77 76/76/76 75/75/75
f 78/78/78 76/76/76 77/77/77
f 79/79/79 78/78/78 77/77/77
f 80/80/80 78/78/78 79/79/79
f 81/81/81 80/80/80 79/79/79
f 84/84/84 83/83/83 82/82/82
f 83/83/83 85/85/85 82/82/82
