g BazaarBarrel1
v 0.8071121 -0.2162649 -1.17718
v 0.8355839 4.22599E-08 -1.17718
v 0.807112 0.216265 -1.17718
v 1 7.54979E-08 -1
v 0.9659258 0.2588191 -1
v 0.7236369 -0.4177918 -1.17718
v 0.9659259 -0.2588189 -1
v 0.8660254 0.5 -1
v 0.7236369 0.4177919 -1.17718
v 1 7.54979E-08 0.954391
v 0.9659259 -0.2588189 0.954391
v 0.9659258 0.2588191 0.954391
v 0.8660255 -0.4999999 -1
v 0.5908471 -0.5908469 -1.17718
v 0.8660255 -0.4999999 0.954391
v 0.7071068 0.7071068 -1
v 0.8660254 0.5 0.954391
v 0.590847 0.590847 -1.17718
v 0.9214908 0.2469127 1
v 0.9539975 6.585539E-08 1
v 0.9214908 -0.2469126 1
v 0.8261861 0.4769987 1
v 0.7071069 -0.7071066 -1
v 0.7071069 -0.7071066 0.954391
v 0.4177922 -0.7236367 -1.17718
v 0.8261861 -0.4769986 1
v 0.6533533 0.1750655 1
v 0.6764011 7.668874E-09 1
v 0.5857806 0.3382005 1
v 0.6533533 -0.1750655 1
v 0.5000002 -0.8660253 0.954391
v 0.6745782 -0.6745778 1
v 0.5000002 -0.8660253 -1
v 0.5857806 -0.3382005 1
v 0.6533533 0.1750655 -0.6226074
v 0.6764011 7.668874E-09 -0.6226074
v 0.6533533 -0.1750655 -0.6226074
v 0.5857806 0.3382005 -0.6226074
v 0.5857806 -0.3382005 -0.6226074
v 0.478288 -0.4782878 1
v 0.476999 -0.8261859 1
v 0.4782878 0.4782878 -0.6226074
v 0.4782879 -0.4782878 -0.6226074
v 0.3382007 -0.5857805 1
v 0.2588194 -0.9659258 0.954391
v 0.4782878 0.4782878 1
v 0.3382007 -0.5857805 -0.6226074
v 0.246913 -0.9214907 1
v 0.6745781 0.6745781 1
v 0.3382005 0.5857805 -0.6226074
v 0.1750657 -0.6533533 1
v 0.7071068 0.7071068 0.954391
v 0.3382006 0.5857805 1
v 0.1750657 -0.6533533 -0.6226074
v 0.5 0.8660254 -1
v 0.4769987 0.826186 1
v 0.1750655 0.6533533 -0.6226074
v 0.5 0.8660254 0.954391
v 0.4177919 0.7236368 -1.17718
v 0.1750655 0.6533533 1
v 0.258819 0.9659258 -1
v 0.2162653 -0.807112 -1.17718
v 0.2469127 0.9214908 1
v 0.216265 0.807112 -1.17718
v 0.2588194 -0.9659258 -1
v 0.258819 0.9659258 0.954391
v 3.187107E-07 -0.8355839 -1.17718
v 3.894144E-07 -1 0.954391
v 0 1 -1
v -6.677679E-09 0.8355839 -1.17718
v 3.894144E-07 -1 -1
v 3.727571E-07 -0.9539975 1
v -0.2162647 -0.8071122 -1.17718
v -0.2588186 -0.9659259 0.954391
v 2.722407E-07 -0.6764012 1
v -0.2588186 -0.9659259 -1
v -0.2469123 -0.9214909 1
v 2.382095E-07 -0.6764012 -0.6226074
v -0.4999996 -0.8660256 0.954391
v -0.1750652 -0.6533535 1
v -2.519088E-08 0.6764011 -0.6226074
v -0.4769983 -0.8261862 1
v -0.1750652 -0.6533535 -0.6226074
v 8.840331E-09 0.6764011 1
v -0.3382003 -0.5857807 1
v -0.175066 0.6533532 -0.6226074
v 1.256734E-09 0.9539975 1
v -0.3382003 -0.5857807 -0.6226074
v -0.175066 0.6533532 1
v 0 1 0.954391
v -0.338201 0.5857803 -0.6226074
v -0.2469134 0.9214906 1
v -0.2588198 0.9659256 -1
v -0.338201 0.5857803 1
v -0.2588198 0.9659256 0.954391
v -0.2162656 0.8071119 -1.17718
v -0.4769993 0.8261857 1
v -0.5000006 0.8660251 -1
v -0.4177916 -0.723637 -1.17718
v -0.5000006 0.8660251 0.954391
v -0.4177924 0.7236366 -1.17718
v -0.4999996 -0.8660256 -1
v -0.7071072 0.7071064 -1
v -0.5908467 -0.5908474 -1.17718
v -0.7071064 -0.7071072 0.954391
v -0.5908474 0.5908467 -1.17718
v -0.7071064 -0.7071072 -1
v -0.6745777 -0.6745785 1
v -0.7236367 -0.4177922 -1.17718
v -0.8660252 -0.5000003 0.954391
v -0.4782875 -0.4782882 1
v -0.8660252 -0.5000003 -1
v -0.8261858 -0.476999 1
v -0.4782876 -0.4782882 -0.6226074
v -0.9659257 -0.2588194 0.954391
v -0.5857804 -0.3382008 1
v -0.4782881 0.4782875 -0.6226074
v -0.9214907 -0.2469131 1
v -0.5857805 -0.3382008 -0.6226074
v -0.4782881 0.4782875 1
v -0.6533532 -0.1750658 1
v -0.5857808 0.3382002 -0.6226074
v -0.6745785 0.6745777 1
v -0.6533533 -0.1750658 -0.6226074
v -0.5857807 0.3382002 1
v -0.7071072 0.7071064 0.954391
v -0.6533535 0.1750651 -0.6226074
v -0.8261863 0.4769982 1
v -0.8660257 0.4999995 -1
v -0.6533534 0.1750651 1
v -0.6764012 -3.578652E-07 -0.6226074
v -0.6764011 -3.578652E-07 1
v -0.8660257 0.4999995 0.954391
v -0.9214909 0.2469122 1
v -0.9539975 -4.496946E-07 1
v -0.7236371 0.4177915 -1.17718
v -0.9659259 0.2588185 -1
v -0.9659259 0.2588185 0.954391
v -1 -4.649123E-07 0.954391
v -0.8071119 -0.2162654 -1.17718
v -0.9659257 -0.2588194 -1
v -1 -4.649123E-07 -1
v -0.8071121 0.2162646 -1.17718
v -0.8355839 -4.092981E-07 -1.17718
vn 0.4125611 -0.1105412 -0.904198
vn 0.4271179 0 -0.9041959
vn 0.4125611 0.1105412 -0.904198
vn 0.9347051 0 -0.3554241
vn 0.9028592 0.2418977 -0.3554304
vn 0.3698955 -0.2135444 -0.9041991
vn 0.9028592 -0.2418977 -0.3554304
vn 0.8094866 0.4673379 -0.3554246
vn 0.3698955 0.2135444 -0.9041991
vn 0.927535 0 0.3737363
vn 0.8959277 -0.2400656 0.3737407
vn 0.8959277 0.2400656 0.3737407
vn 0.8094866 -0.4673379 -0.3554246
vn 0.302019 -0.302019 -0.9041952
vn 0.8032662 -0.4637703 0.3737386
vn 0.6609342 0.6609342 -0.3554322
vn 0.8032662 0.4637703 0.3737386
vn 0.302019 0.302019 -0.9041952
vn 0.3932759 0.1053843 0.9133609
vn 0.4071605 0 0.9133567
vn 0.3932759 -0.1053843 0.9133609
vn 0.3526219 0.2035648 0.9133561
vn 0.6609342 -0.6609342 -0.3554322
vn 0.6558647 -0.6558647 0.3737421
vn 0.2135444 -0.3698955 -0.9041991
vn 0.3526219 -0.2035648 0.9133561
vn -0.6521267 -0.1747204 0.7377015
vn -0.6751163 0 0.7377113
vn -0.584684 -0.3375407 0.7377065
vn -0.6521267 0.1747204 0.7377015
vn 0.4637703 -0.8032662 0.3737386
vn 0.2878929 -0.2878929 0.9133649
vn 0.4673379 -0.8094866 -0.3554246
vn -0.584684 0.3375407 0.7377065
vn -0.7092375 -0.1900436 0.6788709
vn -0.7342603 0 0.678868
vn -0.7092375 0.1900436 0.6788709
vn -0.6358789 -0.367122 0.6788812
vn -0.6358789 0.367122 0.6788812
vn -0.4773808 0.4773808 0.7377093
vn 0.2035648 -0.3526219 0.9133561
vn -0.5191965 -0.5191965 0.6788741
vn -0.5191965 0.5191965 0.6788741
vn -0.3375407 0.584684 0.7377065
vn 0.2400656 -0.8959277 0.3737407
vn -0.4773808 -0.4773808 0.7377093
vn -0.367122 0.6358789 0.6788812
vn 0.1053843 -0.3932759 0.9133609
vn 0.2878929 0.2878929 0.9133649
vn -0.367122 -0.6358789 0.6788812
vn -0.1747204 0.6521267 0.7377015
vn 0.6558647 0.6558647 0.3737421
vn -0.3375407 -0.584684 0.7377065
vn -0.1900436 0.7092375 0.6788709
vn 0.4673379 0.8094866 -0.3554246
vn 0.2035648 0.3526219 0.9133561
vn -0.1900436 -0.7092375 0.6788709
vn 0.4637703 0.8032662 0.3737386
vn 0.2135444 0.3698955 -0.9041991
vn -0.1747204 -0.6521267 0.7377015
vn 0.2418977 0.9028592 -0.3554304
vn 0.1105412 -0.4125611 -0.904198
vn 0.1053843 0.3932759 0.9133609
vn 0.1105412 0.4125611 -0.904198
vn 0.2418977 -0.9028592 -0.3554304
vn 0.2400656 0.8959277 0.3737407
vn 0 -0.4271179 -0.9041959
vn 0 -0.927535 0.3737363
vn 0 0.9347051 -0.3554241
vn 0 0.4271179 -0.9041959
vn 0 -0.9347051 -0.3554241
vn 0 -0.4071605 0.9133567
vn -0.1105412 -0.4125611 -0.904198
vn -0.2400656 -0.8959277 0.3737407
vn 0 0.6751163 0.7377113
vn -0.2418977 -0.9028592 -0.3554304
vn -0.1053843 -0.3932759 0.9133609
vn 0 0.7342603 0.678868
vn -0.4637703 -0.8032662 0.3737386
vn 0.1747204 0.6521267 0.7377015
vn 0 -0.7342603 0.678868
vn -0.2035648 -0.3526219 0.9133561
vn 0.1900436 0.7092375 0.6788709
vn 0 -0.6751163 0.7377113
vn 0.3375407 0.584684 0.7377065
vn 0.1900436 -0.7092375 0.6788709
vn 0 0.4071605 0.9133567
vn 0.367122 0.6358789 0.6788812
vn 0.1747204 -0.6521267 0.7377015
vn 0 0.927535 0.3737363
vn 0.367122 -0.6358789 0.6788812
vn -0.1053843 0.3932759 0.9133609
vn -0.2418977 0.9028592 -0.3554304
vn 0.3375407 -0.584684 0.7377065
vn -0.2400656 0.8959277 0.3737407
vn -0.1105412 0.4125611 -0.904198
vn -0.2035648 0.3526219 0.9133561
vn -0.4673379 0.8094866 -0.3554246
vn -0.2135444 -0.3698955 -0.9041991
vn -0.4637703 0.8032662 0.3737386
vn -0.2135444 0.3698955 -0.9041991
vn -0.4673379 -0.8094866 -0.3554246
vn -0.6609342 0.6609342 -0.3554322
vn -0.302019 -0.302019 -0.9041952
vn -0.6558647 -0.6558647 0.3737421
vn -0.302019 0.302019 -0.9041952
vn -0.6609342 -0.6609342 -0.3554322
vn -0.2878929 -0.2878929 0.9133649
vn -0.3698955 -0.2135444 -0.9041991
vn -0.8032662 -0.4637703 0.3737386
vn 0.4773808 0.4773808 0.7377093
vn -0.8094866 -0.4673379 -0.3554246
vn -0.3526219 -0.2035648 0.9133561
vn 0.5191965 0.5191965 0.6788741
vn -0.8959277 -0.2400656 0.3737407
vn 0.584684 0.3375407 0.7377065
vn 0.5191965 -0.5191965 0.6788741
vn -0.3932759 -0.1053843 0.9133609
vn 0.6358789 0.367122 0.6788812
vn 0.4773808 -0.4773808 0.7377093
vn 0.6521267 0.1747204 0.7377015
vn 0.6358789 -0.367122 0.6788812
vn -0.2878929 0.2878929 0.9133649
vn 0.7092375 0.1900436 0.6788709
vn 0.584684 -0.3375407 0.7377065
vn -0.6558647 0.6558647 0.3737421
vn 0.7092416 -0.1900141 0.6788748
vn -0.3526219 0.2035648 0.9133561
vn -0.8094866 0.4673379 -0.3554246
vn 0.6521267 -0.1747204 0.7377015
vn 0.7342603 0 0.678868
vn 0.6751163 0 0.7377113
vn -0.8032662 0.4637703 0.3737386
vn -0.3932759 0.1053843 0.9133609
vn -0.4071605 0 0.9133567
vn -0.3698955 0.2135444 -0.9041991
vn -0.9028592 0.2418977 -0.3554304
vn -0.8959277 0.2400656 0.3737407
vn -0.927535 0 0.3737363
vn -0.4125611 -0.1105412 -0.904198
vn -0.9028592 -0.2418977 -0.3554304
vn -0.9347051 0 -0.3554241
vn -0.4125611 0.1105412 -0.904198
vn -0.4271179 0 -0.9041959
g BazaarBarrel1_0
f 3/3/3 2/2/2 1/1/1
f 1/1/1 2/2/2 4/4/4
f 2/2/2 3/3/3 5/5/5
f 4/4/4 2/2/2 5/5/5
f 1/1/1 6/6/6 3/3/3
f 7/7/7 1/1/1 4/4/4
f 6/6/6 1/1/1 7/7/7
f 5/5/5 3/3/3 8/8/8
f 6/6/6 9/9/9 3/3/3
f 3/3/3 9/9/9 8/8/8
f 10/10/10 4/4/4 5/5/5
f 11/11/11 7/7/7 4/4/4
f 10/10/10 11/11/11 4/4/4
f 12/12/12 5/5/5 8/8/8
f 12/12/12 10/10/10 5/5/5
f 13/13/13 6/6/6 7/7/7
f 6/6/6 14/14/14 9/9/9
f 14/14/14 6/6/6 13/13/13
f 11/11/11 15/15/15 7/7/7
f 15/15/15 13/13/13 7/7/7
f 8/8/8 9/9/9 16/16/16
f 17/17/17 12/12/12 8/8/8
f 17/17/17 8/8/8 16/16/16
f 14/14/14 18/18/18 9/9/9
f 9/9/9 18/18/18 16/16/16
f 12/12/12 19/19/19 10/10/10
f 10/10/10 20/20/20 11/11/11
f 19/19/19 20/20/20 10/10/10
f 11/11/11 21/21/21 15/15/15
f 20/20/20 21/21/21 11/11/11
f 17/17/17 22/22/22 12/12/12
f 22/22/22 19/19/19 12/12/12
f 23/23/23 14/14/14 13/13/13
f 15/15/15 24/24/24 13/13/13
f 24/24/24 23/23/23 13/13/13
f 14/14/14 25/25/25 18/18/18
f 25/25/25 14/14/14 23/23/23
f 21/21/21 26/26/26 15/15/15
f 15/15/15 26/26/26 24/24/24
f 19/19/19 27/27/27 20/20/20
f 20/20/20 28/28/28 21/21/21
f 27/27/27 28/28/28 20/20/20
f 22/22/22 29/29/29 19/19/19
f 29/29/29 27/27/27 19/19/19
f 21/21/21 30/30/30 26/26/26
f 28/28/28 30/30/30 21/21/21
f 24/24/24 31/31/31 23/23/23
f 26/26/26 32/32/32 24/24/24
f 24/24/24 32/32/32 31/31/31
f 33/33/33 25/25/25 23/23/23
f 31/31/31 33/33/33 23/23/23
f 30/30/30 34/34/34 26/26/26
f 26/26/26 34/34/34 32/32/32
f 27/27/27 35/35/35 28/28/28
f 28/28/28 36/36/36 30/30/30
f 35/35/35 36/36/36 28/28/28
f 36/36/36 37/37/37 30/30/30
f 37/37/37 36/36/36 35/35/35
f 30/30/30 37/37/37 34/34/34
f 38/38/38 35/35/35 27/27/27
f 35/35/35 38/38/38 37/37/37
f 29/29/29 38/38/38 27/27/27
f 37/37/37 39/39/39 34/34/34
f 38/38/38 39/39/39 37/37/37
f 34/34/34 40/40/40 32/32/32
f 34/34/34 39/39/39 40/40/40
f 32/32/32 41/41/41 31/31/31
f 32/32/32 40/40/40 41/41/41
f 42/42/42 38/38/38 29/29/29
f 38/38/38 42/42/42 39/39/39
f 39/39/39 43/43/43 40/40/40
f 42/42/42 43/43/43 39/39/39
f 40/40/40 43/43/43 44/44/44
f 40/40/40 44/44/44 41/41/41
f 31/31/31 41/41/41 45/45/45
f 31/31/31 45/45/45 33/33/33
f 46/46/46 42/42/42 29/29/29
f 46/46/46 29/29/29 22/22/22
f 42/42/42 47/47/47 43/43/43
f 43/43/43 47/47/47 44/44/44
f 41/41/41 44/44/44 48/48/48
f 41/41/41 48/48/48 45/45/45
f 49/49/49 46/46/46 22/22/22
f 49/49/49 22/22/22 17/17/17
f 50/50/50 42/42/42 46/46/46
f 42/42/42 50/50/50 47/47/47
f 44/44/44 47/47/47 51/51/51
f 44/44/44 51/51/51 48/48/48
f 52/52/52 49/49/49 17/17/17
f 52/52/52 17/17/17 16/16/16
f 53/53/53 46/46/46 49/49/49
f 53/53/53 50/50/50 46/46/46
f 50/50/50 54/54/54 47/47/47
f 47/47/47 54/54/54 51/51/51
f 52/52/52 16/16/16 55/55/55
f 16/16/16 18/18/18 55/55/55
f 56/56/56 49/49/49 52/52/52
f 56/56/56 53/53/53 49/49/49
f 57/57/57 50/50/50 53/53/53
f 50/50/50 57/57/57 54/54/54
f 58/58/58 52/52/52 55/55/55
f 58/58/58 56/56/56 52/52/52
f 18/18/18 59/59/59 55/55/55
f 25/25/25 59/59/59 18/18/18
f 60/60/60 53/53/53 56/56/56
f 60/60/60 57/57/57 53/53/53
f 58/58/58 55/55/55 61/61/61
f 55/55/55 59/59/59 61/61/61
f 25/25/25 62/62/62 59/59/59
f 62/62/62 25/25/25 33/33/33
f 63/63/63 56/56/56 58/58/58
f 63/63/63 60/60/60 56/56/56
f 59/59/59 64/64/64 61/61/61
f 62/62/62 64/64/64 59/59/59
f 65/65/65 62/62/62 33/33/33
f 45/45/45 65/65/65 33/33/33
f 66/66/66 58/58/58 61/61/61
f 66/66/66 63/63/63 58/58/58
f 62/62/62 67/67/67 64/64/64
f 67/67/67 62/62/62 65/65/65
f 45/45/45 68/68/68 65/65/65
f 45/45/45 48/48/48 68/68/68
f 61/61/61 64/64/64 69/69/69
f 66/66/66 61/61/61 69/69/69
f 67/67/67 70/70/70 64/64/64
f 64/64/64 70/70/70 69/69/69
f 71/71/71 67/67/67 65/65/65
f 68/68/68 71/71/71 65/65/65
f 48/48/48 72/72/72 68/68/68
f 48/48/48 51/51/51 72/72/72
f 67/67/67 73/73/73 70/70/70
f 73/73/73 67/67/67 71/71/71
f 68/68/68 74/74/74 71/71/71
f 68/68/68 72/72/72 74/74/74
f 51/51/51 75/75/75 72/72/72
f 51/51/51 54/54/54 75/75/75
f 76/76/76 73/73/73 71/71/71
f 74/74/74 76/76/76 71/71/71
f 72/72/72 77/77/77 74/74/74
f 72/72/72 75/75/75 77/77/77
f 54/54/54 78/78/78 75/75/75
f 57/57/57 78/78/78 54/54/54
f 74/74/74 79/79/79 76/76/76
f 74/74/74 77/77/77 79/79/79
f 75/75/75 80/80/80 77/77/77
f 75/75/75 78/78/78 80/80/80
f 57/57/57 81/81/81 78/78/78
f 81/81/81 57/57/57 60/60/60
f 77/77/77 82/82/82 79/79/79
f 77/77/77 80/80/80 82/82/82
f 78/78/78 83/83/83 80/80/80
f 81/81/81 83/83/83 78/78/78
f 84/84/84 81/81/81 60/60/60
f 84/84/84 60/60/60 63/63/63
f 80/80/80 85/85/85 82/82/82
f 80/80/80 83/83/83 85/85/85
f 81/81/81 86/86/86 83/83/83
f 86/86/86 81/81/81 84/84/84
f 87/87/87 84/84/84 63/63/63
f 87/87/87 63/63/63 66/66/66
f 83/83/83 88/88/88 85/85/85
f 86/86/86 88/88/88 83/83/83
f 89/89/89 86/86/86 84/84/84
f 89/89/89 84/84/84 87/87/87
f 90/90/90 87/87/87 66/66/66
f 90/90/90 66/66/66 69/69/69
f 86/86/86 91/91/91 88/88/88
f 91/91/91 86/86/86 89/89/89
f 92/92/92 89/89/89 87/87/87
f 92/92/92 87/87/87 90/90/90
f 90/90/90 69/69/69 93/93/93
f 69/69/69 70/70/70 93/93/93
f 94/94/94 91/91/91 89/89/89
f 94/94/94 89/89/89 92/92/92
f 95/95/95 92/92/92 90/90/90
f 95/95/95 90/90/90 93/93/93
f 70/70/70 96/96/96 93/93/93
f 73/73/73 96/96/96 70/70/70
f 97/97/97 94/94/94 92/92/92
f 97/97/97 92/92/92 95/95/95
f 95/95/95 93/93/93 98/98/98
f 93/93/93 96/96/96 98/98/98
f 73/73/73 99/99/99 96/96/96
f 99/99/99 73/73/73 76/76/76
f 100/100/100 97/97/97 95/95/95
f 100/100/100 95/95/95 98/98/98
f 96/96/96 101/101/101 98/98/98
f 99/99/99 101/101/101 96/96/96
f 102/102/102 99/99/99 76/76/76
f 79/79/79 102/102/102 76/76/76
f 100/100/100 98/98/98 103/103/103
f 98/98/98 101/101/101 103/103/103
f 99/99/99 104/104/104 101/101/101
f 104/104/104 99/99/99 102/102/102
f 79/79/79 105/105/105 102/102/102
f 79/79/79 82/82/82 105/105/105
f 101/101/101 106/106/106 103/103/103
f 104/104/104 106/106/106 101/101/101
f 107/107/107 104/104/104 102/102/102
f 105/105/105 107/107/107 102/102/102
f 82/82/82 108/108/108 105/105/105
f 82/82/82 85/85/85 108/108/108
f 104/104/104 109/109/109 106/106/106
f 109/109/109 104/104/104 107/107/107
f 105/105/105 110/110/110 107/107/107
f 105/105/105 108/108/108 110/110/110
f 85/85/85 111/111/111 108/108/108
f 85/85/85 88/88/88 111/111/111
f 112/112/112 109/109/109 107/107/107
f 110/110/110 112/112/112 107/107/107
f 108/108/108 113/113/113 110/110/110
f 108/108/108 111/111/111 113/113/113
f 88/88/88 114/114/114 111/111/111
f 91/91/91 114/114/114 88/88/88
f 110/110/110 115/115/115 112/112/112
f 110/110/110 113/113/113 115/115/115
f 111/111/111 116/116/116 113/113/113
f 111/111/111 114/114/114 116/116/116
f 91/91/91 117/117/117 114/114/114
f 117/117/117 91/91/91 94/94/94
f 113/113/113 118/118/118 115/115/115
f 113/113/113 116/116/116 118/118/118
f 114/114/114 119/119/119 116/116/116
f 117/117/117 119/119/119 114/114/114
f 120/120/120 117/117/117 94/94/94
f 120/120/120 94/94/94 97/97/97
f 116/116/116 121/121/121 118/118/118
f 116/116/116 119/119/119 121/121/121
f 117/117/117 122/122/122 119/119/119
f 122/122/122 117/117/117 120/120/120
f 123/123/123 120/120/120 97/97/97
f 123/123/123 97/97/97 100/100/100
f 119/119/119 124/124/124 121/121/121
f 122/122/122 124/124/124 119/119/119
f 125/125/125 122/122/122 120/120/120
f 125/125/125 120/120/120 123/123/123
f 126/126/126 123/123/123 100/100/100
f 126/126/126 100/100/100 103/103/103
f 122/122/122 127/127/127 124/124/124
f 127/127/127 122/122/122 125/125/125
f 128/128/128 125/125/125 123/123/123
f 128/128/128 123/123/123 126/126/126
f 126/126/126 103/103/103 129/129/129
f 103/103/103 106/106/106 129/129/129
f 130/130/130 127/127/127 125/125/125
f 130/130/130 125/125/125 128/128/128
f 127/127/127 131/131/131 124/124/124
f 131/131/131 127/127/127 130/130/130
f 124/124/124 131/131/131 132/132/132
f 132/132/132 131/131/131 130/130/130
f 121/121/121 124/124/124 132/132/132
f 133/133/133 128/128/128 126/126/126
f 133/133/133 126/126/126 129/129/129
f 134/134/134 130/130/130 128/128/128
f 132/132/132 130/130/130 134/134/134
f 134/134/134 128/128/128 133/133/133
f 121/121/121 132/132/132 135/135/135
f 135/135/135 132/132/132 134/134/134
f 118/118/118 121/121/121 135/135/135
f 106/106/106 136/136/136 129/129/129
f 109/109/109 136/136/136 106/106/106
f 133/133/133 129/129/129 137/137/137
f 129/129/129 136/136/136 137/137/137
f 138/138/138 134/134/134 133/133/133
f 135/135/135 134/134/134 138/138/138
f 138/138/138 133/133/133 137/137/137
f 118/118/118 135/135/135 139/139/139
f 139/139/139 135/135/135 138/138/138
f 115/115/115 118/118/118 139/139/139
f 109/109/109 140/140/140 136/136/136
f 140/140/140 109/109/109 112/112/112
f 115/115/115 141/141/141 112/112/112
f 115/115/115 139/139/139 141/141/141
f 141/141/141 140/140/140 112/112/112
f 139/139/139 138/138/138 142/142/142
f 138/138/138 137/137/137 142/142/142
f 139/139/139 142/142/142 141/141/141
f 136/136/136 143/143/143 137/137/137
f 140/140/140 143/143/143 136/136/136
f 137/137/137 143/143/143 142/142/142
f 144/144/144 140/140/140 141/141/141
f 142/142/142 144/144/144 141/141/141
f 140/140/140 144/144/144 143/143/143
f 143/143/143 144/144/144 142/142/142
