g BellBallMesh
v 0.5783489 -0.1589526 0.2753141
v 0.5783488 0.3179054 4.270742E-08
v 1.471413 5.987807E-07 3.219202E-08
v 0.5783488 -0.1589526 -0.2753142
v -1.896401E-08 0.3179054 0.5783488
v 0.2753141 -0.1589527 0.5783488
v -6.288137E-08 -3.430503E-07 1.471413
v -0.2753142 -0.1589527 0.5783488
v -0.5783489 -0.1589525 -0.275314
v -0.5783488 0.3179054 2.075857E-07
v -1.471413 4.256037E-07 4.482173E-07
v -0.5783488 -0.1589527 0.2753143
v -8.562753E-08 0.3179055 -0.5783485
v -0.2753142 -0.1589524 -0.5783487
v -5.092283E-08 2.046745E-07 -1.471413
v 0.2753141 -0.1589524 -0.5783489
v -0.5392278 -0.314435 -0.2142779
v -0.06438122 -0.5139676 -0.4089543
v -0.7357061 -0.7357067 -1.040445
v -0.2639137 -0.03912096 -0.6036309
v -0.06438132 -0.5139675 0.4089544
v -0.539228 -0.3144349 0.2142779
v -0.735706 -0.7357063 1.040446
v -0.2639138 -0.03912083 0.6036308
v 0.314435 0.5392278 0.214278
v 0.5139674 0.06438121 0.4089545
v 0.7357061 0.735706 1.040446
v 0.03912077 0.2639137 0.603631
v 0.5139675 0.0643812 -0.4089541
v 0.3144351 0.5392278 -0.2142777
v 0.7357066 0.7357059 -1.040446
v 0.03912109 0.2639137 -0.6036309
v 0.314435 -0.5392279 -0.2142779
v 0.5139675 -0.06438126 -0.4089543
v 0.7357062 -0.7357063 -1.040445
v 0.03912096 -0.2639137 -0.6036309
v 0.5139675 -0.06438135 0.4089544
v 0.3144349 -0.539228 0.2142779
v 0.735706 -0.7357063 1.040446
v 0.0391208 -0.2639138 0.6036308
v -0.5392279 0.314435 0.214278
v -0.0643812 0.5139674 0.4089545
v -0.7357062 0.7357062 1.040446
v -0.2639138 0.03912076 0.603631
v -0.0643812 0.5139675 -0.408954
v -0.5392278 0.3144351 -0.2142777
v -0.7357064 0.7357064 -1.040445
v -0.2639138 0.03912111 -0.6036309
v 0.1589526 0.5783488 0.2753141
v -0.3179054 0.5783488 4.270742E-08
v 3.945063E-08 1.471413 -1.728712E-08
v 0.1589525 0.5783488 -0.2753142
v 0.1589525 -0.5783489 -0.275314
v -0.3179055 -0.5783488 2.218215E-07
v -7.823015E-07 -1.471413 3.987381E-07
v 0.1589525 -0.5783488 0.2753143
v 0.7236073 -0.5257253 -0.4472195
v 0.9510579 -0.3090126 0
v 0.8506479 0 -0.5257359
v 0.5877856 -0.8090167 0
v 0.9510579 0.3090126 0
v 0.2628688 -0.8090116 -0.5257376
v 0 -0.9999999 0
v 0.7236073 0.5257253 -0.4472195
v 0.5877856 0.8090167 0
v 0.4253227 -0.3090114 -0.8506542
v -0.276388 -0.8506492 -0.4472198
v -0.5877856 -0.8090167 0
v 0.2628688 0.8090116 -0.5257376
v 0 0.9999999 0
v 0.4253227 0.3090114 -0.8506542
v -0.1624556 -0.4999953 -0.8506544
v -0.6881894 -0.4999969 -0.5257362
v -0.9510579 -0.3090126 0
v -0.276388 0.8506492 -0.4472198
v -0.5877856 0.8090167 0
v -0.1624556 0.4999953 -0.8506544
v 0 0 -1
v -0.6881894 0.4999969 -0.5257362
v -0.9510579 0.3090126 0
v -0.8944262 0 -0.4472156
v -0.5257298 0 -0.8506517
v 0.9510579 0.3090126 0
v 0.8944262 0 0.4472156
v 0.6881894 0.4999969 0.5257362
v 0.5877856 0.8090167 0
v 0.9510579 -0.3090126 0
v 0.6881894 -0.4999969 0.5257362
v 0.5877856 -0.8090167 0
v 0.5257298 0 0.8506517
v 0.276388 0.8506492 0.4472198
v 0 0.9999999 0
v 0.276388 -0.8506492 0.4472198
v 0 -0.9999999 0
v 0.1624556 0.4999953 0.8506544
v -0.2628688 0.8090116 0.5257376
v -0.5877856 0.8090167 0
v 0.1624556 -0.4999953 0.8506544
v -0.2628688 -0.8090116 0.5257376
v -0.5877856 -0.8090167 0
v 0 0 1
v -0.4253227 0.3090114 0.8506542
v -0.7236073 0.5257253 0.4472195
v -0.9510579 0.3090126 0
v -0.4253227 -0.3090114 0.8506542
v -0.7236073 -0.5257253 0.4472195
v -0.9510579 -0.3090126 0
v -0.8506479 0 0.5257359
vt 0.6744515 0.4924306
vt 0.9826354 0.5813956
vt 0.8799074 0.4924306
vt 0.9826354 0.4034656
vt 0.9772271 0.5797389
vt 0.9772271 0.4018088
vt 0.8744992 0.4907739
vt 0.6690432 0.4907739
vt 0.6729814 0.4916527
vt 0.9811653 0.5806177
vt 0.8784374 0.4916527
vt 0.9811653 0.4026877
vt 0.6744221 0.4911523
vt 0.9826059 0.5801173
vt 0.8798782 0.4911523
vt 0.9826061 0.4021872
vt 0.975392 0.4007344
vt 0.6672082 0.4896995
vt 0.8726641 0.4896995
vt 0.9753921 0.5786644
vt 0.972927 0.5796976
vt 0.9729272 0.4017676
vt 0.8701992 0.4907326
vt 0.6647433 0.4907324
vt 0.6759816 0.4892488
vt 0.9841654 0.5782137
vt 0.8814374 0.4892488
vt 0.9841654 0.4002837
vt 0.6643283 0.4894955
vt 0.9725121 0.5784606
vt 0.8697844 0.4894956
vt 0.9725124 0.4005306
vt 0.9806141 0.4002174
vt 0.6724302 0.4891824
vt 0.8778859 0.4891825
vt 0.9806137 0.5781475
vt 0.9826356 0.403945
vt 0.6744516 0.49291
vt 0.8799075 0.49291
vt 0.9826355 0.5818751
vt 0.6707113 0.4905438
vt 0.9788952 0.5795088
vt 0.8761672 0.4905438
vt 0.9788952 0.4015788
vt 0.9806874 0.578899
vt 0.9806873 0.400969
vt 0.8779594 0.489934
vt 0.6725036 0.4899341
vt 0.6666442 0.4898087
vt 0.9748281 0.5787737
vt 0.8721 0.4898087
vt 0.974828 0.4008437
vt 0.9768121 0.5794257
vt 0.976812 0.4014956
vt 0.8740841 0.4904607
vt 0.6686281 0.4904607
vt 0.3226804 0.3598423
vt 0.3456942 0.4755357
vt 0.5000001 0.3741845
vt 0.09550563 0.3846498
vt 0.6543059 0.4755356
vt 0.2406035 0.2799534
vt 0.0001378792 0.2378943
vt 0.6773198 0.3598423
vt 0.9044945 0.3846498
vt 0.4189832 0.2935668
vt 0.2130882 0.1912002
vt 0.09570075 0.09083802
vt 0.7593965 0.2799534
vt 0.9998621 0.2378943
vt 0.5810169 0.2935668
vt 0.368911 0.2165148
vt 0.3396839 0.1274826
vt 0.345378 0.0001378792
vt 0.7869118 0.1912002
vt 0.9042993 0.09083805
vt 0.6310891 0.2165148
vt 0.5000001 0.2378111
vt 0.6603162 0.1274827
vt 0.6546221 0.000137909
vt 0.5000001 0.08697209
vt 0.5000001 0.168893
vt 0.6546221 0.50288
vt 0.5 0.5897142
vt 0.6603162 0.6302248
vt 0.9042993 0.5935802
vt 0.3453779 0.5028801
vt 0.3396838 0.6302248
vt 0.09570069 0.5935802
vt 0.5 0.6716351
vt 0.7869118 0.6939424
vt 0.9998621 0.7406364
vt 0.2130882 0.6939424
vt 0.0001378792 0.7406364
vt 0.631089 0.7192569
vt 0.7593965 0.7826955
vt 0.9044944 0.8873919
vt 0.3689109 0.7192569
vt 0.2406035 0.7826955
vt 0.09550563 0.887392
vt 0.5 0.7405533
vt 0.5810168 0.7963089
vt 0.6773197 0.8625845
vt 0.6543059 0.9782777
vt 0.4189832 0.7963089
vt 0.3226803 0.8625845
vt 0.3456942 0.9782777
vt 0.5 0.8769267
vn 0.3353496 -0.4710399 0.8158812
vn 0.3353444 0.9420956 0
vn 1 0 0
vn 0.3353496 -0.4710399 -0.8158812
vn 0 0.9420956 0.3353444
vn 0.8158812 -0.4710399 0.3353496
vn 0 0 1
vn -0.8158812 -0.4710399 0.3353496
vn -0.3353496 -0.4710399 -0.8158812
vn -0.3353444 0.9420956 0
vn -1 0 0
vn -0.3353496 -0.4710399 0.8158812
vn 0 0.9420956 -0.3353444
vn -0.8158812 -0.4710399 -0.3353496
vn 0 0 -1
vn 0.8158812 -0.4710399 -0.3353496
vn -0.9087001 -0.2425337 0.3397669
vn 0.4984692 -0.8338441 -0.2371338
vn -0.5000006 -0.5000006 -0.7071058
vn -0.09280963 0.5733383 -0.8140452
vn 0.4984692 -0.8338441 0.2371338
vn -0.9087001 -0.2425337 -0.3397669
vn -0.5000006 -0.5000006 0.7071058
vn -0.09280963 0.5733383 0.8140452
vn 0.2425337 0.9087001 -0.3397669
vn 0.8338441 -0.4984692 0.2371338
vn 0.5000006 0.5000006 0.7071058
vn -0.5733383 0.09280963 0.8140452
vn 0.8338441 -0.4984692 -0.2371338
vn 0.2425337 0.9087001 0.3397669
vn 0.5000006 0.5000006 -0.7071058
vn -0.5733383 0.09280963 -0.8140452
vn 0.2425337 -0.9087001 0.3397669
vn 0.8338441 0.4984692 -0.2371338
vn 0.5000006 -0.5000006 -0.7071058
vn -0.5733383 -0.09280963 -0.8140452
vn 0.8338441 0.4984692 0.2371338
vn 0.2425337 -0.9087001 -0.3397669
vn 0.5000006 -0.5000006 0.7071058
vn -0.5733383 -0.09280963 0.8140452
vn -0.9087001 0.2425337 -0.3397669
vn 0.4984692 0.8338441 0.2371338
vn -0.5000006 0.5000006 0.7071058
vn -0.09280963 -0.5733383 0.8140452
vn 0.4984692 0.8338441 -0.2371338
vn -0.9087001 0.2425337 0.3397669
vn -0.5000006 0.5000006 -0.7071058
vn -0.09280963 -0.5733383 -0.8140452
vn 0.4710399 0.3353496 0.8158812
vn -0.9420956 0.3353444 0
vn 0 1 0
vn 0.4710399 0.3353496 -0.8158812
vn 0.4710399 -0.3353496 -0.8158812
vn -0.9420956 -0.3353444 0
vn 0 -1 0
vn 0.4710399 -0.3353496 0.8158812
vn 0.7236163 -0.5257282 -0.4472016
vn 0.9510608 -0.3090039 0
vn 0.8506571 0 -0.5257209
vn 0.5877669 -0.8090302 0
vn 0.9510608 0.3090039 0
vn 0.2628661 -0.809016 -0.5257322
vn 0 -1 0
vn 0.7236163 0.5257282 -0.4472016
vn 0.5877669 0.8090302 0
vn 0.4253148 -0.3090063 -0.85066
vn -0.2763784 -0.8506508 -0.4472227
vn -0.5877669 -0.8090302 0
vn 0.2628661 0.809016 -0.5257322
vn 0 1 0
vn 0.4253148 0.3090063 -0.85066
vn -0.1624527 -0.4999929 -0.8506563
vn -0.6881878 -0.5000036 -0.5257317
vn -0.9510608 -0.3090039 0
vn -0.2763784 0.8506508 -0.4472227
vn -0.5877669 0.8090302 0
vn -0.1624527 0.4999929 -0.8506563
vn 0 0 -1
vn -0.6881878 0.5000036 -0.5257317
vn -0.9510608 0.3090039 0
vn -0.8944333 0 -0.4472014
vn -0.5257209 0 -0.8506571
vn 0.9510608 0.3090039 0
vn 0.8944333 0 0.4472014
vn 0.6881878 0.5000036 0.5257317
vn 0.5877669 0.8090302 0
vn 0.9510608 -0.3090039 0
vn 0.6881878 -0.5000036 0.5257317
vn 0.5877669 -0.8090302 0
vn 0.5257209 0 0.8506571
vn 0.2763784 0.8506508 0.4472227
vn 0 1 0
vn 0.2763784 -0.8506508 0.4472227
vn 0 -1 0
vn 0.1624527 0.4999929 0.8506563
vn -0.2628661 0.809016 0.5257322
vn -0.5877669 0.8090302 0
vn 0.1624527 -0.4999929 0.8506563
vn -0.2628661 -0.809016 0.5257322
vn -0.5877669 -0.8090302 0
vn 0 0 1
vn -0.4253148 0.3090063 0.85066
vn -0.7236163 0.5257282 0.4472016
vn -0.9510608 0.3090039 0
vn -0.4253148 -0.3090063 0.85066
vn -0.7236163 -0.5257282 0.4472016
vn -0.9510608 -0.3090039 0
vn -0.8506571 0 0.5257209
g BellBallMesh_0
f 3/3/3 2/2/2 1/1/1
f 3/3/3 1/1/1 4/4/4
f 3/3/3 4/4/4 2/2/2
f 7/7/7 6/6/6 5/5/5
f 7/7/7 5/5/5 8/8/8
f 7/7/7 8/8/8 6/6/6
f 11/11/11 10/10/10 9/9/9
f 11/11/11 9/9/9 12/12/12
f 11/11/11 12/12/12 10/10/10
f 15/15/15 14/14/14 13/13/13
f 15/15/15 13/13/13 16/16/16
f 15/15/15 16/16/16 14/14/14
f 19/19/19 18/18/18 17/17/17
f 19/19/19 17/17/17 20/20/20
f 19/19/19 20/20/20 18/18/18
f 23/23/23 22/22/22 21/21/21
f 23/23/23 21/21/21 24/24/24
f 23/23/23 24/24/24 22/22/22
f 27/27/27 26/26/26 25/25/25
f 27/27/27 25/25/25 28/28/28
f 27/27/27 28/28/28 26/26/26
f 31/31/31 30/30/30 29/29/29
f 31/31/31 29/29/29 32/32/32
f 31/31/31 32/32/32 30/30/30
f 35/35/35 34/34/34 33/33/33
f 35/35/35 33/33/33 36/36/36
f 35/35/35 36/36/36 34/34/34
f 39/39/39 38/38/38 37/37/37
f 39/39/39 37/37/37 40/40/40
f 39/39/39 40/40/40 38/38/38
f 43/43/43 42/42/42 41/41/41
f 43/43/43 41/41/41 44/44/44
f 43/43/43 44/44/44 42/42/42
f 47/47/47 46/46/46 45/45/45
f 47/47/47 45/45/45 48/48/48
f 47/47/47 48/48/48 46/46/46
f 51/51/51 50/50/50 49/49/49
f 51/51/51 49/49/49 52/52/52
f 51/51/51 52/52/52 50/50/50
f 55/55/55 54/54/54 53/53/53
f 55/55/55 53/53/53 56/56/56
f 55/55/55 56/56/56 54/54/54
f 59/59/59 58/58/58 57/57/57
f 58/58/58 60/60/60 57/57/57
f 59/59/59 61/61/61 58/58/58
f 57/57/57 60/60/60 62/62/62
f 62/62/62 60/60/60 63/63/63
f 64/64/64 61/61/61 59/59/59
f 65/65/65 61/61/61 64/64/64
f 66/66/66 59/59/59 57/57/57
f 57/57/57 62/62/62 66/66/66
f 62/62/62 63/63/63 67/67/67
f 63/63/63 68/68/68 67/67/67
f 69/69/69 65/65/65 64/64/64
f 69/69/69 70/70/70 65/65/65
f 71/71/71 64/64/64 59/59/59
f 66/66/66 71/71/71 59/59/59
f 69/69/69 64/64/64 71/71/71
f 62/62/62 67/67/67 72/72/72
f 66/66/66 62/62/62 72/72/72
f 67/67/67 68/68/68 73/73/73
f 67/67/67 73/73/73 72/72/72
f 73/73/73 68/68/68 74/74/74
f 75/75/75 70/70/70 69/69/69
f 76/76/76 70/70/70 75/75/75
f 77/77/77 69/69/69 71/71/71
f 75/75/75 69/69/69 77/77/77
f 78/78/78 71/71/71 66/66/66
f 66/66/66 72/72/72 78/78/78
f 77/77/77 71/71/71 78/78/78
f 79/79/79 76/76/76 75/75/75
f 79/79/79 75/75/75 77/77/77
f 79/79/79 80/80/80 76/76/76
f 74/74/74 80/80/80 81/81/81
f 73/73/73 74/74/74 81/81/81
f 81/81/81 80/80/80 79/79/79
f 72/72/72 82/82/82 78/78/78
f 82/82/82 77/77/77 78/78/78
f 72/72/72 73/73/73 82/82/82
f 82/82/82 79/79/79 77/77/77
f 81/81/81 79/79/79 82/82/82
f 73/73/73 81/81/81 82/82/82
f 85/85/85 84/84/84 83/83/83
f 86/86/86 85/85/85 83/83/83
f 83/83/83 84/84/84 87/87/87
f 84/84/84 88/88/88 87/87/87
f 87/87/87 88/88/88 89/89/89
f 85/85/85 90/90/90 84/84/84
f 84/84/84 90/90/90 88/88/88
f 91/91/91 85/85/85 86/86/86
f 92/92/92 91/91/91 86/86/86
f 88/88/88 93/93/93 89/89/89
f 89/89/89 93/93/93 94/94/94
f 91/91/91 95/95/95 85/85/85
f 85/85/85 95/95/95 90/90/90
f 96/96/96 91/91/91 92/92/92
f 96/96/96 95/95/95 91/91/91
f 97/97/97 96/96/96 92/92/92
f 88/88/88 98/98/98 93/93/93
f 88/88/88 90/90/90 98/98/98
f 93/93/93 99/99/99 94/94/94
f 93/93/93 98/98/98 99/99/99
f 94/94/94 99/99/99 100/100/100
f 95/95/95 101/101/101 90/90/90
f 90/90/90 101/101/101 98/98/98
f 96/96/96 102/102/102 95/95/95
f 102/102/102 101/101/101 95/95/95
f 103/103/103 96/96/96 97/97/97
f 103/103/103 102/102/102 96/96/96
f 104/104/104 103/103/103 97/97/97
f 98/98/98 101/101/101 105/105/105
f 99/99/99 98/98/98 105/105/105
f 105/105/105 101/101/101 102/102/102
f 99/99/99 106/106/106 100/100/100
f 99/99/99 105/105/105 106/106/106
f 100/100/100 106/106/106 107/107/107
f 108/108/108 102/102/102 103/103/103
f 108/108/108 103/103/103 104/104/104
f 108/108/108 105/105/105 102/102/102
f 107/107/107 108/108/108 104/104/104
f 106/106/106 105/105/105 108/108/108
f 106/106/106 108/108/108 107/107/107
