g ClayBossShatteredDonut
v 0.04587996 0.07765583 -0.007238626
v -0.03809047 0.08480664 0.008775234
v -0.03126705 0.0730712 0.04877299
v 0.05274451 0.06642272 0.03275913
v 0.07291174 0.1524873 -0.01143038
v -0.02775574 0.04242298 0.07805339
v 0.08648968 0.1299546 0.06770277
v 0.01792014 0.2051786 0.0007683039
v 0.05635321 0.03714806 0.06203955
v -0.02848864 0.001073405 0.08877078
v 0.03160894 0.1754049 0.1021631
v -0.05442071 0.1689573 0.01296699
v 0.09375525 0.07274104 0.1256323
v 0.05571711 -0.002323002 0.07275692
v -0.0332768 -0.04011218 0.07805339
v -0.04102874 0.1449169 0.09210014
v -0.03809047 0.08480664 0.008775234
v -0.03126705 0.0730712 0.04877299
v 0.03857267 0.09973565 0.1763892
v -0.03418005 0.0835738 0.1500297
v -0.02775574 0.04242298 0.07805339
v 0.09261978 -0.003811449 0.1468358
v 0.05098379 -0.04162839 0.06203955
v -0.04084694 -0.0703134 0.04877299
v -0.03566909 0.001363032 0.1712333
v -0.02848864 0.001073405 0.08877078
v 0.03692877 -0.001565181 0.2035578
v 0.08419907 -0.08003187 0.1256322
v 0.04342711 -0.07045269 0.03275913
v -0.04811919 -0.08143751 0.008775234
v -0.04419315 -0.08052576 0.1500297
v -0.0332768 -0.04011218 0.07805339
v 0.02884758 -0.1024451 0.1763892
v 0.07710063 -0.1363466 0.06770277
v 0.03615415 -0.08107276 -0.007238626
v -0.05604768 -0.07028828 -0.03122252
v -0.05120862 -0.1409901 0.09210014
v -0.04084694 -0.0703134 0.04877299
v 0.01978981 -0.1772607 0.1021631
v 0.06349099 -0.1576658 -0.01143038
v 0.02822638 -0.07042757 -0.04723638
v -0.05960119 -0.03963848 -0.06050295
v -0.06475413 -0.1638271 0.01296699
v -0.04811919 -0.08143751 0.008775234
v 0.0024122 -0.205964 0.0007683039
v 0.0470463 -0.1374343 -0.09056354
v 0.02465951 -0.0411547 -0.07651687
v -0.05886567 0.002298638 -0.07122034
v -0.08126307 -0.1420777 -0.0661661
v -0.05604768 -0.07028828 -0.03122252
v -0.01868033 -0.1794825 -0.1006265
v 0.03210998 -0.08023223 -0.1484931
v 0.02534008 -0.001097754 -0.0872342
v -0.05403268 0.04407097 -0.06050295
v -0.09628212 -0.0807261 -0.1240956
v -0.05960119 -0.03963848 -0.06050295
v -0.03788686 -0.103531 -0.1748527
v 0.03252077 -0.001387395 -0.1696967
v 0.03007627 0.03879604 -0.07651687
v -0.04642057 0.0742704 -0.03122258
v -0.09576833 0.0037871 -0.1452993
v -0.05886567 0.002298638 -0.07122034
v -0.04007733 0.001540817 -0.2020214
v 0.04185152 0.07713591 -0.1484931
v 0.03759098 0.06762194 -0.04723638
v -0.03809047 0.08480664 0.008775234
v 0.04587996 0.07765583 -0.007238626
v 0.05662072 0.1334593 -0.09056354
v 0.07291174 0.1524873 -0.01143038
v -0.02785754 0.1061927 -0.1748527
v -0.08608389 0.08796867 -0.1240956
v -0.05403268 0.04407097 -0.06050295
v -0.006556392 0.1807236 -0.1006265
v 0.01792014 0.2051786 0.0007683039
v -0.07089782 0.1484215 -0.06616616
v -0.04642057 0.0742704 -0.03122258
v -0.05442071 0.1689573 0.01296699
v -0.03809047 0.08480664 0.008775234
vt 0.03183161 0.9254452
vt 0.03295833 0.9254452
vt 0.03295833 0.9118892
vt 0.03183161 0.9118892
vt 0.03074438 0.9254452
vt 0.03295833 0.8983333
vt 0.03074438 0.9118892
vt 0.02969987 0.9254452
vt 0.03183161 0.8983331
vt 0.03295833 0.8847775
vt 0.02969987 0.9118892
vt 0.02865536 0.9254452
vt 0.03074438 0.8983331
vt 0.03183161 0.8847775
vt 0.03295833 0.8712215
vt 0.02865536 0.9118892
vt 0.02756813 0.9254452
vt 0.02756813 0.9118892
vt 0.02969987 0.8983331
vt 0.02865536 0.8983331
vt 0.02756813 0.8983333
vt 0.03074438 0.8847775
vt 0.03183161 0.8712215
vt 0.03295833 0.8576654
vt 0.02865536 0.8847775
vt 0.02756813 0.8847775
vt 0.02969987 0.8847775
vt 0.03074438 0.8712215
vt 0.03183161 0.8576654
vt 0.03295833 0.8441097
vt 0.02865536 0.8712215
vt 0.02756814 0.8712215
vt 0.02969987 0.8712215
vt 0.03074438 0.8576654
vt 0.03183161 0.8441098
vt 0.03295833 0.8305537
vt 0.02865536 0.8576654
vt 0.02756814 0.8576654
vt 0.02969987 0.8576654
vt 0.03074438 0.8441098
vt 0.03183161 0.8305537
vt 0.03295833 0.8169979
vt 0.02865536 0.8441098
vt 0.02756814 0.8441097
vt 0.02969987 0.8441098
vt 0.03074438 0.8305537
vt 0.03183161 0.8169979
vt 0.03295833 0.8034419
vt 0.02865536 0.8305537
vt 0.02756814 0.8305537
vt 0.02969987 0.8305537
vt 0.03074438 0.8169979
vt 0.03183161 0.8034419
vt 0.03295833 0.789886
vt 0.02865536 0.8169979
vt 0.02756814 0.8169979
vt 0.02969987 0.8169979
vt 0.03074438 0.8034419
vt 0.03183161 0.789886
vt 0.03295833 0.7763302
vt 0.02865536 0.8034419
vt 0.02756814 0.8034419
vt 0.02969987 0.8034419
vt 0.03074438 0.789886
vt 0.03183161 0.7763302
vt 0.03295833 0.7627741
vt 0.03183161 0.7627741
vt 0.03074438 0.7763302
vt 0.03074438 0.7627741
vt 0.02969987 0.789886
vt 0.02865536 0.789886
vt 0.02756814 0.789886
vt 0.02969987 0.7763302
vt 0.02969987 0.7627741
vt 0.02865536 0.7763302
vt 0.02756814 0.7763302
vt 0.02865536 0.7627741
vt 0.02756814 0.7627741
vn 0.5813671 -0.8042821 -0.1230549
vn -0.7048991 -0.6987342 0.1220153
vn -0.7631002 -0.5972593 -0.2468997
vn 0.5208462 -0.6969133 -0.4929819
vn 0.9332009 0.3177607 -0.1678224
vn -0.7905755 -0.3235671 -0.5198986
vn 0.9619926 0.2716505 0.02786394
vn 0.1384341 0.9903715 -0.0005188227
vn 0.496183 -0.4165581 -0.7617621
vn -0.7854179 0.05176098 -0.616798
vn 0.1887033 0.8515303 0.4891698
vn -0.8402714 0.5143927 0.1713015
vn 0.9730684 0.1423102 0.181344
vn 0.5023676 -0.03405882 -0.8639831
vn -0.7615063 0.3965619 -0.5126861
vn -0.8125133 0.441308 0.3808799
vn -0.7048991 -0.6987342 0.1220153
vn -0.7631002 -0.5972593 -0.2468997
vn 0.201762 0.4891301 0.8485539
vn -0.8056679 0.2697258 0.5273967
vn -0.7905755 -0.3235671 -0.5198986
vn 0.9692277 -0.05527021 0.2398807
vn 0.5245299 0.3748342 -0.7644395
vn -0.736793 0.6307086 -0.2436038
vn -0.8119882 0.04617523 0.5818445
vn -0.7854179 0.05176098 -0.616798
vn 0.1885179 -0.009857742 0.9820203
vn 0.9579081 -0.2206848 0.1836039
vn 0.5492263 0.6812835 -0.4839454
vn -0.673166 0.7284366 0.1273879
vn -0.8289223 -0.2007835 0.5220859
vn -0.7615063 0.3965619 -0.5126861
vn 0.1584875 -0.503052 0.8496002
vn 0.9476331 -0.3176681 0.03283802
vn 0.6148108 0.779859 -0.1175908
vn -0.5977588 0.6257148 0.501164
vn -0.8351759 -0.4023286 0.3749838
vn -0.736793 0.6307086 -0.2436038
vn 0.1325146 -0.8617725 0.4896816
vn 0.9165226 -0.362019 -0.1700836
vn 0.6921176 0.6763086 0.2521508
vn -0.5206596 0.3812168 0.763929
vn -0.8655929 -0.4713731 0.1689862
vn -0.673166 0.7284366 0.1273879
vn 0.05121163 -0.9986878 9.155834E-05
vn 0.8701315 -0.3202375 -0.3745921
vn 0.7713114 0.3587835 0.5256929
vn -0.5041816 0.03296103 0.8629684
vn -0.9136966 -0.4045852 -0.03833137
vn -0.5977588 0.6257148 0.501164
vn -0.054049 -0.8685378 -0.4926668
vn 0.8204486 -0.2180599 -0.5285016
vn 0.7829415 -0.05212693 0.6199075
vn -0.5469906 -0.3359828 0.7667574
vn -0.9617286 -0.1990173 -0.1883355
vn -0.5206596 0.3812168 0.763929
vn -0.1643448 -0.4975511 -0.851724
vn 0.8143829 -0.04681695 -0.5784365
vn 0.7397596 -0.4288585 0.518494
vn -0.6250312 -0.6048886 0.4934023
vn -0.9686936 0.05398755 -0.2423183
vn -0.5041816 0.03296103 0.8629684
vn -0.1844557 0.009277716 -0.982797
vn 0.8396856 0.1471044 -0.5227701
vn 0.6640467 -0.7049431 0.249193
vn -0.7048991 -0.6987342 0.1220153
vn 0.5813671 -0.8042821 -0.1230549
vn 0.8864612 0.2800443 -0.3684585
vn 0.9332009 0.3177607 -0.1678224
vn -0.1209175 0.5079938 -0.8528314
vn -0.9424573 0.2749762 -0.1901639
vn -0.5469906 -0.3359828 0.7667574
vn 0.003357117 0.8702258 -0.4926417
vn 0.1384341 0.9903715 -0.0005188227
vn -0.8918669 0.4502519 -0.04297124
vn -0.6250312 -0.6048886 0.4934023
vn -0.8402714 0.5143927 0.1713015
vn -0.7048991 -0.6987342 0.1220153
g ClayBossShatteredDonut_0
f 3/3/3 2/2/2 1/1/1
f 4/4/4 3/3/3 1/1/1
f 4/4/4 1/1/1 5/5/5
f 6/6/6 3/3/3 4/4/4
f 7/7/7 4/4/4 5/5/5
f 7/7/7 5/5/5 8/8/8
f 9/9/9 6/6/6 4/4/4
f 9/9/9 4/4/4 7/7/7
f 10/10/10 6/6/6 9/9/9
f 11/11/11 7/7/7 8/8/8
f 11/11/11 8/8/8 12/12/12
f 13/13/13 9/9/9 7/7/7
f 13/13/13 7/7/7 11/11/11
f 14/14/14 10/10/10 9/9/9
f 14/14/14 9/9/9 13/13/13
f 15/15/15 10/10/10 14/14/14
f 16/16/16 11/11/11 12/12/12
f 16/16/16 12/12/12 17/17/17
f 18/18/18 16/16/16 17/17/17
f 19/19/19 13/13/13 11/11/11
f 19/19/19 11/11/11 16/16/16
f 20/20/20 16/16/16 18/18/18
f 20/20/20 19/19/19 16/16/16
f 21/21/21 20/20/20 18/18/18
f 22/22/22 14/14/14 13/13/13
f 22/22/22 13/13/13 19/19/19
f 23/23/23 15/15/15 14/14/14
f 23/23/23 14/14/14 22/22/22
f 24/24/24 15/15/15 23/23/23
f 25/25/25 20/20/20 21/21/21
f 26/26/26 25/25/25 21/21/21
f 27/27/27 19/19/19 20/20/20
f 27/27/27 22/22/22 19/19/19
f 25/25/25 27/27/27 20/20/20
f 28/28/28 23/23/23 22/22/22
f 28/28/28 22/22/22 27/27/27
f 29/29/29 24/24/24 23/23/23
f 29/29/29 23/23/23 28/28/28
f 30/30/30 24/24/24 29/29/29
f 31/31/31 25/25/25 26/26/26
f 32/32/32 31/31/31 26/26/26
f 33/33/33 27/27/27 25/25/25
f 33/33/33 28/28/28 27/27/27
f 31/31/31 33/33/33 25/25/25
f 34/34/34 29/29/29 28/28/28
f 34/34/34 28/28/28 33/33/33
f 35/35/35 30/30/30 29/29/29
f 35/35/35 29/29/29 34/34/34
f 36/36/36 30/30/30 35/35/35
f 37/37/37 31/31/31 32/32/32
f 38/38/38 37/37/37 32/32/32
f 39/39/39 33/33/33 31/31/31
f 39/39/39 34/34/34 33/33/33
f 37/37/37 39/39/39 31/31/31
f 40/40/40 35/35/35 34/34/34
f 40/40/40 34/34/34 39/39/39
f 41/41/41 36/36/36 35/35/35
f 41/41/41 35/35/35 40/40/40
f 42/42/42 36/36/36 41/41/41
f 43/43/43 37/37/37 38/38/38
f 44/44/44 43/43/43 38/38/38
f 45/45/45 39/39/39 37/37/37
f 45/45/45 40/40/40 39/39/39
f 43/43/43 45/45/45 37/37/37
f 46/46/46 41/41/41 40/40/40
f 46/46/46 40/40/40 45/45/45
f 47/47/47 42/42/42 41/41/41
f 47/47/47 41/41/41 46/46/46
f 48/48/48 42/42/42 47/47/47
f 49/49/49 43/43/43 44/44/44
f 50/50/50 49/49/49 44/44/44
f 51/51/51 45/45/45 43/43/43
f 51/51/51 46/46/46 45/45/45
f 49/49/49 51/51/51 43/43/43
f 52/52/52 47/47/47 46/46/46
f 52/52/52 46/46/46 51/51/51
f 53/53/53 48/48/48 47/47/47
f 53/53/53 47/47/47 52/52/52
f 54/54/54 48/48/48 53/53/53
f 55/55/55 49/49/49 50/50/50
f 56/56/56 55/55/55 50/50/50
f 57/57/57 51/51/51 49/49/49
f 57/57/57 52/52/52 51/51/51
f 55/55/55 57/57/57 49/49/49
f 58/58/58 53/53/53 52/52/52
f 58/58/58 52/52/52 57/57/57
f 59/59/59 54/54/54 53/53/53
f 59/59/59 53/53/53 58/58/58
f 60/60/60 54/54/54 59/59/59
f 61/61/61 55/55/55 56/56/56
f 62/62/62 61/61/61 56/56/56
f 63/63/63 57/57/57 55/55/55
f 63/63/63 58/58/58 57/57/57
f 61/61/61 63/63/63 55/55/55
f 64/64/64 59/59/59 58/58/58
f 64/64/64 58/58/58 63/63/63
f 65/65/65 60/60/60 59/59/59
f 65/65/65 59/59/59 64/64/64
f 66/66/66 60/60/60 65/65/65
f 67/67/67 66/66/66 65/65/65
f 67/67/67 65/65/65 68/68/68
f 68/68/68 65/65/65 64/64/64
f 69/69/69 67/67/67 68/68/68
f 70/70/70 64/64/64 63/63/63
f 70/70/70 63/63/63 61/61/61
f 68/68/68 64/64/64 70/70/70
f 71/71/71 61/61/61 62/62/62
f 71/71/71 70/70/70 61/61/61
f 72/72/72 71/71/71 62/62/62
f 69/69/69 68/68/68 73/73/73
f 73/73/73 68/68/68 70/70/70
f 73/73/73 70/70/70 71/71/71
f 74/74/74 69/69/69 73/73/73
f 75/75/75 71/71/71 72/72/72
f 75/75/75 73/73/73 71/71/71
f 74/74/74 73/73/73 75/75/75
f 76/76/76 75/75/75 72/72/72
f 77/77/77 74/74/74 75/75/75
f 77/77/77 75/75/75 76/76/76
f 78/78/78 77/77/77 76/76/76
