g ClayBossShattered_cell.006
v 0.2837082 0.8607303 0.07309954
v 0.2598054 0.9807914 -0.03887783
v 0.3098021 0.7295744 -0.07649787
v 0.2837082 0.8607303 0.07309954
v 0.2633885 0.9626281 0.0454414
v 0.2598054 0.9807914 -0.03887783
v 0.5999078 -0.7291467 0.08309458
v 0.6049697 -0.754716 -0.06633438
v 0.6010959 -0.7354401 0.08238733
v -0.1024991 -0.5323591 -0.06751885
v 0.6049697 -0.754716 -0.06633438
v 0.4513679 -0.7075218 -0.07548769
v -0.08857592 -0.5184357 0.08328088
v 0.4513679 -0.6875131 0.08930218
v 0.6010959 -0.7354401 0.08238733
v -0.08857592 -0.5184357 0.08328088
v 0.0599125 -0.5643464 0.08978985
v 0.4513679 -0.6875131 0.08930218
v 0.04879333 -0.5809875 -0.0761358
v 0.06163865 -0.5850715 -0.07649787
v 0.1841264 -0.6236702 -0.07711791
v 0.2468354 -0.2845968 -0.08571155
v -0.05926902 -0.4891291 -0.07649787
v -0.1024991 -0.5323591 -0.06751885
v -0.2876088 -0.4722606 -0.0520281
v 0.3104835 -0.3186174 -0.08571155
v 0.3795456 -0.3395672 -0.08571155
v 0.3148565 -0.6647812 -0.07708152
v 0.4189521 -0.6974493 -0.07649811
v 0.4513679 0.01774127 -0.08988155
v 0.1910475 -0.2388127 -0.08571155
v 0.4513679 -0.3466411 -0.08571155
v 0.5224423 -0.3396408 -0.08571155
v 0.1452634 -0.1830248 -0.08571155
v 0.5914919 -0.6868409 -0.07649808
v -0.1490776 -0.379697 -0.07649787
v 0.4513679 -0.700642 -0.07649811
v 0.4513679 -0.7075218 -0.07548769
v 0.6049697 -0.754716 -0.06633438
v -0.2158113 -0.2548468 -0.07649787
v 0.1112429 -0.1193767 -0.08571155
v -0.5172263 -0.3796971 -0.02858217
v -0.5059811 -0.4007352 -0.02858217
v -0.5099143 -0.3933768 0.02185445
v -0.5172263 -0.3796971 0.02185445
v -0.5768862 -0.1830247 -0.02858217
v -0.5768862 -0.1830247 0.02185445
v -0.2569057 -0.1193766 -0.07649787
v -0.5970308 0.02150776 -0.02858217
v -0.5970308 0.02150776 0.02185445
v 0.0902931 -0.05031457 -0.08571155
v -0.2707816 0.02150778 -0.07649787
v -0.5768861 0.2260402 -0.02858217
v -0.5768861 0.2260402 0.02185445
v -0.517226 0.4227125 -0.02858193
v -0.517226 0.4227125 0.02185468
v -0.4867463 0.479736 0.02185468
v -0.4766923 0.4985456 -0.02858193
v -0.3699096 0.5702679 -0.03749047
v 0.08321922 0.02150765 -0.08571155
v -0.2569057 0.1623921 -0.07649787
v -0.2158112 0.2978624 -0.07649787
v 0.0902931 0.09332988 -0.08571155
v -0.1490774 0.4227124 -0.07649787
v -0.2061375 0.6790133 -0.0459926
v 0.1112429 0.162392 -0.08571155
v 0.1452635 0.22604 -0.08571155
v 0.1910475 0.281828 -0.08571155
v -0.05926884 0.5321444 -0.07649787
v -0.05444775 0.7785144 -0.04884316
v 0.05016323 0.621953 -0.07649787
v 0.09713242 0.876708 -0.04660811
v 0.1750133 0.6886867 -0.07649787
v 0.2598054 0.9807914 -0.03887783
v 0.3098021 0.7295744 -0.07649787
v 0.2468355 0.327612 -0.08571155
v 0.3104835 0.3616326 -0.08571155
v 0.3788519 0.3823719 -0.08571155
v 0.4503014 0.02310367 -0.08990268
v 0.4503014 0.02310367 -0.08990268
v 0.4513679 0.01774127 -0.08988155
v -0.08857592 -0.5184357 0.08328088
v -0.2473453 -0.4697373 0.07309942
v -0.2602674 -0.4539916 0.07309942
v -0.01962341 -0.2931983 0.1050315
v -0.3393589 -0.3060219 0.07309942
v 0.05082267 -0.3790371 0.1050315
v -0.07196958 -0.1952655 0.1050315
v 0.1366616 -0.4494833 0.1050315
v -0.3880632 -0.1454654 0.07309942
v 0.0599125 -0.5643464 0.08978985
v -0.1042042 -0.08900218 0.1050315
v 0.2345944 -0.5018294 0.1050315
v -0.4045085 0.02150784 0.07309942
v 0.1916787 -0.6054372 0.09265852
v -0.1150884 0.02150798 0.1050315
v 0.3408577 -0.5340641 0.1050315
v -0.3880631 0.188481 0.07309942
v 0.3187106 -0.6454052 0.09250646
v -0.1042041 0.1320181 0.1050315
v 0.4513679 -0.5449483 0.1050315
v -0.3393587 0.3490375 0.07309954
v -0.07196946 0.2382814 0.1050317
v -0.2602671 0.4970073 0.07309954
v -0.01962323 0.3362142 0.1050317
v -0.153828 0.6267038 0.07309954
v 0.05082288 0.422053 0.1050317
v -0.02413142 0.733143 0.07309954
v 0.1366617 0.4924991 0.1050317
v 0.4513679 -0.6875131 0.08930218
v 0.5611258 -0.5341382 0.1050315
v 0.5999078 -0.7291467 0.08309458
v 0.6010959 -0.7354401 0.08238733
v 0.1238384 0.8122343 0.07309954
v 0.2345946 0.5448452 0.1050317
v 0.3401734 0.5768722 0.1050317
v 0.2837082 0.8607303 0.07309954
v 0.5914919 -0.6868409 -0.07649808
v 0.6049697 -0.754716 -0.06633438
v 0.5999078 -0.7291467 0.08309458
v 0.5611258 -0.5341382 0.1050315
v 0.5224423 -0.3396408 -0.08571155
v 0.3401734 0.5768722 0.1050317
v 0.4513679 0.01774127 -0.08988155
v 0.4503014 0.02310367 -0.08990268
v 0.3788519 0.3823719 -0.08571155
v 0.3098021 0.7295744 -0.07649787
v 0.2837082 0.8607303 0.07309954
v -0.2061375 0.6790133 -0.0459926
v -0.05444775 0.7785144 -0.04884316
v 0.09713242 0.876708 -0.04660811
v 0.2598054 0.9807914 -0.03887783
v -0.3699096 0.5702679 -0.03749047
v 0.2633885 0.9626281 0.0454414
v -0.4766923 0.4985456 -0.02858193
v -0.4867463 0.479736 0.02185468
v -0.3551311 0.5603933 0.04273097
v -0.1906467 0.6635225 0.05923983
v 0.10562 0.8562173 0.06042774
v -0.04159409 0.7592776 0.06473309
v -0.2726441 -0.4622614 0.06913731
v -0.2602674 -0.4539916 0.07309942
v -0.2473453 -0.4697373 0.07309942
v -0.3393589 -0.3060219 0.07309942
v -0.5099143 -0.3933768 0.02185445
v -0.5172263 -0.3796971 0.02185445
v -0.5768862 -0.1830247 0.02185445
v -0.3880632 -0.1454654 0.07309942
v -0.5970308 0.02150776 0.02185445
v -0.4045085 0.02150784 0.07309942
v -0.5768861 0.2260402 0.02185445
v -0.3880631 0.188481 0.07309942
v -0.517226 0.4227125 0.02185468
v -0.3393587 0.3490375 0.07309954
v -0.3551311 0.5603933 0.04273097
v -0.4867463 0.479736 0.02185468
v -0.2602671 0.4970073 0.07309954
v -0.1906467 0.6635225 0.05923983
v -0.153828 0.6267038 0.07309954
v -0.04159409 0.7592776 0.06473309
v -0.02413142 0.733143 0.07309954
v 0.10562 0.8562173 0.06042774
v 0.1238384 0.8122343 0.07309954
v 0.2837082 0.8607303 0.07309954
v 0.2633885 0.9626281 0.0454414
v 0.3401734 0.5768722 0.1050317
v 0.5611258 -0.5341382 0.1050315
v 0.4513679 -0.5449483 0.1050315
v 0.3408577 -0.5340641 0.1050315
v 0.2345944 -0.5018294 0.1050315
v 0.2345946 0.5448452 0.1050317
v 0.1366617 0.4924991 0.1050317
v 0.1366616 -0.4494833 0.1050315
v 0.05082288 0.422053 0.1050317
v 0.05082267 -0.3790371 0.1050315
v -0.01962323 0.3362142 0.1050317
v -0.01962341 -0.2931983 0.1050315
v -0.07196946 0.2382814 0.1050317
v -0.07196958 -0.1952655 0.1050315
v -0.1042041 0.1320181 0.1050315
v -0.1042042 -0.08900218 0.1050315
v -0.1150884 0.02150798 0.1050315
v 0.3148565 -0.6647812 -0.07708152
v 0.1841264 -0.6236702 -0.07711791
v 0.06163865 -0.5850715 -0.07649787
v 0.4189521 -0.6974493 -0.07649811
v 0.4513679 -0.7075218 -0.07548769
v 0.04879333 -0.5809875 -0.0761358
v -0.1024991 -0.5323591 -0.06751885
v -0.1024991 -0.5323591 -0.06751885
v -0.2876088 -0.4722606 -0.0520281
v 0.6049697 -0.754716 -0.06633438
v 0.6010959 -0.7354401 0.08238733
v -0.5059811 -0.4007352 -0.02858217
v -0.5099143 -0.3933768 0.02185445
v -0.2726441 -0.4622614 0.06913731
v -0.2473453 -0.4697373 0.07309942
v -0.08857592 -0.5184357 0.08328088
v 0.0599125 -0.5643464 0.08978985
v 0.3187106 -0.6454052 0.09250646
v 0.4513679 -0.6875131 0.08930218
v 0.1916787 -0.6054372 0.09265852
vt 0.1094046 0.09201003
vt 0.05106562 0
vt 0.1601935 0.1274214
vt 0.1094046 0.09201003
vt 0.09359013 0
vt 0.05106562 0
vt 0.8849851 0.8849851
vt 0.9620514 0.9620514
vt 1 0.8799566
vt 0.9056669 0.6433734
vt 0.9601047 0.9601047
vt 0.9158908 0.912883
vt 0.7100461 0.6225402
vt 0.9116473 0.8264307
vt 0.8799566 0.8799566
vt 0.7100461 0.6225402
vt 0.701572 0.6932126
vt 0.9116473 0.8264307
vt 0.8331672 0.3412352
vt 0.8325133 0.3422087
vt 0.8279429 0.3528552
vt 0.8578449 0.3616966
vt 0.8422254 0.3321842
vt 0.8387345 0.327897
vt 0.8458189 0.3116764
vt 0.8541557 0.3671075
vt 0.8515838 0.3731215
vt 0.823051 0.364147
vt 0.8191218 0.3730716
vt 0.8835009 0.3832233
vt 0.8625187 0.357095
vt 0.8502195 0.3795124
vt 0.8501198 0.3859782
vt 0.8680052 0.3534818
vt 0.8182867 0.3884991
vt 0.8529003 0.3250389
vt 0.818524 0.37592
vt 0.8179165 0.3758512
vt 0.8121422 0.3889721
vt 0.8647941 0.3200908
vt 0.8740984 0.3509987
vt 0.8562685 0.2916321
vt 0.8542681 0.2924726
vt 0.853467 0.287634
vt 0.8548325 0.2870587
vt 0.8746392 0.2878862
vt 0.8741226 0.2831071
vt 0.8774568 0.3175467
vt 0.8934379 0.2877988
vt 0.8938652 0.2829984
vt 0.8805693 0.3497467
vt 0.8904048 0.3175198
vt 0.9119395 0.2913913
vt 0.9132987 0.2867544
vt 0.9294301 0.2985423
vt 0.9316734 0.2942479
vt 0.9368983 0.2976963
vt 0.9360427 0.3029154
vt 0.941664 0.3133113
vt 0.8871709 0.3497795
vt 0.9031397 0.3200253
vt 0.9151698 0.3249815
vt 0.8936497 0.3511013
vt 0.9260269 0.3322116
vt 0.9502191 0.3293026
vt 0.8997563 0.3536675
vt 0.9052521 0.3573847
vt 0.9099215 0.3621139
vt 0.9352852 0.3414514
vt 0.9580712 0.3441742
vt 0.9425738 0.3523612
vt 0.965845 0.359115
vt 0.9475912 0.3645367
vt 0.9740988 0.3752812
vt 0.9500991 0.377457
vt 0.9135791 0.3676766
vt 0.9160768 0.3738593
vt 0.917298 0.3803563
vt 0.8838672 0.3831912
vt 0.8836911 0.3832062
vt 0.8836292 0.3832116
vt 0.6348623 0.6503175
vt 0.6407217 0.6643791
vt 0.6422747 0.665414
vt 0.6547973 0.6419117
vt 0.656481 0.6712794
vt 0.6463534 0.6362785
vt 0.6641772 0.6457889
vt 0.6391703 0.6291053
vt 0.6715563 0.6742612
vt 0.6293513 0.6371837
vt 0.6741318 0.6477622
vt 0.6335248 0.6206678
vt 0.6869223 0.6742473
vt 0.6244258 0.6255441
vt 0.6842795 0.6477544
vt 0.6296354 0.6112895
vt 0.701992 0.6712406
vt 0.6196368 0.6143319
vt 0.6942303 0.645767
vt 0.6276522 0.6013323
vt 0.7161775 0.6653314
vt 0.7036026 0.641876
vt 0.7289487 0.6567868
vt 0.7120348 0.6362315
vt 0.739803 0.6459104
vt 0.7192042 0.6290503
vt 0.7483246 0.6331265
vt 0.7248349 0.6206083
vt 0.6145941 0.6026253
vt 0.627644 0.5912485
vt 0.6094272 0.5894586
vt 0.6088399 0.5894066
vt 0.7541886 0.6189287
vt 0.7287111 0.6112305
vt 0.7306723 0.6013409
vt 0.7571611 0.6039277
vt 0.9618422 0.9289748
vt 1 0.9620514
vt 1 0.8849851
vt 0.8915847 0.7652916
vt 0.7645168 0.7364151
vt 0.2627863 0.1365679
vt 0.5592145 0.533298
vt 0.5577775 0.5318467
vt 0.3558792 0.3278261
vt 0.1601935 0.1274214
vt 0.1094046 0.09201003
vt 0.9525396 0.2715392
vt 0.9539717 0.1830104
vt 0.9528389 0.09467156
vt 0.9489344 0
vt 0.9482577 0.3672539
vt 0.9064099 0
vt 0.9437687 0.4297453
vt 0.9183326 0.4368581
vt 0.9077994 0.3606237
vt 0.8994675 0.2651134
vt 0.8988577 0.09237431
vt 0.8966917 0.1783293
vt 0.6416098 0.666664
vt 0.6422747 0.665414
vt 0.6407217 0.6643791
vt 0.656481 0.6712794
vt 0.6498793 0.6882643
vt 0.651202 0.6888098
vt 0.6697968 0.6924806
vt 0.6715563 0.6742612
vt 0.6887458 0.6924556
vt 0.6869223 0.6742473
vt 0.7073202 0.6887407
vt 0.701992 0.6712406
vt 0.7248339 0.6814805
vt 0.7161775 0.6653314
vt 0.7358489 0.6651631
vt 0.7297916 0.6781585
vt 0.7289487 0.6567868
vt 0.7436366 0.6490435
vt 0.739803 0.6459104
vt 0.7509624 0.6345296
vt 0.7483246 0.6331265
vt 0.7585198 0.6202338
vt 0.7541886 0.6189287
vt 0.7571611 0.6039277
vt 0.7669822 0.6048857
vt 0.7306723 0.6013409
vt 0.627644 0.5912485
vt 0.6276522 0.6013323
vt 0.6296354 0.6112895
vt 0.6335248 0.6206678
vt 0.7287111 0.6112305
vt 0.7248349 0.6206083
vt 0.6391703 0.6291053
vt 0.7192042 0.6290503
vt 0.6463534 0.6362785
vt 0.7120348 0.6362315
vt 0.6547973 0.6419117
vt 0.7036026 0.641876
vt 0.6641772 0.6457889
vt 0.6942303 0.645767
vt 0.6741318 0.6477622
vt 0.6842795 0.6477544
vt 0.917972 0.8470941
vt 0.9180527 0.7838383
vt 0.9172761 0.7244478
vt 0.917197 0.8973687
vt 0.9158908 0.912883
vt 0.9168081 0.7181641
vt 0.9056669 0.6433734
vt 0.9056669 0.6433734
vt 0.8856115 0.5509566
vt 0.9601047 0.9601047
vt 0.8799566 0.8799566
vt 0.8552479 0.4409904
vt 0.7898241 0.4298667
vt 0.7284345 0.5360475
vt 0.7232937 0.5475693
vt 0.7100461 0.6225402
vt 0.701572 0.6932126
vt 0.9413171 0.7805621
vt 0.9116473 0.8264307
vt 0.9713194 0.7381731
vn 0.9807895 0.1950696 0
vn 0.9807895 0.1950696 0
vn 0.9807895 0.1950696 0
vn 0.9807895 0.1950696 0
vn 0.9807895 0.1950696 0
vn 0.9807895 0.1950696 0
vn 0.9826706 0.1853534 0.00157471
vn 0.9826706 0.1853534 0.00157471
vn 0.9826706 0.1853534 0.00157471
vn -0.2980213 -0.9476034 0.1150265
vn -0.2980213 -0.9476034 0.1150265
vn -0.2980213 -0.9476034 0.1150265
vn -0.2980213 -0.9476034 0.1150265
vn -0.2980213 -0.9476034 0.1150265
vn -0.2980213 -0.9476034 0.1150265
vn -0.2980213 -0.9476034 0.1150265
vn -0.2980213 -0.9476034 0.1150265
vn -0.2980213 -0.9476034 0.1150265
vn -0.02459855 -0.03335759 -0.9991407
vn -0.01355057 -0.02227909 -0.9996599
vn -0.01074285 -0.02356102 -0.9996647
vn -0.01074281 -0.01605317 -0.9998135
vn -0.06289907 -0.06332633 -0.9960088
vn -0.1058108 -0.09967636 -0.9893779
vn -0.1242129 -0.07562643 -0.9893694
vn -0.007660148 -0.01751763 -0.9998172
vn -0.00372337 -0.01879997 -0.9998164
vn -0.004883098 -0.0255447 -0.9996617
vn -0.003326525 -0.03381459 -0.9994226
vn -0.007599341 -0.001831166 -0.9999695
vn -0.01333697 -0.0138558 -0.999815
vn 0 -0.0191662 -0.9998164
vn 0.001861682 -0.01916617 -0.9998146
vn -0.01593114 -0.01062076 -0.9998167
vn 0.008789384 -0.08951133 -0.9959471
vn -0.07443571 -0.04971536 -0.9959858
vn 0 -0.08951206 -0.9959857
vn 0.002746678 -0.1452993 -0.9893839
vn 0.01428311 -0.1452727 -0.9892886
vn -0.08270632 -0.03424224 -0.9959854
vn -0.01767076 -0.007324667 -0.9998171
vn -0.7143276 -0.2958816 -0.6341847
vn -0.5277414 -0.2820908 -0.8011953
vn -0.8819184 -0.4714023 0
vn -0.9238803 -0.3826815 0
vn -0.7583185 -0.1508275 -0.6341956
vn -0.9807879 -0.1950772 0
vn -0.08780293 -0.01745682 -0.9959849
vn -0.7731763 0 -0.6341913
vn -1 0 0
vn -0.01876946 -0.003723372 -0.999817
vn -0.08951206 0 -0.9959857
vn -0.7583185 0.1508275 -0.6341956
vn -0.9807879 0.1950772 0
vn -0.7143276 0.2958816 -0.6341847
vn -0.9238803 0.3826815 0
vn -0.8819184 0.4714023 0
vn -0.4506073 0.2408529 -0.8596178
vn -0.122807 0.07770047 -0.9893841
vn -0.0191046 0 -0.9998176
vn -0.08780293 0.01745682 -0.9959849
vn -0.08270632 0.03424224 -0.9959854
vn -0.01873838 0.003723261 -0.9998176
vn -0.07443571 0.04971536 -0.9959858
vn -0.1040386 0.101414 -0.9893892
vn -0.01763971 0.00729393 -0.9998178
vn -0.01586964 0.01058993 -0.999818
vn -0.01367271 0.01336752 -0.9998172
vn -0.06329627 0.06329627 -0.9959856
vn -0.08081357 0.1207626 -0.9893864
vn -0.04971536 0.07443571 -0.9959858
vn -0.05407923 0.1348624 -0.9893875
vn -0.03424224 0.08270632 -0.9959854
vn -0.04236105 0.1396877 -0.9892892
vn -0.02609351 0.08606278 -0.9959479
vn -0.01080389 0.01577855 -0.9998172
vn -0.007324663 0.01770127 -0.9998165
vn -0.005585045 0.0184337 -0.9998146
vn -0.007538279 0.008453859 -0.9999359
vn -0.007538279 0.008453859 -0.9999359
vn -0.007599341 -0.001831166 -0.9999695
vn -0.07989806 -0.07516766 0.9939649
vn -0.08517847 -0.06988847 0.9939116
vn -0.09116007 -0.06091581 0.9939714
vn -0.09116007 -0.06091581 0.9939714
vn -0.1012924 -0.04196354 0.9939713
vn -0.07751822 -0.07751822 0.9939727
vn -0.1012924 -0.04196354 0.9939713
vn -0.06091581 -0.09116007 0.9939714
vn -0.1075486 -0.02139374 0.9939697
vn -0.06256369 -0.0900612 0.9939692
vn -0.1075486 -0.02139374 0.9939697
vn -0.04196354 -0.1012924 0.9939713
vn -0.1096544 0 0.9939698
vn -0.04251281 -0.1010786 0.9939697
vn -0.1096544 0 0.9939698
vn -0.02139374 -0.1075486 0.9939697
vn -0.1075486 0.02139374 0.9939697
vn -0.02063076 -0.1077011 0.9939692
vn -0.1075486 0.02139374 0.9939697
vn 0 -0.1096544 0.9939698
vn -0.1012924 0.04196354 0.9939713
vn -0.1012924 0.04196354 0.9939713
vn -0.09116007 0.06091581 0.9939714
vn -0.09116007 0.06091581 0.9939714
vn -0.07751822 0.07751822 0.9939727
vn -0.07751822 0.07751822 0.9939727
vn -0.06091581 0.09116007 0.9939714
vn -0.06091581 0.09116007 0.9939714
vn 0.002105799 -0.1096541 0.9939675
vn 0.0107732 -0.1096547 0.9939114
vn 0.0107732 -0.1096547 0.9939114
vn 0.0107732 -0.1096547 0.9939114
vn -0.04196354 0.1012924 0.9939713
vn -0.04196354 0.1012924 0.9939713
vn -0.03198387 0.105443 0.9939109
vn -0.03198387 0.105443 0.9939109
vn 0.9807895 0.1950696 0
vn 0.9807895 0.1950696 0
vn 0.9807895 0.1950696 0
vn 0.9807895 0.1950696 0
vn 0.9807895 0.1950696 0
vn 0.9807895 0.1950696 0
vn 0.9807895 0.1950696 0
vn 0.9807895 0.1950696 0
vn 0.9807895 0.1950696 0
vn 0.9807895 0.1950696 0
vn 0.9807895 0.1950696 0
vn -0.5348215 0.8210539 0.1995907
vn -0.5348215 0.8210539 0.1995907
vn -0.5348215 0.8210539 0.1995907
vn -0.5348215 0.8210539 0.1995907
vn -0.5348215 0.8210539 0.1995907
vn -0.5348215 0.8210539 0.1995907
vn -0.5348215 0.8210539 0.1995907
vn -0.5348215 0.8210539 0.1995907
vn -0.5348215 0.8210539 0.1995907
vn -0.5348215 0.8210539 0.1995907
vn -0.5348215 0.8210539 0.1995907
vn -0.5348215 0.8210539 0.1995907
vn -0.2202252 -0.1333375 0.9662929
vn -0.213848 -0.1428909 0.9663598
vn -0.1997158 -0.1639171 0.966046
vn -0.2376221 -0.09842426 0.9663584
vn -0.2278545 -0.1218011 0.966047
vn -0.2376221 -0.09842426 0.9663584
vn -0.2522705 -0.05017332 0.9663551
vn -0.2522705 -0.05017332 0.9663551
vn -0.2572143 0 0.9663544
vn -0.2572143 0 0.9663544
vn -0.2522705 0.05017332 0.9663551
vn -0.2522705 0.05017332 0.9663551
vn -0.2376221 0.09842426 0.9663584
vn -0.2376221 0.09842426 0.9663584
vn -0.2177559 0.1370321 0.9663357
vn -0.2278545 0.1218011 0.966047
vn -0.213848 0.1428909 0.9663598
vn -0.1844263 0.1792991 0.9663534
vn -0.1818638 0.1818638 0.9663597
vn -0.1430731 0.213755 0.9663535
vn -0.1428909 0.213848 0.9663598
vn -0.0954326 0.2388714 0.9663504
vn -0.09842426 0.2376221 0.9663584
vn -0.07498528 0.2472347 0.9660497
vn -0.07498528 0.2472347 0.9660497
vn 0 0 1
vn 0 0 1
vn 0 0 1
vn 0 0 1
vn 0 0 1
vn 0 0 1
vn 0 0 1
vn 0 0 1
vn 0 0 1
vn 0 0 1
vn 0 0 1
vn 0 0 1
vn 0 0 1
vn 0 0 1
vn 0 0 1
vn 0 0 1
vn 0 0 1
vn -0.2980213 -0.9476034 0.1150265
vn -0.2980213 -0.9476034 0.1150265
vn -0.2980213 -0.9476034 0.1150265
vn -0.2980213 -0.9476034 0.1150265
vn -0.2980213 -0.9476034 0.1150265
vn -0.2980213 -0.9476034 0.1150265
vn -0.2980213 -0.9476034 0.1150265
vn -0.2980213 -0.9476034 0.1150265
vn -0.2980213 -0.9476034 0.1150265
vn -0.2980213 -0.9476034 0.1150265
vn -0.2980213 -0.9476034 0.1150265
vn -0.2980213 -0.9476034 0.1150265
vn -0.2980213 -0.9476034 0.1150265
vn -0.2980213 -0.9476034 0.1150265
vn -0.2980213 -0.9476034 0.1150265
vn -0.2980213 -0.9476034 0.1150265
vn -0.2980213 -0.9476034 0.1150265
vn -0.2980213 -0.9476034 0.1150265
vn -0.2980213 -0.9476034 0.1150265
vn -0.2980213 -0.9476034 0.1150265
g ClayBossShattered_cell.006_0
f 3/3/3 2/2/2 1/1/1
f 6/6/6 5/5/5 4/4/4
f 9/9/9 8/8/8 7/7/7
f 12/12/12 11/11/11 10/10/10
f 15/15/15 14/14/14 13/13/13
f 18/18/18 17/17/17 16/16/16
f 21/21/21 20/20/20 19/19/19
f 21/21/21 19/19/19 22/22/22
f 19/19/19 23/23/23 22/22/22
f 24/24/24 23/23/23 19/19/19
f 24/24/24 25/25/25 23/23/23
f 22/22/22 26/26/26 21/21/21
f 21/21/21 26/26/26 27/27/27
f 28/28/28 21/21/21 27/27/27
f 29/29/29 28/28/28 27/27/27
f 26/26/26 22/22/22 30/30/30
f 27/27/27 26/26/26 30/30/30
f 23/23/23 31/31/31 22/22/22
f 22/22/22 31/31/31 30/30/30
f 32/32/32 27/27/27 30/30/30
f 29/29/29 27/27/27 32/32/32
f 33/33/33 32/32/32 30/30/30
f 31/31/31 34/34/34 30/30/30
f 33/33/33 35/35/35 32/32/32
f 23/23/23 36/36/36 31/31/31
f 25/25/25 36/36/36 23/23/23
f 36/36/36 34/34/34 31/31/31
f 32/32/32 37/37/37 29/29/29
f 35/35/35 37/37/37 32/32/32
f 38/38/38 29/29/29 37/37/37
f 35/35/35 39/39/39 37/37/37
f 39/39/39 38/38/38 37/37/37
f 40/40/40 36/36/36 25/25/25
f 36/36/36 40/40/40 34/34/34
f 34/34/34 41/41/41 30/30/30
f 40/40/40 41/41/41 34/34/34
f 25/25/25 42/42/42 40/40/40
f 25/25/25 43/43/43 42/42/42
f 43/43/43 44/44/44 42/42/42
f 44/44/44 45/45/45 42/42/42
f 42/42/42 45/45/45 46/46/46
f 42/42/42 46/46/46 40/40/40
f 45/45/45 47/47/47 46/46/46
f 40/40/40 48/48/48 41/41/41
f 46/46/46 48/48/48 40/40/40
f 46/46/46 47/47/47 49/49/49
f 46/46/46 49/49/49 48/48/48
f 47/47/47 50/50/50 49/49/49
f 48/48/48 51/51/51 41/41/41
f 41/41/41 51/51/51 30/30/30
f 49/49/49 52/52/52 48/48/48
f 48/48/48 52/52/52 51/51/51
f 49/49/49 50/50/50 53/53/53
f 49/49/49 53/53/53 52/52/52
f 50/50/50 54/54/54 53/53/53
f 53/53/53 54/54/54 55/55/55
f 54/54/54 56/56/56 55/55/55
f 55/55/55 56/56/56 57/57/57
f 58/58/58 55/55/55 57/57/57
f 55/55/55 58/58/58 59/59/59
f 52/52/52 60/60/60 51/51/51
f 51/51/51 60/60/60 30/30/30
f 53/53/53 61/61/61 52/52/52
f 53/53/53 55/55/55 61/61/61
f 52/52/52 61/61/61 60/60/60
f 62/62/62 55/55/55 59/59/59
f 55/55/55 62/62/62 61/61/61
f 61/61/61 63/63/63 60/60/60
f 60/60/60 63/63/63 30/30/30
f 61/61/61 62/62/62 63/63/63
f 59/59/59 64/64/64 62/62/62
f 59/59/59 65/65/65 64/64/64
f 62/62/62 66/66/66 63/63/63
f 63/63/63 66/66/66 30/30/30
f 62/62/62 64/64/64 66/66/66
f 66/66/66 67/67/67 30/30/30
f 64/64/64 67/67/67 66/66/66
f 67/67/67 68/68/68 30/30/30
f 65/65/65 69/69/69 64/64/64
f 64/64/64 69/69/69 67/67/67
f 69/69/69 68/68/68 67/67/67
f 65/65/65 70/70/70 69/69/69
f 70/70/70 71/71/71 69/69/69
f 69/69/69 71/71/71 68/68/68
f 70/70/70 72/72/72 71/71/71
f 72/72/72 73/73/73 71/71/71
f 72/72/72 74/74/74 73/73/73
f 74/74/74 75/75/75 73/73/73
f 71/71/71 76/76/76 68/68/68
f 71/71/71 73/73/73 76/76/76
f 73/73/73 75/75/75 77/77/77
f 73/73/73 77/77/77 76/76/76
f 75/75/75 78/78/78 77/77/77
f 79/79/79 77/77/77 78/78/78
f 76/76/76 77/77/77 80/80/80
f 68/68/68 76/76/76 80/80/80
f 81/81/81 68/68/68 80/80/80
f 84/84/84 83/83/83 82/82/82
f 85/85/85 84/84/84 82/82/82
f 84/84/84 85/85/85 86/86/86
f 82/82/82 87/87/87 85/85/85
f 85/85/85 88/88/88 86/86/86
f 89/89/89 87/87/87 82/82/82
f 86/86/86 88/88/88 90/90/90
f 91/91/91 89/89/89 82/82/82
f 88/88/88 92/92/92 90/90/90
f 93/93/93 89/89/89 91/91/91
f 90/90/90 92/92/92 94/94/94
f 95/95/95 93/93/93 91/91/91
f 92/92/92 96/96/96 94/94/94
f 97/97/97 93/93/93 95/95/95
f 94/94/94 96/96/96 98/98/98
f 99/99/99 97/97/97 95/95/95
f 96/96/96 100/100/100 98/98/98
f 101/101/101 97/97/97 99/99/99
f 98/98/98 100/100/100 102/102/102
f 100/100/100 103/103/103 102/102/102
f 102/102/102 103/103/103 104/104/104
f 103/103/103 105/105/105 104/104/104
f 104/104/104 105/105/105 106/106/106
f 105/105/105 107/107/107 106/106/106
f 106/106/106 107/107/107 108/108/108
f 107/107/107 109/109/109 108/108/108
f 110/110/110 101/101/101 99/99/99
f 111/111/111 101/101/101 110/110/110
f 112/112/112 111/111/111 110/110/110
f 110/110/110 113/113/113 112/112/112
f 108/108/108 109/109/109 114/114/114
f 109/109/109 115/115/115 114/114/114
f 114/114/114 115/115/115 116/116/116
f 117/117/117 114/114/114 116/116/116
f 120/120/120 119/119/119 118/118/118
f 118/118/118 121/121/121 120/120/120
f 118/118/118 122/122/122 121/121/121
f 122/122/122 123/123/123 121/121/121
f 122/122/122 124/124/124 123/123/123
f 124/124/124 125/125/125 123/123/123
f 125/125/125 126/126/126 123/123/123
f 126/126/126 127/127/127 123/123/123
f 127/127/127 128/128/128 123/123/123
f 131/131/131 130/130/130 129/129/129
f 129/129/129 132/132/132 131/131/131
f 129/129/129 133/133/133 132/132/132
f 133/133/133 134/134/134 132/132/132
f 133/133/133 135/135/135 134/134/134
f 135/135/135 136/136/136 134/134/134
f 136/136/136 137/137/137 134/134/134
f 137/137/137 138/138/138 134/134/134
f 138/138/138 139/139/139 134/134/134
f 138/138/138 140/140/140 139/139/139
f 143/143/143 142/142/142 141/141/141
f 141/141/141 142/142/142 144/144/144
f 144/144/144 145/145/145 141/141/141
f 144/144/144 146/146/146 145/145/145
f 146/146/146 144/144/144 147/147/147
f 144/144/144 148/148/148 147/147/147
f 147/147/147 148/148/148 149/149/149
f 148/148/148 150/150/150 149/149/149
f 149/149/149 150/150/150 151/151/151
f 150/150/150 152/152/152 151/151/151
f 151/151/151 152/152/152 153/153/153
f 152/152/152 154/154/154 153/153/153
f 155/155/155 153/153/153 154/154/154
f 155/155/155 156/156/156 153/153/153
f 154/154/154 157/157/157 155/155/155
f 155/155/155 157/157/157 158/158/158
f 157/157/157 159/159/159 158/158/158
f 158/158/158 159/159/159 160/160/160
f 159/159/159 161/161/161 160/160/160
f 160/160/160 161/161/161 162/162/162
f 161/161/161 163/163/163 162/162/162
f 162/162/162 163/163/163 164/164/164
f 165/165/165 162/162/162 164/164/164
f 168/168/168 167/167/167 166/166/166
f 166/166/166 169/169/169 168/168/168
f 166/166/166 170/170/170 169/169/169
f 166/166/166 171/171/171 170/170/170
f 171/171/171 172/172/172 170/170/170
f 172/172/172 173/173/173 170/170/170
f 172/172/172 174/174/174 173/173/173
f 174/174/174 175/175/175 173/173/173
f 174/174/174 176/176/176 175/175/175
f 176/176/176 177/177/177 175/175/175
f 176/176/176 178/178/178 177/177/177
f 178/178/178 179/179/179 177/177/177
f 178/178/178 180/180/180 179/179/179
f 180/180/180 181/181/181 179/179/179
f 180/180/180 182/182/182 181/181/181
f 185/185/185 184/184/184 183/183/183
f 183/183/183 186/186/186 185/185/185
f 186/186/186 187/187/187 185/185/185
f 187/187/187 188/188/188 185/185/185
f 187/187/187 189/189/189 188/188/188
f 192/192/192 191/191/191 190/190/190
f 192/192/192 193/193/193 191/191/191
f 193/193/193 194/194/194 191/191/191
f 193/193/193 195/195/195 194/194/194
f 193/193/193 196/196/196 195/195/195
f 193/193/193 197/197/197 196/196/196
f 193/193/193 198/198/198 197/197/197
f 201/201/201 200/200/200 199/199/199
f 200/200/200 202/202/202 199/199/199
