g LunarInfectionSmallMesh
v 0.469099 0.5527284 -0.3788718
v 0.4690991 0.3651174 -0.5664827
v 2.469099 0.3651177 -0.3788714
v 0.469099 0.3651174 -0.1912608
v -2.539957 0.3651172 -0.3788721
v 0.469099 0.1775064 -0.3788718
v 0.469099 0.3651174 -0.1912608
v 2.469099 0.3651177 -0.3788714
v 0.4690991 0.3651174 -0.5664827
v 0.0689168 -0.4742722 -0.2017438
v 0.05365855 -0.6299099 -0.1590155
v 1.238628 -0.5751147 0.156184
v 0.03735596 -0.4293046 -0.04922009
v -1.749576 -0.4611399 -0.4957491
v 0.02209774 -0.5849424 -0.006491721
v 0.03735596 -0.4293046 -0.04922009
v 1.238628 -0.5751147 0.156184
v 0.05365855 -0.6299099 -0.1590155
v -0.08903638 1.300606 0.3607741
v -0.07610145 1.392663 0.2343997
v 1.079327 1.462299 0.5007667
v -0.05080402 1.175787 0.2737636
v -1.782798 1.016307 -0.1170628
v -0.03786916 1.267844 0.1473891
v -0.05080402 1.175787 0.2737636
v 1.079327 1.462299 0.5007667
v -0.07610145 1.392663 0.2343997
v -0.03407466 -0.6476207 0.09626234
v -0.05528513 -0.7755076 0.1766574
v 1.06027 -0.6896098 0.4628995
v -0.06207052 -0.5645154 0.2210743
v -1.742166 -0.6405251 -0.1983802
v -0.08328095 -0.6924022 0.3014695
v -0.06207052 -0.5645154 0.2210743
v 1.06027 -0.6896098 0.4628995
v -0.05528513 -0.7755076 0.1766574
v 0.4745647 -0.29975 -0.3336945
v 0.461068 -0.5729589 -0.3127846
v 2.462337 -0.491988 0.2372463
v 0.4188749 -0.2765166 -0.06607288
v -2.602734 -0.3235576 -0.8313733
v 0.4053782 -0.5497255 -0.04516295
v 0.4188749 -0.2765166 -0.06607288
v 2.462337 -0.491988 0.2372463
v 0.461068 -0.5729589 -0.3127846
v 0.2772686 -0.3810714 0.5231502
v 0.1845375 -0.4925207 0.7257056
v 1.977438 -0.7667934 1.242433
v 0.2914916 -0.1659933 0.6480011
v -2.378998 0.329029 -0.1490327
v 0.1987604 -0.2774425 0.8505566
v 0.2914916 -0.1659933 0.6480011
v 1.977438 -0.7667934 1.242433
v 0.1845375 -0.4925207 0.7257056
v 0.1365249 0.5572139 -0.07569
v 0.1381257 0.4756067 -0.1909765
v 1.204166 0.5056817 -0.1109261
v 0.1430051 0.4420838 0.005896449
v -1.459651 0.3883787 -0.06487751
v 0.1446059 0.3604766 -0.1093901
v 0.1430051 0.4420838 0.005896449
v 1.204166 0.5056817 -0.1109261
v 0.1381257 0.4756067 -0.1909765
v -0.1453189 0.1853987 0.6835461
v -0.180032 0.2299357 0.7677817
v 0.5448686 0.2035225 1.019431
v -0.1216252 0.2762689 0.6452654
v -1.197525 0.3276964 0.2357448
v -0.1563384 0.3208058 0.7295011
v -0.1216252 0.2762689 0.6452654
v 0.5448686 0.2035225 1.019431
v -0.180032 0.2299357 0.7677817
v 0.4169646 0.2740916 -0.07255179
v 0.3944805 0.06852701 -0.1505857
v 2.057759 -0.04838064 -0.008846134
v 0.4085748 0.1965099 0.1342388
v -2.09032 0.4046865 -0.007161379
v 0.3860907 -0.00905472 0.0562048
v 0.4085748 0.1965099 0.1342388
v 2.057759 -0.04838064 -0.008846134
v 0.3944805 0.06852701 -0.1505857
vt 0.5978655 0.5615261
vt 0.5978655 0.5615261
vt 0.9834208 0.5617495
vt 0.5978655 0.5615261
vt 0.01841457 0.5611898
vt 0.5978655 0.5615261
vt 0.5978655 0.5615261
vt 0.9834208 0.5617495
vt 0.5978655 0.5615261
vt 0.5978655 0.5615261
vt 0.5978655 0.5615261
vt 0.9834208 0.5617495
vt 0.5978655 0.5615261
vt 0.01841457 0.5611898
vt 0.5978655 0.5615261
vt 0.5978655 0.5615261
vt 0.9834208 0.5617495
vt 0.5978655 0.5615261
vt 0.5978655 0.5615261
vt 0.5978655 0.5615261
vt 0.9834208 0.5617495
vt 0.5978655 0.5615261
vt 0.01841457 0.5611898
vt 0.5978655 0.5615261
vt 0.5978655 0.5615261
vt 0.9834208 0.5617495
vt 0.5978655 0.5615261
vt 0.5978655 0.5615261
vt 0.5978655 0.5615261
vt 0.9834208 0.5617495
vt 0.5978655 0.5615261
vt 0.01841457 0.5611898
vt 0.5978655 0.5615261
vt 0.5978655 0.5615261
vt 0.9834208 0.5617495
vt 0.5978655 0.5615261
vt 0.5978655 0.5615261
vt 0.5978655 0.5615261
vt 0.9834208 0.5617495
vt 0.5978655 0.5615261
vt 0.01841457 0.5611898
vt 0.5978655 0.5615261
vt 0.5978655 0.5615261
vt 0.9834208 0.5617495
vt 0.5978655 0.5615261
vt 0.5978655 0.5615261
vt 0.5978655 0.5615261
vt 0.9834208 0.5617495
vt 0.5978655 0.5615261
vt 0.01841457 0.5611898
vt 0.5978655 0.5615261
vt 0.5978655 0.5615261
vt 0.9834208 0.5617495
vt 0.5978655 0.5615261
vt 0.5978655 0.5615261
vt 0.5978655 0.5615261
vt 0.9834208 0.5617495
vt 0.5978655 0.5615261
vt 0.01841457 0.5611898
vt 0.5978655 0.5615261
vt 0.5978655 0.5615261
vt 0.9834208 0.5617495
vt 0.5978655 0.5615261
vt 0.5978655 0.5615261
vt 0.5978655 0.5615261
vt 0.9834208 0.5617495
vt 0.5978655 0.5615261
vt 0.01841457 0.5611898
vt 0.5978655 0.5615261
vt 0.5978655 0.5615261
vt 0.9834208 0.5617495
vt 0.5978655 0.5615261
vt 0.5978655 0.5615261
vt 0.5978655 0.5615261
vt 0.9834208 0.5617495
vt 0.5978655 0.5615261
vt 0.01841457 0.5611898
vt 0.5978655 0.5615261
vt 0.5978655 0.5615261
vt 0.9834208 0.5617495
vt 0.5978655 0.5615261
vn 0.01510678 0.9998859 0
vn 0.01068168 0.7070664 -0.7070664
vn 0.09338892 0.9956297 0
vn 0.01068168 0.7070664 0.7070664
vn -1 0 0
vn 0.01510678 -0.9998859 0
vn 0.01068168 -0.7070664 0.7070664
vn 0.09338892 -0.9956297 0
vn 0.01068168 -0.7070664 -0.7070664
vn 0.2189478 0.4820881 -0.8483236
vn 0.2050907 -0.2777575 -0.9385034
vn 0.2945135 0.4771118 -0.8280254
vn 0.1045286 0.9595878 -0.2612757
vn -0.9763135 0.03732515 -0.2131165
vn -0.1894349 -0.4832161 0.8547611
vn -0.1842164 0.2769655 0.9430559
vn -0.112128 -0.484067 0.867817
vn -0.08365373 -0.9603851 0.2658241
vn -0.2159815 0.1499083 0.964821
vn -0.2333476 0.7971845 0.5568175
vn -0.1393482 0.1610775 0.9770548
vn -0.07211655 -0.5851421 0.8077177
vn -0.9663246 -0.1505505 -0.2086892
vn 0.2451909 -0.1453627 -0.958515
vn 0.2540115 -0.7939574 -0.5523673
vn 0.3198683 -0.1329402 -0.9380891
vn 0.09274822 0.5883515 -0.8032686
vn 0.2427788 0.2072852 -0.9476767
vn 0.1939219 -0.5449589 -0.8157293
vn 0.3179803 0.2050895 -0.9256494
vn 0.1494229 0.8381539 -0.5245672
vn -0.9731659 0.01702972 -0.2294739
vn -0.2133613 -0.2078067 0.9546169
vn -0.1731073 0.5445921 0.8206421
vn -0.1362052 -0.20826 0.9685432
vn -0.1286383 -0.8385143 0.5294771
vn 0.1930646 0.643742 -0.7404879
vn 0.21342 -0.08502617 -0.9732536
vn 0.2688727 0.6384582 -0.7211648
vn 0.05963438 0.995473 -0.07400889
vn -0.9779326 0.03253366 -0.2063721
vn -0.1635234 -0.644724 0.7467201
vn -0.1925174 0.08432554 0.9776636
vn -0.08618539 -0.6445287 0.7597071
vn -0.03872855 -0.9961691 0.07840319
vn 0.2368309 -0.2976562 -0.9248307
vn -0.04718246 -0.8658867 -0.49801
vn 0.3083934 -0.3146498 -0.8977132
vn 0.3821337 0.4449121 -0.8099549
vn -0.9263911 0.2329559 -0.2958567
vn -0.2088154 0.290608 0.9337789
vn 0.06698818 0.8608974 0.5043493
vn -0.1353519 0.2711005 0.9529871
vn -0.3623568 -0.4498864 0.8162718
vn -0.02533065 0.9853927 0.168403
vn -0.03518856 0.8154711 -0.5777271
vn 0.05301202 0.9846442 0.1663302
vn -0.0006409008 0.5781536 0.8159277
vn -0.9988834 -0.04394721 0.01733473
vn 0.05551461 -0.9840643 -0.1689243
vn 0.05652167 -0.8145285 0.5773634
vn 0.1335516 -0.9764282 -0.1695641
vn 0.02200439 -0.5772108 -0.8162987
vn 0.09055073 -0.9450298 -0.3141961
vn -0.2238871 -0.8967084 0.3818228
vn 0.1614766 -0.9460921 -0.2807758
vn 0.3520077 -0.4398418 -0.8262141
vn -0.9100537 0.06485342 -0.4093853
vn -0.06305259 0.9430728 0.3265551
vn 0.2433332 0.8953245 -0.3730722
vn 0.008484244 0.9339688 0.3572538
vn -0.3325385 0.4384405 0.8349779
vn 0.1137759 0.9041035 -0.4118884
vn 0.04855582 0.3498094 -0.9355617
vn 0.1911752 0.8917543 -0.4101539
vn 0.1123408 0.9288489 0.3530144
vn -0.9940903 0.1085555 0.000396745
vn -0.08371404 -0.9073955 0.411856
vn -0.02731511 -0.352136 0.9355502
vn -0.005493428 -0.9120311 0.4100844
vn -0.09109887 -0.9311616 -0.3530425
g LunarInfectionSmallMesh_0
f 3/3/3 2/2/2 1/1/1
f 3/3/3 1/1/1 4/4/4
f 2/2/2 5/5/5 1/1/1
f 1/1/1 5/5/5 4/4/4
f 7/7/7 5/5/5 6/6/6
f 8/8/8 7/7/7 6/6/6
f 6/6/6 5/5/5 9/9/9
f 8/8/8 6/6/6 9/9/9
f 12/12/12 11/11/11 10/10/10
f 12/12/12 10/10/10 13/13/13
f 11/11/11 14/14/14 10/10/10
f 10/10/10 14/14/14 13/13/13
f 16/16/16 14/14/14 15/15/15
f 17/17/17 16/16/16 15/15/15
f 15/15/15 14/14/14 18/18/18
f 17/17/17 15/15/15 18/18/18
f 21/21/21 20/20/20 19/19/19
f 21/21/21 19/19/19 22/22/22
f 20/20/20 23/23/23 19/19/19
f 19/19/19 23/23/23 22/22/22
f 25/25/25 23/23/23 24/24/24
f 26/26/26 25/25/25 24/24/24
f 24/24/24 23/23/23 27/27/27
f 26/26/26 24/24/24 27/27/27
f 30/30/30 29/29/29 28/28/28
f 30/30/30 28/28/28 31/31/31
f 29/29/29 32/32/32 28/28/28
f 28/28/28 32/32/32 31/31/31
f 34/34/34 32/32/32 33/33/33
f 35/35/35 34/34/34 33/33/33
f 33/33/33 32/32/32 36/36/36
f 35/35/35 33/33/33 36/36/36
f 39/39/39 38/38/38 37/37/37
f 39/39/39 37/37/37 40/40/40
f 38/38/38 41/41/41 37/37/37
f 37/37/37 41/41/41 40/40/40
f 43/43/43 41/41/41 42/42/42
f 44/44/44 43/43/43 42/42/42
f 42/42/42 41/41/41 45/45/45
f 44/44/44 42/42/42 45/45/45
f 48/48/48 47/47/47 46/46/46
f 48/48/48 46/46/46 49/49/49
f 47/47/47 50/50/50 46/46/46
f 46/46/46 50/50/50 49/49/49
f 52/52/52 50/50/50 51/51/51
f 53/53/53 52/52/52 51/51/51
f 51/51/51 50/50/50 54/54/54
f 53/53/53 51/51/51 54/54/54
f 57/57/57 56/56/56 55/55/55
f 57/57/57 55/55/55 58/58/58
f 56/56/56 59/59/59 55/55/55
f 55/55/55 59/59/59 58/58/58
f 61/61/61 59/59/59 60/60/60
f 62/62/62 61/61/61 60/60/60
f 60/60/60 59/59/59 63/63/63
f 62/62/62 60/60/60 63/63/63
f 66/66/66 65/65/65 64/64/64
f 66/66/66 64/64/64 67/67/67
f 65/65/65 68/68/68 64/64/64
f 64/64/64 68/68/68 67/67/67
f 70/70/70 68/68/68 69/69/69
f 71/71/71 70/70/70 69/69/69
f 69/69/69 68/68/68 72/72/72
f 71/71/71 69/69/69 72/72/72
f 75/75/75 74/74/74 73/73/73
f 75/75/75 73/73/73 76/76/76
f 74/74/74 77/77/77 73/73/73
f 73/73/73 77/77/77 76/76/76
f 79/79/79 77/77/77 78/78/78
f 80/80/80 79/79/79 78/78/78
f 78/78/78 77/77/77 81/81/81
f 80/80/80 78/78/78 81/81/81
