g robotScrap2Mesh
v 0.4167807 -0.09465812 0.1855413
v 0.2758873 -0.1592833 0.1723617
v 0.322971 -0.0777322 0.1723617
v 0.3535738 -0.2041355 0.1855413
v 0.7221875 -0.2709847 0.1855413
v 0.6589805 -0.3804621 0.1855413
v 0.5957736 -0.4899395 0.1855413
v 0.290367 -0.3136128 0.1855413
v 0.2288038 -0.2408343 0.1723617
v 0.4476504 -0.0411902 -0.1578401
v 0.6589805 -0.3804621 -0.1578401
v 0.7530569 -0.2175168 -0.1578401
v 0.3535738 -0.2041355 -0.1578401
v 0.3538406 -0.02426427 -0.1591924
v 0.2758873 -0.1592833 -0.1591924
v 0.1979341 -0.2943022 -0.1591924
v 0.2594973 -0.3670808 -0.1578401
v 0.5649039 -0.5434074 -0.1578401
v 0.322971 -0.0777322 0.1723617
v 0.3538407 -0.02426427 0.1106624
v 0.4476504 -0.0411902 0.1238419
v 0.4167807 -0.09465812 0.1855413
v 0.7530569 -0.2175168 0.1238419
v 0.7221875 -0.2709847 0.1855413
v 0.4476504 -0.0411902 0.1238419
v 0.7530569 -0.2175168 -0.1578401
v 0.7530569 -0.2175168 0.1238419
v 0.4476504 -0.0411902 -0.1578401
v 0.3538407 -0.02426427 0.1106624
v 0.3538406 -0.02426427 -0.1591924
v 0.7221875 -0.2709847 0.1855413
v 0.7530569 -0.2175168 0.1238419
v 0.7530569 -0.2175168 -0.1578401
v 0.6589805 -0.3804621 0.1855413
v 0.6589805 -0.3804621 -0.1578401
v 0.5957736 -0.4899395 0.1855413
v 0.5649039 -0.5434074 0.1238419
v 0.5649039 -0.5434074 -0.1578401
v 0.2088264 0.05945974 0.1106703
v 0.1384144 0.1001122 0.1106703
v 0.1384144 0.1001122 -0.1591924
v 0.2088264 0.05945974 -0.1591924
v 0.1384144 0.1001122 0.1106703
v 0.1306163 0.2219897 0.1106703
v 0.1306162 0.2219897 -0.1591924
v 0.1384144 0.1001122 -0.1591924
v 0.3738057 0.01031637 0.1626579
v 0.2287916 0.09404044 0.1626579
v 0.2287916 0.09404044 -0.1991226
v 0.3738057 0.01031637 -0.1991226
v 0.1308732 -0.07555919 0.1723617
v 0.1017392 0.03658884 0.1723617
v 0.1721512 -0.004063546 0.1723617
v 0.06046116 -0.03490674 0.1723617
v 0.09394108 0.1584664 0.1723617
v 0.01918304 -0.1064024 0.1723617
v 0.08959507 -0.1470548 0.1723617
v 0.07643985 0.1281534 0.1723617
v -0.5587131 0.5352764 0.1723617
v -0.5762143 0.5049632 0.1723617
v 0.001838088 -0.001060724 0.1723617
v -0.07276367 -0.1302748 0.1723617
v -0.09026491 -0.1605878 0.1723617
v -0.742919 0.2162223 0.1723617
v -0.7254179 0.2465353 0.1723617
v 0.3738057 0.01031637 -0.1991226
v 0.2287916 0.09404044 -0.1991226
v 0.1308732 -0.07555919 -0.1991226
v 0.2758873 -0.1592833 -0.1991226
v 0.177969 -0.3288828 -0.1991226
v 0.03295469 -0.2451588 -0.1991226
v 0.2758873 -0.1592832 0.212292
v 0.2039745 0.05105596 0.212292
v 0.3489887 -0.03266805 0.212292
v 0.1308732 -0.07555919 0.212292
v 0.05777179 -0.2021743 0.212292
v 0.2027861 -0.2858984 0.212292
v 0.1306163 0.2219897 0.1106703
v -0.5220379 0.5987997 0.1106703
v -0.5220379 0.5987997 -0.1591924
v 0.1306162 0.2219897 -0.1591924
v 0.2039745 0.05105596 0.212292
v 0.2287916 0.09404044 0.1626579
v 0.3738057 0.01031637 0.1626579
v 0.3489887 -0.03266805 0.212292
v 0.07643985 0.1281534 -0.1591924
v -0.5762143 0.5049632 -0.1591924
v -0.5762143 0.5049632 0.1723617
v 0.07643985 0.1281534 0.1723617
v 0.001838088 -0.001060724 0.1723617
v 0.07643985 0.1281534 -0.1591924
v 0.07643985 0.1281534 0.1723617
v 0.001838088 -0.001060724 -0.1591924
v -0.07276367 -0.1302748 -0.1591924
v -0.07276367 -0.1302748 0.1723617
v -0.5587131 0.5352764 0.1723617
v -0.5762143 0.5049632 0.1723617
v -0.5762143 0.5049632 -0.1591924
v -0.5220379 0.5987997 -0.1591924
v -0.5220379 0.5987997 0.1106703
v 0.1306162 0.2219897 -0.1591924
v -0.5220379 0.5987997 -0.1591924
v -0.5762143 0.5049632 -0.1591924
v 0.07643985 0.1281534 -0.1591924
v 0.06046116 -0.03490674 -0.1591924
v 0.1384144 0.1001122 -0.1591924
v 0.2088264 0.05945974 -0.1591924
v 0.1308732 -0.07555919 -0.1591924
v 0.05291986 -0.2105782 -0.1591924
v 0.001838088 -0.001060724 -0.1591924
v -0.01749217 -0.1699258 -0.1591924
v -0.07276367 -0.1302748 -0.1591924
v -0.1269401 -0.2241111 -0.1591924
v -0.7254179 0.2465353 -0.1591923
v -0.7795942 0.1526989 -0.1591923
v 0.1017392 0.03658884 0.1723617
v 0.1384144 0.1001122 0.1106703
v 0.2088264 0.05945974 0.1106703
v 0.1721512 -0.004063546 0.1723617
v 0.09394108 0.1584664 0.1723617
v 0.1306163 0.2219897 0.1106703
v 0.1384144 0.1001122 0.1106703
v 0.1017392 0.03658884 0.1723617
v 0.1306163 0.2219897 0.1106703
v 0.09394108 0.1584664 0.1723617
v -0.5587131 0.5352764 0.1723617
v -0.5220379 0.5987997 0.1106703
v 0.2288038 -0.2408343 0.1723617
v 0.2594973 -0.3670808 0.1238419
v 0.1979341 -0.2943022 0.1106624
v 0.290367 -0.3136128 0.1855413
v 0.5649039 -0.5434074 0.1238419
v 0.5957736 -0.4899395 0.1855413
v 0.2594973 -0.3670808 0.1238419
v 0.5649039 -0.5434074 0.1238419
v 0.5649039 -0.5434074 -0.1578401
v 0.2594973 -0.3670808 -0.1578401
v 0.1979341 -0.2943022 0.1106624
v 0.1979341 -0.2943022 -0.1591924
v 0.05291986 -0.2105782 0.1106703
v 0.05291986 -0.2105782 -0.1591924
v -0.01749217 -0.1699258 -0.1591924
v -0.01749217 -0.1699257 0.1106703
v -0.01749217 -0.1699257 0.1106703
v -0.01749217 -0.1699258 -0.1591924
v -0.1269401 -0.2241111 -0.1591924
v -0.1269401 -0.2241111 0.1106703
v 0.177969 -0.3288828 0.1626579
v 0.177969 -0.3288828 -0.1991226
v 0.03295469 -0.2451588 -0.1991226
v 0.03295469 -0.2451588 0.1626579
v -0.1269401 -0.2241111 0.1106703
v -0.1269401 -0.2241111 -0.1591924
v -0.7795942 0.1526989 -0.1591923
v -0.7795942 0.1526989 0.1106703
v 0.05777179 -0.2021743 0.212292
v 0.2027861 -0.2858984 0.212292
v 0.177969 -0.3288828 0.1626579
v 0.03295469 -0.2451588 0.1626579
v -0.07276367 -0.1302748 -0.1591924
v -0.07276367 -0.1302748 0.1723617
v -0.7254179 0.2465353 0.1723617
v -0.7254179 0.2465353 -0.1591923
v -0.742919 0.2162223 0.1723617
v -0.7795942 0.1526989 0.1106703
v -0.7795942 0.1526989 -0.1591923
v -0.7254179 0.2465353 -0.1591923
v -0.7254179 0.2465353 0.1723617
v 0.01918304 -0.1064024 0.1723617
v 0.08959507 -0.1470548 0.1723617
v 0.05291986 -0.2105782 0.1106703
v -0.01749217 -0.1699257 0.1106703
v -0.09026491 -0.1605878 0.1723617
v 0.01918304 -0.1064024 0.1723617
v -0.01749217 -0.1699257 0.1106703
v -0.1269401 -0.2241111 0.1106703
v -0.1269401 -0.2241111 0.1106703
v -0.7795942 0.1526989 0.1106703
v -0.742919 0.2162223 0.1723617
v -0.09026491 -0.1605878 0.1723617
v 0.3538406 -0.02426427 -0.1591924
v 0.2758873 -0.1592833 -0.1991226
v 0.2758873 -0.1592833 -0.1591924
v 0.1979341 -0.2943022 -0.1591924
v 0.3738057 0.01031637 -0.1991226
v 0.177969 -0.3288828 -0.1991226
v 0.3538407 -0.02426427 0.1106624
v 0.3738057 0.01031637 0.1626579
v 0.1979341 -0.2943022 0.1106624
v 0.177969 -0.3288828 0.1626579
v 0.3489887 -0.03266805 0.212292
v 0.322971 -0.0777322 0.1723617
v 0.2027861 -0.2858984 0.212292
v 0.2288038 -0.2408343 0.1723617
v 0.2758873 -0.1592833 0.1723617
v 0.2758873 -0.1592832 0.212292
v 0.1308732 -0.07555919 -0.1591924
v 0.1308732 -0.07555919 -0.1991226
v 0.2287916 0.09404044 -0.1991226
v 0.03295469 -0.2451588 -0.1991226
v 0.2088264 0.05945974 -0.1591924
v 0.05291986 -0.2105782 -0.1591924
v 0.2287916 0.09404044 0.1626579
v 0.2088264 0.05945974 0.1106703
v 0.03295469 -0.2451588 0.1626579
v 0.05291986 -0.2105782 0.1106703
v 0.1721512 -0.004063546 0.1723617
v 0.2039745 0.05105596 0.212292
v 0.08959507 -0.1470548 0.1723617
v 0.05777179 -0.2021743 0.212292
v 0.1308732 -0.07555919 0.212292
v 0.1308732 -0.07555919 0.1723617
vt 0.09027959 0.9896958
vt 0.09027959 0.9896958
vt 0.09027959 0.9896958
vt 0.09027959 0.9896958
vt 0.09027959 0.9896958
vt 0.09027959 0.9896958
vt 0.09027959 0.9896958
vt 0.09027959 0.9896958
vt 0.09027959 0.9896958
vt 0.09027959 0.9896958
vt 0.09027959 0.9896958
vt 0.09027959 0.9896958
vt 0.09027959 0.9896958
vt 0.09027959 0.9896958
vt 0.09027959 0.9896958
vt 0.09027959 0.9896958
vt 0.09027959 0.9896958
vt 0.09027959 0.9896958
vt 0.09027959 0.9896958
vt 0.09027959 0.9896958
vt 0.09027959 0.9896958
vt 0.09027959 0.9896958
vt 0.09027959 0.9896958
vt 0.09027959 0.9896958
vt 0.09027959 0.9896958
vt 0.09027959 0.9896958
vt 0.09027959 0.9896958
vt 0.09027959 0.9896958
vt 0.09027959 0.9896958
vt 0.09027959 0.9896958
vt 0.09027959 0.9896958
vt 0.09027959 0.9896958
vt 0.09027959 0.9896958
vt 0.09027959 0.9896958
vt 0.09027959 0.9896958
vt 0.09027959 0.9896958
vt 0.09027959 0.9896958
vt 0.09027959 0.9896958
vt 0.09027959 0.9896958
vt 0.09027959 0.9896958
vt 0.09027959 0.9896958
vt 0.09027959 0.9896958
vt 0.09027959 0.9896958
vt 0.09027959 0.9896958
vt 0.09027959 0.9896958
vt 0.09027959 0.9896958
vt 0.1290345 0.9896958
vt 0.1290345 0.9896958
vt 0.1290345 0.9896958
vt 0.1290345 0.9896958
vt 0.09027959 0.9896958
vt 0.09027959 0.9896958
vt 0.09027959 0.9896958
vt 0.09027959 0.9896958
vt 0.09027959 0.9896958
vt 0.09027959 0.9896958
vt 0.09027959 0.9896958
vt 0.09027959 0.9896958
vt 0.09027959 0.9896958
vt 0.09027959 0.9896958
vt 0.09027959 0.9896958
vt 0.09027959 0.9896958
vt 0.09027959 0.9896958
vt 0.09027959 0.9896958
vt 0.09027959 0.9896958
vt 0.1290345 0.9896958
vt 0.1290345 0.9896958
vt 0.1290345 0.9896958
vt 0.1290345 0.9896958
vt 0.1290345 0.9896958
vt 0.1290345 0.9896958
vt 0.1290345 0.9896958
vt 0.1290345 0.9896958
vt 0.1290345 0.9896958
vt 0.1290345 0.9896958
vt 0.1290345 0.9896958
vt 0.1290345 0.9896958
vt 0.09027959 0.9896958
vt 0.09027959 0.9896958
vt 0.09027959 0.9896958
vt 0.09027959 0.9896958
vt 0.1290345 0.9896958
vt 0.1290345 0.9896958
vt 0.1290345 0.9896958
vt 0.1290345 0.9896958
vt 0.09027959 0.9896958
vt 0.09027959 0.9896958
vt 0.09027959 0.9896958
vt 0.09027959 0.9896958
vt 0.09027959 0.9896958
vt 0.09027959 0.9896958
vt 0.09027959 0.9896958
vt 0.09027959 0.9896958
vt 0.09027959 0.9896958
vt 0.09027959 0.9896958
vt 0.09027959 0.9896958
vt 0.09027959 0.9896958
vt 0.09027959 0.9896958
vt 0.09027959 0.9896958
vt 0.09027959 0.9896958
vt 0.09027959 0.9896958
vt 0.09027959 0.9896958
vt 0.09027959 0.9896958
vt 0.09027959 0.9896958
vt 0.09027959 0.9896958
vt 0.09027959 0.9896958
vt 0.09027959 0.9896958
vt 0.09027959 0.9896958
vt 0.09027959 0.9896958
vt 0.09027959 0.9896958
vt 0.09027959 0.9896958
vt 0.09027959 0.9896958
vt 0.09027959 0.9896958
vt 0.09027959 0.9896958
vt 0.09027959 0.9896958
vt 0.09027959 0.9896958
vt 0.09027959 0.9896958
vt 0.09027959 0.9896958
vt 0.09027959 0.9896958
vt 0.09027959 0.9896958
vt 0.09027959 0.9896958
vt 0.09027959 0.9896958
vt 0.09027959 0.9896958
vt 0.09027959 0.9896958
vt 0.09027959 0.9896958
vt 0.09027959 0.9896958
vt 0.09027959 0.9896958
vt 0.09027959 0.9896958
vt 0.09027959 0.9896958
vt 0.09027959 0.9896958
vt 0.09027959 0.9896958
vt 0.09027959 0.9896958
vt 0.09027959 0.9896958
vt 0.09027959 0.9896958
vt 0.09027959 0.9896958
vt 0.09027959 0.9896958
vt 0.09027959 0.9896958
vt 0.09027959 0.9896958
vt 0.09027959 0.9896958
vt 0.09027959 0.9896958
vt 0.09027959 0.9896958
vt 0.09027959 0.9896958
vt 0.09027959 0.9896958
vt 0.09027959 0.9896958
vt 0.09027959 0.9896958
vt 0.09027959 0.9896958
vt 0.09027959 0.9896958
vt 0.1290345 0.9896958
vt 0.1290345 0.9896958
vt 0.1290345 0.9896958
vt 0.1290345 0.9896958
vt 0.09027959 0.9896958
vt 0.09027959 0.9896958
vt 0.09027959 0.9896958
vt 0.09027959 0.9896958
vt 0.1290345 0.9896958
vt 0.1290345 0.9896958
vt 0.1290345 0.9896958
vt 0.1290345 0.9896958
vt 0.09027959 0.9896958
vt 0.09027959 0.9896958
vt 0.09027959 0.9896958
vt 0.09027959 0.9896958
vt 0.09027959 0.9896958
vt 0.09027959 0.9896958
vt 0.09027959 0.9896958
vt 0.09027959 0.9896958
vt 0.09027959 0.9896958
vt 0.09027959 0.9896958
vt 0.09027959 0.9896958
vt 0.09027959 0.9896958
vt 0.09027959 0.9896958
vt 0.09027959 0.9896958
vt 0.09027959 0.9896958
vt 0.09027959 0.9896958
vt 0.09027959 0.9896958
vt 0.09027959 0.9896958
vt 0.09027959 0.9896958
vt 0.09027959 0.9896958
vt 0.09027959 0.9896958
vt 0.1290345 0.9896958
vt 0.1290345 0.9896958
vt 0.1290345 0.9896958
vt 0.1290345 0.9896958
vt 0.1290345 0.9896958
vt 0.1290345 0.9896958
vt 0.1290345 0.9896958
vt 0.1290345 0.9896958
vt 0.1290345 0.9896958
vt 0.1290345 0.9896958
vt 0.1290345 0.9896958
vt 0.1290345 0.9896958
vt 0.1290345 0.9896958
vt 0.1290345 0.9896958
vt 0.1290345 0.9896958
vt 0.1290345 0.9896958
vt 0.1290345 0.9896958
vt 0.1290345 0.9896958
vt 0.1290345 0.9896958
vt 0.1290345 0.9896958
vt 0.1290345 0.9896958
vt 0.1290345 0.9896958
vt 0.1290345 0.9896958
vt 0.1290345 0.9896958
vt 0.1290345 0.9896958
vt 0.1290345 0.9896958
vt 0.1290345 0.9896958
vt 0.1290345 0.9896958
vt 0.1290345 0.9896958
vt 0.1290345 0.9896958
vt 0.1290345 0.9896958
vt 0.1290345 0.9896958
vn -0.05539262 0.03198428 0.9979522
vn -0.1258626 0.07266704 0.9893827
vn -0.1258626 0.07266704 0.9893827
vn -0.06308362 0.03640965 0.9973438
vn 0 0 1
vn 0 0 1
vn 0 0 1
vn -0.05539262 0.03198428 0.9979522
vn -0.1258626 0.07266704 0.9893827
vn 0.005707012 -0.003296028 -0.9999783
vn 0 0 -1
vn 0 0 -1
vn 0.006500458 -0.003753786 -0.9999719
vn 0.01303152 -0.00750762 -0.9998869
vn 0.01303152 -0.00750762 -0.9998869
vn 0.01303152 -0.00750762 -0.9998869
vn 0.005707012 -0.003296028 -0.9999783
vn 0 0 -1
vn 0.04083513 0.7448902 0.6659362
vn 0.04083513 0.7448902 0.6659362
vn 0.2075005 0.6854934 0.6978841
vn 0.1932801 0.6915418 0.6959976
vn 0.3534382 0.6121765 0.7073341
vn 0.3534382 0.6121765 0.7073341
vn 0.3513676 0.9362376 0
vn 0.4999893 0.8660316 0
vn 0.4999893 0.8660316 0
vn 0.3431541 0.9392791 0
vn 0.1775586 0.9841102 0
vn 0.1775586 0.9841102 0
vn 0.8660316 -0.4999893 0
vn 0.8660316 -0.4999893 0
vn 0.8660316 -0.4999893 0
vn 0.8660316 -0.4999893 0
vn 0.8660316 -0.4999893 0
vn 0.8660316 -0.4999893 0
vn 0.8660316 -0.4999893 0
vn 0.8660316 -0.4999893 0
vn 0.4999893 0.8660316 0
vn 0.4999893 0.8660316 0
vn 0.4999893 0.8660316 0
vn 0.4999893 0.8660316 0
vn 0.9979599 0.06384502 0
vn 0.9979599 0.06384502 0
vn 0.9979599 0.06384502 0
vn 0.9979599 0.06384502 0
vn 0.4999893 0.8660316 0
vn 0.4999893 0.8660316 0
vn 0.4999893 0.8660316 0
vn 0.4999893 0.8660316 0
vn 0 0 1
vn 0 0 1
vn 0 0 1
vn 0 0 1
vn 0 0 1
vn 0 0 1
vn 0 0 1
vn 0 0 1
vn 0 0 1
vn 0 0 1
vn 0 0 1
vn 0 0 1
vn 0 0 1
vn 0 0 1
vn 0 0 1
vn 0 0 -1
vn 0 0 -1
vn 0 0 -1
vn 0 0 -1
vn 0 0 -1
vn 0 0 -1
vn 0 0 1
vn 0 0 1
vn 0 0 1
vn 0 0 1
vn 0 0 1
vn 0 0 1
vn 0.4999893 0.8660316 0
vn 0.4999893 0.8660316 0
vn 0.4999893 0.8660316 0
vn 0.4999893 0.8660316 0
vn 0.3535396 0.6123769 0.7071098
vn 0.3535396 0.6123769 0.7071098
vn 0.3535396 0.6123769 0.7071098
vn 0.3535396 0.6123769 0.7071098
vn -0.4999893 -0.8660316 0
vn -0.4999893 -0.8660316 0
vn -0.4999893 -0.8660316 0
vn -0.4999893 -0.8660316 0
vn -0.8660316 0.4999893 0
vn -0.8660316 0.4999893 0
vn -0.8660316 0.4999893 0
vn -0.8660316 0.4999893 0
vn -0.8660316 0.4999893 0
vn -0.8660316 0.4999893 0
vn -0.8660316 0.4999893 0
vn -0.8660316 0.4999893 0
vn -0.8660316 0.4999893 0
vn -0.8660316 0.4999893 0
vn -0.8660316 0.4999893 0
vn 0 0 -1
vn 0 0 -1
vn 0 0 -1
vn 0 0 -1
vn 0 0 -1
vn 0 0 -1
vn 0 0 -1
vn 0 0 -1
vn 0 0 -1
vn 0 0 -1
vn 0 0 -1
vn 0 0 -1
vn 0 0 -1
vn 0 0 -1
vn 0 0 -1
vn 0.3218272 0.557437 0.7653047
vn 0.3218272 0.557437 0.7653047
vn 0.3218272 0.557437 0.7653047
vn 0.3218272 0.557437 0.7653047
vn 0.8332923 0.05328627 0.5502586
vn 0.8332923 0.05328627 0.5502586
vn 0.8332923 0.05328627 0.5502586
vn 0.8332923 0.05328627 0.5502586
vn 0.3218272 0.557437 0.7653047
vn 0.3218272 0.557437 0.7653047
vn 0.3218272 0.557437 0.7653047
vn 0.3218272 0.557437 0.7653047
vn -0.6246767 -0.4078039 0.6659393
vn -0.4898945 -0.5224585 0.697883
vn -0.6246767 -0.4078039 0.6659393
vn -0.5022583 -0.5131537 0.6959956
vn -0.3534382 -0.6121765 0.7073341
vn -0.3534382 -0.6121765 0.7073341
vn -0.6351305 -0.7724048 0
vn -0.4999893 -0.8660316 0
vn -0.4999893 -0.8660316 0
vn -0.6418519 -0.7668286 0
vn -0.7634951 -0.6458136 0
vn -0.7634951 -0.6458136 0
vn -0.4999893 -0.8660316 0
vn -0.4999893 -0.8660316 0
vn -0.4999893 -0.8660316 0
vn -0.4999893 -0.8660316 0
vn 0.4436822 -0.8961843 0
vn 0.4436822 -0.8961843 0
vn 0.4436822 -0.8961843 0
vn 0.4436822 -0.8961843 0
vn -0.4999893 -0.8660316 0
vn -0.4999893 -0.8660316 0
vn -0.4999893 -0.8660316 0
vn -0.4999893 -0.8660316 0
vn -0.4999893 -0.8660316 0
vn -0.4999893 -0.8660316 0
vn -0.4999893 -0.8660316 0
vn -0.4999893 -0.8660316 0
vn -0.3535396 -0.6123769 0.7071098
vn -0.3535396 -0.6123769 0.7071098
vn -0.3535396 -0.6123769 0.7071098
vn -0.3535396 -0.6123769 0.7071098
vn 0.4999893 0.8660316 0
vn 0.4999893 0.8660316 0
vn 0.4999893 0.8660316 0
vn 0.4999893 0.8660316 0
vn -0.8660316 0.4999893 0
vn -0.8660316 0.4999893 0
vn -0.8660316 0.4999893 0
vn -0.8660316 0.4999893 0
vn -0.8660316 0.4999893 0
vn -0.3218272 -0.557437 0.7653047
vn -0.3218272 -0.557437 0.7653047
vn -0.3218272 -0.557437 0.7653047
vn -0.3218272 -0.557437 0.7653047
vn 0.3704743 -0.7483038 0.5502638
vn 0.3704743 -0.7483038 0.5502638
vn 0.3704743 -0.7483038 0.5502638
vn 0.3704743 -0.7483038 0.5502638
vn -0.3218272 -0.557437 0.7653047
vn -0.3218272 -0.557437 0.7653047
vn -0.3218272 -0.557437 0.7653047
vn -0.3218272 -0.557437 0.7653047
vn 0.8660316 -0.4999893 0
vn 0.8660316 -0.4999893 0
vn 0.8660316 -0.4999893 0
vn 0.8660316 -0.4999893 0
vn 0.8660316 -0.4999893 0
vn 0.8660316 -0.4999893 0
vn 0.8660316 -0.4999893 0
vn 0.8660316 -0.4999893 0
vn 0.8660316 -0.4999893 0
vn 0.8660316 -0.4999893 0
vn 0.8660316 -0.4999893 0
vn 0.8660316 -0.4999893 0
vn 0.8660316 -0.4999893 0
vn 0.8660316 -0.4999893 0
vn 0.8660316 -0.4999893 0
vn 0.8660316 -0.4999893 0
vn -0.8660316 0.4999893 0
vn -0.8660316 0.4999893 0
vn -0.8660316 0.4999893 0
vn -0.8660316 0.4999893 0
vn -0.8660316 0.4999893 0
vn -0.8660316 0.4999893 0
vn -0.8660316 0.4999893 0
vn -0.8660316 0.4999893 0
vn -0.8660316 0.4999893 0
vn -0.8660316 0.4999893 0
vn -0.8660316 0.4999893 0
vn -0.8660316 0.4999893 0
vn -0.8660316 0.4999893 0
vn -0.8660316 0.4999893 0
vn -0.8660316 0.4999893 0
vn -0.8660316 0.4999893 0
g robotScrap2Mesh_0
f 3/3/3 2/2/2 1/1/1
f 2/2/2 4/4/4 1/1/1
f 5/5/5 1/1/1 4/4/4
f 6/6/6 5/5/5 4/4/4
f 7/7/7 6/6/6 4/4/4
f 8/8/8 7/7/7 4/4/4
f 4/4/4 2/2/2 8/8/8
f 2/2/2 9/9/9 8/8/8
f 12/12/12 11/11/11 10/10/10
f 11/11/11 13/13/13 10/10/10
f 14/14/14 10/10/10 13/13/13
f 15/15/15 14/14/14 13/13/13
f 16/16/16 15/15/15 13/13/13
f 17/17/17 16/16/16 13/13/13
f 13/13/13 11/11/11 17/17/17
f 11/11/11 18/18/18 17/17/17
f 21/21/21 20/20/20 19/19/19
f 22/22/22 21/21/21 19/19/19
f 23/23/23 21/21/21 22/22/22
f 24/24/24 23/23/23 22/22/22
f 27/27/27 26/26/26 25/25/25
f 26/26/26 28/28/28 25/25/25
f 29/29/29 25/25/25 28/28/28
f 30/30/30 29/29/29 28/28/28
f 33/33/33 32/32/32 31/31/31
f 33/33/33 31/31/31 34/34/34
f 34/34/34 35/35/35 33/33/33
f 35/35/35 34/34/34 36/36/36
f 35/35/35 36/36/36 37/37/37
f 37/37/37 38/38/38 35/35/35
f 41/41/41 40/40/40 39/39/39
f 42/42/42 41/41/41 39/39/39
f 45/45/45 44/44/44 43/43/43
f 46/46/46 45/45/45 43/43/43
f 49/49/49 48/48/48 47/47/47
f 50/50/50 49/49/49 47/47/47
f 53/53/53 52/52/52 51/51/51
f 52/52/52 54/54/54 51/51/51
f 54/54/54 52/52/52 55/55/55
f 54/54/54 56/56/56 51/51/51
f 56/56/56 57/57/57 51/51/51
f 55/55/55 58/58/58 54/54/54
f 55/55/55 59/59/59 58/58/58
f 59/59/59 60/60/60 58/58/58
f 58/58/58 61/61/61 54/54/54
f 56/56/56 54/54/54 61/61/61
f 61/61/61 62/62/62 56/56/56
f 62/62/62 63/63/63 56/56/56
f 64/64/64 63/63/63 62/62/62
f 65/65/65 64/64/64 62/62/62
f 68/68/68 67/67/67 66/66/66
f 69/69/69 68/68/68 66/66/66
f 68/68/68 69/69/69 70/70/70
f 71/71/71 68/68/68 70/70/70
f 74/74/74 73/73/73 72/72/72
f 73/73/73 75/75/75 72/72/72
f 75/75/75 76/76/76 72/72/72
f 76/76/76 77/77/77 72/72/72
f 80/80/80 79/79/79 78/78/78
f 81/81/81 80/80/80 78/78/78
f 84/84/84 83/83/83 82/82/82
f 85/85/85 84/84/84 82/82/82
f 88/88/88 87/87/87 86/86/86
f 89/89/89 88/88/88 86/86/86
f 92/92/92 91/91/91 90/90/90
f 91/91/91 93/93/93 90/90/90
f 93/93/93 94/94/94 90/90/90
f 94/94/94 95/95/95 90/90/90
f 98/98/98 97/97/97 96/96/96
f 96/96/96 99/99/99 98/98/98
f 96/96/96 100/100/100 99/99/99
f 103/103/103 102/102/102 101/101/101
f 104/104/104 103/103/103 101/101/101
f 105/105/105 104/104/104 101/101/101
f 101/101/101 106/106/106 105/105/105
f 105/105/105 106/106/106 107/107/107
f 108/108/108 105/105/105 107/107/107
f 105/105/105 108/108/108 109/109/109
f 105/105/105 110/110/110 104/104/104
f 111/111/111 105/105/105 109/109/109
f 110/110/110 105/105/105 111/111/111
f 111/111/111 112/112/112 110/110/110
f 111/111/111 113/113/113 112/112/112
f 114/114/114 112/112/112 113/113/113
f 115/115/115 114/114/114 113/113/113
f 118/118/118 117/117/117 116/116/116
f 119/119/119 118/118/118 116/116/116
f 122/122/122 121/121/121 120/120/120
f 123/123/123 122/122/122 120/120/120
f 126/126/126 125/125/125 124/124/124
f 127/127/127 126/126/126 124/124/124
f 130/130/130 129/129/129 128/128/128
f 129/129/129 131/131/131 128/128/128
f 129/129/129 132/132/132 131/131/131
f 132/132/132 133/133/133 131/131/131
f 136/136/136 135/135/135 134/134/134
f 137/137/137 136/136/136 134/134/134
f 134/134/134 138/138/138 137/137/137
f 138/138/138 139/139/139 137/137/137
f 142/142/142 141/141/141 140/140/140
f 143/143/143 142/142/142 140/140/140
f 146/146/146 145/145/145 144/144/144
f 147/147/147 146/146/146 144/144/144
f 150/150/150 149/149/149 148/148/148
f 151/151/151 150/150/150 148/148/148
f 154/154/154 153/153/153 152/152/152
f 155/155/155 154/154/154 152/152/152
f 158/158/158 157/157/157 156/156/156
f 159/159/159 158/158/158 156/156/156
f 162/162/162 161/161/161 160/160/160
f 163/163/163 162/162/162 160/160/160
f 166/166/166 165/165/165 164/164/164
f 164/164/164 167/167/167 166/166/166
f 164/164/164 168/168/168 167/167/167
f 171/171/171 170/170/170 169/169/169
f 172/172/172 171/171/171 169/169/169
f 175/175/175 174/174/174 173/173/173
f 176/176/176 175/175/175 173/173/173
f 179/179/179 178/178/178 177/177/177
f 180/180/180 179/179/179 177/177/177
f 183/183/183 182/182/182 181/181/181
f 182/182/182 183/183/183 184/184/184
f 182/182/182 185/185/185 181/181/181
f 186/186/186 182/182/182 184/184/184
f 181/181/181 185/185/185 187/187/187
f 185/185/185 188/188/188 187/187/187
f 186/186/186 184/184/184 189/189/189
f 190/190/190 186/186/186 189/189/189
f 188/188/188 191/191/191 187/187/187
f 191/191/191 192/192/192 187/187/187
f 193/193/193 190/190/190 189/189/189
f 194/194/194 193/193/193 189/189/189
f 192/192/192 191/191/191 195/195/195
f 193/193/193 194/194/194 195/195/195
f 191/191/191 196/196/196 195/195/195
f 196/196/196 193/193/193 195/195/195
f 199/199/199 198/198/198 197/197/197
f 198/198/198 200/200/200 197/197/197
f 201/201/201 199/199/199 197/197/197
f 200/200/200 202/202/202 197/197/197
f 203/203/203 199/199/199 201/201/201
f 204/204/204 203/203/203 201/201/201
f 200/200/200 205/205/205 202/202/202
f 205/205/205 206/206/206 202/202/202
f 204/204/204 207/207/207 203/203/203
f 207/207/207 208/208/208 203/203/203
f 209/209/209 206/206/206 205/205/205
f 210/210/210 209/209/209 205/205/205
f 211/211/211 208/208/208 207/207/207
f 210/210/210 211/211/211 209/209/209
f 212/212/212 211/211/211 207/207/207
f 211/211/211 212/212/212 209/209/209
