g spmBbBigFern1Young_LOD1
v -0.08463596 0.13372 0.2061554
v -0.01436065 0.5328426 0.2620314
v -0.03338505 0.1445743 0.06521776
v 0.04010955 0.5543587 0.1235467
v 0.05710002 0.1469892 -0.03845601
v 0.1313258 0.5560509 0.02050115
v 0.199911 0.1381488 -0.09243152
v 0.2715487 0.5313048 -0.03527999
v 0.1086826 0.8605671 0.3899361
v 0.1646015 0.8899438 0.2534882
v 0.2539722 0.8898267 0.1488241
v 0.3879568 0.8503737 0.08655039
v 0.2976537 1.16229 0.5333707
v 0.3535034 1.191536 0.3968664
v 0.4383064 1.18396 0.2887337
v 0.5617244 1.127275 0.2184398
v 0.4961114 1.409168 0.6896213
v 0.5647792 1.451674 0.5627909
v 0.6559436 1.450252 0.4596954
v 0.7771114 1.390243 0.3882551
v 0.6159922 1.508494 0.7899429
v 0.6892251 1.55402 0.6667668
v 0.7775226 1.549953 0.5612743
v 0.8859116 1.479744 0.4793663
v 0.755043 1.563065 0.9004444
v 0.8318202 1.610592 0.7802176
v 0.91857 1.605984 0.6734708
v 1.018621 1.531846 0.5847021
v 0.2149309 0.1274171 -0.0892174
v 0.2296741 0.8033601 -0.133179
v 0.07437943 0.1421822 -0.01559753
v 0.08932957 0.7889431 -0.05909676
v -0.06882201 0.1496321 -0.01768572
v -0.05366858 0.778244 -0.06098408
v -0.2140101 0.1515975 -0.07653985
v -0.1986565 0.7703326 -0.1198336
v 0.1804934 1.22508 -0.09776979
v 0.04313286 1.190562 -0.02474062
v -0.09661094 1.158482 -0.02774168
v -0.2381421 1.128229 -0.0877507
v 0.1101486 1.43575 -0.09710959
v -0.02354641 1.388354 -0.02450287
v -0.156271 1.334127 -0.02768895
v -0.2882677 1.274778 -0.08770558
v -0.08201651 1.811559 -0.1741045
v -0.2056327 1.746056 -0.09780911
v -0.3260924 1.668246 -0.09655211
v -0.4441853 1.581208 -0.1515594
v -0.3509958 2.136147 -0.2396813
v -0.4620012 2.05457 -0.1595844
v -0.5689375 1.959163 -0.1542169
v -0.6728228 1.853389 -0.2048814
v -0.1925848 0.1272839 -0.137854
v -0.2879949 0.6952375 -0.1274585
v -0.0567626 0.1415247 -0.05276698
v -0.1552444 0.7238778 -0.04116019
v 0.03084881 0.1507523 0.06526195
v -0.06895886 0.7372862 0.07744297
v 0.05416205 0.1532943 0.2272244
v -0.04464223 0.7303804 0.2391302
v -0.4416284 1.243544 -0.04030828
v -0.3053587 1.263044 0.0430021
v -0.2121917 1.257252 0.1569235
v -0.1765097 1.217726 0.3116696
v -0.5089654 1.407289 0.03576523
v -0.3718304 1.425461 0.1179485
v -0.2736254 1.408577 0.226403
v -0.2273409 1.344942 0.3698958
v -0.5938303 1.549028 0.1459581
v -0.4545467 1.56429 0.2250625
v -0.3499905 1.537296 0.3252177
v -0.2917494 1.453948 0.4534476
v -0.6798269 1.669917 0.2864837
v -0.5357329 1.678884 0.3575246
v -0.4239469 1.64222 0.4461324
v -0.3552496 1.5447 0.5581693
v -0.7558035 1.777409 0.4458026
v -0.6069952 1.780119 0.5069504
v -0.488025 1.733928 0.5804636
v -0.4088499 1.622518 0.6704686
v -0.8212516 1.842214 0.621411
v -0.6703967 1.842434 0.6773844
v -0.5477207 1.791888 0.7413181
v -0.4626273 1.673637 0.8158673
vt 0 0
vt 0.390625 0
vt 0.064 0.390625
vt 0 0.004
vt 0.343014 0.217151
vt 0.390625 0.6551691
vt 0.004 0.390625
vt 0.217151 0.064
vt 1 0
vt 0.390625 1
vt 0.064 0.390625
vt 0.413022 0.191
vt 0.343014 0.413022
vt 0.390625 0.6551691
vt 0.191 0.390625
vt 0.413022 0.191
vt 0 0.608783
vt 0.390625 0.343014
vt 0.395 0.390625
vt 0.608783 0.395
vt 1 0.608783
vt 0.390625 0
vt 0.666 0.390625
vt 0.804623 0.666
vt 0.6551691 0.804623
vt 0.390625 1
vt 0.666 0.390625
vt 0.902236 0.811
vt 0.343014 0.902236
vt 0.390625 0.6551691
vt 0.811 0.390625
vt 0.902236 0.811
vt 0 1
vt 0.390625 0.343014
vt 0.951 0.390625
vt 1 0.951
vt 1 1
vt 0.390625 1
vt 0.003 11.37891
vt 0.316868 0.118
vt 0.6551691 0
vt 11.37891 0.6551691
vt 0.118 11.37891
vt 0 0.003
vt 0.343014 0.316868
vt 11.37891 0
vt 0.003 11.37891
vt 0.316868 0.118
vt 1 0.51214
vt 11.37891 0.6551691
vt 0.283 11.37891
vt 0.51214 0.283
vt 0 0.51214
vt 11.37891 1
vt 0.395 11.37891
vt 0.6095951 0.395
vt 0.343014 0.6095951
vt 11.37891 0
vt 0.395 11.37891
vt 0.804718 0.665
vt 0.6551691 0.804718
vt 11.37891 0.343014
vt 0.665 11.37891
vt 0.804718 0.665
vt 1 1
vt 11.37891 0.6551691
vt 0.951 11.37891
vt 1 0.951
vt 0 1
vt 11.37891 0
vt 0.003 8.367188
vt 0.286199 0.09900001
vt 0.343014 0
vt 8.367188 0.343014
vt 0.09900001 8.367188
vt 0 0.003
vt 0.6551681 0.286199
vt 8.367188 1
vt 0.003 8.367188
vt 0.286199 0.09900001
vt 0 0.553942
vt 8.367188 0.343014
vt 0.328 8.367188
vt 0.553942 0.328
vn -0.984387 0.175395 -0.014782
vn -0.901204 0.430733 0.047958
vn -0.8965281 0.215855 -0.386838
vn -0.803872 0.505261 -0.313847
vn -0.45386 0.207261 -0.866634
vn -0.360408 0.505555 -0.783913
vn -0.033873 0.149813 -0.988134
vn 0.049841 0.417781 -0.9071801
vn -0.685708 0.6970561 0.209565
vn -0.578032 0.805942 -0.127816
vn -0.163582 0.795301 -0.583727
vn 0.207081 0.653975 -0.727623
vn -0.42293 0.837263 0.346585
vn -0.296407 0.9544211 0.034987
vn 0.08901901 0.9161021 -0.390939
vn 0.412658 0.734063 -0.539319
vn -0.181771 0.820242 0.542368
vn -0.050675 0.962814 0.26537
vn 0.297885 0.944473 -0.138689
vn 0.582711 0.753006 -0.305664
vn 0.155266 0.676752 0.719653
vn 0.309673 0.811663 0.495284
vn 0.599113 0.784345 0.160831
vn 0.807031 0.590318 -0.015003
vn 0.367409 0.465575 0.80514
vn 0.5209029 0.589736 0.617148
vn 0.7512349 0.566262 0.339108
vn 0.906549 0.388563 0.164885
vn 0.717599 0.029603 0.6958271
vn 0.685593 0.249051 0.684059
vn 0.348239 0.05489 0.935797
vn 0.31893 0.249525 0.914342
vn -0.305142 0.072759 0.9495241
vn -0.315997 0.232497 0.9198321
vn -0.642006 0.06935801 0.7635561
vn -0.6437141 0.21437 0.734627
vn 0.570842 0.512161 0.64174
vn 0.220461 0.451932 0.864381
vn -0.37745 0.337547 0.862319
vn -0.685874 0.271953 0.674995
vn 0.287908 0.8629079 0.41533
vn -0.02202 0.783608 0.620865
vn -0.51385 0.569478 0.641602
vn -0.771514 0.405591 0.490165
vn 0.005228001 0.979039 0.203606
vn -0.266829 0.880506 0.391806
vn -0.657254 0.6285141 0.415917
vn -0.857843 0.426766 0.286315
vn -0.240788 0.969775 0.039454
vn -0.475462 0.856243 0.20195
vn -0.768428 0.605594 0.20682
vn -0.9131401 0.398603 0.08539001
vn 0.235947 0.057392 -0.97007
vn 0.173894 0.292559 -0.940303
vn 0.579781 0.114126 -0.80674
vn 0.514481 0.360024 -0.778262
vn 0.948227 0.166966 -0.270162
vn 0.885346 0.394441 -0.246126
vn 0.971928 0.162904 0.169761
vn 0.915349 0.354874 0.190264
vn 0.059712 0.5609829 -0.825671
vn 0.392214 0.6396161 -0.661105
vn 0.7629629 0.6305081 -0.142646
vn 0.8040521 0.527394 0.274509
vn -0.166628 0.841975 -0.51314
vn 0.146413 0.924076 -0.353054
vn 0.530017 0.8431401 0.09053601
vn 0.622327 0.6480181 0.43907
vn -0.341111 0.9174101 -0.204945
vn -0.046337 0.9977591 -0.048275
vn 0.332268 0.884208 0.32829
vn 0.451897 0.6496221 0.611376
vn -0.443394 0.8921111 0.086831
vn -0.163874 0.9591161 0.230744
vn 0.200312 0.824946 0.5285261
vn 0.33595 0.575071 0.745943
vn -0.507058 0.770308 0.3866751
vn -0.246028 0.818887 0.51855
vn 0.08800301 0.672849 0.7345271
vn 0.231169 0.419533 0.8778111
vn -0.550401 0.587948 0.592769
vn -0.313856 0.62538 0.714419
vn -0.028607 0.492006 0.8701221
vn 0.107976 0.255714 0.960704
g spmBbBigFern1Young_LOD1_0
f 2/2/2 3/3/3 1/1/1
f 3/3/3 2/2/2 4/4/4
f 4/4/4 5/5/5 3/3/3
f 5/5/5 4/4/4 6/6/6
f 6/6/6 7/7/7 5/5/5
f 7/7/7 6/6/6 8/8/8
f 9/9/9 4/4/4 2/2/2
f 4/4/4 9/9/9 10/10/10
f 10/10/10 6/6/6 4/4/4
f 6/6/6 10/10/10 11/11/11
f 11/11/11 8/8/8 6/6/6
f 8/8/8 11/11/11 12/12/12
f 13/13/13 10/10/10 9/9/9
f 10/10/10 13/13/13 14/14/14
f 14/14/14 11/11/11 10/10/10
f 11/11/11 14/14/14 15/15/15
f 15/15/15 12/12/12 11/11/11
f 12/12/12 15/15/15 16/16/16
f 17/17/17 14/14/14 13/13/13
f 14/14/14 17/17/17 18/18/18
f 18/18/18 15/15/15 14/14/14
f 15/15/15 18/18/18 19/19/19
f 19/19/19 16/16/16 15/15/15
f 16/16/16 19/19/19 20/20/20
f 21/21/21 18/18/18 17/17/17
f 18/18/18 21/21/21 22/22/22
f 22/22/22 19/19/19 18/18/18
f 19/19/19 22/22/22 23/23/23
f 23/23/23 20/20/20 19/19/19
f 20/20/20 23/23/23 24/24/24
f 25/25/25 22/22/22 21/21/21
f 22/22/22 25/25/25 26/26/26
f 26/26/26 23/23/23 22/22/22
f 23/23/23 26/26/26 27/27/27
f 27/27/27 24/24/24 23/23/23
f 24/24/24 27/27/27 28/28/28
f 30/30/30 31/31/31 29/29/29
f 31/31/31 30/30/30 32/32/32
f 32/32/32 33/33/33 31/31/31
f 33/33/33 32/32/32 34/34/34
f 34/34/34 35/35/35 33/33/33
f 35/35/35 34/34/34 36/36/36
f 37/37/37 32/32/32 30/30/30
f 32/32/32 37/37/37 38/38/38
f 38/38/38 34/34/34 32/32/32
f 34/34/34 38/38/38 39/39/39
f 39/39/39 36/36/36 34/34/34
f 36/36/36 39/39/39 40/40/40
f 41/41/41 38/38/38 37/37/37
f 38/38/38 41/41/41 42/42/42
f 42/42/42 39/39/39 38/38/38
f 39/39/39 42/42/42 43/43/43
f 43/43/43 40/40/40 39/39/39
f 40/40/40 43/43/43 44/44/44
f 45/45/45 42/42/42 41/41/41
f 42/42/42 45/45/45 46/46/46
f 46/46/46 43/43/43 42/42/42
f 43/43/43 46/46/46 47/47/47
f 47/47/47 44/44/44 43/43/43
f 44/44/44 47/47/47 48/48/48
f 49/49/49 46/46/46 45/45/45
f 46/46/46 49/49/49 50/50/50
f 50/50/50 47/47/47 46/46/46
f 47/47/47 50/50/50 51/51/51
f 51/51/51 48/48/48 47/47/47
f 48/48/48 51/51/51 52/52/52
f 54/54/54 55/55/55 53/53/53
f 55/55/55 54/54/54 56/56/56
f 56/56/56 57/57/57 55/55/55
f 57/57/57 56/56/56 58/58/58
f 58/58/58 59/59/59 57/57/57
f 59/59/59 58/58/58 60/60/60
f 61/61/61 56/56/56 54/54/54
f 56/56/56 61/61/61 62/62/62
f 62/62/62 58/58/58 56/56/56
f 58/58/58 62/62/62 63/63/63
f 63/63/63 60/60/60 58/58/58
f 60/60/60 63/63/63 64/64/64
f 65/65/65 62/62/62 61/61/61
f 62/62/62 65/65/65 66/66/66
f 66/66/66 63/63/63 62/62/62
f 63/63/63 66/66/66 67/67/67
f 67/67/67 64/64/64 63/63/63
f 64/64/64 67/67/67 68/68/68
f 69/69/69 66/66/66 65/65/65
f 66/66/66 69/69/69 70/70/70
f 70/70/70 67/67/67 66/66/66
f 67/67/67 70/70/70 71/71/71
f 71/71/71 68/68/68 67/67/67
f 68/68/68 71/71/71 72/72/72
f 73/73/73 70/70/70 69/69/69
f 70/70/70 73/73/73 74/74/74
f 74/74/74 71/71/71 70/70/70
f 71/71/71 74/74/74 75/75/75
f 75/75/75 72/72/72 71/71/71
f 72/72/72 75/75/75 76/76/76
f 77/77/77 74/74/74 73/73/73
f 74/74/74 77/77/77 78/78/78
f 78/78/78 75/75/75 74/74/74
f 75/75/75 78/78/78 79/79/79
f 79/79/79 76/76/76 75/75/75
f 76/76/76 79/79/79 80/80/80
f 81/81/81 78/78/78 77/77/77
f 78/78/78 81/81/81 82/82/82
f 82/82/82 79/79/79 78/78/78
f 79/79/79 82/82/82 83/83/83
f 83/83/83 80/80/80 79/79/79
f 80/80/80 83/83/83 84/84/84
