g terrainMesh.056
v -24.80491 20 42.9854
v -25 20 43.07828
v -25 24.93565 43.85456
v -23.72447 24.0117 43.10199
v -22.09402 20 39.5574
v -23.33022 30 43.68392
v -25 30 44.51206
v -18.6467 30 40.11565
v -19.57301 22.21197 37.1871
v -20.31506 20 36.42455
v -18.35967 30 39.77125
v -18.7527 21.45956 31.23768
v -19.60471 20 32.65662
v -18.31625 30 39.50731
v -18.50054 20 30.1146
v -16.90388 20 26.59619
v -17.987 30 38.4373
v -16.59367 21.5977 26.53373
v -16.95607 28.61224 33.51275
v -16.17888 30 34.22504
v -15.7681 30 32.65458
v -15.40177 30 31.40831
v -15.95306 28.94423 30.86206
v -15 30 30.48573
v -15 29.30481 29.29245
v -15.34823 24.03619 25.60783
v -15 26.26429 26.77207
v -15 24.7267 25.57286
v -15 24.58306 25.40952
v -15 23.27331 24.25119
v -16.21153 20 23.7289
v -16.11695 20 23.54368
v -15 22.48085 23.64692
v -15.66093 20 22.81351
v -15.3295 20 22.34542
v -15 20.77543 22.43233
v -15.05759 20 21.82308
v -15 20.10377 21.80879
v -15 20 21.72451
v -16.5419 20 24.50276
v -16.57919 20.1615 24.74619
v -16.62145 20 24.75302
v -16.83463 20 25.76238
v -16.90388 20 26.59619
vt 0.2485304 0.2428452
vt 0.249373 0.2428487
vt 0.2511325 0.2228152
vt 0.2452938 0.2265427
vt 0.2312772 0.2432948
vt 0.2452789 0.2022697
vt 0.2525772 0.2022918
vt 0.2215776 0.2024978
vt 0.2172393 0.2346252
vt 0.2176639 0.2437957
vt 0.219799 0.2025411
vt 0.1993157 0.2389324
vt 0.2056993 0.2445822
vt 0.2189804 0.202597
vt 0.1956999 0.2450324
vt 0.1816489 0.2456466
vt 0.2151894 0.202804
vt 0.1804478 0.2391948
vt 0.1993073 0.2094007
vt 0.1986863 0.2035526
vt 0.1933457 0.2038657
vt 0.1889831 0.2041089
vt 0.1893209 0.2085538
vt 0.1853508 0.2042722
vt 0.1822914 0.2073465
vt 0.1740791 0.2294418
vt 0.1759103 0.2201636
vt 0.1728788 0.2266277
vt 0.1724625 0.2272435
vt 0.1695254 0.2327816
vt 0.1720759 0.2462255
vt 0.1713037 0.2462565
vt 0.1679988 0.2361099
vt 0.1680032 0.2463679
vt 0.1657668 0.2464343
vt 0.164936 0.2432526
vt 0.1635732 0.246521
vt 0.1633532 0.2460995
vt 0.1631399 0.2465365
vt 0.1751022 0.2460878
vt 0.1758403 0.2453862
vt 0.1759967 0.2460397
vt 0.1792724 0.245832
vt 0.1816489 0.2456466
vn 0.5911044 -0.1820191 0.7857893
vn 0.4255626 -0.1405724 0.893944
vn 0.4366346 -0.1230524 0.8911837
vn 0.5960436 -0.1879079 0.7806554
vn 0.7734142 -0.2637763 0.5764136
vn 0.5242022 -0.1164928 0.8435884
vn 0.4413365 -0.1155147 0.8898755
vn 0.7021424 -0.2660005 0.6604844
vn 0.8802483 -0.3033045 0.3649237
vn 0.8692604 -0.3943748 0.2980853
vn 0.8593421 -0.2765997 0.4301441
vn 0.9132308 -0.2466574 0.3242987
vn 0.9209076 -0.3168166 0.2270606
vn 0.9529693 -0.2345418 0.1919367
vn 0.9015405 -0.1550686 0.4039536
vn 0.9505568 -0.1745098 0.2568816
vn 0.8940682 -0.3458773 0.2846246
vn 0.9050025 -0.269694 0.3289919
vn 0.8593368 -0.4290122 0.2783681
vn 0.77196 -0.5732781 0.2746449
vn 0.804877 -0.547663 0.2285566
vn 0.7858636 -0.5532784 0.2762272
vn 0.8354629 -0.4395679 0.3298209
vn 0.7562771 -0.5653155 0.3293376
vn 0.8148226 -0.4215873 0.3979047
vn 0.8462899 -0.3500521 0.4015681
vn 0.8307958 -0.3541762 0.4293452
vn 0.8084583 -0.3851851 0.445003
vn 0.8360738 -0.3939115 0.3818564
vn 0.819714 -0.3735544 0.434196
vn 0.8403075 -0.3659216 0.3999808
vn 0.8067695 -0.3741323 0.4573271
vn 0.7826678 -0.3753265 0.4965492
vn 0.7696263 -0.3779159 0.5146406
vn 0.7843727 -0.3875627 0.4843084
vn 0.7695354 -0.3841726 0.5101242
vn 0.8091489 -0.3882926 0.4410293
vn 0.8105646 -0.3896106 0.4372514
vn 0.7989898 -0.3791081 0.4667895
vn 0.8745722 -0.3315049 0.3538758
vn 0.9112023 -0.2938968 0.2886781
vn 0.9404647 -0.2357647 0.2448291
vn 0.9624914 -0.2210828 0.1572666
vn 0.9505568 -0.1745098 0.2568816
g terrainMesh.056_0
f 3/3/3 2/2/2 1/1/1
f 4/4/4 3/3/3 1/1/1
f 1/1/1 5/5/5 4/4/4
f 4/4/4 6/6/6 3/3/3
f 6/6/6 7/7/7 3/3/3
f 6/6/6 4/4/4 8/8/8
f 5/5/5 9/9/9 4/4/4
f 4/4/4 9/9/9 8/8/8
f 10/10/10 9/9/9 5/5/5
f 9/9/9 11/11/11 8/8/8
f 9/9/9 10/10/10 12/12/12
f 11/11/11 9/9/9 12/12/12
f 10/10/10 13/13/13 12/12/12
f 14/14/14 11/11/11 12/12/12
f 13/13/13 15/15/15 12/12/12
f 12/12/12 15/15/15 16/16/16
f 17/17/17 14/14/14 12/12/12
f 18/18/18 12/12/12 16/16/16
f 19/19/19 17/17/17 12/12/12
f 19/19/19 20/20/20 17/17/17
f 20/20/20 19/19/19 21/21/21
f 22/22/22 21/21/21 19/19/19
f 23/23/23 22/22/22 19/19/19
f 23/23/23 19/19/19 12/12/12
f 24/24/24 22/22/22 23/23/23
f 25/25/25 24/24/24 23/23/23
f 23/23/23 12/12/12 26/26/26
f 23/23/23 26/26/26 25/25/25
f 12/12/12 18/18/18 26/26/26
f 26/26/26 27/27/27 25/25/25
f 28/28/28 27/27/27 26/26/26
f 26/26/26 29/29/29 28/28/28
f 30/30/30 29/29/29 26/26/26
f 30/30/30 26/26/26 31/31/31
f 31/31/31 32/32/32 30/30/30
f 33/33/33 30/30/30 32/32/32
f 34/34/34 33/33/33 32/32/32
f 34/34/34 35/35/35 33/33/33
f 35/35/35 36/36/36 33/33/33
f 36/36/36 35/35/35 37/37/37
f 38/38/38 36/36/36 37/37/37
f 39/39/39 38/38/38 37/37/37
f 40/40/40 31/31/31 26/26/26
f 41/41/41 40/40/40 26/26/26
f 41/41/41 42/42/42 40/40/40
f 41/41/41 26/26/26 18/18/18
f 43/43/43 42/42/42 41/41/41
f 18/18/18 43/43/43 41/41/41
f 44/44/44 43/43/43 18/18/18
