g terrainMesh.033
v -34.4693 -9.999999 13.68291
v -35.57193 -9.999999 16.29217
v -34.36138 -12.49089 15.01001
v -32.70774 -15.38867 14.13182
v -33.35411 -16.3341 17.9688
v -31.43495 -14.81347 19.47293
v -27.99318 -12.8333 19.86604
v -29.16287 -14.42494 19.84473
v -31.43495 -14.81347 19.47293
v -29.16287 -14.42494 19.84473
v -29.43841 -17.7984 18.77415
v -32.70774 -15.38867 14.13182
v -29.96602 -16.97374 12.21497
v -32.38057 -12.11827 11.77149
v -34.36138 -12.49089 15.01001
v -34.27842 -9.999999 13.39233
v -34.4693 -9.999999 13.68291
v -25 -16.99596 6.999674
v -25 -16.98271 6.973686
v -25.01089 -16.98143 6.979341
v -25 -17.98158 9.069745
v -26.91085 -17.31251 9.451821
v -25 -18.50065 10.53494
v -26.27052 -18.7144 12.64807
v -25 -18.84278 12.14205
v -25 -18.86585 13.56858
v -29.96602 -16.97374 12.21497
v -25 -18.98287 15.89694
v -30.62786 -17.85118 15.28265
v -32.70774 -15.38867 14.13182
v -33.35411 -16.3341 17.9688
v -29.43841 -17.7984 18.77415
v -26.97582 -18.84889 16.48617
v -25 -18.65866 18.70331
v -25 -18.5426 19.15863
v -33.35411 -16.3341 17.9688
v -31.43495 -14.81347 19.47293
v -29.43841 -17.7984 18.77415
v -34.63845 -12.442 17.99993
v -31.38772 -11.57069 19.62548
v -34.36138 -12.49089 15.01001
v -32.06498 -9.999999 19.43131
v -35.57193 -9.999999 16.29217
v -33.62135 -9.999999 18.68743
v -35.6129 -9.999999 16.77157
v -25 -18.21591 19.25863
v -25 -18.5426 19.15863
v -29.43841 -17.7984 18.77415
v -29.16287 -14.42494 19.84473
v -25 -16.98271 6.973686
v -25 -16.92182 6.902838
v -25.01089 -16.98143 6.979341
v -29.32466 -15.20988 9.785724
v -26.91085 -17.31251 9.451821
v -29.96602 -16.97374 12.21497
v -25 -15.18515 5.021455
v -29.38427 -10.10086 5.28016
v -25 -14.84004 4.712689
v -25 -12.12745 2.496243
v -32.38057 -12.11827 11.77149
v -25 -12.00787 2.379798
v -26.94247 -9.999999 2.532352
v -25 -9.999999 1.103776
v -29.4058 -9.999999 5.205309
v -29.48827 -9.999999 5.311479
v -30.72108 -11.48804 8.772923
v -31.25669 -9.999999 7.818957
v -31.9255 -9.999999 9.413198
v -32.82124 -9.999999 10.76314
v -34.27842 -9.999999 13.39233
v -25 -18.21591 19.25863
v -29.16287 -14.42494 19.84473
v -25 -15.92035 19.85503
v -25 -13.58555 19.93134
v -27.99318 -12.8333 19.86604
v -25 -13.2426 19.93057
v -27.91112 -9.999999 19.8589
v -25 -12.50802 19.92827
v -25 -9.999999 19.9236
v -28.30182 -9.999999 19.85064
v -28.92476 -9.999999 19.80595
v -31.38772 -11.57069 19.62548
v -32.06498 -9.999999 19.43131
v -31.43495 -14.81347 19.47293
vt 0.3862754 0.4309934
vt 0.3882341 0.4216421
vt 0.3769383 0.426103
vt 0.363829 0.4307283
vt 0.3621744 0.419262
vt 0.2948761 0.9985812
vt 0.2948761 0.9877567
vt 0.2916697 0.993121
vt 0.03821077 0.9824188
vt 0.03207621 0.9841228
vt 0.03821077 0.9966672
vt 0.363829 0.4307283
vt 0.3545343 0.4423907
vt 0.3754475 0.4400366
vt 0.3769383 0.426103
vt 0.3859994 0.4322554
vt 0.3862754 0.4309934
vt 0.1228408 0.931469
vt 0.122917 0.9315405
vt 0.1229302 0.9314928
vt 0.1167744 0.9257758
vt 0.1208731 0.9190934
vt 0.1124739 0.9217469
vt 0.1097424 0.9121917
vt 0.1077483 0.9173286
vt 0.1035432 0.913408
vt 0.121108 0.9024912
vt 0.09668258 0.9070086
vt 0.1139146 0.892105
vt 0.1229302 0.8891445
vt 0.1134286 0.8766894
vt 0.1003501 0.8860174
vt 0.1003691 0.8995631
vt 0.08839606 0.8992974
vt 0.08704923 0.8980466
vt 0.8674663 0.4231856
vt 0.8776498 0.4268788
vt 0.8772882 0.4134311
vt 0.8677264 0.4396293
vt 0.880626 0.4394504
vt 0.8581948 0.4398673
vt 0.8797025 0.4462913
vt 0.8618031 0.4504772
vt 0.8739465 0.4479967
vt 0.8633328 0.4504051
vt 0.5083383 0.9757562
vt 0.5075175 0.9746504
vt 0.4992316 0.98392
vt 0.5083383 0.9949189
vt 0.3482262 0.4700769
vt 0.3484372 0.4702901
vt 0.3482428 0.4700303
vt 0.3599528 0.4514781
vt 0.3495277 0.4580939
vt 0.3545343 0.4423907
vt 0.3545088 0.4760615
vt 0.378268 0.4659836
vt 0.3557408 0.4770642
vt 0.365507 0.4844789
vt 0.3754475 0.4400366
vt 0.3659302 0.4848473
vt 0.3755122 0.4800723
vt 0.3733019 0.4895281
vt 0.3786524 0.4661728
vt 0.3787641 0.4656706
vt 0.3753337 0.4526358
vt 0.3812489 0.4543884
vt 0.3824416 0.4486906
vt 0.3837314 0.4427991
vt 0.3859994 0.4322554
vt 0.1895549 0.4021143
vt 0.2037196 0.3872657
vt 0.1909837 0.392742
vt 0.1910613 0.383333
vt 0.2000852 0.380708
vt 0.1910417 0.3819537
vt 0.1996677 0.3693028
vt 0.1909979 0.3789996
vt 0.1908566 0.3689127
vt 0.2008513 0.3693551
vt 0.2026567 0.3694457
vt 0.209866 0.3761229
vt 0.2113704 0.3699376
vt 0.209783 0.3892079
vn -0.8344296 -0.2868514 -0.4705779
vn -0.9179596 -0.3540849 -0.1788126
vn -0.8854515 -0.3369007 -0.3201151
vn -0.7545311 -0.4999688 -0.4251047
vn -0.723584 -0.5930221 0.3532008
vn -0.2995402 -0.1982489 0.9332593
vn -0.05005158 0.002899329 0.9987425
vn -0.1209456 -0.0778837 0.9895991
vn -0.2995402 -0.1982489 0.9332593
vn -0.1209456 -0.0778837 0.9895991
vn -0.2706183 -0.733816 0.623121
vn -0.7545311 -0.4999688 -0.4251047
vn -0.5724223 -0.6855578 -0.4498258
vn -0.7690943 -0.3753912 -0.5172769
vn -0.8854515 -0.3369007 -0.3201151
vn -0.7983256 -0.3295481 -0.5040578
vn -0.8344296 -0.2868514 -0.4705779
vn -0.3661424 -0.8386453 -0.4032542
vn -0.3681582 -0.7595723 -0.5361992
vn -0.4586107 -0.7293152 -0.5077159
vn -0.371446 -0.8573381 -0.3563696
vn -0.4833938 -0.7566323 -0.4402702
vn -0.3365675 -0.8949498 -0.2928943
vn -0.242661 -0.9537057 -0.1776543
vn -0.1519548 -0.9793895 -0.1330634
vn -0.0897568 -0.9951683 -0.03979696
vn -0.5724223 -0.6855578 -0.4498258
vn -0.06253254 -0.9978961 0.01712091
vn -0.4641318 -0.8752217 -0.136267
vn -0.7545311 -0.4999688 -0.4251047
vn -0.723584 -0.5930221 0.3532008
vn -0.2706183 -0.733816 0.623121
vn -0.1708741 -0.9825187 0.07388575
vn -0.1470431 -0.9657295 0.2138809
vn -0.1789652 -0.7221172 0.6682202
vn -0.723584 -0.5930221 0.3532008
vn -0.2995402 -0.1982489 0.9332593
vn -0.2706183 -0.733816 0.623121
vn -0.8352238 -0.2088746 0.5086969
vn -0.2453131 -0.01733489 0.9692889
vn -0.8854515 -0.3369007 -0.3201151
vn -0.3201109 -0.02093585 0.9471487
vn -0.9179596 -0.3540849 -0.1788126
vn -0.5300264 -0.01791475 0.847792
vn -0.9395611 -0.2672863 0.2139694
vn -0.1206125 -0.2797098 0.9524784
vn -0.1789652 -0.7221172 0.6682202
vn -0.2706183 -0.733816 0.623121
vn -0.1209456 -0.0778837 0.9895991
vn -0.3681582 -0.7595723 -0.5361992
vn -0.589118 -0.5946115 -0.5471537
vn -0.4586107 -0.7293152 -0.5077159
vn -0.6770046 -0.5021608 -0.5380512
vn -0.4833938 -0.7566323 -0.4402702
vn -0.5724223 -0.6855578 -0.4498258
vn -0.62161 -0.5404297 -0.5670422
vn -0.6582961 -0.5267285 -0.5377764
vn -0.6276785 -0.510273 -0.5879126
vn -0.6157203 -0.5256588 -0.587002
vn -0.7690943 -0.3753912 -0.5172769
vn -0.5889515 -0.5229393 -0.6161742
vn -0.5896304 -0.523709 -0.6148698
vn -0.5273724 -0.4557133 -0.71708
vn -0.6360558 -0.5427884 -0.548465
vn -0.6778359 -0.5460227 -0.492339
vn -0.7628052 -0.4484234 -0.4658806
vn -0.7304187 -0.5350646 -0.4244931
vn -0.7778896 -0.4341142 -0.4543488
vn -0.7827685 -0.3926661 -0.4827906
vn -0.7983256 -0.3295481 -0.5040578
vn -0.1206125 -0.2797098 0.9524784
vn -0.1209456 -0.0778837 0.9895991
vn -0.06210601 -0.166145 0.9841436
vn -0.01815897 -0.01300121 0.9997506
vn -0.05005158 0.002899329 0.9987425
vn -0.02118019 0.002624635 0.9997723
vn -0.02136321 0.002838255 0.9997677
vn -0.02142422 0.002777214 0.9997666
vn -0.02221806 0.001831158 0.9997515
vn -0.04809728 0.0001831115 0.9988426
vn -0.08002186 0.01095646 0.996733
vn -0.2453131 -0.01733489 0.9692889
vn -0.3201109 -0.02093585 0.9471487
vn -0.2995402 -0.1982489 0.9332593
g terrainMesh.033_0
f 3/3/3 2/2/2 1/1/1
f 5/5/5 3/3/3 4/4/4
f 8/8/8 7/7/7 6/6/6
f 11/11/11 10/10/10 9/9/9
f 14/14/14 13/13/13 12/12/12
f 14/14/14 12/12/12 15/15/15
f 16/16/16 14/14/14 15/15/15
f 17/17/17 16/16/16 15/15/15
f 20/20/20 19/19/19 18/18/18
f 20/20/20 18/18/18 21/21/21
f 22/22/22 20/20/20 21/21/21
f 21/21/21 23/23/23 22/22/22
f 23/23/23 24/24/24 22/22/22
f 24/24/24 23/23/23 25/25/25
f 25/25/25 26/26/26 24/24/24
f 24/24/24 27/27/27 22/22/22
f 24/24/24 26/26/26 28/28/28
f 27/27/27 24/24/24 29/29/29
f 27/27/27 29/29/29 30/30/30
f 29/29/29 31/31/31 30/30/30
f 32/32/32 31/31/31 29/29/29
f 33/33/33 24/24/24 28/28/28
f 33/33/33 29/29/29 24/24/24
f 33/33/33 32/32/32 29/29/29
f 33/33/33 28/28/28 34/34/34
f 35/35/35 32/32/32 33/33/33
f 34/34/34 35/35/35 33/33/33
f 38/38/38 37/37/37 36/36/36
f 39/39/39 36/36/36 37/37/37
f 37/37/37 40/40/40 39/39/39
f 41/41/41 36/36/36 39/39/39
f 40/40/40 42/42/42 39/39/39
f 43/43/43 41/41/41 39/39/39
f 42/42/42 44/44/44 39/39/39
f 45/45/45 43/43/43 39/39/39
f 45/45/45 39/39/39 44/44/44
f 48/48/48 47/47/47 46/46/46
f 49/49/49 48/48/48 46/46/46
f 52/52/52 51/51/51 50/50/50
f 52/52/52 53/53/53 51/51/51
f 54/54/54 53/53/53 52/52/52
f 53/53/53 54/54/54 55/55/55
f 53/53/53 56/56/56 51/51/51
f 53/53/53 57/57/57 56/56/56
f 57/57/57 58/58/58 56/56/56
f 59/59/59 58/58/58 57/57/57
f 55/55/55 60/60/60 53/53/53
f 61/61/61 59/59/59 57/57/57
f 57/57/57 62/62/62 61/61/61
f 63/63/63 61/61/61 62/62/62
f 57/57/57 64/64/64 62/62/62
f 64/64/64 57/57/57 65/65/65
f 57/57/57 53/53/53 66/66/66
f 57/57/57 66/66/66 65/65/65
f 66/66/66 53/53/53 60/60/60
f 66/66/66 67/67/67 65/65/65
f 66/66/66 68/68/68 67/67/67
f 68/68/68 66/66/66 60/60/60
f 69/69/69 68/68/68 60/60/60
f 60/60/60 70/70/70 69/69/69
f 73/73/73 72/72/72 71/71/71
f 73/73/73 74/74/74 72/72/72
f 72/72/72 74/74/74 75/75/75
f 74/74/74 76/76/76 75/75/75
f 77/77/77 75/75/75 76/76/76
f 76/76/76 78/78/78 77/77/77
f 78/78/78 79/79/79 77/77/77
f 77/77/77 80/80/80 75/75/75
f 75/75/75 80/80/80 81/81/81
f 82/82/82 75/75/75 81/81/81
f 81/81/81 83/83/83 82/82/82
f 84/84/84 75/75/75 82/82/82
