g terrainMesh.020
v -15 106.7403 -5.225767
v -16.1163 107.3265 -6.052144
v -15 108.9943 -3.465129
v -15 105.4562 -5.793633
v -16.36332 98.54659 -14.96152
v -15 100.0904 -10.96002
v -15 97.57432 -13.34465
v -15 97.28886 -15.81604
v -15 98.42233 -20.93602
v -16.36332 98.54659 -14.96152
v -15 97.57432 -13.34465
vt 0.6601981 0.1069433
vt 0.6644169 0.1028214
vt 0.6516612 0.09954263
vt 0.6636186 0.111439
vt 0.7049547 0.1300278
vt 0.6871744 0.1284304
vt 0.6980944 0.1364224
vt 0.7848674 0.2772394
vt 0.8051349 0.2809668
vt 0.7824273 0.2712452
vt 0.7750599 0.2754599
vn -0.6708401 -0.3783147 0.637849
vn -0.7238587 -0.4071896 0.5569787
vn -0.6716745 -0.4560538 0.5838392
vn -0.7710669 -0.3907369 0.5027728
vn -0.7588276 -0.6307998 0.1620871
vn -0.7998772 -0.4157017 0.432884
vn -0.7741908 -0.5420587 0.3268039
vn -0.6980097 -0.713239 -0.06381612
vn -0.7195711 -0.6780046 -0.1500912
vn -0.7588276 -0.6307998 0.1620871
vn -0.7741908 -0.5420587 0.3268039
g terrainMesh.020_0
f 3/3/3 2/2/2 1/1/1
f 1/1/1 2/2/2 4/4/4
f 4/4/4 2/2/2 5/5/5
f 6/6/6 4/4/4 5/5/5
f 7/7/7 6/6/6 5/5/5
f 10/10/10 9/9/9 8/8/8
f 11/11/11 10/10/10 8/8/8
