g terrainMesh.038
v -31.63839 78.44564 49.60686
v -34.09729 71.88326 48.94412
v -37.74753 75.40633 48.06316
v -25 74.3538 45.78959
v -25 76.84012 50.25658
v -31.63839 78.44564 49.60686
v -25 61.50169 37.3464
v -25 64.80624 39.57655
v -29.14328 62.6697 39.27127
v -25 69.34831 42.10532
v -28.23099 69.75488 43.02121
v -25 72.3813 44.40497
v -31.63839 78.44564 49.60686
v -25 74.3538 45.78959
v -37.74753 75.40633 48.06316
v -35.24301 68.26403 42.31993
v -42.39469 64.04485 45.32615
v -46.4661 73.743 48.15485
v -46.66869 64.84658 48.61612
v -25 59.90927 49.76114
v -25 58.6802 49.18586
v -26.36069 58.2048 49.41188
v -25 57.11883 49.00072
v -25.8504 51.09801 49.17888
v -25 51.29195 48.93218
v -25 49.18927 48.72425
v -29.61246 46.42944 49.89341
v -25 41.1338 47.31231
v -39.24927 58.89608 49.39771
v -33.54847 61.87988 48.09939
v -30.52008 30 47.33895
v -29.37872 30 46.68374
v -25 32.24399 44.8034
v -25 30 44.51206
v -30.84981 30 47.45711
v -33.50536 39.05359 50.23243
v -31.11584 30 47.57131
v -35.02662 30 48.70684
v -39.50245 30.85235 50.19165
v -39.29188 30 50.02591
v -46.44334 33.44156 49.06242
v -44.65881 41.29806 50.51685
v -38.06358 44.85217 51.59805
v -42.28331 51.59466 51.254
v -48.29296 49.05505 52.08904
v -47.57802 59.11349 49.41294
v -46.66869 64.84658 48.61612
v -39.59708 68.85854 48.76296
v -46.4661 73.743 48.15485
v -37.74753 75.40633 48.06316
v -34.09729 71.88326 48.94412
v -25 76.37125 50.22893
v -25 75.65795 50.1649
v -25 76.84012 50.25658
v -31.63839 78.44564 49.60686
v -40.50465 30 49.71586
v -46.13926 30 48.26307
v -46.44334 33.44156 49.06242
v -39.50245 30.85235 50.19165
v -39.29188 30 50.02591
v -25 67.64861 49.89505
v -33.54847 61.87988 48.09939
v -25 75.65795 50.1649
v -25 62.93997 49.88842
v -26.36069 58.2048 49.41188
v -25.8504 51.09801 49.17888
v -25 59.90927 49.76114
vt 0.3114594 0.9607975
vt 0.2955688 0.981428
vt 0.3148579 0.981428
vt 0.8549111 0.2483508
vt 0.8497525 0.266007
vt 0.8759604 0.2707614
vt 0.4284334 0.3454102
vt 0.43337 0.3584665
vt 0.4465961 0.3503232
vt 0.4389499 0.3764735
vt 0.4518102 0.3783404
vt 0.4440486 0.388428
vt 0.4778137 0.4129474
vt 0.4471153 0.3962153
vt 0.4948563 0.4015123
vt 0.4737322 0.3731397
vt 0.50451 0.3565398
vt 0.524274 0.3957027
vt 0.5261847 0.3598349
vt 0.2646527 0.08076527
vt 0.2632238 0.08584297
vt 0.2680314 0.0878778
vt 0.2628239 0.09216638
vt 0.266219 0.1164518
vt 0.2629462 0.1156197
vt 0.2625151 0.1241257
vt 0.2799163 0.1355482
vt 0.2592675 0.156856
vt 0.3077115 0.08676092
vt 0.2866071 0.07432743
vt 0.2769357 0.2023442
vt 0.2717158 0.2023498
vt 0.2532174 0.193198
vt 0.2525772 0.2022918
vt 0.2782592 0.2023591
vt 0.2931825 0.1656385
vt 0.2793759 0.2023668
vt 0.2943835 0.202606
vt 0.311996 0.1994082
vt 0.3109605 0.2028481
vt 0.3303415 0.190151
vt 0.3282055 0.1579811
vt 0.3104852 0.1425839
vt 0.3222606 0.1160875
vt 0.3430931 0.1268822
vt 0.3334284 0.08695588
vt 0.3282617 0.06396433
vt 0.3066248 0.04688185
vt 0.3259822 0.02826182
vt 0.2987678 0.02046966
vt 0.2899758 0.03396488
vt 0.2650184 0.01444159
vt 0.264889 0.01732557
vt 0.265066 0.0125492
vt 0.283773 0.007097978
vt 0.9562279 0.8229376
vt 0.9735489 0.8264202
vt 0.9765619 0.8124507
vt 0.9536618 0.8188119
vt 0.9525078 0.8221921
vt 0.9537094 0.7405882
vt 0.9340886 0.7162546
vt 0.9465567 0.7716882
vt 0.9583931 0.7224902
vt 0.9584831 0.7037201
vt 0.9660277 0.6761312
vt 0.9610205 0.7106914
vn -0.23359 0.9179715 0.3205682
vn -0.1087381 -0.02401821 0.9937802
vn -0.3005511 0.9300969 0.2111609
vn -0.01095637 0.6725199 -0.7399978
vn 0.1231447 0.765054 0.632082
vn -0.23359 0.9179715 0.3205682
vn -0.2217221 0.5454699 -0.8082709
vn -0.1973667 0.503015 -0.8414407
vn -0.1934608 0.4278173 -0.8829186
vn -0.1689866 0.5295749 -0.8312605
vn -0.1044372 0.5434275 -0.8329341
vn -0.1243982 0.5779814 -0.8065127
vn -0.23359 0.9179715 0.3205682
vn -0.01095637 0.6725199 -0.7399978
vn -0.3005511 0.9300969 0.2111609
vn -0.2333838 0.3502741 -0.9071053
vn -0.4846675 0.04263462 -0.8736588
vn -0.7637383 0.6300346 0.1405706
vn -0.4593083 0.09582911 0.8830927
vn -0.09558599 -0.125983 0.9874166
vn 0.2545916 -0.2901159 0.9225052
vn -0.02655189 -0.09015433 0.9955738
vn 0.2588338 -0.04104839 0.9650493
vn 0.1895531 -0.009521904 0.9818243
vn 0.2882535 -0.04742678 0.9563789
vn 0.3096803 -0.1178659 0.9435071
vn 0.2364321 -0.0329302 0.9710898
vn 0.3589328 -0.1757583 0.9166657
vn 0.0852398 0.2024636 0.975573
vn -0.0236831 0.04403957 0.998749
vn 0.3901852 -0.191293 0.9006456
vn 0.4781408 -0.2206827 0.8501062
vn 0.4683542 -0.1910529 0.8626373
vn 0.4413365 -0.1155147 0.8898755
vn 0.3614357 -0.1633373 0.9179788
vn 0.2129339 -0.1442042 0.9663666
vn 0.3437947 -0.1801222 0.9216079
vn 0.2742161 -0.1990165 0.9408497
vn -0.01782323 -0.1180179 0.9928515
vn 0.0676296 -0.1742927 0.9823688
vn -0.1388604 -0.1350761 0.9810567
vn -0.008728466 -0.1502761 0.9886056
vn 0.0478544 -0.04168948 0.9979839
vn 0.07812958 0.1323015 0.9881256
vn 0.1199717 0.04220829 0.9918796
vn 0.01083425 0.1959931 0.9805454
vn -0.4593083 0.09582911 0.8830927
vn -0.0158089 0.008758985 0.9998367
vn -0.7637383 0.6300346 0.1405706
vn -0.3005511 0.9300969 0.2111609
vn -0.1087381 -0.02401821 0.9937802
vn -0.1059013 -0.06924786 0.9919625
vn -0.1118508 -0.07907379 0.9905739
vn 0.1231447 0.765054 0.632082
vn -0.23359 0.9179715 0.3205682
vn -0.2419236 -0.2402756 0.9400748
vn -0.2423847 -0.2397601 0.9400877
vn -0.1388604 -0.1350761 0.9810567
vn -0.01782323 -0.1180179 0.9928515
vn 0.0676296 -0.1742927 0.9823688
vn -0.1905024 -0.02313375 0.9814141
vn -0.0236831 0.04403957 0.998749
vn -0.1118508 -0.07907379 0.9905739
vn -0.2024656 -0.01965448 0.9790922
vn -0.02655189 -0.09015433 0.9955738
vn 0.1895531 -0.009521904 0.9818243
vn -0.09558599 -0.125983 0.9874166
g terrainMesh.038_0
f 3/3/3 2/2/2 1/1/1
f 6/6/6 5/5/5 4/4/4
f 9/9/9 8/8/8 7/7/7
f 10/10/10 8/8/8 9/9/9
f 11/11/11 10/10/10 9/9/9
f 10/10/10 11/11/11 12/12/12
f 12/12/12 11/11/11 13/13/13
f 14/14/14 12/12/12 13/13/13
f 13/13/13 11/11/11 15/15/15
f 16/16/16 11/11/11 9/9/9
f 16/16/16 15/15/15 11/11/11
f 9/9/9 17/17/17 16/16/16
f 18/18/18 15/15/15 16/16/16
f 18/18/18 16/16/16 17/17/17
f 18/18/18 17/17/17 19/19/19
f 22/22/22 21/21/21 20/20/20
f 23/23/23 21/21/21 22/22/22
f 22/22/22 24/24/24 23/23/23
f 24/24/24 25/25/25 23/23/23
f 26/26/26 25/25/25 24/24/24
f 27/27/27 26/26/26 24/24/24
f 28/28/28 26/26/26 27/27/27
f 29/29/29 27/27/27 24/24/24
f 30/30/30 29/29/29 24/24/24
f 27/27/27 31/31/31 28/28/28
f 31/31/31 32/32/32 28/28/28
f 32/32/32 33/33/33 28/28/28
f 34/34/34 33/33/33 32/32/32
f 27/27/27 35/35/35 31/31/31
f 27/27/27 36/36/36 35/35/35
f 36/36/36 37/37/37 35/35/35
f 38/38/38 37/37/37 36/36/36
f 39/39/39 38/38/38 36/36/36
f 40/40/40 38/38/38 39/39/39
f 39/39/39 36/36/36 41/41/41
f 42/42/42 41/41/41 36/36/36
f 43/43/43 36/36/36 27/27/27
f 43/43/43 42/42/42 36/36/36
f 27/27/27 44/44/44 43/43/43
f 43/43/43 44/44/44 42/42/42
f 45/45/45 42/42/42 44/44/44
f 45/45/45 44/44/44 46/46/46
f 44/44/44 27/27/27 29/29/29
f 44/44/44 29/29/29 46/46/46
f 29/29/29 47/47/47 46/46/46
f 29/29/29 30/30/30 47/47/47
f 47/47/47 30/30/30 48/48/48
f 49/49/49 47/47/47 48/48/48
f 50/50/50 49/49/49 48/48/48
f 50/50/50 48/48/48 51/51/51
f 30/30/30 51/51/51 48/48/48
f 51/51/51 30/30/30 52/52/52
f 30/30/30 53/53/53 52/52/52
f 51/51/51 52/52/52 54/54/54
f 55/55/55 51/51/51 54/54/54
f 58/58/58 57/57/57 56/56/56
f 59/59/59 58/58/58 56/56/56
f 60/60/60 59/59/59 56/56/56
f 63/63/63 62/62/62 61/61/61
f 61/61/61 62/62/62 64/64/64
f 64/64/64 62/62/62 65/65/65
f 66/66/66 65/65/65 62/62/62
f 67/67/67 64/64/64 65/65/65
