g terrainMesh.051
v -45.82241 -9.999999 48.30879
v -49.9607 -9.999999 48.31123
v -50.11157 -5.552001 48.84251
v -43.20652 -2.773285 47.98207
v -48.85129 0 47.62415
v -45.49743 0 47.49015
v -43.93715 -9.999999 48.07396
v -37.07104 -9.125274 43.2259
v -39.40153 -9.999999 44.83709
v -37.54052 -9.999999 43.4922
v -36.99463 -9.999999 42.99722
v -35.55046 -9.999999 42.12394
v -42.20272 0 47.53527
v -32.5008 -9.999999 40.65025
v -34.92361 -1.469681 45.40171
v -36.30507 0 45.74557
v -28.43946 -1.535522 43.34162
v -31.2171 -9.999999 40.24851
v -34.35 0 45.23689
v -28.84681 0 43.48912
v -29.86132 -9.999999 39.20156
v -27.27276 0 41.98693
v -25 -4.90733 38.59904
v -25 0 39.06434
v -25 -5.01248 38.53397
v -25.14642 -9.999999 34.48877
v -25 -6.287516 37.46242
v -25 -9.999999 34.32071
vt 0.3287085 0.3649805
vt 0.3414787 0.3655131
vt 0.3430931 0.3475176
vt 0.3194206 0.3356518
vt 0.3357597 0.3253075
vt 0.3250677 0.3249066
vt 0.3222846 0.3647923
vt 0.2884868 0.3615192
vt 0.2998991 0.3649624
vt 0.2906706 0.365036
vt 0.287703 0.3650811
vt 0.2809835 0.3650985
vt 0.3150228 0.3244717
vt 0.2677547 0.365049
vt 0.2871131 0.3299426
vt 0.2921902 0.324129
vt 0.2617735 0.3298522
vt 0.2627533 0.3649773
vt 0.2848406 0.3239957
vt 0.2633334 0.3236941
vt 0.2558559 0.3650466
vt 0.254582 0.3238413
vt 0.2390369 0.3440767
vt 0.2399911 0.3242296
vt 0.2388735 0.3445147
vt 0.2290891 0.3655374
vt 0.2361597 0.349893
vt 0.2282015 0.3655578
vn 0.09232099 -0.03036674 0.9952662
vn 0.0005798669 -0.1185675 0.9929458
vn 0.06467009 0.03878985 0.9971524
vn 0.219369 0.02124107 0.9754107
vn 0.03906458 0.2056994 0.9778352
vn 0.02420194 0.1939512 0.9807125
vn 0.3488026 -0.0233471 0.9369053
vn 0.4962986 -0.2217199 0.8393617
vn 0.5806224 -0.05014259 0.8126274
vn 0.6121303 -0.08933068 0.785695
vn 0.5792547 -0.1584252 0.7996033
vn 0.4226326 -0.3290907 0.8444412
vn 0.174662 0.09467091 0.9800667
vn 0.3228972 -0.3888805 0.8628496
vn 0.3065081 -0.1725577 0.9360964
vn 0.2803504 0.03912576 0.9591
vn 0.5361284 -0.171273 0.8265784
vn 0.4069456 -0.4283702 0.8067802
vn 0.283584 -0.003112954 0.9589424
vn 0.4751878 0.04162852 0.878899
vn 0.5679961 -0.4624906 0.6807957
vn 0.7682934 -0.01928821 0.6398071
vn 0.6298205 -0.3398901 0.6984273
vn 0.7880742 -0.0581091 0.6128313
vn 0.5695131 -0.4643144 0.6782823
vn 0.6409312 -0.4951111 0.5865768
vn 0.6083834 -0.5106282 0.6075594
vn 0.6589822 -0.4858743 0.5741679
g terrainMesh.051_0
f 3/3/3 2/2/2 1/1/1
f 3/3/3 1/1/1 4/4/4
f 3/3/3 4/4/4 5/5/5
f 4/4/4 6/6/6 5/5/5
f 1/1/1 7/7/7 4/4/4
f 4/4/4 7/7/7 8/8/8
f 7/7/7 9/9/9 8/8/8
f 9/9/9 10/10/10 8/8/8
f 10/10/10 11/11/11 8/8/8
f 8/8/8 11/11/11 12/12/12
f 4/4/4 13/13/13 6/6/6
f 12/12/12 14/14/14 8/8/8
f 4/4/4 15/15/15 13/13/13
f 8/8/8 15/15/15 4/4/4
f 14/14/14 15/15/15 8/8/8
f 15/15/15 16/16/16 13/13/13
f 15/15/15 14/14/14 17/17/17
f 14/14/14 18/18/18 17/17/17
f 15/15/15 19/19/19 16/16/16
f 19/19/19 15/15/15 17/17/17
f 20/20/20 19/19/19 17/17/17
f 17/17/17 18/18/18 21/21/21
f 20/20/20 17/17/17 22/22/22
f 17/17/17 23/23/23 22/22/22
f 23/23/23 24/24/24 22/22/22
f 25/25/25 23/23/23 17/17/17
f 17/17/17 21/21/21 25/25/25
f 25/25/25 21/21/21 26/26/26
f 27/27/27 25/25/25 26/26/26
f 28/28/28 27/27/27 26/26/26
