g terrainMesh.041
v -15 47.50915 -7.254778
v -15 47.2355 -7.311035
v -15.6312 43.05746 -8.375598
v -15.53575 44.93713 -7.95808
v -15.94557 30 -8.479762
v -16.24771 30.1206 -8.471874
v -16.25354 30 -8.478202
v -15 30 -8.454091
v -15 30.17619 -8.430584
v -15 30.51866 -8.467807
v -15 31.29372 -8.550275
v -16.20397 31.07116 -8.571388
v -15.99208 35.52462 -8.561668
v -15 35.06099 -8.545151
v -15 35.42337 -8.527203
v -15 35.58146 -8.528084
v -15 36.02674 -8.488681
v -15 36.84943 -8.366882
v -15.92584 36.85739 -8.364443
v -15 37.1333 -8.372936
v -15.89001 37.61618 -8.381679
v -15 37.60958 -8.3837
v -15.88851 37.65246 -8.397303
v -15 37.63271 -8.393651
v -15 37.65171 -8.396881
v -15 37.66058 -8.396592
v -15 37.7071 -8.387874
v -15.88479 37.72653 -8.383426
v -15 37.72004 -8.385414
v -15 37.50517 -8.19604
v -15 37.27269 -7.991149
v -15.90023 37.28158 -7.991149
v -15.88479 37.72653 -8.383426
v -15 37.72004 -8.385414
v -25 40.23208 -7.991149
v -25 39.38181 -7.991149
v -15.75994 40.23208 -7.991149
v -25 37.87589 -7.991149
v -25 36.99092 -7.991149
v -15.82058 38.95668 -7.991149
v -25 35.8233 -7.991149
v -15.90023 37.28158 -7.991149
v -25 30 -7.989618
v -24.10798 30 -7.989581
v -16.24644 30 -7.991149
v -15 37.27269 -7.991149
v -15 38.17945 -7.991149
v -15 38.94907 -7.991149
v -15.77713 40.00213 -8.420578
v -15 39.51619 -8.224005
v -15 39.99802 -8.421841
v -15 42.1697 -8.389709
v -15.6312 43.05746 -8.375598
v -15 43.23315 -8.366552
v -15 44.29994 -8.096576
v -15 44.97097 -7.947707
v -15.53575 44.93713 -7.95808
v -15 47.50915 -7.254778
v -15.88479 37.72653 -8.383426
v -15.89001 37.61618 -8.381679
v -15.88851 37.65246 -8.397303
v -15.90023 37.28158 -7.991149
v -15.92584 36.85739 -8.364443
v -15.99208 35.52462 -8.561668
v -16.20397 31.07116 -8.571388
v -16.24771 30.1206 -8.471874
v -16.24644 30 -7.991149
v -16.25333 30 -8.463422
v -16.25345 30 -8.471752
v -16.25354 30 -8.478202
v -15 47.0265 -1.607331
v -15.6312 43.05746 -8.375598
v -15 47.2355 -7.311035
v -15 46.84657 -1.449812
v -15.75994 40.23208 -7.991149
v -15.77713 40.00213 -8.420578
v -15.82058 38.95668 -7.991149
vt 0.8706912 0.3612236
vt 0.8696379 0.3616158
vt 0.8542317 0.3696137
vt 0.8613644 0.3666156
vt 0.5186646 0.5770197
vt 0.5193973 0.576135
vt 0.518927 0.5760188
vt 0.517871 0.5800253
vt 0.518571 0.5801359
vt 0.519899 0.5805347
vt 0.5229051 0.5814331
vt 0.5230476 0.5773749
vt 0.5403301 0.5821521
vt 0.5376759 0.5849005
vt 0.5391035 0.5851953
vt 0.5397229 0.5853433
vt 0.5414839 0.5856672
vt 0.5447568 0.586157
vt 0.5455758 0.5831604
vt 0.5458673 0.5864326
vt 0.5485132 0.5840153
vt 0.5477302 0.5868962
vt 0.5486481 0.5840883
vt 0.547817 0.5869397
vt 0.5478902 0.5869644
vt 0.5479251 0.5869719
vt 0.5481108 0.5869955
vt 0.5489407 0.584138
vt 0.5481625 0.587002
vt 0.3423243 0.7115614
vt 0.3415366 0.7115946
vt 0.3415443 0.7152205
vt 0.3430523 0.7150949
vt 0.3430523 0.7115309
vt 0.5666638 0.5560606
vt 0.5633305 0.5552754
vt 0.5588107 0.585987
vt 0.5574269 0.5538849
vt 0.5539575 0.5530676
vt 0.5538622 0.5846128
vt 0.5493802 0.5519894
vt 0.5473632 0.5828081
vt 0.526552 0.5466087
vt 0.5257938 0.5494977
vt 0.5191116 0.5749629
vt 0.5465631 0.5857155
vt 0.5501179 0.5865529
vt 0.553135 0.5872635
vt 0.5577556 0.5866703
vt 0.5552671 0.5883031
vt 0.5570785 0.5891863
vt 0.5656047 0.5911204
vt 0.5696269 0.5898646
vt 0.5697827 0.5920511
vt 0.5740706 0.5924382
vt 0.5767595 0.592728
vt 0.5770781 0.5909846
vt 0.5869811 0.5935368
vt 0.3400682 0.6644841
vt 0.3400741 0.6640499
vt 0.3400213 0.6641856
vt 0.3413926 0.6629143
vt 0.3401323 0.6610658
vt 0.3394664 0.6557173
vt 0.3394336 0.638151
vt 0.3397695 0.6344495
vt 0.3413926 0.6342002
vt 0.3397981 0.6339779
vt 0.33977 0.633974
vt 0.3397482 0.6339709
vt 0.8674273 0.3425528
vt 0.8542317 0.3696137
vt 0.8696379 0.3616158
vt 0.8666872 0.3421553
vt 0.843248 0.3706796
vt 0.8424734 0.3723327
vt 0.8383348 0.3717508
vn -0.9804025 0.1911119 0.04782377
vn -0.6881174 -0.07977732 0.7212003
vn -0.7094334 0.1301671 -0.6926476
vn -0.9799293 0.1493592 -0.1320245
vn 0.02301102 0.1225932 -0.9921902
vn -0.7229732 0.02700964 -0.690348
vn -0.7110947 0.07104843 -0.6994974
vn 0.02688726 0.1321779 -0.9908613
vn 0.03265508 0.008728366 -0.9994286
vn 0.03723295 -0.1066327 -0.993601
vn 0.02600189 -0.04605263 -0.9986005
vn -0.6905218 -0.01031541 -0.7232381
vn -0.688706 0.08176208 -0.7204158
vn 0.02539194 0.01870824 -0.9995025
vn 0.03711077 0.02368253 -0.9990305
vn 0.03131253 0.04303184 -0.9985828
vn 0.009125326 0.1261065 -0.9919748
vn -0.002075281 0.06323504 -0.9979965
vn -0.730384 0.0791056 -0.6784404
vn -0.002563627 -0.0220655 -0.9997533
vn -0.7611144 -0.1028492 -0.6404116
vn -0.003784344 -0.2120759 -0.9772459
vn -0.6552478 -0.05917679 -0.7530925
vn -0.002380482 -0.2850475 -0.9585104
vn 0.0003967467 -0.06784368 -0.9976959
vn -0.0001831126 0.1091351 -0.9940269
vn -0.0008545417 0.185405 -0.9826618
vn -0.5279797 0.8198031 -0.221721
vn 0.006469964 0.9638414 -0.2663977
vn 0.006531192 0.6611763 0.7502021
vn 0.009247154 0.9361599 -0.3514529
vn -0.5495921 0.2606046 -0.7937467
vn -0.5279797 0.8198031 -0.221721
vn 0.006469964 0.9638414 -0.2663977
vn 0 0 -1
vn 0 0 -1
vn -0.9387726 0.04602305 -0.3414495
vn 0 0 -1
vn 0 0 -1
vn -0.06351051 -0.091283 -0.9937976
vn 0 -0.000122074 -1
vn -0.5495921 0.2606046 -0.7937467
vn 3.051944E-05 -0.0002441555 -1
vn 0 -0.0001831111 -1
vn -0.7009839 0.03332642 -0.7123979
vn 0.009247154 0.9361599 -0.3514529
vn 0 0 -1
vn -0.001770096 -0.1924522 -0.9813048
vn -0.6736815 -0.1122497 -0.7304473
vn -0.003509675 -0.3798079 -0.9250587
vn -0.002563581 -0.1869278 -0.9823703
vn 0.0003662303 0.01614465 -0.9998696
vn -0.7094334 0.1301671 -0.6926476
vn -0.02856613 0.153543 -0.987729
vn -0.003509635 0.2208018 -0.9753124
vn 0.003540247 0.2410114 -0.9705158
vn -0.9799293 0.1493592 -0.1320245
vn -0.9804025 0.1911119 0.04782377
vn -0.5279797 0.8198031 -0.221721
vn -0.7611144 -0.1028492 -0.6404116
vn -0.6552478 -0.05917679 -0.7530925
vn -0.5495921 0.2606046 -0.7937467
vn -0.730384 0.0791056 -0.6784404
vn -0.688706 0.08176208 -0.7204158
vn -0.6905218 -0.01031541 -0.7232381
vn -0.7229732 0.02700964 -0.690348
vn -0.7009839 0.03332642 -0.7123979
vn -0.9987653 0.04748759 0.01458809
vn -0.9987648 0.04751808 0.01452704
vn -0.7110947 0.07104843 -0.6994974
vn -0.9958918 0.07696859 0.047701
vn -0.7094334 0.1301671 -0.6926476
vn -0.6881174 -0.07977732 0.7212003
vn -0.9966649 0.05374428 0.0614046
vn -0.9387726 0.04602305 -0.3414495
vn -0.6736815 -0.1122497 -0.7304473
vn -0.06351051 -0.091283 -0.9937976
g terrainMesh.041_0
f 3/3/3 2/2/2 1/1/1
f 4/4/4 3/3/3 1/1/1
f 7/7/7 6/6/6 5/5/5
f 8/8/8 5/5/5 6/6/6
f 9/9/9 8/8/8 6/6/6
f 10/10/10 9/9/9 6/6/6
f 11/11/11 10/10/10 6/6/6
f 12/12/12 11/11/11 6/6/6
f 12/12/12 13/13/13 11/11/11
f 13/13/13 14/14/14 11/11/11
f 15/15/15 14/14/14 13/13/13
f 16/16/16 15/15/15 13/13/13
f 17/17/17 16/16/16 13/13/13
f 18/18/18 17/17/17 13/13/13
f 19/19/19 18/18/18 13/13/13
f 18/18/18 19/19/19 20/20/20
f 19/19/19 21/21/21 20/20/20
f 21/21/21 22/22/22 20/20/20
f 21/21/21 23/23/23 22/22/22
f 23/23/23 24/24/24 22/22/22
f 23/23/23 25/25/25 24/24/24
f 25/25/25 23/23/23 26/26/26
f 27/27/27 26/26/26 23/23/23
f 28/28/28 27/27/27 23/23/23
f 28/28/28 29/29/29 27/27/27
f 32/32/32 31/31/31 30/30/30
f 33/33/33 32/32/32 30/30/30
f 34/34/34 33/33/33 30/30/30
f 37/37/37 36/36/36 35/35/35
f 38/38/38 36/36/36 37/37/37
f 39/39/39 38/38/38 37/37/37
f 40/40/40 39/39/39 37/37/37
f 41/41/41 39/39/39 40/40/40
f 42/42/42 41/41/41 40/40/40
f 43/43/43 41/41/41 42/42/42
f 44/44/44 43/43/43 42/42/42
f 45/45/45 44/44/44 42/42/42
f 46/46/46 42/42/42 40/40/40
f 47/47/47 46/46/46 40/40/40
f 47/47/47 40/40/40 48/48/48
f 48/48/48 40/40/40 49/49/49
f 50/50/50 48/48/48 49/49/49
f 51/51/51 50/50/50 49/49/49
f 52/52/52 51/51/51 49/49/49
f 53/53/53 52/52/52 49/49/49
f 53/53/53 54/54/54 52/52/52
f 53/53/53 55/55/55 54/54/54
f 56/56/56 55/55/55 53/53/53
f 57/57/57 56/56/56 53/53/53
f 58/58/58 56/56/56 57/57/57
f 61/61/61 60/60/60 59/59/59
f 60/60/60 62/62/62 59/59/59
f 60/60/60 63/63/63 62/62/62
f 64/64/64 62/62/62 63/63/63
f 65/65/65 62/62/62 64/64/64
f 66/66/66 62/62/62 65/65/65
f 67/67/67 62/62/62 66/66/66
f 68/68/68 67/67/67 66/66/66
f 66/66/66 69/69/69 68/68/68
f 70/70/70 69/69/69 66/66/66
f 73/73/73 72/72/72 71/71/71
f 74/74/74 71/71/71 72/72/72
f 75/75/75 74/74/74 72/72/72
f 76/76/76 75/75/75 72/72/72
f 77/77/77 75/75/75 76/76/76
