g terrainMesh.052
v -26.97367 20 44.0179
v -25 24.93565 43.85456
v -25 20 43.07828
v -30.90887 29.21583 47.34082
v -25 30 44.51206
v -29.37872 30 46.68374
v -30.52008 30 47.33895
v -30.84981 30 47.45711
v -31.11584 30 47.57131
v -35.02662 30 48.70684
v -39.29188 30 50.02591
v -37.81843 24.03567 48.86613
v -30.94689 20 45.4959
v -37.16999 20 47.8781
v -41.32141 20 48.13588
v -37.81843 24.03567 48.86613
v -41.32141 20 48.13588
v -43.97797 20 47.58617
v -45.74544 25.5428 47.22783
v -39.29188 30 50.02591
v -40.50465 30 49.71586
v -46.13926 30 48.26307
vt 0.2578978 0.242884
vt 0.2511325 0.2228152
vt 0.249373 0.2428487
vt 0.2781801 0.205548
vt 0.2525772 0.2022918
vt 0.2717158 0.2023498
vt 0.2769357 0.2023442
vt 0.2782592 0.2023591
vt 0.2793759 0.2023668
vt 0.2943835 0.202606
vt 0.3109605 0.2028481
vt 0.3037147 0.2269187
vt 0.2739863 0.2430514
vt 0.2993596 0.243298
vt 0.3128326 0.2437727
vt 0.9444324 0.8458448
vt 0.9491403 0.8627782
vt 0.956899 0.8642139
vt 0.9696468 0.8445122
vt 0.9525078 0.8221921
vt 0.9562279 0.8229376
vt 0.9735489 0.8264202
vn 0.3972396 -0.1564115 0.9042876
vn 0.4303745 -0.1330309 0.8927937
vn 0.4255876 -0.1405706 0.8939324
vn 0.3665078 -0.1683147 0.915064
vn 0.4413365 -0.1155147 0.8898755
vn 0.4479298 -0.1332772 0.8840792
vn 0.4301108 -0.2111337 0.8777398
vn 0.3608871 -0.1633376 0.9181945
vn 0.3194447 -0.1886393 0.9286389
vn 0.2924605 -0.1174359 0.9490393
vn -0.01492361 -0.1944037 0.980808
vn 0.09924735 -0.1614143 0.9818835
vn 0.344111 -0.1830884 0.9209052
vn 0.2271255 -0.1970028 0.9537316
vn -0.1315684 -0.06476181 0.9891894
vn 0.09924735 -0.1614143 0.9818835
vn -0.1315684 -0.06476181 0.9891894
vn -0.2026145 -0.001281791 0.9792578
vn -0.2284639 -0.1521668 0.961587
vn -0.01492361 -0.1944037 0.980808
vn -0.2407672 -0.2416217 0.9400266
vn -0.2423847 -0.2397601 0.9400877
g terrainMesh.052_0
f 3/3/3 2/2/2 1/1/1
f 2/2/2 4/4/4 1/1/1
f 2/2/2 5/5/5 4/4/4
f 5/5/5 6/6/6 4/4/4
f 4/4/4 6/6/6 7/7/7
f 7/7/7 8/8/8 4/4/4
f 8/8/8 9/9/9 4/4/4
f 10/10/10 4/4/4 9/9/9
f 4/4/4 10/10/10 11/11/11
f 12/12/12 4/4/4 11/11/11
f 1/1/1 4/4/4 12/12/12
f 13/13/13 1/1/1 12/12/12
f 14/14/14 13/13/13 12/12/12
f 15/15/15 14/14/14 12/12/12
f 18/18/18 17/17/17 16/16/16
f 19/19/19 18/18/18 16/16/16
f 16/16/16 20/20/20 19/19/19
f 20/20/20 21/21/21 19/19/19
f 21/21/21 22/22/22 19/19/19
