g terrainMesh.032
v -15.08838 -8.763915 -2.409597
v -15 -8.765451 -2.377567
v -15 -8.711512 -2.435849
v -15.08838 -8.763915 -2.409597
v -15 -8.916586 -2.287424
v -15 -8.765451 -2.377567
v -15 -9.999999 -1.495146
v -15 -8.916586 -2.287424
v -15.08838 -8.763915 -2.409597
v -15.74662 -9.999999 -1.584087
v -16.87585 -9.999999 -1.501449
v -19.02704 -9.999999 -1.346277
v -18.03829 -7.656615 -2.89484
v -20.60656 -9.999999 -0.9698638
v -21.18853 -8.236724 -1.819093
v -21.97237 -9.999999 -0.5028759
v -23.77706 -9.999999 0.3471695
v -19.23094 -5.676864 -4.016611
v -16.45724 -5.598846 -4.490522
v -24.61633 -5.601348 -1.957874
v -24.80827 -2.612549 -3.734069
v -24.71396 -8.933822 0.2158489
v -24.73884 -9.999999 0.9117093
v -15 -8.598368 -2.521292
v -15 -8.711512 -2.435849
v -15 -5.547929 -4.550386
v -15 -3.318973 -5.927986
v -15 -3.190615 -5.996123
v -15 -3.060052 -6.056079
v -22.53646 0 -5.968947
v -15 0 -7.298634
v -22.87043 0 -5.902817
v -23.10731 0 -5.817533
v -25 0 -5.271518
v -25 -2.071722 -4.008477
v -25 -2.445689 -3.768465
v -25 -2.653302 -3.617545
v -25 -5.2714 -1.981796
v -25 -5.689496 -1.674081
v -25 -8.65879 0.2110864
v -25 -8.817002 0.3519701
v -25 -9.999999 1.103776
vt 0.9989823 0.7379046
vt 0.9989823 0.7375258
vt 0.9987622 0.7376038
vt 0.9369801 0.5592462
vt 0.9369316 0.5601
vt 0.9371821 0.5595126
vt 0.3637853 0.5276731
vt 0.3677223 0.5304286
vt 0.3683481 0.5305539
vt 0.364385 0.5254519
vt 0.3653771 0.5216116
vt 0.3672662 0.5143006
vt 0.3750062 0.5230973
vt 0.368756 0.508351
vt 0.3758306 0.5099757
vt 0.3700997 0.502893
vt 0.3719663 0.495165
vt 0.3833417 0.5235477
vt 0.3811046 0.533653
vt 0.3890209 0.5016148
vt 0.4002055 0.5076877
vt 0.3768909 0.493406
vt 0.3730048 0.4907994
vt 0.3688782 0.5312405
vt 0.3684682 0.5309467
vt 0.3800423 0.5385522
vt 0.388241 0.5436622
vt 0.3887175 0.5439317
vt 0.3892059 0.544185
vt 0.4076415 0.5224088
vt 0.4007155 0.5497633
vt 0.4079512 0.5211807
vt 0.4081859 0.5202246
vt 0.4100083 0.5128851
vt 0.4023812 0.5081741
vt 0.4010091 0.507297
vt 0.4002543 0.506771
vt 0.3906311 0.5007299
vt 0.3891126 0.4996621
vt 0.3782103 0.4927441
vt 0.3776452 0.4922859
vt 0.3733019 0.4895281
vn 0.06927839 -0.5782152 -0.8129377
vn 0.2655455 -0.5917322 -0.761143
vn 0.1550684 -0.638982 -0.7534294
vn 0.06927839 -0.5782152 -0.8129377
vn 0.1233285 -0.5755329 -0.8084257
vn 0.2655455 -0.5917322 -0.761143
vn 0.0957084 -0.5875873 -0.8034806
vn 0.1233285 -0.5755329 -0.8084257
vn 0.06927839 -0.5782152 -0.8129377
vn -0.002594154 -0.5544166 -0.8322353
vn -0.06109919 -0.5320696 -0.8444933
vn -0.1511592 -0.4998051 -0.8528457
vn -0.1219848 -0.5432398 -0.8306686
vn -0.239059 -0.4842525 -0.8416355
vn -0.2851999 -0.4855264 -0.8263929
vn -0.3505506 -0.455142 -0.8185109
vn -0.4029749 -0.4521412 -0.7957258
vn -0.2079873 -0.4888542 -0.8472089
vn -0.0828599 -0.520934 -0.8495659
vn -0.3720021 -0.4990852 -0.7826419
vn -0.3174598 -0.5028024 -0.8039956
vn -0.4485369 -0.4796052 -0.7541841
vn -0.4943794 -0.4669732 -0.733161
vn 0.003051922 -0.5604244 -0.8282
vn 0.1550684 -0.638982 -0.7534294
vn -0.01571754 -0.5393404 -0.8419411
vn -0.1176193 -0.4747498 -0.8722262
vn -0.1649855 -0.4270519 -0.889048
vn -0.1709989 -0.3954675 -0.9024216
vn -0.1750284 -0.4055104 -0.8971769
vn -0.1613255 -0.3712988 -0.9143913
vn -0.2564248 -0.4488198 -0.8560415
vn -0.2816603 -0.4794238 -0.831156
vn -0.2391508 -0.5054334 -0.8290621
vn -0.2458598 -0.5064906 -0.8264502
vn -0.3158756 -0.5257574 -0.7898111
vn -0.3633623 -0.5133644 -0.7774476
vn -0.3875627 -0.5065263 -0.7702118
vn -0.4380134 -0.4996014 -0.7473572
vn -0.4758852 -0.5073505 -0.718421
vn -0.5305812 -0.5119338 -0.6755792
vn -0.5273724 -0.4557133 -0.71708
g terrainMesh.032_0
f 3/3/3 2/2/2 1/1/1
f 6/6/6 5/5/5 4/4/4
f 9/9/9 8/8/8 7/7/7
f 10/10/10 9/9/9 7/7/7
f 11/11/11 9/9/9 10/10/10
f 9/9/9 11/11/11 12/12/12
f 13/13/13 9/9/9 12/12/12
f 13/13/13 12/12/12 14/14/14
f 15/15/15 13/13/13 14/14/14
f 15/15/15 14/14/14 16/16/16
f 16/16/16 17/17/17 15/15/15
f 13/13/13 15/15/15 18/18/18
f 19/19/19 13/13/13 18/18/18
f 9/9/9 13/13/13 19/19/19
f 15/15/15 20/20/20 18/18/18
f 20/20/20 21/21/21 18/18/18
f 17/17/17 22/22/22 15/15/15
f 22/22/22 20/20/20 15/15/15
f 22/22/22 17/17/17 23/23/23
f 9/9/9 19/19/19 24/24/24
f 9/9/9 24/24/24 25/25/25
f 19/19/19 26/26/26 24/24/24
f 27/27/27 26/26/26 19/19/19
f 19/19/19 18/18/18 27/27/27
f 18/18/18 28/28/28 27/27/27
f 29/29/29 28/28/28 18/18/18
f 18/18/18 30/30/30 29/29/29
f 31/31/31 29/29/29 30/30/30
f 18/18/18 32/32/32 30/30/30
f 32/32/32 18/18/18 21/21/21
f 33/33/33 32/32/32 21/21/21
f 33/33/33 21/21/21 34/34/34
f 21/21/21 35/35/35 34/34/34
f 36/36/36 35/35/35 21/21/21
f 37/37/37 36/36/36 21/21/21
f 37/37/37 21/21/21 20/20/20
f 38/38/38 37/37/37 20/20/20
f 20/20/20 39/39/39 38/38/38
f 20/20/20 22/22/22 39/39/39
f 22/22/22 40/40/40 39/39/39
f 40/40/40 22/22/22 41/41/41
f 22/22/22 23/23/23 41/41/41
f 23/23/23 42/42/42 41/41/41
