g donut7Mesh
v -0.01931145 0.4543884 -0.004606152
v -0.01739487 0.3247994 0.0003294814
v 0.0583979 0.3096294 0.0007619932
v 0.08281761 0.4089046 -0.003665437
v -0.02201008 0.6045279 -0.0157683
v 0.1274815 0.2781471 0.0005127173
v 0.1132844 0.5359749 -0.01151025
v -0.02496082 0.7907926 -0.02376193
v 0.1498078 0.6879974 -0.01668875
v 0.1888208 0.3879129 -0.004476311
v 0.1825756 0.2269559 -0.0003158804
v 0.2602025 0.5155756 -0.01472611
v 0.3473236 0.6726544 -0.02189124
v 0.3004777 0.3565945 -0.00698534
v 0.2252514 0.1636659 4.256517E-05
v 0.4202461 0.486342 -0.02368673
v 0.5718182 0.6516642 -0.03724599
v 0.375857 0.2672086 -0.007136321
v 0.2734702 0.1025659 -7.876009E-05
v 0.5250934 0.3693864 -0.02675457
v 0.7185807 0.5019954 -0.04291257
v 0.4499422 0.1705607 -0.007028308
v 0.3089583 0.03264342 0.0005339943
v 0.615939 0.2352105 -0.02597049
v 0.8327289 0.3190287 -0.04144739
v 0.467287 0.05421004 -0.005684417
v 0.3156465 -0.04523489 0.0008217059
v 0.6337078 0.0769567 -0.02094241
v 0.8474129 0.1055747 -0.03269753
v 0.4508927 -0.06040562 -0.004798068
v 0.2922464 -0.1210353 0.0003315434
v 0.6065941 -0.07816575 -0.0173695
v 0.8024517 -0.1006998 -0.02660715
v 0.4090306 -0.1637698 -0.004528634
v 0.2500883 -0.1886857 0.0007293485
v 0.5479172 -0.2141598 -0.01505577
v 0.7195307 -0.276712 -0.02245023
v 0.3304925 -0.2434413 -0.003609802
v 0.200518 -0.2512007 0.0007362477
v 0.4371955 -0.3159918 -0.01096936
v 0.5644398 -0.4026313 -0.01569964
v 0.2722998 -0.3355066 -0.003946467
v 0.1391696 -0.3016475 9.926036E-06
v 0.3632316 -0.4437669 -0.01299058
v 0.4744833 -0.5754849 -0.01903662
v 0.2100188 -0.4427792 -0.005833158
v 0.06436504 -0.3247994 -2.319366E-05
v 0.2887388 -0.6041178 -0.02080492
v 0.3890136 -0.8077337 -0.03264001
v 0.1092824 -0.5200149 -0.005934912
v -0.01407365 -0.3186977 -0.0008888189
v 0.1498875 -0.7047432 -0.02616757
v 0.205386 -0.9517259 -0.04257716
v -0.01473431 -0.5627099 -0.006757397
v -0.08877581 -0.2930957 -0.0003128741
v -0.01582423 -0.7539264 -0.02921985
v -0.01673675 -1.013584 -0.04803345
v -0.1386482 -0.5020639 -0.006869209
v -0.1649232 -0.2769268 -0.0001448561
v -0.1819924 -0.6897386 -0.02898303
v -0.240249 -0.9396878 -0.04744453
v -0.2586344 -0.4569812 -0.006933408
v -0.2377898 -0.2487338 0.0002019834
v -0.3455935 -0.6232973 -0.02825673
v -0.4611859 -0.8437104 -0.04600354
v -0.3793565 -0.405166 -0.005709024
v -0.2921618 -0.1959497 -0.000863947
v -0.5120608 -0.5473638 -0.02720032
v -0.69069 -0.7400515 -0.04478902
v -0.5101173 -0.346363 -0.005741969
v -0.3047953 -0.1170006 1.531839E-05
v -0.6753582 -0.4607171 -0.02820173
v -0.899105 -0.615707 -0.04731069
v -0.4931286 -0.1919189 -0.006233154
v -0.3086486 -0.03952377 0.000307925
v -0.6719093 -0.2674905 -0.02684441
v -0.9083718 -0.3663137 -0.04382698
v -0.475103 -0.06081694 -0.00668594
v -0.3156465 0.03450505 0.0002318267
v -0.6521062 -0.08631376 -0.02483344
v -0.879578 -0.1183644 -0.03945075
v -0.4684443 0.05117318 -0.00602817
v -0.3042262 0.1046072 0.000918217
v -0.6312972 0.06799779 -0.02095956
v -0.8363736 0.08977311 -0.03257074
v -0.4225771 0.1493726 -0.004270359
v -0.2657212 0.1649684 0.0002745651
v -0.5620848 0.2031305 -0.01567094
v -0.7335047 0.2690283 -0.02393297
v -0.3961514 0.2601 -0.005654456
v -0.2163968 0.2208618 -0.0009181611
v -0.5387547 0.3673659 -0.02088337
v -0.7211205 0.5029858 -0.03250258
v -0.3650497 0.3904714 -0.007186158
v -0.158489 0.2710649 3.352389E-05
v -0.4894322 0.5338792 -0.02745842
v -0.6524922 0.7213994 -0.04451358
v -0.2510858 0.4404801 -0.006419122
v -0.09283127 0.3125616 0.0005411394
v -0.3414725 0.601651 -0.02552051
v -0.459332 0.8142182 -0.04091447
v -0.1316792 0.4606194 -0.005257254
v -0.01739487 0.3247994 0.0003294814
v -0.01931145 0.4543884 -0.004606152
v -0.1752173 0.6228297 -0.01995805
v -0.2301378 0.830351 -0.0310987
v -0.02201008 0.6045279 -0.0157683
v -0.02496082 0.7907926 -0.02376193
vt 1.966953E-05 0.487407
vt 1.966953E-05 0.9854599
vt 0.03847945 0.98546
vt 0.03847945 0.4874072
vt 1.966953E-05 0.2383806
vt 0.07693946 0.9854602
vt 0.03847945 0.2383807
vt 1.966953E-05 -0.01064575
vt 0.03847945 -0.01064575
vt 0.07693958 0.4874073
vt 0.1153996 0.9854604
vt 0.07693958 0.2383808
vt 0.07693946 -0.01064551
vt 0.1153996 0.4874074
vt 0.1538597 0.9854605
vt 0.1153996 0.238381
vt 0.1153996 -0.01064539
vt 0.1538597 0.4874076
vt 0.1923198 0.9854606
vt 0.1538597 0.2383812
vt 0.1538597 -0.01064521
vt 0.1923198 0.4874077
vt 0.2307799 0.9854608
vt 0.1923198 0.2383813
vt 0.1923198 -0.01064515
vt 0.2307798 0.4874079
vt 0.2692399 0.9854609
vt 0.2307799 0.2383814
vt 0.2307799 -0.01064497
vt 0.2692399 0.487408
vt 0.3077 0.9854611
vt 0.2692399 0.2383816
vt 0.2692399 -0.01064479
vt 0.3077 0.4874082
vt 0.3461601 0.9854612
vt 0.3077 0.2383818
vt 0.3077 -0.01064461
vt 0.3461601 0.4874083
vt 0.3846202 0.9854614
vt 0.3461601 0.2383819
vt 0.3461601 -0.01064456
vt 0.3846202 0.4874085
vt 0.4230802 0.9854615
vt 0.3846202 0.238382
vt 0.3846202 -0.01064438
vt 0.4230802 0.4874086
vt 0.4615402 0.9854617
vt 0.4230802 0.2383822
vt 0.4230802 -0.0106442
vt 0.4615403 0.4874087
vt 0.5000002 0.9854618
vt 0.4615402 0.2383823
vt 0.4615402 -0.01064414
vt 0.5000002 0.4874089
vt 0.5384603 0.985462
vt 0.5000002 0.2383825
vt 0.5000002 -0.01064396
vt 0.5384603 0.4874091
vt 0.5769203 0.9854621
vt 0.5384603 0.2383826
vt 0.5384603 -0.01064378
vt 0.5769203 0.4874092
vt 0.6153804 0.9854622
vt 0.5769203 0.2383828
vt 0.5769203 -0.0106436
vt 0.6153803 0.4874094
vt 0.6538404 0.9854623
vt 0.6153804 0.2383829
vt 0.6153804 -0.01064354
vt 0.6538404 0.4874095
vt 0.6923004 0.9854625
vt 0.6538404 0.2383831
vt 0.6538404 -0.01064336
vt 0.6923004 0.4874096
vt 0.7307604 0.9854627
vt 0.6923004 0.2383832
vt 0.6923004 -0.01064318
vt 0.7307604 0.4874098
vt 0.7692204 0.9854628
vt 0.7307604 0.2383834
vt 0.7307604 -0.01064301
vt 0.7692204 0.4874099
vt 0.8076804 0.985463
vt 0.7692204 0.2383835
vt 0.7692204 -0.01064295
vt 0.8076804 0.48741
vt 0.8461404 0.9854631
vt 0.8076804 0.2383837
vt 0.8076804 -0.01064277
vt 0.8461404 0.4874102
vt 0.8846004 0.9854631
vt 0.8461404 0.2383838
vt 0.8461404 -0.01064259
vt 0.8846004 0.4874103
vt 0.9230604 0.9854634
vt 0.8846004 0.238384
vt 0.8846004 -0.01064241
vt 0.9230604 0.4874104
vt 0.9615203 0.9854635
vt 0.9230604 0.2383841
vt 0.9230604 -0.01064241
vt 0.9615203 0.4874106
vt 0.9999803 0.9854637
vt 0.9999803 0.4874108
vt 0.9615203 0.2383842
vt 0.9615203 -0.01064217
vt 0.9999803 0.2383844
vt 0.9999803 -0.01064205
vn -0.0009693357 -0.0580651 -0.9983124
vn -0.001322971 -0.03921865 -0.9992298
vn -0.01195134 -0.03902644 -0.9991667
vn -0.01475808 -0.05058421 -0.9986107
vn 0.01143801 -0.05707934 -0.9983041
vn -0.02511479 -0.03092531 -0.9992061
vn -0.01327195 -0.05080869 -0.9986203
vn 0.02099079 -0.04320817 -0.9988456
vn -0.005799398 -0.03484945 -0.9993758
vn -0.03237528 -0.04613832 -0.9984102
vn -0.03106854 -0.02461876 -0.9992141
vn -0.043261 -0.0426258 -0.998154
vn -0.05139953 -0.02065453 -0.9984646
vn -0.05353294 -0.04604834 -0.9975038
vn -0.03041659 -0.02420064 -0.9992443
vn -0.06761137 -0.03616269 -0.9970561
vn -0.06375165 -0.02260462 -0.9977098
vn -0.05837901 -0.04326905 -0.9973563
vn -0.03212572 -0.02214129 -0.9992386
vn -0.07165699 -0.04756263 -0.9962947
vn -0.05855016 -0.03486951 -0.9976754
vn -0.06580205 -0.03860663 -0.9970855
vn -0.03680912 -0.01273845 -0.9992411
vn -0.06886935 -0.04563718 -0.9965813
vn -0.05347214 -0.04196805 -0.9976871
vn -0.06549373 -0.01541213 -0.997734
vn -0.03914493 0.005490719 -0.9992185
vn -0.0690642 -0.02460168 -0.9973089
vn -0.05170155 -0.03086232 -0.9981856
vn -0.06079439 0.007346283 -0.9981232
vn -0.03715703 0.01809281 -0.9991456
vn -0.06296954 -0.0006166414 -0.9980153
vn -0.0485149 -0.009560178 -0.9987767
vn -0.05238115 0.0226606 -0.9983701
vn -0.03564621 0.02370162 -0.9990834
vn -0.05309309 0.01064031 -0.9985329
vn -0.04347795 -0.0001666345 -0.9990544
vn -0.04315602 0.02914543 -0.9986431
vn -0.02848456 0.02969006 -0.9991533
vn -0.04187586 0.02602435 -0.9987839
vn -0.03045293 0.01338676 -0.9994466
vn -0.03663008 0.03877985 -0.9985762
vn -0.01869138 0.03133937 -0.9993339
vn -0.02960929 0.04510524 -0.9985434
vn -0.006195073 0.04471992 -0.9989803
vn -0.03286304 0.05299902 -0.9980537
vn -0.005676432 0.02820851 -0.9995859
vn -0.01773314 0.06585975 -0.9976713
vn 0.0003133088 0.05986354 -0.9982065
vn -0.02040841 0.06600922 -0.9976103
vn 0.006615263 0.02673332 -0.9996207
vn -0.01296227 0.0812934 -0.996606
vn 0.001128414 0.06668632 -0.9977733
vn 0.01094211 0.07944869 -0.9967789
vn 0.009127274 0.02871204 -0.999546
vn 0.01232041 0.08617897 -0.9962035
vn 0.01222362 0.06993035 -0.997477
vn 0.02567029 0.06754784 -0.9973858
vn 0.007655569 0.03213203 -0.9994543
vn 0.03345972 0.08919976 -0.9954516
vn 0.0229753 0.06934627 -0.997328
vn 0.02403874 0.07082825 -0.9971988
vn 0.01037662 0.02589837 -0.9996107
vn 0.03202107 0.08776718 -0.9956262
vn 0.02409214 0.06787308 -0.997403
vn 0.02932441 0.06574346 -0.9974056
vn 0.02167086 0.008339874 -0.9997304
vn 0.04053082 0.08466209 -0.995585
vn 0.03483071 0.06132213 -0.9975101
vn 0.07125825 0.03659672 -0.9967864
vn 0.03344008 -0.001482474 -0.9994397
vn 0.06758441 0.04034244 -0.9968976
vn 0.05576272 0.03589445 -0.9977986
vn 0.07381538 -0.003861752 -0.9972645
vn 0.03987903 3.523131E-05 -0.9992046
vn 0.09387649 0.001616407 -0.9955825
vn 0.06962491 0.0102701 -0.9975204
vn 0.07036361 -5.061476E-05 -0.9975213
vn 0.04180764 0.001737209 -0.9991242
vn 0.08352788 0.006121824 -0.9964867
vn 0.06354633 0.01205172 -0.9979061
vn 0.06874558 -0.0008640559 -0.9976338
vn 0.03675794 -0.01181476 -0.9992543
vn 0.07272512 0.008476628 -0.9973159
vn 0.05835346 0.01681266 -0.9981543
vn 0.05631104 -0.01758983 -0.9982583
vn 0.02618596 -0.02373939 -0.9993752
vn 0.06377981 -0.01855227 -0.9977915
vn 0.04481629 -0.01315655 -0.9989086
vn 0.05120862 -0.03286209 -0.9981471
vn 0.02180904 -0.02265789 -0.9995054
vn 0.05564237 -0.04523117 -0.9974256
vn 0.03115862 -0.05054713 -0.9982355
vn 0.05288615 -0.05293524 -0.9971966
vn 0.02100363 -0.02566122 -0.99945
vn 0.04621623 -0.06178994 -0.9970187
vn 0.03578037 -0.05442746 -0.9978764
vn 0.03292626 -0.06044842 -0.9976282
vn 0.01184989 -0.03413835 -0.9993468
vn 0.04353888 -0.06753814 -0.9967662
vn 0.04174192 -0.04942261 -0.9979053
vn 0.01753449 -0.06097375 -0.9979854
vn -0.001322971 -0.03921865 -0.9992298
vn -0.0009693357 -0.0580651 -0.9983124
vn 0.02947325 -0.06381591 -0.9975263
vn 0.03600734 -0.04514644 -0.9983312
vn 0.01143801 -0.05707934 -0.9983041
vn 0.02099079 -0.04320817 -0.9988456
g donut7Mesh_0
f 3/3/3 2/2/2 1/1/1
f 4/4/4 3/3/3 1/1/1
f 4/4/4 1/1/1 5/5/5
f 6/6/6 3/3/3 4/4/4
f 7/7/7 4/4/4 5/5/5
f 7/7/7 5/5/5 8/8/8
f 9/9/9 7/7/7 8/8/8
f 10/10/10 6/6/6 4/4/4
f 10/10/10 4/4/4 7/7/7
f 11/11/11 6/6/6 10/10/10
f 12/12/12 7/7/7 9/9/9
f 12/12/12 10/10/10 7/7/7
f 13/13/13 12/12/12 9/9/9
f 14/14/14 11/11/11 10/10/10
f 14/14/14 10/10/10 12/12/12
f 15/15/15 11/11/11 14/14/14
f 16/16/16 12/12/12 13/13/13
f 16/16/16 14/14/14 12/12/12
f 17/17/17 16/16/16 13/13/13
f 18/18/18 15/15/15 14/14/14
f 18/18/18 14/14/14 16/16/16
f 19/19/19 15/15/15 18/18/18
f 20/20/20 16/16/16 17/17/17
f 20/20/20 18/18/18 16/16/16
f 21/21/21 20/20/20 17/17/17
f 22/22/22 19/19/19 18/18/18
f 22/22/22 18/18/18 20/20/20
f 23/23/23 19/19/19 22/22/22
f 24/24/24 20/20/20 21/21/21
f 24/24/24 22/22/22 20/20/20
f 25/25/25 24/24/24 21/21/21
f 26/26/26 23/23/23 22/22/22
f 26/26/26 22/22/22 24/24/24
f 27/27/27 23/23/23 26/26/26
f 28/28/28 24/24/24 25/25/25
f 28/28/28 26/26/26 24/24/24
f 29/29/29 28/28/28 25/25/25
f 30/30/30 27/27/27 26/26/26
f 30/30/30 26/26/26 28/28/28
f 31/31/31 27/27/27 30/30/30
f 32/32/32 28/28/28 29/29/29
f 32/32/32 30/30/30 28/28/28
f 33/33/33 32/32/32 29/29/29
f 34/34/34 31/31/31 30/30/30
f 34/34/34 30/30/30 32/32/32
f 35/35/35 31/31/31 34/34/34
f 36/36/36 32/32/32 33/33/33
f 36/36/36 34/34/34 32/32/32
f 37/37/37 36/36/36 33/33/33
f 38/38/38 35/35/35 34/34/34
f 38/38/38 34/34/34 36/36/36
f 39/39/39 35/35/35 38/38/38
f 40/40/40 36/36/36 37/37/37
f 40/40/40 38/38/38 36/36/36
f 41/41/41 40/40/40 37/37/37
f 42/42/42 39/39/39 38/38/38
f 42/42/42 38/38/38 40/40/40
f 43/43/43 39/39/39 42/42/42
f 44/44/44 40/40/40 41/41/41
f 44/44/44 42/42/42 40/40/40
f 45/45/45 44/44/44 41/41/41
f 46/46/46 43/43/43 42/42/42
f 46/46/46 42/42/42 44/44/44
f 47/47/47 43/43/43 46/46/46
f 48/48/48 44/44/44 45/45/45
f 48/48/48 46/46/46 44/44/44
f 49/49/49 48/48/48 45/45/45
f 50/50/50 47/47/47 46/46/46
f 50/50/50 46/46/46 48/48/48
f 51/51/51 47/47/47 50/50/50
f 52/52/52 48/48/48 49/49/49
f 52/52/52 50/50/50 48/48/48
f 53/53/53 52/52/52 49/49/49
f 54/54/54 51/51/51 50/50/50
f 54/54/54 50/50/50 52/52/52
f 55/55/55 51/51/51 54/54/54
f 56/56/56 52/52/52 53/53/53
f 56/56/56 54/54/54 52/52/52
f 57/57/57 56/56/56 53/53/53
f 58/58/58 55/55/55 54/54/54
f 58/58/58 54/54/54 56/56/56
f 59/59/59 55/55/55 58/58/58
f 60/60/60 56/56/56 57/57/57
f 60/60/60 58/58/58 56/56/56
f 61/61/61 60/60/60 57/57/57
f 62/62/62 59/59/59 58/58/58
f 62/62/62 58/58/58 60/60/60
f 63/63/63 59/59/59 62/62/62
f 64/64/64 60/60/60 61/61/61
f 64/64/64 62/62/62 60/60/60
f 65/65/65 64/64/64 61/61/61
f 66/66/66 63/63/63 62/62/62
f 66/66/66 62/62/62 64/64/64
f 67/67/67 63/63/63 66/66/66
f 68/68/68 64/64/64 65/65/65
f 68/68/68 66/66/66 64/64/64
f 69/69/69 68/68/68 65/65/65
f 70/70/70 67/67/67 66/66/66
f 70/70/70 66/66/66 68/68/68
f 71/71/71 67/67/67 70/70/70
f 72/72/72 68/68/68 69/69/69
f 72/72/72 70/70/70 68/68/68
f 73/73/73 72/72/72 69/69/69
f 74/74/74 71/71/71 70/70/70
f 74/74/74 70/70/70 72/72/72
f 75/75/75 71/71/71 74/74/74
f 76/76/76 72/72/72 73/73/73
f 76/76/76 74/74/74 72/72/72
f 77/77/77 76/76/76 73/73/73
f 78/78/78 75/75/75 74/74/74
f 78/78/78 74/74/74 76/76/76
f 79/79/79 75/75/75 78/78/78
f 80/80/80 76/76/76 77/77/77
f 80/80/80 78/78/78 76/76/76
f 81/81/81 80/80/80 77/77/77
f 82/82/82 79/79/79 78/78/78
f 82/82/82 78/78/78 80/80/80
f 83/83/83 79/79/79 82/82/82
f 84/84/84 80/80/80 81/81/81
f 84/84/84 82/82/82 80/80/80
f 85/85/85 84/84/84 81/81/81
f 86/86/86 83/83/83 82/82/82
f 86/86/86 82/82/82 84/84/84
f 87/87/87 83/83/83 86/86/86
f 88/88/88 84/84/84 85/85/85
f 88/88/88 86/86/86 84/84/84
f 89/89/89 88/88/88 85/85/85
f 90/90/90 87/87/87 86/86/86
f 90/90/90 86/86/86 88/88/88
f 91/91/91 87/87/87 90/90/90
f 92/92/92 88/88/88 89/89/89
f 92/92/92 90/90/90 88/88/88
f 93/93/93 92/92/92 89/89/89
f 94/94/94 91/91/91 90/90/90
f 94/94/94 90/90/90 92/92/92
f 95/95/95 91/91/91 94/94/94
f 96/96/96 92/92/92 93/93/93
f 96/96/96 94/94/94 92/92/92
f 97/97/97 96/96/96 93/93/93
f 98/98/98 95/95/95 94/94/94
f 98/98/98 94/94/94 96/96/96
f 99/99/99 95/95/95 98/98/98
f 100/100/100 96/96/96 97/97/97
f 100/100/100 98/98/98 96/96/96
f 101/101/101 100/100/100 97/97/97
f 102/102/102 99/99/99 98/98/98
f 102/102/102 98/98/98 100/100/100
f 103/103/103 99/99/99 102/102/102
f 104/104/104 103/103/103 102/102/102
f 105/105/105 100/100/100 101/101/101
f 105/105/105 102/102/102 100/100/100
f 104/104/104 102/102/102 105/105/105
f 106/106/106 105/105/105 101/101/101
f 107/107/107 104/104/104 105/105/105
f 107/107/107 105/105/105 106/106/106
f 108/108/108 107/107/107 106/106/106
