g donut2Mesh
v -0.4802901 2.414599 -0.1163665
v -4.262455E-08 1.442265 0.001779684
v -1.641636E-07 2.461904 -0.1163665
v -0.2813698 1.414553 0.001779684
v -0.9421268 2.274504 -0.1163665
v -0.551929 1.33248 0.001779684
v -1.367758 2.047 -0.1163665
v -0.8012779 1.1992 0.001779684
v -1.740827 1.740831 -0.1163665
v -1.019834 1.019836 0.001779684
v -2.046997 1.367763 -0.1163665
v -1.199199 0.8012808 0.001779684
v -2.274502 0.942132 -0.1163665
v -1.332479 0.5519323 0.001779684
v -2.414599 0.4802957 -0.1163665
v -1.414552 0.2813733 0.001779684
v -2.461904 1.948499E-06 -0.1163665
v -1.442265 1.26347E-06 0.001779684
v -2.4146 -0.480292 -0.1163665
v -1.414552 -0.2813708 0.001779684
v -2.274504 -0.9421284 -0.1163665
v -1.332479 -0.55193 0.001779684
v -2.047 -1.36776 -0.1163665
v -1.1992 -0.8012788 0.001779684
v -1.74083 -1.740828 -0.1163665
v -1.019836 -1.019835 0.001779684
v -1.367762 -2.046998 -0.1163665
v -0.8012801 -1.199199 0.001779684
v -0.9421312 -2.274503 -0.1163665
v -0.5519316 -1.332479 0.001779684
v -0.4802948 -2.414599 -0.1163665
v -0.2813725 -1.414552 0.001779684
v -9.663538E-07 -2.461904 -0.1163665
v -5.125741E-07 -1.442265 0.001779684
v 0.4802929 -2.4146 -0.1163665
v 0.2813716 -1.414552 0.001779684
v 0.9421293 -2.274503 -0.1163665
v 0.5519307 -1.332479 0.001779684
v 1.36776 -2.046999 -0.1163665
v 0.8012793 -1.1992 0.001779684
v 1.740829 -1.740829 -0.1163665
v 1.019835 -1.019835 0.001779684
v 2.046998 -1.367761 -0.1163665
v 1.1992 -0.8012795 0.001779684
v 2.274503 -0.94213 -0.1163665
v 1.332479 -0.5519308 0.001779684
v 2.414599 -0.4802938 -0.1163665
v 1.414552 -0.2813719 0.001779684
v 2.461904 -2.428447E-07 -0.1163665
v 1.442265 -2.029193E-08 0.001779684
v 2.414599 0.4802933 -0.1163665
v 1.414552 0.2813719 0.001779684
v 2.274502 0.9421294 -0.1163665
v 1.332479 0.5519307 0.001779684
v 2.046998 1.36776 -0.1163665
v 1.1992 0.8012792 0.001779684
v 1.740829 1.740829 -0.1163665
v 1.019835 1.019835 0.001779684
v 1.36776 2.046998 -0.1163665
v 0.8012794 1.199199 0.001779684
v 0.9421298 2.274502 -0.1163665
v 0.5519308 1.332479 0.001779684
v 0.4802935 2.414599 -0.1163665
v 0.2813719 1.414552 0.001779684
v -1.641636E-07 2.461904 -0.1163665
v -4.262455E-08 1.442265 0.001779684
v -0.3790927 1.905842 -0.3359307
v -7.354603E-08 1.843612 0.3656174
v -1.303592E-07 1.943179 -0.3359307
v -0.3596682 1.808188 0.3656174
v -0.7436202 1.795264 -0.3359307
v -0.7055176 1.703277 0.3656174
v -1.079571 1.615696 -0.3359307
v -1.024254 1.532909 0.3656174
v -1.374034 1.374037 -0.3359307
v -1.303629 1.303632 0.3656174
v -1.615694 1.079574 -0.3359307
v -1.532907 1.024258 0.3656174
v -1.795263 0.7436244 -0.3359307
v -1.703275 0.7055217 0.3656174
v -1.905842 0.3790973 -0.3359307
v -1.808188 0.3596726 0.3656174
v -1.94318 1.614871E-06 -0.3359307
v -1.843613 1.530305E-06 0.3656174
v -1.905842 -0.3790941 -0.3359307
v -1.808188 -0.3596696 0.3656174
v -1.795265 -0.7436214 -0.3359307
v -1.703276 -0.7055189 0.3656174
v -1.615696 -1.079572 -0.3359307
v -1.532909 -1.024255 0.3656174
v -1.374037 -1.374035 -0.3359307
v -1.303632 -1.30363 0.3656174
v -1.079574 -1.615695 -0.3359307
v -1.024257 -1.532907 0.3656174
v -0.7436236 -1.795264 -0.3359307
v -0.7055209 -1.703276 0.3656174
v -0.3790964 -1.905842 -0.3359307
v -0.3596718 -1.808188 0.3656174
v -7.635274E-07 -1.94318 -0.3359307
v -6.742712E-07 -1.843613 0.3656174
v 0.3790949 -1.905842 -0.3359307
v 0.3596705 -1.808188 0.3656174
v 0.7436222 -1.795264 -0.3359307
v 0.7055197 -1.703276 0.3656174
v 1.079572 -1.615695 -0.3359307
v 1.024256 -1.532908 0.3656174
v 1.374035 -1.374036 -0.3359307
v 1.303631 -1.303631 0.3656174
v 1.615695 -1.079573 -0.3359307
v 1.532908 -1.024256 0.3656174
v 1.795264 -0.7436226 -0.3359307
v 1.703276 -0.7055199 0.3656174
v 1.905842 -0.3790956 -0.3359307
v 1.808188 -0.359671 0.3656174
v 1.943179 -1.14755E-07 -0.3359307
v 1.843613 -1.106964E-07 0.3656174
v 1.905841 0.3790953 -0.3359307
v 1.808188 0.3596708 0.3656174
v 1.795263 0.7436223 -0.3359307
v 1.703276 0.7055197 0.3656174
v 1.615695 1.079572 -0.3359307
v 1.532908 1.024256 0.3656174
v 1.374035 1.374035 -0.3359307
v 1.303631 1.303631 0.3656174
v 1.079573 1.615694 -0.3359307
v 1.024256 1.532907 0.3656174
v 0.7436225 1.795263 -0.3359307
v 0.7055199 1.703275 0.3656174
v 0.3790953 1.905841 -0.3359307
v 0.3596709 1.808188 0.3656174
v -1.303592E-07 1.943179 -0.3359307
v -7.354603E-08 1.843612 0.3656174
vt 0.03124979 0.006272405
vt 0 0.9954023
vt 2.980232E-08 0.006272346
vt 0.03124979 0.9954023
vt 0.06249979 0.006272405
vt 0.06249979 0.9954023
vt 0.09374982 0.006272465
vt 0.09374982 0.9954024
vt 0.1249998 0.006272465
vt 0.1249998 0.9954024
vt 0.1562498 0.006272525
vt 0.1562498 0.9954024
vt 0.1874999 0.006272525
vt 0.1874999 0.9954025
vt 0.2187499 0.006272525
vt 0.2187499 0.9954025
vt 0.2499999 0.006272584
vt 0.2499999 0.9954025
vt 0.2812499 0.006272584
vt 0.2812499 0.9954025
vt 0.3124999 0.006272584
vt 0.3124999 0.9954025
vt 0.3437499 0.006272644
vt 0.3437499 0.9954025
vt 0.3749999 0.006272644
vt 0.3749999 0.9954025
vt 0.4062499 0.006272644
vt 0.4062499 0.9954025
vt 0.4374999 0.006272584
vt 0.4374999 0.9954025
vt 0.4687499 0.006272584
vt 0.4687499 0.9954025
vt 0.4999999 0.006272584
vt 0.4999999 0.9954025
vt 0.5312499 0.006272584
vt 0.5312499 0.9954025
vt 0.5624999 0.006272525
vt 0.5624999 0.9954025
vt 0.5937499 0.006272525
vt 0.5937499 0.9954024
vt 0.6249999 0.006272465
vt 0.625 0.9954024
vt 0.65625 0.006272465
vt 0.65625 0.9954024
vt 0.6875 0.006272405
vt 0.6875 0.9954024
vt 0.71875 0.006272405
vt 0.71875 0.9954023
vt 0.75 0.006272346
vt 0.75 0.9954023
vt 0.78125 0.006272346
vt 0.78125 0.9954023
vt 0.8125 0.006272346
vt 0.8125 0.9954023
vt 0.84375 0.006272346
vt 0.84375 0.9954023
vt 0.875 0.006272346
vt 0.875 0.9954023
vt 0.90625 0.006272346
vt 0.90625 0.9954023
vt 0.9375 0.006272346
vt 0.9375 0.9954023
vt 0.96875 0.006272346
vt 0.96875 0.9954023
vt 1 0.006272346
vt 1 0.9954023
vt 0.03124979 0.006272405
vt 0 0.9954023
vt 2.980232E-08 0.006272346
vt 0.03124979 0.9954023
vt 0.06249979 0.006272405
vt 0.06249979 0.9954023
vt 0.09374982 0.006272465
vt 0.09374982 0.9954024
vt 0.1249998 0.006272465
vt 0.1249998 0.9954024
vt 0.1562498 0.006272525
vt 0.1562498 0.9954024
vt 0.1874999 0.006272525
vt 0.1874999 0.9954025
vt 0.2187499 0.006272525
vt 0.2187499 0.9954025
vt 0.2499999 0.006272584
vt 0.2499999 0.9954025
vt 0.2812499 0.006272584
vt 0.2812499 0.9954025
vt 0.3124999 0.006272584
vt 0.3124999 0.9954025
vt 0.3437499 0.006272644
vt 0.3437499 0.9954025
vt 0.3749999 0.006272644
vt 0.3749999 0.9954025
vt 0.4062499 0.006272644
vt 0.4062499 0.9954025
vt 0.4374999 0.006272584
vt 0.4374999 0.9954025
vt 0.4687499 0.006272584
vt 0.4687499 0.9954025
vt 0.4999999 0.006272584
vt 0.4999999 0.9954025
vt 0.5312499 0.006272584
vt 0.5312499 0.9954025
vt 0.5624999 0.006272525
vt 0.5624999 0.9954025
vt 0.5937499 0.006272525
vt 0.5937499 0.9954024
vt 0.6249999 0.006272465
vt 0.625 0.9954024
vt 0.65625 0.006272465
vt 0.65625 0.9954024
vt 0.6875 0.006272405
vt 0.6875 0.9954024
vt 0.71875 0.006272405
vt 0.71875 0.9954023
vt 0.75 0.006272346
vt 0.75 0.9954023
vt 0.78125 0.006272346
vt 0.78125 0.9954023
vt 0.8125 0.006272346
vt 0.8125 0.9954023
vt 0.84375 0.006272346
vt 0.84375 0.9954023
vt 0.875 0.006272346
vt 0.875 0.9954023
vt 0.90625 0.006272346
vt 0.90625 0.9954023
vt 0.9375 0.006272346
vt 0.9375 0.9954023
vt 0.96875 0.006272346
vt 0.96875 0.9954023
vt 1 0.006272346
vt 1 0.9954023
vn 0.02243127 -0.1128888 -0.9933544
vn 0 -0.1150863 -0.9933555
vn 0 -0.1150863 -0.9933555
vn 0.02243127 -0.1128888 -0.9933544
vn 0.04403859 -0.1063274 -0.9933555
vn 0.04403859 -0.1063274 -0.9933555
vn 0.06393692 -0.0956765 -0.993357
vn 0.06393692 -0.0956765 -0.993357
vn 0.08136324 -0.08136324 -0.993358
vn 0.08136324 -0.08136324 -0.993358
vn 0.0956765 -0.06393692 -0.993357
vn 0.0956765 -0.06393692 -0.993357
vn 0.1063274 -0.04403859 -0.9933555
vn 0.1063274 -0.04403859 -0.9933555
vn 0.1128888 -0.02243127 -0.9933544
vn 0.1128888 -0.02243127 -0.9933544
vn 0.1150863 0 -0.9933555
vn 0.1150863 0 -0.9933555
vn 0.1128888 0.02243127 -0.9933544
vn 0.1128888 0.02243127 -0.9933544
vn 0.1063274 0.04403859 -0.9933555
vn 0.1063274 0.04403859 -0.9933555
vn 0.0956765 0.06393692 -0.993357
vn 0.0956765 0.06393692 -0.993357
vn 0.08136324 0.08136324 -0.993358
vn 0.08136324 0.08136324 -0.993358
vn 0.06393692 0.0956765 -0.993357
vn 0.06393692 0.0956765 -0.993357
vn 0.04403859 0.1063274 -0.9933555
vn 0.04403859 0.1063274 -0.9933555
vn 0.02243127 0.1128888 -0.9933544
vn 0.02243127 0.1128888 -0.9933544
vn 0 0.1150863 -0.9933555
vn 0 0.1150863 -0.9933555
vn -0.02243127 0.1128888 -0.9933544
vn -0.02243127 0.1128888 -0.9933544
vn -0.04403859 0.1063274 -0.9933555
vn -0.04403859 0.1063274 -0.9933555
vn -0.06393692 0.0956765 -0.993357
vn -0.06393692 0.0956765 -0.993357
vn -0.08136324 0.08136324 -0.993358
vn -0.08136324 0.08136324 -0.993358
vn -0.0956765 0.06393692 -0.993357
vn -0.0956765 0.06393692 -0.993357
vn -0.1063274 0.04403859 -0.9933555
vn -0.1063274 0.04403859 -0.9933555
vn -0.1128888 0.02243127 -0.9933544
vn -0.1128888 0.02243127 -0.9933544
vn -0.1150863 0 -0.9933555
vn -0.1150863 0 -0.9933555
vn -0.1128888 -0.02243127 -0.9933544
vn -0.1128888 -0.02243127 -0.9933544
vn -0.1063274 -0.04403859 -0.9933555
vn -0.1063274 -0.04403859 -0.9933555
vn -0.0956765 -0.06393692 -0.993357
vn -0.0956765 -0.06393692 -0.993357
vn -0.08136324 -0.08136324 -0.993358
vn -0.08136324 -0.08136324 -0.993358
vn -0.06393692 -0.0956765 -0.993357
vn -0.06393692 -0.0956765 -0.993357
vn -0.04403859 -0.1063274 -0.9933555
vn -0.04403859 -0.1063274 -0.9933555
vn -0.02243127 -0.1128888 -0.9933544
vn -0.02243127 -0.1128888 -0.9933544
vn 0 -0.1150863 -0.9933555
vn 0 -0.1150863 -0.9933555
vn 0.1931551 -0.9710552 -0.1405097
vn 0 -0.9900792 -0.1405112
vn 0 -0.9900792 -0.1405112
vn 0.1931551 -0.9710552 -0.1405097
vn 0.3788658 -0.9147226 -0.1405106
vn 0.3788658 -0.9147226 -0.1405106
vn 0.550049 -0.823227 -0.1405108
vn 0.550049 -0.823227 -0.1405108
vn 0.7000915 -0.7000915 -0.1405127
vn 0.7000915 -0.7000915 -0.1405127
vn 0.823227 -0.550049 -0.1405108
vn 0.823227 -0.550049 -0.1405108
vn 0.914712 -0.378892 -0.1405089
vn 0.914712 -0.378892 -0.1405089
vn 0.9710552 -0.1931551 -0.1405097
vn 0.9710552 -0.1931551 -0.1405097
vn 0.9900792 0 -0.1405112
vn 0.9900792 0 -0.1405112
vn 0.9710552 0.1931551 -0.1405097
vn 0.9710552 0.1931551 -0.1405097
vn 0.9147226 0.3788658 -0.1405106
vn 0.9147226 0.3788658 -0.1405106
vn 0.823227 0.550049 -0.1405108
vn 0.823227 0.550049 -0.1405108
vn 0.7000915 0.7000915 -0.1405127
vn 0.7000915 0.7000915 -0.1405127
vn 0.550049 0.823227 -0.1405108
vn 0.550049 0.823227 -0.1405108
vn 0.3788658 0.9147226 -0.1405106
vn 0.3788658 0.9147226 -0.1405106
vn 0.1931551 0.9710552 -0.1405097
vn 0.1931551 0.9710552 -0.1405097
vn 0 0.9900792 -0.1405112
vn 0 0.9900792 -0.1405112
vn -0.1931551 0.9710552 -0.1405097
vn -0.1931551 0.9710552 -0.1405097
vn -0.3788658 0.9147226 -0.1405106
vn -0.3788658 0.9147226 -0.1405106
vn -0.550049 0.823227 -0.1405108
vn -0.550049 0.823227 -0.1405108
vn -0.7000915 0.7000915 -0.1405127
vn -0.7000915 0.7000915 -0.1405127
vn -0.823227 0.550049 -0.1405108
vn -0.823227 0.550049 -0.1405108
vn -0.9147226 0.3788658 -0.1405106
vn -0.9147226 0.3788658 -0.1405106
vn -0.9710552 0.1931551 -0.1405097
vn -0.9710552 0.1931551 -0.1405097
vn -0.9900792 0 -0.1405112
vn -0.9900792 0 -0.1405112
vn -0.9710552 -0.1931551 -0.1405097
vn -0.9710552 -0.1931551 -0.1405097
vn -0.9147226 -0.3788658 -0.1405106
vn -0.9147226 -0.3788658 -0.1405106
vn -0.823227 -0.550049 -0.1405108
vn -0.823227 -0.550049 -0.1405108
vn -0.7000915 -0.7000915 -0.1405127
vn -0.7000915 -0.7000915 -0.1405127
vn -0.550049 -0.823227 -0.1405108
vn -0.550049 -0.823227 -0.1405108
vn -0.3788658 -0.9147226 -0.1405106
vn -0.3788658 -0.9147226 -0.1405106
vn -0.1931551 -0.9710552 -0.1405097
vn -0.1931551 -0.9710552 -0.1405097
vn 0 -0.9900792 -0.1405112
vn 0 -0.9900792 -0.1405112
g donut2Mesh_0
f 3/3/3 2/2/2 1/1/1
f 2/2/2 4/4/4 1/1/1
f 1/1/1 4/4/4 5/5/5
f 4/4/4 6/6/6 5/5/5
f 5/5/5 6/6/6 7/7/7
f 6/6/6 8/8/8 7/7/7
f 7/7/7 8/8/8 9/9/9
f 8/8/8 10/10/10 9/9/9
f 9/9/9 10/10/10 11/11/11
f 10/10/10 12/12/12 11/11/11
f 11/11/11 12/12/12 13/13/13
f 12/12/12 14/14/14 13/13/13
f 13/13/13 14/14/14 15/15/15
f 14/14/14 16/16/16 15/15/15
f 15/15/15 16/16/16 17/17/17
f 16/16/16 18/18/18 17/17/17
f 17/17/17 18/18/18 19/19/19
f 18/18/18 20/20/20 19/19/19
f 19/19/19 20/20/20 21/21/21
f 20/20/20 22/22/22 21/21/21
f 21/21/21 22/22/22 23/23/23
f 22/22/22 24/24/24 23/23/23
f 23/23/23 24/24/24 25/25/25
f 24/24/24 26/26/26 25/25/25
f 25/25/25 26/26/26 27/27/27
f 26/26/26 28/28/28 27/27/27
f 27/27/27 28/28/28 29/29/29
f 28/28/28 30/30/30 29/29/29
f 29/29/29 30/30/30 31/31/31
f 30/30/30 32/32/32 31/31/31
f 31/31/31 32/32/32 33/33/33
f 32/32/32 34/34/34 33/33/33
f 33/33/33 34/34/34 35/35/35
f 34/34/34 36/36/36 35/35/35
f 35/35/35 36/36/36 37/37/37
f 36/36/36 38/38/38 37/37/37
f 37/37/37 38/38/38 39/39/39
f 38/38/38 40/40/40 39/39/39
f 39/39/39 40/40/40 41/41/41
f 40/40/40 42/42/42 41/41/41
f 41/41/41 42/42/42 43/43/43
f 42/42/42 44/44/44 43/43/43
f 43/43/43 44/44/44 45/45/45
f 44/44/44 46/46/46 45/45/45
f 45/45/45 46/46/46 47/47/47
f 46/46/46 48/48/48 47/47/47
f 47/47/47 48/48/48 49/49/49
f 48/48/48 50/50/50 49/49/49
f 49/49/49 50/50/50 51/51/51
f 50/50/50 52/52/52 51/51/51
f 51/51/51 52/52/52 53/53/53
f 52/52/52 54/54/54 53/53/53
f 53/53/53 54/54/54 55/55/55
f 54/54/54 56/56/56 55/55/55
f 55/55/55 56/56/56 57/57/57
f 56/56/56 58/58/58 57/57/57
f 57/57/57 58/58/58 59/59/59
f 58/58/58 60/60/60 59/59/59
f 59/59/59 60/60/60 61/61/61
f 60/60/60 62/62/62 61/61/61
f 61/61/61 62/62/62 63/63/63
f 62/62/62 64/64/64 63/63/63
f 63/63/63 64/64/64 65/65/65
f 64/64/64 66/66/66 65/65/65
f 69/69/69 68/68/68 67/67/67
f 68/68/68 70/70/70 67/67/67
f 67/67/67 70/70/70 71/71/71
f 70/70/70 72/72/72 71/71/71
f 71/71/71 72/72/72 73/73/73
f 72/72/72 74/74/74 73/73/73
f 73/73/73 74/74/74 75/75/75
f 74/74/74 76/76/76 75/75/75
f 75/75/75 76/76/76 77/77/77
f 76/76/76 78/78/78 77/77/77
f 77/77/77 78/78/78 79/79/79
f 78/78/78 80/80/80 79/79/79
f 79/79/79 80/80/80 81/81/81
f 80/80/80 82/82/82 81/81/81
f 81/81/81 82/82/82 83/83/83
f 82/82/82 84/84/84 83/83/83
f 83/83/83 84/84/84 85/85/85
f 84/84/84 86/86/86 85/85/85
f 85/85/85 86/86/86 87/87/87
f 86/86/86 88/88/88 87/87/87
f 87/87/87 88/88/88 89/89/89
f 88/88/88 90/90/90 89/89/89
f 89/89/89 90/90/90 91/91/91
f 90/90/90 92/92/92 91/91/91
f 91/91/91 92/92/92 93/93/93
f 92/92/92 94/94/94 93/93/93
f 93/93/93 94/94/94 95/95/95
f 94/94/94 96/96/96 95/95/95
f 95/95/95 96/96/96 97/97/97
f 96/96/96 98/98/98 97/97/97
f 97/97/97 98/98/98 99/99/99
f 98/98/98 100/100/100 99/99/99
f 99/99/99 100/100/100 101/101/101
f 100/100/100 102/102/102 101/101/101
f 101/101/101 102/102/102 103/103/103
f 102/102/102 104/104/104 103/103/103
f 103/103/103 104/104/104 105/105/105
f 104/104/104 106/106/106 105/105/105
f 105/105/105 106/106/106 107/107/107
f 106/106/106 108/108/108 107/107/107
f 107/107/107 108/108/108 109/109/109
f 108/108/108 110/110/110 109/109/109
f 109/109/109 110/110/110 111/111/111
f 110/110/110 112/112/112 111/111/111
f 111/111/111 112/112/112 113/113/113
f 112/112/112 114/114/114 113/113/113
f 113/113/113 114/114/114 115/115/115
f 114/114/114 116/116/116 115/115/115
f 115/115/115 116/116/116 117/117/117
f 116/116/116 118/118/118 117/117/117
f 117/117/117 118/118/118 119/119/119
f 118/118/118 120/120/120 119/119/119
f 119/119/119 120/120/120 121/121/121
f 120/120/120 122/122/122 121/121/121
f 121/121/121 122/122/122 123/123/123
f 122/122/122 124/124/124 123/123/123
f 123/123/123 124/124/124 125/125/125
f 124/124/124 126/126/126 125/125/125
f 125/125/125 126/126/126 127/127/127
f 126/126/126 128/128/128 127/127/127
f 127/127/127 128/128/128 129/129/129
f 128/128/128 130/130/130 129/129/129
f 129/129/129 130/130/130 131/131/131
f 130/130/130 132/132/132 131/131/131
