g DropshipCollisionTail
v 1.505967 3.969393 -0.8380424
v 1.505967 -2.811512 -0.8380424
v 0 -2.811512 -0.8380424
v 0 3.969393 -0.8380424
v 0 -2.918531 -1
v 0 -3.76801 -0.3
v 1.690794 -3.76801 -0.3
v 1.690794 -2.918531 -1
v 0 1.960474 -1
v 1.690794 1.960474 -1
v 0 3.969393 -1
v 1.690794 3.969393 -1
v 0.1635346 -2.918531 3.139153
v 0.1635346 -3.76801 3.139153
v 0 -3.76801 3.139153
v 0 -2.918531 3.139153
v 0.1635346 1.960474 3.139153
v 0 1.960474 3.139153
v 0.1635346 3.969393 2.239153
v 0 3.969393 2.239153
v 1.690794 3.969393 -1
v 0 3.969393 -0.8380424
v 0 3.969393 -1
v 1.505967 3.969393 -0.8380424
v 1.620732 3.969393 -0.7270058
v 1.806122 3.970208 -0.8811468
v 1.806122 3.970208 0.6238579
v 1.620732 3.969393 0.6160411
v 1.806122 3.970208 2.128862
v 1.620732 3.969393 1.959088
v 1.505967 3.969393 2.077196
v 1.690794 3.969393 2.239153
v 0.1635346 3.969393 2.239153
v 0.1635346 3.969393 2.077196
v 0 3.969393 2.239153
v 0 3.969393 2.077196
v 0 -2.811512 2.077196
v 0 -2.811512 -0.8380424
v 1.505967 -2.811512 -0.8380424
v 1.620732 -2.811512 -0.7270058
v 1.620732 -2.811512 0.6160411
v 1.620732 -2.811512 1.959088
v 1.505967 -2.811512 2.077196
v 0.1635346 -2.811512 2.077196
v 1.806122 3.970208 0.6238579
v 1.806122 1.961288 3.028862
v 1.806122 3.970208 2.128862
v 1.806122 1.961288 1.073858
v 1.806122 -2.917717 3.028862
v 1.806122 -2.917717 1.073858
v 1.806122 -3.767195 3.028862
v 1.806122 -3.767195 1.423858
v 0.1635346 3.969393 2.077196
v 1.505967 -2.811512 2.077196
v 1.505967 3.969393 2.077196
v 0.1635346 -2.811512 2.077196
v 0 3.969393 2.077196
v 0 -2.811512 2.077196
v 1.620732 3.969393 0.6160411
v 1.620732 -2.811512 -0.7270058
v 1.620732 3.969393 -0.7270058
v 1.620732 -2.811512 0.6160411
v 1.620732 3.969393 1.959088
v 1.620732 -2.811512 1.959088
v 1.690794 1.960474 -1
v 1.806122 3.970208 -0.8811468
v 1.690794 3.969393 -1
v 1.806122 1.961289 -0.8811468
v 1.690794 -2.918531 -1
v 1.806122 -2.917717 -0.8811468
v 1.690794 -3.76801 -0.3
v 1.806122 -3.767195 -0.1811468
v 1.690794 -2.918531 3.139153
v 1.806122 -3.767195 3.028862
v 1.690794 -3.76801 3.139153
v 1.806122 -2.917717 3.028862
v 1.690794 1.960474 3.139153
v 1.806122 1.961288 3.028862
v 1.690794 3.969393 2.239153
v 1.806122 3.970208 2.128862
v 1.505967 3.969393 -0.8380424
v 1.620732 3.969393 -0.7270058
v 1.620732 -2.811512 -0.7270058
v 1.505967 -2.811512 -0.8380424
v 1.620732 3.969393 1.959088
v 1.505967 3.969393 2.077196
v 1.505967 -2.811512 2.077196
v 1.620732 -2.811512 1.959088
v 1.806122 -2.917717 -0.8811468
v 1.806122 -3.767195 -0.1811468
v 1.806122 -3.767195 1.423858
v 1.806122 -2.917717 1.073858
v 1.806122 1.961289 -0.8811468
v 1.806122 1.961288 1.073858
v 1.806122 3.970208 -0.8811468
v 1.806122 3.970208 0.6238579
v 1.690794 3.969393 2.239153
v 0.1635346 1.960474 3.139153
v 0.1635346 3.969393 2.239153
v 1.690794 1.960474 3.139153
v 0.1635346 -2.918531 3.139153
v 1.690794 -2.918531 3.139153
v 0.1635346 -3.76801 3.139153
v 1.690794 -3.76801 3.139153
v -1.505967 3.969393 -0.8380424
v 0 3.969393 -0.8380424
v 0 -2.811512 -0.8380424
v -1.505967 -2.811512 -0.8380424
v 0 -2.918531 -1
v -1.690794 -3.76801 -0.3
v 0 -3.76801 -0.3
v -1.690794 -2.918531 -1
v 0 1.960474 -1
v -1.690794 1.960474 -1
v 0 3.969393 -1
v -1.690794 3.969393 -1
v -0.1635346 -2.918531 3.139153
v 0 -3.76801 3.139153
v -0.1635346 -3.76801 3.139153
v 0 -2.918531 3.139153
v -0.1635346 1.960474 3.139153
v 0 1.960474 3.139153
v -0.1635346 3.969393 2.239153
v 0 3.969393 2.239153
v -1.690794 3.969393 -1
v 0 3.969393 -1
v 0 3.969393 -0.8380424
v -1.505967 3.969393 -0.8380424
v -1.620732 3.969393 -0.7270058
v -1.806122 3.970208 -0.8811468
v -1.806122 3.970208 0.6238579
v -1.620732 3.969393 0.6160411
v -1.806122 3.970208 2.128862
v -1.620732 3.969393 1.959088
v -1.505967 3.969393 2.077196
v -1.690794 3.969393 2.239153
v -0.1635346 3.969393 2.239153
v -0.1635346 3.969393 2.077196
v 0 3.969393 2.239153
v 0 3.969393 2.077196
v -1.620732 -2.811512 -0.7270058
v -1.505967 -2.811512 -0.8380424
v 0 -2.811512 -0.8380424
v 0 -2.811512 2.077196
v -1.620732 -2.811512 0.6160411
v -1.620732 -2.811512 1.959088
v -1.505967 -2.811512 2.077196
v -0.1635346 -2.811512 2.077196
v -1.806122 3.970208 0.6238579
v -1.806122 3.970208 2.128862
v -1.806122 1.961288 3.028862
v -1.806122 1.961288 1.073858
v -1.806122 -2.917717 3.028862
v -1.806122 -2.917717 1.073858
v -1.806122 -3.767195 3.028862
v -1.806122 -3.767195 1.423858
v -0.1635346 3.969393 2.077196
v -1.505967 3.969393 2.077196
v -1.505967 -2.811512 2.077196
v -0.1635346 -2.811512 2.077196
v 0 3.969393 2.077196
v 0 -2.811512 2.077196
v -1.620732 3.969393 0.6160411
v -1.620732 3.969393 -0.7270058
v -1.620732 -2.811512 -0.7270058
v -1.620732 -2.811512 0.6160411
v -1.620732 3.969393 1.959088
v -1.620732 -2.811512 1.959088
v -1.690794 1.960474 -1
v -1.690794 3.969393 -1
v -1.806122 3.970208 -0.8811468
v -1.806122 1.961289 -0.8811468
v -1.690794 -2.918531 -1
v -1.806122 -2.917717 -0.8811468
v -1.690794 -3.76801 -0.3
v -1.806122 -3.767195 -0.1811468
v -1.690794 -2.918531 3.139153
v -1.690794 -3.76801 3.139153
v -1.806122 -3.767195 3.028862
v -1.806122 -2.917717 3.028862
v -1.690794 1.960474 3.139153
v -1.806122 1.961288 3.028862
v -1.690794 3.969393 2.239153
v -1.806122 3.970208 2.128862
v -1.505967 3.969393 -0.8380424
v -1.505967 -2.811512 -0.8380424
v -1.620732 -2.811512 -0.7270058
v -1.620732 3.969393 -0.7270058
v -1.620732 3.969393 1.959088
v -1.620732 -2.811512 1.959088
v -1.505967 -2.811512 2.077196
v -1.505967 3.969393 2.077196
v -1.806122 -2.917717 -0.8811468
v -1.806122 -3.767195 1.423858
v -1.806122 -3.767195 -0.1811468
v -1.806122 -2.917717 1.073858
v -1.806122 1.961289 -0.8811468
v -1.806122 1.961288 1.073858
v -1.806122 3.970208 -0.8811468
v -1.806122 3.970208 0.6238579
v -1.690794 3.969393 2.239153
v -0.1635346 3.969393 2.239153
v -0.1635346 1.960474 3.139153
v -1.690794 1.960474 3.139153
v -0.1635346 -2.918531 3.139153
v -1.690794 -2.918531 3.139153
v -0.1635346 -3.76801 3.139153
v -1.690794 -3.76801 3.139153
vt -0.6199998 0.7419818
vt 1.62 0.7419818
vt 1.62 0.5457891
vt -0.6199999 0.5457891
vt -1.229903 0.1663074
vt -2.499805 0.1663027
vt -2.499814 0.7468097
vt -1.229912 0.7468143
vt 2.120353 0.1663197
vt 2.120344 0.7468266
vt 3.499814 0.1663247
vt 3.499805 0.7468317
vt 1.721143 0.5686575
vt 2.499872 0.5686576
vt 2.499872 0.3763613
vt 1.721143 0.3763613
vt -0.498441 0.5686575
vt -0.498441 0.3763612
vt -1.499872 0.5686574
vt -1.499872 0.3763612
vt 1.708739 0.4922673
vt 3.138315 0.5438656
vt 3.138315 0.4922673
vt 1.719804 0.5438656
vt 1.498587 0.5438656
vt 1.509898 0.4922673
vt 0.1300091 0.4922673
vt 0.1303692 0.5438656
vt -1.24988 0.4922672
vt -1.237848 0.5438656
vt -1.466269 0.5438656
vt -1.455204 0.4922672
vt -2.169992 0.4922672
vt -2.175525 0.5438656
vt -2.88478 0.4922672
vt -2.88478 0.5438656
vt 1.0128 0.5428708
vt -0.01279968 0.5428709
vt -0.01279979 0.7254822
vt 0.02626357 0.7423052
vt 0.4987561 0.7423053
vt 0.9712487 0.7423053
vt 1.0128 0.7254823
vt 1.0128 0.6341766
vt -1.424698 0.1768101
vt -1.353242 0.5311264
vt -1.424698 0.5311266
vt -1.353242 0.1768098
vt 1.763808 0.5311258
vt 1.763807 0.1768092
vt 1.999016 0.5311252
vt 1.999016 0.1768087
vt -0.4999969 0.2625224
vt 1.501239 0.01500806
vt -0.4987545 0.01252317
vt 1.499997 0.2650073
vt -0.5012393 0.5125216
vt 1.498755 0.5150065
vt -1.841181 0.3888164
vt 2.130244 0.7455956
vt -1.841181 0.7455957
vt 2.130244 0.3888163
vt -1.841181 0.03203699
vt 2.130244 0.03203693
vt 0.2148169 0.5061269
vt 0.7851832 0.5380849
vt 0.7851832 0.5061269
vt 0.2148169 0.5380849
vt -1.107117 0.5061269
vt -1.107117 0.5380849
vt -1.58955 0.5061269
vt -1.58955 0.5380849
vt 1.213852 0.00706477
vt 1.696285 0.03902267
vt 1.696285 0.00706477
vt 1.213852 0.03902267
vt -0.108081 0.00706477
vt -0.108081 0.03902267
vt -0.6784473 0.00706477
vt -0.6784473 0.03902267
vt -0.6199998 0.7186044
vt -0.6199999 0.7384314
vt 1.62 0.7384314
vt 1.62 0.7186044
vt 0.999989 0.03184013
vt 0.999989 0.019698
vt 1.112482E-05 0.01969728
vt 1.101935E-05 0.03184015
vt -0.7037102 -0.07206713
vt -1.499853 0.09071697
vt -1.499854 0.4639594
vt -0.703711 0.3825676
vt 1.565508 -0.07206641
vt 1.565507 0.3825685
vt 2.499854 -0.07206614
vt 2.499853 0.2779216
vt -1.499872 0.485563
vt -0.498441 0.03154817
vt -1.499872 0.03154805
vt -0.498441 0.4855632
vt 1.721143 0.03154823
vt 1.721143 0.4855632
vt 2.499872 0.03154829
vt 2.499872 0.4855633
vt -0.6199998 0.7419818
vt -0.6199999 0.5457891
vt 1.62 0.5457891
vt 1.62 0.7419818
vt -1.229903 0.1663074
vt -2.499814 0.7468097
vt -2.499805 0.1663027
vt -1.229912 0.7468143
vt 2.120353 0.1663197
vt 2.120344 0.7468266
vt 3.499814 0.1663247
vt 3.499805 0.7468317
vt 1.721143 0.5686575
vt 2.499872 0.3763613
vt 2.499872 0.5686576
vt 1.721143 0.3763613
vt -0.498441 0.5686575
vt -0.498441 0.3763612
vt -1.499872 0.5686574
vt -1.499872 0.3763612
vt 1.708739 0.4922673
vt 3.138315 0.4922673
vt 3.138315 0.5438656
vt 1.719804 0.5438656
vt 1.498587 0.5438656
vt 1.509898 0.4922673
vt 0.1300091 0.4922673
vt 0.1303692 0.5438656
vt -1.24988 0.4922672
vt -1.237848 0.5438656
vt -1.466269 0.5438656
vt -1.455204 0.4922672
vt -2.169992 0.4922672
vt -2.175525 0.5438656
vt -2.88478 0.4922672
vt -2.88478 0.5438656
vt 0.02626357 0.7423052
vt -0.01279979 0.7254822
vt -0.01279968 0.5428709
vt 1.0128 0.5428708
vt 0.4987561 0.7423053
vt 0.9712487 0.7423053
vt 1.0128 0.7254823
vt 1.0128 0.6341766
vt -1.424698 0.1768101
vt -1.424698 0.5311266
vt -1.353242 0.5311264
vt -1.353242 0.1768098
vt 1.763808 0.5311258
vt 1.763807 0.1768092
vt 1.999016 0.5311252
vt 1.999016 0.1768087
vt -0.4999969 0.2625224
vt -0.4987545 0.01252317
vt 1.501239 0.01500806
vt 1.499997 0.2650073
vt -0.5012393 0.5125216
vt 1.498755 0.5150065
vt -1.841181 0.3888164
vt -1.841181 0.7455957
vt 2.130244 0.7455956
vt 2.130244 0.3888163
vt -1.841181 0.03203699
vt 2.130244 0.03203693
vt 0.2148169 0.5061269
vt 0.7851832 0.5061269
vt 0.7851832 0.5380849
vt 0.2148169 0.5380849
vt -1.107117 0.5061269
vt -1.107117 0.5380849
vt -1.58955 0.5061269
vt -1.58955 0.5380849
vt 1.213852 0.00706477
vt 1.696285 0.00706477
vt 1.696285 0.03902267
vt 1.213852 0.03902267
vt -0.108081 0.00706477
vt -0.108081 0.03902267
vt -0.6784473 0.00706477
vt -0.6784473 0.03902267
vt -0.6199998 0.7186044
vt 1.62 0.7186044
vt 1.62 0.7384314
vt -0.6199999 0.7384314
vt 0.999989 0.03184013
vt 1.101935E-05 0.03184015
vt 1.112482E-05 0.01969728
vt 0.999989 0.019698
vt -0.7037102 -0.07206713
vt -1.499854 0.4639594
vt -1.499853 0.09071697
vt -0.703711 0.3825676
vt 1.565508 -0.07206641
vt 1.565507 0.3825685
vt 2.499854 -0.07206614
vt 2.499853 0.2779216
vt -1.499872 0.485563
vt -1.499872 0.03154805
vt -0.498441 0.03154817
vt -0.498441 0.4855632
vt 1.721143 0.03154823
vt 1.721143 0.4855632
vt 2.499872 0.03154829
vt 2.499872 0.4855633
vn -0.2248383 0.8019651 0.5534435
vn -0.2907606 0.6316345 0.7186766
vn 0 0.7071068 0.7071068
vn 0 0.7071068 0.7071068
vn 0 -0.3378169 -0.9412118
vn 0 -0.635933 -0.7717443
vn 0.373617 -0.5898767 -0.7158602
vn 0.3535329 -0.3016505 -0.8854498
vn 0 0 -1
vn 0.3896091 0 -0.9209803
vn 0 0.7071068 -0.7071068
vn 0.302355 0.628515 -0.7166243
vn 0 0 1
vn 0 0 1
vn 0 0 1
vn 0 0 1
vn 0 0.2090226 0.9779108
vn 0 0.2090226 0.9779108
vn 0 0.8393024 0.5436651
vn 0 0.8393024 0.5436651
vn 0.302355 0.628515 -0.7166243
vn 0 0.7071068 0.7071068
vn 0 0.7071068 -0.7071068
vn -0.2248383 0.8019651 0.5534435
vn -0.5466565 0.8050916 0.2302049
vn 0.7171955 0.6330242 -0.291395
vn 0.7055486 0.7086616 0
vn -0.7086616 0.7055486 0
vn 0.7016412 0.6779886 0.2191599
vn -0.5552115 0.8010159 -0.2238608
vn -0.2312439 0.8060117 -0.5448591
vn 0.2607868 0.7702136 0.5820321
vn 0 0.8393024 0.5436651
vn 0 0.7071068 -0.7071068
vn 0 0.8393024 0.5436651
vn 0 0.7071068 -0.7071068
vn 0 0.7071068 -0.7071068
vn 0 0.7071068 0.7071068
vn -0.2907606 0.6316345 0.7186766
vn -0.7158208 0.628903 0.3034494
vn -0.7071068 0.7071068 0
vn -0.7185135 0.6314422 -0.2915804
vn -0.3025987 0.6290941 -0.716013
vn 0 0.7071068 -0.7071068
vn 0.7055486 0.7086616 0
vn 0.8966501 0.102483 0.4307155
vn 0.7016412 0.6779886 0.2191599
vn 1 0 0
vn 0.9195518 0 0.3929688
vn 1 0 0
vn 0.9192775 0 0.3936099
vn 1 0 0
vn 0 0.7071068 -0.7071068
vn -0.3025987 0.6290941 -0.716013
vn -0.2312439 0.8060117 -0.5448591
vn 0 0.7071068 -0.7071068
vn 0 0.7071068 -0.7071068
vn 0 0.7071068 -0.7071068
vn -0.7086616 0.7055486 0
vn -0.7158208 0.628903 0.3034494
vn -0.5466565 0.8050916 0.2302049
vn -0.7071068 0.7071068 0
vn -0.5552115 0.8010159 -0.2238608
vn -0.7185135 0.6314422 -0.2915804
vn 0.3896091 0 -0.9209803
vn 0.7171955 0.6330242 -0.291395
vn 0.302355 0.628515 -0.7166243
vn 0.9267344 0 -0.3757172
vn 0.3535329 -0.3016505 -0.8854498
vn 0.8863101 -0.1848857 -0.4245841
vn 0.373617 -0.5898767 -0.7158602
vn 0.9599917 -0.1780814 -0.2161088
vn 0.3723376 0 0.9280974
vn 0.9192775 0 0.3936099
vn 0.3717274 0 0.9283419
vn 0.9195518 0 0.3929688
vn 0.3519461 0.1891878 0.9167017
vn 0.8966501 0.102483 0.4307155
vn 0.2607868 0.7702136 0.5820321
vn 0.7016412 0.6779886 0.2191599
vn -0.2248383 0.8019651 0.5534435
vn -0.5466565 0.8050916 0.2302049
vn -0.7158208 0.628903 0.3034494
vn -0.2907606 0.6316345 0.7186766
vn -0.5552115 0.8010159 -0.2238608
vn -0.2312439 0.8060117 -0.5448591
vn -0.3025987 0.6290941 -0.716013
vn -0.7185135 0.6314422 -0.2915804
vn 0.8863101 -0.1848857 -0.4245841
vn 0.9599917 -0.1780814 -0.2161088
vn 1 0 0
vn 1 0 0
vn 0.9267344 0 -0.3757172
vn 1 0 0
vn 0.7171955 0.6330242 -0.291395
vn 0.7055486 0.7086616 0
vn 0.2607868 0.7702136 0.5820321
vn 0 0.2090226 0.9779108
vn 0 0.8393024 0.5436651
vn 0.3519461 0.1891878 0.9167017
vn 0 0 1
vn 0.3723376 0 0.9280974
vn 0 0 1
vn 0.3717274 0 0.9283419
vn 0.2248383 0.8019651 0.5534435
vn 0 0.7071068 0.7071068
vn 0 0.7071068 0.7071068
vn 0.2907606 0.6316345 0.7186766
vn 0 -0.3378169 -0.9412118
vn -0.373617 -0.5898767 -0.7158602
vn 0 -0.635933 -0.7717443
vn -0.3535329 -0.3016505 -0.8854498
vn 0 0 -1
vn -0.3896091 0 -0.9209803
vn 0 0.7071068 -0.7071068
vn -0.302355 0.628515 -0.7166243
vn 0 0 1
vn 0 0 1
vn 0 0 1
vn 0 0 1
vn 0 0.2090226 0.9779108
vn 0 0.2090226 0.9779108
vn 0 0.8393024 0.5436651
vn 0 0.8393024 0.5436651
vn -0.302355 0.628515 -0.7166243
vn 0 0.7071068 -0.7071068
vn 0 0.7071068 0.7071068
vn 0.2248383 0.8019651 0.5534435
vn 0.5466565 0.8050916 0.2302049
vn -0.7171955 0.6330242 -0.291395
vn -0.7055486 0.7086616 0
vn 0.7086616 0.7055486 0
vn -0.7016412 0.6779886 0.2191599
vn 0.5552115 0.8010159 -0.2238608
vn 0.2312439 0.8060117 -0.5448591
vn -0.2607868 0.7702136 0.5820321
vn 0 0.8393024 0.5436651
vn 0 0.7071068 -0.7071068
vn 0 0.8393024 0.5436651
vn 0 0.7071068 -0.7071068
vn 0.7158208 0.628903 0.3034494
vn 0.2907606 0.6316345 0.7186766
vn 0 0.7071068 0.7071068
vn 0 0.7071068 -0.7071068
vn 0.7071068 0.7071068 0
vn 0.7185135 0.6314422 -0.2915804
vn 0.3025987 0.6290941 -0.716013
vn 0 0.7071068 -0.7071068
vn -0.7055486 0.7086616 0
vn -0.7016412 0.6779886 0.2191599
vn -0.8966501 0.102483 0.4307155
vn -1 0 0
vn -0.9195518 0 0.3929688
vn -1 0 0
vn -0.9192775 0 0.3936099
vn -1 0 0
vn 0 0.7071068 -0.7071068
vn 0.2312439 0.8060117 -0.5448591
vn 0.3025987 0.6290941 -0.716013
vn 0 0.7071068 -0.7071068
vn 0 0.7071068 -0.7071068
vn 0 0.7071068 -0.7071068
vn 0.7086616 0.7055486 0
vn 0.5466565 0.8050916 0.2302049
vn 0.7158208 0.628903 0.3034494
vn 0.7071068 0.7071068 0
vn 0.5552115 0.8010159 -0.2238608
vn 0.7185135 0.6314422 -0.2915804
vn -0.3896091 0 -0.9209803
vn -0.302355 0.628515 -0.7166243
vn -0.7171955 0.6330242 -0.291395
vn -0.9267344 0 -0.3757172
vn -0.3535329 -0.3016505 -0.8854498
vn -0.8863101 -0.1848857 -0.4245841
vn -0.373617 -0.5898767 -0.7158602
vn -0.9599917 -0.1780814 -0.2161088
vn -0.3723376 0 0.9280974
vn -0.3717274 0 0.9283419
vn -0.9192775 0 0.3936099
vn -0.9195518 0 0.3929688
vn -0.3519461 0.1891878 0.9167017
vn -0.8966501 0.102483 0.4307155
vn -0.2607868 0.7702136 0.5820321
vn -0.7016412 0.6779886 0.2191599
vn 0.2248383 0.8019651 0.5534435
vn 0.2907606 0.6316345 0.7186766
vn 0.7158208 0.628903 0.3034494
vn 0.5466565 0.8050916 0.2302049
vn 0.5552115 0.8010159 -0.2238608
vn 0.7185135 0.6314422 -0.2915804
vn 0.3025987 0.6290941 -0.716013
vn 0.2312439 0.8060117 -0.5448591
vn -0.8863101 -0.1848857 -0.4245841
vn -1 0 0
vn -0.9599917 -0.1780814 -0.2161088
vn -1 0 0
vn -0.9267344 0 -0.3757172
vn -1 0 0
vn -0.7171955 0.6330242 -0.291395
vn -0.7055486 0.7086616 0
vn -0.2607868 0.7702136 0.5820321
vn 0 0.8393024 0.5436651
vn 0 0.2090226 0.9779108
vn -0.3519461 0.1891878 0.9167017
vn 0 0 1
vn -0.3723376 0 0.9280974
vn 0 0 1
vn -0.3717274 0 0.9283419
g DropshipCollisionTail_0
f 3/3/3 2/2/2 1/1/1
f 4/4/4 3/3/3 1/1/1
f 7/7/7 6/6/6 5/5/5
f 8/8/8 7/7/7 5/5/5
f 8/8/8 5/5/5 9/9/9
f 10/10/10 8/8/8 9/9/9
f 10/10/10 9/9/9 11/11/11
f 12/12/12 10/10/10 11/11/11
f 15/15/15 14/14/14 13/13/13
f 16/16/16 15/15/15 13/13/13
f 16/16/16 13/13/13 17/17/17
f 18/18/18 16/16/16 17/17/17
f 18/18/18 17/17/17 19/19/19
f 20/20/20 18/18/18 19/19/19
f 23/23/23 22/22/22 21/21/21
f 22/22/22 24/24/24 21/21/21
f 24/24/24 25/25/25 21/21/21
f 25/25/25 26/26/26 21/21/21
f 26/26/26 25/25/25 27/27/27
f 25/25/25 28/28/28 27/27/27
f 27/27/27 28/28/28 29/29/29
f 28/28/28 30/30/30 29/29/29
f 30/30/30 31/31/31 29/29/29
f 31/31/31 32/32/32 29/29/29
f 32/32/32 31/31/31 33/33/33
f 31/31/31 34/34/34 33/33/33
f 33/33/33 34/34/34 35/35/35
f 34/34/34 36/36/36 35/35/35
f 39/39/39 38/38/38 37/37/37
f 37/37/37 40/40/40 39/39/39
f 37/37/37 41/41/41 40/40/40
f 37/37/37 42/42/42 41/41/41
f 37/37/37 43/43/43 42/42/42
f 37/37/37 44/44/44 43/43/43
f 47/47/47 46/46/46 45/45/45
f 46/46/46 48/48/48 45/45/45
f 46/46/46 49/49/49 48/48/48
f 49/49/49 50/50/50 48/48/48
f 49/49/49 51/51/51 50/50/50
f 51/51/51 52/52/52 50/50/50
f 55/55/55 54/54/54 53/53/53
f 54/54/54 56/56/56 53/53/53
f 53/53/53 56/56/56 57/57/57
f 56/56/56 58/58/58 57/57/57
f 61/61/61 60/60/60 59/59/59
f 60/60/60 62/62/62 59/59/59
f 59/59/59 62/62/62 63/63/63
f 62/62/62 64/64/64 63/63/63
f 67/67/67 66/66/66 65/65/65
f 66/66/66 68/68/68 65/65/65
f 65/65/65 68/68/68 69/69/69
f 68/68/68 70/70/70 69/69/69
f 69/69/69 70/70/70 71/71/71
f 70/70/70 72/72/72 71/71/71
f 75/75/75 74/74/74 73/73/73
f 74/74/74 76/76/76 73/73/73
f 73/73/73 76/76/76 77/77/77
f 76/76/76 78/78/78 77/77/77
f 77/77/77 78/78/78 79/79/79
f 78/78/78 80/80/80 79/79/79
f 83/83/83 82/82/82 81/81/81
f 84/84/84 83/83/83 81/81/81
f 87/87/87 86/86/86 85/85/85
f 88/88/88 87/87/87 85/85/85
f 91/91/91 90/90/90 89/89/89
f 92/92/92 91/91/91 89/89/89
f 92/92/92 89/89/89 93/93/93
f 94/94/94 92/92/92 93/93/93
f 94/94/94 93/93/93 95/95/95
f 96/96/96 94/94/94 95/95/95
f 99/99/99 98/98/98 97/97/97
f 98/98/98 100/100/100 97/97/97
f 98/98/98 101/101/101 100/100/100
f 101/101/101 102/102/102 100/100/100
f 101/101/101 103/103/103 102/102/102
f 103/103/103 104/104/104 102/102/102
f 107/107/107 106/106/106 105/105/105
f 108/108/108 107/107/107 105/105/105
f 111/111/111 110/110/110 109/109/109
f 110/110/110 112/112/112 109/109/109
f 109/109/109 112/112/112 113/113/113
f 112/112/112 114/114/114 113/113/113
f 113/113/113 114/114/114 115/115/115
f 114/114/114 116/116/116 115/115/115
f 119/119/119 118/118/118 117/117/117
f 118/118/118 120/120/120 117/117/117
f 117/117/117 120/120/120 121/121/121
f 120/120/120 122/122/122 121/121/121
f 121/121/121 122/122/122 123/123/123
f 122/122/122 124/124/124 123/123/123
f 127/127/127 126/126/126 125/125/125
f 128/128/128 127/127/127 125/125/125
f 129/129/129 128/128/128 125/125/125
f 130/130/130 129/129/129 125/125/125
f 129/129/129 130/130/130 131/131/131
f 132/132/132 129/129/129 131/131/131
f 132/132/132 131/131/131 133/133/133
f 134/134/134 132/132/132 133/133/133
f 135/135/135 134/134/134 133/133/133
f 136/136/136 135/135/135 133/133/133
f 135/135/135 136/136/136 137/137/137
f 138/138/138 135/135/135 137/137/137
f 138/138/138 137/137/137 139/139/139
f 140/140/140 138/138/138 139/139/139
f 143/143/143 142/142/142 141/141/141
f 141/141/141 144/144/144 143/143/143
f 141/141/141 145/145/145 144/144/144
f 145/145/145 146/146/146 144/144/144
f 146/146/146 147/147/147 144/144/144
f 147/147/147 148/148/148 144/144/144
f 151/151/151 150/150/150 149/149/149
f 152/152/152 151/151/151 149/149/149
f 153/153/153 151/151/151 152/152/152
f 154/154/154 153/153/153 152/152/152
f 155/155/155 153/153/153 154/154/154
f 156/156/156 155/155/155 154/154/154
f 159/159/159 158/158/158 157/157/157
f 160/160/160 159/159/159 157/157/157
f 160/160/160 157/157/157 161/161/161
f 162/162/162 160/160/160 161/161/161
f 165/165/165 164/164/164 163/163/163
f 166/166/166 165/165/165 163/163/163
f 166/166/166 163/163/163 167/167/167
f 168/168/168 166/166/166 167/167/167
f 171/171/171 170/170/170 169/169/169
f 172/172/172 171/171/171 169/169/169
f 172/172/172 169/169/169 173/173/173
f 174/174/174 172/172/172 173/173/173
f 174/174/174 173/173/173 175/175/175
f 176/176/176 174/174/174 175/175/175
f 179/179/179 178/178/178 177/177/177
f 180/180/180 179/179/179 177/177/177
f 180/180/180 177/177/177 181/181/181
f 182/182/182 180/180/180 181/181/181
f 182/182/182 181/181/181 183/183/183
f 184/184/184 182/182/182 183/183/183
f 187/187/187 186/186/186 185/185/185
f 188/188/188 187/187/187 185/185/185
f 191/191/191 190/190/190 189/189/189
f 192/192/192 191/191/191 189/189/189
f 195/195/195 194/194/194 193/193/193
f 194/194/194 196/196/196 193/193/193
f 193/193/193 196/196/196 197/197/197
f 196/196/196 198/198/198 197/197/197
f 197/197/197 198/198/198 199/199/199
f 198/198/198 200/200/200 199/199/199
f 203/203/203 202/202/202 201/201/201
f 204/204/204 203/203/203 201/201/201
f 205/205/205 203/203/203 204/204/204
f 206/206/206 205/205/205 204/204/204
f 207/207/207 205/205/205 206/206/206
f 208/208/208 207/207/207 206/206/206
