g ShieldMesh
v -0.4151672 -0.7608313 1.028021
v -0.8303343 -0.7608313 0.9287
v -0.9736353 -0.7608313 0.5858639
v -0.4868176 -0.7608313 0.5858639
v 4.893162E-10 -0.7608313 1.28874
v -0.92401 -0.7608313 -0.04110276
v -8.663081E-10 -0.7608313 0.5858639
v 0.4151672 -0.7608313 1.028021
v -0.462005 -0.7608313 -0.04110276
v -0.6360866 -0.7608313 -0.6246163
v 0.4868176 -0.7608313 0.5858639
v 0.8303343 -0.7608313 0.9287
v 0.9736353 -0.7608313 0.5858639
v -0.3180433 -0.7608313 -0.6246163
v -0.4557365 -0.7608313 -0.8760239
v -8.663081E-10 -0.7608313 -0.04110276
v 0.462005 -0.7608313 -0.04110276
v 0.92401 -0.7608313 -0.04110276
v -0.2278683 -0.7608313 -0.8760239
v -0.05770624 -0.7608313 -1.127431
v -0.02885312 -0.7608313 -1.127431
v -6.129854E-10 -0.7608313 -0.6246163
v 0.3180433 -0.7608313 -0.6246163
v 0.6360866 -0.7608313 -0.6246163
v -4.325669E-10 -0.7608313 -0.8760239
v 1.881847E-10 -0.7608313 -1.127431
v 0.2278683 -0.7608313 -0.8760239
v 0.4557365 -0.7608313 -0.8760239
v 0.02885312 -0.7608313 -1.127431
v 0.05770624 -0.7608313 -1.127431
v -0.3836024 -0.9564946 0.9366472
v -0.7672047 -0.9564946 0.844877
v -0.8303343 -0.7608313 0.9287
v -0.4151672 -0.7608313 1.028021
v 2.358706E-10 -0.9564946 1.177544
v 4.893162E-10 -0.7608313 1.28874
v -0.4210873 -0.9564946 -0.8226353
v -0.05331888 -0.9564946 -1.054929
v -0.05770624 -0.7608313 -1.127431
v -0.4557365 -0.7608313 -0.8760239
v -0.5877255 -0.9564946 -0.5903421
v -0.6360866 -0.7608313 -0.6246163
v -0.8537583 -0.9564946 -0.05119251
v -0.92401 -0.7608313 -0.04110276
v -0.8996106 -0.9564946 0.5281063
v -0.9736353 -0.7608313 0.5858639
v -0.7672047 -0.9564946 0.844877
v -0.8303343 -0.7608313 0.9287
v 0.3836024 -0.9564946 0.9366472
v 2.358706E-10 -0.9564946 1.177544
v 4.893162E-10 -0.7608313 1.28874
v 0.4151672 -0.7608313 1.028021
v 0.7672047 -0.9564946 0.844877
v 0.8303343 -0.7608313 0.9287
v 0.8996106 -0.9564946 0.5281063
v 0.7672047 -0.9564946 0.844877
v 0.8303343 -0.7608313 0.9287
v 0.9736353 -0.7608313 0.5858639
v 0.8537583 -0.9564946 -0.05119251
v 0.92401 -0.7608313 -0.04110276
v 0.5877255 -0.9564946 -0.5903421
v 0.6360866 -0.7608313 -0.6246163
v 0.4210873 -0.9564946 -0.8226353
v 0.4557365 -0.7608313 -0.8760239
v 0.05331888 -0.9564946 -1.054929
v 0.05770624 -0.7608313 -1.127431
v -0.05331888 -0.9564946 -1.054929
v -0.02885312 -0.7608313 -1.127431
v -0.05770624 -0.7608313 -1.127431
v -0.02665944 -0.9564946 -1.054929
v 1.881847E-10 -0.7608313 -1.127431
v -4.236616E-11 -0.9564946 -1.054929
v 0.02885312 -0.7608313 -1.127431
v 0.02665944 -0.9564946 -1.054929
v 0.05770624 -0.7608313 -1.127431
v 0.05331888 -0.9564946 -1.054929
v -0.3358618 -0.8949905 0.7984469
v -0.6337928 -0.961815 0.6677336
v -0.6717237 -0.8949905 0.7180979
v -0.3168964 -0.961815 0.7435455
v 8.25398E-11 -0.8949905 1.009363
v 8.071321E-14 -0.961815 0.9425516
v 0.6717237 -0.8949905 0.7180979
v 0.6337928 -0.961815 0.6677336
v 0.3168964 -0.961815 0.7435455
v 0.3358618 -0.8949905 0.7984469
v 8.071321E-14 -0.961815 0.9425516
v 8.25398E-11 -0.8949905 1.009363
v 0.7876512 -0.8949905 0.4407504
v 0.6337928 -0.961815 0.6677336
v 0.6717237 -0.8949905 0.7180979
v 0.7431743 -0.961815 0.4060473
v 0.7475055 -0.8949905 -0.06645297
v 0.7052954 -0.961815 -0.0725153
v 0.5145811 -0.8949905 -0.5385037
v 0.4855238 -0.961815 -0.5179103
v 0.3686817 -0.8949905 -0.7418873
v 0.347863 -0.961815 -0.7098092
v 0.04668318 -0.8949905 -0.9452709
v 0.04404708 -0.961815 -0.9017082
v 0.02334159 -0.8949905 -0.9452709
v 0.02202354 -0.961815 -0.9017082
v -1.610694E-10 -0.8949905 -0.9452709
v -2.297727E-10 -0.961815 -0.9017082
v -0.02334159 -0.8949905 -0.9452709
v -0.02202354 -0.961815 -0.9017082
v -0.04668318 -0.8949905 -0.9452709
v -0.04404708 -0.961815 -0.9017082
v -0.3686817 -0.8949905 -0.7418873
v -0.347863 -0.961815 -0.7098092
v -0.5145811 -0.8949905 -0.5385037
v -0.4855238 -0.961815 -0.5179103
v -0.7475055 -0.8949905 -0.06645297
v -0.7052954 -0.961815 -0.0725153
v -0.7876512 -0.8949905 0.4407504
v -0.7431743 -0.961815 0.4060473
v -0.6717237 -0.8949905 0.7180979
v -0.6337928 -0.961815 0.6677336
v -0.3168964 -0.961815 0.7435455
v -0.7431743 -0.961815 0.4060473
v -0.6337928 -0.961815 0.6677336
v -0.3715871 -0.961815 0.4060473
v 8.071321E-14 -0.961815 0.9425516
v -0.7052954 -0.961815 -0.0725153
v -1.034665E-09 -0.961815 0.4060473
v 0.3168964 -0.961815 0.7435455
v -0.3526477 -0.961815 -0.0725153
v -0.4855238 -0.961815 -0.5179103
v 0.3715871 -0.961815 0.4060473
v 0.6337928 -0.961815 0.6677336
v 0.7431743 -0.961815 0.4060473
v -0.2427619 -0.961815 -0.5179103
v -0.347863 -0.961815 -0.7098092
v -1.034665E-09 -0.961815 -0.0725153
v 0.3526477 -0.961815 -0.0725153
v 0.7052954 -0.961815 -0.0725153
v -0.1739315 -0.961815 -0.7098092
v -0.04404708 -0.961815 -0.9017082
v -0.02202354 -0.961815 -0.9017082
v -8.413042E-10 -0.961815 -0.5179103
v 0.2427619 -0.961815 -0.5179103
v 0.4855238 -0.961815 -0.5179103
v -7.035914E-10 -0.961815 -0.7098092
v -2.297727E-10 -0.961815 -0.9017082
v 0.1739315 -0.961815 -0.7098092
v 0.347863 -0.961815 -0.7098092
v 0.02202354 -0.961815 -0.9017082
v 0.04404708 -0.961815 -0.9017082
v -0.8996106 -0.9564946 0.5281063
v -0.7876512 -0.8949905 0.4407504
v -0.7475055 -0.8949905 -0.06645297
v -0.8537583 -0.9564946 -0.05119251
v -0.7672047 -0.9564946 0.844877
v -0.5145811 -0.8949905 -0.5385037
v -0.6717237 -0.8949905 0.7180979
v -0.5877255 -0.9564946 -0.5903421
v -0.3836024 -0.9564946 0.9366472
v -0.3686817 -0.8949905 -0.7418873
v -0.3358618 -0.8949905 0.7984469
v -0.4210873 -0.9564946 -0.8226353
v 2.358706E-10 -0.9564946 1.177544
v -0.04668318 -0.8949905 -0.9452709
v 8.25398E-11 -0.8949905 1.009363
v -0.05331888 -0.9564946 -1.054929
v 0.3836024 -0.9564946 0.9366472
v -0.02334159 -0.8949905 -0.9452709
v 0.3358618 -0.8949905 0.7984469
v -0.02665944 -0.9564946 -1.054929
v 0.7672047 -0.9564946 0.844877
v -1.610694E-10 -0.8949905 -0.9452709
v 0.6717237 -0.8949905 0.7180979
v -4.236616E-11 -0.9564946 -1.054929
v 0.8996106 -0.9564946 0.5281063
v 0.02334159 -0.8949905 -0.9452709
v 0.7876512 -0.8949905 0.4407504
v 0.02665944 -0.9564946 -1.054929
v 0.8537583 -0.9564946 -0.05119251
v 0.04668318 -0.8949905 -0.9452709
v 0.7475055 -0.8949905 -0.06645297
v 0.05331888 -0.9564946 -1.054929
v 0.5877255 -0.9564946 -0.5903421
v 0.3686817 -0.8949905 -0.7418873
v 0.5145811 -0.8949905 -0.5385037
v 0.4210873 -0.9564946 -0.8226353
vt 0.4342422 0.05091602
vt 0.3489611 0.06883943
vt 0.3177854 0.1379908
vt 0.4171215 0.1407357
vt 0.5204418 6.604195E-05
vt 0.3243824 0.2662077
vt 0.516454 0.1434895
vt 0.6036826 0.05562705
vt 0.4186463 0.2687953
vt 0.3798868 0.3868793
vt 0.6157861 0.1462594
vt 0.6878361 0.07826149
vt 0.7151213 0.1490383
vt 0.4447443 0.3885993
vt 0.4153478 0.4391363
vt 0.5128977 0.2713979
vt 0.6071481 0.2740364
vt 0.7014102 0.2766905
vt 0.4617275 0.4402835
vt 0.4950921 0.4921389
vt 0.5009938 0.492263
vt 0.5095897 0.3903716
vt 0.5744336 0.3922052
vt 0.6392865 0.3940916
vt 0.5081652 0.4416093
vt 0.506753 0.4923984
vt 0.5546048 0.4428658
vt 0.6009766 0.4442974
vt 0.512511 0.4925832
vt 0.5184104 0.4927872
vt 0.4154091 0.9093724
vt 0.3433954 0.8781017
vt 0.3102645 0.9095769
vt 0.3945872 0.9541259
vt 0.4939466 0.95301
vt 0.4926419 0.9999339
vt 0.4260043 0.5668668
vt 0.49589 0.5323005
vt 0.4950921 0.4921389
vt 0.4033318 0.530889
vt 0.3891169 0.607266
vt 0.3548045 0.5801491
vt 0.3341394 0.7076738
vt 0.2916121 0.7010107
vt 0.3220881 0.8170195
vt 0.2791013 0.8331507
vt 0.3433954 0.8781017
vt 0.3102645 0.9095769
vt 0.5747874 0.9138035
vt 0.4939466 0.95301
vt 0.4926419 0.9999339
vt 0.5930904 0.9596449
vt 0.6484272 0.8865826
vt 0.6797581 0.91985
vt 0.6730955 0.8267787
vt 0.6484272 0.8865826
vt 0.6797581 0.91985
vt 0.7151196 0.8452735
vt 0.6671385 0.7169324
vt 0.7099704 0.7126424
vt 0.617825 0.6136248
vt 0.6535912 0.5884564
vt 0.5832393 0.5712383
vt 0.6078758 0.5365759
vt 0.5153822 0.5328426
vt 0.5184104 0.4927872
vt 0.49589 0.5323005
vt 0.5009938 0.492263
vt 0.4950921 0.4921389
vt 0.5007325 0.5323715
vt 0.506753 0.4923984
vt 0.5056384 0.5324901
vt 0.512511 0.4925832
vt 0.5105432 0.5326443
vt 0.5184104 0.4927872
vt 0.5153822 0.5328426
vt 0.4276079 0.8805438
vt 0.3780578 0.8423988
vt 0.3659272 0.8549278
vt 0.434791 0.8642534
vt 0.494884 0.9192945
vt 0.4954098 0.9003794
vt 0.6272178 0.8621926
vt 0.6158022 0.8490089
vt 0.5579423 0.8676775
vt 0.5642092 0.8843417
vt 0.4954098 0.9003794
vt 0.494884 0.9192945
vt 0.6493654 0.809715
vt 0.6158022 0.8490089
vt 0.6272178 0.8621926
vt 0.6347031 0.8022026
vt 0.6437495 0.7147285
vt 0.6287588 0.7153938
vt 0.6012825 0.6257164
vt 0.5893072 0.6338232
vt 0.5720984 0.5890701
vt 0.5637583 0.6004273
vt 0.5134565 0.5555575
vt 0.5119824 0.5692061
vt 0.5091896 0.5553535
vt 0.5082992 0.5691391
vt 0.5050068 0.5552067
vt 0.5046226 0.5690238
vt 0.5008222 0.5551209
vt 0.5009453 0.5689347
vt 0.4965506 0.5550875
vt 0.497264 0.5687969
vt 0.4361371 0.58529
vt 0.4438334 0.597093
vt 0.4049619 0.620258
vt 0.4164683 0.6290177
vt 0.3576148 0.706773
vt 0.3725453 0.7082703
vt 0.3467298 0.8013007
vt 0.3617867 0.7946147
vt 0.3659272 0.8549278
vt 0.3780578 0.8423988
vt 0.434791 0.8642534
vt 0.3617867 0.7946147
vt 0.3780578 0.8423988
vt 0.4292877 0.798751
vt 0.4954098 0.9003794
vt 0.3725453 0.7082703
vt 0.4981534 0.8016989
vt 0.5579423 0.8676775
vt 0.4366118 0.7111694
vt 0.4164683 0.6290177
vt 0.5670766 0.802582
vt 0.6158022 0.8490089
vt 0.6347031 0.8022026
vt 0.4599448 0.6321881
vt 0.4438334 0.597093
vt 0.5006052 0.7135181
vt 0.5646302 0.7147288
vt 0.6287588 0.7153938
vt 0.474049 0.5995078
vt 0.497264 0.5687969
vt 0.5009453 0.5689347
vt 0.502816 0.6340024
vt 0.5457218 0.6345729
vt 0.5893072 0.6338232
vt 0.503739 0.6008043
vt 0.5046226 0.5690238
vt 0.5334553 0.6011595
vt 0.5637583 0.6004273
vt 0.5082992 0.5691391
vt 0.5119824 0.5692061
vt 0.3220881 0.8170195
vt 0.3467298 0.8013007
vt 0.3576148 0.706773
vt 0.3341394 0.7076738
vt 0.3433954 0.8781017
vt 0.4049619 0.620258
vt 0.3659272 0.8549278
vt 0.3891169 0.607266
vt 0.4154091 0.9093724
vt 0.4361371 0.58529
vt 0.4276079 0.8805438
vt 0.4260043 0.5668668
vt 0.4939466 0.95301
vt 0.4965506 0.5550875
vt 0.494884 0.9192945
vt 0.49589 0.5323005
vt 0.5747874 0.9138035
vt 0.5008222 0.5551209
vt 0.5642092 0.8843417
vt 0.5007325 0.5323715
vt 0.6484272 0.8865826
vt 0.5050068 0.5552067
vt 0.6272178 0.8621926
vt 0.5056384 0.5324901
vt 0.6730955 0.8267787
vt 0.5091896 0.5553535
vt 0.6493654 0.809715
vt 0.5105432 0.5326443
vt 0.6671385 0.7169324
vt 0.5134565 0.5555575
vt 0.6437495 0.7147285
vt 0.5153822 0.5328426
vt 0.617825 0.6136248
vt 0.5720984 0.5890701
vt 0.6012825 0.6257164
vt 0.5832393 0.5712383
vn 0 1 0
vn 0 1 0
vn 0 1 0
vn 0 1 0
vn 0 1 0
vn 0 1 0
vn 0 1 0
vn 0 1 0
vn 0 1 0
vn 0 1 0
vn 0 1 0
vn 0 1 0
vn 0 1 0
vn 0 1 0
vn 0 1 0
vn 0 1 0
vn 0 1 0
vn 0 1 0
vn 0 1 0
vn 0 1 0
vn 0 1 0
vn 0 1 0
vn 0 1 0
vn 0 1 0
vn 0 1 0
vn 0 1 0
vn 0 1 0
vn 0 1 0
vn 0 1 0
vn 0 1 0
vn -0.3451114 -0.4422542 0.8278341
vn -0.2087825 -0.4412479 0.8727601
vn -0.2087825 -0.4412479 0.8727601
vn -0.3500826 -0.4421278 0.8258118
vn -0.479219 -0.4336532 0.763082
vn -0.479219 -0.4336532 0.763082
vn -0.6583472 -0.304423 -0.688408
vn -0.5078427 -0.309314 -0.8040029
vn -0.5078427 -0.309314 -0.8040029
vn -0.6488033 -0.3050984 -0.6971149
vn -0.8214881 -0.2891399 -0.4914829
vn -0.8203478 -0.2891665 -0.4933684
vn -0.9110707 -0.3132836 -0.2679619
vn -0.9180862 -0.3173718 -0.2374719
vn -0.9175231 -0.3808771 0.1143852
vn -0.9036402 -0.3924757 0.1714563
vn -0.8372977 -0.420068 0.3499651
vn -0.8372977 -0.420068 0.3499651
vn 0.3451114 -0.4422542 0.8278341
vn 0.479219 -0.4336532 0.763082
vn 0.479219 -0.4336532 0.763082
vn 0.3500826 -0.4421278 0.8258118
vn 0.2087825 -0.4412479 0.8727601
vn 0.2087825 -0.4412479 0.8727601
vn 0.9175231 -0.3808771 0.1143852
vn 0.8372977 -0.420068 0.3499651
vn 0.8372977 -0.420068 0.3499651
vn 0.9036402 -0.3924757 0.1714563
vn 0.9110707 -0.3132836 -0.2679619
vn 0.9180862 -0.3173718 -0.2374719
vn 0.8214881 -0.2891399 -0.4914829
vn 0.8203478 -0.2891665 -0.4933684
vn 0.6583472 -0.304423 -0.688408
vn 0.6488033 -0.3050984 -0.6971149
vn 0.5078427 -0.309314 -0.8040029
vn 0.5078427 -0.309314 -0.8040029
vn 0 -0.3474585 -0.9376954
vn 0 -0.3474585 -0.9376954
vn 0 -0.3474585 -0.9376954
vn 0 -0.3474585 -0.9376954
vn 0 -0.3474585 -0.9376954
vn 0 -0.3474585 -0.9376954
vn 0 -0.3474585 -0.9376954
vn 0 -0.3474585 -0.9376954
vn 0 -0.3474585 -0.9376954
vn 0 -0.3474585 -0.9376954
vn -0.2960644 -0.65512 0.6950998
vn -0.1759423 -0.6542369 0.7355396
vn -0.1759423 -0.6542369 0.7355396
vn -0.289778 -0.6553347 0.6975424
vn -0.4058755 -0.646184 0.646306
vn -0.4058755 -0.646184 0.646306
vn 0.1759423 -0.6542369 0.7355396
vn 0.1759423 -0.6542369 0.7355396
vn 0.289778 -0.6553347 0.6975424
vn 0.2960644 -0.65512 0.6950998
vn 0.4058755 -0.646184 0.646306
vn 0.4058755 -0.646184 0.646306
vn 0.781853 -0.6028857 0.1588549
vn 0.7154251 -0.6314675 0.2990246
vn 0.7154251 -0.6314675 0.2990246
vn 0.8087142 -0.5821131 0.08441464
vn 0.8352849 -0.508697 -0.2086305
vn 0.8280433 -0.5000244 -0.2536134
vn 0.756409 -0.4693185 -0.4556156
vn 0.7581602 -0.4692035 -0.4528147
vn 0.5911332 -0.4912427 -0.6397203
vn 0.6055903 -0.4897398 -0.6272283
vn 0.2189766 -0.5389113 -0.8134026
vn 0.2548085 -0.5351009 -0.8054438
vn 0 -0.5461067 -0.8377156
vn 0 -0.5461067 -0.8377156
vn 0 -0.5461067 -0.8377156
vn 0 -0.5461067 -0.8377156
vn 0 -0.5461067 -0.8377156
vn 0 -0.5461067 -0.8377156
vn -0.2189766 -0.5389113 -0.8134026
vn -0.2548085 -0.5351009 -0.8054438
vn -0.5911332 -0.4912427 -0.6397203
vn -0.6055903 -0.4897398 -0.6272283
vn -0.756409 -0.4693185 -0.4556156
vn -0.7581602 -0.4692035 -0.4528147
vn -0.8352849 -0.508697 -0.2086305
vn -0.8280433 -0.5000244 -0.2536134
vn -0.781853 -0.6028857 0.1588549
vn -0.8087142 -0.5821131 0.08441464
vn -0.7154251 -0.6314675 0.2990246
vn -0.7154251 -0.6314675 0.2990246
vn 0 -1 0
vn 0 -1 0
vn 0 -1 0
vn 0 -1 0
vn 0 -1 0
vn 0 -1 0
vn 0 -1 0
vn 0 -1 0
vn 0 -1 0
vn 0 -1 0
vn 0 -1 0
vn 0 -1 0
vn 0 -1 0
vn 0 -1 0
vn 0 -1 0
vn 0 -1 0
vn 0 -1 0
vn 0 -1 0
vn 0 -1 0
vn 0 -1 0
vn 0 -1 0
vn 0 -1 0
vn 0 -1 0
vn 0 -1 0
vn 0 -1 0
vn 0 -1 0
vn 0 -1 0
vn 0 -1 0
vn 0 -1 0
vn 0 -1 0
vn 0.4227787 -0.9014681 -0.09280805
vn 0.4607468 -0.8868849 -0.0338762
vn 0.5118292 -0.8423468 0.1687684
vn 0.5102246 -0.8515849 0.1203078
vn 0.2311523 -0.9323 -0.2781824
vn 0.4871762 -0.8237713 0.2899314
vn 0.2421373 -0.9319875 -0.2697569
vn 0.4851057 -0.8239015 0.2930167
vn 0.1531149 -0.9214054 -0.3571663
vn 0.3832658 -0.8376119 0.3892477
vn 0.1484755 -0.9215249 -0.3588133
vn 0.3664688 -0.8393565 0.4014739
vn 0 -0.9391663 -0.3434627
vn 0.160562 -0.8649778 0.4754295
vn 0 -0.9391663 -0.3434627
vn 0.1243958 -0.8686039 0.4796381
vn -0.1531149 -0.9214054 -0.3571663
vn 0 -0.8721763 0.4891915
vn -0.1484755 -0.9215249 -0.3588133
vn 0 -0.8721763 0.4891915
vn -0.2311523 -0.9323 -0.2781824
vn 0 -0.8721763 0.4891915
vn -0.2421373 -0.9319875 -0.2697569
vn 0 -0.8721763 0.4891915
vn -0.4227787 -0.9014681 -0.09280805
vn 0 -0.8721763 0.4891915
vn -0.4607468 -0.8868849 -0.0338762
vn 0 -0.8721763 0.4891915
vn -0.5102246 -0.8515849 0.1203078
vn -0.160562 -0.8649778 0.4754295
vn -0.5118292 -0.8423468 0.1687684
vn -0.1243958 -0.8686039 0.4796381
vn -0.4851057 -0.8239015 0.2930167
vn -0.3832658 -0.8376119 0.3892477
vn -0.4871762 -0.8237713 0.2899314
vn -0.3664688 -0.8393565 0.4014739
g ShieldMesh_0
f 3/3/3 2/2/2 1/1/1
f 4/4/4 3/3/3 1/1/1
f 4/4/4 1/1/1 5/5/5
f 6/6/6 3/3/3 4/4/4
f 7/7/7 4/4/4 5/5/5
f 7/7/7 5/5/5 8/8/8
f 9/9/9 6/6/6 4/4/4
f 9/9/9 4/4/4 7/7/7
f 10/10/10 6/6/6 9/9/9
f 11/11/11 7/7/7 8/8/8
f 11/11/11 8/8/8 12/12/12
f 13/13/13 11/11/11 12/12/12
f 14/14/14 10/10/10 9/9/9
f 15/15/15 10/10/10 14/14/14
f 16/16/16 9/9/9 7/7/7
f 16/16/16 7/7/7 11/11/11
f 14/14/14 9/9/9 16/16/16
f 17/17/17 11/11/11 13/13/13
f 17/17/17 16/16/16 11/11/11
f 18/18/18 17/17/17 13/13/13
f 19/19/19 15/15/15 14/14/14
f 20/20/20 15/15/15 19/19/19
f 21/21/21 20/20/20 19/19/19
f 22/22/22 14/14/14 16/16/16
f 22/22/22 16/16/16 17/17/17
f 19/19/19 14/14/14 22/22/22
f 23/23/23 17/17/17 18/18/18
f 23/23/23 22/22/22 17/17/17
f 24/24/24 23/23/23 18/18/18
f 21/21/21 19/19/19 25/25/25
f 25/25/25 19/19/19 22/22/22
f 25/25/25 22/22/22 23/23/23
f 26/26/26 21/21/21 25/25/25
f 27/27/27 23/23/23 24/24/24
f 27/27/27 25/25/25 23/23/23
f 26/26/26 25/25/25 27/27/27
f 28/28/28 27/27/27 24/24/24
f 29/29/29 26/26/26 27/27/27
f 29/29/29 27/27/27 28/28/28
f 30/30/30 29/29/29 28/28/28
f 33/33/33 32/32/32 31/31/31
f 34/34/34 33/33/33 31/31/31
f 34/34/34 31/31/31 35/35/35
f 36/36/36 34/34/34 35/35/35
f 39/39/39 38/38/38 37/37/37
f 40/40/40 39/39/39 37/37/37
f 40/40/40 37/37/37 41/41/41
f 42/42/42 40/40/40 41/41/41
f 42/42/42 41/41/41 43/43/43
f 44/44/44 42/42/42 43/43/43
f 44/44/44 43/43/43 45/45/45
f 46/46/46 44/44/44 45/45/45
f 46/46/46 45/45/45 47/47/47
f 48/48/48 46/46/46 47/47/47
f 51/51/51 50/50/50 49/49/49
f 52/52/52 51/51/51 49/49/49
f 52/52/52 49/49/49 53/53/53
f 54/54/54 52/52/52 53/53/53
f 57/57/57 56/56/56 55/55/55
f 58/58/58 57/57/57 55/55/55
f 58/58/58 55/55/55 59/59/59
f 60/60/60 58/58/58 59/59/59
f 60/60/60 59/59/59 61/61/61
f 62/62/62 60/60/60 61/61/61
f 62/62/62 61/61/61 63/63/63
f 64/64/64 62/62/62 63/63/63
f 64/64/64 63/63/63 65/65/65
f 66/66/66 64/64/64 65/65/65
f 69/69/69 68/68/68 67/67/67
f 68/68/68 70/70/70 67/67/67
f 68/68/68 71/71/71 70/70/70
f 71/71/71 72/72/72 70/70/70
f 71/71/71 73/73/73 72/72/72
f 73/73/73 74/74/74 72/72/72
f 73/73/73 75/75/75 74/74/74
f 75/75/75 76/76/76 74/74/74
f 79/79/79 78/78/78 77/77/77
f 78/78/78 80/80/80 77/77/77
f 77/77/77 80/80/80 81/81/81
f 80/80/80 82/82/82 81/81/81
f 85/85/85 84/84/84 83/83/83
f 86/86/86 85/85/85 83/83/83
f 87/87/87 85/85/85 86/86/86
f 88/88/88 87/87/87 86/86/86
f 91/91/91 90/90/90 89/89/89
f 90/90/90 92/92/92 89/89/89
f 89/89/89 92/92/92 93/93/93
f 92/92/92 94/94/94 93/93/93
f 93/93/93 94/94/94 95/95/95
f 94/94/94 96/96/96 95/95/95
f 95/95/95 96/96/96 97/97/97
f 96/96/96 98/98/98 97/97/97
f 97/97/97 98/98/98 99/99/99
f 98/98/98 100/100/100 99/99/99
f 99/99/99 100/100/100 101/101/101
f 100/100/100 102/102/102 101/101/101
f 101/101/101 102/102/102 103/103/103
f 102/102/102 104/104/104 103/103/103
f 103/103/103 104/104/104 105/105/105
f 104/104/104 106/106/106 105/105/105
f 105/105/105 106/106/106 107/107/107
f 106/106/106 108/108/108 107/107/107
f 107/107/107 108/108/108 109/109/109
f 108/108/108 110/110/110 109/109/109
f 109/109/109 110/110/110 111/111/111
f 110/110/110 112/112/112 111/111/111
f 111/111/111 112/112/112 113/113/113
f 112/112/112 114/114/114 113/113/113
f 113/113/113 114/114/114 115/115/115
f 114/114/114 116/116/116 115/115/115
f 115/115/115 116/116/116 117/117/117
f 116/116/116 118/118/118 117/117/117
f 121/121/121 120/120/120 119/119/119
f 120/120/120 122/122/122 119/119/119
f 119/119/119 122/122/122 123/123/123
f 120/120/120 124/124/124 122/122/122
f 122/122/122 125/125/125 123/123/123
f 123/123/123 125/125/125 126/126/126
f 124/124/124 127/127/127 122/122/122
f 122/122/122 127/127/127 125/125/125
f 124/124/124 128/128/128 127/127/127
f 125/125/125 129/129/129 126/126/126
f 126/126/126 129/129/129 130/130/130
f 129/129/129 131/131/131 130/130/130
f 128/128/128 132/132/132 127/127/127
f 128/128/128 133/133/133 132/132/132
f 127/127/127 134/134/134 125/125/125
f 125/125/125 134/134/134 129/129/129
f 127/127/127 132/132/132 134/134/134
f 129/129/129 135/135/135 131/131/131
f 134/134/134 135/135/135 129/129/129
f 135/135/135 136/136/136 131/131/131
f 133/133/133 137/137/137 132/132/132
f 133/133/133 138/138/138 137/137/137
f 138/138/138 139/139/139 137/137/137
f 132/132/132 140/140/140 134/134/134
f 134/134/134 140/140/140 135/135/135
f 132/132/132 137/137/137 140/140/140
f 135/135/135 141/141/141 136/136/136
f 140/140/140 141/141/141 135/135/135
f 141/141/141 142/142/142 136/136/136
f 137/137/137 139/139/139 143/143/143
f 137/137/137 143/143/143 140/140/140
f 140/140/140 143/143/143 141/141/141
f 139/139/139 144/144/144 143/143/143
f 141/141/141 145/145/145 142/142/142
f 143/143/143 145/145/145 141/141/141
f 143/143/143 144/144/144 145/145/145
f 145/145/145 146/146/146 142/142/142
f 144/144/144 147/147/147 145/145/145
f 145/145/145 147/147/147 146/146/146
f 147/147/147 148/148/148 146/146/146
f 151/151/151 150/150/150 149/149/149
f 152/152/152 151/151/151 149/149/149
f 149/149/149 150/150/150 153/153/153
f 154/154/154 151/151/151 152/152/152
f 150/150/150 155/155/155 153/153/153
f 156/156/156 154/154/154 152/152/152
f 153/153/153 155/155/155 157/157/157
f 158/158/158 154/154/154 156/156/156
f 155/155/155 159/159/159 157/157/157
f 160/160/160 158/158/158 156/156/156
f 157/157/157 159/159/159 161/161/161
f 162/162/162 158/158/158 160/160/160
f 159/159/159 163/163/163 161/161/161
f 164/164/164 162/162/162 160/160/160
f 161/161/161 163/163/163 165/165/165
f 166/166/166 162/162/162 164/164/164
f 163/163/163 167/167/167 165/165/165
f 168/168/168 166/166/166 164/164/164
f 165/165/165 167/167/167 169/169/169
f 170/170/170 166/166/166 168/168/168
f 167/167/167 171/171/171 169/169/169
f 172/172/172 170/170/170 168/168/168
f 169/169/169 171/171/171 173/173/173
f 174/174/174 170/170/170 172/172/172
f 171/171/171 175/175/175 173/173/173
f 176/176/176 174/174/174 172/172/172
f 173/173/173 175/175/175 177/177/177
f 178/178/178 174/174/174 176/176/176
f 175/175/175 179/179/179 177/177/177
f 180/180/180 178/178/178 176/176/176
f 177/177/177 179/179/179 181/181/181
f 182/182/182 178/178/178 180/180/180
f 179/179/179 183/183/183 181/181/181
f 184/184/184 182/182/182 180/180/180
f 181/181/181 183/183/183 184/184/184
f 183/183/183 182/182/182 184/184/184
