g BazaarHangingCloth
v 1 -0.9778902 0.02565888
v 1 -1.97789 0.02565888
v -1 -1.97789 0.02565888
v -1 -0.9778902 0.02565888
v 1 1.02211 0.02565888
v -1 1.02211 0.02565888
v 1 2.02211 0.02565888
v -1 2.02211 0.02565888
v 1 2.116032 -0.01517669
v -1 2.116032 -0.01517669
v 1 2.152784 -0.0723465
v -1 2.152784 -0.0723465
v 1 2.128282 -0.1335999
v -1 2.128282 -0.1335999
v 1 2.083363 -0.1581012
v -1 2.083363 -0.1581012
vt 0.7466312 0.2528161
vt 0.7466313 0.006184936
vt 0.253369 0.006184936
vt 0.253369 0.2528161
vt 0.7466311 0.7460783
vt 0.2533689 0.7460782
vt 0.746631 0.9927095
vt 0.2533689 0.9927094
vt 0.746631 0.9927095
vt 0.2533689 0.9927094
vt 0.746631 0.9927095
vt 0.2533689 0.9927094
vt 0.746631 0.9927095
vt 0.2533689 0.9927094
vt 0.746631 0.9927095
vt 0.2533689 0.9927094
vn 0 0 1
vn 0 0 1
vn 0 0 1
vn 0 0 1
vn 0 0 1
vn 0 0 1
vn 0 0.2036228 0.9790494
vn 0 0.2036228 0.9790494
vn 0 0.647861 0.7617586
vn 0 0.647861 0.7617586
vn 0 0.9954532 0.09525123
vn 0 0.9954532 0.09525123
vn 0 0.7478536 -0.6638635
vn 0 0.7478536 -0.6638635
vn 0 0.4788393 -0.8779025
vn 0 0.4788393 -0.8779025
g BazaarHangingCloth_0
f 3/3/3 2/2/2 1/1/1
f 4/4/4 3/3/3 1/1/1
f 1/1/1 5/5/5 4/4/4
f 5/5/5 6/6/6 4/4/4
f 5/5/5 7/7/7 6/6/6
f 7/7/7 8/8/8 6/6/6
f 7/7/7 9/9/9 8/8/8
f 9/9/9 10/10/10 8/8/8
f 9/9/9 11/11/11 10/10/10
f 11/11/11 12/12/12 10/10/10
f 11/11/11 13/13/13 12/12/12
f 13/13/13 14/14/14 12/12/12
f 13/13/13 15/15/15 14/14/14
f 15/15/15 16/16/16 14/14/14
