g BbRuinTile1_LOD0
v -1 -0.962 0.08970748
v -0.962 -0.962 0.1277075
v -0.962 -1 0.08970748
v -0.962 1 -0.08970748
v -1 0.962 -0.08970748
v -0.962 0.962 -0.1277075
v 0.962 -1 -0.08970748
v 1 -0.962 -0.08970748
v 0.962 -0.962 -0.1277075
v 1 0.962 -0.08970748
v 0.962 1 -0.08970748
v 0.962 0.962 -0.1277075
v -0.962 0.962 -0.1277075
v -0.8 0.8 -0.1277075
v 0.8 0.8 -0.1277075
v 0.962 0.962 -0.1277075
v -0.962 1 -0.08970748
v 0.962 1 -0.08970748
v 0.8 -0.8 -0.1277075
v 0.962 -0.962 -0.1277075
v 1 0.962 -0.08970748
v 1 -0.962 -0.08970748
v -0.8 -0.8 -0.1277075
v -0.962 -0.962 -0.1277075
v 0.962 -1 -0.08970748
v -0.962 -1 -0.08970748
v -1 -0.962 -0.08970748
v -1 -0.962 0.08970748
v -1 -0.962 -0.08970748
v -1 0.962 -0.08970748
v -1 0.962 0.08970748
v -0.962 1 0.08970748
v -0.962 1 -0.08970748
v 0.962 1 -0.08970748
v 0.962 1 0.08970748
v 1 0.962 0.08970748
v 1 0.962 -0.08970748
v 1 -0.962 -0.08970748
v 1 -0.962 0.08970748
v 0.962 -1 0.08970748
v 0.962 -1 -0.08970748
v -0.962 -1 -0.08970748
v -0.962 -1 0.08970748
v -1 -0.962 0.08970748
v -1 -0.962 -0.08970748
v -0.8 -0.8 -0.1277075
v 0.8 -0.8 -0.1277075
v 0.8 0.8 -0.1277075
v -0.8 0.8 -0.1277075
v 0.8 -0.8 0.1277075
v -0.8 -0.8 0.1277075
v -0.8 0.8 0.1277075
v 0.8 0.8 0.1277075
v 0.962 0.962 0.1277075
v 0.8 0.8 0.1277075
v -0.8 0.8 0.1277075
v -0.962 0.962 0.1277075
v 0.962 1 0.08970748
v -0.962 1 0.08970748
v -1 0.962 0.08970748
v -0.8 -0.8 0.1277075
v -0.962 -0.962 0.1277075
v -1 0.962 0.08970748
v -1 -0.962 0.08970748
v 0.8 -0.8 0.1277075
v 0.962 -0.962 0.1277075
v -0.962 -1 0.08970748
v 0.962 -1 0.08970748
v 1 -0.962 0.08970748
v 0.962 -0.962 0.1277075
v 0.8 -0.8 0.1277075
v 0.8 0.8 0.1277075
v 0.962 0.962 0.1277075
v 1 -0.962 0.08970748
v 1 0.962 0.08970748
v 0.962 1 0.08970748
v -0.962 0.962 -0.1277075
v -1 0.962 -0.08970748
v -1 -0.962 -0.08970748
v -0.962 -0.962 -0.1277075
v -0.8 0.8 -0.1277075
v -0.8 -0.8 -0.1277075
vt 0.9952005 0.6564448
vt 0.9952004 0.6672506
vt 0.9999499 0.6564448
vt 0.7452254 0.6054263
vt 0.749975 0.6054263
vt 0.7452254 0.5946206
vt 0.2452755 0.6054263
vt 0.250025 0.6054263
vt 0.2452755 0.5946206
vt 0.4952505 0.6054263
vt 0.5 0.6054263
vt 0.4952505 0.5946206
vt 0.7290148 0.9896487
vt 0.6962275 0.9732551
vt 0.5554272 0.9732551
vt 0.5226399 0.9896487
vt 0.7324923 0.9934941
vt 0.5191624 0.9934941
vt 0.5554272 0.9028549
vt 0.5226399 0.8864613
vt 0.5149491 0.9913874
vt 0.5149491 0.8847225
vt 0.6962275 0.9028549
vt 0.7290148 0.8864613
vt 0.5191624 0.8826159
vt 0.7324923 0.8826159
vt 0.7328603 0.8845386
vt 0.9952005 0.6564448
vt 0.9952004 0.6054263
vt 0.7547245 0.6054263
vt 0.7547244 0.6564448
vt 0.7452254 0.6564448
vt 0.7452254 0.6054263
vt 0.5047495 0.6054263
vt 0.5047495 0.6564448
vt 0.4952505 0.6564448
vt 0.4952505 0.6054263
vt 0.2547745 0.6054263
vt 0.2547745 0.6564448
vt 0.2452755 0.6564448
vt 0.2452755 0.6054263
vt 0.004799532 0.6054263
vt 0.004799532 0.6564448
vt 5.00083E-05 0.6564448
vt 5.00083E-05 0.6054263
vt 0.8608708 0.06787093
vt 0.197532 0.06787093
vt 0.197532 0.3995407
vt 0.8608708 0.3995407
vt 0.8608708 0.06692015
vt 0.197532 0.06692015
vt 0.197532 0.3985897
vt 0.8608708 0.3985897
vt 0.7290148 0.9893943
vt 0.6962275 0.9730008
vt 0.5554273 0.9730008
vt 0.5226399 0.9893943
vt 0.7324923 0.9932398
vt 0.5191624 0.9932398
vt 0.5187945 0.9913171
vt 0.5554273 0.9026006
vt 0.5226399 0.8862069
vt 0.5149491 0.9911331
vt 0.5149491 0.8844681
vt 0.6962275 0.9026006
vt 0.7290148 0.8862069
vt 0.5191624 0.8823615
vt 0.7324923 0.8823615
vt 0.7328603 0.8842841
vt 0.7290148 0.8862069
vt 0.6962275 0.9026006
vt 0.6962275 0.9730008
vt 0.7290148 0.9893943
vt 0.7367057 0.8844681
vt 0.7367057 0.9911331
vt 0.7328603 0.9913171
vt 0.7290148 0.9896487
vt 0.7367057 0.9913874
vt 0.7367057 0.8847225
vt 0.7290148 0.8864613
vt 0.6962275 0.9732551
vt 0.6962275 0.9028549
vn -0.8755785 -0.3415863 0.3415862
vn -0.3415857 -0.341586 0.8755787
vn -0.3415855 -0.8755788 0.3415861
vn -0.3415855 0.8755788 -0.3415861
vn -0.8755785 0.3415863 -0.3415862
vn -0.3415857 0.341586 -0.8755787
vn 0.3415855 -0.8755788 -0.3415861
vn 0.8755785 -0.3415863 -0.3415862
vn 0.3415857 -0.341586 -0.8755787
vn 0.8755785 0.3415863 -0.3415862
vn 0.3415855 0.8755788 -0.3415861
vn 0.3415857 0.341586 -0.8755787
vn -0.3415857 0.341586 -0.8755787
vn 0 0 -1
vn 0 0 -1
vn 0.3415857 0.341586 -0.8755787
vn -0.3415855 0.8755788 -0.3415861
vn 0.3415855 0.8755788 -0.3415861
vn 0 0 -1
vn 0.3415857 -0.341586 -0.8755787
vn 0.8755785 0.3415863 -0.3415862
vn 0.8755785 -0.3415863 -0.3415862
vn 0 0 -1
vn -0.3415857 -0.341586 -0.8755787
vn 0.3415855 -0.8755788 -0.3415861
vn -0.3415855 -0.8755788 -0.3415861
vn -0.8755785 -0.3415863 -0.3415862
vn -0.8755785 -0.3415863 0.3415862
vn -0.8755785 -0.3415863 -0.3415862
vn -0.8755785 0.3415863 -0.3415862
vn -0.8755785 0.3415863 0.3415862
vn -0.3415855 0.8755788 0.3415861
vn -0.3415855 0.8755788 -0.3415861
vn 0.3415855 0.8755788 -0.3415861
vn 0.3415855 0.8755788 0.3415861
vn 0.8755785 0.3415863 0.3415862
vn 0.8755785 0.3415863 -0.3415862
vn 0.8755785 -0.3415863 -0.3415862
vn 0.8755785 -0.3415863 0.3415862
vn 0.3415855 -0.8755788 0.3415861
vn 0.3415855 -0.8755788 -0.3415861
vn -0.3415855 -0.8755788 -0.3415861
vn -0.3415855 -0.8755788 0.3415861
vn -0.8755785 -0.3415863 0.3415862
vn -0.8755785 -0.3415863 -0.3415862
vn 0 0 -1
vn 0 0 -1
vn 0 0 -1
vn 0 0 -1
vn 0 0 1
vn 0 0 1
vn 0 0 1
vn 0 0 1
vn 0.3415857 0.341586 0.8755787
vn 0 0 1
vn 0 0 1
vn -0.3415857 0.341586 0.8755787
vn 0.3415855 0.8755788 0.3415861
vn -0.3415855 0.8755788 0.3415861
vn -0.8755785 0.3415863 0.3415862
vn 0 0 1
vn -0.3415857 -0.341586 0.8755787
vn -0.8755785 0.3415863 0.3415862
vn -0.8755785 -0.3415863 0.3415862
vn 0 0 1
vn 0.3415857 -0.341586 0.8755787
vn -0.3415855 -0.8755788 0.3415861
vn 0.3415855 -0.8755788 0.3415861
vn 0.8755785 -0.3415863 0.3415862
vn 0.3415857 -0.341586 0.8755787
vn 0 0 1
vn 0 0 1
vn 0.3415857 0.341586 0.8755787
vn 0.8755785 -0.3415863 0.3415862
vn 0.8755785 0.3415863 0.3415862
vn 0.3415855 0.8755788 0.3415861
vn -0.3415857 0.341586 -0.8755787
vn -0.8755785 0.3415863 -0.3415862
vn -0.8755785 -0.3415863 -0.3415862
vn -0.3415857 -0.341586 -0.8755787
vn 0 0 -1
vn 0 0 -1
g BbRuinTile1_LOD0_0
f 3/3/3 2/2/2 1/1/1
f 6/6/6 5/5/5 4/4/4
f 9/9/9 8/8/8 7/7/7
f 12/12/12 11/11/11 10/10/10
f 15/15/15 14/14/14 13/13/13
f 16/16/16 15/15/15 13/13/13
f 13/13/13 17/17/17 16/16/16
f 17/17/17 18/18/18 16/16/16
f 19/19/19 15/15/15 16/16/16
f 20/20/20 19/19/19 16/16/16
f 16/16/16 21/21/21 20/20/20
f 21/21/21 22/22/22 20/20/20
f 23/23/23 19/19/19 20/20/20
f 24/24/24 23/23/23 20/20/20
f 20/20/20 25/25/25 24/24/24
f 25/25/25 26/26/26 24/24/24
f 26/26/26 27/27/27 24/24/24
f 30/30/30 29/29/29 28/28/28
f 31/31/31 30/30/30 28/28/28
f 30/30/30 31/31/31 32/32/32
f 33/33/33 30/30/30 32/32/32
f 34/34/34 33/33/33 32/32/32
f 35/35/35 34/34/34 32/32/32
f 34/34/34 35/35/35 36/36/36
f 37/37/37 34/34/34 36/36/36
f 38/38/38 37/37/37 36/36/36
f 39/39/39 38/38/38 36/36/36
f 38/38/38 39/39/39 40/40/40
f 41/41/41 38/38/38 40/40/40
f 42/42/42 41/41/41 40/40/40
f 43/43/43 42/42/42 40/40/40
f 43/43/43 44/44/44 42/42/42
f 44/44/44 45/45/45 42/42/42
f 48/48/48 47/47/47 46/46/46
f 49/49/49 48/48/48 46/46/46
f 52/52/52 51/51/51 50/50/50
f 53/53/53 52/52/52 50/50/50
f 56/56/56 55/55/55 54/54/54
f 57/57/57 56/56/56 54/54/54
f 54/54/54 58/58/58 57/57/57
f 58/58/58 59/59/59 57/57/57
f 59/59/59 60/60/60 57/57/57
f 61/61/61 56/56/56 57/57/57
f 62/62/62 61/61/61 57/57/57
f 57/57/57 63/63/63 62/62/62
f 63/63/63 64/64/64 62/62/62
f 65/65/65 61/61/61 62/62/62
f 66/66/66 65/65/65 62/62/62
f 62/62/62 67/67/67 66/66/66
f 67/67/67 68/68/68 66/66/66
f 68/68/68 69/69/69 66/66/66
f 72/72/72 71/71/71 70/70/70
f 73/73/73 72/72/72 70/70/70
f 70/70/70 74/74/74 73/73/73
f 74/74/74 75/75/75 73/73/73
f 75/75/75 76/76/76 73/73/73
f 79/79/79 78/78/78 77/77/77
f 80/80/80 79/79/79 77/77/77
f 77/77/77 81/81/81 80/80/80
f 81/81/81 82/82/82 80/80/80
