g ClayBossShattered_cell
v 0.3861955 -0.0005850196 0.07386574
v 0.3937083 -0.02102914 -0.07474518
v 0.3917328 -0.002481908 0.07359633
v 0.3917328 -0.002481908 0.07359633
v 0.3937083 -0.02102914 -0.07474518
v 0.4235983 -0.04573011 -0.07004854
v 0.4680101 -0.07043816 0.06313109
v 0.4635059 -0.06634203 0.06452921
v -0.2998358 0.2149839 0.07447651
v -0.3635875 0.1512321 0.06452921
v -0.4548834 0.2624766 0.06452921
v -0.1509011 0.1689959 0.08101025
v -0.2338909 0.04479277 0.06452921
v -0.01876149 0.1278392 0.08389199
v -0.08592117 -0.03429872 0.06452921
v 0.1086124 0.08781087 0.08374456
v 0.07463539 -0.08300304 0.06452921
v 0.2416086 0.04564413 0.08053747
v 0.2416086 -0.09944844 0.06452921
v 0.3861955 -0.0005850196 0.07386574
v 0.3917328 -0.002481908 0.07359633
v 0.4085819 -0.08300304 0.06452921
v 0.4635059 -0.06634203 0.06452921
v 0.4680101 -0.07043816 0.06313109
v 0.4235983 -0.04573011 -0.07004854
v 0.5249778 -0.1335455 -0.05330369
v 0.5473974 -0.1433525 0.03830513
v 0.5910596 -0.2278656 -0.03715238
v 0.4461411 -0.2718261 0.01328424
v 0.5983052 -0.2256676 0.01328424
v 0.4461411 -0.2718261 -0.03715238
v 0.5249778 -0.1335455 -0.05330369
v 0.4235983 -0.04573011 -0.07004854
v 0.3937083 -0.02102914 -0.07474518
v 0.2416086 -0.2919708 0.01328424
v 0.2416086 0.02564618 -0.08380052
v 0.2416086 -0.2919708 -0.03715238
v 0.03707615 -0.2718261 -0.03715238
v 0.03707615 -0.2718261 0.01328424
v -0.1595963 -0.2121662 -0.03715238
v 0.20086 0.03829166 -0.08506832
v -0.1595963 -0.2121662 0.01328424
v 0.1007242 0.04815423 -0.08506832
v 0.1047543 0.06841475 -0.08560595
v -0.0263229 0.1095842 -0.08564118
v -0.03474608 0.08924878 -0.08506832
v -0.139336 0.1451533 -0.08506814
v -0.1620192 0.1523564 -0.08442757
v -0.3408505 -0.1152837 -0.03715238
v -0.3408505 -0.1152837 0.01328424
v -0.3137495 0.20107 -0.07577935
v -0.4997213 0.01509821 -0.03715238
v -0.4997213 0.01509821 0.01328424
v -0.4994248 0.2612854 -0.06023505
v -0.6301031 0.173969 -0.03715238
v -0.6301031 0.173969 0.01328424
v -0.7143643 0.3316106 -0.03715238
v -0.7183068 0.3389865 0.01328424
v -0.4845447 0.2712281 0.0598816
v -0.6301031 0.173969 0.01328424
v -0.7183068 0.3389865 0.01328424
v -0.4997213 0.01509821 0.01328424
v -0.4548834 0.2624766 0.06452921
v -0.3635875 0.1512321 0.06452921
v -0.2338909 0.04479277 0.06452921
v -0.3408505 -0.1152837 0.01328424
v -0.08592117 -0.03429872 0.06452921
v -0.1595963 -0.2121662 0.01328424
v 0.07463539 -0.08300304 0.06452921
v 0.03707615 -0.2718261 0.01328424
v 0.2416086 -0.09944844 0.06452921
v 0.2416086 -0.2919708 0.01328424
v 0.4461411 -0.2718261 0.01328424
v 0.4085819 -0.08300304 0.06452921
v 0.4635059 -0.06634203 0.06452921
v 0.4680101 -0.07043816 0.06313109
v 0.5473974 -0.1433525 0.03830513
v 0.5983052 -0.2256676 0.01328424
v 0.5473974 -0.1433525 0.03830513
v 0.5249778 -0.1335455 -0.05330369
v 0.5910596 -0.2278656 -0.03715238
v 0.5983052 -0.2256676 0.01328424
v -0.139336 0.1451533 -0.08506814
v -0.0263229 0.1095842 -0.08564118
v 0.1047543 0.06841475 -0.08560595
v 0.20086 0.03829166 -0.08506832
v 0.2416086 0.02564618 -0.08380052
v -0.1620192 0.1523564 -0.08442757
v -0.3137495 0.20107 -0.07577935
v 0.3937083 -0.02102914 -0.07474518
v -0.4994248 0.2612854 -0.06023505
v 0.3861955 -0.0005850196 0.07386574
v -0.7143643 0.3316106 -0.03715238
v -0.7183068 0.3389865 0.01328424
v -0.4845447 0.2712281 0.0598816
v -0.4548834 0.2624766 0.06452921
v -0.2998358 0.2149839 0.07447651
v 0.2416086 0.04564413 0.08053747
v -0.1509011 0.1689959 0.08101025
v 0.1086124 0.08781087 0.08374456
v -0.01876149 0.1278392 0.08389199
vt 1 0.1164458
vt 1 0.03862308
vt 0.8801016 0
vt 0.8816764 0.8792869
vt 0.9601214 0.9601214
vt 1 0.9332153
vt 1 0.8198414
vt 0.9925289 0.8229613
vt 0.6347386 0.6504687
vt 0.6294833 0.6568892
vt 0.6404548 0.6642011
vt 0.6292164 0.6372947
vt 0.618599 0.6460299
vt 0.6242814 0.6256214
vt 0.610042 0.6332524
vt 0.6194838 0.6143785
vt 0.6041445 0.619046
vt 0.6144326 0.6026412
vt 0.6011429 0.6039571
vt 0.6088807 0.589876
vt 0.6086565 0.5893881
vt 0.601127 0.5885727
vt 0.6021519 0.5834116
vt 0.8198414 0.8198414
vt 0.9332153 0.9332153
vt 0.9185874 0
vt 0.8406339 0
vt 0.7915283 0.4041425
vt 0.7846688 0.3911055
vt 0.7870618 0.4057986
vt 0.7893177 0.3908056
vt 0.8006342 0.3992908
vt 0.809538 0.3912202
vt 0.8118892 0.3890615
vt 0.7852017 0.3721435
vt 0.8177617 0.3758336
vt 0.7897108 0.3726545
vt 0.7933899 0.354876
vt 0.7889258 0.3535434
vt 0.8003644 0.3379068
vt 0.8192754 0.3723394
vt 0.7961905 0.3357261
vt 0.8211221 0.3635403
vt 0.8228996 0.3640994
vt 0.8277997 0.3527773
vt 0.8260523 0.3518272
vt 0.8320126 0.342954
vt 0.8328648 0.3409848
vt 0.8105453 0.3225002
vt 0.8068508 0.3195318
vt 0.838614 0.3277491
vt 0.8235964 0.309306
vt 0.8205384 0.3056572
vt 0.8457137 0.311478
vt 0.8390337 0.298873
vt 0.8367387 0.2946814
vt 0.8540232 0.2925754
vt 0.8532117 0.2877416
vt 0.6414949 0.6668802
vt 0.6336764 0.6815815
vt 0.649632 0.6881622
vt 0.6178941 0.6710718
vt 0.6404548 0.6642011
vt 0.6294833 0.6568892
vt 0.618599 0.6460299
vt 0.6044614 0.6576822
vt 0.610042 0.6332524
vt 0.5938955 0.6419241
vt 0.6041445 0.619046
vt 0.5866039 0.6243978
vt 0.6011429 0.6039571
vt 0.5828745 0.6057663
vt 0.5828772 0.5867655
vt 0.601127 0.5885727
vt 0.6021519 0.5834116
vt 0.6017195 0.5830336
vt 0.5940339 0.5763636
vt 0.5857492 0.572362
vt 0.8406339 0.8406339
vt 0.9185874 0.9185874
vt 0.9048961 0.8287454
vt 0.8619733 0.7920709
vt 0.9667358 0.2578399
vt 0.9670458 0.2032416
vt 0.9670389 0.1398991
vt 0.9667658 0.09344395
vt 0.9661054 0.07372171
vt 0.9663985 0.2687857
vt 0.9618564 0.3418963
vt 0.9613769 0
vt 0.9537001 0.4312422
vt 0.8835541 0
vt 0.9415937 0.5345454
vt 0.9151815 0.5352185
vt 0.8908008 0.4211171
vt 0.8883695 0.4066701
vt 0.8831741 0.3315021
vt 0.8800476 0.069707
vt 0.8797656 0.2593713
vt 0.8783565 0.1338977
vt 0.8782682 0.195446
vn 0.3170348 0.9415972 -0.1135067
vn 0.3170348 0.9415972 -0.1135067
vn 0.3170348 0.9415972 -0.1135067
vn 0.6528184 0.7530724 -0.08191483
vn 0.6528184 0.7530724 -0.08191483
vn 0.6528184 0.7530724 -0.08191483
vn 0.6528184 0.7530724 -0.08191483
vn 0.6528184 0.7530724 -0.08191483
vn -0.07513713 -0.07992857 0.9939647
vn -0.07751822 -0.07751822 0.9939727
vn -0.08517847 -0.06988847 0.9939116
vn -0.0592371 -0.09228902 0.9939686
vn -0.06091581 -0.09116007 0.9939714
vn -0.04138366 -0.1015365 0.9939708
vn -0.04196354 -0.1012924 0.9939713
vn -0.0221262 -0.107396 0.99397
vn -0.02139374 -0.1075486 0.9939697
vn -0.002105799 -0.1096541 0.9939675
vn 0 -0.1096544 0.9939698
vn 0.0107732 -0.1096547 0.9939114
vn 0.01565652 -0.108619 0.9939601
vn 0.02142453 -0.1074278 0.993982
vn 0.03192264 -0.1052287 0.9939355
vn 0.6602157 0.7466251 -0.08164677
vn 0.6602157 0.7466251 -0.08164677
vn 0.6602157 0.7466251 -0.08164677
vn 0.6602157 0.7466251 -0.08164677
vn 0.2427796 -0.8010963 -0.5470857
vn 0.1950772 -0.9807879 0
vn 0.290264 -0.9569466 0
vn 0.1507678 -0.7583255 -0.6342015
vn 0.04199383 -0.1397455 -0.9892966
vn 0.04199383 -0.1397455 -0.9892966
vn 0.02102749 -0.1439575 -0.9893605
vn 0 -1 0
vn -0.002746678 -0.1452993 -0.9893839
vn 0 -0.7731763 -0.6341913
vn -0.1508275 -0.7583185 -0.6341956
vn -0.1950772 -0.9807879 0
vn -0.2958816 -0.7143276 -0.6341847
vn -0.01351992 -0.1375491 -0.9904026
vn -0.3826815 -0.9238803 0
vn -0.01745682 -0.08780293 -0.9959849
vn -0.00521881 -0.02548366 -0.9996616
vn -0.009796719 -0.02407978 -0.999662
vn -0.03424224 -0.08270632 -0.9959854
vn -0.06549312 -0.1225326 -0.9903011
vn -0.07858568 -0.1222274 -0.9893861
vn -0.4295621 -0.6428629 -0.6341954
vn -0.5555732 -0.8314676 0
vn -0.09964614 -0.1058111 -0.989381
vn -0.54672 -0.54672 -0.6341879
vn -0.7071068 -0.7071068 0
vn -0.117407 -0.08581976 -0.9893687
vn -0.6428629 -0.4295621 -0.6341954
vn -0.8314676 -0.5555732 0
vn -0.8154705 -0.4358739 -0.3808174
vn -0.8819184 -0.4714023 0
vn -0.2074367 -0.1525027 0.9662882
vn -0.213848 -0.1428909 0.9663598
vn -0.2278545 -0.1218011 0.966047
vn -0.1818638 -0.1818638 0.9663597
vn -0.1997158 -0.1639171 0.966046
vn -0.1818638 -0.1818638 0.9663597
vn -0.1428909 -0.213848 0.9663598
vn -0.1428909 -0.213848 0.9663598
vn -0.09842426 -0.2376221 0.9663584
vn -0.09842426 -0.2376221 0.9663584
vn -0.05017332 -0.2522705 0.9663551
vn -0.05017332 -0.2522705 0.9663551
vn 0 -0.2572143 0.9663544
vn 0 -0.2572143 0.9663544
vn 0.05017332 -0.2522705 0.9663551
vn 0.05017332 -0.2522705 0.9663551
vn 0.07498528 -0.2472347 0.9660497
vn 0.07498528 -0.2472347 0.9660497
vn 0.07498528 -0.2472347 0.9660497
vn 0.07498528 -0.2472347 0.9660497
vn 0.8219556 0.5515363 -0.1421151
vn 0.8219556 0.5515363 -0.1421151
vn 0.8219556 0.5515363 -0.1421151
vn 0.8219556 0.5515363 -0.1421151
vn 0.2976813 0.9476745 -0.1153209
vn 0.2976813 0.9476745 -0.1153209
vn 0.2976813 0.9476745 -0.1153209
vn 0.2976813 0.9476745 -0.1153209
vn 0.2976813 0.9476745 -0.1153209
vn 0.2976813 0.9476745 -0.1153209
vn 0.2976813 0.9476745 -0.1153209
vn 0.2976813 0.9476745 -0.1153209
vn 0.2976813 0.9476745 -0.1153209
vn 0.2976813 0.9476745 -0.1153209
vn 0.2976813 0.9476745 -0.1153209
vn 0.2976813 0.9476745 -0.1153209
vn 0.2976813 0.9476745 -0.1153209
vn 0.2976813 0.9476745 -0.1153209
vn 0.2976813 0.9476745 -0.1153209
vn 0.2976813 0.9476745 -0.1153209
vn 0.2976813 0.9476745 -0.1153209
vn 0.2976813 0.9476745 -0.1153209
vn 0.2976813 0.9476745 -0.1153209
g ClayBossShattered_cell_0
f 3/3/3 2/2/2 1/1/1
f 6/6/6 5/5/5 4/4/4
f 4/4/4 7/7/7 6/6/6
f 4/4/4 8/8/8 7/7/7
f 11/11/11 10/10/10 9/9/9
f 12/12/12 9/9/9 10/10/10
f 13/13/13 12/12/12 10/10/10
f 14/14/14 12/12/12 13/13/13
f 15/15/15 14/14/14 13/13/13
f 16/16/16 14/14/14 15/15/15
f 17/17/17 16/16/16 15/15/15
f 18/18/18 16/16/16 17/17/17
f 19/19/19 18/18/18 17/17/17
f 20/20/20 18/18/18 19/19/19
f 21/21/21 20/20/20 19/19/19
f 19/19/19 22/22/22 21/21/21
f 21/21/21 22/22/22 23/23/23
f 26/26/26 25/25/25 24/24/24
f 27/27/27 26/26/26 24/24/24
f 30/30/30 29/29/29 28/28/28
f 29/29/29 31/31/31 28/28/28
f 32/32/32 28/28/28 31/31/31
f 31/31/31 33/33/33 32/32/32
f 31/31/31 34/34/34 33/33/33
f 29/29/29 35/35/35 31/31/31
f 34/34/34 31/31/31 36/36/36
f 35/35/35 37/37/37 31/31/31
f 31/31/31 37/37/37 36/36/36
f 37/37/37 35/35/35 38/38/38
f 36/36/36 37/37/37 38/38/38
f 35/35/35 39/39/39 38/38/38
f 38/38/38 39/39/39 40/40/40
f 38/38/38 41/41/41 36/36/36
f 39/39/39 42/42/42 40/40/40
f 38/38/38 43/43/43 41/41/41
f 38/38/38 40/40/40 43/43/43
f 41/41/41 43/43/43 44/44/44
f 44/44/44 43/43/43 45/45/45
f 43/43/43 46/46/46 45/45/45
f 40/40/40 46/46/46 43/43/43
f 45/45/45 46/46/46 47/47/47
f 47/47/47 46/46/46 40/40/40
f 40/40/40 48/48/48 47/47/47
f 40/40/40 42/42/42 49/49/49
f 40/40/40 49/49/49 48/48/48
f 42/42/42 50/50/50 49/49/49
f 48/48/48 49/49/49 51/51/51
f 49/49/49 50/50/50 52/52/52
f 49/49/49 52/52/52 51/51/51
f 50/50/50 53/53/53 52/52/52
f 51/51/51 52/52/52 54/54/54
f 52/52/52 53/53/53 55/55/55
f 52/52/52 55/55/55 54/54/54
f 53/53/53 56/56/56 55/55/55
f 54/54/54 55/55/55 57/57/57
f 55/55/55 56/56/56 58/58/58
f 57/57/57 55/55/55 58/58/58
f 61/61/61 60/60/60 59/59/59
f 59/59/59 60/60/60 62/62/62
f 63/63/63 59/59/59 62/62/62
f 62/62/62 64/64/64 63/63/63
f 65/65/65 64/64/64 62/62/62
f 66/66/66 65/65/65 62/62/62
f 67/67/67 65/65/65 66/66/66
f 68/68/68 67/67/67 66/66/66
f 69/69/69 67/67/67 68/68/68
f 70/70/70 69/69/69 68/68/68
f 71/71/71 69/69/69 70/70/70
f 72/72/72 71/71/71 70/70/70
f 71/71/71 72/72/72 73/73/73
f 74/74/74 71/71/71 73/73/73
f 75/75/75 74/74/74 73/73/73
f 76/76/76 75/75/75 73/73/73
f 77/77/77 76/76/76 73/73/73
f 73/73/73 78/78/78 77/77/77
f 81/81/81 80/80/80 79/79/79
f 82/82/82 81/81/81 79/79/79
f 85/85/85 84/84/84 83/83/83
f 83/83/83 86/86/86 85/85/85
f 83/83/83 87/87/87 86/86/86
f 83/83/83 88/88/88 87/87/87
f 88/88/88 89/89/89 87/87/87
f 89/89/89 90/90/90 87/87/87
f 89/89/89 91/91/91 90/90/90
f 91/91/91 92/92/92 90/90/90
f 91/91/91 93/93/93 92/92/92
f 93/93/93 94/94/94 92/92/92
f 94/94/94 95/95/95 92/92/92
f 95/95/95 96/96/96 92/92/92
f 96/96/96 97/97/97 92/92/92
f 97/97/97 98/98/98 92/92/92
f 97/97/97 99/99/99 98/98/98
f 99/99/99 100/100/100 98/98/98
f 99/99/99 101/101/101 100/100/100
