g ClayBossShattered_cell.001
v -0.3121403 -0.6451086 0.0630387
v -0.340946 -0.7307959 0.04334372
v -0.363396 -0.7209482 -0.04854089
v -0.2476032 -0.8009152 0.01814966
v -0.2896768 -0.8136781 0.01814966
v -0.340946 -0.7307959 0.04334372
v -0.3121403 -0.6451086 0.0630387
v -0.3014798 -0.6124652 0.06939463
v -0.1733086 -0.5439562 0.06939463
v -0.06634896 -0.7040327 0.01814954
v 0.0925218 -0.5736508 0.01814954
v -0.04361199 -0.4375169 0.06939451
v 0.2229036 -0.41478 0.01814954
v 0.06282718 -0.3078203 0.06939451
v 0.319786 -0.2335257 0.01814954
v 0.1419187 -0.1598506 0.06939451
v 0.3794459 -0.03685334 0.01814954
v 0.1906229 0.0007059723 0.06939451
v 0.3995904 0.1676791 0.01814954
v 0.2070683 0.1676792 0.06939451
v 0.3794457 0.3722115 0.01814954
v 0.1906228 0.3346524 0.06939451
v 0.3197858 0.5688839 0.01814978
v 0.1419184 0.4952089 0.06939463
v 0.2229033 0.7501382 0.01814978
v 0.06282689 0.6431786 0.06939463
v 0.09839366 0.9018536 0.01814978
v 0.0469902 0.6624757 0.06939463
v -0.09323607 0.05716918 0.1013266
v -0.08395387 0.1514136 0.1013266
v -0.07959153 0.1676793 0.1010221
v 0.1906229 0.0007059723 0.06939451
v -0.1254707 -0.04909413 0.1013266
v 0.2070683 0.1676792 0.06939451
v 0.1906228 0.3346524 0.06939451
v -0.04824276 0.2871392 0.0962652
v 0.1419184 0.4952089 0.06939463
v -0.01104526 0.4318494 0.08766184
v 0.06282689 0.6431786 0.06939463
v 0.03809778 0.6266552 0.07267606
v 0.0469902 0.6624757 0.06939463
v 0.1419187 -0.1598506 0.06939451
v 0.06282718 -0.3078203 0.06939451
v -0.1677308 -0.1537662 0.09998839
v -0.1526578 -0.0999577 0.1013267
v -0.2032185 -0.2779102 0.09429836
v -0.04361199 -0.4375169 0.06939451
v -0.2480934 -0.4320328 0.08424623
v -0.1733086 -0.5439562 0.06939463
v -0.3014798 -0.6124652 0.06939463
v -0.363396 -0.7209482 -0.04854089
v -0.3332718 -0.594093 -0.06516548
v -0.3121403 -0.6451086 0.0630387
v -0.3014798 -0.6124652 0.06939463
v -0.3332718 -0.594093 -0.06516548
v -0.2480934 -0.4320328 0.08424623
v -0.3014798 -0.6124652 0.06939463
v -0.3011101 -0.4613664 -0.08020274
v -0.2803271 -0.3837916 -0.0817357
v -0.2032185 -0.2779102 0.09429836
v -0.2415367 -0.2395923 -0.08400741
v -0.1677308 -0.1537662 0.09998839
v -0.2105988 -0.125123 -0.08528115
v -0.1526578 -0.0999577 0.1013267
v -0.183424 -0.02508934 -0.08588763
v -0.08395387 0.1514136 0.1013266
v -0.157469 0.06994563 -0.08595954
v -0.1306343 0.1676791 -0.08551164
v -0.07959153 0.1676793 0.1010221
v -0.100536 0.2767372 -0.08444871
v -0.04824276 0.2871392 0.0962652
v -0.06355573 0.4100986 -0.08251077
v -0.01104526 0.4318494 0.08766184
v -0.0292822 0.5331864 -0.08020277
v 0.03809778 0.6266552 0.07267606
v -0.01086499 0.5939392 -0.07357921
v 0.08360374 0.9000912 -0.03413908
v 0.0469902 0.6624757 0.06939463
v 0.09839366 0.9018536 0.01814978
v 0.08764235 0.913013 -0.03228685
v 0.09252144 0.9090089 -0.0104569
v -0.2969021 -0.8158699 -0.03228696
v -0.3332718 -0.594093 -0.06516548
v -0.363396 -0.7209482 -0.04854089
v -0.2476032 -0.8009152 -0.03228696
v -0.2896768 -0.8136781 0.01814966
v -0.2476032 -0.8009152 0.01814966
v -0.2476033 -0.4327664 -0.08020265
v -0.3011101 -0.4613664 -0.08020274
v -0.2803271 -0.3837916 -0.0817357
v -0.06634896 -0.7040327 -0.03228708
v -0.06634896 -0.7040327 0.01814954
v 0.0925218 -0.5736508 -0.03228708
v 0.0925218 -0.5736508 0.01814954
v -0.1381712 -0.3429578 -0.08020277
v -0.2415367 -0.2395923 -0.08400741
v 0.2229036 -0.41478 -0.03228708
v 0.2229036 -0.41478 0.01814954
v -0.04836266 -0.2335257 -0.08020277
v -0.2105988 -0.125123 -0.08528115
v 0.319786 -0.2335257 -0.03228708
v 0.319786 -0.2335257 0.01814954
v 0.01837106 -0.1086755 -0.08020277
v -0.183424 -0.02508934 -0.08588763
v 0.3794459 -0.03685334 -0.03228708
v 0.3794459 -0.03685334 0.01814954
v 0.05946548 0.02679476 -0.08020277
v -0.157469 0.06994563 -0.08595954
v 0.3995904 0.1676791 -0.03228708
v 0.3995904 0.1676791 0.01814954
v 0.07334132 0.1676791 -0.08020277
v -0.1306343 0.1676791 -0.08551164
v 0.3794457 0.3722115 -0.03228708
v 0.3794457 0.3722115 0.01814954
v 0.05946542 0.3085635 -0.08020277
v -0.100536 0.2767372 -0.08444871
v 0.3197858 0.5688839 -0.03228684
v 0.3197858 0.5688839 0.01814978
v 0.01837094 0.4440337 -0.08020277
v -0.06355573 0.4100986 -0.08251077
v -0.0292822 0.5331864 -0.08020277
v -0.01086499 0.5939392 -0.07357921
v 0.2229033 0.7501382 -0.03228684
v 0.2229033 0.7501382 0.01814978
v 0.09252144 0.9090089 -0.03228684
v 0.08360374 0.9000912 -0.03413908
v 0.09839366 0.9018536 0.01814978
v 0.08764235 0.913013 -0.03228685
v 0.09252144 0.9090089 -0.0104569
v -0.08395387 0.1514136 0.1013266
v -0.09323607 0.05716918 0.1013266
v -0.1254707 -0.04909413 0.1013266
v -0.1526578 -0.0999577 0.1013267
v -0.363396 -0.7209482 -0.04854089
v -0.340946 -0.7307959 0.04334372
v -0.2896768 -0.8136781 0.01814966
v -0.2969021 -0.8158699 -0.03228696
vt 0.09688465 0.0606097
vt 0.1588218 0
vt 0.08058414 0
vt 0.5865893 0.568149
vt 0.5857952 0.5721316
vt 0.5941369 0.5761624
vt 0.6019484 0.5728236
vt 0.6049107 0.5715845
vt 0.6100085 0.5592774
vt 0.5938595 0.5506243
vt 0.6044052 0.5348599
vt 0.6185518 0.5464944
vt 0.6178202 0.5214581
vt 0.6294228 0.5356257
vt 0.6335881 0.5109327
vt 0.6422032 0.5270876
vt 0.6511027 0.5036856
vt 0.6564013 0.5212066
vt 0.6696896 0.4999938
vt 0.6714726 0.5182068
vt 0.6886323 0.4999938
vt 0.68684 0.5181993
vt 0.7072309 0.5036786
vt 0.7019095 0.5212123
vt 0.7247543 0.5109427
vt 0.7161083 0.5270865
vt 0.7398033 0.5210093
vt 0.7180092 0.5283566
vt 0.6641247 0.5466871
vt 0.6726122 0.5449961
vt 0.6740522 0.5444516
vt 0.6564013 0.5212066
vt 0.6547496 0.5505739
vt 0.6714726 0.5182068
vt 0.68684 0.5181993
vt 0.6846392 0.5405006
vt 0.7019095 0.5212123
vt 0.6974868 0.5357808
vt 0.7161083 0.5270865
vt 0.7148182 0.5294986
vt 0.7180092 0.5283566
vt 0.6422032 0.5270876
vt 0.6294228 0.5356257
vt 0.6456044 0.5553532
vt 0.6503675 0.5535043
vt 0.634606 0.5596761
vt 0.6185518 0.5464944
vt 0.6209344 0.5651199
vt 0.6100085 0.5592774
vt 0.6049107 0.5715845
vt 0.08058414 0
vt 0.9874566 0.02890859
vt 0.09688465 0.0606097
vt 0.9957428 0.07448597
vt 0.9874566 0.02890859
vt 0.9852623 0.08427158
vt 0.9957428 0.07448597
vt 0.9347461 0.02334756
vt 0.906627 0.0227843
vt 0.9342495 0.08800434
vt 0.854572 0.02195204
vt 0.8922674 0.09012083
vt 0.8134455 0.02148757
vt 0.8736528 0.09061975
vt 0.7776933 0.02126928
vt 0.7843767 0.09063573
vt 0.7439144 0.0212489
vt 0.7093697 0.02142114
vt 0.7784871 0.09052461
vt 0.6710308 0.02182179
vt 0.7342975 0.08876975
vt 0.6243848 0.02254838
vt 0.679715 0.08559212
vt 0.5815247 0.02341136
vt 0.604976 0.08005312
vt 0.5624023 0.02586906
vt 0.4682846 0.04049989
vt 0.5910383 0.0788398
vt 0.4870335 0.05987103
vt 0.4643817 0.04118687
vt 0.4738926 0.04927384
vt 0.7915658 0.4043684
vt 0.8116347 0.4035404
vt 0.8007301 0.3994868
vt 0.7923177 0.4089054
vt 0.7871 0.4060338
vt 0.7877617 0.4100964
vt 0.8250334 0.4130022
vt 0.8230774 0.4078956
vt 0.8297973 0.410603
vt 0.7987927 0.4261996
vt 0.7945274 0.4282658
vt 0.8085598 0.4419797
vt 0.8047625 0.4448517
vt 0.8318363 0.4238509
vt 0.8423059 0.4157006
vt 0.8212706 0.4556031
vt 0.8180958 0.4591746
vt 0.8406411 0.4332038
vt 0.8522642 0.4197875
vt 0.8364481 0.466517
vt 0.8340248 0.4706533
vt 0.8511263 0.4406884
vt 0.8609893 0.4233864
vt 0.8535146 0.4742794
vt 0.8519411 0.4788219
vt 0.8628982 0.446002
vt 0.8692963 0.4268284
vt 0.8718166 0.4785717
vt 0.8711585 0.4833462
vt 0.875512 0.4489261
vt 0.8778557 0.4303923
vt 0.8906528 0.4792112
vt 0.8909398 0.4840344
vt 0.8884851 0.4493335
vt 0.8874274 0.4343972
vt 0.9093004 0.4761558
vt 0.9105258 0.4808432
vt 0.9013189 0.4471958
vt 0.8991638 0.4393281
vt 0.9100305 0.4438991
vt 0.9153884 0.4463012
vt 0.9270438 0.4695053
vt 0.9291652 0.4738766
vt 0.9432012 0.4594935
vt 0.9424825 0.4585716
vt 0.9453789 0.4638541
vt 0.9436295 0.4590937
vt 0.9444748 0.4611762
vt 0.6726122 0.5449961
vt 0.6641247 0.5466871
vt 0.6547496 0.5505739
vt 0.6503675 0.5535043
vt 1 0.9194158
vt 1 0.8411782
vt 0.9296669 0.7922602
vt 0.9234232 0.8289587
vn -0.9326758 0.2549176 0.2552109
vn -0.9326758 0.2549176 0.2552109
vn -0.9326758 0.2549176 0.2552109
vn 0.09842426 -0.2376221 0.9663584
vn 0.07498528 -0.2472347 0.9660497
vn 0.07498528 -0.2472347 0.9660497
vn 0.1114247 -0.2322187 0.9662603
vn 0.1218011 -0.2278545 0.966047
vn 0.1428909 -0.213848 0.9663598
vn 0.1428909 -0.213848 0.9663598
vn 0.1818638 -0.1818638 0.9663597
vn 0.1818638 -0.1818638 0.9663597
vn 0.213848 -0.1428909 0.9663598
vn 0.213848 -0.1428909 0.9663598
vn 0.2376221 -0.09842426 0.9663584
vn 0.2376221 -0.09842426 0.9663584
vn 0.2522705 -0.05017332 0.9663551
vn 0.2522705 -0.05017332 0.9663551
vn 0.2572143 0 0.9663544
vn 0.2572143 0 0.9663544
vn 0.2522705 0.05017332 0.9663551
vn 0.2522705 0.05017332 0.9663551
vn 0.2376221 0.09842426 0.9663584
vn 0.2376221 0.09842426 0.9663584
vn 0.213848 0.1428909 0.9663598
vn 0.213848 0.1428909 0.9663598
vn 0.1997158 0.1639171 0.966046
vn 0.1997158 0.1639171 0.966046
vn 0.1075486 -0.02139374 0.9939697
vn 0.1096547 -0.0107732 0.9939114
vn 0.1096542 -0.001770093 0.9939682
vn 0.1075486 -0.02139374 0.9939697
vn 0.1012924 -0.04196354 0.9939713
vn 0.1096544 0 0.9939698
vn 0.1075486 0.02139374 0.9939697
vn 0.1081584 0.01834176 0.9939645
vn 0.1012924 0.04196354 0.9939713
vn 0.1030004 0.0378431 0.9939612
vn 0.09116007 0.06091581 0.9939714
vn 0.09436583 0.05612509 0.9939542
vn 0.08517847 0.06988847 0.9939116
vn 0.1012924 -0.04196354 0.9939713
vn 0.09116007 -0.06091581 0.9939714
vn 0.09238046 -0.05911495 0.9939674
vn 0.09717239 -0.05194328 0.9939111
vn 0.07998958 -0.07507607 0.9939644
vn 0.07751822 -0.07751822 0.9939727
vn 0.06491491 -0.08850645 0.993958
vn 0.06091581 -0.09116007 0.9939714
vn 0.05194328 -0.09717239 0.9939111
vn -0.9326758 0.2549176 0.2552109
vn -0.9326758 0.2549176 0.2552109
vn -0.9326758 0.2549176 0.2552109
vn -0.9326758 0.2549176 0.2552109
vn -0.9326758 0.2549176 0.2552109
vn -0.9326758 0.2549176 0.2552109
vn -0.9326758 0.2549176 0.2552109
vn -0.9326758 0.2549176 0.2552109
vn -0.9326758 0.2549176 0.2552109
vn -0.9326758 0.2549176 0.2552109
vn -0.9326758 0.2549176 0.2552109
vn -0.9326758 0.2549176 0.2552109
vn -0.9326758 0.2549176 0.2552109
vn -0.9326758 0.2549176 0.2552109
vn -0.9326758 0.2549176 0.2552109
vn -0.9326758 0.2549176 0.2552109
vn -0.9326758 0.2549176 0.2552109
vn -0.9326758 0.2549176 0.2552109
vn -0.9326758 0.2549176 0.2552109
vn -0.9326758 0.2549176 0.2552109
vn -0.9326758 0.2549176 0.2552109
vn -0.9326758 0.2549176 0.2552109
vn -0.9326758 0.2549176 0.2552109
vn -0.9326758 0.2549176 0.2552109
vn -0.9326758 0.2549176 0.2552109
vn -0.9326758 0.2549176 0.2552109
vn -0.9326758 0.2549176 0.2552109
vn -0.9326758 0.2549176 0.2552109
vn -0.9326758 0.2549176 0.2552109
vn -0.9326758 0.2549176 0.2552109
vn -0.9326758 0.2549176 0.2552109
vn 0.1954444 -0.6442892 -0.7393868
vn 0.06357025 -0.1309248 -0.989352
vn 0.04236105 -0.1396877 -0.9892892
vn 0.2958816 -0.7143276 -0.6341847
vn 0.290264 -0.9569466 0
vn 0.3826815 -0.9238803 0
vn 0.04971536 -0.07443571 -0.9959858
vn 0.05401939 -0.1011109 -0.9934075
vn 0.01541227 -0.02096679 -0.9996613
vn 0.4295621 -0.6428629 -0.6341954
vn 0.5555732 -0.8314676 0
vn 0.54672 -0.54672 -0.6341879
vn 0.7071068 -0.7071068 0
vn 0.06329627 -0.06329627 -0.9959856
vn 0.01898304 -0.01779278 -0.9996614
vn 0.6428629 -0.4295621 -0.6341954
vn 0.8314676 -0.5555732 0
vn 0.07443571 -0.04971536 -0.9959858
vn 0.0219129 -0.01400839 -0.9996617
vn 0.7143276 -0.2958816 -0.6341847
vn 0.9238803 -0.3826815 0
vn 0.08270632 -0.03424224 -0.9959854
vn 0.0241103 -0.009735679 -0.9996619
vn 0.7583185 -0.1508275 -0.6341956
vn 0.9807879 -0.1950772 0
vn 0.08780293 -0.01745682 -0.9959849
vn 0.02548367 -0.005188292 -0.9996618
vn 0.7731763 0 -0.6341913
vn 1 0 0
vn 0.08951206 0 -0.9959857
vn 0.0260025 -0.0004272711 -0.9996618
vn 0.7583185 0.1508275 -0.6341956
vn 0.9807879 0.1950772 0
vn 0.08780293 0.01745682 -0.9959849
vn 0.02566677 0.004303228 -0.9996613
vn 0.7143276 0.2958816 -0.6341847
vn 0.9238803 0.3826815 0
vn 0.08270632 0.03424224 -0.9959854
vn 0.02444599 0.008942167 -0.9996611
vn 0.1030023 0.05505666 -0.9931563
vn 0.1253101 0.07394702 -0.989358
vn 0.6428629 0.4295621 -0.6341954
vn 0.8314676 0.5555732 0
vn 0.54672 0.54672 -0.6341879
vn 0.1097772 0.09570789 -0.9893377
vn 0.7730101 0.6343938 0
vn 0.4942314 0.6022092 -0.6269604
vn 0.7616749 0.6479594 0
vn 0 0 1
vn 0 0 1
vn 0 0 1
vn 0 0 1
vn -0.8220077 -0.5515587 0.1417263
vn -0.8220077 -0.5515587 0.1417263
vn -0.8220077 -0.5515587 0.1417263
vn -0.8220077 -0.5515587 0.1417263
g ClayBossShattered_cell.001_0
f 3/3/3 2/2/2 1/1/1
f 6/6/6 5/5/5 4/4/4
f 7/7/7 6/6/6 4/4/4
f 8/8/8 7/7/7 4/4/4
f 9/9/9 8/8/8 4/4/4
f 4/4/4 10/10/10 9/9/9
f 9/9/9 10/10/10 11/11/11
f 12/12/12 9/9/9 11/11/11
f 12/12/12 11/11/11 13/13/13
f 14/14/14 12/12/12 13/13/13
f 14/14/14 13/13/13 15/15/15
f 16/16/16 14/14/14 15/15/15
f 16/16/16 15/15/15 17/17/17
f 18/18/18 16/16/16 17/17/17
f 18/18/18 17/17/17 19/19/19
f 20/20/20 18/18/18 19/19/19
f 20/20/20 19/19/19 21/21/21
f 22/22/22 20/20/20 21/21/21
f 22/22/22 21/21/21 23/23/23
f 24/24/24 22/22/22 23/23/23
f 24/24/24 23/23/23 25/25/25
f 26/26/26 24/24/24 25/25/25
f 26/26/26 25/25/25 27/27/27
f 28/28/28 26/26/26 27/27/27
f 31/31/31 30/30/30 29/29/29
f 31/31/31 29/29/29 32/32/32
f 29/29/29 33/33/33 32/32/32
f 32/32/32 34/34/34 31/31/31
f 31/31/31 34/34/34 35/35/35
f 36/36/36 31/31/31 35/35/35
f 36/36/36 35/35/35 37/37/37
f 38/38/38 36/36/36 37/37/37
f 38/38/38 37/37/37 39/39/39
f 40/40/40 38/38/38 39/39/39
f 40/40/40 39/39/39 41/41/41
f 33/33/33 42/42/42 32/32/32
f 43/43/43 42/42/42 33/33/33
f 33/33/33 44/44/44 43/43/43
f 33/33/33 45/45/45 44/44/44
f 44/44/44 46/46/46 43/43/43
f 46/46/46 47/47/47 43/43/43
f 46/46/46 48/48/48 47/47/47
f 48/48/48 49/49/49 47/47/47
f 48/48/48 50/50/50 49/49/49
f 53/53/53 52/52/52 51/51/51
f 53/53/53 54/54/54 52/52/52
f 57/57/57 56/56/56 55/55/55
f 56/56/56 58/58/58 55/55/55
f 56/56/56 59/59/59 58/58/58
f 56/56/56 60/60/60 59/59/59
f 60/60/60 61/61/61 59/59/59
f 60/60/60 62/62/62 61/61/61
f 62/62/62 63/63/63 61/61/61
f 62/62/62 64/64/64 63/63/63
f 64/64/64 65/65/65 63/63/63
f 64/64/64 66/66/66 65/65/65
f 66/66/66 67/67/67 65/65/65
f 66/66/66 68/68/68 67/67/67
f 66/66/66 69/69/69 68/68/68
f 69/69/69 70/70/70 68/68/68
f 69/69/69 71/71/71 70/70/70
f 71/71/71 72/72/72 70/70/70
f 71/71/71 73/73/73 72/72/72
f 73/73/73 74/74/74 72/72/72
f 73/73/73 75/75/75 74/74/74
f 75/75/75 76/76/76 74/74/74
f 75/75/75 77/77/77 76/76/76
f 75/75/75 78/78/78 77/77/77
f 78/78/78 79/79/79 77/77/77
f 79/79/79 80/80/80 77/77/77
f 79/79/79 81/81/81 80/80/80
f 84/84/84 83/83/83 82/82/82
f 83/83/83 85/85/85 82/82/82
f 86/86/86 82/82/82 85/85/85
f 87/87/87 86/86/86 85/85/85
f 85/85/85 83/83/83 88/88/88
f 83/83/83 89/89/89 88/88/88
f 90/90/90 88/88/88 89/89/89
f 87/87/87 85/85/85 91/91/91
f 88/88/88 91/91/91 85/85/85
f 92/92/92 87/87/87 91/91/91
f 92/92/92 91/91/91 93/93/93
f 93/93/93 91/91/91 88/88/88
f 94/94/94 92/92/92 93/93/93
f 95/95/95 88/88/88 90/90/90
f 95/95/95 93/93/93 88/88/88
f 96/96/96 95/95/95 90/90/90
f 94/94/94 93/93/93 97/97/97
f 97/97/97 93/93/93 95/95/95
f 98/98/98 94/94/94 97/97/97
f 99/99/99 95/95/95 96/96/96
f 99/99/99 97/97/97 95/95/95
f 100/100/100 99/99/99 96/96/96
f 98/98/98 97/97/97 101/101/101
f 101/101/101 97/97/97 99/99/99
f 102/102/102 98/98/98 101/101/101
f 103/103/103 99/99/99 100/100/100
f 103/103/103 101/101/101 99/99/99
f 104/104/104 103/103/103 100/100/100
f 102/102/102 101/101/101 105/105/105
f 105/105/105 101/101/101 103/103/103
f 106/106/106 102/102/102 105/105/105
f 107/107/107 103/103/103 104/104/104
f 107/107/107 105/105/105 103/103/103
f 108/108/108 107/107/107 104/104/104
f 106/106/106 105/105/105 109/109/109
f 109/109/109 105/105/105 107/107/107
f 110/110/110 106/106/106 109/109/109
f 111/111/111 107/107/107 108/108/108
f 111/111/111 109/109/109 107/107/107
f 112/112/112 111/111/111 108/108/108
f 110/110/110 109/109/109 113/113/113
f 113/113/113 109/109/109 111/111/111
f 114/114/114 110/110/110 113/113/113
f 115/115/115 111/111/111 112/112/112
f 115/115/115 113/113/113 111/111/111
f 116/116/116 115/115/115 112/112/112
f 114/114/114 113/113/113 117/117/117
f 117/117/117 113/113/113 115/115/115
f 118/118/118 114/114/114 117/117/117
f 119/119/119 115/115/115 116/116/116
f 119/119/119 117/117/117 115/115/115
f 120/120/120 119/119/119 116/116/116
f 121/121/121 119/119/119 120/120/120
f 119/119/119 121/121/121 122/122/122
f 118/118/118 117/117/117 123/123/123
f 123/123/123 117/117/117 119/119/119
f 119/119/119 122/122/122 123/123/123
f 124/124/124 118/118/118 123/123/123
f 125/125/125 123/123/123 122/122/122
f 124/124/124 123/123/123 125/125/125
f 126/126/126 125/125/125 122/122/122
f 125/125/125 127/127/127 124/124/124
f 128/128/128 125/125/125 126/126/126
f 125/125/125 129/129/129 127/127/127
f 129/129/129 125/125/125 128/128/128
f 132/132/132 131/131/131 130/130/130
f 133/133/133 132/132/132 130/130/130
f 136/136/136 135/135/135 134/134/134
f 137/137/137 136/136/136 134/134/134
