g CustomCollisionTrapezoidOneSide
v 1.015593 2.12616 -0.2558435
v -1.004963 -2.12616 -0.2558435
v 1.015593 -2.126161 -0.2558435
v 1.015593 -1.000001 1
v -1.004963 -0.9999996 1
v 1.015593 0.9999995 1
v -1.004963 2.126161 -0.2558435
v -1.004963 1 1
vn 0.5483373 0.7636192 -0.3408987
vn -0.5483373 -0.7636192 -0.3408987
vn 0.5483373 -0.7636192 -0.3408987
vn 0.6258349 -0.3179532 0.7122054
vn -0.6258349 -0.3179532 0.7122054
vn 0.6258349 0.3179532 0.7122054
vn -0.5483373 0.7636192 -0.3408987
vn -0.6258349 0.3179532 0.7122054
g CustomCollisionTrapezoidOneSide_0
f 3/3/3 2/2/2 1/1/1
f 4/4/4 3/3/3 1/1/1
f 4/4/4 5/5/5 3/3/3
f 5/5/5 2/2/2 3/3/3
f 6/6/6 4/4/4 1/1/1
f 5/5/5 4/4/4 6/6/6
f 2/2/2 7/7/7 1/1/1
f 1/1/1 7/7/7 6/6/6
f 8/8/8 5/5/5 6/6/6
f 5/5/5 8/8/8 2/2/2
f 8/8/8 7/7/7 2/2/2
f 7/7/7 8/8/8 6/6/6
