g NullMesh
v -1.414213 -0.1000001 0
v -1.414213 0.09999987 0
v 0 0.09999995 1.414213
v 0 -0.1000001 1.414213
v 0 0.1000001 -1.414213
v 0 -0.09999995 -1.414213
v 1.414213 -0.09999987 0
v 1.414213 0.1000001 0
v -1.414213 0.09999987 0
v -1.414213 -0.1000001 0
v 0 -0.09999995 -1.414213
v 0 0.1000001 -1.414213
v 1.414213 0.1000001 0
v 1.414213 -0.09999987 0
v 0 -0.1000001 1.414213
v 0 0.09999995 1.414213
v -0.1202238 0.1 -0.9569638
v 0.1202238 0.1000001 -0.9569638
v 0.1202238 -0.09999995 -0.9569638
v -0.1202238 -0.09999996 -0.9569638
v 0.2653479 0.09999999 1.038239
v -0.2653479 0.09999995 1.038239
v -0.2653479 -0.1000001 1.038239
v 0.2653479 -0.1 1.038239
v 0.1202238 0.1000001 -0.6934124
v -0.1202238 0.1 -0.6934124
v -0.1202238 -0.09999999 -0.6934123
v 0.1202238 -0.09999997 -0.6934124
v 0.1202238 0.1 -0.5177113
v 0.2653479 0.09999999 1.038239
v 0.2653479 -0.1 1.038239
v 0.1202238 -0.09999997 -0.5177113
v -0.1202238 -0.09999996 -0.9569638
v -0.1202238 -0.09999999 -0.6934123
v -0.1202238 0.1 -0.6934124
v -0.1202238 0.1 -0.9569638
v -0.1202238 -0.09999999 -0.5177113
v -0.2653479 -0.1000001 1.038239
v -0.2653479 0.09999995 1.038239
v -0.1202238 0.1 -0.5177113
v 0.1202238 0.1000001 -0.9569638
v 0.1202238 0.1000001 -0.6934124
v 0.1202238 -0.09999997 -0.6934124
v 0.1202238 -0.09999995 -0.9569638
v -0.1202238 0.1 -0.5177113
v 0.1202238 0.1 -0.5177113
v 0.1202238 -0.09999997 -0.5177113
v -0.1202238 -0.09999999 -0.5177113
v 0.1202238 -0.09999995 -0.9569638
v 0.1202238 -0.09999997 -0.6934124
v 1.414213 -0.09999987 0
v -0.1202238 -0.09999999 -0.6934123
v 0 -0.09999995 -1.414213
v -0.1202238 -0.09999996 -0.9569638
v -1.414213 -0.1000001 0
v 0.1202238 -0.09999997 -0.5177113
v -0.1202238 -0.09999999 -0.5177113
v 0.2653479 -0.1 1.038239
v -0.2653479 -0.1000001 1.038239
v 0 -0.1000001 1.414213
v -0.1202238 0.1 -0.9569638
v -0.1202238 0.1 -0.6934124
v -1.414213 0.09999987 0
v 0.1202238 0.1000001 -0.6934124
v 0 0.1000001 -1.414213
v 0.1202238 0.1000001 -0.9569638
v 1.414213 0.1000001 0
v -0.1202238 0.1 -0.5177113
v 0.1202238 0.1 -0.5177113
v -0.2653479 0.09999995 1.038239
v 0.2653479 0.09999999 1.038239
v 0 0.09999995 1.414213
vn -0.7071068 0 0.7071067
vn -0.7071068 0 0.7071067
vn -0.7071068 0 0.7071067
vn -0.7071068 0 0.7071067
vn 0.7071068 0 -0.7071067
vn 0.7071068 0 -0.7071067
vn 0.7071068 0 -0.7071067
vn 0.7071068 0 -0.7071067
vn -0.7071068 0 -0.7071067
vn -0.7071068 0 -0.7071067
vn -0.7071068 0 -0.7071067
vn -0.7071068 0 -0.7071067
vn 0.7071068 0 0.7071067
vn 0.7071068 0 0.7071067
vn 0.7071068 0 0.7071067
vn 0.7071068 0 0.7071067
vn 0 0 1
vn 0 0 1
vn 0 0 1
vn 0 0 1
vn 0 0 -1
vn 0 0 -1
vn 0 0 -1
vn 0 0 -1
vn 0 0 -1
vn 0 0 -1
vn 0 0 -1
vn 0 0 -1
vn -0.9956785 0 0.09286733
vn -0.9956785 0 0.09286733
vn -0.9956785 0 0.09286733
vn -0.9956785 0 0.09286733
vn 1 0 0
vn 1 0 0
vn 1 0 0
vn 1 0 0
vn 0.9956785 0 0.09286733
vn 0.9956785 0 0.09286733
vn 0.9956785 0 0.09286733
vn 0.9956785 0 0.09286733
vn -1 0 0
vn -1 0 0
vn -1 0 0
vn -1 0 0
vn 0 0 1
vn 0 0 1
vn 0 0 1
vn 0 0 1
vn 0 -1 0
vn 0 -1 0
vn 0 -1 0
vn 0 -1 0
vn 0 -1 0
vn 0 -1 0
vn 0 -1 0
vn 0 -1 0
vn 0 -1 0
vn 0 -1 0
vn 0 -1 0
vn 0 -1 0
vn 0 1 0
vn 0 1 0
vn 0 1 0
vn 0 1 0
vn 0 1 0
vn 0 1 0
vn 0 1 0
vn 0 1 0
vn 0 1 0
vn 0 1 0
vn 0 1 0
vn 0 1 0
g NullMesh_0
f 3/3/3 2/2/2 1/1/1
f 4/4/4 3/3/3 1/1/1
f 7/7/7 6/6/6 5/5/5
f 8/8/8 7/7/7 5/5/5
f 11/11/11 10/10/10 9/9/9
f 12/12/12 11/11/11 9/9/9
f 15/15/15 14/14/14 13/13/13
f 16/16/16 15/15/15 13/13/13
f 19/19/19 18/18/18 17/17/17
f 20/20/20 19/19/19 17/17/17
f 23/23/23 22/22/22 21/21/21
f 24/24/24 23/23/23 21/21/21
f 27/27/27 26/26/26 25/25/25
f 28/28/28 27/27/27 25/25/25
f 31/31/31 30/30/30 29/29/29
f 32/32/32 31/31/31 29/29/29
f 35/35/35 34/34/34 33/33/33
f 36/36/36 35/35/35 33/33/33
f 39/39/39 38/38/38 37/37/37
f 40/40/40 39/39/39 37/37/37
f 43/43/43 42/42/42 41/41/41
f 44/44/44 43/43/43 41/41/41
f 47/47/47 46/46/46 45/45/45
f 48/48/48 47/47/47 45/45/45
f 51/51/51 50/50/50 49/49/49
f 52/52/52 50/50/50 51/51/51
f 49/49/49 53/53/53 51/51/51
f 53/53/53 49/49/49 54/54/54
f 54/54/54 55/55/55 53/53/53
f 55/55/55 54/54/54 52/52/52
f 51/51/51 56/56/56 52/52/52
f 52/52/52 56/56/56 57/57/57
f 52/52/52 57/57/57 55/55/55
f 51/51/51 58/58/58 56/56/56
f 57/57/57 59/59/59 55/55/55
f 58/58/58 51/51/51 60/60/60
f 55/55/55 59/59/59 60/60/60
f 60/60/60 59/59/59 58/58/58
f 63/63/63 62/62/62 61/61/61
f 64/64/64 62/62/62 63/63/63
f 61/61/61 65/65/65 63/63/63
f 65/65/65 61/61/61 66/66/66
f 66/66/66 67/67/67 65/65/65
f 67/67/67 66/66/66 64/64/64
f 63/63/63 68/68/68 64/64/64
f 64/64/64 68/68/68 69/69/69
f 64/64/64 69/69/69 67/67/67
f 63/63/63 70/70/70 68/68/68
f 69/69/69 71/71/71 67/67/67
f 70/70/70 63/63/63 72/72/72
f 67/67/67 71/71/71 72/72/72
f 72/72/72 71/71/71 70/70/70
