g PotProjectileShatteredMesh_cell.001
v -0.0329966 0.06456856 0.03290963
v -0.03299659 -0.03414807 0.01272857
v -0.1915917 0.01303791 0.03290963
v 0.3021242 -0.04431876 0.03290963
v 0.2660987 -0.09390353 0.02037978
v 0.3446661 -0.1028726 0.03290963
v 0.2211537 -0.155765 -0.09154266
v -0.0329966 -0.1072629 -0.1015998
v -0.4180782 0.02444638 -0.02580023
v 0.6344432 -0.1817746 0.007472396
v -0.5192591 0.06759473 0.007472396
v -0.03299659 -0.03414807 0.01272857
v -0.4415771 0.05678972 0.01683223
v -0.1915917 0.01303791 0.03290963
v 0.2660987 -0.09390353 0.02037978
v 0.3446661 -0.1028726 0.03290963
v 0.4183499 0.1156523 0.007472396
v 0.3021242 -0.04431876 0.03290963
v -0.0329966 0.06456856 0.03290963
v 0.3446661 -0.1028726 0.03290963
v 0.6344432 -0.1817746 0.007472396
v 0.2211537 -0.155765 -0.09154266
v -0.0329966 0.2623036 0.007472396
v -0.1915917 0.01303791 0.03290963
v -0.0329966 -0.1072629 -0.1015998
v -0.4843432 0.1156523 0.007472396
v -0.4415771 0.05678972 0.01683223
v -0.4180782 0.02444638 -0.02580023
v -0.5192591 0.06759473 0.007472396
vt 0.4722584 0.8753801
vt 0.4722584 0.8662948
vt 0.4008607 0.8753801
vt 0.6231259 0.8753801
vt 0.6069077 0.8697393
vt 0.6422777 0.8753802
vt 0.5544456 0.2140483
vt 0.726258 0.2264049
vt 0.874634 0.13318
vt 0.173402 0.09230717
vt 0.8971958 0.09226099
vt 0.5856675 0.08581672
vt 0.8369506 0.08075389
vt 0.660348 0.06099425
vt 0.3886166 0.07642041
vt 0.323918 0.06101561
vt 0.6754495 0.8639286
vt 0.6231259 0.8753801
vt 0.4722584 0.8753801
vt 0.6422777 0.8753802
vt 0.7727323 0.8639286
vt 0.586674 0.819353
vt 0.4722584 0.8639286
vt 0.4008607 0.8753801
vt 0.4722584 0.8148254
vt 0.2690672 0.8639286
vt 0.2883201 0.8681422
vt 0.298899 0.8489496
vt 0.2533485 0.8639286
vn 0 -0.004028534 0.9999919
vn -0.01062055 -0.2002644 0.9796844
vn -0.02160763 0.06650145 0.9975523
vn -0.002349978 -0.003265554 0.9999919
vn -0.1010479 -0.1740796 0.9795334
vn 0.03799654 0.02758946 0.998897
vn -0.1791485 -0.8288273 0.5300482
vn -0.1791485 -0.8288273 0.5300482
vn -0.1791485 -0.8288273 0.5300482
vn -0.1791485 -0.8288273 0.5300482
vn -0.1791485 -0.8288273 0.5300482
vn -0.1791485 -0.8288273 0.5300482
vn -0.1791485 -0.8288273 0.5300482
vn -0.1791485 -0.8288273 0.5300482
vn -0.1791485 -0.8288273 0.5300482
vn -0.1791485 -0.8288273 0.5300482
vn 0.5864524 0.8071656 0.06750795
vn -0.002349978 -0.003265554 0.9999919
vn 0 -0.004028534 0.9999919
vn 0.03799654 0.02758946 0.998897
vn 0.7176635 0.5213933 -0.4616364
vn 0.14042 0.2476653 -0.9586158
vn 0 0.9977188 0.06750746
vn -0.02160763 0.06650145 0.9975523
vn 0.01666347 0.2830044 -0.9589739
vn -0.5864524 0.8071656 0.06750795
vn -0.05829103 0.1153003 0.9916189
vn -0.1169193 0.2642968 -0.957328
vn -0.7506764 0.5454054 -0.3728509
g PotProjectileShatteredMesh_cell.001_0
f 3/3/3 2/2/2 1/1/1
f 1/1/1 2/2/2 4/4/4
f 2/2/2 5/5/5 4/4/4
f 6/6/6 4/4/4 5/5/5
f 9/9/9 8/8/8 7/7/7
f 7/7/7 10/10/10 9/9/9
f 10/10/10 11/11/11 9/9/9
f 10/10/10 12/12/12 11/11/11
f 13/13/13 11/11/11 12/12/12
f 12/12/12 14/14/14 13/13/13
f 10/10/10 15/15/15 12/12/12
f 10/10/10 16/16/16 15/15/15
f 19/19/19 18/18/18 17/17/17
f 17/17/17 18/18/18 20/20/20
f 21/21/21 17/17/17 20/20/20
f 22/22/22 17/17/17 21/21/21
f 23/23/23 19/19/19 17/17/17
f 23/23/23 17/17/17 22/22/22
f 24/24/24 19/19/19 23/23/23
f 25/25/25 23/23/23 22/22/22
f 23/23/23 26/26/26 24/24/24
f 26/26/26 23/23/23 25/25/25
f 26/26/26 27/27/27 24/24/24
f 28/28/28 26/26/26 25/25/25
f 29/29/29 27/27/27 26/26/26
f 29/29/29 26/26/26 28/28/28
