g Sphere_cell.007
v 0.7692072 0.2394438 0.3153426
v 0.2218427 -0.5810455 0.4251986
v 0.06963912 -0.4613932 0.3835903
v 0.004474666 0.2478683 -0.3160072
v 0.7692072 0.2394438 0.3153426
v -0.005658332 0.7490827 -0.04622497
v -0.02783069 0.4001067 -0.2583724
v -0.012534 0.7234429 -0.0661753
v -0.03238012 0.5742211 -0.16551
v -0.03190606 0.4410015 -0.2390622
v 0.2265126 -0.5739225 0.1214178
v 0.215882 -0.5899358 0.3165081
v 0.2218427 -0.5810455 0.4251986
v 0.7692072 0.2394438 0.3153426
v 0.2580635 -0.5265546 -0.0661753
v 0.2750327 -0.5010962 -0.123409
v -0.005658332 0.7490827 -0.04622497
v 0.7692072 0.2394438 0.3153426
v -0.1756937 -0.04696967 0.2696289
v -0.1001566 0.602295 0.0006303042
v -0.1724636 0.4288759 0.06307971
v -0.2046743 0.2815118 0.1214178
v -0.199739 0.04767209 0.2240962
v -0.2103032 0.2409867 0.138043
v 0.215882 -0.5899358 0.3165081
v 0.06963912 -0.4613932 0.3835903
v 0.2218427 -0.5810455 0.4251986
v 0.06501225 -0.4661201 0.3165081
v 0.2265126 -0.5739225 0.1214178
v -0.05755202 -0.3133818 0.3384694
v 0.07859936 -0.4525331 0.1214178
v 0.2580635 -0.5265546 -0.0661753
v -0.05935052 -0.3145835 0.3165081
v -0.1031581 -0.2326252 0.3165081
v -0.0433738 -0.3039082 0.1214178
v 0.1188377 -0.4122949 -0.0661753
v -0.134008 -0.1343434 0.1214178
v -0.1495433 -0.1407784 0.2921434
v -0.1756937 -0.04696967 0.2696289
v 0.170813 -0.3603195 -0.2036918
v 0.2750327 -0.5010962 -0.123409
v 0.003941443 -0.2722934 -0.0661753
v 0.1236425 -0.2731839 -0.2390622
v -0.1898203 0.04964507 0.1214178
v -0.199739 0.04767209 0.2240962
v -0.2103032 0.2409867 0.138043
v 0.08077762 -0.220953 -0.2390622
v 0.09511672 -0.2113719 -0.2600759
v 0.0459364 -0.05980811 -0.2944492
v -0.08143422 -0.1125669 -0.0661753
v 0.003941682 -0.07720286 -0.2390622
v 0.01607105 0.09059936 -0.3129151
v -0.2086657 0.2409867 0.1214178
v -0.2046743 0.2815118 0.1214178
v -0.1340082 0.4212264 -0.0661753
v -0.1724636 0.4288759 0.06307971
v -0.1001566 0.602295 0.0006303042
v -0.1340083 0.06074655 -0.0661753
v -0.04337368 0.07877508 -0.2390622
v 0.004209536 0.2409867 -0.3165101
v -0.1517603 0.2409865 -0.0661753
v -0.05935011 0.2409867 -0.2390622
v -0.04337356 0.4031983 -0.2390622
v 0.004474666 0.2478683 -0.3160072
v -0.02783069 0.4001067 -0.2583724
v -0.03190606 0.4410015 -0.2390622
v -0.08143416 0.5945399 -0.0661753
v -0.03238012 0.5742211 -0.16551
v -0.012534 0.7234429 -0.0661753
v -0.005658332 0.7490827 -0.04622497
v -0.1756937 -0.04696967 0.2696289
v 0.7692072 0.2394438 0.3153426
v 0.06963912 -0.4613932 0.3835903
v -0.05755202 -0.3133818 0.3384694
v -0.1031581 -0.2326252 0.3165081
v -0.1495433 -0.1407784 0.2921434
v 0.2750327 -0.5010962 -0.123409
v 0.7692072 0.2394438 0.3153426
v 0.004474666 0.2478683 -0.3160072
v 0.170813 -0.3603195 -0.2036918
v 0.1236425 -0.2731839 -0.2390622
v 0.09511672 -0.2113719 -0.2600759
v 0.0459364 -0.05980811 -0.2944492
v 0.01607105 0.09059936 -0.3129151
v 0.004209536 0.2409867 -0.3165101
vt 0 0
vt 0.782427 0.782427
vt 0.6682788 0.0002878951
vt 0.2698661 0.2698661
vt 1 1
vt 1 0.2601058
vt 0.4632557 0.2389963
vt 0.9554701 0.2535456
vt 0.7158939 0.234623
vt 0.5196739 0.2350984
vt 0.6023908 0.3780676
vt 0.8557274 0.6466477
vt 1 0.782427
vt 1 0
vt 0.36441 0.09494171
vt 0.2937381 0
vt 0.2601058 0.2601058
vt 1 1
vt 1 0.09764142
vt 0.3775169 0.1698487
vt 0.5280791 0.1007801
vt 0.6648262 0.07000393
vt 0.898702 0.07469022
vt 0.7034042 0.06462406
vt 0.4061125 0.5000001
vt 0.3749886 0.5214909
vt 0.4061139 0.5348207
vt 0.375 0.5000001
vt 0.4061005 0.4375001
vt 0.3437501 0.5070357
vt 0.375 0.4375001
vt 0.4060769 0.3750001
vt 0.34375 0.5000001
vt 0.3289357 0.5000001
vt 0.34375 0.4375001
vt 0.3750001 0.3750001
vt 0.3125 0.4375001
vt 0.3125 0.4921945
vt 0.2969424 0.4849817
vt 0.375 0.3252868
vt 0.4060633 0.3543097
vt 0.3437501 0.3750001
vt 0.3567044 0.3125001
vt 0.28125 0.4375001
vt 0.28125 0.4703946
vt 0.25 0.4428262
vt 0.3437501 0.3125001
vt 0.3437501 0.3038331
vt 0.3125001 0.2896562
vt 0.3125001 0.3750001
vt 0.3125001 0.3125001
vt 0.2812501 0.28204
vt 0.25 0.4375001
vt 0.2433814 0.4375001
vt 0.2187501 0.3750001
vt 0.21875 0.4180636
vt 0.1875 0.3972575
vt 0.2812501 0.3750001
vt 0.2812501 0.3124999
vt 0.2500001 0.2805573
vt 0.2500001 0.3750001
vt 0.2500001 0.3124999
vt 0.2187501 0.3124999
vt 0.2485677 0.2807646
vt 0.2187501 0.3045357
vt 0.2111762 0.3124999
vt 0.1875001 0.375
vt 0.1875 0.3390897
vt 0.1622806 0.375
vt 0.1578951 0.3816468
vt 0.09764142 0.09764142
vt 1 1
vt 1 0.3317726
vt 0.6235398 0.2103675
vt 0.450715 0.1668449
vt 0.2616655 0.122582
vt 1 0.7062619
vt 1 0
vt 0.2698661 0
vt 0.8121837 0.5740682
vt 0.712365 0.4920644
vt 0.6462339 0.4338413
vt 0.5037609 0.2908608
vt 0.3803258 0.1487737
vt 0.2739672 0.006517901
vn -0.1073572 0.2019618 0.9734915
vn -0.1073572 0.2019618 0.9734915
vn -0.1073572 0.2019618 0.9734915
vn 0.5881246 0.392512 -0.7071378
vn 0.5881246 0.392512 -0.7071378
vn 0.5881246 0.392512 -0.7071378
vn 0.5881246 0.392512 -0.7071378
vn 0.5881246 0.392512 -0.7071378
vn 0.5881246 0.392512 -0.7071378
vn 0.5881246 0.392512 -0.7071378
vn 0.8318623 -0.554982 -0.0002253584
vn 0.8318623 -0.554982 -0.0002253584
vn 0.8318623 -0.554982 -0.0002253584
vn 0.8318623 -0.554982 -0.0002253584
vn 0.8318623 -0.554982 -0.0002253584
vn 0.8318623 -0.554982 -0.0002253584
vn -0.1631232 0.3937729 0.904618
vn -0.1631232 0.3937729 0.904618
vn -0.1631232 0.3937729 0.904618
vn -0.1631232 0.3937729 0.904618
vn -0.1631232 0.3937729 0.904618
vn -0.1631232 0.3937729 0.904618
vn -0.1631232 0.3937729 0.904618
vn -0.1631232 0.3937729 0.904618
vn -0.6344087 -0.7729977 3.051949E-05
vn -0.6939755 -0.7132941 0.0980276
vn -0.6313835 -0.7693003 0.09763129
vn -0.7070915 -0.707122 0
vn -0.6224743 -0.7584688 -0.1930049
vn -0.8194151 -0.5647613 0.09799775
vn -0.6936837 -0.6936837 -0.1939226
vn -0.587071 -0.7153745 -0.3789287
vn -0.8314676 -0.5555732 0
vn -0.8788723 -0.4697574 -0.08313533
vn -0.8156919 -0.5450153 -0.1939202
vn -0.6539058 -0.6539058 -0.3805448
vn -0.906346 -0.3754112 -0.1939162
vn -0.9138044 -0.3941548 -0.09799698
vn -0.9523793 -0.2888939 -0.09753907
vn -0.6407189 -0.6061407 -0.4712461
vn -0.5600837 -0.6824647 -0.4696256
vn -0.7689242 -0.5137554 -0.3805404
vn -0.673471 -0.5526753 -0.4909041
vn -0.9621686 -0.1913839 -0.1939169
vn -0.9704885 -0.2203505 -0.09796749
vn -0.9948733 -0.025087 -0.09796746
vn -0.6929023 -0.4629725 -0.5527593
vn -0.6515929 -0.4160123 -0.6343188
vn -0.7181166 -0.286148 -0.634372
vn -0.8543801 -0.3538681 -0.3805417
vn -0.7699078 -0.3188951 -0.5527638
vn -0.7590436 -0.1463702 -0.6343725
vn -0.9810172 0 -0.1939206
vn -0.9593562 0.09448599 -0.2659097
vn -0.906997 0.1803984 -0.3805426
vn -0.9425718 0.1653506 -0.2902028
vn -0.8909434 0.3492603 -0.2902364
vn -0.906997 -0.1803984 -0.3805426
vn -0.8173287 -0.1625746 -0.5527597
vn -0.7730092 -0.001525937 -0.634393
vn -0.9247627 0 -0.3805441
vn -0.8333439 0 -0.5527549
vn -0.8173287 0.1625746 -0.5527597
vn -0.7707816 0.07590013 -0.6325622
vn -0.7628534 0.125952 -0.6341852
vn -0.8280825 0.2511745 -0.5011894
vn -0.8543801 0.3538681 -0.3805417
vn -0.8275545 0.3052821 -0.4711225
vn -0.8328699 0.4451841 -0.3288448
vn -0.8442885 0.4512902 -0.2889881
vn -0.1086835 0.2032452 0.9730772
vn -0.1086835 0.2032452 0.9730772
vn -0.1086835 0.2032452 0.9730772
vn -0.1086835 0.2032452 0.9730772
vn -0.1086835 0.2032452 0.9730772
vn -0.1086835 0.2032452 0.9730772
vn 0.6365367 0.03178477 -0.7705912
vn 0.6365367 0.03178477 -0.7705912
vn 0.6365367 0.03178477 -0.7705912
vn 0.6365367 0.03178477 -0.7705912
vn 0.6365367 0.03178477 -0.7705912
vn 0.6365367 0.03178477 -0.7705912
vn 0.6365367 0.03178477 -0.7705912
vn 0.6365367 0.03178477 -0.7705912
vn 0.6365367 0.03178477 -0.7705912
g Sphere_cell.007_0
f 3/3/3 2/2/2 1/1/1
f 6/6/6 5/5/5 4/4/4
f 4/4/4 7/7/7 6/6/6
f 7/7/7 8/8/8 6/6/6
f 7/7/7 9/9/9 8/8/8
f 7/7/7 10/10/10 9/9/9
f 13/13/13 12/12/12 11/11/11
f 11/11/11 14/14/14 13/13/13
f 11/11/11 15/15/15 14/14/14
f 15/15/15 16/16/16 14/14/14
f 19/19/19 18/18/18 17/17/17
f 17/17/17 20/20/20 19/19/19
f 20/20/20 21/21/21 19/19/19
f 21/21/21 22/22/22 19/19/19
f 22/22/22 23/23/23 19/19/19
f 22/22/22 24/24/24 23/23/23
f 27/27/27 26/26/26 25/25/25
f 26/26/26 28/28/28 25/25/25
f 25/25/25 28/28/28 29/29/29
f 26/26/26 30/30/30 28/28/28
f 28/28/28 31/31/31 29/29/29
f 29/29/29 31/31/31 32/32/32
f 30/30/30 33/33/33 28/28/28
f 28/28/28 33/33/33 31/31/31
f 30/30/30 34/34/34 33/33/33
f 33/33/33 35/35/35 31/31/31
f 35/35/35 33/33/33 34/34/34
f 31/31/31 36/36/36 32/32/32
f 31/31/31 35/35/35 36/36/36
f 34/34/34 37/37/37 35/35/35
f 34/34/34 38/38/38 37/37/37
f 37/37/37 38/38/38 39/39/39
f 32/32/32 36/36/36 40/40/40
f 41/41/41 32/32/32 40/40/40
f 35/35/35 42/42/42 36/36/36
f 40/40/40 36/36/36 42/42/42
f 35/35/35 37/37/37 42/42/42
f 42/42/42 43/43/43 40/40/40
f 39/39/39 44/44/44 37/37/37
f 39/39/39 45/45/45 44/44/44
f 45/45/45 46/46/46 44/44/44
f 42/42/42 47/47/47 43/43/43
f 43/43/43 47/47/47 48/48/48
f 48/48/48 47/47/47 49/49/49
f 37/37/37 50/50/50 42/42/42
f 42/42/42 50/50/50 47/47/47
f 37/37/37 44/44/44 50/50/50
f 47/47/47 51/51/51 49/49/49
f 50/50/50 51/51/51 47/47/47
f 49/49/49 51/51/51 52/52/52
f 46/46/46 53/53/53 44/44/44
f 46/46/46 54/54/54 53/53/53
f 53/53/53 54/54/54 55/55/55
f 54/54/54 56/56/56 55/55/55
f 56/56/56 57/57/57 55/55/55
f 44/44/44 58/58/58 50/50/50
f 50/50/50 58/58/58 51/51/51
f 44/44/44 53/53/53 58/58/58
f 51/51/51 59/59/59 52/52/52
f 58/58/58 59/59/59 51/51/51
f 52/52/52 59/59/59 60/60/60
f 53/53/53 61/61/61 58/58/58
f 58/58/58 61/61/61 59/59/59
f 55/55/55 61/61/61 53/53/53
f 61/61/61 62/62/62 59/59/59
f 59/59/59 62/62/62 60/60/60
f 61/61/61 55/55/55 62/62/62
f 60/60/60 62/62/62 63/63/63
f 55/55/55 63/63/63 62/62/62
f 63/63/63 64/64/64 60/60/60
f 63/63/63 65/65/65 64/64/64
f 65/65/65 63/63/63 66/66/66
f 66/66/66 63/63/63 55/55/55
f 55/55/55 67/67/67 66/66/66
f 67/67/67 68/68/68 66/66/66
f 57/57/57 67/67/67 55/55/55
f 68/68/68 67/67/67 69/69/69
f 57/57/57 70/70/70 67/67/67
f 70/70/70 69/69/69 67/67/67
f 73/73/73 72/72/72 71/71/71
f 71/71/71 74/74/74 73/73/73
f 71/71/71 75/75/75 74/74/74
f 71/71/71 76/76/76 75/75/75
f 79/79/79 78/78/78 77/77/77
f 77/77/77 80/80/80 79/79/79
f 80/80/80 81/81/81 79/79/79
f 81/81/81 82/82/82 79/79/79
f 82/82/82 83/83/83 79/79/79
f 83/83/83 84/84/84 79/79/79
f 84/84/84 85/85/85 79/79/79
