g Sphere_cell.001
v -0.07325432 -0.02147019 0.7593877
v 0.05980676 0.0471018 0.8269742
v 0.0765526 0.03444321 0.80954
v -0.07325433 -0.04389598 0.7320617
v -0.1190094 -0.0393895 0.7320617
v -0.2444418 -0.07304423 0.6459856
v -0.2534941 -0.118554 0.559175
v -0.3551406 -0.08771992 0.559175
v -0.4351173 -0.08604129 0.4875924
v -0.4485845 -0.1185537 0.3715819
v -0.5494208 -0.06465556 0.3715819
v -0.6217862 -0.03539916 0.2867918
v -0.6278753 -0.04440351 0.1764917
v 0.08895731 -0.02791961 0.7320617
v 0.1442854 -0.01113605 0.7320617
v 0.2683474 -0.06960553 0.559175
v 0.1069858 -0.118554 0.559175
v 0.2832202 -0.07303198 0.5340122
v -0.07325418 -0.1363061 0.559175
v 0.1180874 -0.1743662 0.3715819
v -0.07325433 -0.1932116 0.3715819
v -0.264596 -0.1743661 0.3715819
v 0.3020759 -0.1185539 0.3715819
v 0.370859 -0.08178858 0.3715819
v 0.454959 -0.05851895 0.1764916
v 0.3094292 -0.1363063 0.1764917
v 0.4783921 -0.03802388 0.1047833
v 0.121836 -0.193212 0.1764917
v -0.07325435 -0.2124266 0.1764917
v -0.2683447 -0.1932119 0.1764917
v 0.3020759 -0.1185539 -0.01859862
v 0.1180874 -0.1743662 -0.01859862
v -0.4559378 -0.1363061 0.1764917
v -0.07325433 -0.1932116 -0.01859862
v -0.264596 -0.1743661 -0.01859862
v -0.4485845 -0.1185537 -0.01859862
v -0.6172998 -0.02837349 -0.01859862
v -0.4268076 -0.06597998 -0.2061917
v -0.5857859 0.01899572 -0.2061917
v -0.5688322 0.04443494 -0.2633924
v -0.4460188 0.04856694 -0.3790786
v -0.2534941 -0.118554 -0.2061917
v -0.235466 -0.02791949 -0.3790786
v -0.3914439 0.01939598 -0.3790786
v -0.3741668 0.06110642 -0.4340906
v -0.2277773 0.099081 -0.5306152
v -0.07325418 -0.1363061 -0.2061917
v -0.211204 0.09405354 -0.5306152
v -0.07325427 0.08046667 -0.5306152
v -0.2088286 0.1059952 -0.5406074
v -0.07325426 0.1650842 -0.600059
v -0.04821336 0.1779514 -0.6085949
v 0.04500633 0.1930372 -0.6134405
v -0.07325433 -0.04389598 -0.3790786
v 0.1069858 -0.118554 -0.2061917
v 0.06469542 0.09405348 -0.5306152
v 0.08895731 -0.02791961 -0.3790786
v 0.1973438 0.1342919 -0.5306152
v 0.1613992 0.2210699 -0.6076998
v 0.2802992 -0.06597998 -0.2061917
v 0.2449353 0.01939569 -0.3790786
v 0.3886855 0.09623168 -0.3790786
v 0.3195933 0.1996355 -0.5306152
v 0.1613992 0.2210699 -0.6076998
v 0.3142136 0.2076868 -0.5385619
v 0.3287694 0.2071662 -0.5306152
v 0.4960484 0.2182707 -0.4111911
v 0.4400259 0.01939563 -0.2061917
v 0.5146835 0.1996355 -0.3790786
v 0.5344218 0.2236866 -0.3790786
v 0.5494954 0.1648238 -0.2869734
v 0.5486556 0.2279435 -0.3634708
v 0.5455036 0.105959 -0.2061917
v 0.4716408 -0.02791967 -0.01859862
v 0.5131392 0.006137222 -0.01859862
v 0.454959 -0.05851895 0.1764916
v 0.370859 -0.08178858 0.3715819
v 0.2832202 -0.07303198 0.5340122
v 0.2683474 -0.06960553 0.559175
v 0.1442854 -0.01113605 0.7320617
v 0.4783921 -0.03802388 0.1047833
v 0.5131392 0.006137222 -0.01859862
v 0.0765526 0.03444321 0.80954
v 0.5455036 0.105959 -0.2061917
v 0.05980676 0.0471018 0.8269742
v -0.07364665 0.7853289 0.1767192
v 0.5494954 0.1648238 -0.2869734
v 0.5486556 0.2279435 -0.3634708
v -0.07364665 0.7853289 0.1767192
v 0.05980676 0.0471018 0.8269742
v -0.07325432 -0.02147019 0.7593877
v -0.1190094 -0.0393895 0.7320617
v -0.6217862 -0.03539916 0.2867918
v -0.2444418 -0.07304423 0.6459856
v -0.3551406 -0.08771992 0.559175
v -0.4351173 -0.08604129 0.4875924
v -0.5494208 -0.06465556 0.3715819
v -0.6217862 -0.03539916 0.2867918
v -0.6278753 -0.04440351 0.1764917
v -0.6172998 -0.02837349 -0.01859862
v -0.07364665 0.7853289 0.1767192
v -0.5857859 0.01899572 -0.2061917
v -0.5688322 0.04443494 -0.2633924
v -0.07325426 0.1650842 -0.600059
v -0.04821336 0.1779514 -0.6085949
v -0.07364665 0.7853289 0.1767192
v -0.2088286 0.1059952 -0.5406074
v -0.2277773 0.099081 -0.5306152
v -0.3741668 0.06110642 -0.4340906
v -0.4460188 0.04856694 -0.3790786
v -0.5688322 0.04443494 -0.2633924
v -0.07364665 0.7853289 0.1767192
v 0.1613992 0.2210699 -0.6076998
v 0.3142136 0.2076868 -0.5385619
v 0.3287694 0.2071662 -0.5306152
v 0.4960484 0.2182707 -0.4111911
v 0.5344218 0.2236866 -0.3790786
v 0.5486556 0.2279435 -0.3634708
v 0.1613992 0.2210699 -0.6076998
v -0.07364665 0.7853289 0.1767192
v -0.04821336 0.1779514 -0.6085949
v 0.04500633 0.1930372 -0.6134405
vt 0.5 0.6987703
vt 0.5283076 0.7266458
vt 0.53125 0.7194552
vt 0.5 0.6875
vt 0.4911853 0.6875
vt 0.46875 0.6563827
vt 0.46875 0.625
vt 0.4504222 0.625
vt 0.4375 0.601151
vt 0.4375 0.5625001
vt 0.4189163 0.5625001
vt 0.4064331 0.5353363
vt 0.4064216 0.5000001
vt 0.53125 0.6875
vt 0.5423349 0.6875
vt 0.5603449 0.625
vt 0.53125 0.625
vt 0.5625 0.6166165
vt 0.5 0.625
vt 0.53125 0.5625
vt 0.5 0.5625001
vt 0.46875 0.5625001
vt 0.5624999 0.5625
vt 0.5751764 0.5625
vt 0.5888051 0.5
vt 0.5624999 0.5
vt 0.5937499 0.4770272
vt 0.5312499 0.5000001
vt 0.5 0.5000001
vt 0.46875 0.5000001
vt 0.5624999 0.4375001
vt 0.53125 0.4375001
vt 0.4375 0.5000001
vt 0.5 0.4375001
vt 0.46875 0.4375001
vt 0.4375 0.4375001
vt 0.4064066 0.4375001
vt 0.4375 0.3750001
vt 0.4063964 0.3750001
vt 0.4063961 0.3543216
vt 0.4256359 0.3125001
vt 0.46875 0.3750001
vt 0.46875 0.3125001
vt 0.4375 0.3125001
vt 0.4375 0.2898108
vt 0.4648456 0.2500001
vt 0.5 0.3750001
vt 0.46875 0.2500001
vt 0.5 0.2500001
vt 0.46875 0.2449784
vt 0.4999999 0.2151003
vt 0.5065098 0.2108105
vt 0.5312499 0.2083752
vt 0.5 0.3125001
vt 0.53125 0.3750001
vt 0.5312499 0.2500001
vt 0.5312499 0.3125001
vt 0.5624999 0.2500001
vt 0.5624999 0.2112603
vt 0.5625 0.3750001
vt 0.5624999 0.3125001
vt 0.5937499 0.3125001
vt 0.5937499 0.2500001
vt 0.5628503 0.2113608
vt 0.5937499 0.2460064
vt 0.5964261 0.2500001
vt 0.6249999 0.2992555
vt 0.5937499 0.3750001
vt 0.6249999 0.3125001
vt 0.6309651 0.3125001
vt 0.6249999 0.3457969
vt 0.6333686 0.3181424
vt 0.6172938 0.3750001
vt 0.5937499 0.4375001
vt 0.6024754 0.4375001
vt 0.8489982 0.427047
vt 0.8610421 0.3267673
vt 0.8427677 0.2290435
vt 0.8378541 0.2128575
vt 0.7689548 0.08397744
vt 0.8325567 0.4578647
vt 0.795316 0.5063887
vt 0.7185837 0.01641768
vt 0.7058172 0.5636334
vt 0.7048321 0
vt 0 0
vt 0.6513009 0.5802505
vt 0.5922544 0.5922544
vt 0 0
vt 0.7048321 0.7048321
vt 0.7702116 0.6066564
vt 0.7872897 0.5686442
vt 0.783167 0
vt 0.81934 0.4528148
vt 0.8332811 0.339301
vt 0.8316289 0.2480624
vt 0.8111417 0.103397
vt 0.783167 0.783167
vt 0.7917809 0.645628
vt 0.7765224 0.3774826
vt 0 0
vt 0.7313564 0.09476555
vt 0.707092 0
vt 0.7539408 0.03437265
vt 0.7480794 0
vt 0 0
vt 0.7728236 0.2198749
vt 0.7738288 0.2457262
vt 0.7628288 0.4445733
vt 0.750017 0.5418297
vt 0.707092 0.707092
vt 1 0
vt 0.2532866 0
vt 0.511788 0.2220693
vt 0.5383289 0.2439171
vt 0.8795764 0.5059124
vt 0.9639403 0.5678456
vt 1 0.5922544
vt 0.9951935 0.7420993
vt 1 0
vt 0.2519206 0
vt 0.5768753 0.3294281
vn 0.02993977 -0.7726657 0.6341066
vn 0.07590013 -0.7707816 0.6325622
vn 0.1015965 -0.7669635 0.6335971
vn 0 -0.8333439 0.5527549
vn -0.08450679 -0.8581299 0.5064303
vn -0.1327583 -0.872085 0.4710022
vn -0.1803984 -0.906997 0.3805426
vn -0.2735761 -0.9018491 0.3344014
vn -0.3214312 -0.9014542 0.2899351
vn -0.3754112 -0.906346 0.1939162
vn -0.4661521 -0.8721201 0.1486901
vn -0.4691362 -0.877723 0.09753834
vn -0.4714023 -0.8819184 -3.051937E-05
vn 0.1625746 -0.8173287 0.5527597
vn 0.2463805 -0.8122957 0.5286515
vn 0.2715335 -0.895142 0.3535399
vn 0.1803984 -0.906997 0.3805426
vn 0.3025949 -0.9080593 0.2895938
vn 0 -0.9247627 0.3805441
vn 0.1913839 -0.9621686 0.1939169
vn 0 -0.9810172 0.1939206
vn -0.1913839 -0.9621686 0.1939169
vn 0.3754112 -0.906346 0.1939162
vn 0.4645953 -0.8692201 0.169138
vn 0.4712472 -0.8816391 -0.02526991
vn 0.3826815 -0.9238803 0
vn 0.4912365 -0.8655236 -0.09775289
vn 0.1950772 -0.9807879 0
vn 0 -1 0
vn -0.1950772 -0.9807879 0
vn 0.3754112 -0.906346 -0.1939162
vn 0.1913839 -0.9621686 -0.1939169
vn -0.3826815 -0.9238803 0
vn 0 -0.9810172 -0.1939206
vn -0.1913839 -0.9621686 -0.1939169
vn -0.3754112 -0.906346 -0.1939162
vn -0.4625155 -0.8653358 -0.1930632
vn -0.3538681 -0.8543801 -0.3805417
vn -0.4362102 -0.8161432 -0.3789868
vn -0.4161665 -0.7786183 -0.469637
vn -0.4032828 -0.754469 -0.5178219
vn -0.1803984 -0.906997 -0.3805426
vn -0.1625746 -0.8173287 -0.5527597
vn -0.3188951 -0.7699078 -0.5527638
vn -0.2584977 -0.7289513 -0.633884
vn -0.2157409 -0.7112216 -0.669044
vn 0 -0.9247627 -0.3805441
vn -0.1385268 -0.6965101 -0.7040483
vn 0 -0.7101521 -0.7040482
vn -0.09647091 -0.6273813 -0.7727134
vn 0.02185143 -0.6342409 -0.7728266
vn 0.06235158 -0.63316 -0.7715054
vn 0.1238453 -0.622187 -0.7730108
vn 0 -0.8333439 -0.5527549
vn 0.1803984 -0.906997 -0.3805426
vn 0.1385268 -0.6965101 -0.7040483
vn 0.1625746 -0.8173287 -0.5527597
vn 0.2717489 -0.6560855 -0.7040627
vn 0.2258987 -0.5929764 -0.7728835
vn 0.3538681 -0.8543801 -0.3805417
vn 0.3188951 -0.7699078 -0.5527638
vn 0.4629725 -0.6929023 -0.5527593
vn 0.3945282 -0.5904647 -0.7040589
vn 0.2258987 -0.5929764 -0.7728835
vn 0.3265871 -0.5443728 -0.7726572
vn 0.4693619 -0.5719385 -0.6727449
vn 0.5150353 -0.5771105 -0.6337839
vn 0.5137554 -0.7689242 -0.3805404
vn 0.5892607 -0.5892607 -0.5527599
vn 0.6594009 -0.5411385 -0.5218807
vn 0.5791656 -0.6657185 -0.4705168
vn 0.6824647 -0.5600837 -0.4696256
vn 0.5799567 -0.7066725 -0.4052952
vn 0.5450153 -0.8156919 -0.1939202
vn 0.6188761 -0.7541084 -0.219802
vn 0.7789589 0.4878515 0.3939846
vn 0.7789589 0.4878515 0.3939846
vn 0.7789589 0.4878515 0.3939846
vn 0.7789589 0.4878515 0.3939846
vn 0.7789589 0.4878515 0.3939846
vn 0.7789589 0.4878515 0.3939846
vn 0.7789589 0.4878515 0.3939846
vn 0.7789589 0.4878515 0.3939846
vn 0.7789589 0.4878515 0.3939846
vn 0.7789589 0.4878515 0.3939846
vn 0.7789589 0.4878515 0.3939846
vn 0.7789589 0.4878515 0.3939846
vn 0.7789589 0.4878515 0.3939846
vn -0.5807953 0.4764221 0.6600747
vn -0.5807953 0.4764221 0.6600747
vn -0.5807953 0.4764221 0.6600747
vn -0.5807953 0.4764221 0.6600747
vn -0.5807953 0.4764221 0.6600747
vn -0.5807953 0.4764221 0.6600747
vn -0.5807953 0.4764221 0.6600747
vn -0.5807953 0.4764221 0.6600747
vn -0.5807953 0.4764221 0.6600747
vn -0.8315533 0.5554448 0.0005621815
vn -0.8315533 0.5554448 0.0005621815
vn -0.8315533 0.5554448 0.0005621815
vn -0.8315533 0.5554448 0.0005621815
vn -0.8315533 0.5554448 0.0005621815
vn -0.8315533 0.5554448 0.0005621815
vn -0.5233815 0.6657404 -0.5318472
vn -0.5233815 0.6657404 -0.5318472
vn -0.5233815 0.6657404 -0.5318472
vn -0.5233815 0.6657404 -0.5318472
vn -0.5233815 0.6657404 -0.5318472
vn -0.5233815 0.6657404 -0.5318472
vn -0.5233815 0.6657404 -0.5318472
vn -0.5233815 0.6657404 -0.5318472
vn 0.2985898 0.8151409 -0.4963762
vn 0.2985898 0.8151409 -0.4963762
vn 0.2985898 0.8151409 -0.4963762
vn 0.2985898 0.8151409 -0.4963762
vn 0.2985898 0.8151409 -0.4963762
vn 0.2985898 0.8151409 -0.4963762
vn 0.2985898 0.8151409 -0.4963762
vn -0.1575816 0.7786606 -0.6073349
vn -0.1575816 0.7786606 -0.6073349
vn -0.1575816 0.7786606 -0.6073349
vn -0.1575816 0.7786606 -0.6073349
g Sphere_cell.001_0
f 3/3/3 2/2/2 1/1/1
f 3/3/3 1/1/1 4/4/4
f 1/1/1 5/5/5 4/4/4
f 4/4/4 5/5/5 6/6/6
f 4/4/4 6/6/6 7/7/7
f 6/6/6 8/8/8 7/7/7
f 7/7/7 8/8/8 9/9/9
f 7/7/7 9/9/9 10/10/10
f 9/9/9 11/11/11 10/10/10
f 10/10/10 11/11/11 12/12/12
f 10/10/10 12/12/12 13/13/13
f 4/4/4 14/14/14 3/3/3
f 3/3/3 14/14/14 15/15/15
f 15/15/15 14/14/14 16/16/16
f 14/14/14 17/17/17 16/16/16
f 14/14/14 4/4/4 17/17/17
f 18/18/18 16/16/16 17/17/17
f 4/4/4 19/19/19 17/17/17
f 7/7/7 19/19/19 4/4/4
f 18/18/18 17/17/17 20/20/20
f 17/17/17 19/19/19 20/20/20
f 19/19/19 7/7/7 21/21/21
f 19/19/19 21/21/21 20/20/20
f 10/10/10 22/22/22 7/7/7
f 7/7/7 22/22/22 21/21/21
f 20/20/20 23/23/23 18/18/18
f 18/18/18 23/23/23 24/24/24
f 24/24/24 23/23/23 25/25/25
f 23/23/23 26/26/26 25/25/25
f 23/23/23 20/20/20 26/26/26
f 27/27/27 25/25/25 26/26/26
f 20/20/20 21/21/21 28/28/28
f 20/20/20 28/28/28 26/26/26
f 21/21/21 22/22/22 29/29/29
f 21/21/21 29/29/29 28/28/28
f 22/22/22 10/10/10 30/30/30
f 22/22/22 30/30/30 29/29/29
f 27/27/27 26/26/26 31/31/31
f 26/26/26 28/28/28 31/31/31
f 28/28/28 29/29/29 32/32/32
f 28/28/28 32/32/32 31/31/31
f 10/10/10 33/33/33 30/30/30
f 13/13/13 33/33/33 10/10/10
f 29/29/29 30/30/30 34/34/34
f 29/29/29 34/34/34 32/32/32
f 30/30/30 33/33/33 35/35/35
f 30/30/30 35/35/35 34/34/34
f 33/33/33 13/13/13 36/36/36
f 33/33/33 36/36/36 35/35/35
f 13/13/13 37/37/37 36/36/36
f 36/36/36 37/37/37 38/38/38
f 37/37/37 39/39/39 38/38/38
f 38/38/38 39/39/39 40/40/40
f 38/38/38 40/40/40 41/41/41
f 35/35/35 36/36/36 42/42/42
f 36/36/36 38/38/38 42/42/42
f 42/42/42 38/38/38 43/43/43
f 41/41/41 44/44/44 38/38/38
f 38/38/38 44/44/44 43/43/43
f 45/45/45 44/44/44 41/41/41
f 43/43/43 44/44/44 45/45/45
f 43/43/43 45/45/45 46/46/46
f 34/34/34 35/35/35 47/47/47
f 35/35/35 42/42/42 47/47/47
f 46/46/46 48/48/48 43/43/43
f 43/43/43 48/48/48 49/49/49
f 50/50/50 48/48/48 46/46/46
f 49/49/49 48/48/48 50/50/50
f 51/51/51 49/49/49 50/50/50
f 49/49/49 51/51/51 52/52/52
f 49/49/49 52/52/52 53/53/53
f 42/42/42 43/43/43 54/54/54
f 54/54/54 43/43/43 49/49/49
f 47/47/47 42/42/42 54/54/54
f 34/34/34 47/47/47 55/55/55
f 32/32/32 34/34/34 55/55/55
f 53/53/53 56/56/56 49/49/49
f 54/54/54 49/49/49 56/56/56
f 47/47/47 54/54/54 57/57/57
f 57/57/57 54/54/54 56/56/56
f 55/55/55 47/47/47 57/57/57
f 58/58/58 56/56/56 53/53/53
f 57/57/57 56/56/56 58/58/58
f 59/59/59 58/58/58 53/53/53
f 32/32/32 55/55/55 60/60/60
f 31/31/31 32/32/32 60/60/60
f 55/55/55 57/57/57 61/61/61
f 61/61/61 57/57/57 58/58/58
f 60/60/60 55/55/55 61/61/61
f 60/60/60 61/61/61 62/62/62
f 61/61/61 58/58/58 63/63/63
f 62/62/62 61/61/61 63/63/63
f 63/63/63 58/58/58 64/64/64
f 65/65/65 63/63/63 64/64/64
f 66/66/66 63/63/63 65/65/65
f 62/62/62 63/63/63 66/66/66
f 62/62/62 66/66/66 67/67/67
f 31/31/31 60/60/60 68/68/68
f 68/68/68 60/60/60 62/62/62
f 67/67/67 69/69/69 62/62/62
f 70/70/70 69/69/69 67/67/67
f 62/62/62 69/69/69 71/71/71
f 71/71/71 69/69/69 70/70/70
f 71/71/71 68/68/68 62/62/62
f 72/72/72 71/71/71 70/70/70
f 71/71/71 73/73/73 68/68/68
f 74/74/74 31/31/31 68/68/68
f 74/74/74 68/68/68 73/73/73
f 31/31/31 74/74/74 27/27/27
f 75/75/75 74/74/74 73/73/73
f 27/27/27 74/74/74 75/75/75
f 78/78/78 77/77/77 76/76/76
f 76/76/76 79/79/79 78/78/78
f 76/76/76 80/80/80 79/79/79
f 76/76/76 81/81/81 80/80/80
f 81/81/81 82/82/82 80/80/80
f 82/82/82 83/83/83 80/80/80
f 82/82/82 84/84/84 83/83/83
f 84/84/84 85/85/85 83/83/83
f 84/84/84 86/86/86 85/85/85
f 84/84/84 87/87/87 86/86/86
f 87/87/87 88/88/88 86/86/86
f 91/91/91 90/90/90 89/89/89
f 89/89/89 92/92/92 91/91/91
f 89/89/89 93/93/93 92/92/92
f 93/93/93 94/94/94 92/92/92
f 93/93/93 95/95/95 94/94/94
f 93/93/93 96/96/96 95/95/95
f 93/93/93 97/97/97 96/96/96
f 100/100/100 99/99/99 98/98/98
f 98/98/98 101/101/101 100/100/100
f 101/101/101 102/102/102 100/100/100
f 101/101/101 103/103/103 102/102/102
f 106/106/106 105/105/105 104/104/104
f 104/104/104 107/107/107 106/106/106
f 107/107/107 108/108/108 106/106/106
f 108/108/108 109/109/109 106/106/106
f 109/109/109 110/110/110 106/106/106
f 110/110/110 111/111/111 106/106/106
f 114/114/114 113/113/113 112/112/112
f 112/112/112 115/115/115 114/114/114
f 112/112/112 116/116/116 115/115/115
f 112/112/112 117/117/117 116/116/116
f 112/112/112 118/118/118 117/117/117
f 121/121/121 120/120/120 119/119/119
f 122/122/122 121/121/121 119/119/119
