g terrainMesh
v -16.5689 20 -8.087383
v -15 17.51233 -8.067193
v -15 20 -8.063292
v -15.41502 9.999999 -7.992504
v -15 9.999999 -7.993608
v -16.78371 20 -8.086811
v -17.01338 20 -8.082278
v -20.92436 9.999999 -7.883774
v -24.31452 9.999999 -7.934809
v -17.15471 20 -8.084406
v -18.32561 20 -8.081568
v -25 18.04133 -8.039485
v -25 9.999999 -7.933147
v -25 19.55027 -7.983689
v -23.97802 20 -7.984593
v -25 20 -7.985539
vt 0.4801454 0.5648975
vt 0.4690676 0.567637
vt 0.4788214 0.5699255
vt 0.4399992 0.5591904
vt 0.4396461 0.560537
vt 0.4803282 0.5642006
vt 0.4805252 0.5634466
vt 0.4447242 0.541106
vt 0.4475856 0.5302391
vt 0.4806444 0.5629936
vt 0.4816407 0.5591951
vt 0.4796513 0.5356764
vt 0.4481688 0.5280154
vt 0.4855886 0.5369462
vt 0.4864827 0.5406734
vt 0.4873509 0.5373656
vn 0.003112909 -0.006134263 -0.9999764
vn 0.0005493333 -0.007751704 -0.9999698
vn 0.01535086 0.001556449 -0.9998809
vn -0.01043742 -0.01083417 -0.9998869
vn -0.002655137 -0.00976602 -0.9999489
vn -0.01193298 -0.01104793 -0.9998678
vn -0.006439487 -0.01730421 -0.9998295
vn 0.001770076 -0.02053898 -0.9997875
vn 0.002838233 -0.01699888 -0.9998515
vn 0.009766085 -0.02194317 -0.9997115
vn -0.003753839 -0.008636883 -0.9999557
vn -0.008423356 0.007294138 -0.9999379
vn -0.002410965 -0.01321453 -0.9999098
vn -0.01046798 0.021821 -0.999707
vn -0.01474051 0.03152576 -0.9993943
vn 0.0009155752 -0.00408957 -0.9999913
g terrainMesh_0
f 3/3/3 2/2/2 1/1/1
f 4/4/4 1/1/1 2/2/2
f 2/2/2 5/5/5 4/4/4
f 4/4/4 6/6/6 1/1/1
f 7/7/7 6/6/6 4/4/4
f 8/8/8 7/7/7 4/4/4
f 8/8/8 9/9/9 7/7/7
f 9/9/9 10/10/10 7/7/7
f 11/11/11 10/10/10 9/9/9
f 9/9/9 12/12/12 11/11/11
f 9/9/9 13/13/13 12/12/12
f 12/12/12 14/14/14 11/11/11
f 14/14/14 15/15/15 11/11/11
f 16/16/16 15/15/15 14/14/14
