g terrainMesh.061
v 5 9.999999 -0.2915748
v 5.057731 9.999999 -0.3619215
v 5 9.952762 -0.3767931
v 5.104626 9.999999 -0.47825
v 5 9.933526 -0.4411662
v 5.11534 9.999999 -0.6287352
v 5 9.922837 -0.6714862
v 5.003062 9.924472 -0.6792774
v 5.111851 9.999999 -0.7181414
v 5 9.92191 -0.6776571
v 5 9.922277 -0.6797034
v 5.04637 9.999999 -0.8047906
v 5 9.924361 -0.6827464
v 5 9.999999 -0.8612628
vt 0.9464798 0.5027046
vt 0.9461626 0.5025204
vt 0.9461399 0.5027612
vt 0.9456695 0.5024091
vt 0.9458835 0.5028035
vt 0.9450639 0.5024639
vt 0.944967 0.5029529
vt 0.9449341 0.5029457
vt 0.9447105 0.5025356
vt 0.9449425 0.5029569
vt 0.9449344 0.5029582
vt 0.9444082 0.5028522
vt 0.9449223 0.5029601
vt 0.9442136 0.5030732
vn 0.5086343 -0.7530327 0.4174122
vn 0.5518155 -0.7729872 0.3130342
vn 0.5564474 -0.7746561 0.3004566
vn 0.5594388 -0.8222662 0.1044351
vn 0.5674768 -0.8096784 0.1496364
vn 0.553346 -0.8328117 0.01525967
vn 0.5666698 -0.8224159 0.05017262
vn 0.550667 -0.8183858 -0.1643486
vn 0.5153217 -0.8369972 -0.1840631
vn 0.647011 -0.7622828 0.01736553
vn 0.583042 -0.7559038 -0.2977775
vn 0.4366382 -0.8294204 -0.3484378
vn 0.4677951 -0.7943178 -0.3875912
vn 0.4291282 -0.8316744 -0.3523728
g terrainMesh.061_0
f 3/3/3 2/2/2 1/1/1
f 2/2/2 3/3/3 4/4/4
f 3/3/3 5/5/5 4/4/4
f 6/6/6 4/4/4 5/5/5
f 6/6/6 5/5/5 7/7/7
f 7/7/7 8/8/8 6/6/6
f 9/9/9 6/6/6 8/8/8
f 8/8/8 7/7/7 10/10/10
f 10/10/10 11/11/11 8/8/8
f 9/9/9 8/8/8 12/12/12
f 11/11/11 13/13/13 8/8/8
f 8/8/8 13/13/13 12/12/12
f 13/13/13 14/14/14 12/12/12
