g terrainMesh.066
v 5.089675 20 -0.3924621
v 5.089044 20 -0.3754891
v 5.088778 19.99026 -0.3950088
v 5 19.76744 -1.051608
v 5 19.86467 -1.123703
v 5.106023 19.94583 -1.074441
v 5.128934 20 -1.015785
v 5.128102 20 -1.075382
v 5.088778 19.99026 -0.3950088
v 5.093885 20 -0.4017751
v 5.064417 20 -0.3763828
v 5.088778 19.99026 -0.3950088
v 5.089044 20 -0.3754891
v 5.106023 19.94583 -1.074441
v 5 19.85644 -0.9678385
v 5 19.76744 -1.051608
v 5.064417 20 -0.3763828
v 5 20 -0.3562218
v 5 19.97718 -0.381996
v 5.088778 19.99026 -0.3950088
v 5 19.90234 -0.4524415
v 5.098827 20 -1.081267
v 5.128102 20 -1.075382
v 5.106023 19.94583 -1.074441
v 5.078831 20 -1.086933
v 5.027823 20 -1.108778
v 5 20 -1.121332
v 5 19.86467 -1.123703
v 5.106023 19.94583 -1.074441
v 5.088778 19.99026 -0.3950088
v 5 19.90234 -0.4524415
v 5 19.85644 -0.9678385
v 5.088778 19.99026 -0.3950088
v 5.091141 20 -0.395171
v 5.089675 20 -0.3924621
v 5.093885 20 -0.4017751
vt 0.907232 0.9975466
vt 0.9071802 0.9975254
vt 0.907232 0.9975871
vt 0.9965715 0.3008193
vt 0.9961838 0.30101
vt 0.9963942 0.3014522
vt 0.996498 0.3017702
vt 0.9963341 0.3016503
vt 0.9981164 0.3029556
vt 0.9980901 0.3029787
vt 0.3382197 0.7119583
vt 0.33831 0.7118739
vt 0.338231 0.7118598
vt 0.4999241 0.9687344
vt 0.5005596 0.9684477
vt 0.5004168 0.9680789
vt 0.3382197 0.7119583
vt 0.3381006 0.7122029
vt 0.3382064 0.7122218
vt 0.33831 0.7118739
vt 0.3384974 0.7122753
vt 0.9962529 0.3016209
vt 0.9963341 0.3016503
vt 0.9963942 0.3014522
vt 0.9961929 0.3015975
vt 0.9960198 0.3015231
vt 0.9959238 0.3014812
vt 0.9961838 0.30101
vt 0.3410324 0.7122182
vt 0.33831 0.7118739
vt 0.3384974 0.7122753
vt 0.3405564 0.7125904
vt 0.7352083 0.4091405
vt 0.7351974 0.4091789
vt 0.7352083 0.4091794
vt 0.7351733 0.4091778
vn -0.9620729 0.1485958 -0.2287685
vn -0.2677128 0.8636271 -0.4271747
vn -0.6823773 0.6336994 -0.3643985
vn -0.8593373 0.5113846 0.005005197
vn -0.5846305 0.3082159 0.7504733
vn -0.7798647 0.3926028 0.4875184
vn -0.9061856 0.4214135 -0.035189
vn -0.7725004 0.3243574 0.5459263
vn -0.6823773 0.6336994 -0.3643985
vn -0.9144094 0.3768177 -0.1478644
vn -0.1569906 0.7758887 -0.6110242
vn -0.6823773 0.6336994 -0.3643985
vn -0.2677128 0.8636271 -0.4271747
vn -0.7798647 0.3926028 0.4875184
vn -0.7512936 0.6194196 -0.2277655
vn -0.8593373 0.5113846 0.005005197
vn -0.1569906 0.7758887 -0.6110242
vn -0.2031085 0.7331743 -0.6490011
vn -0.2034413 0.7028583 -0.6816169
vn -0.6823773 0.6336994 -0.3643985
vn -0.5955872 0.763841 -0.248642
vn -0.2378675 0.0902456 0.967096
vn -0.7725004 0.3243574 0.5459263
vn -0.7798647 0.3926028 0.4875184
vn -0.3529235 0.03842362 0.9348629
vn -0.4080973 -0.01049846 0.912878
vn -0.4112423 -0.01596139 0.9113863
vn -0.5846305 0.3082159 0.7504733
vn -0.7798647 0.3926028 0.4875184
vn -0.6823773 0.6336994 -0.3643985
vn -0.5955872 0.763841 -0.248642
vn -0.7512936 0.6194196 -0.2277655
vn -0.6823773 0.6336994 -0.3643985
vn -0.8845487 0.2076857 -0.4176604
vn -0.9620729 0.1485958 -0.2287685
vn -0.9144094 0.3768177 -0.1478644
g terrainMesh.066_0
f 3/3/3 2/2/2 1/1/1
f 6/6/6 5/5/5 4/4/4
f 8/8/8 6/6/6 7/7/7
f 7/7/7 6/6/6 9/9/9
f 10/10/10 7/7/7 9/9/9
f 13/13/13 12/12/12 11/11/11
f 16/16/16 15/15/15 14/14/14
f 19/19/19 18/18/18 17/17/17
f 20/20/20 19/19/19 17/17/17
f 19/19/19 20/20/20 21/21/21
f 24/24/24 23/23/23 22/22/22
f 25/25/25 24/24/24 22/22/22
f 25/25/25 26/26/26 24/24/24
f 26/26/26 27/27/27 24/24/24
f 27/27/27 28/28/28 24/24/24
f 31/31/31 30/30/30 29/29/29
f 32/32/32 31/31/31 29/29/29
f 35/35/35 34/34/34 33/33/33
f 34/34/34 36/36/36 33/33/33
