g terrainMesh.046
v -16.56685 23.2613 -7.991149
v -16.84325 20.43501 -8.090914
v -16.64982 21.51629 -7.991149
v -16.64982 21.51629 -7.991149
v -16.84325 20.43501 -8.090914
v -16.61149 22.4406 -8.37701
v -16.56685 23.2613 -7.991149
v -16.49724 24.89875 -8.557032
v -16.37799 27.37991 -8.469091
v -16.25345 30 -8.471752
v -16.25333 30 -8.463422
v -16.24644 30 -7.991149
v -16.25354 30 -8.478202
v -16.36072 27.78146 -8.594601
v -16.56685 23.2613 -7.991149
v -16.24644 30 -7.991149
v -24.10798 30 -7.989581
v -25 20.96027 -7.989489
v -25 29.20863 -7.98941
v -25 30 -7.989618
v -25 20 -7.985539
v -23.97802 20 -7.984593
v -16.84325 20.43501 -8.090914
v -18.32561 20 -8.081568
v -17.15471 20 -8.084406
v -17.01338 20 -8.082278
v -16.78371 20 -8.086811
v -16.5689 20 -8.087383
v -15 20 -8.063292
v -15 20.40783 -8.062652
v -15 22.60725 -8.377145
v -16.61149 22.4406 -8.37701
v -15 23.18612 -8.460714
v -16.49724 24.89875 -8.557032
v -15 24.02963 -8.521764
v -15 25.00409 -8.536301
v -15 25.93609 -8.527476
v -15 27.35456 -8.476861
v -16.37799 27.37991 -8.469091
v -15 27.57188 -8.538095
v -16.36072 27.78146 -8.594601
v -15 27.76701 -8.59903
v -15 28.39637 -8.569079
v -15 29.62255 -8.504446
v -15.94557 30 -8.479762
v -15 30 -8.454091
v -16.25354 30 -8.478202
vt 0.3425044 0.8036723
vt 0.3425044 0.7923685
vt 0.3420848 0.7967207
vt 0.3413926 0.6007457
vt 0.3407398 0.5965084
vt 0.3400898 0.6042089
vt 0.3413926 0.607627
vt 0.339482 0.6138176
vt 0.339779 0.6236432
vt 0.33977 0.633974
vt 0.3397981 0.6339779
vt 0.3413926 0.6342002
vt 0.3397482 0.6339709
vt 0.3393552 0.6251675
vt 0.4929665 0.5677026
vt 0.5191116 0.5749629
vt 0.5257938 0.5494977
vt 0.4911138 0.5382611
vt 0.5234497 0.5458775
vt 0.526552 0.5466087
vt 0.4873509 0.5373656
vt 0.4864827 0.5406734
vt 0.4820825 0.5644185
vt 0.4816407 0.5591951
vt 0.4806444 0.5629936
vt 0.4805252 0.5634466
vt 0.4803282 0.5642006
vt 0.4801454 0.5648975
vt 0.4788214 0.5699255
vt 0.4804205 0.5703007
vt 0.4889196 0.5730283
vt 0.489636 0.5676549
vt 0.4911563 0.5737481
vt 0.499105 0.5706936
vt 0.4944391 0.5746622
vt 0.4982536 0.5755942
vt 0.5019107 0.5764352
vt 0.5074914 0.577633
vt 0.5087649 0.5731762
vt 0.5083193 0.5779693
vt 0.5102752 0.5738809
vt 0.5090604 0.5782844
vt 0.5115393 0.5787992
vt 0.5163716 0.5797883
vt 0.5186646 0.5770197
vt 0.517871 0.5800253
vt 0.518927 0.5760188
vn -0.7093834 0.0422688 -0.7035543
vn -0.02868796 -0.02047832 -0.9993786
vn -0.5577084 0.1512228 -0.8161453
vn -0.5577084 0.1512228 -0.8161453
vn -0.02868796 -0.02047832 -0.9993786
vn -0.7041804 -0.04806849 -0.7083921
vn -0.7093834 0.0422688 -0.7035543
vn -0.7007485 0.02169906 -0.7130782
vn -0.7550162 -0.05057042 -0.6537532
vn -0.9987657 0.04748761 0.01455758
vn -0.9987662 0.04748764 0.01452706
vn -0.7221727 0.03433395 -0.6908602
vn -0.713423 0.07101879 -0.6971256
vn -0.6783862 -0.06464019 -0.7318563
vn -0.7093834 0.0422688 -0.7035543
vn -0.7221727 0.03433395 -0.6908602
vn -0.000122074 -3.051851E-05 -1
vn 0.0004577903 -0.00238051 -0.9999971
vn -0.000122074 -6.103702E-05 -1
vn 3.051944E-05 -0.0002441555 -1
vn 0.0009155752 -0.00408957 -0.9999913
vn -0.001434411 0.001281814 -0.9999982
vn -0.02868796 -0.02047832 -0.9993786
vn -0.01577842 0.03238087 -0.9993511
vn 0.002838233 -0.01699888 -0.9998515
vn 0.001770076 -0.02053898 -0.9997875
vn -0.01043742 -0.01083417 -0.9998869
vn 0.00955242 -0.002075286 -0.9999522
vn 0.01535086 0.001556449 -0.9998809
vn 0.0142524 -0.06943085 -0.9974849
vn 0.0143136 -0.1425561 -0.9896832
vn -0.7041804 -0.04806849 -0.7083921
vn -0.006439464 -0.09778219 -0.9951871
vn -0.7007485 0.02169906 -0.7130782
vn -0.007324629 -0.05313408 -0.9985605
vn 0.01397779 -0.002166862 -0.9999
vn 0.0005798609 0.02758917 -0.9996191
vn -0.007751739 -0.1174663 -0.9930466
vn -0.7550162 -0.05057042 -0.6537532
vn -0.008148722 -0.2859072 -0.9582227
vn -0.6783862 -0.06464019 -0.7318563
vn -0.004577894 -0.1283031 -0.9917244
vn -0.004211616 0.05075303 -0.9987024
vn 0.007049885 0.08285904 -0.9965364
vn -0.001159711 0.06234974 -0.9980537
vn 0.02688726 0.1321779 -0.9908613
vn -0.713423 0.07101879 -0.6971256
g terrainMesh.046_0
f 3/3/3 2/2/2 1/1/1
f 6/6/6 5/5/5 4/4/4
f 4/4/4 7/7/7 6/6/6
f 6/6/6 7/7/7 8/8/8
f 8/8/8 7/7/7 9/9/9
f 10/10/10 9/9/9 7/7/7
f 11/11/11 10/10/10 7/7/7
f 7/7/7 12/12/12 11/11/11
f 9/9/9 10/10/10 13/13/13
f 14/14/14 9/9/9 13/13/13
f 17/17/17 16/16/16 15/15/15
f 15/15/15 18/18/18 17/17/17
f 18/18/18 19/19/19 17/17/17
f 19/19/19 20/20/20 17/17/17
f 18/18/18 15/15/15 21/21/21
f 15/15/15 22/22/22 21/21/21
f 22/22/22 15/15/15 23/23/23
f 24/24/24 22/22/22 23/23/23
f 25/25/25 24/24/24 23/23/23
f 26/26/26 25/25/25 23/23/23
f 26/26/26 23/23/23 27/27/27
f 28/28/28 27/27/27 23/23/23
f 29/29/29 28/28/28 23/23/23
f 30/30/30 29/29/29 23/23/23
f 23/23/23 31/31/31 30/30/30
f 23/23/23 32/32/32 31/31/31
f 32/32/32 33/33/33 31/31/31
f 32/32/32 34/34/34 33/33/33
f 34/34/34 35/35/35 33/33/33
f 36/36/36 35/35/35 34/34/34
f 37/37/37 36/36/36 34/34/34
f 38/38/38 37/37/37 34/34/34
f 39/39/39 38/38/38 34/34/34
f 38/38/38 39/39/39 40/40/40
f 39/39/39 41/41/41 40/40/40
f 41/41/41 42/42/42 40/40/40
f 42/42/42 41/41/41 43/43/43
f 44/44/44 43/43/43 41/41/41
f 41/41/41 45/45/45 44/44/44
f 46/46/46 44/44/44 45/45/45
f 41/41/41 47/47/47 45/45/45
