g terrainMesh.040
v -49.91483 -20 47.11593
v -41.75395 -20 43.18076
v -50.58128 -24.5823 46.56614
v -38.56321 -22.0968 39.55741
v -37.62158 -20 40.2244
v -34.89854 -20 38.21572
v -33.66314 -20.84642 36.05511
v -33.05544 -20 36.38112
v -31.62703 -20 35.18934
vt 0.3387516 0.4060085
vt 0.3033733 0.4058741
vt 0.339617 0.4246537
vt 0.2842413 0.4147414
vt 0.2829592 0.4060307
vt 0.2693501 0.406148
vt 0.2599789 0.4098969
vt 0.2589066 0.4063381
vt 0.2514096 0.4064318
vn 0.4280935 -0.1687715 0.8878356
vn 0.5070144 -0.4211335 0.7520525
vn 0.4535792 -0.2395467 0.858419
vn 0.5251762 -0.4816862 0.7015472
vn 0.5216753 -0.4623448 0.7170022
vn 0.5528222 -0.5889873 0.5894756
vn 0.5430602 -0.6115456 0.5754107
vn 0.5310987 -0.6084349 0.5896959
vn 0.5111099 -0.6029125 0.6125872
g terrainMesh.040_0
f 3/3/3 2/2/2 1/1/1
f 2/2/2 3/3/3 4/4/4
f 5/5/5 2/2/2 4/4/4
f 6/6/6 5/5/5 4/4/4
f 4/4/4 7/7/7 6/6/6
f 7/7/7 8/8/8 6/6/6
f 7/7/7 9/9/9 8/8/8
