g terrainMesh.045
v -14.67084 -15.06824 2.161319
v -13.6334 -15.97687 3.511016
v -12.64025 -14.81805 3.506662
v -14.67084 -15.06824 2.161319
v -12.64025 -14.81805 3.506662
v -12.32901 -13.63768 1.910686
v -11.47844 -11.78979 16.78372
v -10.00181 -10.35771 17.61337
v -9.402812 -11.56401 15.85432
v -11.47844 -11.78979 16.78372
v -12.15743 -10.91144 18.71954
v -10.00181 -10.35771 17.61337
v -6.672574 -11.64903 14.83684
v -5.952456 -9.999999 14.37065
v -6.622761 -9.999999 13.58313
v -10.00181 -10.35771 17.61337
v -8.126085 -10.30302 17.3794
v -7.494447 -11.17598 16.31364
v -9.402812 -11.56401 15.85432
v -7.99443 -11.7986 15.02028
v -6.672574 -11.64903 14.83684
v -6.356406 -10.9362 15.83268
v -8.534792 -11.69287 14.13813
v -10.37454 -12.26941 15.37042
v -11.47844 -11.78979 16.78372
v -11.25136 -12.75157 14.28269
v -9.270868 -9.999999 12.56384
v -9.425751 -9.999999 12.52289
v -9.520669 -9.999999 12.44517
v -11.36078 -11.37675 12.56685
v -13.29098 -11.86876 0.07502174
v -14.67084 -15.06824 2.161319
v -12.32901 -13.63768 1.910686
v -11.67312 -12.17906 1.666809
v -11.56605 -12.96408 3.523305
v -12.64025 -14.81805 3.506662
v -12.03705 -14.81386 5.426706
v -11.44329 -13.3269 7.279372
v -11.94925 -15.21699 7.45741
v -11.41275 -13.02305 10.02458
v -11.77164 -15.30685 10.08984
v -11.51911 -14.73407 12.6367
v -11.25136 -12.75157 14.28269
v -11.36078 -11.37675 12.56685
v -11.34567 -9.999999 8.978734
v -11.33742 -9.999999 9.96714
v -11.33112 -9.999999 11.44794
v -9.520669 -9.999999 12.44517
v -11.37961 -9.999999 6.857818
v -11.42903 -9.999999 5.444273
v -11.44491 -9.999999 4.229877
v -11.52191 -9.999999 3.098978
v -11.55989 -9.999999 1.165539
v -11.66604 -9.999999 0.5619492
v -11.74451 -10.63359 0.448719
v -11.93246 -9.999999 -0.1922764
v -12.67564 -9.999999 -0.8229554
v -14.37281 -9.999999 -1.420434
v -13.80382 -17.88527 8.836637
v -12.90738 -16.61497 8.500916
v -14.2405 -17.53493 6.711978
v -12.701 -16.86346 10.44804
v -13.52257 -18.20645 10.63814
v -11.77164 -15.30685 10.08984
v -12.44453 -16.76553 12.36166
v -11.51911 -14.73407 12.6367
v -12.44453 -16.76553 12.36166
v -13.52257 -18.20645 10.63814
v -14.06669 -18.56903 12.46136
v -15 -18.60762 9.815356
v -13.80382 -17.88527 8.836637
v -15 -18.74096 11.13511
v -15 -18.79547 12.89906
v -15 -18.7929 13.30001
v -15 -18.38467 8.892929
v -15 -18.02893 7.460197
v -14.2405 -17.53493 6.711978
v -15 -17.59249 6.293527
v -15 -17.05742 4.243092
v -14.53419 -16.91539 4.090772
v -15 -15.40192 2.512819
v -14.67084 -15.06824 2.161319
v -15 -15.07722 2.136335
v -13.6334 -15.97687 3.511016
v -13.40467 -16.3634 5.27032
v -12.64025 -14.81805 3.506662
v -12.03705 -14.81386 5.426706
v -12.90738 -16.61497 8.500916
v -11.94925 -15.21699 7.45741
v -11.77164 -15.30685 10.08984
v -15 -18.16248 14.23567
v -14.06669 -18.56903 12.46136
v -15 -18.7929 13.30001
v -12.4222 -15.69946 13.64666
v -12.44453 -16.76553 12.36166
v -15 -17.42788 15.11894
v -11.51911 -14.73407 12.6367
v -14.42202 -15.99881 15.69207
v -15 -16.87099 15.60188
v -15 -16.42762 16.03145
v -15 -15.86867 16.44814
v -12.46757 -13.35907 15.9828
v -15 -15.4246 16.85869
v -15 -13.50303 19.03454
v -12.27419 -14.35591 14.77371
v -11.25136 -12.75157 14.28269
v -11.47844 -11.78979 16.78372
v -12.15743 -10.91144 18.71954
v -14.08322 -11.84956 19.78186
v -15 -13.19443 19.39147
v -15 -11.34403 19.85678
v -14.34688 -9.999999 20.0159
v -15 -10.42868 19.97092
v -15 -9.999999 20.21138
v -13.97935 -9.999999 20.01113
v -13.57559 -9.999999 19.75707
v -12.08671 -9.999999 19.20396
v -11.09022 -9.999999 18.91271
v -10.00181 -10.35771 17.61337
v -9.982666 -9.999999 18.01365
v -9.498287 -9.999999 17.72705
v -8.126085 -10.30302 17.3794
v -8.158764 -9.999999 17.53988
v -7.542726 -9.999999 17.19065
v -7.332301 -9.999999 17.04417
v -7.494447 -11.17598 16.31364
v -6.657523 -9.999999 16.20332
v -6.356406 -10.9362 15.83268
v -6.42801 -9.999999 16.09455
v -6.131978 -9.999999 15.63484
v -5.950977 -10.16559 15.32711
v -6.672574 -11.64903 14.83684
v -5.922065 -9.999999 15.3085
v -5.890654 -9.999999 15.13251
v -13.29098 -11.86876 0.07502174
v -15 -15.07722 2.136335
v -14.67084 -15.06824 2.161319
v -15 -12.95252 0.6639736
v -15 -9.999999 -1.495146
v -14.37281 -9.999999 -1.420434
v -8.534792 -11.69287 14.13813
v -6.750967 -9.999999 13.5327
v -9.270868 -9.999999 12.56384
v -6.622761 -9.999999 13.58313
v -6.672574 -11.64903 14.83684
v -5.950977 -10.16559 15.32711
v -5.952456 -9.999999 14.37065
v -5.890654 -9.999999 15.13251
vt 0.5173956 0.9889588
vt 0.5133069 0.9955137
vt 0.5173956 0.9984782
vt 0.2855888 0.9877567
vt 0.2793509 0.9953505
vt 0.2855888 0.9972877
vt 0.9365999 0.4125365
vt 0.9432229 0.4125365
vt 0.9407883 0.4047093
vt 0.4436429 0.9918329
vt 0.4493774 0.997807
vt 0.4493774 0.9880324
vt 0.5276432 0.9896405
vt 0.53373 0.9910096
vt 0.5342886 0.9868794
vt 0.2503283 0.960421
vt 0.2427971 0.961579
vt 0.2404009 0.9659671
vt 0.2481534 0.9676067
vt 0.2425825 0.9711356
vt 0.237274 0.9720237
vt 0.2358646 0.9680308
vt 0.244858 0.9746251
vt 0.2521446 0.969461
vt 0.2564148 0.9636275
vt 0.2558165 0.9737541
vt 0.2479552 0.9808432
vt 0.2485839 0.9809904
vt 0.2489753 0.9812925
vt 0.2564148 0.9806225
vt 0.9359953 0.5766087
vt 0.9289805 0.5863361
vt 0.9362767 0.5872217
vt 0.9410938 0.5842933
vt 0.9430541 0.5904222
vt 0.9358349 0.5929408
vt 0.9410539 0.5981995
vt 0.9505383 0.5993455
vt 0.9445145 0.6036235
vt 0.957618 0.6042182
vt 0.9503911 0.6096428
vt 0.9581712 0.6138868
vt 0.9681766 0.6125629
vt 0.9682887 0.6051437
vt 0.9644197 0.5941671
vt 0.9666376 0.596207
vt 0.9699512 0.5992498
vt 0.9749447 0.6053197
vt 0.9596356 0.5897534
vt 0.9564061 0.5867522
vt 0.9536723 0.584233
vt 0.9510313 0.5817485
vt 0.9466593 0.5777093
vt 0.9451503 0.5762385
vt 0.9428845 0.5775217
vt 0.94306 0.5741028
vt 0.9405165 0.5711585
vt 0.936588 0.5661585
vt 0.9367833 0.6094315
vt 0.9412006 0.607353
vt 0.9324218 0.6031795
vt 0.9451181 0.6124576
vt 0.9402732 0.6145988
vt 0.9503911 0.6096428
vt 0.9500726 0.6166814
vt 0.9581712 0.6138868
vt 0.07252487 0.95376
vt 0.08062267 0.9553115
vt 0.07675573 0.9486947
vt 0.08712307 0.9532141
vt 0.08669497 0.9594344
vt 0.0832369 0.9495865
vt 0.07803808 0.9447385
vt 0.07685581 0.9436367
vt 0.0898344 0.9557501
vt 0.09404535 0.9596891
vt 0.09414604 0.9639872
vt 0.0974688 0.9628973
vt 0.1034943 0.9685346
vt 0.1026582 0.9703275
vt 0.1085337 0.9732968
vt 0.1086531 0.9752349
vt 0.1096315 0.9743328
vt 0.1018572 0.9745812
vt 0.09605611 0.9704191
vt 0.09909776 0.9775268
vt 0.09177914 0.9740289
vt 0.08517404 0.9630061
vt 0.08556566 0.9687052
vt 0.07731952 0.9619941
vt 0.1456797 0.4017817
vt 0.1382196 0.4037102
vt 0.1432852 0.4045354
vt 0.1360743 0.3916799
vt 0.1328649 0.3962703
vt 0.147933 0.3986211
vt 0.1306194 0.3879159
vt 0.1475634 0.392665
vt 0.149157 0.3962686
vt 0.1502485 0.3943851
vt 0.1513005 0.3920398
vt 0.1421534 0.3817277
vt 0.1523426 0.3901579
vt 0.1578876 0.3819218
vt 0.138472 0.3859941
vt 0.133961 0.3795237
vt 0.1410993 0.3751016
vt 0.1481697 0.3712049
vt 0.1569133 0.3749789
vt 0.1587976 0.3805974
vt 0.1599093 0.3730461
vt 0.1582384 0.3675188
vt 0.1601582 0.3693377
vt 0.1607599 0.3675574
vt 0.1570924 0.3674726
vt 0.1551881 0.3674798
vt 0.1491612 0.3674169
vt 0.1453322 0.3673564
vt 0.1386232 0.3689578
vt 0.139584 0.3674232
vt 0.1373467 0.3674276
vt 0.1322282 0.3685507
vt 0.1327296 0.3672987
vt 0.1299237 0.3673007
vt 0.1288947 0.3673077
vt 0.1275604 0.372229
vt 0.1246324 0.3674167
vt 0.1227904 0.3712299
vt 0.1236424 0.3674125
vt 0.1215368 0.3674815
vt 0.1201889 0.3681959
vt 0.1212192 0.3743699
vt 0.1200429 0.3675305
vt 0.1194895 0.3675674
vt 0.3556216 0.5280042
vt 0.3453032 0.5149401
vt 0.3450684 0.5159591
vt 0.353056 0.5201637
vt 0.3637853 0.5276731
vt 0.3632815 0.5295389
vt 0.5288564 0.982647
vt 0.5343844 0.9863925
vt 0.536264 0.9768908
vt 0.5342886 0.9868794
vt 0.5276432 0.9896405
vt 0.5329663 0.9938163
vt 0.53373 0.9910096
vt 0.5336022 0.9934754
vn 0.2061554 -0.6588429 -0.723482
vn 0.5536208 -0.6550671 -0.5141898
vn 0.7069237 -0.6032489 -0.3692557
vn 0.2061554 -0.6588429 -0.723482
vn 0.7069237 -0.6032489 -0.3692557
vn 0.6285741 -0.5799264 -0.5182471
vn 0.4884073 -0.7227378 0.4889872
vn 0.3206079 -0.7103427 0.626597
vn 0.224351 -0.864809 0.4491904
vn 0.4884073 -0.7227378 0.4889872
vn 0.4795567 -0.5625399 0.6734791
vn 0.3206079 -0.7103427 0.626597
vn 0.5314689 -0.830897 -0.1647755
vn 0.8169195 -0.4564214 -0.3525935
vn 0.4538817 -0.5479419 -0.7026743
vn 0.3206079 -0.7103427 0.626597
vn 0.276442 -0.5604222 0.7807091
vn 0.3064691 -0.731595 0.6089708
vn 0.224351 -0.864809 0.4491904
vn 0.03897294 -0.9923909 0.1167968
vn 0.5314689 -0.830897 -0.1647755
vn 0.7005377 -0.4782664 0.5296302
vn 0.225475 -0.8534359 -0.4699025
vn 0.2839509 -0.9001037 0.3304317
vn 0.4884073 -0.7227378 0.4889872
vn 0.7695969 -0.6354965 0.06216715
vn 0.2316447 -0.6065491 -0.7605517
vn 0.3213405 -0.6522641 -0.686507
vn 0.4479322 -0.6527169 -0.610997
vn 0.8646449 -0.3528042 -0.3576567
vn 0.3324469 -0.5460516 -0.7689647
vn 0.2061554 -0.6588429 -0.723482
vn 0.6285741 -0.5799264 -0.5182471
vn 0.8810543 -0.2904497 -0.3733395
vn 0.9575115 -0.2566976 -0.1314465
vn 0.7069237 -0.6032489 -0.3692557
vn 0.8602535 -0.4850161 -0.1572365
vn 0.9872977 -0.1563806 -0.02807771
vn 0.8856114 -0.4537317 -0.09909642
vn 0.9955042 -0.09070291 -0.02728412
vn 0.9301539 -0.359207 -0.07605301
vn 0.9419197 -0.3081542 0.1335223
vn 0.7695969 -0.6354965 0.06216715
vn 0.8646449 -0.3528042 -0.3576567
vn 0.9996588 -0.02368296 -0.01101746
vn 0.9996668 -0.02502524 -0.006317347
vn 0.9142986 -0.2671358 -0.304461
vn 0.4479322 -0.6527169 -0.610997
vn 0.9994045 -0.02243144 -0.02621579
vn 0.9992156 -0.02801625 -0.02798573
vn 0.9988212 -0.03213636 -0.03637848
vn 0.9980111 -0.03457835 -0.0527068
vn 0.9913322 -0.07614598 -0.1070622
vn 0.9669924 -0.07629734 -0.2431138
vn 0.8353004 -0.2989014 -0.4614447
vn 0.6871485 -0.405819 -0.6026093
vn 0.4336778 -0.5022849 -0.7480865
vn 0.1577209 -0.5597138 -0.8135383
vn 0.5986598 -0.7683452 -0.2263896
vn 0.7767435 -0.6092237 -0.1597373
vn 0.4933408 -0.8335063 -0.2487609
vn 0.8324106 -0.5383888 -0.131263
vn 0.6238806 -0.7731213 -0.1142652
vn 0.9301539 -0.359207 -0.07605301
vn 0.8126031 -0.5475746 0.1995953
vn 0.9419197 -0.3081542 0.1335223
vn 0.8126031 -0.5475746 0.1995953
vn 0.6238806 -0.7731213 -0.1142652
vn 0.5331711 -0.8253317 0.1858926
vn 0.3475527 -0.9211916 -0.1749666
vn 0.5986598 -0.7683452 -0.2263896
vn 0.2927403 -0.9526268 -0.08249344
vn 0.2327082 -0.9725219 -0.006927838
vn 0.4960293 -0.7995737 0.3385805
vn 0.3668448 -0.9036224 -0.221114
vn 0.3410187 -0.9057109 -0.2517813
vn 0.4933408 -0.8335063 -0.2487609
vn 0.2250488 -0.933217 -0.2801055
vn 0.1328812 -0.8942472 -0.4273928
vn 0.3081233 -0.8260977 -0.4718291
vn 0.00866749 -0.7292594 -0.6841823
vn 0.2061554 -0.6588429 -0.723482
vn 0.0745583 -0.665104 -0.7430193
vn 0.5536208 -0.6550671 -0.5141898
vn 0.6927884 -0.6890346 -0.2127807
vn 0.7069237 -0.6032489 -0.3692557
vn 0.8602535 -0.4850161 -0.1572365
vn 0.7767435 -0.6092237 -0.1597373
vn 0.8856114 -0.4537317 -0.09909642
vn 0.9301539 -0.359207 -0.07605301
vn 0.6451735 -0.5974417 0.4762504
vn 0.5331711 -0.8253317 0.1858926
vn 0.4960293 -0.7995737 0.3385805
vn 0.7495172 -0.4900748 0.4450288
vn 0.8126031 -0.5475746 0.1995953
vn 0.6601179 -0.5377936 0.5244258
vn 0.9419197 -0.3081542 0.1335223
vn 0.6518961 -0.5057993 0.5649766
vn 0.6642805 -0.4978594 0.557555
vn 0.680612 -0.4777804 0.5554217
vn 0.642802 -0.502809 0.5779175
vn 0.6870427 -0.5581001 0.4652919
vn 0.6351895 -0.547936 0.5443348
vn 0.6405019 -0.5792809 0.5041736
vn 0.74953 -0.4658812 0.470276
vn 0.7695969 -0.6354965 0.06216715
vn 0.4884073 -0.7227378 0.4889872
vn 0.4795567 -0.5625399 0.6734791
vn 0.3579607 -0.3724268 0.856249
vn 0.5375046 -0.5515739 0.6378518
vn -0.01016269 -0.1646478 0.9863001
vn 0.06375441 -0.1997475 0.9777711
vn 0.09302101 -0.2430204 0.9655507
vn 0.2525766 -0.4733523 0.8438855
vn 0.2837661 -0.1336124 0.9495391
vn 0.4959063 -0.1923014 0.8468159
vn 0.2796817 -0.4674383 0.8386177
vn 0.412898 -0.6240622 0.6633713
vn 0.3206079 -0.7103427 0.626597
vn 0.4288258 -0.6836919 0.5904862
vn 0.1926973 -0.5330761 0.8238311
vn 0.276442 -0.5604222 0.7807091
vn 0.2673811 -0.4282798 0.8631824
vn 0.4875258 -0.4872817 0.7244827
vn 0.5814577 -0.4856569 0.6527207
vn 0.3064691 -0.731595 0.6089708
vn 0.5291319 -0.3021954 0.7929044
vn 0.7005377 -0.4782664 0.5296302
vn 0.6209478 -0.1667275 0.765915
vn 0.837638 -0.08664484 0.5393099
vn 0.9336568 -0.2626215 0.2435467
vn 0.5314689 -0.830897 -0.1647755
vn 0.9308128 -0.1238785 0.3438627
vn 0.932473 -0.3607939 -0.01794509
vn 0.3324469 -0.5460516 -0.7689647
vn 0.0745583 -0.665104 -0.7430193
vn 0.2061554 -0.6588429 -0.723482
vn 0.08316438 -0.57388 -0.8147057
vn 0.0957084 -0.5875873 -0.8034806
vn 0.1577209 -0.5597138 -0.8135383
vn 0.225475 -0.8534359 -0.4699025
vn 0.29576 -0.5824558 -0.7571468
vn 0.2316447 -0.6065491 -0.7605517
vn 0.4538817 -0.5479419 -0.7026743
vn 0.5314689 -0.830897 -0.1647755
vn 0.9336568 -0.2626215 0.2435467
vn 0.8169195 -0.4564214 -0.3525935
vn 0.932473 -0.3607939 -0.01794509
g terrainMesh.045_0
f 3/3/3 2/2/2 1/1/1
f 6/6/6 5/5/5 4/4/4
f 9/9/9 8/8/8 7/7/7
f 12/12/12 11/11/11 10/10/10
f 15/15/15 14/14/14 13/13/13
f 18/18/18 17/17/17 16/16/16
f 19/19/19 18/18/18 16/16/16
f 18/18/18 19/19/19 20/20/20
f 21/21/21 18/18/18 20/20/20
f 22/22/22 18/18/18 21/21/21
f 20/20/20 23/23/23 21/21/21
f 19/19/19 23/23/23 20/20/20
f 24/24/24 23/23/23 19/19/19
f 19/19/19 25/25/25 24/24/24
f 24/24/24 25/25/25 26/26/26
f 26/26/26 23/23/23 24/24/24
f 27/27/27 23/23/23 26/26/26
f 28/28/28 27/27/27 26/26/26
f 29/29/29 28/28/28 26/26/26
f 30/30/30 29/29/29 26/26/26
f 33/33/33 32/32/32 31/31/31
f 34/34/34 33/33/33 31/31/31
f 35/35/35 33/33/33 34/34/34
f 33/33/33 35/35/35 36/36/36
f 36/36/36 35/35/35 37/37/37
f 37/37/37 35/35/35 38/38/38
f 39/39/39 37/37/37 38/38/38
f 40/40/40 39/39/39 38/38/38
f 40/40/40 41/41/41 39/39/39
f 41/41/41 40/40/40 42/42/42
f 42/42/42 40/40/40 43/43/43
f 43/43/43 40/40/40 44/44/44
f 38/38/38 45/45/45 40/40/40
f 45/45/45 46/46/46 40/40/40
f 40/40/40 46/46/46 44/44/44
f 46/46/46 47/47/47 44/44/44
f 44/44/44 47/47/47 48/48/48
f 45/45/45 38/38/38 49/49/49
f 38/38/38 35/35/35 49/49/49
f 35/35/35 50/50/50 49/49/49
f 50/50/50 35/35/35 51/51/51
f 52/52/52 51/51/51 35/35/35
f 34/34/34 52/52/52 35/35/35
f 34/34/34 53/53/53 52/52/52
f 54/54/54 53/53/53 34/34/34
f 55/55/55 54/54/54 34/34/34
f 56/56/56 54/54/54 55/55/55
f 34/34/34 31/31/31 55/55/55
f 57/57/57 56/56/56 55/55/55
f 31/31/31 57/57/57 55/55/55
f 57/57/57 31/31/31 58/58/58
f 61/61/61 60/60/60 59/59/59
f 60/60/60 62/62/62 59/59/59
f 59/59/59 62/62/62 63/63/63
f 64/64/64 62/62/62 60/60/60
f 63/63/63 62/62/62 65/65/65
f 62/62/62 64/64/64 65/65/65
f 65/65/65 64/64/64 66/66/66
f 69/69/69 68/68/68 67/67/67
f 70/70/70 68/68/68 69/69/69
f 68/68/68 70/70/70 71/71/71
f 72/72/72 70/70/70 69/69/69
f 73/73/73 72/72/72 69/69/69
f 74/74/74 73/73/73 69/69/69
f 70/70/70 75/75/75 71/71/71
f 75/75/75 76/76/76 71/71/71
f 76/76/76 77/77/77 71/71/71
f 78/78/78 77/77/77 76/76/76
f 77/77/77 78/78/78 79/79/79
f 80/80/80 77/77/77 79/79/79
f 80/80/80 79/79/79 81/81/81
f 82/82/82 80/80/80 81/81/81
f 82/82/82 81/81/81 83/83/83
f 82/82/82 84/84/84 80/80/80
f 77/77/77 80/80/80 85/85/85
f 80/80/80 84/84/84 85/85/85
f 84/84/84 86/86/86 85/85/85
f 87/87/87 85/85/85 86/86/86
f 77/77/77 85/85/85 88/88/88
f 85/85/85 87/87/87 89/89/89
f 88/88/88 85/85/85 89/89/89
f 90/90/90 88/88/88 89/89/89
f 93/93/93 92/92/92 91/91/91
f 91/91/91 92/92/92 94/94/94
f 95/95/95 94/94/94 92/92/92
f 96/96/96 91/91/91 94/94/94
f 95/95/95 97/97/97 94/94/94
f 96/96/96 94/94/94 98/98/98
f 99/99/99 96/96/96 98/98/98
f 98/98/98 100/100/100 99/99/99
f 100/100/100 98/98/98 101/101/101
f 101/101/101 98/98/98 102/102/102
f 103/103/103 101/101/101 102/102/102
f 102/102/102 104/104/104 103/103/103
f 94/94/94 97/97/97 105/105/105
f 105/105/105 98/98/98 94/94/94
f 98/98/98 105/105/105 102/102/102
f 106/106/106 105/105/105 97/97/97
f 106/106/106 102/102/102 105/105/105
f 106/106/106 107/107/107 102/102/102
f 108/108/108 102/102/102 107/107/107
f 102/102/102 109/109/109 104/104/104
f 109/109/109 102/102/102 108/108/108
f 109/109/109 110/110/110 104/104/104
f 109/109/109 111/111/111 110/110/110
f 112/112/112 111/111/111 109/109/109
f 112/112/112 113/113/113 111/111/111
f 114/114/114 113/113/113 112/112/112
f 109/109/109 115/115/115 112/112/112
f 109/109/109 108/108/108 115/115/115
f 108/108/108 116/116/116 115/115/115
f 116/116/116 108/108/108 117/117/117
f 108/108/108 118/118/118 117/117/117
f 108/108/108 119/119/119 118/118/118
f 119/119/119 120/120/120 118/118/118
f 120/120/120 119/119/119 121/121/121
f 121/121/121 119/119/119 122/122/122
f 123/123/123 121/121/121 122/122/122
f 122/122/122 124/124/124 123/123/123
f 125/125/125 124/124/124 122/122/122
f 126/126/126 125/125/125 122/122/122
f 126/126/126 127/127/127 125/125/125
f 127/127/127 126/126/126 128/128/128
f 129/129/129 127/127/127 128/128/128
f 130/130/130 129/129/129 128/128/128
f 131/131/131 130/130/130 128/128/128
f 132/132/132 131/131/131 128/128/128
f 131/131/131 133/133/133 130/130/130
f 131/131/131 134/134/134 133/133/133
f 137/137/137 136/136/136 135/135/135
f 136/136/136 138/138/138 135/135/135
f 138/138/138 139/139/139 135/135/135
f 139/139/139 140/140/140 135/135/135
f 143/143/143 142/142/142 141/141/141
f 142/142/142 144/144/144 141/141/141
f 144/144/144 145/145/145 141/141/141
f 145/145/145 147/147/147 146/146/146
f 147/147/147 148/148/148 146/146/146
