g terrainMesh.026
v -38.83272 6.257613 -3.497582
v -41.60138 7.342147 -2.64837
v -39.43665 4.308441 -0.4114379
v -36.59649 3.555496 -2.137304
v -38.19946 7.946395 -5.709613
v -29.95089 1.863022 -4.656639
v -35.14979 7.692458 -6.739791
v -42.01624 9.424132 -5.568409
v -36.18141 0.741867 0.3842945
v -38.69917 1.363663 3.140951
v -40.90863 4.210159 1.740099
v -37.44274 0 2.543351
v -37.739 0 3.56354
v -36.45572 0 1.282622
v -36.14988 0 0.8297711
v -35.8193 0 0.6998551
v -35.16696 0 0.2718707
v -32.02979 0 -1.833755
v -29.02224 0 -3.723258
v -27.8102 0 -4.272605
v -26.93626 3.390075 -6.779716
v -25.73444 0 -5.059639
v -25 0 -5.271518
v -25 1.817471 -6.379552
v -25 4.134044 -7.261577
v -26.05449 7.569823 -7.898454
v -25 6.689614 -7.859925
v -25 9.042611 -7.920486
v -30.19284 4.054946 -6.399169
v -29.0679 9.999999 -7.923285
v -25 9.999999 -7.933147
v -32.58739 9.999999 -7.83964
v -29.43147 6.464416 -7.622087
v -31.99287 8.896972 -7.809993
v -33.32166 9.999999 -7.828801
v -34.6013 9.999999 -7.537308
v -37.05735 9.999999 -7.273705
v -37.53887 9.999999 -7.089064
v -39.66515 9.999999 -6.720183
v -39.78405 9.97795 -6.685975
v -39.79391 9.999999 -6.693
v -41.84099 9.999999 -5.916125
v -42.88519 9.999999 -5.867849
v -41.60138 7.342147 -2.64837
v -38.83272 6.257613 -3.497582
v -42.01624 9.424132 -5.568409
v -45.13098 9.375823 -3.919117
v -45.15947 9.999999 -4.709053
v -42.88519 9.999999 -5.867849
v -45.89382 9.999999 -4.53537
v -46.44733 9.999999 -4.328218
v -43.17163 6.759871 0.1672745
v -39.43665 4.308441 -0.4114379
v -40.90863 4.210159 1.740099
vt 0.4469909 0.4699327
vt 0.4539281 0.460086
vt 0.4410713 0.4593403
vt 0.4350299 0.4716669
vt 0.452207 0.4784434
vt 0.4217604 0.4972085
vt 0.4482162 0.4903681
vt 0.4612993 0.4671334
vt 0.4246343 0.4648271
vt 0.4302911 0.4511402
vt 0.4427795 0.449716
vt 0.4236434 0.455274
vt 0.4242947 0.4520546
vt 0.4223109 0.4612637
vt 0.4218736 0.4632573
vt 0.4215418 0.4646158
vt 0.4208198 0.4676767
vt 0.417329 0.4825017
vt 0.4140331 0.4964282
vt 0.4127878 0.5015706
vt 0.4243534 0.5130854
vt 0.4107155 0.510037
vt 0.4100083 0.5128851
vt 0.4166994 0.5170179
vt 0.4254356 0.521111
vt 0.4395517 0.5222792
vt 0.4352199 0.5247963
vt 0.4444205 0.5271032
vt 0.4298767 0.502309
vt 0.45163 0.5148185
vt 0.4481688 0.5280154
vt 0.4546539 0.5032344
vt 0.4381965 0.5097089
vt 0.4498361 0.5040756
vt 0.4552823 0.5008322
vt 0.456484 0.496042
vt 0.4586746 0.4875035
vt 0.4591561 0.485535
vt 0.4611077 0.4778313
vt 0.4611357 0.47735
vt 0.4612278 0.477354
vt 0.4632718 0.4690031
vt 0.4641781 0.4655142
vt 0.8082824 0.9277239
vt 0.8169947 0.9354593
vt 0.8174725 0.9202769
vt 0.8052862 0.9129755
vt 0.8079467 0.911252
vt 0.8166882 0.9166768
vt 0.8058155 0.909082
vt 0.8039461 0.9076055
vt 0.7953006 0.9281631
vt 0.8051051 0.9397445
vt 0.7946153 0.9391547
vn -0.4235785 -0.6995043 -0.5755651
vn -0.4193937 -0.7777187 -0.4682548
vn -0.5411752 -0.6874561 -0.4842865
vn -0.4534888 -0.6496984 -0.6101147
vn -0.3047387 -0.6008404 -0.7390028
vn -0.357233 -0.5823463 -0.7302448
vn -0.2527012 -0.4333459 -0.8650743
vn -0.2652692 -0.6638749 -0.6992156
vn -0.5496328 -0.5630617 -0.6171429
vn -0.6733072 -0.6061352 -0.4233882
vn -0.5698324 -0.7050955 -0.4220563
vn -0.7443966 -0.4844941 -0.4594988
vn -0.7636228 -0.6063874 -0.2217531
vn -0.7311993 -0.3993382 -0.5530612
vn -0.6093809 -0.427058 -0.6680392
vn -0.4027338 -0.5176698 -0.7548665
vn -0.469056 -0.5349173 -0.7027447
vn -0.4640834 -0.5427939 -0.7000011
vn -0.386887 -0.5599287 -0.7326652
vn -0.3154802 -0.5253935 -0.7902114
vn -0.1731669 -0.41192 -0.8946145
vn -0.2686892 -0.5098809 -0.8172072
vn -0.2391508 -0.5054334 -0.8290621
vn -0.1996238 -0.4652598 -0.862371
vn -0.1320264 -0.2734528 -0.9527814
vn -0.02768069 -0.1060839 -0.9939718
vn -0.1066344 -0.1706334 -0.9795476
vn 0.00100714 -0.01568697 -0.9998765
vn -0.2774532 -0.5160856 -0.8103551
vn -0.01913518 -0.03393671 -0.9992408
vn -0.002410965 -0.01321453 -0.9999098
vn -0.01782337 -0.03644024 -0.9991768
vn -0.1324523 -0.2718935 -0.9531686
vn -0.1174681 -0.1854647 -0.9756045
vn -0.1707561 -0.2220898 -0.9599575
vn -0.1675184 -0.2862371 -0.9434013
vn -0.2552347 -0.4132648 -0.8741095
vn -0.2548029 -0.4813758 -0.8386614
vn -0.1489936 -0.5103992 -0.8469319
vn -0.2326758 -0.471547 -0.8505912
vn -0.2707033 -0.4000122 -0.8756198
vn -0.2138468 -0.456412 -0.8636884
vn -0.2426869 -0.7099628 -0.661102
vn -0.4193937 -0.7777187 -0.4682548
vn -0.4235785 -0.6995043 -0.5755651
vn -0.2652692 -0.6638749 -0.6992156
vn -0.2673218 -0.7971433 -0.5413885
vn -0.2332926 -0.7670517 -0.5976673
vn -0.2426869 -0.7099628 -0.661102
vn -0.1868697 -0.7963402 -0.5752584
vn -0.2083238 -0.8042104 -0.5566389
vn -0.479277 -0.7729045 -0.4158272
vn -0.5411752 -0.6874561 -0.4842865
vn -0.5698324 -0.7050955 -0.4220563
g terrainMesh.026_0
f 3/3/3 2/2/2 1/1/1
f 4/4/4 3/3/3 1/1/1
f 1/1/1 5/5/5 4/4/4
f 5/5/5 6/6/6 4/4/4
f 5/5/5 7/7/7 6/6/6
f 1/1/1 8/8/8 5/5/5
f 3/3/3 4/4/4 9/9/9
f 9/9/9 4/4/4 6/6/6
f 3/3/3 9/9/9 10/10/10
f 11/11/11 3/3/3 10/10/10
f 10/10/10 9/9/9 12/12/12
f 12/12/12 13/13/13 10/10/10
f 9/9/9 14/14/14 12/12/12
f 15/15/15 14/14/14 9/9/9
f 9/9/9 16/16/16 15/15/15
f 16/16/16 9/9/9 17/17/17
f 18/18/18 17/17/17 9/9/9
f 6/6/6 18/18/18 9/9/9
f 18/18/18 6/6/6 19/19/19
f 19/19/19 6/6/6 20/20/20
f 6/6/6 21/21/21 20/20/20
f 21/21/21 22/22/22 20/20/20
f 23/23/23 22/22/22 21/21/21
f 24/24/24 23/23/23 21/21/21
f 21/21/21 25/25/25 24/24/24
f 25/25/25 21/21/21 26/26/26
f 27/27/27 25/25/25 26/26/26
f 27/27/27 26/26/26 28/28/28
f 21/21/21 6/6/6 29/29/29
f 7/7/7 29/29/29 6/6/6
f 26/26/26 30/30/30 28/28/28
f 30/30/30 31/31/31 28/28/28
f 32/32/32 30/30/30 26/26/26
f 21/21/21 33/33/33 26/26/26
f 21/21/21 29/29/29 33/33/33
f 34/34/34 32/32/32 26/26/26
f 33/33/33 34/34/34 26/26/26
f 29/29/29 34/34/34 33/33/33
f 34/34/34 29/29/29 7/7/7
f 35/35/35 32/32/32 34/34/34
f 35/35/35 34/34/34 7/7/7
f 36/36/36 35/35/35 7/7/7
f 7/7/7 37/37/37 36/36/36
f 38/38/38 37/37/37 7/7/7
f 5/5/5 38/38/38 7/7/7
f 39/39/39 38/38/38 5/5/5
f 40/40/40 39/39/39 5/5/5
f 41/41/41 39/39/39 40/40/40
f 5/5/5 8/8/8 40/40/40
f 40/40/40 8/8/8 41/41/41
f 8/8/8 42/42/42 41/41/41
f 42/42/42 8/8/8 43/43/43
f 46/46/46 45/45/45 44/44/44
f 44/44/44 47/47/47 46/46/46
f 47/47/47 48/48/48 46/46/46
f 48/48/48 49/49/49 46/46/46
f 48/48/48 47/47/47 50/50/50
f 47/47/47 51/51/51 50/50/50
f 44/44/44 52/52/52 47/47/47
f 44/44/44 53/53/53 52/52/52
f 53/53/53 54/54/54 52/52/52
