g terrainMesh.064
v 14.24256 30 -12.67694
v 13.96573 30 -12.74146
v 14.05743 29.81379 -12.72561
v 15 30 -12.49265
v 15 29.37802 -12.50476
v 15 28.83967 -12.35506
v 15 29.37802 -12.50476
v 14.05743 29.81379 -12.72561
v 13.80914 28.2147 -12.30721
v 15 27.36594 -11.82874
v 12.63268 26.83091 -11.56463
v 15 26.80805 -11.52366
v 15 25.05552 -10.72126
v 15 24.79981 -10.61815
v 11.859 29.8215 -12.61624
v 11.95747 30 -12.64077
v 13.96573 30 -12.74146
v 11.51006 30 -12.55004
v 9.819451 30 -11.92508
v 11.0115 28.14553 -11.9123
v 9.605748 28.74759 -11.40555
v 8.925554 30 -11.38459
v 9.957568 26.68058 -10.63565
v 8.244864 28.25378 -10.30027
v 8.5191 30 -11.10676
v 7.343404 30 -10.13548
v 5.951864 28.85962 -9.93125
v 6.458675 30 -9.996151
v 5 30 -9.403368
v 5 29.94422 -9.410267
v 5 28.36642 -9.805343
v 5 27.2491 -10.08469
v 8.604232 24.93405 -10.40724
v 5.319833 27.13243 -10.1976
v 5 26.58276 -10.2813
v 5.682039 23.64174 -10.88296
v 5 24.66959 -10.64417
v 5 23.89122 -10.8085
v 5 23.45707 -10.9444
v 5 22.27125 -11.19046
v 5 21.28651 -11.36769
v 9.16083 22.56273 -10.76676
v 11.30609 25.21055 -10.51894
v 12.87854 24.25831 -10.514
v 13.25931 22.13919 -10.66352
v 15 24.51722 -10.63483
v 12.35961 20.0169 -11.09095
v 12.35073 20 -11.09575
v 9.950736 20 -11.30679
v 6.205925 20 -11.57979
v 5 20.74961 -11.49289
v 5.175951 20 -11.67691
v 5 20.25871 -11.62427
v 5 20 -11.68157
v 15 20 -10.23116
v 15 20.84917 -10.15856
v 14.93701 20 -10.30896
v 15 22.47481 -9.918806
v 13.25931 22.13919 -10.66352
v 15 24.51722 -10.63483
v 14.83866 20 -10.34824
v 12.35961 20.0169 -11.09095
v 12.67438 20 -10.99774
v 12.36171 20 -11.09406
v 12.35073 20 -11.09575
vt 0.9158913 0.9521943
vt 0.9167004 0.9526706
vt 0.9167738 0.9518477
vt 0.9136553 0.9508833
vt 0.9147778 0.9486551
vt 0.4862977 0.6847585
vt 0.4883496 0.6855873
vt 0.4907725 0.6834262
vt 0.4848785 0.6802186
vt 0.4807264 0.6822318
vt 0.4807443 0.6734855
vt 0.4786587 0.6810409
vt 0.4721026 0.677645
vt 0.4711405 0.6771804
vt 0.492714 0.6760708
vt 0.4933205 0.6766089
vt 0.4915742 0.6833363
vt 0.4937362 0.6749588
vt 0.4954178 0.6680989
vt 0.4871397 0.6702189
vt 0.4908931 0.6650994
vt 0.4963892 0.6640065
vt 0.4827923 0.6626247
vt 0.4905466 0.6577874
vt 0.4968434 0.6620746
vt 0.4982229 0.6561152
vt 0.495015 0.6501029
vt 0.4990295 0.6529411
vt 0.5005013 0.6469037
vt 0.5002799 0.6468675
vt 0.4939398 0.6462857
vt 0.4894503 0.6458728
vt 0.4771851 0.6561227
vt 0.4886768 0.647051
vt 0.486761 0.6456929
vt 0.4744162 0.6465189
vt 0.4791188 0.6447302
vt 0.4760031 0.6443754
vt 0.4742478 0.6442755
vt 0.4695028 0.6437256
vt 0.465573 0.6432089
vt 0.4672751 0.6565322
vt 0.475929 0.6653762
vt 0.4708615 0.6695788
vt 0.4621718 0.6691864
vt 0.4700261 0.6769564
vt 0.4544491 0.6652596
vt 0.4543886 0.6652259
vt 0.4563457 0.6579204
vt 0.4594215 0.6463965
vt 0.4634191 0.6429905
vt 0.4602589 0.6432758
vt 0.4614433 0.6428282
vt 0.4604066 0.6427162
vt 0.2284467 0.7666259
vt 0.2281075 0.7632127
vt 0.2280493 0.7666934
vt 0.2277525 0.756599
vt 0.2210968 0.7586827
vt 0.2243338 0.749091
vt 0.2276691 0.766734
vt 0.2187978 0.7674952
vt 0.2199306 0.7674577
vt 0.2188054 0.7675642
vt 0.2187708 0.7675666
vn 0.2340193 0.02133274 -0.9719979
vn 0.04867756 -0.06085458 -0.9969591
vn 0.09299152 -0.1211606 -0.9882676
vn 0.2363405 0.01889137 -0.9714866
vn 0.1518627 -0.165352 -0.9744723
vn 0.1140498 -0.2900839 -0.9501811
vn 0.1518627 -0.165352 -0.9744723
vn 0.09299152 -0.1211606 -0.9882676
vn 0.003784377 -0.3549074 -0.9348937
vn 0.04678607 -0.4398745 -0.8968398
vn -0.1181101 -0.4205269 -0.8995594
vn 0.01113936 -0.4479547 -0.8939868
vn 0.03918654 -0.385609 -0.9218298
vn 0.001983753 -0.1963916 -0.9805235
vn -0.1818957 -0.1887931 -0.9650239
vn -0.1002252 -0.08099811 -0.9916623
vn 0.04867756 -0.06085458 -0.9969591
vn -0.3118775 -0.2720803 -0.9103321
vn -0.3993107 -0.2923111 -0.8689678
vn -0.2998501 -0.3550592 -0.8854507
vn -0.4666063 -0.3078155 -0.8291731
vn -0.5265861 -0.27251 -0.805261
vn -0.2551145 -0.2398851 -0.9366812
vn -0.3465159 -0.1356582 -0.9281829
vn -0.5709291 -0.268633 -0.7758068
vn -0.3347922 -0.08426265 -0.9385169
vn -0.2010302 0.1259224 -0.9714579
vn -0.2378648 0.05050888 -0.9699841
vn -0.3740433 0.1138366 -0.9203981
vn -0.3463965 0.1414274 -0.927366
vn -0.2462294 0.235212 -0.9402374
vn -0.2399102 0.250073 -0.9380333
vn -0.01910465 0.09897186 -0.9949067
vn -0.1007133 0.2096058 -0.9725854
vn -0.09155726 0.2017617 -0.9751459
vn 0.04504596 0.2002348 -0.9787119
vn -0.057192 0.1897346 -0.9801683
vn -0.0173042 0.2421977 -0.9700725
vn 0.02160778 0.2427519 -0.9698477
vn 0.079656 0.1803094 -0.9803792
vn 0.07748719 0.2066122 -0.9753498
vn 0.05017354 0.1707853 -0.98403
vn -0.1232653 -0.1518309 -0.9806901
vn -0.02923703 -0.1059919 -0.993937
vn 0.1790575 0.05716291 -0.9821765
vn 0.04516784 -0.02099694 -0.9987587
vn 0.1687706 0.1828094 -0.9685542
vn 0.1072125 0.2190944 -0.9697954
vn 0.07928742 0.2288898 -0.9702181
vn 0.07446683 0.2322205 -0.9698084
vn 0.07727508 0.2365862 -0.9685326
vn 0.07022453 0.2445499 -0.9670904
vn 0.07858593 0.249827 -0.9650962
vn 0.02581875 0.2161634 -0.9760158
vn 0.7760566 0.05371479 -0.6283715
vn 0.3840845 0.133308 -0.9136236
vn 0.5695224 0.1021789 -0.8156003
vn 0.4081335 -0.1043452 -0.9069395
vn 0.1790575 0.05716291 -0.9821765
vn 0.04516784 -0.02099694 -0.9987587
vn 0.3439505 0.1166136 -0.9317185
vn 0.1687706 0.1828094 -0.9685542
vn 0.2867627 0.07315563 -0.9552043
vn 0.2227615 0.2029239 -0.9535194
vn 0.1072125 0.2190944 -0.9697954
g terrainMesh.064_0
f 3/3/3 2/2/2 1/1/1
f 3/3/3 1/1/1 4/4/4
f 5/5/5 3/3/3 4/4/4
f 8/8/8 7/7/7 6/6/6
f 9/9/9 8/8/8 6/6/6
f 10/10/10 9/9/9 6/6/6
f 9/9/9 10/10/10 11/11/11
f 10/10/10 12/12/12 11/11/11
f 12/12/12 13/13/13 11/11/11
f 11/11/11 13/13/13 14/14/14
f 8/8/8 9/9/9 15/15/15
f 15/15/15 16/16/16 8/8/8
f 16/16/16 17/17/17 8/8/8
f 15/15/15 18/18/18 16/16/16
f 19/19/19 18/18/18 15/15/15
f 20/20/20 15/15/15 9/9/9
f 11/11/11 20/20/20 9/9/9
f 21/21/21 19/19/19 15/15/15
f 20/20/20 21/21/21 15/15/15
f 19/19/19 21/21/21 22/22/22
f 21/21/21 20/20/20 23/23/23
f 11/11/11 23/23/23 20/20/20
f 21/21/21 24/24/24 22/22/22
f 24/24/24 21/21/21 23/23/23
f 24/24/24 25/25/25 22/22/22
f 25/25/25 24/24/24 26/26/26
f 26/26/26 24/24/24 27/27/27
f 28/28/28 26/26/26 27/27/27
f 28/28/28 27/27/27 29/29/29
f 27/27/27 30/30/30 29/29/29
f 30/30/30 27/27/27 31/31/31
f 32/32/32 31/31/31 27/27/27
f 33/33/33 24/24/24 23/23/23
f 24/24/24 33/33/33 27/27/27
f 34/34/34 32/32/32 27/27/27
f 33/33/33 34/34/34 27/27/27
f 32/32/32 34/34/34 35/35/35
f 35/35/35 34/34/34 36/36/36
f 34/34/34 33/33/33 36/36/36
f 37/37/37 35/35/35 36/36/36
f 38/38/38 37/37/37 36/36/36
f 36/36/36 39/39/39 38/38/38
f 39/39/39 36/36/36 40/40/40
f 41/41/41 40/40/40 36/36/36
f 33/33/33 42/42/42 36/36/36
f 42/42/42 41/41/41 36/36/36
f 33/33/33 43/43/43 42/42/42
f 43/43/43 33/33/33 23/23/23
f 43/43/43 23/23/23 11/11/11
f 44/44/44 43/43/43 11/11/11
f 42/42/42 43/43/43 44/44/44
f 44/44/44 11/11/11 14/14/14
f 44/44/44 14/14/14 45/45/45
f 45/45/45 42/42/42 44/44/44
f 14/14/14 46/46/46 45/45/45
f 45/45/45 47/47/47 42/42/42
f 47/47/47 48/48/48 42/42/42
f 48/48/48 49/49/49 42/42/42
f 42/42/42 49/49/49 50/50/50
f 50/50/50 41/41/41 42/42/42
f 50/50/50 51/51/51 41/41/41
f 51/51/51 50/50/50 52/52/52
f 53/53/53 51/51/51 52/52/52
f 54/54/54 53/53/53 52/52/52
f 57/57/57 56/56/56 55/55/55
f 58/58/58 56/56/56 57/57/57
f 57/57/57 59/59/59 58/58/58
f 60/60/60 58/58/58 59/59/59
f 57/57/57 61/61/61 59/59/59
f 59/59/59 61/61/61 62/62/62
f 61/61/61 63/63/63 62/62/62
f 64/64/64 62/62/62 63/63/63
f 64/64/64 65/65/65 62/62/62
