g ArenaBarrierCenter
v 0.3928314 0 5.582435
v 0 0 5.582435
v 0 0 5.751357
v 0.8427371 0 5.339016
v 0 0 5.339016
v 1.234898 0 4.951953
v 0 0 4.951953
v 1.496346 0 4.618106
v 0 0 4.618106
v 1.834064 0 3.999366
v 0 0 3.999366
v 2.03663 0 3.544328
v 0 0 3.544328
v 2.284586 0 2.923134
v 0 0 2.923134
v 2.571259 0 2.114219
v 0 0 2.114219
v 2.867296 0 1.145263
v 0 0 1.145263
v 2.990478 0 0.6798834
v 0 0 0.6798834
v 3.077131 0 0.2271896
v 0 0 0.2271896
v 3.111149 0 -0.05614582
v 0 0 -0.05614582
v -0.3928314 0 5.582435
v 0 0 5.751357
v 0 0 5.582435
v -0.8427371 0 5.339016
v 0 0 5.339016
v -1.234898 0 4.951953
v 0 0 4.951953
v -1.496346 0 4.618106
v 0 0 4.618106
v -1.834064 0 3.999366
v 0 0 3.999366
v -2.03663 0 3.544328
v 0 0 3.544328
v -2.284586 0 2.923134
v 0 0 2.923134
v -2.571259 0 2.114219
v 0 0 2.114219
v -2.867296 0 1.145263
v 0 0 1.145263
v -2.990478 0 0.6798834
v 0 0 0.6798834
v -3.077131 0 0.2271896
v 0 0 0.2271896
v -3.111149 0 -0.05614582
v 0 0 -0.05614582
vt 0.1272575 0.9063329
vt 0.001016214 0.9063649
vt 9.660386E-05 0.9334995
vt 0.2718007 0.8671833
vt 0.0009765255 0.8672521
vt 0.3977633 0.8049577
vt 0.0009134304 0.8050584
vt 0.4817284 0.7512932
vt 0.0008589549 0.7514154
vt 0.5901576 0.6518459
vt 0.0007580487 0.6519955
vt 0.6551806 0.5787132
vt 0.000683844 0.5788794
vt 0.7347631 0.4788786
vt 0.0005825164 0.4790649
vt 0.8267572 0.3488778
vt 0.0004506182 0.3490875
vt 0.9217343 0.1931604
vt 0.0002925549 0.1933943
vt 0.9612443 0.1183726
vt 0.0002166646 0.1186164
vt 0.9890175 0.04562609
vt 0.0001428429 0.04587728
vt 0.9999033 9.660386E-05
vt 9.660386E-05 0.0003499802
vt 0.1272575 0.9063329
vt 9.660386E-05 0.9334995
vt 0.001016214 0.9063649
vt 0.2718007 0.8671833
vt 0.0009765255 0.8672521
vt 0.3977633 0.8049577
vt 0.0009134304 0.8050584
vt 0.4817284 0.7512932
vt 0.0008589549 0.7514154
vt 0.5901576 0.6518459
vt 0.0007580487 0.6519955
vt 0.6551806 0.5787132
vt 0.000683844 0.5788794
vt 0.7347631 0.4788786
vt 0.0005825164 0.4790649
vt 0.8267572 0.3488778
vt 0.0004506182 0.3490875
vt 0.9217343 0.1931604
vt 0.0002925549 0.1933943
vt 0.9612443 0.1183726
vt 0.0002166646 0.1186164
vt 0.9890175 0.04562609
vt 0.0001428429 0.04587728
vt 0.9999033 9.660386E-05
vt 9.660386E-05 0.0003499802
vn 0 -1 0
vn 0 -1 0
vn 0 -1 0
vn 0 -1 0
vn 0 -1 0
vn 0 -1 0
vn 0 -1 0
vn 0 -1 0
vn 0 -1 0
vn 0 -1 0
vn 0 -1 0
vn 0 -1 0
vn 0 -1 0
vn 0 -1 0
vn 0 -1 0
vn 0 -1 0
vn 0 -1 0
vn 0 -1 0
vn 0 -1 0
vn 0 -1 0
vn 0 -1 0
vn 0 -1 0
vn 0 -1 0
vn 0 -1 0
vn 0 -1 0
vn 0 -1 0
vn 0 -1 0
vn 0 -1 0
vn 0 -1 0
vn 0 -1 0
vn 0 -1 0
vn 0 -1 0
vn 0 -1 0
vn 0 -1 0
vn 0 -1 0
vn 0 -1 0
vn 0 -1 0
vn 0 -1 0
vn 0 -1 0
vn 0 -1 0
vn 0 -1 0
vn 0 -1 0
vn 0 -1 0
vn 0 -1 0
vn 0 -1 0
vn 0 -1 0
vn 0 -1 0
vn 0 -1 0
vn 0 -1 0
vn 0 -1 0
g ArenaBarrierCenter_0
f 3/3/3 2/2/2 1/1/1
f 1/1/1 2/2/2 4/4/4
f 2/2/2 5/5/5 4/4/4
f 4/4/4 5/5/5 6/6/6
f 5/5/5 7/7/7 6/6/6
f 6/6/6 7/7/7 8/8/8
f 7/7/7 9/9/9 8/8/8
f 8/8/8 9/9/9 10/10/10
f 9/9/9 11/11/11 10/10/10
f 10/10/10 11/11/11 12/12/12
f 11/11/11 13/13/13 12/12/12
f 12/12/12 13/13/13 14/14/14
f 13/13/13 15/15/15 14/14/14
f 14/14/14 15/15/15 16/16/16
f 15/15/15 17/17/17 16/16/16
f 16/16/16 17/17/17 18/18/18
f 17/17/17 19/19/19 18/18/18
f 18/18/18 19/19/19 20/20/20
f 19/19/19 21/21/21 20/20/20
f 20/20/20 21/21/21 22/22/22
f 21/21/21 23/23/23 22/22/22
f 22/22/22 23/23/23 24/24/24
f 23/23/23 25/25/25 24/24/24
f 28/28/28 27/27/27 26/26/26
f 28/28/28 26/26/26 29/29/29
f 30/30/30 28/28/28 29/29/29
f 30/30/30 29/29/29 31/31/31
f 32/32/32 30/30/30 31/31/31
f 32/32/32 31/31/31 33/33/33
f 34/34/34 32/32/32 33/33/33
f 34/34/34 33/33/33 35/35/35
f 36/36/36 34/34/34 35/35/35
f 36/36/36 35/35/35 37/37/37
f 38/38/38 36/36/36 37/37/37
f 38/38/38 37/37/37 39/39/39
f 40/40/40 38/38/38 39/39/39
f 40/40/40 39/39/39 41/41/41
f 42/42/42 40/40/40 41/41/41
f 42/42/42 41/41/41 43/43/43
f 44/44/44 42/42/42 43/43/43
f 44/44/44 43/43/43 45/45/45
f 46/46/46 44/44/44 45/45/45
f 46/46/46 45/45/45 47/47/47
f 48/48/48 46/46/46 47/47/47
f 48/48/48 47/47/47 49/49/49
f 50/50/50 48/48/48 49/49/49
