g BazaarUpgradeMesh
v 0.1222968 1.478806 -1.43093
v 0.2140723 -1.442156 -1.383838
v 1.544145 -0.9753956 -1.0601
v 1.526189 0.9025328 -1.1386
v 0.5361007 -1.156254 4.936487
v 0.3138322 0.7635572 5.619405
v 0.4993132 1.020014 4.890678
v 0.2551261 -0.7726766 5.480299
v -1.039401 -0.7519538 5.604419
v -1.122587 0.7496486 5.681863
v -1.307163 0.8547171 4.709331
v -1.321529 -1.06451 4.741663
v -1.344767 -1.198313 3.443684
v -1.434907 0.84753 3.452587
v -1.53541 -1.367846 -1.272036
v -1.497513 0.9831913 -1.197088
v 0.2140723 -1.442156 -1.383838
v 0.2606955 -0.8521432 3.465869
v 1.544145 -0.9753956 -1.0601
v 1.337735 -0.9059407 3.456342
v 1.526189 0.9025328 -1.1386
v 1.306052 0.8197941 3.464659
v 1.166869 -0.7056615 4.735841
v 1.310711 0.7546316 4.832275
v 0.4993132 1.020014 4.890678
v -1.497513 0.9831913 -1.197088
v -1.53541 -1.367846 -1.272036
v 0.2140723 -1.442156 -1.383838
v 0.1222968 1.478806 -1.43093
v 0.1222968 1.478806 -1.43093
v 1.526189 0.9025328 -1.1386
v 1.306052 0.8197941 3.464659
v 0.2634813 0.6967701 3.475861
v -1.497513 0.9831913 -1.197088
v 1.310711 0.7546316 4.832275
v -1.434907 0.84753 3.452587
v 0.4993132 1.020014 4.890678
v -1.307163 0.8547171 4.709331
v -1.122587 0.7496486 5.681863
v 0.3138322 0.7635572 5.619405
vt 0.9858866 0.8958221
vt 0.9858866 0.6490465
vt 0.8690014 0.6843938
vt 0.8665358 0.8430771
vt 0.4514801 0.5585172
vt 0.3744247 0.7290006
vt 0.4454984 0.7595376
vt 0.4024053 0.6040652
vt 0.3227318 0.5843922
vt 0.2522124 0.6677908
vt 0.1856794 0.6027072
vt 0.3111263 0.5246822
vt 0.2924895 0.4346401
vt 0.1329329 0.5000015
vt 0.2185399 0.04443055
vt 0.01411339 0.1014904
vt 0.3710839 0.01411339
vt 0.4238082 0.4272988
vt 0.4958395 0.03281659
vt 0.5127172 0.4161143
vt 0.6623077 0.02294669
vt 0.6623077 0.4318747
vt 0.5130396 0.5235428
vt 0.6361442 0.557031
vt 0.6305055 0.6356987
vt 0.6989787 0.6868898
vt 0.6905345 0.8853389
vt 0.8383091 0.895822
vt 0.8383091 0.6490465
vt 0.8162614 0.01411339
vt 0.6905345 0.04913177
vt 0.7264113 0.4366344
vt 0.8149936 0.4337592
vt 0.9588854 0.0367458
vt 0.7251962 0.5522315
vt 0.9588854 0.4295408
vt 0.7973115 0.5566157
vt 0.9498417 0.5358311
vt 0.9381656 0.6190723
vt 0.8167666 0.6208198
vn 0.05932876 0.773105 -0.6314972
vn 0.1204903 -0.7370725 -0.6649858
vn 0.6912654 -0.5278643 -0.4934689
vn 0.6845791 0.5119618 -0.5188897
vn 0.3397366 -0.8544381 0.3930836
vn 0.4882425 0.4811011 0.7281216
vn 0.2988389 0.8901078 0.3440981
vn 0.4793024 -0.4579085 0.7487249
vn -0.4758258 -0.4533942 0.7536733
vn -0.5006057 0.4822027 0.7189398
vn -0.7131786 0.6909605 0.1181103
vn -0.6898964 -0.694688 0.2035965
vn -0.6629954 -0.7477773 0.03558519
vn -0.7436634 0.6680672 0.02551412
vn -0.5822189 -0.6062682 -0.5417196
vn -0.6335452 0.5500146 -0.5441549
vn 0.1204903 -0.7370725 -0.6649858
vn 0.1320878 -0.9912081 0.007690881
vn 0.6912654 -0.5278643 -0.4934689
vn 0.7629191 -0.6448098 0.04663334
vn 0.6845791 0.5119618 -0.5188897
vn 0.7465124 0.6644143 0.03567755
vn 0.6603795 -0.4861441 0.572331
vn 0.6567038 0.5015157 0.5632247
vn 0.2988389 0.8901078 0.3440981
vn -0.6335452 0.5500146 -0.5441549
vn -0.5822189 -0.6062682 -0.5417196
vn 0.1204903 -0.7370725 -0.6649858
vn 0.05932876 0.773105 -0.6314972
vn 0.05932876 0.773105 -0.6314972
vn 0.6845791 0.5119618 -0.5188897
vn 0.7465124 0.6644143 0.03567755
vn 0.03723339 0.9992588 -0.009766135
vn -0.6335452 0.5500146 -0.5441549
vn 0.6567038 0.5015157 0.5632247
vn -0.7436634 0.6680672 0.02551412
vn 0.2988389 0.8901078 0.3440981
vn -0.7131786 0.6909605 0.1181103
vn -0.5006057 0.4822027 0.7189398
vn 0.4882425 0.4811011 0.7281216
g BazaarUpgradeMesh_0
f 3/3/3 2/2/2 1/1/1
f 4/4/4 3/3/3 1/1/1
f 7/7/7 6/6/6 5/5/5
f 6/6/6 8/8/8 5/5/5
f 9/9/9 8/8/8 6/6/6
f 10/10/10 9/9/9 6/6/6
f 9/9/9 10/10/10 11/11/11
f 8/8/8 9/9/9 12/12/12
f 12/12/12 9/9/9 11/11/11
f 5/5/5 8/8/8 12/12/12
f 12/12/12 11/11/11 13/13/13
f 11/11/11 14/14/14 13/13/13
f 13/13/13 14/14/14 15/15/15
f 14/14/14 16/16/16 15/15/15
f 13/13/13 15/15/15 17/17/17
f 12/12/12 13/13/13 18/18/18
f 18/18/18 13/13/13 17/17/17
f 5/5/5 12/12/12 18/18/18
f 18/18/18 17/17/17 19/19/19
f 20/20/20 18/18/18 19/19/19
f 5/5/5 18/18/18 20/20/20
f 20/20/20 19/19/19 21/21/21
f 22/22/22 20/20/20 21/21/21
f 23/23/23 20/20/20 22/22/22
f 23/23/23 5/5/5 20/20/20
f 24/24/24 23/23/23 22/22/22
f 5/5/5 23/23/23 24/24/24
f 25/25/25 5/5/5 24/24/24
f 28/28/28 27/27/27 26/26/26
f 29/29/29 28/28/28 26/26/26
f 32/32/32 31/31/31 30/30/30
f 33/33/33 32/32/32 30/30/30
f 33/33/33 30/30/30 34/34/34
f 35/35/35 32/32/32 33/33/33
f 36/36/36 33/33/33 34/34/34
f 37/37/37 35/35/35 33/33/33
f 37/37/37 33/33/33 36/36/36
f 38/38/38 37/37/37 36/36/36
f 38/38/38 39/39/39 37/37/37
f 39/39/39 40/40/40 37/37/37
