g CauldronLiquidMesh
v 0.9807851 0.1950914 0
v 1 9.655992E-07 0
v 0.9807854 -0.1950895 0
v 0.9238799 -0.3826827 0
v 0.9238791 0.3826845 0
v 0.83147 -0.5555696 0
v 0.8314689 0.5555713 0
v 0.7071072 -0.7071064 0
v 0.7071059 0.7071077 0
v 0.5555707 -0.8314693 0
v 0.5555691 0.8314704 0
v 0.3826839 -0.9238793 0
v 0.3826821 0.9238801 0
v 0.1950907 -0.9807852 0
v 0.1950888 0.9807855 0
v 3.258414E-07 -1 0
v 0 1 0
v -0.1950901 -0.9807853 0
v -0.1950903 0.9807853 0
v -0.3826833 -0.9238796 0
v -0.3826835 0.9238795 0
v -0.5555702 -0.8314697 0
v -0.5555702 0.8314696 0
v -0.7071068 -0.7071068 0
v -0.7071068 0.7071068 0
v -0.8314697 0.5555702 0
v -0.8314697 -0.5555702 0
v -0.9238795 0.3826834 0
v -0.9238796 -0.3826833 0
v -0.9807853 0.1950904 0
v -0.9807853 -0.1950902 0
v -1 7.54979E-08 0
vt 0.9716733 0.6430804
vt 0.9905239 0.5483128
vt 0.9905242 0.451688
vt 0.971674 0.3569202
vt 0.9346963 0.7323495
vt 0.9346974 0.2676504
vt 0.8810143 0.8126897
vt 0.8810155 0.1873095
vt 0.8126903 0.8810133
vt 0.8126917 0.1189855
vt 0.7323496 0.9346951
vt 0.7323508 0.06530335
vt 0.6430799 0.9716716
vt 0.6430807 0.02832644
vt 0.5483117 0.9905218
vt 0.5483121 0.009475763
vt 0.4516878 0.9905217
vt 0.4516868 0.009475763
vt 0.3569197 0.9716712
vt 0.3569182 0.02832649
vt 0.2676501 0.9346945
vt 0.2676483 0.06530353
vt 0.1873096 0.8810127
vt 0.1873076 0.1189858
vt 0.1189857 0.8126888
vt 0.06530379 0.7323487
vt 0.1189836 0.1873103
vt 0.02832705 0.6430801
vt 0.06530223 0.2676507
vt 0.009476146 0.5483121
vt 0.02832585 0.3569207
vt 0.009475763 0.451688
vn 0 0 1
vn 0 0 1
vn 0 0 1
vn 0 0 1
vn 0 0 1
vn 0 0 1
vn 0 0 1
vn 0 0 1
vn 0 0 1
vn 0 0 1
vn 0 0 1
vn 0 0 1
vn 0 0 1
vn 0 0 1
vn 0 0 1
vn 0 0 1
vn 0 0 1
vn 0 0 1
vn 0 0 1
vn 0 0 1
vn 0 0 1
vn 0 0 1
vn 0 0 1
vn 0 0 1
vn 0 0 1
vn 0 0 1
vn 0 0 1
vn 0 0 1
vn 0 0 1
vn 0 0 1
vn 0 0 1
vn 0 0 1
g CauldronLiquidMesh_0
f 3/3/3 2/2/2 1/1/1
f 1/1/1 4/4/4 3/3/3
f 1/1/1 5/5/5 4/4/4
f 5/5/5 6/6/6 4/4/4
f 5/5/5 7/7/7 6/6/6
f 7/7/7 8/8/8 6/6/6
f 7/7/7 9/9/9 8/8/8
f 9/9/9 10/10/10 8/8/8
f 9/9/9 11/11/11 10/10/10
f 11/11/11 12/12/12 10/10/10
f 11/11/11 13/13/13 12/12/12
f 13/13/13 14/14/14 12/12/12
f 13/13/13 15/15/15 14/14/14
f 15/15/15 16/16/16 14/14/14
f 15/15/15 17/17/17 16/16/16
f 17/17/17 18/18/18 16/16/16
f 17/17/17 19/19/19 18/18/18
f 19/19/19 20/20/20 18/18/18
f 19/19/19 21/21/21 20/20/20
f 21/21/21 22/22/22 20/20/20
f 21/21/21 23/23/23 22/22/22
f 23/23/23 24/24/24 22/22/22
f 23/23/23 25/25/25 24/24/24
f 25/25/25 26/26/26 24/24/24
f 26/26/26 27/27/27 24/24/24
f 26/26/26 28/28/28 27/27/27
f 28/28/28 29/29/29 27/27/27
f 28/28/28 30/30/30 29/29/29
f 30/30/30 31/31/31 29/29/29
f 30/30/30 32/32/32 31/31/31
