g ClayBossShattered_cell.010
v -0.1786 -0.3290025 -0.05270929
v -0.2102199 -0.31857 -0.04869071
v 0.903143 -0.6389863 0.1961158
v -0.7104607 -0.1369892 0.1511244
v -0.8790569 -0.07946245 0.1882175
v -0.8790569 -0.07946245 0.1882175
v -0.7104607 -0.1369892 0.1511244
v -0.7445164 -0.1358726 0.07207453
v -0.5972754 -0.1671263 0.1961158
v 0.903143 -0.6389863 0.1961158
v -0.8450012 -0.08057909 0.2672673
v -0.7165149 -0.1042854 0.4045216
v -0.8547655 -0.07223231 0.3107367
v -0.7291876 -0.01494025 0.4116621
v -0.7135822 -0.1058667 0.3994018
v -0.8547655 -0.07223231 0.3107367
v -0.7165149 -0.1042854 0.4045216
v 0.5967413 0.9014398 0.1961158
v -0.7130606 0.06173158 0.1403197
v -0.6380606 0.1213704 0.09631386
v -0.2635388 -0.1428011 -0.04869071
v -0.2102199 -0.31857 -0.04869071
v -0.1786 -0.3290025 -0.05270929
v 0.05644161 -0.07915296 -0.0966064
v -0.2836834 0.06173139 -0.04869071
v 0.04256576 0.0617314 -0.0966064
v -0.2635387 0.2662638 -0.04869071
v 0.09753603 -0.2146232 -0.0966064
v 0.1642697 -0.3394734 -0.0966064
v 0.06199998 -0.4078078 -0.07854176
v 0.2540783 -0.4489055 -0.0966064
v 0.2380288 -0.464955 -0.09327286
v 0.2965554 -0.4837655 -0.0966064
v 0.3821655 -0.5107948 -0.09748036
v 0.5043948 -0.1985891 -0.1058202
v 0.4586108 -0.1428011 -0.1058202
v 0.4245902 -0.07915308 -0.1058202
v 0.7647152 0.05798668 -0.1099904
v 0.4036404 -0.01009095 -0.1058202
v 0.5601828 -0.2443731 -0.1058202
v 0.3965666 0.06173128 -0.1058202
v 0.6238308 -0.2783937 -0.1058202
v 0.5107805 -0.5513214 -0.09813156
v 0.6928929 -0.2993436 -0.1058202
v 0.6350016 -0.5903829 -0.09809704
v 0.7647152 -0.3064174 -0.1058202
v 0.7647152 -0.6310877 -0.09737014
v 0.8357939 -0.2994168 -0.1058202
v 0.835962 -0.6534012 -0.09660676
v 0.9048435 -0.6466169 -0.09660676
v 0.9106517 -0.6763495 -0.09215599
v 0.9087706 -0.6663628 -0.09364992
v 0.05644166 0.2026157 -0.0966064
v 0.4036404 0.1335535 -0.1058202
v -0.1825997 0.4541221 -0.05207331
v -0.2127618 0.4336526 -0.0486906
v 0.09753615 0.338086 -0.0966064
v -0.003037632 0.5747275 -0.06705357
v 0.4245902 0.2026156 -0.1058202
v 0.16427 0.4629361 -0.0966064
v 0.150061 0.6763856 -0.07500156
v 0.4586108 0.2662637 -0.1058202
v 0.5043948 0.3220516 -0.1058202
v 0.2540785 0.572368 -0.0966064
v 0.2918648 0.7694021 -0.07766634
v 0.3635106 0.6621765 -0.0966064
v 0.4335661 0.8611962 -0.07557697
v 0.4883607 0.7289103 -0.0966064
v 0.5855028 0.9584102 -0.0683569
v 0.6231533 0.7697992 -0.0966064
v 0.5601828 0.3678356 -0.1058202
v 0.6238309 0.4018562 -0.1058202
v 0.6922034 0.4225968 -0.1058202
v 0.7636549 0.06331807 -0.1100115
v 0.7636549 0.06331807 -0.1100115
v 0.7647152 0.05798668 -0.1099904
v -0.2635387 0.2662638 -0.04869071
v -0.2127618 0.4336526 -0.0486906
v -0.4071916 0.2948382 0.00135617
v -0.2836834 0.06173139 -0.04869071
v -0.4862325 0.06173148 0.02051899
v -0.4676084 0.2508253 0.02051899
v -0.2635388 -0.1428011 -0.04869071
v -0.5018588 0.2477315 -0.05853084
v -0.4621959 -0.1823163 0.02051899
v -0.2102199 -0.31857 -0.04869071
v -0.4458965 -0.236048 0.02051899
v -0.4802051 -0.2348519 -0.05853084
v -0.4961416 -0.1823163 -0.05853084
v -0.5790948 -0.1988167 -0.01788068
v -0.5201782 0.06173149 -0.05853084
v -0.6778802 0.06173156 0.0172641
v -0.6723109 0.1182765 0.0172641
v -0.6549896 -0.1706817 0.01726411
v -0.6439345 0.06173155 0.09631386
v -0.6380606 0.1213704 0.09631386
v -0.6209339 -0.1717984 0.09631386
v -0.7130606 0.06173158 0.1403197
v -0.7104607 -0.1369892 0.1511244
v -0.7287647 0.0488554 0.1511244
v -0.7624452 0.04616294 0.07207462
v -0.7445164 -0.1358726 0.07207453
v -0.8810244 -0.05948663 0.1882175
v -0.8790569 -0.07946245 0.1882175
v -0.8473438 -0.05679427 0.2672673
v -0.8450012 -0.08057909 0.2672673
v -0.8630109 -0.07228819 0.2889101
v 0.6350016 -0.5903829 -0.09809704
v 0.5107805 -0.5513214 -0.09813156
v 0.3821655 -0.5107948 -0.09748036
v 0.7647152 -0.6310877 -0.09737014
v 0.2965554 -0.4837655 -0.0966064
v 0.835962 -0.6534012 -0.09660676
v 0.9106517 -0.6763495 -0.09215599
v 0.2380288 -0.464955 -0.09327286
v 0.06199998 -0.4078078 -0.07854176
v 0.903143 -0.6389863 0.1961158
v -0.1786 -0.3290025 -0.05270929
v -0.2102199 -0.31857 -0.04869071
v -0.4458965 -0.236048 0.02051899
v 0.903143 -0.6389863 0.1961158
v -0.6209339 -0.1717984 0.09631386
v -0.7104607 -0.1369892 0.1511244
v -0.6549896 -0.1706817 0.01726411
v -0.5790948 -0.1988167 -0.01788068
v -0.4802051 -0.2348519 -0.05853084
v -0.8450012 -0.08057909 0.2672673
v -0.7135822 -0.1058667 0.3994018
v -0.5972754 -0.1671263 0.1961158
v -0.8630109 -0.07228819 0.2889101
v -0.8547655 -0.07223231 0.3107367
v -0.6723109 0.1182765 0.0172641
v -0.5018588 0.2477315 -0.05853084
v -0.4676084 0.2508253 0.02051899
v -0.6380606 0.1213704 0.09631386
v 0.5967413 0.9014398 0.1961158
v -0.4071916 0.2948382 0.00135617
v -0.2127618 0.4336526 -0.0486906
v -0.1825997 0.4541221 -0.05207331
v -0.003037632 0.5747275 -0.06705357
v 0.5855028 0.9584102 -0.0683569
v 0.150061 0.6763856 -0.07500156
v 0.4335661 0.8611962 -0.07557697
v 0.2918648 0.7694021 -0.07766634
v -0.8810244 -0.05948663 0.1882175
v -0.7624452 0.04616294 0.07207462
v -0.7287647 0.0488554 0.1511244
v 0.5967413 0.9014398 0.1961158
v -0.7130606 0.06173158 0.1403197
v -0.6157488 0.1115916 0.1961158
v -0.8473438 -0.05679427 0.2672673
v -0.6586466 0.06636816 0.2668571
v -0.7291876 -0.01494025 0.4116621
v -0.8630109 -0.07228819 0.2889101
v -0.8547655 -0.07223231 0.3107367
v -0.6202378 0.06601362 0.1961158
v -0.5972754 -0.1671263 0.1961158
v -0.7135822 -0.1058667 0.3994018
v -0.7165149 -0.1042854 0.4045216
v -0.7291876 -0.01494025 0.4116621
v -0.6586466 0.06636816 0.2668571
v -0.6157488 0.1115916 0.1961158
v 0.9048435 -0.6466169 -0.09660676
v 0.9087706 -0.6663628 -0.09364992
v 0.8997062 -0.620764 0.1961158
v 0.8357939 -0.2994168 -0.1058202
v 0.5967413 0.9014398 0.1961158
v 0.7647152 0.05798668 -0.1099904
v 0.7636549 0.06331807 -0.1100115
v 0.6922034 0.4225968 -0.1058202
v 0.6231533 0.7697992 -0.0966064
v 0.5855028 0.9584102 -0.0683569
v 0.8997062 -0.620764 0.1961158
v 0.9087706 -0.6663628 -0.09364992
v 0.9106517 -0.6763495 -0.09215599
v 0.903143 -0.6389863 0.1961158
v 0.8997062 -0.620764 0.1961158
v 0.903143 -0.6389863 0.1961158
v -0.5972754 -0.1671263 0.1961158
v 0.5967413 0.9014398 0.1961158
v -0.6157488 0.1115916 0.1961158
v -0.6202378 0.06601362 0.1961158
vt 0.4713026 0.393671
vt 0.4660977 0.3776348
vt 0.6461561 0.6461561
vt 0.2070138 0.09901568
vt 0.1589347 0.01064273
vt 0.1589347 0.01064273
vt 0.2070138 0.09901568
vt 0.3095626 0.09698567
vt 0.1486263 0.145566
vt 0.6461561 0.6461561
vt 0.05638549 0.01267242
vt 0.9177058 0.9177058
vt 1 1
vt 1 0.9167186
vt 1 0.08176589
vt 1 0
vt 0.9177058 0
vt 0.668981 0
vt 0.8037471 0.2741423
vt 0.7193587 0.7176042
vt 0.925913 0.6654384
vt 0.9399465 0.656064
vt 0.9400067 0.6529881
vt 0.9116616 0.6387614
vt 0.908466 0.6726624
vt 0.8996935 0.6437179
vt 0.8899451 0.6763431
vt 0.9224328 0.6315652
vt 0.9315926 0.6224056
vt 0.9404059 0.6296412
vt 0.9387897 0.6116347
vt 0.9406453 0.6126269
vt 0.9407138 0.6069891
vt 0.9408058 0.5987741
vt 0.9102186 0.5963596
vt 0.906551 0.6018491
vt 0.9018832 0.6065179
vt 0.8805608 0.580538
vt 0.8963939 0.6101861
vt 0.9127444 0.5902599
vt 0.8902944 0.6127129
vt 0.9140316 0.5837851
vt 0.9409367 0.5864353
vt 0.9140311 0.5771835
vt 0.9410554 0.5745204
vt 0.9127427 0.5707092
vt 0.9411709 0.5620813
vt 0.9102426 0.5646737
vt 0.941233 0.5552491
vt 0.9388101 0.5493972
vt 0.9412916 0.5480812
vt 0.9404562 0.5485171
vt 0.8869888 0.6462439
vt 0.8838192 0.6140013
vt 0.8712725 0.6742148
vt 0.8738741 0.6763402
vt 0.8740352 0.6462427
vt 0.8559115 0.6615624
vt 0.8772168 0.6140015
vt 0.8613309 0.6437145
vt 0.8429332 0.6507804
vt 0.8707414 0.6127137
vt 0.8646415 0.6101874
vt 0.8493642 0.6387566
vt 0.8310095 0.6407979
vt 0.8385948 0.63156
vt 0.8191757 0.6308177
vt 0.8294362 0.6224011
vt 0.8065604 0.6200963
vt 0.8222755 0.6116862
vt 0.859152 0.6065196
vt 0.854483 0.6018511
vt 0.8508515 0.596416
vt 0.8802529 0.5807026
vt 0.8804069 0.5806203
vt 0.8804609 0.5805914
vt 0.2190845 0.006629109
vt 0.1994552 0.006629109
vt 0.2190846 0.02093908
vt 0.2438393 0.006629109
vt 0.2438395 0.02641833
vt 0.2246588 0.02641833
vt 0.268594 0.006629139
vt 0.2249726 0.03433183
vt 0.268594 0.02641836
vt 0.2892062 0.006629139
vt 0.2738748 0.02641836
vt 0.2737572 0.03433183
vt 0.268594 0.03433183
vt 0.268594 0.04300768
vt 0.2438393 0.03433192
vt 0.2438393 0.05050838
vt 0.2387458 0.0505084
vt 0.2647747 0.05050851
vt 0.2438395 0.05842197
vt 0.2384673 0.05842197
vt 0.2648753 0.058422
vt 0.2438395 0.06599799
vt 0.2607087 0.0678581
vt 0.2449326 0.06785811
vt 0.2451609 0.07577145
vt 0.2606138 0.07577145
vt 0.253312 0.09181844
vt 0.254873 0.09181845
vt 0.2531018 0.0997318
vt 0.2549604 0.0997318
vt 0.2541974 0.1022873
vt 0.8700291 0.7128706
vt 0.8994676 0.6715209
vt 0.9295714 0.6283514
vt 0.8389137 0.7556766
vt 0.9493703 0.5993789
vt 0.8216238 0.7789989
vt 0.8015096 0.8015096
vt 0.961414 0.5781221
vt 0.995073 0.5116891
vt 0.6461561 0.6461561
vt 0.4713026 0.393671
vt 0.4660977 0.3776348
vt 0.3763736 0.2509277
vt 0.6461561 0.6461561
vt 0.2780924 0.1523617
vt 0.2070138 0.09901568
vt 0.3806419 0.1503322
vt 0.4262138 0.1934861
vt 0.4789232 0.2487758
vt 0.05638549 0.01267242
vt 0.9182341 0
vt 0.1486263 0.145566
vt 0.02831495 0
vt 0 0
vt 0.7592268 0.7356185
vt 0.797446 0.6343406
vt 0.7575778 0.6163265
vt 0.7193587 0.7176042
vt 0.668981 0
vt 0.7672398 0.5806195
vt 0.7924728 0.4659969
vt 0.7941775 0.4483241
vt 0.801726 0.3432408
vt 0.8023618 0
vt 0.8057288 0.2537641
vt 0.8060086 0.0884232
vt 0.8070676 0.1710051
vt 0.9809309 0.7920125
vt 0.8262258 0.2434278
vt 0.8225893 0.3366226
vt 0.668981 0
vt 0.8037471 0.2741423
vt 0.7311489 0.1597949
vt 0.9772945 0.885208
vt 0.7974494 0.4220963
vt 0.9167186 0.9167186
vt 1 0.9716851
vt 1 1
vt 0.5929432 0.7353607
vt 0.5839447 0.7241554
vt 0.586757 0.7276574
vt 0.5868246 0.7277416
vt 0.5900354 0.7317399
vt 0.5929432 0.7353607
vt 0.5947836 0.7374861
vt 0.9885611 0.8012792
vt 1 0.8111949
vt 1 0.6620512
vt 0.7912355 0.6087193
vt 0.331019 0
vt 0.5859367 0.4056056
vt 0.5845079 0.4041628
vt 0.3825976 0.20013
vt 0.1871773 0.1867209
vt 0.1976381 0
vt 0.6620512 0.6620512
vt 0.8111949 0.8111949
vt 1 0.8015096
vt 1 0.6461561
vt 0.1897948 0.6723233
vt 0.1895976 0.6734359
vt 0.2806871 0.6436937
vt 0.2072394 0.579392
vt 0.2816274 0.6267026
vt 0.2819311 0.6294761
vn -0.2980123 -0.9476037 0.1150471
vn -0.2980123 -0.9476037 0.1150471
vn -0.2980123 -0.9476037 0.1150471
vn -0.2980123 -0.9476037 0.1150471
vn -0.2980123 -0.9476037 0.1150471
vn -0.2980123 -0.9476037 0.1150471
vn -0.2980123 -0.9476037 0.1150471
vn -0.2980123 -0.9476037 0.1150471
vn -0.2980123 -0.9476037 0.1150471
vn -0.2980123 -0.9476037 0.1150471
vn -0.2980123 -0.9476037 0.1150471
vn -0.578343 -0.1461756 0.8025908
vn -0.578343 -0.1461756 0.8025908
vn -0.578343 -0.1461756 0.8025908
vn -0.3007388 -0.9461319 0.1199609
vn -0.3007388 -0.9461319 0.1199609
vn -0.3007388 -0.9461319 0.1199609
vn -0.5348747 0.8209851 0.1997311
vn -0.5348747 0.8209851 0.1997311
vn -0.5348747 0.8209851 0.1997311
vn -0.2360661 -0.04693855 -0.9706026
vn -0.1929094 -0.05850457 -0.9794709
vn -0.1372431 -0.04831126 -0.9893585
vn -0.08780293 -0.01745682 -0.9959849
vn -0.240704 0 -0.9705986
vn -0.08951206 0 -0.9959857
vn -0.2360661 0.04693855 -0.9706026
vn -0.08270632 -0.03424224 -0.9959854
vn -0.07443571 -0.04971536 -0.9959858
vn -0.1242129 -0.07562643 -0.9893694
vn -0.06329627 -0.06329627 -0.9959856
vn -0.1058108 -0.09967636 -0.9893779
vn -0.02578885 -0.03143493 -0.999173
vn -0.01483241 -0.02136355 -0.9996617
vn -0.01355063 -0.01355063 -0.9998164
vn -0.01593114 -0.01062076 -0.9998167
vn -0.01767076 -0.007324667 -0.9998171
vn -0.007599341 -0.001831166 -0.9999695
vn -0.01876946 -0.003723372 -0.999817
vn -0.01065128 -0.01593114 -0.9998164
vn -0.0191046 0 -0.9998176
vn -0.007324663 -0.01770127 -0.9998165
vn -0.01007139 -0.02395771 -0.9996622
vn -0.00372337 -0.01879997 -0.9998164
vn -0.004883098 -0.0255447 -0.9996617
vn 0 -0.0191662 -0.9998164
vn 0.0004883098 -0.0260025 -0.9996617
vn 0.001861682 -0.01916617 -0.9998146
vn 0.004059069 -0.04123159 -0.9991413
vn 0.008789384 -0.08951133 -0.9959471
vn 0.01428311 -0.1452727 -0.9892886
vn 0.01428311 -0.1452727 -0.9892886
vn -0.08780293 0.01745682 -0.9959849
vn -0.01873838 0.003723261 -0.9998176
vn -0.136299 0.05063144 -0.989373
vn -0.1774391 0.05380549 -0.9826598
vn -0.08270632 0.03424224 -0.9959854
vn -0.122807 0.07770047 -0.9893841
vn -0.01763971 0.00729393 -0.9998178
vn -0.07443571 0.04971536 -0.9959858
vn -0.1040386 0.101414 -0.9893892
vn -0.01586964 0.01058993 -0.999818
vn -0.01367271 0.01336752 -0.9998172
vn -0.06329627 0.06329627 -0.9959856
vn -0.08081357 0.1207626 -0.9893864
vn -0.04971536 0.07443571 -0.9959858
vn -0.05407923 0.1348624 -0.9893875
vn -0.03424224 0.08270632 -0.9959854
vn -0.04236105 0.1396877 -0.9892892
vn -0.02609351 0.08606278 -0.9959479
vn -0.01080389 0.01577855 -0.9998172
vn -0.007324663 0.01770127 -0.9998165
vn -0.005585045 0.0184337 -0.9998146
vn -0.007538279 0.008453859 -0.9999359
vn -0.007538279 0.008453859 -0.9999359
vn -0.007599341 -0.001831166 -0.9999695
vn -0.2360661 0.04693855 -0.9706026
vn -0.1774391 0.05380549 -0.9826598
vn -0.3201417 0.04760924 -0.9461727
vn -0.240704 0 -0.9705986
vn 0.4401437 0 -0.8979273
vn 0.226083 -0.02224818 -0.9738539
vn -0.2360661 -0.04693855 -0.9706026
vn 0.6166622 -0.06073235 -0.7848817
vn 0.434352 0.08972702 -0.8962631
vn -0.1929094 -0.05850457 -0.9794709
vn 0.2237948 0.06787396 -0.9722701
vn 0.5753753 0.1745383 -0.7990492
vn 0.3078161 0.05820001 -0.9496642
vn -0.4303226 -0.05609453 -0.9009306
vn 0.3101693 0 -0.9506814
vn -0.9413227 0 -0.3375078
vn -0.8690449 0.08557688 -0.4872755
vn -0.8943911 -0.08807796 -0.4385281
vn -0.9517918 0 -0.3067451
vn -0.991573 0.09766185 -0.08511841
vn -0.977564 -0.09625791 -0.1873581
vn -0.5367378 -0.03262482 -0.8431181
vn 0.1450591 0.01428312 -0.9893198
vn 0.1363906 0.01342848 -0.9905641
vn 0.4501892 0.04431392 -0.891833
vn 0.4131683 0.04068204 -0.9097455
vn -0.9464738 -0.09320385 -0.3090315
vn -0.9560634 -0.0941506 -0.2776298
vn -0.9947962 -0.09796588 -0.02798589
vn -0.9928635 -0.09778178 -0.06827024
vn -0.7806822 -0.07687797 -0.6201815
vn -0.2980123 -0.9476037 0.1150471
vn -0.2980123 -0.9476037 0.1150471
vn -0.2980123 -0.9476037 0.1150471
vn -0.2980123 -0.9476037 0.1150471
vn -0.2980123 -0.9476037 0.1150471
vn -0.2980123 -0.9476037 0.1150471
vn -0.2980123 -0.9476037 0.1150471
vn -0.2980123 -0.9476037 0.1150471
vn -0.2980123 -0.9476037 0.1150471
vn -0.2980123 -0.9476037 0.1150471
vn -0.2980123 -0.9476037 0.1150471
vn -0.2980123 -0.9476037 0.1150471
vn -0.2980123 -0.9476037 0.1150471
vn -0.2980123 -0.9476037 0.1150471
vn -0.2980123 -0.9476037 0.1150471
vn -0.2980123 -0.9476037 0.1150471
vn -0.2980123 -0.9476037 0.1150471
vn -0.2980123 -0.9476037 0.1150471
vn -0.2980123 -0.9476037 0.1150471
vn -0.2980123 -0.9476037 0.1150471
vn -0.2980123 -0.9476037 0.1150471
vn -0.2980123 -0.9476037 0.1150471
vn -0.2980123 -0.9476037 0.1150471
vn -0.2980123 -0.9476037 0.1150471
vn -0.5348747 0.8209851 0.1997311
vn -0.5348747 0.8209851 0.1997311
vn -0.5348747 0.8209851 0.1997311
vn -0.5348747 0.8209851 0.1997311
vn -0.5348747 0.8209851 0.1997311
vn -0.5348747 0.8209851 0.1997311
vn -0.5348747 0.8209851 0.1997311
vn -0.5348747 0.8209851 0.1997311
vn -0.5348747 0.8209851 0.1997311
vn -0.5348747 0.8209851 0.1997311
vn -0.5348747 0.8209851 0.1997311
vn -0.5348747 0.8209851 0.1997311
vn -0.5348747 0.8209851 0.1997311
vn -0.5348747 0.8209851 0.1997311
vn -0.5348747 0.8209851 0.1997311
vn -0.5348747 0.8209851 0.1997311
vn -0.5348747 0.8209851 0.1997311
vn -0.5348747 0.8209851 0.1997311
vn -0.5348747 0.8209851 0.1997311
vn -0.5348747 0.8209851 0.1997311
vn -0.5348747 0.8209851 0.1997311
vn -0.5348747 0.8209851 0.1997311
vn -0.5348747 0.8209851 0.1997311
vn -0.5348747 0.8209851 0.1997311
vn 0.8788292 0.0002441532 0.4771363
vn 0.8757287 0.08624832 0.4750372
vn 0.8757287 0.08624832 0.4750372
vn 0.8757287 0.08624832 0.4750372
vn 0.8757287 0.08624832 0.4750372
vn 0.8774236 0.05881027 0.4760977
vn 0.8753732 -0.08621585 0.4756979
vn 0.9807715 0.1951594 0.0003557629
vn 0.9807715 0.1951594 0.0003557629
vn 0.9807715 0.1951594 0.0003557629
vn 0.9807715 0.1951594 0.0003557629
vn 0.9807715 0.1951594 0.0003557629
vn 0.9807715 0.1951594 0.0003557629
vn 0.9807715 0.1951594 0.0003557629
vn 0.9807715 0.1951594 0.0003557629
vn 0.9807715 0.1951594 0.0003557629
vn 0.9807715 0.1951594 0.0003557629
vn 0.9826739 0.1853356 0.00157438
vn 0.9826739 0.1853356 0.00157438
vn 0.9826739 0.1853356 0.00157438
vn 0.9826739 0.1853356 0.00157438
vn 0 0 1
vn 0 0 1
vn 0 0 1
vn 0 0 1
vn 0 0 1
vn 0 0 1
g ClayBossShattered_cell.010_0
f 3/3/3 2/2/2 1/1/1
f 3/3/3 5/5/5 4/4/4
f 8/8/8 7/7/7 6/6/6
f 10/10/10 9/9/9 6/6/6
f 9/9/9 11/11/11 6/6/6
f 14/14/14 13/13/13 12/12/12
f 17/17/17 16/16/16 15/15/15
f 20/20/20 19/19/19 18/18/18
f 23/23/23 22/22/22 21/21/21
f 23/23/23 21/21/21 24/24/24
f 21/21/21 25/25/25 24/24/24
f 25/25/25 26/26/26 24/24/24
f 25/25/25 27/27/27 26/26/26
f 24/24/24 28/28/28 23/23/23
f 23/23/23 28/28/28 29/29/29
f 30/30/30 23/23/23 29/29/29
f 30/30/30 29/29/29 31/31/31
f 32/32/32 30/30/30 31/31/31
f 32/32/32 31/31/31 33/33/33
f 34/34/34 33/33/33 31/31/31
f 31/31/31 29/29/29 35/35/35
f 34/34/34 31/31/31 35/35/35
f 29/29/29 28/28/28 36/36/36
f 29/29/29 36/36/36 35/35/35
f 28/28/28 24/24/24 37/37/37
f 28/28/28 37/37/37 36/36/36
f 35/35/35 36/36/36 38/38/38
f 36/36/36 37/37/37 38/38/38
f 24/24/24 39/39/39 37/37/37
f 37/37/37 39/39/39 38/38/38
f 24/24/24 26/26/26 39/39/39
f 40/40/40 35/35/35 38/38/38
f 35/35/35 40/40/40 34/34/34
f 39/39/39 41/41/41 38/38/38
f 26/26/26 41/41/41 39/39/39
f 42/42/42 40/40/40 38/38/38
f 34/34/34 40/40/40 42/42/42
f 43/43/43 34/34/34 42/42/42
f 43/43/43 42/42/42 44/44/44
f 44/44/44 42/42/42 38/38/38
f 45/45/45 43/43/43 44/44/44
f 45/45/45 44/44/44 46/46/46
f 46/46/46 44/44/44 38/38/38
f 47/47/47 45/45/45 46/46/46
f 47/47/47 46/46/46 48/48/48
f 48/48/48 46/46/46 38/38/38
f 49/49/49 47/47/47 48/48/48
f 48/48/48 50/50/50 49/49/49
f 51/51/51 49/49/49 50/50/50
f 52/52/52 51/51/51 50/50/50
f 26/26/26 53/53/53 41/41/41
f 27/27/27 53/53/53 26/26/26
f 41/41/41 54/54/54 38/38/38
f 53/53/53 54/54/54 41/41/41
f 53/53/53 27/27/27 55/55/55
f 27/27/27 56/56/56 55/55/55
f 55/55/55 57/57/57 53/53/53
f 53/53/53 57/57/57 54/54/54
f 55/55/55 58/58/58 57/57/57
f 54/54/54 59/59/59 38/38/38
f 57/57/57 59/59/59 54/54/54
f 58/58/58 60/60/60 57/57/57
f 57/57/57 60/60/60 59/59/59
f 58/58/58 61/61/61 60/60/60
f 59/59/59 62/62/62 38/38/38
f 60/60/60 62/62/62 59/59/59
f 62/62/62 63/63/63 38/38/38
f 61/61/61 64/64/64 60/60/60
f 60/60/60 64/64/64 62/62/62
f 64/64/64 63/63/63 62/62/62
f 61/61/61 65/65/65 64/64/64
f 65/65/65 66/66/66 64/64/64
f 64/64/64 66/66/66 63/63/63
f 65/65/65 67/67/67 66/66/66
f 67/67/67 68/68/68 66/66/66
f 67/67/67 69/69/69 68/68/68
f 69/69/69 70/70/70 68/68/68
f 66/66/66 71/71/71 63/63/63
f 66/66/66 68/68/68 71/71/71
f 68/68/68 70/70/70 72/72/72
f 68/68/68 72/72/72 71/71/71
f 70/70/70 73/73/73 72/72/72
f 74/74/74 72/72/72 73/73/73
f 71/71/71 72/72/72 75/75/75
f 63/63/63 71/71/71 75/75/75
f 76/76/76 63/63/63 75/75/75
f 79/79/79 78/78/78 77/77/77
f 79/79/79 77/77/77 80/80/80
f 80/80/80 81/81/81 79/79/79
f 81/81/81 82/82/82 79/79/79
f 81/81/81 80/80/80 83/83/83
f 82/82/82 81/81/81 84/84/84
f 85/85/85 81/81/81 83/83/83
f 85/85/85 83/83/83 86/86/86
f 87/87/87 85/85/85 86/86/86
f 87/87/87 88/88/88 85/85/85
f 88/88/88 89/89/89 85/85/85
f 85/85/85 89/89/89 81/81/81
f 88/88/88 90/90/90 89/89/89
f 89/89/89 91/91/91 81/81/81
f 81/81/81 91/91/91 84/84/84
f 91/91/91 89/89/89 90/90/90
f 84/84/84 91/91/91 92/92/92
f 90/90/90 92/92/92 91/91/91
f 93/93/93 84/84/84 92/92/92
f 90/90/90 94/94/94 92/92/92
f 93/93/93 92/92/92 95/95/95
f 95/95/95 92/92/92 94/94/94
f 96/96/96 93/93/93 95/95/95
f 97/97/97 95/95/95 94/94/94
f 98/98/98 96/96/96 95/95/95
f 95/95/95 97/97/97 99/99/99
f 99/99/99 98/98/98 95/95/95
f 99/99/99 100/100/100 98/98/98
f 100/100/100 99/99/99 101/101/101
f 99/99/99 102/102/102 101/101/101
f 101/101/101 102/102/102 103/103/103
f 102/102/102 104/104/104 103/103/103
f 105/105/105 103/103/103 104/104/104
f 106/106/106 105/105/105 104/104/104
f 107/107/107 105/105/105 106/106/106
f 110/110/110 109/109/109 108/108/108
f 108/108/108 111/111/111 110/110/110
f 111/111/111 112/112/112 110/110/110
f 111/111/111 113/113/113 112/112/112
f 113/113/113 114/114/114 112/112/112
f 114/114/114 115/115/115 112/112/112
f 114/114/114 116/116/116 115/115/115
f 114/114/114 117/117/117 116/116/116
f 117/117/117 118/118/118 116/116/116
f 121/121/121 120/120/120 119/119/119
f 121/121/121 122/122/122 120/120/120
f 121/121/121 123/123/123 122/122/122
f 120/120/120 122/122/122 124/124/124
f 120/120/120 124/124/124 125/125/125
f 125/125/125 126/126/126 120/120/120
f 129/129/129 128/128/128 127/127/127
f 128/128/128 130/130/130 127/127/127
f 128/128/128 131/131/131 130/130/130
f 134/134/134 133/133/133 132/132/132
f 132/132/132 135/135/135 134/134/134
f 134/134/134 135/135/135 136/136/136
f 137/137/137 134/134/134 136/136/136
f 138/138/138 137/137/137 136/136/136
f 139/139/139 138/138/138 136/136/136
f 140/140/140 139/139/139 136/136/136
f 140/140/140 136/136/136 141/141/141
f 142/142/142 140/140/140 141/141/141
f 142/142/142 141/141/141 143/143/143
f 143/143/143 144/144/144 142/142/142
f 147/147/147 146/146/146 145/145/145
f 147/147/147 145/145/145 148/148/148
f 149/149/149 147/147/147 148/148/148
f 145/145/145 150/150/150 148/148/148
f 150/150/150 145/145/145 151/151/151
f 151/151/151 152/152/152 150/150/150
f 151/151/151 153/153/153 152/152/152
f 151/151/151 154/154/154 153/153/153
f 154/154/154 155/155/155 153/153/153
f 158/158/158 157/157/157 156/156/156
f 156/156/156 159/159/159 158/158/158
f 156/156/156 160/160/160 159/159/159
f 156/156/156 161/161/161 160/160/160
f 161/161/161 156/156/156 162/162/162
f 165/165/165 164/164/164 163/163/163
f 163/163/163 166/166/166 165/165/165
f 166/166/166 167/167/167 165/165/165
f 166/166/166 168/168/168 167/167/167
f 168/168/168 169/169/169 167/167/167
f 169/169/169 170/170/170 167/167/167
f 170/170/170 171/171/171 167/167/167
f 171/171/171 172/172/172 167/167/167
f 175/175/175 174/174/174 173/173/173
f 176/176/176 175/175/175 173/173/173
f 179/179/179 178/178/178 177/177/177
f 177/177/177 180/180/180 179/179/179
f 180/180/180 181/181/181 179/179/179
f 181/181/181 182/182/182 179/179/179
