g CurvedPlane
v -0.3739697 -1.782446 -0.1847014
v 0.6818344 -0.4798416 -0.05993535
v 0.5214732 -1.609778 -0.3614746
v -0.5885773 -0.4587672 0.2559497
v -1.237584 -1.940827 -0.1715262
v 0.9328395 0.2663826 -0.2402526
v -1.876796 -0.4983584 0.3348092
v -0.4425152 0.4276294 0.1234608
v 0.9521024 0.8796436 -0.628573
v -1.8288 0.4346206 0.07575045
v -0.2175292 1.391833 -0.5194424
v 0.8389691 1.60661 -0.9767042
v -1.34203 1.687885 -0.7109497
v -0.1295125 1.927625 -0.9628183
v -1.122067 2.135977 -1.056084
vt 0.7219266 0.02593499
vt 0.957903 0.296392
vt 1 0.05186997
vt 0.5178332 0.2628227
vt 0.4438531 0
vt 1 0.52307
vt 0.07776329 0.2292535
vt 0.5 0.4938934
vt 0.94113 0.7906902
vt 0 0.4647169
vt 0.498544 0.8199885
vt 0.8341631 0.9471484
vt 0.05595806 0.8492867
vt 0.4657884 0.9735742
vt 0.09741358 1
vn 0.1510074 -0.2914554 0.9445901
vn 0.2494965 -0.05530126 0.9667954
vn 0.231518 -0.2769611 0.9325728
vn 0.1326962 -0.0580775 0.9894538
vn 0.0686061 -0.3040886 0.9501701
vn 0.2760731 0.3344556 0.9010677
vn 0.03668378 -0.01986784 0.9991295
vn 0.132024 0.352888 0.9263043
vn 0.2704925 0.5028358 0.8209689
vn -0.001312303 0.3639963 0.9313995
vn 0.1411814 0.5468107 0.8252671
vn 0.248914 0.51794 0.8184009
vn 0.01284848 0.5808061 0.8139405
vn 0.1391994 0.5745599 0.8065386
vn 0.04126173 0.6169422 0.7859261
g CurvedPlane_0
f 3/3/3 2/2/2 1/1/1
f 2/2/2 4/4/4 1/1/1
f 1/1/1 4/4/4 5/5/5
f 2/2/2 6/6/6 4/4/4
f 4/4/4 7/7/7 5/5/5
f 6/6/6 8/8/8 4/4/4
f 4/4/4 8/8/8 7/7/7
f 6/6/6 9/9/9 8/8/8
f 8/8/8 10/10/10 7/7/7
f 9/9/9 11/11/11 8/8/8
f 8/8/8 11/11/11 10/10/10
f 9/9/9 12/12/12 11/11/11
f 11/11/11 13/13/13 10/10/10
f 12/12/12 14/14/14 11/11/11
f 11/11/11 14/14/14 13/13/13
f 14/14/14 15/15/15 13/13/13
