g donut3Mesh
v -0.3790927 1.905842 -0.3359307
v -8.5572E-08 1.944073 0.3656174
v -1.303592E-07 1.943179 -0.3359307
v -0.379267 1.906719 0.3656174
v -0.7436202 1.795264 -0.3359307
v -0.7439623 1.79609 0.3656174
v -1.079571 1.615696 -0.3359307
v -1.080067 1.616439 0.3656174
v -1.374034 1.374037 -0.3359307
v -1.374666 1.374669 0.3656174
v -1.615694 1.079574 -0.3359307
v -1.616437 1.080071 0.3656174
v -1.795263 0.7436244 -0.3359307
v -1.796089 0.7439666 0.3656174
v -1.905842 0.3790973 -0.3359307
v -1.906718 0.3792717 0.3656174
v -1.94318 1.614871E-06 -0.3359307
v -1.944074 1.599484E-06 0.3656174
v -1.905842 -0.3790941 -0.3359307
v -1.906719 -0.3792685 0.3656174
v -1.795265 -0.7436214 -0.3359307
v -1.79609 -0.7439637 0.3656174
v -1.615696 -1.079572 -0.3359307
v -1.616439 -1.080068 0.3656174
v -1.374037 -1.374035 -0.3359307
v -1.374668 -1.374667 0.3656174
v -1.079574 -1.615695 -0.3359307
v -1.08007 -1.616438 0.3656174
v -0.7436236 -1.795264 -0.3359307
v -0.7439657 -1.79609 0.3656174
v -0.3790964 -1.905842 -0.3359307
v -0.3792708 -1.906719 0.3656174
v -7.635274E-07 -1.94318 -0.3359307
v -7.190315E-07 -1.944074 0.3656174
v 0.3790949 -1.905842 -0.3359307
v 0.3792694 -1.906719 0.3656174
v 0.7436222 -1.795264 -0.3359307
v 0.7439645 -1.79609 0.3656174
v 1.079572 -1.615695 -0.3359307
v 1.080069 -1.616439 0.3656174
v 1.374035 -1.374036 -0.3359307
v 1.374668 -1.374668 0.3656174
v 1.615695 -1.079573 -0.3359307
v 1.616438 -1.08007 0.3656174
v 1.795264 -0.7436226 -0.3359307
v 1.79609 -0.7439647 0.3656174
v 1.905842 -0.3790956 -0.3359307
v 1.906719 -0.37927 0.3656174
v 1.943179 -1.14755E-07 -0.3359307
v 1.944074 -1.309381E-07 0.3656174
v 1.905841 0.3790953 -0.3359307
v 1.906718 0.3792698 0.3656174
v 1.795263 0.7436223 -0.3359307
v 1.796089 0.7439645 0.3656174
v 1.615695 1.079572 -0.3359307
v 1.616438 1.080069 0.3656174
v 1.374035 1.374035 -0.3359307
v 1.374668 1.374667 0.3656174
v 1.079573 1.615694 -0.3359307
v 1.080069 1.616438 0.3656174
v 0.7436225 1.795263 -0.3359307
v 0.7439647 1.796089 0.3656174
v 0.3790953 1.905841 -0.3359307
v 0.3792699 1.906718 0.3656174
v -1.303592E-07 1.943179 -0.3359307
v -8.5572E-08 1.944073 0.3656174
vt 0.03124979 0.006272405
vt 0 0.9954023
vt 2.980232E-08 0.006272346
vt 0.03124979 0.9954023
vt 0.06249979 0.006272405
vt 0.06249979 0.9954023
vt 0.09374982 0.006272465
vt 0.09374982 0.9954024
vt 0.1249998 0.006272465
vt 0.1249998 0.9954024
vt 0.1562498 0.006272525
vt 0.1562498 0.9954024
vt 0.1874999 0.006272525
vt 0.1874999 0.9954025
vt 0.2187499 0.006272525
vt 0.2187499 0.9954025
vt 0.2499999 0.006272584
vt 0.2499999 0.9954025
vt 0.2812499 0.006272584
vt 0.2812499 0.9954025
vt 0.3124999 0.006272584
vt 0.3124999 0.9954025
vt 0.3437499 0.006272644
vt 0.3437499 0.9954025
vt 0.3749999 0.006272644
vt 0.3749999 0.9954025
vt 0.4062499 0.006272644
vt 0.4062499 0.9954025
vt 0.4374999 0.006272584
vt 0.4374999 0.9954025
vt 0.4687499 0.006272584
vt 0.4687499 0.9954025
vt 0.4999999 0.006272584
vt 0.4999999 0.9954025
vt 0.5312499 0.006272584
vt 0.5312499 0.9954025
vt 0.5624999 0.006272525
vt 0.5624999 0.9954025
vt 0.5937499 0.006272525
vt 0.5937499 0.9954024
vt 0.6249999 0.006272465
vt 0.625 0.9954024
vt 0.65625 0.006272465
vt 0.65625 0.9954024
vt 0.6875 0.006272405
vt 0.6875 0.9954024
vt 0.71875 0.006272405
vt 0.71875 0.9954023
vt 0.75 0.006272346
vt 0.75 0.9954023
vt 0.78125 0.006272346
vt 0.78125 0.9954023
vt 0.8125 0.006272346
vt 0.8125 0.9954023
vt 0.84375 0.006272346
vt 0.84375 0.9954023
vt 0.875 0.006272346
vt 0.875 0.9954023
vt 0.90625 0.006272346
vt 0.90625 0.9954023
vt 0.9375 0.006272346
vt 0.9375 0.9954023
vt 0.96875 0.006272346
vt 0.96875 0.9954023
vt 1 0.006272346
vt 1 0.9954023
vn 0.1950771 -0.9807872 0.001251277
vn 0 -0.9999993 0.001251296
vn 0 -0.9999993 0.001251296
vn 0.1950771 -0.9807872 0.001251277
vn 0.3826813 -0.9238796 0.00125129
vn 0.3826813 -0.9238796 0.00125129
vn 0.5555727 -0.831467 0.00125129
vn 0.5555727 -0.831467 0.00125129
vn 0.7071062 -0.7071062 0.001251299
vn 0.7071062 -0.7071062 0.001251299
vn 0.831467 -0.5555727 0.00125129
vn 0.831467 -0.5555727 0.00125129
vn 0.9238796 -0.3826813 0.00125129
vn 0.9238796 -0.3826813 0.00125129
vn 0.9807872 -0.1950771 0.001251277
vn 0.9807872 -0.1950771 0.001251277
vn 0.9999993 0 0.001251296
vn 0.9999993 0 0.001251296
vn 0.9807872 0.1950771 0.001251277
vn 0.9807872 0.1950771 0.001251277
vn 0.9238796 0.3826813 0.00125129
vn 0.9238796 0.3826813 0.00125129
vn 0.831467 0.5555727 0.00125129
vn 0.831467 0.5555727 0.00125129
vn 0.7071062 0.7071062 0.001251299
vn 0.7071062 0.7071062 0.001251299
vn 0.5555727 0.831467 0.00125129
vn 0.5555727 0.831467 0.00125129
vn 0.3826813 0.9238796 0.00125129
vn 0.3826813 0.9238796 0.00125129
vn 0.1950771 0.9807872 0.001251277
vn 0.1950771 0.9807872 0.001251277
vn 0 0.9999993 0.001251296
vn 0 0.9999993 0.001251296
vn -0.1950771 0.9807872 0.001251277
vn -0.1950771 0.9807872 0.001251277
vn -0.3826813 0.9238796 0.00125129
vn -0.3826813 0.9238796 0.00125129
vn -0.5555727 0.831467 0.00125129
vn -0.5555727 0.831467 0.00125129
vn -0.7071062 0.7071062 0.001251299
vn -0.7071062 0.7071062 0.001251299
vn -0.831467 0.5555727 0.00125129
vn -0.831467 0.5555727 0.00125129
vn -0.9238796 0.3826813 0.00125129
vn -0.9238796 0.3826813 0.00125129
vn -0.9807872 0.1950771 0.001251277
vn -0.9807872 0.1950771 0.001251277
vn -0.9999993 0 0.001251296
vn -0.9999993 0 0.001251296
vn -0.9807872 -0.1950771 0.001251277
vn -0.9807872 -0.1950771 0.001251277
vn -0.9238796 -0.3826813 0.00125129
vn -0.9238796 -0.3826813 0.00125129
vn -0.831467 -0.5555727 0.00125129
vn -0.831467 -0.5555727 0.00125129
vn -0.7071062 -0.7071062 0.001251299
vn -0.7071062 -0.7071062 0.001251299
vn -0.5555727 -0.831467 0.00125129
vn -0.5555727 -0.831467 0.00125129
vn -0.3826813 -0.9238796 0.00125129
vn -0.3826813 -0.9238796 0.00125129
vn -0.1950771 -0.9807872 0.001251277
vn -0.1950771 -0.9807872 0.001251277
vn 0 -0.9999993 0.001251296
vn 0 -0.9999993 0.001251296
g donut3Mesh_0
f 3/3/3 2/2/2 1/1/1
f 2/2/2 4/4/4 1/1/1
f 1/1/1 4/4/4 5/5/5
f 4/4/4 6/6/6 5/5/5
f 5/5/5 6/6/6 7/7/7
f 6/6/6 8/8/8 7/7/7
f 7/7/7 8/8/8 9/9/9
f 8/8/8 10/10/10 9/9/9
f 9/9/9 10/10/10 11/11/11
f 10/10/10 12/12/12 11/11/11
f 11/11/11 12/12/12 13/13/13
f 12/12/12 14/14/14 13/13/13
f 13/13/13 14/14/14 15/15/15
f 14/14/14 16/16/16 15/15/15
f 15/15/15 16/16/16 17/17/17
f 16/16/16 18/18/18 17/17/17
f 17/17/17 18/18/18 19/19/19
f 18/18/18 20/20/20 19/19/19
f 19/19/19 20/20/20 21/21/21
f 20/20/20 22/22/22 21/21/21
f 21/21/21 22/22/22 23/23/23
f 22/22/22 24/24/24 23/23/23
f 23/23/23 24/24/24 25/25/25
f 24/24/24 26/26/26 25/25/25
f 25/25/25 26/26/26 27/27/27
f 26/26/26 28/28/28 27/27/27
f 27/27/27 28/28/28 29/29/29
f 28/28/28 30/30/30 29/29/29
f 29/29/29 30/30/30 31/31/31
f 30/30/30 32/32/32 31/31/31
f 31/31/31 32/32/32 33/33/33
f 32/32/32 34/34/34 33/33/33
f 33/33/33 34/34/34 35/35/35
f 34/34/34 36/36/36 35/35/35
f 35/35/35 36/36/36 37/37/37
f 36/36/36 38/38/38 37/37/37
f 37/37/37 38/38/38 39/39/39
f 38/38/38 40/40/40 39/39/39
f 39/39/39 40/40/40 41/41/41
f 40/40/40 42/42/42 41/41/41
f 41/41/41 42/42/42 43/43/43
f 42/42/42 44/44/44 43/43/43
f 43/43/43 44/44/44 45/45/45
f 44/44/44 46/46/46 45/45/45
f 45/45/45 46/46/46 47/47/47
f 46/46/46 48/48/48 47/47/47
f 47/47/47 48/48/48 49/49/49
f 48/48/48 50/50/50 49/49/49
f 49/49/49 50/50/50 51/51/51
f 50/50/50 52/52/52 51/51/51
f 51/51/51 52/52/52 53/53/53
f 52/52/52 54/54/54 53/53/53
f 53/53/53 54/54/54 55/55/55
f 54/54/54 56/56/56 55/55/55
f 55/55/55 56/56/56 57/57/57
f 56/56/56 58/58/58 57/57/57
f 57/57/57 58/58/58 59/59/59
f 58/58/58 60/60/60 59/59/59
f 59/59/59 60/60/60 61/61/61
f 60/60/60 62/62/62 61/61/61
f 61/61/61 62/62/62 63/63/63
f 62/62/62 64/64/64 63/63/63
f 63/63/63 64/64/64 65/65/65
f 64/64/64 66/66/66 65/65/65
