g donut5Mesh
v -3.991749E-08 1.381258 0.5606323
v -2.493089E-08 1.213482 1.064861
v 0.2367387 1.190166 1.064861
v 0.2694701 1.354717 0.5606323
v -6.333804E-08 1.57164 0.286738
v 0.4643796 1.121112 1.064861
v 0.3066117 1.541441 0.286738
v -1.033941E-07 1.952084 0.02243766
v 0.5285845 1.276116 0.5606323
v 0.6741747 1.008974 1.064861
v 0.3808327 1.914575 0.02243766
v -1.641636E-07 2.461904 -0.1163665
v 0.4802935 2.414599 -0.1163665
v 0.7673858 1.148474 0.5606323
v 0.8580616 0.8580616 1.064861
v 0.6014405 1.452006 0.286738
v 0.7470303 1.80349 0.02243766
v 0.9421298 2.274502 -0.1163665
v 0.9766969 0.9766967 0.5606323
v 1.008974 0.6741747 1.064861
v 0.8731562 1.306771 0.286738
v 1.08452 1.623099 0.02243766
v 1.36776 2.046998 -0.1163665
v 1.148474 0.7673856 0.5606323
v 1.121112 0.4643796 1.064861
v 1.111317 1.111317 0.286738
v 1.380332 1.380332 0.02243766
v 1.740829 1.740829 -0.1163665
v 1.276116 0.5285844 0.5606323
v 1.190166 0.2367387 1.064861
v 1.306771 0.8731561 0.286738
v 1.623099 1.08452 0.02243766
v 2.046998 1.36776 -0.1163665
v 1.354717 0.2694701 0.5606323
v 1.213483 3.197428E-08 1.064861
v 1.452006 0.6014404 0.286738
v 1.803491 0.7470301 0.02243766
v 2.274502 0.9421294 -0.1163665
v 1.381258 -3.423053E-09 0.5606323
v 1.190166 -0.2367386 1.064861
v 1.541441 0.3066117 0.286738
v 1.914575 0.3808326 0.02243766
v 2.414599 0.4802933 -0.1163665
v 1.354718 -0.26947 0.5606323
v 1.121112 -0.4643795 1.064861
v 1.57164 -4.771888E-08 0.286738
v 1.952084 -1.315683E-07 0.02243766
v 2.461904 -2.428447E-07 -0.1163665
v 1.276116 -0.5285845 0.5606323
v 1.008974 -0.6741748 1.064861
v 1.541441 -0.3066117 0.286738
v 1.914576 -0.3808328 0.02243766
v 2.414599 -0.4802938 -0.1163665
v 1.148474 -0.7673858 0.5606323
v 0.8580616 -0.8580619 1.064861
v 1.452006 -0.6014405 0.286738
v 1.803491 -0.7470304 0.02243766
v 2.274503 -0.94213 -0.1163665
v 0.9766969 -0.9766971 0.5606323
v 0.6741747 -1.008974 1.064861
v 1.306771 -0.8731564 0.286738
v 1.623099 -1.08452 0.02243766
v 2.046998 -1.367761 -0.1163665
v 0.7673857 -1.148474 0.5606323
v 0.4643795 -1.121112 1.064861
v 1.111317 -1.111318 0.286738
v 1.380332 -1.380333 0.02243766
v 1.740829 -1.740829 -0.1163665
v 0.5285844 -1.276116 0.5606323
v 0.2367384 -1.190166 1.064861
v 0.8731562 -1.306771 0.286738
v 1.08452 -1.623099 0.02243766
v 1.36776 -2.046999 -0.1163665
v 0.2694698 -1.354718 0.5606323
v -4.203337E-07 -1.213483 1.064861
v 0.6014403 -1.452006 0.286738
v 0.74703 -1.803491 0.02243766
v 0.9421293 -2.274503 -0.1163665
v -4.899885E-07 -1.381258 0.5606323
v -0.2367392 -1.190166 1.064861
v 0.3066114 -1.541442 0.286738
v 0.3808322 -1.914576 0.02243766
v 0.4802929 -2.4146 -0.1163665
v -0.2694707 -1.354718 0.5606323
v -0.4643803 -1.121112 1.064861
v -5.754434E-07 -1.57164 0.286738
v -7.394639E-07 -1.952085 0.02243766
v -9.663538E-07 -2.461904 -0.1163665
v -0.5285853 -1.276116 0.5606323
v -0.6741754 -1.008974 1.064861
v -0.3066125 -1.541441 0.286738
v -0.3808337 -1.914576 0.02243766
v -0.4802948 -2.414599 -0.1163665
v -0.7673866 -1.148474 0.5606323
v -0.8580623 -0.8580614 1.064861
v -0.6014414 -1.452006 0.286738
v -0.7470314 -1.803491 0.02243766
v -0.9421312 -2.274503 -0.1163665
v -0.9766975 -0.9766965 0.5606323
v -1.008974 -0.6741742 1.064861
v -0.8731573 -1.306771 0.286738
v -1.084521 -1.623099 0.02243766
v -1.367762 -2.046998 -0.1163665
v -1.148475 -0.7673852 0.5606323
v -1.121112 -0.4643788 1.064861
v -1.111318 -1.111317 0.286738
v -1.380333 -1.380332 0.02243766
v -1.74083 -1.740828 -0.1163665
v -1.276117 -0.5285836 0.5606323
v -1.190166 -0.2367377 1.064861
v -1.306772 -0.8731557 0.286738
v -1.6231 -1.084519 0.02243766
v -2.047 -1.36776 -0.1163665
v -1.354718 -0.269469 0.5606323
v -1.213482 1.112097E-06 1.064861
v -1.452007 -0.6014396 0.286738
v -1.803492 -0.7470292 0.02243766
v -2.274504 -0.9421284 -0.1163665
v -1.381258 1.226036E-06 0.5606323
v -1.190166 0.2367399 1.064861
v -1.541442 -0.3066106 0.286738
v -1.914576 -0.3808314 0.02243766
v -2.4146 -0.480292 -0.1163665
v -1.354717 0.2694714 0.5606323
v -1.121111 0.4643809 1.064861
v -1.57164 1.3512E-06 0.286738
v -1.952085 1.605984E-06 0.02243766
v -2.461904 1.948499E-06 -0.1163665
v -1.276116 0.5285859 0.5606323
v -1.008973 0.674176 1.064861
v -1.541441 0.3066132 0.286738
v -1.914575 0.3808345 0.02243766
v -2.414599 0.4802957 -0.1163665
v -1.148473 0.7673872 0.5606323
v -0.8580607 0.8580626 1.064861
v -1.452006 0.601442 0.286738
v -1.80349 0.7470322 0.02243766
v -2.274502 0.942132 -0.1163665
v -0.9766957 0.9766979 0.5606323
v -0.6741735 1.008975 1.064861
v -1.30677 0.8731578 0.286738
v -1.623098 1.084522 0.02243766
v -2.046997 1.367763 -0.1163665
v -0.7673844 1.148475 0.5606323
v -0.4643781 1.121112 1.064861
v -1.111316 1.111318 0.286738
v -1.380331 1.380334 0.02243766
v -1.740827 1.740831 -0.1163665
v -0.5285828 1.276117 0.5606323
v -0.2367369 1.190166 1.064861
v -0.8731547 1.306772 0.286738
v -1.084518 1.6231 0.02243766
v -1.367758 2.047 -0.1163665
v -0.269468 1.354718 0.5606323
v -2.493089E-08 1.213482 1.064861
v -3.991749E-08 1.381258 0.5606323
v -0.6014386 1.452007 0.286738
v -0.7470279 1.803492 0.02243766
v -0.9421268 2.274504 -0.1163665
v -0.3066094 1.541442 0.286738
v -6.333804E-08 1.57164 0.286738
v -0.3808299 1.914576 0.02243766
v -0.4802901 2.414599 -0.1163665
v -1.033941E-07 1.952084 0.02243766
v -1.641636E-07 2.461904 -0.1163665
vt 1 0.8717611
vt 1 0.9954023
vt 0.96875 0.9954023
vt 0.96875 0.8717611
vt 1 0.7481198
vt 0.9375 0.9954023
vt 0.96875 0.7481198
vt 1 0.5008373
vt 0.9375 0.8717611
vt 0.90625 0.9954023
vt 0.96875 0.5008373
vt 1 0.006272346
vt 0.96875 0.006272346
vt 0.90625 0.8717611
vt 0.875 0.9954023
vt 0.9375 0.7481198
vt 0.9375 0.5008373
vt 0.9375 0.006272346
vt 0.875 0.8717611
vt 0.84375 0.9954023
vt 0.90625 0.7481198
vt 0.90625 0.5008373
vt 0.90625 0.006272346
vt 0.84375 0.8717611
vt 0.8125 0.9954023
vt 0.875 0.7481198
vt 0.875 0.5008373
vt 0.875 0.006272346
vt 0.8125 0.8717611
vt 0.78125 0.9954023
vt 0.84375 0.7481198
vt 0.84375 0.5008373
vt 0.84375 0.006272346
vt 0.78125 0.8717611
vt 0.75 0.9954023
vt 0.8125 0.7481198
vt 0.8125 0.5008373
vt 0.8125 0.006272346
vt 0.75 0.8717611
vt 0.71875 0.9954023
vt 0.78125 0.7481198
vt 0.78125 0.5008373
vt 0.78125 0.006272346
vt 0.71875 0.8717611
vt 0.6875 0.9954024
vt 0.75 0.7481198
vt 0.75 0.5008373
vt 0.75 0.006272346
vt 0.6875 0.8717611
vt 0.65625 0.9954024
vt 0.71875 0.7481198
vt 0.71875 0.5008374
vt 0.71875 0.006272405
vt 0.65625 0.8717612
vt 0.625 0.9954024
vt 0.6875 0.7481199
vt 0.6875 0.5008374
vt 0.6875 0.006272405
vt 0.625 0.8717612
vt 0.5937499 0.9954024
vt 0.65625 0.74812
vt 0.65625 0.5008374
vt 0.65625 0.006272465
vt 0.5937499 0.8717612
vt 0.5624999 0.9954025
vt 0.625 0.74812
vt 0.625 0.5008374
vt 0.6249999 0.006272465
vt 0.5624999 0.8717612
vt 0.5312499 0.9954025
vt 0.5937499 0.74812
vt 0.5937499 0.5008374
vt 0.5937499 0.006272525
vt 0.5312499 0.8717612
vt 0.4999999 0.9954025
vt 0.5624999 0.74812
vt 0.5624999 0.5008375
vt 0.5624999 0.006272525
vt 0.4999999 0.8717612
vt 0.4687499 0.9954025
vt 0.5312499 0.74812
vt 0.5312499 0.5008375
vt 0.5312499 0.006272584
vt 0.4687499 0.8717612
vt 0.4374999 0.9954025
vt 0.4999999 0.74812
vt 0.4999999 0.5008375
vt 0.4999999 0.006272584
vt 0.4374999 0.8717612
vt 0.4062499 0.9954025
vt 0.4687499 0.74812
vt 0.4687499 0.5008375
vt 0.4687499 0.006272584
vt 0.4062499 0.8717613
vt 0.3749999 0.9954025
vt 0.4374999 0.74812
vt 0.4374999 0.5008375
vt 0.4374999 0.006272584
vt 0.3749999 0.8717613
vt 0.3437499 0.9954025
vt 0.4062499 0.7481201
vt 0.4062499 0.5008376
vt 0.4062499 0.006272644
vt 0.3437499 0.8717613
vt 0.3124999 0.9954025
vt 0.3749999 0.7481201
vt 0.3749999 0.5008376
vt 0.3749999 0.006272644
vt 0.3124999 0.8717612
vt 0.2812499 0.9954025
vt 0.3437499 0.7481201
vt 0.3437499 0.5008376
vt 0.3437499 0.006272644
vt 0.2812499 0.8717612
vt 0.2499999 0.9954025
vt 0.3124999 0.74812
vt 0.3124999 0.5008375
vt 0.3124999 0.006272584
vt 0.2499999 0.8717612
vt 0.2187499 0.9954025
vt 0.2812499 0.74812
vt 0.2812499 0.5008375
vt 0.2812499 0.006272584
vt 0.2187499 0.8717612
vt 0.1874999 0.9954025
vt 0.2499999 0.74812
vt 0.2499999 0.5008375
vt 0.2499999 0.006272584
vt 0.1874999 0.8717612
vt 0.1562498 0.9954024
vt 0.2187499 0.74812
vt 0.2187499 0.5008375
vt 0.2187499 0.006272525
vt 0.1562498 0.8717612
vt 0.1249998 0.9954024
vt 0.1874999 0.74812
vt 0.1874999 0.5008375
vt 0.1874999 0.006272525
vt 0.1249998 0.8717612
vt 0.09374982 0.9954024
vt 0.1562498 0.74812
vt 0.1562498 0.5008374
vt 0.1562498 0.006272525
vt 0.09374982 0.8717612
vt 0.06249979 0.9954023
vt 0.1249998 0.74812
vt 0.1249998 0.5008374
vt 0.1249998 0.006272465
vt 0.06249979 0.8717611
vt 0.03124979 0.9954023
vt 0.09374982 0.74812
vt 0.09374982 0.5008374
vt 0.09374982 0.006272465
vt 0.03124979 0.8717611
vt 0 0.9954023
vt 3.72529E-09 0.8717611
vt 0.06249979 0.7481198
vt 0.06249979 0.5008374
vt 0.06249979 0.006272405
vt 0.03124979 0.7481198
vt 7.450581E-09 0.7481198
vt 0.03124979 0.5008374
vt 0.03124979 0.006272405
vt 1.490116E-08 0.5008373
vt 2.980232E-08 0.006272346
vn 0 -0.8923177 -0.4514081
vn 0 -0.948854 -0.315715
vn -0.1850991 -0.9306226 -0.3157214
vn -0.1740819 -0.8751708 -0.4514106
vn 0 -0.7013921 -0.7127757
vn -0.3631137 -0.8766246 -0.3157179
vn -0.1368162 -0.6879262 -0.7127686
vn 0 -0.4139616 -0.9102944
vn -0.3414813 -0.8243893 -0.451412
vn -0.5271527 -0.7889438 -0.3157178
vn -0.08075405 -0.4059982 -0.9102989
vn 0 -0.2626758 -0.9648841
vn -0.05124102 -0.2576395 -0.9648815
vn -0.4957333 -0.7419366 -0.4514185
vn -0.6709391 -0.6709391 -0.3157235
vn -0.2684138 -0.648008 -0.7127691
vn -0.1583939 -0.382465 -0.9102923
vn -0.1005289 -0.2426855 -0.9648823
vn -0.6309614 -0.6309614 -0.4514148
vn -0.7889438 -0.5271527 -0.3157178
vn -0.3896684 -0.5831903 -0.7127746
vn -0.229992 -0.3441944 -0.9102933
vn -0.1459405 -0.2184225 -0.9648798
vn -0.7419366 -0.4957333 -0.4514185
vn -0.8766246 -0.3631137 -0.3157179
vn -0.4959633 -0.4959633 -0.7127698
vn -0.2927101 -0.2927101 -0.9102975
vn -0.1857379 -0.1857379 -0.9648849
vn -0.8243893 -0.3414813 -0.451412
vn -0.9306226 -0.1850991 -0.3157214
vn -0.5831903 -0.3896684 -0.7127746
vn -0.3441944 -0.229992 -0.9102933
vn -0.2184225 -0.1459405 -0.9648798
vn -0.8751708 -0.1740819 -0.4514106
vn -0.948854 0 -0.315715
vn -0.648008 -0.2684138 -0.7127691
vn -0.382465 -0.1583939 -0.9102923
vn -0.2426855 -0.1005289 -0.9648823
vn -0.8923177 0 -0.4514081
vn -0.9306226 0.1850991 -0.3157214
vn -0.6879262 -0.1368162 -0.7127686
vn -0.4059982 -0.08075405 -0.9102989
vn -0.2576395 -0.05124102 -0.9648815
vn -0.8751708 0.1740819 -0.4514106
vn -0.8766246 0.3631137 -0.3157179
vn -0.7013921 0 -0.7127757
vn -0.4139616 0 -0.9102944
vn -0.2626758 0 -0.9648841
vn -0.8243893 0.3414813 -0.451412
vn -0.7889438 0.5271527 -0.3157178
vn -0.6879262 0.1368162 -0.7127686
vn -0.4059982 0.08075405 -0.9102989
vn -0.2576395 0.05124102 -0.9648815
vn -0.7419366 0.4957333 -0.4514185
vn -0.6709391 0.6709391 -0.3157235
vn -0.648008 0.2684138 -0.7127691
vn -0.382465 0.1583939 -0.9102923
vn -0.2426855 0.1005289 -0.9648823
vn -0.6309614 0.6309614 -0.4514148
vn -0.5271527 0.7889438 -0.3157178
vn -0.5831903 0.3896684 -0.7127746
vn -0.3441944 0.229992 -0.9102933
vn -0.2184225 0.1459405 -0.9648798
vn -0.4957333 0.7419366 -0.4514185
vn -0.3631137 0.8766246 -0.3157179
vn -0.4959633 0.4959633 -0.7127698
vn -0.2927101 0.2927101 -0.9102975
vn -0.1857379 0.1857379 -0.9648849
vn -0.3414813 0.8243893 -0.451412
vn -0.1850991 0.9306226 -0.3157214
vn -0.3896684 0.5831903 -0.7127746
vn -0.229992 0.3441944 -0.9102933
vn -0.1459405 0.2184225 -0.9648798
vn -0.1740819 0.8751708 -0.4514106
vn 0 0.948854 -0.315715
vn -0.2684138 0.648008 -0.7127691
vn -0.1583939 0.382465 -0.9102923
vn -0.1005289 0.2426855 -0.9648823
vn 0 0.8923177 -0.4514081
vn 0.1850991 0.9306226 -0.3157214
vn -0.1368162 0.6879262 -0.7127686
vn -0.08075405 0.4059982 -0.9102989
vn -0.05124102 0.2576395 -0.9648815
vn 0.1740819 0.8751708 -0.4514106
vn 0.3631137 0.8766246 -0.3157179
vn 0 0.7013921 -0.7127757
vn 0 0.4139616 -0.9102944
vn 0 0.2626758 -0.9648841
vn 0.3414813 0.8243893 -0.451412
vn 0.5271527 0.7889438 -0.3157178
vn 0.1368162 0.6879262 -0.7127686
vn 0.08075405 0.4059982 -0.9102989
vn 0.05124102 0.2576395 -0.9648815
vn 0.4957563 0.7419253 -0.4514117
vn 0.6709391 0.6709391 -0.3157235
vn 0.2684138 0.648008 -0.7127691
vn 0.1583939 0.382465 -0.9102923
vn 0.1005289 0.2426855 -0.9648823
vn 0.6309614 0.6309614 -0.4514148
vn 0.7889438 0.5271527 -0.3157178
vn 0.3896684 0.5831903 -0.7127746
vn 0.229992 0.3441944 -0.9102933
vn 0.1459405 0.2184225 -0.9648798
vn 0.7419366 0.4957333 -0.4514185
vn 0.8766246 0.3631137 -0.3157179
vn 0.4959633 0.4959633 -0.7127698
vn 0.2927101 0.2927101 -0.9102975
vn 0.1857379 0.1857379 -0.9648849
vn 0.8243893 0.3414813 -0.451412
vn 0.9306226 0.1850991 -0.3157214
vn 0.5831903 0.3896684 -0.7127746
vn 0.3441944 0.229992 -0.9102933
vn 0.2184225 0.1459405 -0.9648798
vn 0.8751708 0.1740819 -0.4514106
vn 0.948854 0 -0.315715
vn 0.648008 0.2684138 -0.7127691
vn 0.382465 0.1583939 -0.9102923
vn 0.2426855 0.1005289 -0.9648823
vn 0.8923177 0 -0.4514081
vn 0.9306226 -0.1850991 -0.3157214
vn 0.6879262 0.1368162 -0.7127686
vn 0.4059982 0.08075405 -0.9102989
vn 0.2576395 0.05124102 -0.9648815
vn 0.8751708 -0.1740819 -0.4514106
vn 0.8766246 -0.3631137 -0.3157179
vn 0.7013921 0 -0.7127757
vn 0.4139616 0 -0.9102944
vn 0.2626758 0 -0.9648841
vn 0.8243893 -0.3414813 -0.451412
vn 0.7889438 -0.5271527 -0.3157178
vn 0.6879262 -0.1368162 -0.7127686
vn 0.4059982 -0.08075405 -0.9102989
vn 0.2576395 -0.05124102 -0.9648815
vn 0.7419253 -0.4957563 -0.4514117
vn 0.6709391 -0.6709391 -0.3157235
vn 0.648008 -0.2684138 -0.7127691
vn 0.382465 -0.1583939 -0.9102923
vn 0.2426855 -0.1005289 -0.9648823
vn 0.6309614 -0.6309614 -0.4514148
vn 0.5271527 -0.7889438 -0.3157178
vn 0.5831903 -0.3896684 -0.7127746
vn 0.3441944 -0.229992 -0.9102933
vn 0.2184225 -0.1459405 -0.9648798
vn 0.4957333 -0.7419366 -0.4514185
vn 0.3630872 -0.8766342 -0.3157214
vn 0.4959633 -0.4959633 -0.7127698
vn 0.2927101 -0.2927101 -0.9102975
vn 0.1857379 -0.1857379 -0.9648849
vn 0.3414813 -0.8243893 -0.451412
vn 0.1850991 -0.9306226 -0.3157214
vn 0.3896684 -0.5831903 -0.7127746
vn 0.229992 -0.3441944 -0.9102933
vn 0.1459405 -0.2184225 -0.9648798
vn 0.1740819 -0.8751708 -0.4514106
vn 0 -0.948854 -0.315715
vn 0 -0.8923177 -0.4514081
vn 0.2684138 -0.648008 -0.7127691
vn 0.1583939 -0.382465 -0.9102923
vn 0.1005289 -0.2426855 -0.9648823
vn 0.1368162 -0.6879262 -0.7127686
vn 0 -0.7013921 -0.7127757
vn 0.08075405 -0.4059982 -0.9102989
vn 0.05124102 -0.2576395 -0.9648815
vn 0 -0.4139616 -0.9102944
vn 0 -0.2626758 -0.9648841
g donut5Mesh_0
f 3/3/3 2/2/2 1/1/1
f 4/4/4 3/3/3 1/1/1
f 4/4/4 1/1/1 5/5/5
f 6/6/6 3/3/3 4/4/4
f 7/7/7 4/4/4 5/5/5
f 7/7/7 5/5/5 8/8/8
f 9/9/9 6/6/6 4/4/4
f 9/9/9 4/4/4 7/7/7
f 10/10/10 6/6/6 9/9/9
f 11/11/11 7/7/7 8/8/8
f 11/11/11 8/8/8 12/12/12
f 13/13/13 11/11/11 12/12/12
f 14/14/14 10/10/10 9/9/9
f 15/15/15 10/10/10 14/14/14
f 16/16/16 9/9/9 7/7/7
f 16/16/16 7/7/7 11/11/11
f 14/14/14 9/9/9 16/16/16
f 17/17/17 11/11/11 13/13/13
f 17/17/17 16/16/16 11/11/11
f 18/18/18 17/17/17 13/13/13
f 19/19/19 15/15/15 14/14/14
f 20/20/20 15/15/15 19/19/19
f 21/21/21 14/14/14 16/16/16
f 21/21/21 16/16/16 17/17/17
f 19/19/19 14/14/14 21/21/21
f 22/22/22 17/17/17 18/18/18
f 22/22/22 21/21/21 17/17/17
f 23/23/23 22/22/22 18/18/18
f 24/24/24 20/20/20 19/19/19
f 25/25/25 20/20/20 24/24/24
f 26/26/26 19/19/19 21/21/21
f 26/26/26 21/21/21 22/22/22
f 24/24/24 19/19/19 26/26/26
f 27/27/27 22/22/22 23/23/23
f 27/27/27 26/26/26 22/22/22
f 28/28/28 27/27/27 23/23/23
f 29/29/29 25/25/25 24/24/24
f 30/30/30 25/25/25 29/29/29
f 31/31/31 24/24/24 26/26/26
f 31/31/31 26/26/26 27/27/27
f 29/29/29 24/24/24 31/31/31
f 32/32/32 27/27/27 28/28/28
f 32/32/32 31/31/31 27/27/27
f 33/33/33 32/32/32 28/28/28
f 34/34/34 30/30/30 29/29/29
f 35/35/35 30/30/30 34/34/34
f 36/36/36 29/29/29 31/31/31
f 36/36/36 31/31/31 32/32/32
f 34/34/34 29/29/29 36/36/36
f 37/37/37 32/32/32 33/33/33
f 37/37/37 36/36/36 32/32/32
f 38/38/38 37/37/37 33/33/33
f 39/39/39 35/35/35 34/34/34
f 40/40/40 35/35/35 39/39/39
f 41/41/41 34/34/34 36/36/36
f 41/41/41 36/36/36 37/37/37
f 39/39/39 34/34/34 41/41/41
f 42/42/42 37/37/37 38/38/38
f 42/42/42 41/41/41 37/37/37
f 43/43/43 42/42/42 38/38/38
f 44/44/44 40/40/40 39/39/39
f 45/45/45 40/40/40 44/44/44
f 46/46/46 39/39/39 41/41/41
f 46/46/46 41/41/41 42/42/42
f 44/44/44 39/39/39 46/46/46
f 47/47/47 42/42/42 43/43/43
f 47/47/47 46/46/46 42/42/42
f 48/48/48 47/47/47 43/43/43
f 49/49/49 45/45/45 44/44/44
f 50/50/50 45/45/45 49/49/49
f 51/51/51 44/44/44 46/46/46
f 51/51/51 46/46/46 47/47/47
f 49/49/49 44/44/44 51/51/51
f 52/52/52 47/47/47 48/48/48
f 52/52/52 51/51/51 47/47/47
f 53/53/53 52/52/52 48/48/48
f 54/54/54 50/50/50 49/49/49
f 55/55/55 50/50/50 54/54/54
f 56/56/56 49/49/49 51/51/51
f 56/56/56 51/51/51 52/52/52
f 54/54/54 49/49/49 56/56/56
f 57/57/57 52/52/52 53/53/53
f 57/57/57 56/56/56 52/52/52
f 58/58/58 57/57/57 53/53/53
f 59/59/59 55/55/55 54/54/54
f 60/60/60 55/55/55 59/59/59
f 61/61/61 54/54/54 56/56/56
f 61/61/61 56/56/56 57/57/57
f 59/59/59 54/54/54 61/61/61
f 62/62/62 57/57/57 58/58/58
f 62/62/62 61/61/61 57/57/57
f 63/63/63 62/62/62 58/58/58
f 64/64/64 60/60/60 59/59/59
f 65/65/65 60/60/60 64/64/64
f 66/66/66 59/59/59 61/61/61
f 66/66/66 61/61/61 62/62/62
f 64/64/64 59/59/59 66/66/66
f 67/67/67 62/62/62 63/63/63
f 67/67/67 66/66/66 62/62/62
f 68/68/68 67/67/67 63/63/63
f 69/69/69 65/65/65 64/64/64
f 70/70/70 65/65/65 69/69/69
f 71/71/71 64/64/64 66/66/66
f 71/71/71 66/66/66 67/67/67
f 69/69/69 64/64/64 71/71/71
f 72/72/72 67/67/67 68/68/68
f 72/72/72 71/71/71 67/67/67
f 73/73/73 72/72/72 68/68/68
f 74/74/74 70/70/70 69/69/69
f 75/75/75 70/70/70 74/74/74
f 76/76/76 69/69/69 71/71/71
f 76/76/76 71/71/71 72/72/72
f 74/74/74 69/69/69 76/76/76
f 77/77/77 72/72/72 73/73/73
f 77/77/77 76/76/76 72/72/72
f 78/78/78 77/77/77 73/73/73
f 79/79/79 75/75/75 74/74/74
f 80/80/80 75/75/75 79/79/79
f 81/81/81 74/74/74 76/76/76
f 81/81/81 76/76/76 77/77/77
f 79/79/79 74/74/74 81/81/81
f 82/82/82 77/77/77 78/78/78
f 82/82/82 81/81/81 77/77/77
f 83/83/83 82/82/82 78/78/78
f 84/84/84 80/80/80 79/79/79
f 85/85/85 80/80/80 84/84/84
f 86/86/86 79/79/79 81/81/81
f 86/86/86 81/81/81 82/82/82
f 84/84/84 79/79/79 86/86/86
f 87/87/87 82/82/82 83/83/83
f 87/87/87 86/86/86 82/82/82
f 88/88/88 87/87/87 83/83/83
f 89/89/89 85/85/85 84/84/84
f 90/90/90 85/85/85 89/89/89
f 91/91/91 84/84/84 86/86/86
f 91/91/91 86/86/86 87/87/87
f 89/89/89 84/84/84 91/91/91
f 92/92/92 87/87/87 88/88/88
f 92/92/92 91/91/91 87/87/87
f 93/93/93 92/92/92 88/88/88
f 94/94/94 90/90/90 89/89/89
f 95/95/95 90/90/90 94/94/94
f 96/96/96 89/89/89 91/91/91
f 96/96/96 91/91/91 92/92/92
f 94/94/94 89/89/89 96/96/96
f 97/97/97 92/92/92 93/93/93
f 97/97/97 96/96/96 92/92/92
f 98/98/98 97/97/97 93/93/93
f 99/99/99 95/95/95 94/94/94
f 100/100/100 95/95/95 99/99/99
f 101/101/101 94/94/94 96/96/96
f 101/101/101 96/96/96 97/97/97
f 99/99/99 94/94/94 101/101/101
f 102/102/102 97/97/97 98/98/98
f 102/102/102 101/101/101 97/97/97
f 103/103/103 102/102/102 98/98/98
f 104/104/104 100/100/100 99/99/99
f 105/105/105 100/100/100 104/104/104
f 106/106/106 99/99/99 101/101/101
f 106/106/106 101/101/101 102/102/102
f 104/104/104 99/99/99 106/106/106
f 107/107/107 102/102/102 103/103/103
f 107/107/107 106/106/106 102/102/102
f 108/108/108 107/107/107 103/103/103
f 109/109/109 105/105/105 104/104/104
f 110/110/110 105/105/105 109/109/109
f 111/111/111 104/104/104 106/106/106
f 111/111/111 106/106/106 107/107/107
f 109/109/109 104/104/104 111/111/111
f 112/112/112 107/107/107 108/108/108
f 112/112/112 111/111/111 107/107/107
f 113/113/113 112/112/112 108/108/108
f 114/114/114 110/110/110 109/109/109
f 115/115/115 110/110/110 114/114/114
f 116/116/116 109/109/109 111/111/111
f 116/116/116 111/111/111 112/112/112
f 114/114/114 109/109/109 116/116/116
f 117/117/117 112/112/112 113/113/113
f 117/117/117 116/116/116 112/112/112
f 118/118/118 117/117/117 113/113/113
f 119/119/119 115/115/115 114/114/114
f 120/120/120 115/115/115 119/119/119
f 121/121/121 114/114/114 116/116/116
f 121/121/121 116/116/116 117/117/117
f 119/119/119 114/114/114 121/121/121
f 122/122/122 117/117/117 118/118/118
f 122/122/122 121/121/121 117/117/117
f 123/123/123 122/122/122 118/118/118
f 124/124/124 120/120/120 119/119/119
f 125/125/125 120/120/120 124/124/124
f 126/126/126 119/119/119 121/121/121
f 126/126/126 121/121/121 122/122/122
f 124/124/124 119/119/119 126/126/126
f 127/127/127 122/122/122 123/123/123
f 127/127/127 126/126/126 122/122/122
f 128/128/128 127/127/127 123/123/123
f 129/129/129 125/125/125 124/124/124
f 130/130/130 125/125/125 129/129/129
f 131/131/131 124/124/124 126/126/126
f 131/131/131 126/126/126 127/127/127
f 129/129/129 124/124/124 131/131/131
f 132/132/132 127/127/127 128/128/128
f 132/132/132 131/131/131 127/127/127
f 133/133/133 132/132/132 128/128/128
f 134/134/134 130/130/130 129/129/129
f 135/135/135 130/130/130 134/134/134
f 136/136/136 129/129/129 131/131/131
f 136/136/136 131/131/131 132/132/132
f 134/134/134 129/129/129 136/136/136
f 137/137/137 132/132/132 133/133/133
f 137/137/137 136/136/136 132/132/132
f 138/138/138 137/137/137 133/133/133
f 139/139/139 135/135/135 134/134/134
f 140/140/140 135/135/135 139/139/139
f 141/141/141 134/134/134 136/136/136
f 141/141/141 136/136/136 137/137/137
f 139/139/139 134/134/134 141/141/141
f 142/142/142 137/137/137 138/138/138
f 142/142/142 141/141/141 137/137/137
f 143/143/143 142/142/142 138/138/138
f 144/144/144 140/140/140 139/139/139
f 145/145/145 140/140/140 144/144/144
f 146/146/146 139/139/139 141/141/141
f 146/146/146 141/141/141 142/142/142
f 144/144/144 139/139/139 146/146/146
f 147/147/147 142/142/142 143/143/143
f 147/147/147 146/146/146 142/142/142
f 148/148/148 147/147/147 143/143/143
f 149/149/149 145/145/145 144/144/144
f 150/150/150 145/145/145 149/149/149
f 151/151/151 144/144/144 146/146/146
f 151/151/151 146/146/146 147/147/147
f 149/149/149 144/144/144 151/151/151
f 152/152/152 147/147/147 148/148/148
f 152/152/152 151/151/151 147/147/147
f 153/153/153 152/152/152 148/148/148
f 154/154/154 150/150/150 149/149/149
f 155/155/155 150/150/150 154/154/154
f 156/156/156 155/155/155 154/154/154
f 157/157/157 149/149/149 151/151/151
f 157/157/157 151/151/151 152/152/152
f 154/154/154 149/149/149 157/157/157
f 158/158/158 152/152/152 153/153/153
f 158/158/158 157/157/157 152/152/152
f 159/159/159 158/158/158 153/153/153
f 156/156/156 154/154/154 160/160/160
f 160/160/160 154/154/154 157/157/157
f 160/160/160 157/157/157 158/158/158
f 161/161/161 156/156/156 160/160/160
f 162/162/162 158/158/158 159/159/159
f 162/162/162 160/160/160 158/158/158
f 161/161/161 160/160/160 162/162/162
f 163/163/163 162/162/162 159/159/159
f 164/164/164 161/161/161 162/162/162
f 164/164/164 162/162/162 163/163/163
f 165/165/165 164/164/164 163/163/163
