g Icosphere.004
v -2.298037 -1.375855 -1.89838
v -2.731931 -2.045681 -0.2718575
v -1.661072 -2.518532 -0.8727359
v -3.156304 1.501714 1.35858
v -2.731931 -2.045681 -0.2718575
v -2.298037 -1.375855 -1.89838
v -2.292855 0.9095467 -1.896519
v -2.837687 2.835205 0.1716474
v 2.100185 -1.492892 0.2612359
v 2.172722 0.06986522 -0.6939351
v 1.467969 0.7973584 -1.488714
v 0.5061027 -2.792019 0.328504
v -2.298037 -1.375855 -1.89838
v -1.661072 -2.518532 -0.8727359
v 0.5061027 -2.792019 0.328504
v -1.661072 -2.518532 -0.8727359
v -2.731931 -2.045681 -0.2718575
v -2.30636 -1.619375 1.658486
v 2.172722 0.06986522 -0.6939351
v 2.287064 0.5683078 -0.3849487
v 1.072526 2.612384 -1.528132
v 1.467969 0.7973584 -1.488714
v 2.172722 0.06986522 -0.6939351
v 2.100185 -1.492892 0.2612359
v 2.411782 -0.2838506 1.243661
v 2.287064 0.5683078 -0.3849487
v 0.3811654 -0.3890008 2.942361
v 0.5061027 -2.792019 0.328504
v -2.30636 -1.619375 1.658486
v -2.241751 -0.3816728 3.001093
v 1.072526 2.612384 -1.528132
v 0.05766777 3.46756 -0.4595061
v -1.464733 3.673529 -0.6037526
v -0.965413 2.867928 -1.751456
v -0.965413 2.867928 -1.751456
v -1.464733 3.673529 -0.6037526
v -2.837687 2.835205 0.1716474
v -2.292855 0.9095467 -1.896519
v -2.298037 -1.375855 -1.89838
v 1.467969 0.7973584 -1.488714
v 1.072526 2.612384 -1.528132
v -0.965413 2.867928 -1.751456
v -2.292855 0.9095467 -1.896519
v -2.30636 -1.619375 1.658486
v -2.731931 -2.045681 -0.2718575
v -3.156304 1.501714 1.35858
v -2.241751 -0.3816728 3.001093
v 2.411782 -0.2838506 1.243661
v 2.100185 -1.492892 0.2612359
v 0.5061027 -2.792019 0.328504
v 0.3811654 -0.3890008 2.942361
v 1.663278 0.1872034 2.401059
v 0.05766777 3.46756 -0.4595061
v 1.663278 0.1872034 2.401059
v 0.3811654 -0.3890008 2.942361
v -2.241751 -0.3816728 3.001093
v -1.464733 3.673529 -0.6037526
v -2.837687 2.835205 0.1716474
v -3.156304 1.501714 1.35858
v 2.287064 0.5683078 -0.3849487
v 2.411782 -0.2838506 1.243661
v 1.663278 0.1872034 2.401059
v 0.05766777 3.46756 -0.4595061
v 1.072526 2.612384 -1.528132
vt 0.6242914 0.3128294
vt 0.5676684 0.2274142
vt 0.528133 0.2799655
vt 0.6964331 0.03295143
vt 0.5676684 0.2274142
vt 0.6242914 0.3128294
vt 0.7502102 0.2524472
vt 0.8213053 0.08034225
vt 0.3188364 0.4147752
vt 0.3826119 0.5203891
vt 0.4643874 0.5551395
vt 0.3758978 0.2858456
vt 0.6242914 0.3128294
vt 0.528133 0.2799655
vt 0.3758978 0.2858456
vt 0.528133 0.2799655
vt 0.5676684 0.2274142
vt 0.5124729 0.1364457
vt 0.3826119 0.5203891
vt 0.3683437 0.5553051
vt 0.4939374 0.6966703
vt 0.4643874 0.5551395
vt 0.3826119 0.5203891
vt 0.3188364 0.4147752
vt 0.2487072 0.5159149
vt 0.3683437 0.5553051
vt 0.3318295 0.04729263
vt 0.3758978 0.2858456
vt 0.5124729 0.1364457
vt 0.508629 0.02241723
vt 0.9588858 0.3496029
vt 0.9942616 0.2367202
vt 0.9211884 0.1581968
vt 0.8850785 0.2443379
vt 0.8850785 0.2443379
vt 0.9211884 0.1581968
vt 0.8213053 0.08034225
vt 0.7502102 0.2524472
vt 0.6242914 0.3128294
vt 0.8770556 0.4489777
vt 0.9588858 0.3496029
vt 0.8850785 0.2443379
vt 0.7502102 0.2524472
vt 0.5124729 0.1364457
vt 0.5676684 0.2274142
vt 0.6964331 0.03295143
vt 0.508629 0.02241723
vt 0.1904765 0.1602043
vt 0.2382804 0.2575831
vt 0.3758978 0.2858456
vt 0.3318295 0.04729263
vt 0.2314201 0.06956334
vt 0.4334394 0.8064301
vt 0.1678862 0.5921433
vt 0.08265243 0.6629261
vt 0.01862089 0.8449697
vt 0.4150386 0.9184251
vt 0.3031755 0.9872745
vt 0.1712643 0.9674946
vt 0.3683437 0.5553051
vt 0.2487072 0.5159149
vt 0.1678862 0.5921433
vt 0.4334394 0.8064301
vt 0.4939374 0.6966703
vn -0.5574511 -0.7047011 -0.4389129
vn -0.5574511 -0.7047011 -0.4389129
vn -0.5574511 -0.7047011 -0.4389129
vn -0.9664605 0.002395033 -0.2568045
vn -0.9664605 0.002395033 -0.2568045
vn -0.9664605 0.002395033 -0.2568045
vn -0.9664605 0.002395033 -0.2568045
vn -0.9664605 0.002395033 -0.2568045
vn 0.3718772 -0.4966663 -0.7842385
vn 0.3718772 -0.4966663 -0.7842385
vn 0.3718772 -0.4966663 -0.7842385
vn 0.3718772 -0.4966663 -0.7842385
vn 0.3718772 -0.4966663 -0.7842385
vn 0.3718772 -0.4966663 -0.7842385
vn -0.2627141 -0.9283909 0.2628148
vn -0.2627141 -0.9283909 0.2628148
vn -0.2627141 -0.9283909 0.2628148
vn -0.2627141 -0.9283909 0.2628148
vn 0.8081437 0.1641063 -0.5656614
vn 0.8081437 0.1641063 -0.5656614
vn 0.8081437 0.1641063 -0.5656614
vn 0.8081437 0.1641063 -0.5656614
vn 0.9801789 -0.1344768 -0.1454834
vn 0.9801789 -0.1344768 -0.1454834
vn 0.9801789 -0.1344768 -0.1454834
vn 0.9801789 -0.1344768 -0.1454834
vn 0.01330506 -0.7356932 0.6771843
vn 0.01330506 -0.7356932 0.6771843
vn 0.01330506 -0.7356932 0.6771843
vn 0.01330506 -0.7356932 0.6771843
vn 0.1623492 0.839663 -0.5182748
vn 0.1623492 0.839663 -0.5182748
vn 0.1623492 0.839663 -0.5182748
vn 0.1623492 0.839663 -0.5182748
vn -0.6344644 0.4752183 -0.6096084
vn -0.6344644 0.4752183 -0.6096084
vn -0.6344644 0.4752183 -0.6096084
vn -0.6344644 0.4752183 -0.6096084
vn 0.1080726 0.0008617019 -0.9941426
vn 0.1080726 0.0008617019 -0.9941426
vn 0.1080726 0.0008617019 -0.9941426
vn 0.1080726 0.0008617019 -0.9941426
vn 0.1080726 0.0008617019 -0.9941426
vn -0.9382383 -0.2307298 0.2578228
vn -0.9382383 -0.2307298 0.2578228
vn -0.9382383 -0.2307298 0.2578228
vn -0.9382383 -0.2307298 0.2578228
vn 0.5249973 -0.6139892 0.5894024
vn 0.5249973 -0.6139892 0.5894024
vn 0.5249973 -0.6139892 0.5894024
vn 0.5249973 -0.6139892 0.5894024
vn 0.5249973 -0.6139892 0.5894024
vn 0.01862185 0.6622756 0.7490289
vn 0.01862185 0.6622756 0.7490289
vn 0.01862185 0.6622756 0.7490289
vn 0.01862185 0.6622756 0.7490289
vn 0.01862185 0.6622756 0.7490289
vn 0.01862185 0.6622756 0.7490289
vn 0.01862185 0.6622756 0.7490289
vn 0.7640372 0.5939955 0.2518264
vn 0.7640372 0.5939955 0.2518264
vn 0.7640372 0.5939955 0.2518264
vn 0.7640372 0.5939955 0.2518264
vn 0.7640372 0.5939955 0.2518264
g Icosphere.004_0
f 3/3/3 2/2/2 1/1/1
f 6/6/6 5/5/5 4/4/4
f 4/4/4 7/7/7 6/6/6
f 4/4/4 8/8/8 7/7/7
f 11/11/11 10/10/10 9/9/9
f 9/9/9 12/12/12 11/11/11
f 12/12/12 13/13/13 11/11/11
f 12/12/12 14/14/14 13/13/13
f 17/17/17 16/16/16 15/15/15
f 18/18/18 17/17/17 15/15/15
f 21/21/21 20/20/20 19/19/19
f 22/22/22 21/21/21 19/19/19
f 25/25/25 24/24/24 23/23/23
f 26/26/26 25/25/25 23/23/23
f 29/29/29 28/28/28 27/27/27
f 30/30/30 29/29/29 27/27/27
f 33/33/33 32/32/32 31/31/31
f 34/34/34 33/33/33 31/31/31
f 37/37/37 36/36/36 35/35/35
f 38/38/38 37/37/37 35/35/35
f 41/41/41 40/40/40 39/39/39
f 39/39/39 42/42/42 41/41/41
f 39/39/39 43/43/43 42/42/42
f 46/46/46 45/45/45 44/44/44
f 47/47/47 46/46/46 44/44/44
f 50/50/50 49/49/49 48/48/48
f 48/48/48 51/51/51 50/50/50
f 48/48/48 52/52/52 51/51/51
f 55/55/55 54/54/54 53/53/53
f 53/53/53 56/56/56 55/55/55
f 53/53/53 57/57/57 56/56/56
f 57/57/57 58/58/58 56/56/56
f 58/58/58 59/59/59 56/56/56
f 62/62/62 61/61/61 60/60/60
f 60/60/60 63/63/63 62/62/62
f 60/60/60 64/64/64 63/63/63
