g PotProjectileShatteredMesh_cell.004
v 0.6940805 -0.1676285 -0.2374964
v 0.6792787 -0.455341 0.02733673
v 0.6787069 -0.4486949 0.03756812
v 0.6763296 -0.4210036 0.08010237
v 0.6763296 -0.04218809 0.08010237
v 0.5635701 -0.1852156 0.4106924
v 0.6940805 -0.03642045 -0.2374964
v 0.5635701 -0.07882582 0.4106924
v 0.4740267 -0.1079202 0.5012936
v 0.3281018 0.2452685 0.4106924
v 0.1842917 0.04733086 0.6461309
v 0.397791 0.3411874 0.08010237
v 0.4087617 0.3562872 -0.2374964
v -0.05289402 0.5062881 -0.2374964
v -0.05289395 0.3690615 0.4106924
v -0.05289395 0.1084263 0.6614994
v -0.05289395 0.4876239 0.08010237
v 0.5662051 0.1106371 -0.5419304
v 0.6871887 -0.03865974 -0.3608038
v 0.4341776 0.2915703 -0.550208
v 0.3978845 0.341316 -0.5523908
v -0.05289396 0.4907594 -0.501739
v -0.2435266 0.4312748 -0.4599521
v -0.5088845 0.3484899 -0.4014998
v -0.4338897 0.2452685 0.4106924
v -0.3365415 0.1112802 0.5700658
v -0.568711 0.05970281 0.4106924
v -0.5035789 0.3411875 0.08010237
v -0.5145496 0.3562871 -0.2374964
v -0.7998683 -0.03642051 -0.2374964
v -0.7970301 -0.03734271 -0.288279
v -0.7821175 -0.04218809 0.08010237
v -0.7502542 -0.05254106 0.1735196
v -0.7821175 -0.105332 0.08010237
v -0.7993104 -0.2981603 -0.2275187
v -0.7998683 -0.3044004 -0.2374964
v 0.6787069 -0.4486949 0.03756812
v 0.6763296 -0.4210036 0.08010237
v 0.6940805 -0.1676285 -0.2374964
v 0.6940805 -0.03642045 -0.2374964
v 0.6871887 -0.03865974 -0.3608038
v -0.3365415 0.1112802 0.5700658
v -0.05289393 -0.01165195 0.4737352
v -0.2497215 -0.00821729 0.4124504
v -0.3365415 0.1112802 0.5700658
v 0.1842917 0.04733086 0.6461309
v 0.4740267 -0.1079202 0.5012936
v -0.3365415 0.1112802 0.5700658
v -0.05289395 0.1084263 0.6614994
v 0.1842917 0.04733086 0.6461309
v 0.4740267 -0.1079202 0.5012936
v -0.05289393 -0.01165195 0.4737352
v 0.1109472 -0.05361913 0.4634876
v 0.5635701 -0.1852156 0.4106924
v 0.3141372 -0.1598715 0.366018
v 0.4493623 -0.2717939 0.2367109
v 0.6763296 -0.4210036 0.08010237
v 0.6787069 -0.4486949 0.03756812
v 0.4493623 -0.4253364 -0.00356552
v -0.7995939 -0.3075908 -0.2424079
v -0.5551502 -0.3789135 -0.2713918
v -0.5551503 -0.1159342 -0.3156627
v -0.5551503 -0.1159342 -0.3156627
v -0.7970301 -0.03734271 -0.288279
v -0.7995939 -0.3075908 -0.2424079
v -0.7970301 -0.03734271 -0.288279
v -0.7998683 -0.03642051 -0.2374964
v -0.7998683 -0.3044004 -0.2374964
v -0.7995939 -0.3075908 -0.2424079
v -0.5551503 -0.3230278 -0.1837279
v -0.5551502 -0.3789135 -0.2713918
v -0.7995939 -0.3075908 -0.2424079
v -0.7998683 -0.3044004 -0.2374964
v -0.7993104 -0.2981603 -0.2275187
v 0.6792787 -0.455341 0.02733673
v 0.4398644 -0.4553929 -0.05393399
v 0.4493623 -0.4423201 -0.03020673
v 0.4493623 -0.4253364 -0.00356552
v 0.6787069 -0.4486949 0.03756812
v -0.5551503 -0.3230278 -0.1837279
v -0.7993104 -0.2981603 -0.2275187
v -0.7821175 -0.105332 0.08010237
v -0.5551503 -0.1159342 0.1403955
v -0.7502542 -0.05254106 0.1735196
v -0.5165151 -0.06275745 0.2367109
v -0.568711 0.05970281 0.4106924
v -0.2497215 -0.00821729 0.4124504
v -0.3365415 0.1112802 0.5700658
v 0.3759101 -0.01483594 -0.4888782
v 0.5662051 0.1106371 -0.5419304
v 0.4341776 0.2915703 -0.550208
v 0.2575174 0.1481176 -0.4964435
v -0.2435266 0.4312748 -0.4599521
v -0.05289393 0.2489763 -0.4613011
v -0.3633054 0.1481176 -0.392249
v -0.5088845 0.3484899 -0.4014998
v -0.5551503 -0.1159342 -0.3156627
v -0.7970301 -0.03734271 -0.288279
v 0.6792787 -0.455341 0.02733673
v 0.6940805 -0.1676285 -0.2374964
v 0.6871887 -0.03865974 -0.3608038
v 0.5662051 0.1106371 -0.5419304
v 0.4493623 -0.4423202 -0.06296952
v 0.4398644 -0.4553929 -0.05393399
v 0.4493623 -0.1159342 -0.369104
v 0.3759101 -0.01483594 -0.4888782
v 0.4493623 -0.4423202 -0.06296952
v 0.4493623 -0.4423201 -0.03020673
v 0.4398644 -0.4553929 -0.05393399
v 0.4493623 -0.1159342 -0.369104
v 0.4493623 -0.4253364 -0.00356552
v 0.4493623 -0.2717939 0.2367109
v 0.4493623 -0.1159342 0.2367109
v 0.2575174 0.1481176 0.2367109
v 0.3141372 -0.1598715 0.366018
v 0.3759101 -0.01483594 -0.4888782
v 0.2575174 0.1481176 -0.4964435
v 0.1109472 -0.05361913 0.4634876
v -0.05289393 0.2489763 -0.4613011
v -0.05289393 0.2489763 0.2367109
v -0.05289393 -0.01165195 0.4737352
v -0.3633054 0.1481176 -0.392249
v -0.3633054 0.1481176 0.2367109
v -0.2497215 -0.00821729 0.4124504
v -0.5165151 -0.06275745 0.2367109
v -0.5551503 -0.1159342 0.1403955
v -0.5551503 -0.1159342 -0.3156627
v -0.5551502 -0.3789135 -0.2713918
v -0.5551503 -0.3230278 -0.1837279
v -0.2435266 0.4312748 -0.4599521
v 0.4341776 0.2915703 -0.550208
v 0.3978845 0.341316 -0.5523908
v -0.05289396 0.4907594 -0.501739
vt 0.8085381 0.4025355
vt 0.8018744 0.5217603
vt 0.8016169 0.5263664
vt 0.8005467 0.5455148
vt 0.8005467 0.5455148
vt 0.7497836 0.6943426
vt 0.8085381 0.4025354
vt 0.7497836 0.6943426
vt 0.7094722 0.7351303
vt 0.6437785 0.6943426
vt 0.5790367 0.8003345
vt 0.6751517 0.5455148
vt 0.6800905 0.4025354
vt 0.4722584 0.4025354
vt 0.4722584 0.6943426
vt 0.4722584 0.8072532
vt 0.4722584 0.5455148
vt 0.7509699 0.2654823
vt 0.8054355 0.3470237
vt 0.6915326 0.2617559
vt 0.6751937 0.2607732
vt 0.4722583 0.2835761
vt 0.3864377 0.3023881
vt 0.2669766 0.3287028
vt 0.3007384 0.6943426
vt 0.3445634 0.7660908
vt 0.2400433 0.6943426
vt 0.2693651 0.5455148
vt 0.2644262 0.4025354
vt 0.1359789 0.4025354
vt 0.1372567 0.3796736
vt 0.14397 0.5455148
vt 0.1583145 0.5875702
vt 0.14397 0.5455148
vt 0.13623 0.4070273
vt 0.1359789 0.4025355
vt 0.8016169 0.5263664
vt 0.8005467 0.5455148
vt 0.8085381 0.4025355
vt 0.8085381 0.4025354
vt 0.8054355 0.3470237
vt 0.349804 0.3221714
vt 0.9778373 0.4779803
vt 0.5073856 0.376599
vt 0.349804 0.3221714
vt 0.6170386 0.2659967
vt 0.6133763 0.444113
vt 0.349804 0.3221714
vt 0.7469418 0.2470884
vt 0.6170386 0.2659967
vt 0.6133763 0.444113
vt 0.9778373 0.4779803
vt 0.8876505 0.4905881
vt 0.668613 0.5555279
vt 0.8800352 0.6104535
vt 0.9542095 0.7694662
vt 0.9609107 0.9576534
vt 1 0.9591286
vt 1 0.8151787
vt 0.9105678 0
vt 0.4716401 0
vt 0.2799971 0.1847093
vt 0.2799971 0.1847093
vt 0.3138272 0.03292847
vt 0.9105678 0
vt 0.1372567 0.3796736
vt 0.1359789 0.4025354
vt 0.1359789 0.4025355
vt 0.1361025 0.4003244
vt 0.184688 0.184688
vt 0.5283599 0
vt 0.08943218 0
vt 0.06981178 0.01027875
vt 0.03143892 0.03143892
vt 1 0.9377162
vt 1 0.7066911
vt 0.9196221 0.7590525
vt 0.8151787 0.8151787
vt 0.9591286 0.9591286
vt 1 0.184688
vt 1 0.03143892
vt 0.7229038 0.04234625
vt 0.7050825 0.1848116
vt 0.643104 0.06237911
vt 0.6237509 0.2090949
vt 0.4569291 0.1764044
vt 0.5073856 0.376599
vt 0.349804 0.3221714
vt 0.6449873 0.6449873
vt 0.8286172 0.8286172
vt 1 0.8056958
vt 0.7881975 0.6947927
vt 1 0.3804128
vt 0.8316112 0.5000065
vt 0.6374967 0.3051726
vt 0.8381042 0.2138581
vt 0.2799971 0.1847093
vt 0.3138272 0.03292847
vt 0.9377162 0.9377162
vt 0.9520056 0.5308046
vt 0.9453582 0.3353471
vt 0.8286172 0
vt 0.7158566 0.6967214
vt 0.7066911 0.7066911
vt 0.7158636 0.2189057
vt 0.6449873 0
vt 0.5275328 0.3115759
vt 0.5275328 0.3115759
vt 0.5264874 0.3115759
vt 0.5275328 0.3115759
vt 0.5275328 0.3115759
vt 0.5275328 0.3115759
vt 0.5275328 0.3115759
vt 0.5064198 0.3115759
vt 0.5275328 0.3115759
vt 0.5194491 0.3115759
vt 0.5064198 0.3115759
vt 0.5064198 0.3115759
vt 0.4722584 0.3115759
vt 0.4722584 0.3115759
vt 0.4722584 0.3115759
vt 0.4380969 0.3115759
vt 0.4380969 0.3115759
vt 0.4380969 0.3115759
vt 0.4212359 0.3115759
vt 0.416984 0.3115759
vt 0.416984 0.3115759
vt 0.416984 0.311576
vt 0.416984 0.311576
vt 0.6195872 0
vt 0.1943043 0
vt 0.3459092 0.1288244
vt 0.8010679 0.3010965
vn 0.999584 0 0.02884031
vn 0.9984426 0 0.05578949
vn 0.9984426 0 0.05578949
vn 0.9900923 0 0.1404172
vn 0.9328262 0.3030884 0.1948665
vn 0.8904743 0 0.4550337
vn 0.9510608 0.3090039 0
vn 0.8101675 0.2632297 0.5237736
vn 0.6195464 0.3222252 0.7157745
vn 0.5007062 0.6891654 0.5237791
vn 0.3661381 0.5899655 0.7196413
vn 0.576515 0.7935093 0.1948676
vn 0.5877669 0.8090302 0
vn 0 1 0
vn 0 0.8518573 0.5237738
vn 0.02633799 0.69315 0.7203121
vn 0 0.98083 0.1948659
vn 0.8077628 0.5868617 -0.05578986
vn 0.8906355 0.4510095 -0.05795555
vn 0.8077628 0.5868617 -0.05578986
vn 0.5928947 0.8031408 -0.05865772
vn 0.0329608 0.9977356 -0.05862749
vn -0.3085205 0.9495803 -0.05578944
vn -0.549712 0.8332965 -0.05859688
vn -0.5007062 0.6891654 0.5237791
vn -0.3278976 0.6148691 0.7172303
vn -0.7261654 0.5275792 0.4408447
vn -0.576515 0.7935093 0.1948676
vn -0.5877669 0.8090302 0
vn -0.9510608 0.3090039 0
vn -0.936316 0.3462355 -0.05859604
vn -0.9328262 0.3030884 0.1948665
vn -0.8213249 0.4641927 0.331588
vn -0.989162 0 0.1468285
vn -0.9984426 0 0.05578949
vn -0.999799 0 -0.02005091
vn 0.9984426 0 0.05578949
vn 0.9900923 0 0.1404172
vn 0.999584 0 0.02884031
vn 0.9510608 0.3090039 0
vn 0.8906355 0.4510095 -0.05795555
vn -0.1793074 -0.8289207 0.5298483
vn -0.1793074 -0.8289207 0.5298483
vn -0.1793074 -0.8289207 0.5298483
vn -0.1793074 -0.8289207 0.5298483
vn -0.1793074 -0.8289207 0.5298483
vn -0.1793074 -0.8289207 0.5298483
vn -0.1793074 -0.8289207 0.5298483
vn -0.1793074 -0.8289207 0.5298483
vn -0.1793074 -0.8289207 0.5298483
vn -0.1793074 -0.8289207 0.5298483
vn -0.1793074 -0.8289207 0.5298483
vn -0.1793074 -0.8289207 0.5298483
vn -0.1793074 -0.8289207 0.5298483
vn -0.1793074 -0.8289207 0.5298483
vn -0.1793074 -0.8289207 0.5298483
vn -0.1793074 -0.8289207 0.5298483
vn -0.1793074 -0.8289207 0.5298483
vn -0.1793074 -0.8289207 0.5298483
vn -0.1632707 -0.163597 -0.9729227
vn -0.1632707 -0.163597 -0.9729227
vn -0.1632707 -0.163597 -0.9729227
vn -0.1632707 -0.163597 -0.9729227
vn -0.1632707 -0.163597 -0.9729227
vn -0.1632707 -0.163597 -0.9729227
vn -0.936316 0.3462355 -0.05859604
vn -0.9510608 0.3090039 0
vn -0.999799 0 -0.02005091
vn -0.9984426 0 -0.05578949
vn -0.1793391 -0.8295566 0.5288415
vn -0.1793391 -0.8295566 0.5288415
vn -0.1793391 -0.8295566 0.5288415
vn -0.1793391 -0.8295566 0.5288415
vn -0.1793391 -0.8295566 0.5288415
vn -0.1793388 -0.8295572 0.5288405
vn -0.1793388 -0.8295572 0.5288405
vn -0.1793388 -0.8295572 0.5288405
vn -0.1793388 -0.8295572 0.5288405
vn -0.1793388 -0.8295572 0.5288405
vn -0.1793074 -0.8289207 0.5298483
vn -0.1793074 -0.8289207 0.5298483
vn -0.1793074 -0.8289207 0.5298483
vn -0.1793074 -0.8289207 0.5298483
vn -0.1793074 -0.8289207 0.5298483
vn -0.1793074 -0.8289207 0.5298483
vn -0.1793074 -0.8289207 0.5298483
vn -0.1793074 -0.8289207 0.5298483
vn -0.1793074 -0.8289207 0.5298483
vn -0.1632707 -0.163597 -0.9729227
vn -0.1632707 -0.163597 -0.9729227
vn -0.1632707 -0.163597 -0.9729227
vn -0.1632707 -0.163597 -0.9729227
vn -0.1632707 -0.163597 -0.9729227
vn -0.1632707 -0.163597 -0.9729227
vn -0.1632707 -0.163597 -0.9729227
vn -0.1632707 -0.163597 -0.9729227
vn -0.1632707 -0.163597 -0.9729227
vn -0.1632707 -0.163597 -0.9729227
vn 0.2404689 -0.6640425 -0.7079705
vn 0.2404689 -0.6640425 -0.7079705
vn 0.2404689 -0.6640425 -0.7079705
vn 0.2404689 -0.6640425 -0.7079705
vn 0.2404689 -0.6640425 -0.7079705
vn 0.2404689 -0.6640425 -0.7079705
vn 0.2404689 -0.6640425 -0.7079705
vn 0.2404689 -0.6640425 -0.7079705
vn -0.9813421 0.1922704 0
vn -0.993461 0.1141723 0
vn -0.8090158 0.587787 0
vn -0.8918859 -0.4522603 0
vn -1 0 0
vn -0.9674892 0 -0.2529126
vn -0.8806357 -0.2861188 -0.3776464
vn -0.5442587 -0.7491073 -0.3776514
vn -0.6013185 -0.3129432 -0.7351754
vn -0.8090302 -0.5877669 0
vn -0.5938786 -0.8045546 0
vn -0.355583 -0.5723023 -0.7389389
vn -0.03372332 -0.9994312 0
vn 0 -0.9259509 -0.3776439
vn -0.02539225 -0.6725895 -0.73958
vn 0.55022 -0.8350197 0
vn 0.5442587 -0.7491073 -0.3776514
vn 0.3183521 -0.5967234 -0.7365956
vn 0.7878498 -0.5723851 -0.227306
vn 0.8690702 -0.4946888 0
vn 0.937853 -0.3470331 0
vn 1 0 0
vn 1 0 0
vn -0.1629337 -0.1615784 -0.9733165
vn -0.1629337 -0.1615784 -0.9733165
vn -0.1629337 -0.1615784 -0.9733165
vn -0.1629337 -0.1615784 -0.9733165
g PotProjectileShatteredMesh_cell.004_0
f 3/3/3 2/2/2 1/1/1
f 1/1/1 5/5/5 4/4/4
f 6/6/6 4/4/4 5/5/5
f 1/1/1 7/7/7 5/5/5
f 8/8/8 6/6/6 5/5/5
f 9/9/9 6/6/6 8/8/8
f 9/9/9 8/8/8 10/10/10
f 11/11/11 9/9/9 10/10/10
f 8/8/8 5/5/5 12/12/12
f 10/10/10 8/8/8 12/12/12
f 5/5/5 7/7/7 13/13/13
f 12/12/12 5/5/5 13/13/13
f 12/12/12 13/13/13 14/14/14
f 11/11/11 10/10/10 15/15/15
f 16/16/16 11/11/11 15/15/15
f 10/10/10 12/12/12 17/17/17
f 17/17/17 12/12/12 14/14/14
f 15/15/15 10/10/10 17/17/17
f 18/18/18 13/13/13 7/7/7
f 7/7/7 19/19/19 18/18/18
f 18/18/18 20/20/20 13/13/13
f 20/20/20 21/21/21 13/13/13
f 14/14/14 13/13/13 21/21/21
f 22/22/22 14/14/14 21/21/21
f 14/14/14 22/22/22 23/23/23
f 23/23/23 24/24/24 14/14/14
f 16/16/16 15/15/15 25/25/25
f 26/26/26 16/16/16 25/25/25
f 26/26/26 25/25/25 27/27/27
f 25/25/25 15/15/15 28/28/28
f 27/27/27 25/25/25 28/28/28
f 15/15/15 17/17/17 28/28/28
f 17/17/17 14/14/14 29/29/29
f 24/24/24 29/29/29 14/14/14
f 28/28/28 17/17/17 29/29/29
f 30/30/30 29/29/29 24/24/24
f 28/28/28 29/29/29 30/30/30
f 31/31/31 30/30/30 24/24/24
f 27/27/27 28/28/28 32/32/32
f 32/32/32 28/28/28 30/30/30
f 32/32/32 33/33/33 27/27/27
f 33/33/33 32/32/32 34/34/34
f 34/34/34 32/32/32 30/30/30
f 35/35/35 34/34/34 30/30/30
f 30/30/30 36/36/36 35/35/35
f 39/39/39 38/38/38 37/37/37
f 41/41/41 40/40/40 39/39/39
f 44/44/44 43/43/43 42/42/42
f 47/47/47 46/46/46 45/45/45
f 50/50/50 49/49/49 48/48/48
f 52/52/52 51/51/51 48/48/48
f 51/51/51 52/52/52 53/53/53
f 54/54/54 51/51/51 53/53/53
f 54/54/54 53/53/53 55/55/55
f 54/54/54 55/55/55 56/56/56
f 57/57/57 54/54/54 56/56/56
f 58/58/58 57/57/57 56/56/56
f 56/56/56 59/59/59 58/58/58
f 62/62/62 61/61/61 60/60/60
f 65/65/65 64/64/64 63/63/63
f 68/68/68 67/67/67 66/66/66
f 69/69/69 68/68/68 66/66/66
f 72/72/72 71/71/71 70/70/70
f 70/70/70 73/73/73 72/72/72
f 70/70/70 74/74/74 73/73/73
f 77/77/77 76/76/76 75/75/75
f 75/75/75 78/78/78 77/77/77
f 75/75/75 79/79/79 78/78/78
f 82/82/82 81/81/81 80/80/80
f 80/80/80 83/83/83 82/82/82
f 83/83/83 84/84/84 82/82/82
f 83/83/83 85/85/85 84/84/84
f 85/85/85 86/86/86 84/84/84
f 85/85/85 87/87/87 86/86/86
f 87/87/87 88/88/88 86/86/86
f 91/91/91 90/90/90 89/89/89
f 89/89/89 92/92/92 91/91/91
f 92/92/92 93/93/93 91/91/91
f 92/92/92 94/94/94 93/93/93
f 94/94/94 95/95/95 93/93/93
f 95/95/95 96/96/96 93/93/93
f 95/95/95 97/97/97 96/96/96
f 97/97/97 98/98/98 96/96/96
f 101/101/101 100/100/100 99/99/99
f 99/99/99 102/102/102 101/101/101
f 99/99/99 103/103/103 102/102/102
f 99/99/99 104/104/104 103/103/103
f 102/102/102 103/103/103 105/105/105
f 105/105/105 106/106/106 102/102/102
f 109/109/109 108/108/108 107/107/107
f 110/110/110 107/107/107 108/108/108
f 108/108/108 111/111/111 110/110/110
f 111/111/111 112/112/112 110/110/110
f 112/112/112 113/113/113 110/110/110
f 110/110/110 113/113/113 114/114/114
f 115/115/115 113/113/113 112/112/112
f 114/114/114 113/113/113 115/115/115
f 114/114/114 116/116/116 110/110/110
f 114/114/114 117/117/117 116/116/116
f 118/118/118 114/114/114 115/115/115
f 119/119/119 117/117/117 114/114/114
f 120/120/120 114/114/114 118/118/118
f 120/120/120 119/119/119 114/114/114
f 121/121/121 120/120/120 118/118/118
f 122/122/122 119/119/119 120/120/120
f 123/123/123 120/120/120 121/121/121
f 123/123/123 122/122/122 120/120/120
f 124/124/124 123/123/123 121/121/121
f 125/125/125 123/123/123 124/124/124
f 122/122/122 123/123/123 125/125/125
f 122/122/122 125/125/125 126/126/126
f 126/126/126 127/127/127 122/122/122
f 128/128/128 127/127/127 126/126/126
f 129/129/129 128/128/128 126/126/126
f 132/132/132 131/131/131 130/130/130
f 133/133/133 132/132/132 130/130/130
