g terrainMesh.049
v -25.46706 -15.34553 27.57165
v -26.80581 -16.74304 26.55147
v -26.30589 -17.48535 30.05901
v -25 -10.76966 33.66939
v -25 -10.70482 33.28843
v -25.18246 -10.91373 33.75689
v -28.14357 -18.55191 33.70814
v -26.30589 -17.48535 30.05901
v -27.91105 -18.6824 29.50358
v -26.80581 -16.74304 26.55147
v -25 -15.15421 27.17212
v -26.80581 -16.74304 26.55147
v -25.46706 -15.34553 27.57165
v -25 -15.6096 26.01084
v -25 -15.8425 24.73882
v -25.46706 -15.34553 27.57165
v -25 -14.27829 27.71343
v -25 -15.15421 27.17212
v -25.49451 -14.96379 30.80541
v -26.30589 -17.48535 30.05901
v -25 -13.96864 29.97217
v -25.18246 -10.91373 33.75689
v -25 -11.02017 32.96817
v -25 -10.70482 33.28843
v -28.14357 -18.55191 33.70814
v -31.90522 -12.09695 39.48223
v -31.77044 -18.2102 37.07048
v -31.62703 -20 35.18934
v -33.05544 -20 36.38112
v -34.89854 -20 38.21572
v -36.36541 -17.20279 41.11419
v -37.62158 -20 40.2244
v -41.75395 -20 43.18076
v -49.67698 -18.36459 47.31215
v -49.91483 -20 47.11593
v -29.86132 -9.999999 39.20156
v -25.14642 -9.999999 34.48877
v -25 -9.999999 34.32071
v -25 -10.76966 33.66939
v -31.2171 -9.999999 40.24851
v -32.5008 -9.999999 40.65025
v -35.55046 -9.999999 42.12394
v -36.99463 -9.999999 42.99722
v -37.54052 -9.999999 43.4922
v -39.98352 -14.55174 44.87792
v -39.40153 -9.999999 44.83709
v -44.11605 -11.76955 48.09646
v -49.9607 -9.999999 48.31123
v -43.93715 -9.999999 48.07396
v -45.82241 -9.999999 48.30879
vt 0.6532325 0.4127291
vt 0.6618364 0.4127291
vt 0.6539431 0.4035804
vt 0.3411676 0.5349386
vt 0.3417277 0.5363667
vt 0.3417277 0.5343428
vt 0.9959509 0.02900139
vt 0.9893324 0.04407192
vt 0.9959509 0.04597891
vt 0.9920993 0.05806147
vt 0.746792 0.9937239
vt 0.7401123 0.9976577
vt 0.7467919 0.9962026
vt 0.7432096 0.9906939
vt 0.7392956 0.9873733
vt 0.2124109 0.3886919
vt 0.2112831 0.384306
vt 0.2099241 0.3879553
vt 0.220864 0.3864064
vt 0.2215603 0.3968272
vt 0.2171261 0.3825341
vt 0.2273488 0.3693879
vt 0.2247457 0.3699763
vt 0.2255602 0.3686333
vt 0.2367488 0.4005036
vt 0.262996 0.373679
vt 0.2566392 0.3988129
vt 0.2514096 0.4064318
vt 0.2589066 0.4063381
vt 0.2693501 0.406148
vt 0.2812487 0.3944104
vt 0.2829592 0.4060307
vt 0.3033733 0.4058741
vt 0.3384428 0.399354
vt 0.3387516 0.4060085
vt 0.2558559 0.3650466
vt 0.2290891 0.3655374
vt 0.2282015 0.3655578
vt 0.2265517 0.3688053
vt 0.2627533 0.3649773
vt 0.2677547 0.365049
vt 0.2809835 0.3650985
vt 0.287703 0.3650811
vt 0.2906706 0.365036
vt 0.3020345 0.3833362
vt 0.2998991 0.3649624
vt 0.3229859 0.3719278
vt 0.3414787 0.3655131
vt 0.3222846 0.3647923
vt 0.3287085 0.3649805
vn 0.8047529 -0.5690859 0.1688611
vn 0.6887327 -0.7240742 -0.03692855
vn 0.8052604 -0.5918061 0.03634888
vn 0.6663004 -0.7147347 0.2125984
vn 0.9094567 -0.370326 0.1890696
vn 0.7633705 -0.445363 0.467886
vn 0.7239846 -0.4279145 0.5410504
vn 0.8052604 -0.5918061 0.03634888
vn 0.6152954 -0.7830893 -0.09045857
vn 0.6887327 -0.7240742 -0.03692855
vn 0.6395671 -0.6241547 0.4487591
vn 0.6887327 -0.7240742 -0.03692855
vn 0.8047529 -0.5690859 0.1688611
vn 0.5650889 -0.7948661 0.2210488
vn 0.5573702 -0.816691 0.1495131
vn 0.8047529 -0.5690859 0.1688611
vn 0.8878921 -0.4149681 0.1986183
vn 0.6395671 -0.6241547 0.4487591
vn 0.9132901 -0.3370551 0.2286811
vn 0.8052604 -0.5918061 0.03634888
vn 0.9287673 -0.3421533 0.1425563
vn 0.7633705 -0.445363 0.467886
vn 0.934099 -0.254438 0.25044
vn 0.9094567 -0.370326 0.1890696
vn 0.7239846 -0.4279145 0.5410504
vn 0.5476342 -0.3249671 0.7710339
vn 0.5829417 -0.4343452 0.6866755
vn 0.5111099 -0.6029125 0.6125872
vn 0.5371994 -0.6100183 0.5824899
vn 0.5342086 -0.4953271 0.6850346
vn 0.5420248 -0.3395895 0.7686925
vn 0.5206927 -0.4621868 0.7178179
vn 0.4459203 -0.217604 0.8682185
vn 0.3316227 -0.2425368 0.9117029
vn 0.4280935 -0.1687715 0.8878356
vn 0.5913672 -0.4907765 0.6398619
vn 0.6262136 -0.5023076 0.5962747
vn 0.6589822 -0.4858743 0.5741679
vn 0.6663004 -0.7147347 0.2125984
vn 0.4262967 -0.4305999 0.7955218
vn 0.3578964 -0.3747429 0.8552648
vn 0.4955707 -0.2025559 0.8446187
vn 0.6011088 -0.1525661 0.7844691
vn 0.6403129 -0.1123394 0.7598547
vn 0.5218217 -0.3027225 0.7975345
vn 0.5840114 -0.06561584 0.8090891
vn 0.3162395 -0.1660242 0.9340388
vn 0.0005798669 -0.1185675 0.9929458
vn 0.3774255 -0.02636821 0.9256645
vn 0.03204486 -0.08853537 0.9955575
g terrainMesh.049_0
f 3/3/3 2/2/2 1/1/1
f 6/6/6 5/5/5 4/4/4
f 9/9/9 8/8/8 7/7/7
f 10/10/10 8/8/8 9/9/9
f 13/13/13 12/12/12 11/11/11
f 12/12/12 14/14/14 11/11/11
f 14/14/14 12/12/12 15/15/15
f 18/18/18 17/17/17 16/16/16
f 16/16/16 17/17/17 19/19/19
f 19/19/19 20/20/20 16/16/16
f 17/17/17 21/21/21 19/19/19
f 19/19/19 21/21/21 22/22/22
f 21/21/21 23/23/23 22/22/22
f 23/23/23 24/24/24 22/22/22
f 20/20/20 19/19/19 25/25/25
f 19/19/19 22/22/22 25/25/25
f 26/26/26 25/25/25 22/22/22
f 25/25/25 26/26/26 27/27/27
f 28/28/28 25/25/25 27/27/27
f 29/29/29 28/28/28 27/27/27
f 30/30/30 29/29/29 27/27/27
f 27/27/27 31/31/31 30/30/30
f 31/31/31 27/27/27 26/26/26
f 31/31/31 32/32/32 30/30/30
f 31/31/31 33/33/33 32/32/32
f 33/33/33 31/31/31 34/34/34
f 35/35/35 33/33/33 34/34/34
f 36/36/36 26/26/26 22/22/22
f 37/37/37 36/36/36 22/22/22
f 38/38/38 37/37/37 22/22/22
f 39/39/39 38/38/38 22/22/22
f 40/40/40 26/26/26 36/36/36
f 41/41/41 26/26/26 40/40/40
f 26/26/26 41/41/41 42/42/42
f 42/42/42 43/43/43 26/26/26
f 43/43/43 31/31/31 26/26/26
f 31/31/31 43/43/43 44/44/44
f 45/45/45 31/31/31 44/44/44
f 45/45/45 34/34/34 31/31/31
f 45/45/45 44/44/44 46/46/46
f 34/34/34 45/45/45 47/47/47
f 47/47/47 45/45/45 46/46/46
f 48/48/48 34/34/34 47/47/47
f 49/49/49 47/47/47 46/46/46
f 50/50/50 48/48/48 47/47/47
f 50/50/50 47/47/47 49/49/49
