g terrainMesh.053
v 1.267275 0 -12.90877
v 2.549314 0 -13.67487
v 0.6629238 0.4538574 -13.03372
v 2.843513 1.018463 -14.51957
v 0.6311378 2.85675 -13.81801
v 2.963941 0.315216 -14.33459
v 3.423582 0 -14.50082
v 2.728703 0 -13.7898
v 3.582955 0 -14.5987
v 4.675731 1.297943 -15.14921
v 3.875252 0 -14.69226
v 4.173365 0 -14.72533
v 3.381303 2.748535 -14.92058
v 4.233526 2.097091 -15.14464
v 4.703413 3.711059 -15.36444
v -1.952818 6.895171 -12.64614
v 5 2.518488 -15.40617
v 5 2.323407 -15.37878
v 5 1.382948 -15.17591
v 5 0.4358226 -14.94065
v 5 0.4161848 -14.93508
v 5 0.4069651 -14.92886
v 4.795292 0 -14.67184
v 5 -2.980232E-08 -14.6909
v 5 2.791139 -15.41813
v 5 3.826632 -15.40818
v 5 4.046959 -15.40828
v 4.80338 6.189803 -15.16106
v 3.485157 7.319793 -14.47246
v 5 6.034699 -15.22497
v 5 6.331015 -15.17197
v 5 7.536112 -14.81483
v 5 8.573718 -14.53773
v 5 9.818505 -14.22021
v 1.321319 7.575637 -13.6215
v 4.040075 9.836684 -13.97153
v 3.995173 9.999999 -13.91715
v 5 9.999999 -14.17246
v 3.726292 9.999999 -13.86081
v 1.057979 9.999999 -13.14944
v -1.174426 9.999999 -12.41531
v -1.834998 9.999999 -12.19694
v -3.415411 9.500701 -11.49456
v -2.699216 9.999999 -11.76822
v -3.694772 9.999999 -11.01136
v -5 9.999999 -9.569034
v -5 9.377745 -9.786506
v -3.99627 7.829925 -11.46012
v -5 8.49345 -10.10835
v -5 7.034527 -10.81523
v -3.791925 6.036376 -11.84748
v -5 6.310112 -10.91009
v -4.994594 4.980224 -11.12422
v -5 4.991476 -11.11844
v -5 4.978783 -11.11894
v -4.744142 3.304473 -11.07577
v -5 3.483267 -10.86757
v -5 3.261234 -10.79755
v -3.004346 3.945495 -11.99795
v -4.447903 1.192093E-07 -9.56381
v -5 0 -9.014456
v -3.623415 0 -10.21877
v -2.882015 1.54013 -11.62209
v -1.551517 2.169067 -12.67474
v -0.8334879 0 -11.49312
v -2.222336 0 -10.49941
v -3.623415 0 -10.21877
v 0.6629238 0.4538574 -13.03372
v -0.8334879 0 -11.49312
v 0.4192376 0 -12.16308
v 0.9087992 0 -12.59356
v 1.267275 0 -12.90877
v 2.963941 0.315216 -14.33459
v 0.6629238 0.4538574 -13.03372
v 2.549314 0 -13.67487
v 2.728703 0 -13.7898
vt 0.3846933 0.6148771
vt 0.3833037 0.6207264
vt 0.3869372 0.6136156
vt 0.3867155 0.6244909
vt 0.3960771 0.6174689
vt 0.3839287 0.6238218
vt 0.3822373 0.6253877
vt 0.3831062 0.621562
vt 0.3820634 0.6261206
vt 0.3860074 0.6320779
vt 0.3817784 0.6272746
vt 0.3815121 0.6283134
vt 0.3928838 0.6287186
vt 0.3895179 0.6313735
vt 0.3953597 0.6348727
vt 0.4145637 0.6102332
vt 0.3904161 0.6348245
vt 0.3896621 0.6345836
vt 0.3860546 0.6332658
vt 0.3824338 0.6318701
vt 0.3823589 0.6318396
vt 0.3823253 0.6318173
vt 0.3810045 0.6302092
vt 0.380823 0.6309143
vt 0.3914803 0.6351027
vt 0.3955436 0.6360369
vt 0.3964073 0.6362405
vt 0.4050717 0.6370348
vt 0.4108915 0.6322834
vt 0.4042715 0.63767
vt 0.4054539 0.6378262
vt 0.410318 0.6381478
vt 0.4144942 0.6384921
vt 0.4194984 0.6389382
vt 0.4140668 0.6236264
vt 0.4204829 0.6352952
vt 0.4211826 0.6351801
vt 0.4202287 0.639
vt 0.4214332 0.6341844
vt 0.4239795 0.6239665
vt 0.4261643 0.6151099
vt 0.4268112 0.6124868
vt 0.4264721 0.6053512
vt 0.4277136 0.6087381
vt 0.4288561 0.6038371
vt 0.4305302 0.5964147
vt 0.4280056 0.5963218
vt 0.4204294 0.6018508
vt 0.4244129 0.5962182
vt 0.4184168 0.5964369
vt 0.4130728 0.6017146
vt 0.4155397 0.5959781
vt 0.4102378 0.5952419
vt 0.4102888 0.595222
vt 0.4102388 0.5952113
vt 0.4034745 0.5943983
vt 0.4044744 0.5932735
vt 0.4036314 0.5929134
vt 0.4041477 0.6026679
vt 0.3908604 0.5889571
vt 0.3915447 0.585952
vt 0.3899032 0.5930783
vt 0.3947613 0.6000103
vt 0.3956839 0.6072322
vt 0.387033 0.6049372
vt 0.3886025 0.5982377
vt 0.3899032 0.5930783
vt 0.9542024 0.1349961
vt 0.9498038 0.1275383
vt 0.9510874 0.1331191
vt 0.952245 0.1354782
vt 0.9530927 0.1372056
vt 0.7565797 0.8277589
vt 0.7565797 0.8171055
vt 0.7551001 0.8249904
vt 0.755147 0.8258479
vn -0.401327 -0.6977595 -0.5933535
vn -0.3722188 -0.720449 -0.585155
vn -0.4354253 -0.5486231 -0.7137349
vn -0.4071019 -0.2019487 -0.8907776
vn -0.4066668 -0.1037344 -0.9076681
vn -0.517509 -0.4395333 -0.7341627
vn -0.5257866 -0.3603414 -0.7705209
vn -0.4186047 -0.6959653 -0.5834401
vn -0.3671737 -0.1959318 -0.9092823
vn -0.1565647 -0.1996276 -0.9672829
vn -0.2409493 -0.1866861 -0.9524137
vn -0.0762364 -0.3238369 -0.9430364
vn -0.3474909 -0.02063094 -0.9374564
vn -0.2927674 -0.1073043 -0.9501436
vn -0.2640828 0.03433413 -0.9638886
vn -0.3844174 0.09735562 -0.9180115
vn -0.2858113 -0.07312376 -0.9554918
vn -0.2317633 -0.1421282 -0.9623333
vn -0.0216683 -0.2233666 -0.9744937
vn -0.09616668 -0.2680825 -0.9585842
vn -0.04678609 -0.373892 -0.9262914
vn 0.05175997 -0.5517503 -0.8324017
vn 0.01553438 -0.5394917 -0.8418476
vn -0.08008224 -0.5031387 -0.8604873
vn -0.2870008 -0.03665333 -0.9572288
vn -0.147165 0.003357144 -0.9891062
vn -0.2211397 0.06827068 -0.9728496
vn -0.2888356 0.1620275 -0.9435683
vn -0.3156926 0.1946832 -0.9286747
vn -0.2253532 0.1130123 -0.9677004
vn -0.2274903 0.2439096 -0.9427387
vn -0.2481827 0.2620079 -0.9326078
vn -0.2415572 0.2429001 -0.9394944
vn -0.2389046 0.2433604 -0.9400534
vn -0.3085746 0.1608336 -0.9375042
vn -0.2471423 0.2313335 -0.9409598
vn -0.2142164 0.2550514 -0.9428999
vn -0.2385973 0.2470816 -0.9391603
vn -0.2461051 0.1736225 -0.9535657
vn -0.2844414 0.1533603 -0.9463475
vn -0.3100698 0.1480156 -0.9391209
vn -0.3767874 0.1466132 -0.9146234
vn -0.5767536 0.2460771 -0.7789745
vn -0.4665756 0.1966344 -0.8623469
vn -0.6836751 0.2726033 -0.6769608
vn -0.7218787 0.2283167 -0.6532707
vn -0.7213506 0.2321592 -0.6524994
vn -0.5842856 0.1867456 -0.7897698
vn -0.7095466 0.260514 -0.6547337
vn -0.6317804 0.1874191 -0.7521487
vn -0.4934905 0.03552399 -0.8690255
vn -0.5929203 0.113347 -0.797244
vn -0.5892355 -0.02609397 -0.8075398
vn -0.6118237 0.1084357 -0.7835263
vn -0.6893648 -0.05771156 -0.7221118
vn -0.5730323 -0.221876 -0.7889265
vn -0.6875093 -0.1586701 -0.7086287
vn -0.6764019 -0.3066592 -0.6696571
vn -0.464537 -0.1173779 -0.8777402
vn -0.6226869 -0.371024 -0.6889139
vn -0.6576858 -0.3613762 -0.6609513
vn -0.4497612 -0.4735051 -0.757303
vn -0.4804361 -0.4041377 -0.7783663
vn -0.466337 -0.2209913 -0.8565586
vn -0.4266235 -0.6669596 -0.610866
vn -0.3112923 -0.6432459 -0.6995226
vn -0.4497612 -0.4735051 -0.757303
vn -0.4354253 -0.5486231 -0.7137349
vn -0.4266235 -0.6669596 -0.610866
vn -0.3138613 -0.8030872 -0.5064998
vn -0.4472872 -0.7356617 -0.508661
vn -0.401327 -0.6977595 -0.5933535
vn -0.517509 -0.4395333 -0.7341627
vn -0.4354253 -0.5486231 -0.7137349
vn -0.3722188 -0.720449 -0.585155
vn -0.4186047 -0.6959653 -0.5834401
g terrainMesh.053_0
f 3/3/3 2/2/2 1/1/1
f 5/5/5 4/4/4 3/3/3
f 3/3/3 4/4/4 6/6/6
f 7/7/7 6/6/6 4/4/4
f 7/7/7 8/8/8 6/6/6
f 9/9/9 7/7/7 4/4/4
f 9/9/9 4/4/4 10/10/10
f 11/11/11 9/9/9 10/10/10
f 12/12/12 11/11/11 10/10/10
f 4/4/4 5/5/5 13/13/13
f 14/14/14 4/4/4 13/13/13
f 14/14/14 10/10/10 4/4/4
f 13/13/13 5/5/5 15/15/15
f 14/14/14 13/13/13 15/15/15
f 5/5/5 16/16/16 15/15/15
f 17/17/17 14/14/14 15/15/15
f 17/17/17 18/18/18 14/14/14
f 18/18/18 10/10/10 14/14/14
f 18/18/18 19/19/19 10/10/10
f 10/10/10 19/19/19 20/20/20
f 12/12/12 10/10/10 20/20/20
f 20/20/20 21/21/21 12/12/12
f 12/12/12 21/21/21 22/22/22
f 23/23/23 12/12/12 22/22/22
f 22/22/22 24/24/24 23/23/23
f 25/25/25 17/17/17 15/15/15
f 26/26/26 25/25/25 15/15/15
f 27/27/27 26/26/26 15/15/15
f 27/27/27 15/15/15 28/28/28
f 28/28/28 15/15/15 29/29/29
f 30/30/30 27/27/27 28/28/28
f 28/28/28 31/31/31 30/30/30
f 28/28/28 29/29/29 31/31/31
f 29/29/29 32/32/32 31/31/31
f 29/29/29 33/33/33 32/32/32
f 34/34/34 33/33/33 29/29/29
f 29/29/29 15/15/15 35/35/35
f 16/16/16 35/35/35 15/15/15
f 36/36/36 34/34/34 29/29/29
f 35/35/35 36/36/36 29/29/29
f 34/34/34 36/36/36 37/37/37
f 38/38/38 34/34/34 37/37/37
f 39/39/39 37/37/37 36/36/36
f 36/36/36 35/35/35 39/39/39
f 35/35/35 40/40/40 39/39/39
f 40/40/40 35/35/35 41/41/41
f 35/35/35 16/16/16 41/41/41
f 16/16/16 42/42/42 41/41/41
f 16/16/16 43/43/43 42/42/42
f 43/43/43 44/44/44 42/42/42
f 45/45/45 44/44/44 43/43/43
f 45/45/45 43/43/43 46/46/46
f 43/43/43 47/47/47 46/46/46
f 43/43/43 48/48/48 47/47/47
f 43/43/43 16/16/16 48/48/48
f 48/48/48 49/49/49 47/47/47
f 50/50/50 49/49/49 48/48/48
f 48/48/48 16/16/16 51/51/51
f 48/48/48 51/51/51 50/50/50
f 51/51/51 52/52/52 50/50/50
f 16/16/16 5/5/5 51/51/51
f 51/51/51 53/53/53 52/52/52
f 53/53/53 54/54/54 52/52/52
f 54/54/54 53/53/53 55/55/55
f 53/53/53 56/56/56 55/55/55
f 56/56/56 57/57/57 55/55/55
f 56/56/56 58/58/58 57/57/57
f 51/51/51 59/59/59 53/53/53
f 5/5/5 59/59/59 51/51/51
f 56/56/56 53/53/53 59/59/59
f 58/58/58 56/56/56 60/60/60
f 61/61/61 58/58/58 60/60/60
f 62/62/62 60/60/60 56/56/56
f 63/63/63 62/62/62 56/56/56
f 63/63/63 56/56/56 59/59/59
f 64/64/64 59/59/59 5/5/5
f 59/59/59 64/64/64 63/63/63
f 3/3/3 64/64/64 5/5/5
f 3/3/3 63/63/63 64/64/64
f 3/3/3 65/65/65 63/63/63
f 65/65/65 66/66/66 63/63/63
f 66/66/66 67/67/67 63/63/63
f 70/70/70 69/69/69 68/68/68
f 71/71/71 70/70/70 68/68/68
f 72/72/72 71/71/71 68/68/68
f 75/75/75 74/74/74 73/73/73
f 76/76/76 75/75/75 73/73/73
