g terrainMesh.060
v -15 6.216087 20.65289
v -15.30964 8.201964 20.31953
v -15 7.754366 20.25135
v -15 8.383763 20.23361
v -15.43064 9.965926 20.67178
v -15 8.383763 20.23361
v -15 9.72 20.46566
v -15.89069 9.999999 21.5299
v -15.44635 9.999999 20.70347
v -15.43279 9.999999 20.66702
v -15.41464 9.999999 20.65895
v -15 9.72 20.46566
v -15 9.999999 20.43213
v -16.71661 8.340163 24.03233
v -16.78924 9.999999 23.91743
v -15.15359 4.680023 25.40774
v -17.54535 8.90805 26.17106
v -17.38937 9.999999 25.5434
v -17.68915 9.999999 26.33886
v -18.12733 9.999999 27.51123
v -18.10825 8.476302 27.76292
v -16.63092 6.578155 26.58533
v -17.54417 1.629867 30.48234
v -21.77963 8.845519 33.53331
v -23.20687 5.351211 37.26591
v -20.91789 9.999999 31.94916
v -18.12733 9.999999 27.51123
v -21.70937 9.999999 33.79848
v -22.00967 9.999999 35.28523
v -22.69065 9.999999 38.18275
v -25 6.044855 38.8682
v -25 9.999999 39.9924
v -25 2.991235 39.34796
v -25 0 39.06434
v -24.11036 0 37.92035
v -19.37561 0 32.47236
v -17.54417 1.629867 30.48234
v -17.99001 0 30.61995
v -17.11018 1.192093E-07 29.5853
v -15 0.4602514 24.1162
v -15 0 24.17698
v -15 4.041055 24.89913
v -15.15359 4.680023 25.40774
v -15 4.498042 24.0058
v -15 4.041055 24.89913
v -15 6.216087 20.65289
v -15.30964 8.201964 20.31953
vt 0.16107 0.302229
vt 0.1610581 0.2943588
vt 0.1599493 0.2961352
vt 0.1598708 0.2936077
vt 0.1622542 0.2871971
vt 0.1598708 0.2936077
vt 0.160404 0.2881789
vt 0.1658973 0.2869194
vt 0.1623831 0.2870547
vt 0.1622467 0.2870615
vt 0.1621698 0.287061
vt 0.160404 0.2881789
vt 0.1603026 0.2870605
vt 0.1750212 0.293119
vt 0.1748618 0.2864788
vt 0.1739565 0.3073192
vt 0.1830958 0.2904432
vt 0.1809304 0.2861772
vt 0.1839183 0.2860305
vt 0.1883108 0.2858137
vt 0.1889833 0.2918813
vt 0.18147 0.2996003
vt 0.19465 0.3187132
vt 0.215256 0.2895245
vt 0.22952 0.3028936
vt 0.2084295 0.285139
vt 0.1883108 0.2858137
vt 0.2156676 0.28481
vt 0.2204503 0.2845022
vt 0.2300666 0.2839147
vt 0.2391711 0.2999612
vt 0.2418835 0.2837905
vt 0.2405728 0.3121319
vt 0.2399911 0.3242296
vt 0.2342798 0.3243815
vt 0.2055447 0.3250412
vt 0.19465 0.3187132
vt 0.196466 0.3252943
vt 0.1910685 0.3254221
vt 0.17035 0.3245735
vt 0.1705313 0.3264105
vt 0.1721964 0.3099881
vt 0.9737176 0.7941467
vt 0.9777014 0.7938268
vt 0.97543 0.7917031
vt 0.9862239 0.8018087
vt 0.986224 0.8099755
vn 0.9735074 0.1762495 0.145669
vn 0.6954073 0.0928695 0.7125896
vn 0.4541593 0.1813158 0.8722751
vn 0.3185633 -0.09693016 0.9429327
vn 0.7198117 0.01565604 0.6939929
vn 0.3185633 -0.09693016 0.9429327
vn 0.3990076 -0.0676915 0.9144457
vn 0.92067 0.03585995 0.3886914
vn 0.8961053 0.0005188267 0.443841
vn 0.7123153 0.1407845 0.6875948
vn 0.4526929 0.1201545 0.8835338
vn 0.3990076 -0.0676915 0.9144457
vn 0.4772886 0.1044975 0.8725113
vn 0.9074222 0.2732368 0.3192595
vn 0.9350162 0.06503637 0.3485901
vn 0.9200243 0.2018218 0.3358916
vn 0.9165772 0.2090857 0.3408362
vn 0.9352974 0.06619657 0.3476159
vn 0.9340599 0.06915571 0.3503564
vn 0.8972232 0.08285863 0.4337337
vn 0.8536328 0.2146748 0.4745795
vn 0.8294199 0.3601569 0.4270244
vn 0.8385159 0.04629767 0.5429066
vn 0.9123153 0.0343648 0.4080439
vn 0.7871384 -0.0210579 0.6164168
vn 0.8601584 0.05389724 0.5071712
vn 0.8972232 0.08285863 0.4337337
vn 0.9513143 -0.1228093 0.2826994
vn 0.9648197 -0.1427667 0.2207726
vn 0.8149568 -0.1979176 0.5446779
vn 0.6455364 -0.08453743 0.7590364
vn 0.6019225 -0.2183316 0.768128
vn 0.7659154 -0.01486296 0.6427695
vn 0.7880595 -0.05810802 0.6128504
vn 0.7734559 -0.0533481 0.6316012
vn 0.761262 -0.06805702 0.6448631
vn 0.8385159 0.04629767 0.5429066
vn 0.7743725 -0.1601361 0.6121305
vn 0.886645 -0.01821999 0.4620918
vn 0.9280408 -0.008209509 0.3723882
vn 0.9305325 0.04794578 0.3630572
vn 0.9629298 0.01715158 0.2692065
vn 0.9200243 0.2018218 0.3358916
vn 0.9821156 0.1675822 0.08582067
vn 0.9629298 0.01715158 0.2692065
vn 0.9735074 0.1762495 0.145669
vn 0.6954073 0.0928695 0.7125896
g terrainMesh.060_0
f 3/3/3 2/2/2 1/1/1
f 2/2/2 3/3/3 4/4/4
f 2/2/2 6/6/6 5/5/5
f 6/6/6 7/7/7 5/5/5
f 8/8/8 2/2/2 5/5/5
f 9/9/9 8/8/8 5/5/5
f 5/5/5 10/10/10 9/9/9
f 11/11/11 10/10/10 5/5/5
f 5/5/5 12/12/12 11/11/11
f 12/12/12 13/13/13 11/11/11
f 2/2/2 8/8/8 14/14/14
f 8/8/8 15/15/15 14/14/14
f 16/16/16 2/2/2 14/14/14
f 14/14/14 15/15/15 17/17/17
f 15/15/15 18/18/18 17/17/17
f 19/19/19 17/17/17 18/18/18
f 17/17/17 19/19/19 20/20/20
f 21/21/21 17/17/17 20/20/20
f 17/17/17 22/22/22 14/14/14
f 22/22/22 16/16/16 14/14/14
f 21/21/21 22/22/22 17/17/17
f 16/16/16 22/22/22 23/23/23
f 21/21/21 23/23/23 22/22/22
f 23/23/23 21/21/21 24/24/24
f 25/25/25 23/23/23 24/24/24
f 24/24/24 21/21/21 26/26/26
f 21/21/21 27/27/27 26/26/26
f 26/26/26 28/28/28 24/24/24
f 24/24/24 28/28/28 29/29/29
f 24/24/24 29/29/29 30/30/30
f 25/25/25 24/24/24 30/30/30
f 31/31/31 25/25/25 30/30/30
f 32/32/32 31/31/31 30/30/30
f 31/31/31 33/33/33 25/25/25
f 33/33/33 34/34/34 25/25/25
f 34/34/34 35/35/35 25/25/25
f 35/35/35 36/36/36 25/25/25
f 36/36/36 37/37/37 25/25/25
f 37/37/37 36/36/36 38/38/38
f 39/39/39 37/37/37 38/38/38
f 37/37/37 39/39/39 40/40/40
f 39/39/39 41/41/41 40/40/40
f 37/37/37 40/40/40 16/16/16
f 40/40/40 42/42/42 16/16/16
f 45/45/45 44/44/44 43/43/43
f 44/44/44 46/46/46 43/43/43
f 46/46/46 47/47/47 43/43/43
