g Coin5Mesh
v 0.5173724 0.05607565 -0.2143028
v 0.3959797 0.05607563 -0.3959798
v 0.3959799 -0.05607556 -0.3959796
v 0.5173725 -0.05607557 -0.2143026
v 0.5599999 0.05607568 -1.09036E-07
v 0.56 -0.05607557 1.09036E-07
v 0.5173725 0.05607568 0.2143023
v 0.5173727 -0.05607557 0.2143026
v 0.3959798 0.05607566 0.3959796
v 0.39598 -0.05607552 0.3959797
v 0.2143027 0.05607564 0.5173724
v 0.2143029 -0.05607555 0.5173725
v -8.736397E-08 0.05607563 0.5599998
v 7.373586E-08 -0.05607559 0.56
v -0.2143029 0.05607561 0.5173724
v -8.736397E-08 0.05607563 0.5599998
v -0.2143027 -0.05607561 0.5173725
v 0.3959797 0.05607563 -0.3959798
v 0.2143027 -0.05607558 -0.5173724
v 0.2143026 0.05607564 -0.5173725
v 4.14684E-08 -0.05607561 -0.5599998
v -1.154591E-07 0.05607561 -0.56
v -1.154591E-07 0.05607561 -0.56
v -0.2143027 -0.05607561 -0.5173724
v -0.2143028 0.05607558 -0.5173726
v -0.3959797 -0.05607563 -0.3959797
v -0.3959798 0.05607556 -0.3959799
v -0.5173724 -0.05607565 -0.2143026
v -0.5173725 0.05607557 -0.2143029
v -0.5599999 -0.05607565 2.447837E-08
v -0.56 0.05607557 -1.935936E-07
v -0.56 0.05607557 -1.935936E-07
v -0.5173726 0.05607557 0.2143025
v -0.5173725 -0.05607565 0.2143027
v -0.5599999 -0.05607565 2.447837E-08
v -0.5173726 0.05607557 0.2143025
v -0.3959798 -0.0560756 0.3959797
v -0.5173725 -0.05607565 0.2143027
v -0.39598 0.05607559 0.3959795
v -0.2143027 -0.05607561 0.5173725
v -0.2143029 0.05607561 0.5173724
v 0.2143027 -0.05607558 -0.5173724
v 4.14684E-08 -0.05607561 -0.5599998
v -0.2143027 -0.05607561 -0.5173724
v 0.3959799 -0.05607556 -0.3959796
v -0.3959797 -0.05607563 -0.3959797
v -0.5173724 -0.05607565 -0.2143026
v 0.5173725 -0.05607557 -0.2143026
v -0.5599999 -0.05607565 2.447837E-08
v 0.56 -0.05607557 1.09036E-07
v -0.5173725 -0.05607565 0.2143027
v 0.5173727 -0.05607557 0.2143026
v 0.39598 -0.05607552 0.3959797
v -0.3959798 -0.0560756 0.3959797
v 0.2143029 -0.05607555 0.5173725
v -0.2143027 -0.05607561 0.5173725
v 7.373586E-08 -0.05607559 0.56
v -0.2143028 0.05607558 -0.5173726
v -1.154591E-07 0.05607561 -0.56
v 0.2143026 0.05607564 -0.5173725
v -0.3959798 0.05607556 -0.3959799
v 0.3959797 0.05607563 -0.3959798
v -0.5173725 0.05607557 -0.2143029
v 0.5173724 0.05607565 -0.2143028
v -0.56 0.05607557 -1.935936E-07
v 0.5599999 0.05607568 -1.09036E-07
v -0.5173726 0.05607557 0.2143025
v 0.5173725 0.05607568 0.2143023
v 0.3959798 0.05607566 0.3959796
v -0.39598 0.05607559 0.3959795
v -0.2143029 0.05607561 0.5173724
v 0.2143027 0.05607564 0.5173724
v -8.736397E-08 0.05607563 0.5599998
vt 0.8996735 0.316205
vt 0.8053194 0.1749943
vt 0.8053194 0.1749943
vt 0.8996737 0.316205
vt 0.9328061 0.4827745
vt 0.9328061 0.4827745
vt 0.8996735 0.6493437
vt 0.8996737 0.649344
vt 0.8053194 0.7905547
vt 0.8053197 0.7905547
vt 0.6641087 0.8849087
vt 0.6641089 0.8849089
vt 0.4975392 0.9180414
vt 0.4975392 0.9180416
vt 0.3309696 0.8849087
vt 0.4975392 0.9180414
vt 0.3309698 0.8849089
vt 0.8053194 0.1749943
vt 0.6641087 0.08064032
vt 0.6641087 0.0806402
vt 0.4975392 0.04750761
vt 0.4975391 0.04750738
vt 0.4975391 0.04750738
vt 0.3309698 0.08064032
vt 0.3309698 0.0806402
vt 0.1897591 0.1749943
vt 0.189759 0.1749943
vt 0.09540501 0.316205
vt 0.09540501 0.316205
vt 0.06227231 0.4827745
vt 0.06227231 0.4827744
vt 0.06227231 0.4827744
vt 0.09540489 0.6493437
vt 0.09540501 0.649344
vt 0.06227231 0.4827745
vt 0.09540489 0.6493437
vt 0.189759 0.7905547
vt 0.09540501 0.649344
vt 0.1897587 0.7905547
vt 0.3309698 0.8849089
vt 0.3309696 0.8849087
vt 0.6641087 0.08064032
vt 0.4975392 0.04750761
vt 0.3309698 0.08064032
vt 0.8053194 0.1749943
vt 0.1897591 0.1749943
vt 0.09540501 0.316205
vt 0.8996737 0.316205
vt 0.06227231 0.4827745
vt 0.9328061 0.4827745
vt 0.09540501 0.649344
vt 0.8996737 0.649344
vt 0.8053197 0.7905547
vt 0.189759 0.7905547
vt 0.6641089 0.8849089
vt 0.3309698 0.8849089
vt 0.4975392 0.9180416
vt 0.3309698 0.0806402
vt 0.4975391 0.04750738
vt 0.6641087 0.0806402
vt 0.189759 0.1749943
vt 0.8053194 0.1749943
vt 0.09540501 0.316205
vt 0.8996735 0.316205
vt 0.06227231 0.4827744
vt 0.9328061 0.4827745
vt 0.09540489 0.6493437
vt 0.8996735 0.6493437
vt 0.8053194 0.7905547
vt 0.1897587 0.7905547
vt 0.3309696 0.8849087
vt 0.6641087 0.8849087
vt 0.4975392 0.9180414
vn 0.6894056 0.6657224 -0.2855407
vn 0.5276468 0.6657159 -0.5276468
vn 0.5276468 -0.6657159 -0.5276468
vn 0.6894056 -0.6657224 -0.2855407
vn 0.7462008 0.665721 0
vn 0.7462008 -0.665721 0
vn 0.6894056 0.6657224 0.2855407
vn 0.6894056 -0.6657224 0.2855407
vn 0.5276468 0.6657159 0.5276468
vn 0.5276468 -0.6657159 0.5276468
vn 0.2855407 0.6657224 0.6894056
vn 0.2855407 -0.6657224 0.6894056
vn 0 0.665721 0.7462008
vn 0 -0.665721 0.7462008
vn -0.2855407 0.6657224 0.6894056
vn 0 0.665721 0.7462008
vn -0.2855407 -0.6657224 0.6894056
vn 0.5276468 0.6657159 -0.5276468
vn 0.2855407 -0.6657224 -0.6894056
vn 0.2855407 0.6657224 -0.6894056
vn 0 -0.665721 -0.7462008
vn 0 0.665721 -0.7462008
vn 0 0.665721 -0.7462008
vn -0.2855407 -0.6657224 -0.6894056
vn -0.2855407 0.6657224 -0.6894056
vn -0.5276468 -0.6657159 -0.5276468
vn -0.5276468 0.6657159 -0.5276468
vn -0.6894056 -0.6657224 -0.2855407
vn -0.6894056 0.6657224 -0.2855407
vn -0.7462008 -0.665721 0
vn -0.7462008 0.665721 0
vn -0.7462008 0.665721 0
vn -0.6894056 0.6657224 0.2855407
vn -0.6894056 -0.6657224 0.2855407
vn -0.7462008 -0.665721 0
vn -0.6894056 0.6657224 0.2855407
vn -0.5276468 -0.6657159 0.5276468
vn -0.6894056 -0.6657224 0.2855407
vn -0.5276468 0.6657159 0.5276468
vn -0.2855407 -0.6657224 0.6894056
vn -0.2855407 0.6657224 0.6894056
vn 0 -1 0
vn 0 -1 0
vn 0 -1 0
vn 0 -1 0
vn 0 -1 0
vn 0 -1 0
vn 0 -1 0
vn 0 -1 0
vn 0 -1 0
vn 0 -1 0
vn 0 -1 0
vn 0 -1 0
vn 0 -1 0
vn 0 -1 0
vn 0 -1 0
vn 0 -1 0
vn 0 1 0
vn 0 1 0
vn 0 1 0
vn 0 1 0
vn 0 1 0
vn 0 1 0
vn 0 1 0
vn 0 1 0
vn 0 1 0
vn 0 1 0
vn 0 1 0
vn 0 1 0
vn 0 1 0
vn 0 1 0
vn 0 1 0
vn 0 1 0
g Coin5Mesh_0
f 3/3/3 2/2/2 1/1/1
f 4/4/4 3/3/3 1/1/1
f 4/4/4 1/1/1 5/5/5
f 6/6/6 4/4/4 5/5/5
f 6/6/6 5/5/5 7/7/7
f 8/8/8 6/6/6 7/7/7
f 8/8/8 7/7/7 9/9/9
f 10/10/10 8/8/8 9/9/9
f 10/10/10 9/9/9 11/11/11
f 12/12/12 10/10/10 11/11/11
f 12/12/12 11/11/11 13/13/13
f 14/14/14 12/12/12 13/13/13
f 14/14/14 16/16/16 15/15/15
f 17/17/17 14/14/14 15/15/15
f 3/3/3 19/19/19 18/18/18
f 19/19/19 20/20/20 18/18/18
f 19/19/19 21/21/21 20/20/20
f 21/21/21 22/22/22 20/20/20
f 21/21/21 24/24/24 23/23/23
f 24/24/24 25/25/25 23/23/23
f 24/24/24 26/26/26 25/25/25
f 26/26/26 27/27/27 25/25/25
f 26/26/26 28/28/28 27/27/27
f 28/28/28 29/29/29 27/27/27
f 28/28/28 30/30/30 29/29/29
f 30/30/30 31/31/31 29/29/29
f 34/34/34 33/33/33 32/32/32
f 35/35/35 34/34/34 32/32/32
f 38/38/38 37/37/37 36/36/36
f 37/37/37 39/39/39 36/36/36
f 37/37/37 40/40/40 39/39/39
f 40/40/40 41/41/41 39/39/39
f 44/44/44 43/43/43 42/42/42
f 42/42/42 45/45/45 44/44/44
f 45/45/45 46/46/46 44/44/44
f 45/45/45 47/47/47 46/46/46
f 45/45/45 48/48/48 47/47/47
f 48/48/48 49/49/49 47/47/47
f 48/48/48 50/50/50 49/49/49
f 50/50/50 51/51/51 49/49/49
f 50/50/50 52/52/52 51/51/51
f 52/52/52 53/53/53 51/51/51
f 53/53/53 54/54/54 51/51/51
f 53/53/53 55/55/55 54/54/54
f 55/55/55 56/56/56 54/54/54
f 55/55/55 57/57/57 56/56/56
f 60/60/60 59/59/59 58/58/58
f 58/58/58 61/61/61 60/60/60
f 61/61/61 62/62/62 60/60/60
f 61/61/61 63/63/63 62/62/62
f 63/63/63 64/64/64 62/62/62
f 63/63/63 65/65/65 64/64/64
f 65/65/65 66/66/66 64/64/64
f 65/65/65 67/67/67 66/66/66
f 67/67/67 68/68/68 66/66/66
f 67/67/67 69/69/69 68/68/68
f 67/67/67 70/70/70 69/69/69
f 70/70/70 71/71/71 69/69/69
f 71/71/71 72/72/72 69/69/69
f 71/71/71 73/73/73 72/72/72
