g mdlIcoRockS
v 0.2662978 -1.111493 -0.2193053
v 0.4549333 0.668796 -0.8101743
v 0.04903423 -0.3670933 -1.000508
v 0.04903423 -0.3670933 -1.000508
v 0.4549333 0.668796 -0.8101743
v -2.04521 -0.4599493 -0.2085017
v 0.2662978 -1.111493 -0.2193053
v 0.9074208 -0.07085123 0.7633341
v 0.4549333 0.668796 -0.8101743
v 0.4549333 0.668796 -0.8101743
v -0.1176018 1.035702 0.5748255
v -2.04521 -0.4599493 -0.2085017
v 0.4549333 0.668796 -0.8101743
v 0.9074208 -0.07085123 0.7633341
v -0.1176018 1.035702 0.5748255
v -0.1176018 1.035702 0.5748255
v 0.9074208 -0.07085123 0.7633341
v -1.444295 -1.068637 0.5564582
v -0.1176018 1.035702 0.5748255
v -1.444295 -1.068637 0.5564582
v -2.04521 -0.4599493 -0.2085017
v -1.444295 -1.068637 0.5564582
v 0.9074208 -0.07085123 0.7633341
v 0.2662978 -1.111493 -0.2193053
v -2.04521 -0.4599493 -0.2085017
v -1.444295 -1.068637 0.5564582
v 0.2662978 -1.111493 -0.2193053
v 0.04903423 -0.3670933 -1.000508
v -2.04521 -0.4599493 -0.2085017
v 0.2662978 -1.111493 -0.2193053
vn 0.8477428 -0.2458177 -0.4700063
vn 0.8477428 -0.2458177 -0.4700063
vn 0.8477428 -0.2458177 -0.4700063
vn -0.3490544 0.2998995 -0.8878183
vn -0.3490544 0.2998995 -0.8878183
vn -0.3490544 0.2998995 -0.8878183
vn 0.9065723 -0.2163338 -0.3623897
vn 0.9065723 -0.2163338 -0.3623897
vn 0.9065723 -0.2163338 -0.3623897
vn -0.4553491 0.7958648 -0.3990695
vn -0.4553491 0.7958648 -0.3990695
vn -0.4553491 0.7958648 -0.3990695
vn 0.7188141 0.6855343 0.1155374
vn 0.7188141 0.6855343 0.1155374
vn 0.7188141 0.6855343 0.1155374
vn -0.1140533 0.06325178 0.991459
vn -0.1140533 0.06325178 0.991459
vn -0.1140533 0.06325178 0.991459
vn -0.5756577 0.3565038 0.7358826
vn -0.5756577 0.3565038 0.7358826
vn -0.5756577 0.3565038 0.7358826
vn 0.2609594 -0.7428791 0.6164663
vn 0.2609594 -0.7428791 0.6164663
vn 0.2609594 -0.7428791 0.6164663
vn -0.2397683 -0.8426407 -0.4821492
vn -0.2397683 -0.8426407 -0.4821492
vn -0.2397683 -0.8426407 -0.4821492
vn -0.2105473 -0.736304 -0.6430601
vn -0.2105473 -0.736304 -0.6430601
vn -0.2105473 -0.736304 -0.6430601
g mdlIcoRockS_0
f 3/3/3 2/2/2 1/1/1
f 6/6/6 5/5/5 4/4/4
f 9/9/9 8/8/8 7/7/7
f 12/12/12 11/11/11 10/10/10
f 15/15/15 14/14/14 13/13/13
f 18/18/18 17/17/17 16/16/16
f 21/21/21 20/20/20 19/19/19
f 24/24/24 23/23/23 22/22/22
f 27/27/27 26/26/26 25/25/25
f 30/30/30 29/29/29 28/28/28
